<?xml version="1.0" encoding="UTF-8"?>
<svg width="233.32" height="256.67" version="1.1" viewBox="0 0 61.732 67.911" xmlns="http://www.w3.org/2000/svg" xmlns:cc="http://creativecommons.org/ns#" xmlns:dc="http://purl.org/dc/elements/1.1/" xmlns:rdf="http://www.w3.org/1999/02/22-rdf-syntax-ns#">
<metadata>
<rdf:RDF>
<cc:Work rdf:about="">
<dc:format>image/svg+xml</dc:format>
<dc:type rdf:resource="http://purl.org/dc/dcmitype/StillImage"/>
<dc:title/>
</cc:Work>
</rdf:RDF>
</metadata>
<g transform="translate(-182.3 -73.061)">
<path d="m213.16 110.1-25.491 14.715c8.1302 14.078 26.132 18.903 40.209 10.773 14.078-8.1276 18.901-26.129 10.773-40.207-5.257-9.1065-14.975-14.718-25.491-14.718z" fill="#4285f4" fill-rule="evenodd"/>
<path d="m213.24 110.1c0 0.0318-0.0159 0.0582-0.0423 0.0741l-25.491 14.715 0.0317-0.11642 0.79106 1.2938 0.84398 1.2302 0.89424 1.18 0.94716 1.1244 0.99478 1.0662 1.0398 1.0054 1.0821 0.9498 1.1191 0.89161 1.1588 0.83339 1.1958 0.77254 1.2276 0.71169 1.2541 0.6482 1.2858 0.58734 0.65084 0.26987 0.65614 0.25663 0.66142 0.23546 0.67201 0.22224 0.672 0.20901 0.6773 0.19049 0.68259 0.17198 0.68788 0.15873 0.68788 0.14023 0.69317 0.12699 0.69582 0.10847 0.70111 0.09 0.70111 0.0767 0.70376 0.0582 0.7064 0.0423 0.70905 0.0212 0.7064 8e-3 0.70904-0.0106 0.70905-0.0265 0.71169-0.0423 0.71169-0.0635 0.70905-0.0794 0.70905-0.0953 0.7064-0.11641 0.70904-0.13229 0.70375-0.1508 0.70376-0.16932 0.69846-0.18256 0.70111-0.20372 0.69582-0.22488 0.69053-0.24076 0.68788-0.25663 0.68523-0.2778 0.68259-0.29632 0.67465-0.31484 0.67201-0.33335 0.66672-0.35188 0.66142-0.3704 1.2884-0.78842 1.2302-0.84133 1.18-0.89689 1.1244-0.94716 1.0662-0.99213 1.0054-1.0398 0.94981-1.0821 0.8916-1.1191 0.83074-1.1615 0.77519-1.1932 0.7117-1.2276 0.64819-1.2541 0.5847-1.2858 0.27251-0.65084 0.25399-0.65613 0.23811-0.66407 0.22224-0.66937 0.20636-0.672 0.19049-0.6773 0.17197-0.68259 0.15874-0.68788 0.14287-0.69053 0.12435-0.69053 0.10847-0.69581 0.0926-0.70111 0.0741-0.70111 0.0609-0.70376 0.0397-0.7064 0.0212-0.70904 8e-3 -0.7064-0.0106-0.70905-0.0265-0.70905-0.0423-0.71434-0.0609-0.70904-0.0794-0.70905-0.0979-0.70904-0.11376-0.70641-0.13228-0.70904-0.15081-0.70376-0.16932-0.70375-0.18256-0.69847-0.20636-0.69846-0.22224-0.69582-0.24076-0.69317-0.25663-0.68788-0.2778-0.68524-0.29631-0.67994-0.31484-0.6773-0.33336-0.66936-0.35188-0.66936-0.36775-0.65878-0.50533-0.84133-0.52914-0.82017-0.55559-0.799-0.57677-0.77519-0.60586-0.75931-0.62174-0.73286-0.64819-0.70904-0.66672-0.68524-0.69053-0.66671-0.70904-0.63762-0.72757-0.61644-0.74609-0.58999-0.76725-0.56618-0.78048-0.53973-0.799-0.51591-0.81487-0.4868-0.83075-0.463-0.84398-0.4339-0.85985-0.40743-0.87308-0.37834-0.88366-0.35452-0.89689-0.32013-0.91012-0.29367-0.91806-0.26722-0.92864-0.23546-0.93921-0.20372-0.94716-0.17462-0.9551-0.14287-0.96303-0.11376-0.97097-0.0794-0.97362-0.0503-0.98155-0.0159 0.0847-0.0847zm-0.16933-29.436c0-0.0212 0.0106-0.0423 0.0265-0.0582s0.037-0.0265 0.0608-0.0265l0.98685 0.0185 0.97891 0.0503 0.97626 0.0794 0.96832 0.11377 0.96039 0.14286 0.95245 0.17462 0.94451 0.20636 0.93393 0.23812 0.92335 0.26721 0.91541 0.29367 0.90218 0.32542 0.88895 0.35453 0.87838 0.38362 0.86514 0.40744 0.84927 0.43654 0.83604 0.46564 0.82016 0.4921 0.80429 0.51591 0.78313 0.54502 0.7699 0.56617 0.75138 0.59529 0.73285 0.62173 0.71434 0.64026 0.69053 0.66936 0.672 0.69053 0.65349 0.71434 0.62438 0.73815 0.60851 0.75931 0.58206 0.78048 0.55559 0.80429 0.53444 0.82546 0.50532 0.84662 0.37305 0.66407 0.35187 0.66937 0.33865 0.67465 0.31484 0.68259 0.29632 0.68259 0.2778 0.68788 0.26192 0.69317 0.24076 0.69846 0.22224 0.69582 0.20636 0.70376 0.18784 0.70375 0.16933 0.70905 0.1508 0.70904 0.13229 0.70905 0.11376 0.71169 0.0979 0.71434 0.0794 0.71434 0.0609 0.71169 0.045 0.71699 0.0265 0.71433 0.0106 0.71434-8e-3 0.71169-0.0238 0.70905-0.0397 0.71169-0.0609 0.70905-0.0741 0.7064-0.0926 0.70111-0.10847 0.70111-0.12435 0.69582-0.14287 0.69581-0.16139 0.68789-0.17461 0.68787-0.19049 0.6826-0.20637 0.67729-0.22223 0.66937-0.24341 0.66935-0.25398 0.66143-0.27251 0.65613-0.58999 1.2911-0.65349 1.2646-0.71698 1.2329-0.77784 1.1985-0.83339 1.1668-0.89689 1.1297-0.95774 1.0874-1.0133 1.045-1.0715 0.99743-1.1297 0.95245-1.1853 0.90218-1.2408 0.84663-1.2937 0.78842-0.66672 0.37568-0.66671 0.35188-0.6773 0.336-0.67995 0.31749-0.68523 0.29632-0.68788 0.27779-0.69318 0.26193-0.69581 0.24075-0.70111 0.22489-0.70111 0.20372-0.70376 0.18784-0.70904 0.16933-0.70904 0.1508-0.70905 0.13229-0.71169 0.11641-0.71434 0.0952-0.71434 0.0794-0.71434 0.0635-0.71433 0.045-0.71434 0.0265-0.71434 0.0106-0.71169-8e-3 -0.70905-0.0238-0.71169-0.0423-0.70905-0.0582-0.7064-0.0767-0.70111-0.09-0.70111-0.10847-0.69846-0.12699-0.69317-0.14023-0.68788-0.16138-0.68788-0.17462-0.68259-0.19049-0.6773-0.20901-0.67201-0.22224-0.66671-0.24075-0.66143-0.25664-0.65613-0.26986-1.2911-0.59263-1.2646-0.65349-1.2329-0.71698-1.2011-0.77519-1.1641-0.83604-1.1297-0.89689-1.0874-0.95775-1.045-1.0133-1.0001-1.0715-0.95245-1.1297-0.89953-1.1853-0.84927-1.2408-0.79106-1.2938c-0.0106-0.0185-0.0159-0.0423-0.0106-0.0635 8e-3 -0.0238 0.0212-0.0423 0.0397-0.0529l25.491-14.715-0.0423 0.0714z" fill="#2e60b3" stroke="#2e60b3" stroke-linejoin="bevel" stroke-width=".042331px"/>
<path d="m213.16 110.1-18.919-22.549c-10.943 9.1806-13.713 24.896-6.5719 37.265z" fill="#ea4335" fill-rule="evenodd"/>
<path d="m213.12 110.03-0.0212 0.12699-18.919-22.549 0.1217 0.0106-1.0027 0.87837-0.94981 0.91541-0.90218 0.94716-0.85456 0.97891-0.80429 1.0107-0.75667 1.0424-0.7064 1.0689-0.65614 1.0927-0.60321 1.1191-0.5556 1.1376-0.50533 1.1588-0.45241 1.18-0.3995 1.1958-0.35188 1.2064-0.29367 1.2223-0.24605 1.2355-0.19314 1.2408-0.13757 1.2488-0.0873 1.2567-0.0317 1.2594 0.0238 1.262 0.0767 1.262 0.13228 1.2594 0.18785 1.2594 0.24075 1.2488 0.29897 1.2461 0.35188 1.2382 0.41272 1.225 0.46565 1.2144 0.52384 1.1985 0.58206 1.1826 0.64026 1.1668-0.11906-0.0317zm-25.407 14.861c-0.0185 0.0106-0.0423 0.0159-0.0635 8e-3 -0.0212-5e-3 -0.0397-0.0212-0.0529-0.0397l-0.64026-1.172-0.58734-1.1932-0.52385-1.2038-0.47094-1.2197-0.41273-1.2355-0.35716-1.2435-0.29897-1.2514-0.24076-1.2594-0.18784-1.2646-0.13229-1.2699-0.0794-1.2673-0.0238-1.2673 0.0344-1.2699 0.0873-1.262 0.13758-1.2541 0.19314-1.2514 0.24605-1.2408 0.29896-1.2276 0.35188-1.217 0.40479-1.2011 0.45241-1.1853 0.51062-1.1668 0.5556-1.1456 0.60851-1.1244 0.66142-1.098 0.71169-1.0742 0.75667-1.0477 0.80959-1.0186 0.85985-0.98684 0.90747-0.95245 0.9551-0.92071 1.0027-0.87837c0.0185-0.0132 0.0397-0.0212 0.0635-0.0185 0.0212 0 0.0423 0.0106 0.0582 0.0291l18.919 22.549c0.0159 0.0185 0.0238 0.045 0.0185 0.0688-5e-3 0.0238-0.0185 0.045-0.0423 0.0582z" fill="#ac2f24" stroke="#ac2f24" stroke-linejoin="bevel" stroke-width=".042331px"/>
<path d="m213.16 110.1v-29.436c-6.9185 0-13.617 2.4393-18.919 6.8868z" fill="#fbbc04" fill-rule="evenodd"/>
<path d="m213.23 110.05-0.15081 0.0529v-29.436l0.0873 0.0847-1.2937 0.0291-1.2832 0.0847-1.2752 0.14022-1.2673 0.19578-1.2514 0.25135-1.2382 0.30425-1.225 0.35717-1.2064 0.41008-1.1879 0.46035-1.1668 0.51591-1.1429 0.56089-1.1218 0.61645-1.0953 0.66407-1.0689 0.71169-1.0371 0.75931-1.008 0.80694 0.0132-0.11905zm-19.049-22.441c-0.0159-0.0185-0.0212-0.0397-0.0185-0.0635 0-0.0212 0.0132-0.0423 0.0291-0.0582l1.016-0.80959 1.0424-0.7646 1.0742-0.71699 1.1006-0.66936 1.1271-0.61644 1.1535-0.56618 1.172-0.51591 1.1932-0.46565 1.2144-0.41008 1.2329-0.36246 1.2435-0.30425 1.262-0.25134 1.2726-0.19579 1.2805-0.14022 1.2938-0.0873 1.2937-0.0291c0.0212 0 0.045 0.0106 0.0608 0.0265 0.0159 0.0159 0.0238 0.037 0.0238 0.0582v29.436c0 0.037-0.0212 0.0688-0.0556 0.082-0.0318 0.0106-0.0688 0-0.0926-0.0265z" fill="#b98902" stroke="#b98902" stroke-linejoin="bevel" stroke-width=".042331px"/>
<text x="216.53676" y="114.7264" fill="#000000" font-family="Arial" font-size="3.5057px" font-weight="400" letter-spacing="0px" stroke-width=".26458" word-spacing="0px" style="line-height:125%" xml:space="preserve"><tspan x="216.53676" y="114.7264" stroke-width=".26458"><tspan dx="0" dy="0" fill="#000000" font-family="Arial" font-size="3.5057px" font-weight="400" stroke-width=".26458">2 Languages: </tspan></tspan></text>
<text x="221.65881" y="118.79018" fill="#000000" font-family="Arial" font-size="3.5057px" font-weight="400" letter-spacing="0px" stroke-width=".26458" word-spacing="0px" style="line-height:125%" xml:space="preserve"><tspan x="221.65881" y="118.79018" stroke-width=".26458"><tspan dx="0" dy="0" fill="#000000" font-family="Arial" font-size="3.5057px" font-weight="400" stroke-width=".26458">6; 67%</tspan></tspan></text>
<text x="185.20288" y="109.43501" fill="#000000" font-family="Arial" font-size="3.5057px" font-weight="400" letter-spacing="0px" stroke-width=".26458" word-spacing="0px" style="line-height:125%" xml:space="preserve"><tspan x="185.20288" y="109.43501" stroke-width=".26458"><tspan dx="0" dy="0" fill="#000000" font-family="Arial" font-size="3.5057px" font-weight="400" stroke-width=".26458">3 Languages:</tspan></tspan></text>
<text x="190.32495" y="113.49879" fill="#000000" font-family="Arial" font-size="3.5057px" font-weight="400" letter-spacing="0px" stroke-width=".26458" word-spacing="0px" style="line-height:125%" xml:space="preserve"><tspan x="190.32495" y="113.49879" stroke-width=".26458"><tspan dx="0" dy="0" fill="#000000" font-family="Arial" font-size="3.5057px" font-weight="400" stroke-width=".26458">2; 22%</tspan></tspan></text>
<text x="188.64229" y="76.892937" fill="#000000" font-family="Arial" font-size="3.5057px" font-weight="400" letter-spacing="0px" stroke-width=".26458" word-spacing="0px" style="line-height:125%" xml:space="preserve"><tspan x="188.64229" y="76.892937" stroke-width=".26458"><tspan dx="0" dy="0" fill="#000000" font-family="Arial" font-size="3.5057px" font-weight="400" stroke-width=".26458">5 Languages: </tspan></tspan></text>
<text x="193.76436" y="80.956734" fill="#000000" font-family="Arial" font-size="3.5057px" font-weight="400" letter-spacing="0px" stroke-width=".26458" word-spacing="0px" style="line-height:125%" xml:space="preserve"><tspan x="193.76436" y="80.956734" stroke-width=".26458"><tspan dx="0" dy="0" fill="#000000" font-family="Arial" font-size="3.5057px" font-weight="400" stroke-width=".26458">1; 11%</tspan></tspan></text>
</g>
</svg>
