<?xml version="1.0" encoding="UTF-8"?>
<svg width="319.28" height="319.28" version="1.1" viewBox="0 0 84.477 84.477" xmlns="http://www.w3.org/2000/svg" xmlns:cc="http://creativecommons.org/ns#" xmlns:dc="http://purl.org/dc/elements/1.1/" xmlns:rdf="http://www.w3.org/1999/02/22-rdf-syntax-ns#">
<metadata>
<rdf:RDF>
<cc:Work rdf:about="">
<dc:format>image/svg+xml</dc:format>
<dc:type rdf:resource="http://purl.org/dc/dcmitype/StillImage"/>
<dc:title/>
</cc:Work>
</rdf:RDF>
</metadata>
<g transform="translate(-93.252 -84.622)">
<path d="m135.49 126.86 26.229-31.262c-7.3497-6.1698-16.636-9.551-26.229-9.551z" fill="#4285f4" fill-rule="evenodd"/>
<path d="m135.58 126.86-0.14816-0.0529 26.229-31.262 0.0106 0.11641-0.69318-0.56618-0.70375-0.5556-0.71434-0.53443-0.72492-0.51856-0.7355-0.50268-0.74609-0.48681-0.75667-0.46564-0.76196-0.45506-0.77254-0.43389-0.78313-0.41802-0.78842-0.39686-0.799-0.38627-0.80958-0.35981-0.80958-0.34923-0.82017-0.33336-0.83075-0.31219-0.83074-0.29103-0.84134-0.27515-0.84662-0.25399-0.85191-0.2434-0.85721-0.21695-0.8625-0.20107-0.86778-0.1852-0.86779-0.16404-0.87837-0.14286-0.87837-0.127-0.88367-0.10582-0.88895-0.09-0.88895-0.0688-0.89425-0.0476-0.89425-0.0318-0.89424-0.0106 0.0847-0.0847zm-0.16932-40.812c0-0.0212 0.0106-0.0423 0.0264-0.0582 0.0159-0.0159 0.037-0.0264 0.0582-0.0264l0.89954 0.0106 0.89953 0.0318 0.89425 0.0476 0.89424 0.0688 0.88896 0.09 0.88895 0.10583 0.88366 0.12699 0.87838 0.14816 0.87837 0.16403 0.86778 0.17991 0.86779 0.20637 0.85721 0.22223 0.8572 0.23812 0.85192 0.25928 0.84133 0.27515 0.84133 0.29102 0.82546 0.31749 0.82545 0.32806 0.82017 0.34924 0.80429 0.37039 0.80429 0.38098 0.79371 0.40215 0.78313 0.41802 0.77783 0.43918 0.76725 0.44977 0.75667 0.47094 0.75138 0.48681 0.73551 0.50797 0.73021 0.51856 0.71963 0.53972 0.70375 0.55559 0.69847 0.57147c0.0159 0.0106 0.0265 0.0318 0.0265 0.0529 5e-3 0.0265-5e-3 0.0476-0.0159 0.0635l-26.235 31.262c-0.0212 0.0265-0.0582 0.037-0.0952 0.0265-0.0318-0.0106-0.0529-0.0423-0.0529-0.0794z" fill="#2e60b3" stroke="#2e60b3" stroke-linejoin="bevel" stroke-width=".042331px"/>
<path d="m135.49 126.86 40.188-7.0852c-1.6668-9.4504-6.609-18.012-13.959-24.176z" fill="#ea4335" fill-rule="evenodd"/>
<path d="m135.56 126.92-0.0794-0.13758 40.193-7.0852-0.0688 0.10053-0.16932-0.88366-0.1852-0.87837-0.20108-0.86779-0.22223-0.86779-0.23812-0.8572-0.25928-0.84662-0.28044-0.84663-0.29632-0.83604-0.31219-0.83075-0.32807-0.82545-0.34923-0.80959-0.3651-0.80429-0.38098-0.80429-0.40215-0.78312-0.41802-0.78313-0.43389-0.76725-0.44977-0.76196-0.46565-0.75138-0.48151-0.7408-0.50268-0.73021-0.51327-0.71963-0.52914-0.70904-1.1112-1.3864-1.1747-1.3334-1.2276-1.2858-1.2911-1.2382-1.344-1.18 0.1217-0.0106zm26.102-31.367c0.0159-0.0212 0.037-0.0318 0.0582-0.0318 0.0265 0 0.0476 5e-3 0.0635 0.0212l1.3546 1.1853 1.2911 1.2382 1.2329 1.2964 1.18 1.3387 1.1112 1.3916 0.53443 0.70905 0.51855 0.72492 0.49739 0.73021 0.48681 0.74609 0.47094 0.75137 0.44976 0.76726 0.43919 0.77254 0.41802 0.78312 0.39686 0.79371 0.38627 0.799 0.37039 0.80959 0.34924 0.82016 0.32806 0.82546 0.31748 0.83075 0.29632 0.84133 0.27516 0.84662 0.25927 0.85721 0.24341 0.8572 0.22224 0.87308 0.20636 0.87308 0.1852 0.87837 0.16403 0.88366c5e-3 0.0212 0 0.0476-0.0106 0.0635-0.0159 0.0212-0.037 0.0318-0.0582 0.037l-40.188 7.0852c-0.037 5e-3 -0.0741-0.0106-0.09-0.0423s-0.0159-0.0688 0.0106-0.0952z" fill="#ac2f24" stroke="#ac2f24" stroke-linejoin="bevel" stroke-width=".042331px"/>
<path d="m135.49 126.86 35.341 20.404c4.7993-8.3075 6.5137-18.044 4.8469-27.489z" fill="#fbbc04" fill-rule="evenodd"/>
<path d="m135.51 126.95 0.0265-0.15875 35.341 20.409-0.11112 0.0317 0.43918-0.78313 0.41802-0.7937 0.40744-0.79371 0.38627-0.8043 0.36511-0.81487 0.34923-0.81487 0.32807-0.82546 0.31748-0.83604 0.29103-0.83604 0.27515-0.84133 0.25399-0.84663 0.23811-0.85191 0.22224-0.8572 0.20107-0.8625 0.17991-0.8625 0.16403-0.86779 0.14287-0.87837 0.12699-0.87308 0.10583-0.87837 0.0847-0.87837 0.0688-0.88366 0.0476-0.88366 0.0265-0.88896 0.0106-0.88366-5e-3 -0.88895-0.0317-0.88896-0.0476-0.88895-0.0635-0.88366-0.09-0.88896-0.10583-0.88895-0.12699-0.88366-0.14287-0.88367 0.0952 0.0688zm40.162-7.2545c0.0212-5e-3 0.0423 0 0.0635 0.0159 0.0159 0.0106 0.0317 0.0317 0.0317 0.0529l0.14816 0.88896 0.127 0.89424 0.10582 0.88896 0.0847 0.88895 0.0688 0.89425 0.0476 0.88895 0.0317 0.89425 5e-3 0.88895-0.0106 0.88895-0.0265 0.89425-0.0476 0.88895-0.0688 0.88366-0.09 0.88367-0.10583 0.88366-0.1217 0.87837-0.14816 0.87308-0.16403 0.87308-0.17991 0.87308-0.20107 0.8625-0.22224 0.8572-0.23811 0.85721-0.25928 0.85191-0.27515 0.84662-0.29632 0.84134-0.31219 0.83074-0.33336 0.83075-0.34923 0.82546-0.3704 0.80958-0.38627 0.80959-0.40215 0.799-0.42331 0.79371-0.44448 0.78312c-0.0106 0.0212-0.0264 0.037-0.0476 0.0423-0.0212 5e-3 -0.0476 0-0.0688-0.0106l-35.341-20.404c-0.0318-0.0212-0.0476-0.0529-0.0423-0.09 5e-3 -0.0317 0.037-0.0635 0.0688-0.0688z" fill="#b98902" stroke="#b98902" stroke-linejoin="bevel" stroke-width=".042331px"/>
<path d="m135.49 126.86-26.235-31.262c-17.266 14.488-19.515 40.225-5.0268 57.491 14.488 17.266 40.225 19.52 57.491 5.0321 3.6511-3.0584 6.7306-6.736 9.1118-10.858z" fill="#34a853" fill-rule="evenodd"/>
<path d="m135.45 126.94c-0.0106-5e-3 -0.0159-0.0106-0.0212-0.0212l-26.235-31.262 0.1217 0.0106-1.5715 1.3916-1.4869 1.4498-1.3916 1.508-1.307 1.561-1.217 1.6192-1.1271 1.6615-1.0371 1.7038-0.94716 1.7514-0.8625 1.7832-0.76725 1.815-0.6773 1.8467-0.58205 1.8784-0.4921 1.8943-0.40215 1.9155-0.3069 1.9261-0.21695 1.9472-0.12699 1.9472-0.03175 1.9578 0.0635 1.9525 0.15874 1.9525 0.2487 1.9472 0.34923 1.9366 0.43918 1.9208 0.53443 1.9102 0.62968 1.8837 0.72492 1.8626 0.82546 1.8308 0.91541 1.8044 1.0159 1.7673 1.1112 1.725 1.2064 1.688 1.307 1.635 1.3916 1.5715 1.4498 1.4869 1.508 1.3916 1.561 1.307 1.6192 1.217 1.6615 1.1271 1.7038 1.0371 1.7514 0.94716 1.7832 0.8625 1.815 0.76725 1.8467 0.67201 1.8784 0.58734 1.8943 0.4921 1.9155 0.40215 1.9314 0.31219 1.9419 0.21695 1.9472 0.1217 1.9578 0.0265 1.9525-0.0582 1.9525-0.15874 1.9472-0.2487 1.9366-0.34394 1.9208-0.44447 1.9102-0.52915 1.8837-0.63496 1.8626-0.72492 1.8308-0.82017 1.8044-0.9207 1.7673-1.0107 1.725-1.1112 1.688-1.2117 1.635-1.307 1.3387-1.1747 1.2858-1.2276 1.2276-1.2858 1.1694-1.3334 1.1112-1.3864 1.053-1.4287 0.49739-0.7355 0.4868-0.7408 0.47094-0.75667 0.45506-0.76725 0.0265 0.11641zm35.426 20.261c0.0212 0.0106 0.037 0.0265 0.0423 0.0476 5e-3 0.0265 0 0.0476-0.0106 0.0688l-0.45506 0.76725-0.47093 0.75667-0.48681 0.74609-0.50797 0.74079-1.053 1.434-1.1165 1.3916-1.1747 1.344-1.2329 1.2858-1.2858 1.2329-1.3493 1.18-1.6456 1.3123-1.688 1.2117-1.7409 1.1165-1.7726 1.0212-1.8044 0.9207-1.8467 0.82546-1.8626 0.73021-1.8996 0.62968-1.9102 0.53972-1.9314 0.43918-1.9472 0.34394-1.9525 0.25399-1.9631 0.15874-1.9631 0.0582-1.9631-0.0265-1.9578-0.12699-1.9525-0.21695-1.9366-0.31219-1.9208-0.40215-1.9049-0.4921-1.8837-0.59263-1.852-0.6773-1.8255-0.77254-1.7938-0.85721-1.7514-0.95245-1.7144-1.0424-1.6721-1.1324-1.6192-1.2223-1.5716-1.3123-1.5133-1.4022-1.4551-1.4869-1.3969-1.5821-1.3123-1.6456-1.2117-1.688-1.1165-1.7409-1.0159-1.7726-0.92599-1.8044-0.82016-1.8467-0.73021-1.8626-0.63497-1.8996-0.53443-1.9102-0.44448-1.9314-0.34394-1.9472-0.25399-1.9525-0.15874-1.9631-0.0635-1.9631 0.03704-1.9631 0.1217-1.9578 0.21695-1.9525 0.31219-1.9366 0.40215-1.9208 0.49739-1.9049 0.58205-1.8837 0.68259-1.852 0.77254-1.8255 0.8572-1.7938 0.95246-1.7514 1.0424-1.7144 1.1324-1.6721 1.2223-1.6192 1.3123-1.5715 1.4022-1.5133 1.4869-1.4551 1.5768-1.3916c0.0159-0.0159 0.037-0.0212 0.0635-0.0212 0.0212 0 0.0423 0.0106 0.0582 0.0318l26.229 31.262-0.0212-0.0212z" fill="#237a3b" stroke="#237a3b" stroke-linejoin="bevel" stroke-width=".042331px"/>
<path d="m135.49 126.86v-40.81c-9.5933 0-18.882 3.3812-26.232 9.5483z" fill="#ff6d01" fill-rule="evenodd"/>
<path d="m135.56 126.81-0.15081 0.0529v-40.81l0.0873 0.0847-0.89954 0.0106-0.8916 0.0291-0.89424 0.0503-0.88896 0.0662-0.8863 0.09-0.88366 0.10583-0.88102 0.12699-0.87308 0.14551-0.87308 0.16404-0.86779 0.1852-0.85985 0.20107-0.85985 0.21695-0.85192 0.24075-0.84397 0.25664-0.84398 0.27515-0.8334 0.29367-0.82545 0.30955-0.82281 0.33071-0.81223 0.34659-0.80429 0.36775-0.799 0.37833-0.79107 0.40215-0.78048 0.41802-0.77519 0.43389-0.76196 0.45242-0.75667 0.46828-0.74344 0.48417-0.73815 0.50268-0.72492 0.51856-0.71433 0.53707-0.70376 0.55295-0.69317 0.56883 0.0106-0.11906zm-26.362-31.153c-0.0159-0.0185-0.0212-0.0397-0.0185-0.0609 0-0.0238 0.0132-0.045 0.0291-0.0582l0.69846-0.57412 0.70376-0.55295 0.71963-0.53972 0.72757-0.5212 0.74079-0.50268 0.74874-0.48946 0.75667-0.46829 0.76725-0.45241 0.77519-0.43919 0.78577-0.41802 0.79635-0.40214 0.799-0.38363 0.80959-0.36775 0.81752-0.34659 0.82281-0.33071 0.83074-0.31484 0.83869-0.29367 0.84398-0.27515 0.84927-0.25663 0.8572-0.24341 0.85985-0.21959 0.86515-0.20107 0.87308-0.1852 0.87308-0.16403 0.87837-0.14552 0.8863-0.12699 0.88367-0.10583 0.8916-0.09 0.89424-0.0661 0.89425-0.0529 0.89689-0.0291 0.89953-0.0106c0.0238 0 0.045 0.0106 0.0609 0.0264 0.0159 0.0159 0.0238 0.037 0.0238 0.0582v40.81c0 0.037-0.0212 0.0688-0.0556 0.082-0.0318 0.0106-0.0688 0-0.0926-0.0265z" fill="#bc4e00" stroke="#bc4e00" stroke-linejoin="bevel" stroke-width=".042331px"/>
<text x="136.70674" y="97.564514" fill="#000000" font-family="Arial" font-size="3.5057px" font-weight="400" letter-spacing="0px" stroke-width=".26458" word-spacing="0px" style="line-height:125%" xml:space="preserve"><tspan x="136.70674" y="97.564514" stroke-width=".26458"><tspan dx="0" dy="0" fill="#000000" font-family="Arial" font-size="3.5057px" font-weight="400" stroke-width=".26458">English (EN):</tspan></tspan></text>
<text x="141.57481" y="101.6283" fill="#000000" font-family="Arial" font-size="3.5057px" font-weight="400" letter-spacing="0px" stroke-width=".26458" word-spacing="0px" style="line-height:125%" xml:space="preserve"><tspan x="141.57481" y="101.6283" stroke-width=".26458"><tspan dx="0" dy="0" fill="#000000" font-family="Arial" font-size="3.5057px" font-weight="400" stroke-width=".26458">1; 11%</tspan></tspan></text>
<text x="151.51028" y="114.2324" fill="#000000" font-family="Arial" font-size="3.5057px" font-weight="400" letter-spacing="0px" stroke-width=".26458" word-spacing="0px" style="line-height:125%" xml:space="preserve"><tspan x="151.51028" y="114.2324" stroke-width=".26458"><tspan dx="0" dy="0" fill="#000000" font-family="Arial" font-size="3.5057px" font-weight="400" stroke-width=".26458">French (FR):</tspan></tspan></text>
<text x="155.99739" y="118.2962" fill="#000000" font-family="Arial" font-size="3.5057px" font-weight="400" letter-spacing="0px" stroke-width=".26458" word-spacing="0px" style="line-height:125%" xml:space="preserve"><tspan x="155.99739" y="118.2962" stroke-width=".26458"><tspan dx="0" dy="0" fill="#000000" font-family="Arial" font-size="3.5057px" font-weight="400" stroke-width=".26458">1; 11%</tspan></tspan></text>
<text x="154.7204" y="128.78374" fill="#000000" font-family="Arial" font-size="3.5057px" font-weight="400" letter-spacing="0px" stroke-width=".26458" word-spacing="0px" style="line-height:125%" xml:space="preserve"><tspan x="154.7204" y="128.78374" stroke-width=".26458"><tspan dx="0" dy="0" fill="#000000" font-family="Arial" font-size="3.5057px" font-weight="400" stroke-width=".26458">Translation </tspan></tspan></text>
<text x="152.51918" y="132.84752" fill="#000000" font-family="Arial" font-size="3.5057px" font-weight="400" letter-spacing="0px" stroke-width=".26458" word-spacing="0px" style="line-height:125%" xml:space="preserve"><tspan x="152.51918" y="132.84752" stroke-width=".26458"><tspan dx="0" dy="0" fill="#000000" font-family="Arial" font-size="3.5057px" font-weight="400" stroke-width=".26458">Archive (INT):</tspan></tspan></text>
<text x="157.93756" y="136.91132" fill="#000000" font-family="Arial" font-size="3.5057px" font-weight="400" letter-spacing="0px" stroke-width=".26458" word-spacing="0px" style="line-height:125%" xml:space="preserve"><tspan x="157.93756" y="136.91132" stroke-width=".26458"><tspan dx="0" dy="0" fill="#000000" font-family="Arial" font-size="3.5057px" font-weight="400" stroke-width=".26458">1; 11%</tspan></tspan></text>
<text x="103.58086" y="148.09732" fill="#000000" font-family="Arial" font-size="3.5057px" font-weight="400" letter-spacing="0px" stroke-width=".26458" word-spacing="0px" style="line-height:125%" xml:space="preserve"><tspan x="103.58086" y="148.09732" stroke-width=".26458"><tspan dx="0" dy="0" fill="#000000" font-family="Arial" font-size="3.5057px" font-weight="400" stroke-width=".26458">Italian (IT):</tspan></tspan></text>
<text x="106.54404" y="152.1611" fill="#000000" font-family="Arial" font-size="3.5057px" font-weight="400" letter-spacing="0px" stroke-width=".26458" word-spacing="0px" style="line-height:125%" xml:space="preserve"><tspan x="106.54404" y="152.1611" stroke-width=".26458"><tspan dx="0" dy="0" fill="#000000" font-family="Arial" font-size="3.5057px" font-weight="400" stroke-width=".26458">5; 56%</tspan></tspan></text>
<text x="112.59563" y="98.093658" fill="#000000" font-family="Arial" font-size="3.5057px" font-weight="400" letter-spacing="0px" stroke-width=".26458" word-spacing="0px" style="line-height:125%" xml:space="preserve"><tspan x="112.59563" y="98.093658" stroke-width=".26458"><tspan dx="0" dy="0" fill="#000000" font-family="Arial" font-size="3.5057px" font-weight="400" stroke-width=".26458">Russian (RU):</tspan></tspan></text>
<text x="118.18333" y="102.15744" fill="#000000" font-family="Arial" font-size="3.5057px" font-weight="400" letter-spacing="0px" stroke-width=".26458" word-spacing="0px" style="line-height:125%" xml:space="preserve"><tspan x="118.18333" y="102.15744" stroke-width=".26458"><tspan dx="0" dy="0" fill="#000000" font-family="Arial" font-size="3.5057px" font-weight="400" stroke-width=".26458">1; 11%</tspan></tspan></text>
</g>
</svg>
