<?xml version="1.0" encoding="UTF-8"?>
<svg width="318.83" height="306.62" version="1.1" viewBox="0 0 84.357 81.126" xmlns="http://www.w3.org/2000/svg" xmlns:cc="http://creativecommons.org/ns#" xmlns:dc="http://purl.org/dc/elements/1.1/" xmlns:rdf="http://www.w3.org/1999/02/22-rdf-syntax-ns#">
<defs>
<clipPath id="a">
<path d="m18.719 7.5196h290.86v254.23h-290.86z"/>
</clipPath>
</defs>
<metadata>
<rdf:RDF>
<cc:Work rdf:about="">
<dc:format>image/svg+xml</dc:format>
<dc:type rdf:resource="http://purl.org/dc/dcmitype/StillImage"/>
<dc:title/>
</cc:Work>
</rdf:RDF>
</metadata>
<g transform="translate(-12.98 -64.34)">
<path d="m19.247 67.027v67.01h76.662v-67.01z" fill="#e7e7e7" fill-rule="evenodd"/>
<path d="m19.247 124.39h76.662v0.16933h-76.662zm0-9.5668h76.662v0.16932h-76.662zm0-9.5668h76.662v0.16932h-76.662zm0-9.6092h76.662v0.16932h-76.662zm0-9.5668h76.662v0.16932h-76.662zm0-9.5668h76.662v0.16932h-76.662zm0-9.5668h76.662v0.16932h-76.662z" fill="#898989" stroke="#898989" stroke-linejoin="bevel" stroke-width=".042331px"/>
<path d="m34.57 105.34v28.701h15.366v-28.701z" fill="#ea4335" fill-rule="evenodd"/>
<path transform="matrix(.26458 0 0 .26458 14.273 65.016)" d="m76.396 152.39c0-0.16999 0.14999-0.31998 0.31998-0.31998h58.077c0.17999 0 0.31998 0.14999 0.31998 0.31998v108.47c0 0.17999-0.13999 0.31998-0.31998 0.31998h-58.077c-0.16999 0-0.31998-0.13999-0.31998-0.31998zm0.63997 108.47-0.31998-0.31998h58.077l-0.31998 0.31998v-108.47l0.31998 0.31999h-58.077l0.31998-0.31999z" clip-path="url(#a)" fill="#ac2f24" stroke="#ac2f24" stroke-linejoin="bevel" stroke-width=".15999px"/>
<path d="m49.937 76.594v57.443h15.324v-57.443z" fill="#fbbc04" fill-rule="evenodd"/>
<path transform="matrix(.26458 0 0 .26458 14.273 65.016)" d="m134.47 43.758c0-0.16999 0.14999-0.31998 0.31998-0.31998h57.917c0.17999 0 0.31998 0.14999 0.31998 0.31998v217.11c0 0.17999-0.13999 0.31998-0.31998 0.31998h-57.917c-0.16999 0-0.31998-0.13999-0.31998-0.31998zm0.63996 217.11-0.31998-0.31998h57.917l-0.31998 0.31998v-217.11l0.31998 0.31998h-57.917l0.31998-0.31998z" clip-path="url(#a)" fill="#b98902" stroke="#b98902" stroke-linejoin="bevel" stroke-width=".15999px"/>
<path d="m19.162 134.04v-67.01h0.16932v67.01z" fill="#898989" stroke="#898989" stroke-linejoin="bevel" stroke-width=".042331px"/>
<path d="m18.188 133.95h1.0583v0.16932h-1.0583zm0-9.5668h1.0583v0.16933h-1.0583zm0-9.5668h1.0583v0.16932h-1.0583zm0-9.5668h1.0583v0.16932h-1.0583zm0-9.6092h1.0583v0.16932h-1.0583zm0-9.5668h1.0583v0.16932h-1.0583zm0-9.5668h1.0583v0.16932h-1.0583zm0-9.5668h1.0583v0.16932h-1.0583z" fill="#898989" stroke="#898989" stroke-linejoin="bevel" stroke-width=".042331px"/>
<path d="m19.247 133.95h76.662v0.16932h-76.662z" fill="#898989" stroke="#898989" stroke-linejoin="bevel" stroke-width=".042331px"/>
<path d="m19.331 134.04v1.0583h-0.16932v-1.0583zm15.324 0v1.0583h-0.16932v-1.0583zm15.366 0v1.0583h-0.16932v-1.0583zm15.324 0v1.0583h-0.16932v-1.0583zm15.324 0v1.0583h-0.16932v-1.0583zm15.324 0v1.0583h-0.16932v-1.0583z" fill="#898989" stroke="#898989" stroke-linejoin="bevel" stroke-width=".042331px"/>
<text x="26.301447" y="131.8717" fill="#000000" font-family="Arial" font-size="3.5057px" font-weight="400" letter-spacing="0px" stroke-width=".26458" word-spacing="0px" style="line-height:125%" xml:space="preserve"><tspan x="26.301447" y="131.8717" stroke-width=".26458"><tspan dx="0" dy="0" fill="#000000" font-family="Arial" font-size="3.5057px" font-weight="400" stroke-width=".26458">0</tspan></tspan></text>
<text x="41.282028" y="110.21352" fill="#000000" font-family="Arial" font-size="3.5057px" font-weight="400" letter-spacing="0px" stroke-width=".26458" word-spacing="0px" style="line-height:125%" xml:space="preserve"><tspan x="41.282028" y="110.21352" stroke-width=".26458"><tspan dx="0" dy="0" fill="#000000" font-family="Arial" font-size="3.5057px" font-weight="400" stroke-width=".26458">3</tspan></tspan></text>
<text x="56.615372" y="81.500122" fill="#000000" font-family="Arial" font-size="3.5057px" font-weight="400" letter-spacing="0px" stroke-width=".26458" word-spacing="0px" style="line-height:125%" xml:space="preserve"><tspan x="56.615372" y="81.500122" stroke-width=".26458"><tspan dx="0" dy="0" fill="#000000" font-family="Arial" font-size="3.5057px" font-weight="400" stroke-width=".26458">6</tspan></tspan></text>
<text x="71.948685" y="131.51895" fill="#000000" font-family="Arial" font-size="3.5057px" font-weight="400" letter-spacing="0px" stroke-width=".26458" word-spacing="0px" style="line-height:125%" xml:space="preserve"><tspan x="71.948685" y="131.51895" stroke-width=".26458"><tspan dx="0" dy="0" fill="#000000" font-family="Arial" font-size="3.5057px" font-weight="400" stroke-width=".26458">0</tspan></tspan></text>
<text x="87.282028" y="131.51895" fill="#000000" font-family="Arial" font-size="3.5057px" font-weight="400" letter-spacing="0px" stroke-width=".26458" word-spacing="0px" style="line-height:125%" xml:space="preserve"><tspan x="87.282028" y="131.51895" stroke-width=".26458"><tspan dx="0" dy="0" fill="#000000" font-family="Arial" font-size="3.5057px" font-weight="400" stroke-width=".26458">0</tspan></tspan></text>
<text x="14.258516" y="135.13824" fill="#000000" font-family="Arial" font-size="3.5057px" font-weight="400" letter-spacing="0px" stroke-width=".26458" word-spacing="0px" style="line-height:125%" xml:space="preserve"><tspan x="14.258516" y="135.13824" stroke-width=".26458"><tspan dx="0" dy="0" fill="#000000" font-family="Arial" font-size="3.5057px" font-weight="400" stroke-width=".26458">0</tspan></tspan></text>
<text x="14.258516" y="125.56712" fill="#000000" font-family="Arial" font-size="3.5057px" font-weight="400" letter-spacing="0px" stroke-width=".26458" word-spacing="0px" style="line-height:125%" xml:space="preserve"><tspan x="14.258516" y="125.56712" stroke-width=".26458"><tspan dx="0" dy="0" fill="#000000" font-family="Arial" font-size="3.5057px" font-weight="400" stroke-width=".26458">1</tspan></tspan></text>
<text x="14.258516" y="115.99599" fill="#000000" font-family="Arial" font-size="3.5057px" font-weight="400" letter-spacing="0px" stroke-width=".26458" word-spacing="0px" style="line-height:125%" xml:space="preserve"><tspan x="14.258516" y="115.99599" stroke-width=".26458"><tspan dx="0" dy="0" fill="#000000" font-family="Arial" font-size="3.5057px" font-weight="400" stroke-width=".26458">2</tspan></tspan></text>
<text x="14.258516" y="106.42487" fill="#000000" font-family="Arial" font-size="3.5057px" font-weight="400" letter-spacing="0px" stroke-width=".26458" word-spacing="0px" style="line-height:125%" xml:space="preserve"><tspan x="14.258516" y="106.42487" stroke-width=".26458"><tspan dx="0" dy="0" fill="#000000" font-family="Arial" font-size="3.5057px" font-weight="400" stroke-width=".26458">3</tspan></tspan></text>
<text x="14.258516" y="96.853729" fill="#000000" font-family="Arial" font-size="3.5057px" font-weight="400" letter-spacing="0px" stroke-width=".26458" word-spacing="0px" style="line-height:125%" xml:space="preserve"><tspan x="14.258516" y="96.853729" stroke-width=".26458"><tspan dx="0" dy="0" fill="#000000" font-family="Arial" font-size="3.5057px" font-weight="400" stroke-width=".26458">4</tspan></tspan></text>
<text x="14.258516" y="87.282616" fill="#000000" font-family="Arial" font-size="3.5057px" font-weight="400" letter-spacing="0px" stroke-width=".26458" word-spacing="0px" style="line-height:125%" xml:space="preserve"><tspan x="14.258516" y="87.282616" stroke-width=".26458"><tspan dx="0" dy="0" fill="#000000" font-family="Arial" font-size="3.5057px" font-weight="400" stroke-width=".26458">5</tspan></tspan></text>
<text x="14.258516" y="77.711472" fill="#000000" font-family="Arial" font-size="3.5057px" font-weight="400" letter-spacing="0px" stroke-width=".26458" word-spacing="0px" style="line-height:125%" xml:space="preserve"><tspan x="14.258516" y="77.711472" stroke-width=".26458"><tspan dx="0" dy="0" fill="#000000" font-family="Arial" font-size="3.5057px" font-weight="400" stroke-width=".26458">6</tspan></tspan></text>
<text x="14.258516" y="68.140358" fill="#000000" font-family="Arial" font-size="3.5057px" font-weight="400" letter-spacing="0px" stroke-width=".26458" word-spacing="0px" style="line-height:125%" xml:space="preserve"><tspan x="14.258516" y="68.140358" stroke-width=".26458"><tspan dx="0" dy="0" fill="#000000" font-family="Arial" font-size="3.5057px" font-weight="400" stroke-width=".26458">7</tspan></tspan></text>
<text x="22.412289" y="139.34196" fill="#000000" font-family="Arial" font-size="3.5057px" font-weight="400" letter-spacing="0px" stroke-width=".26458" word-spacing="0px" style="line-height:125%" xml:space="preserve"><tspan x="22.412289" y="139.34196" stroke-width=".26458"><tspan dx="0" dy="0" fill="#000000" font-family="Arial" font-size="3.5057px" font-weight="400" stroke-width=".26458">1 (too</tspan></tspan></text>
<text x="22.412289" y="143.40576" fill="#000000" font-family="Arial" font-size="3.5057px" font-weight="400" letter-spacing="0px" stroke-width=".26458" word-spacing="0px" style="line-height:125%" xml:space="preserve"><tspan x="22.412289" y="143.40576" stroke-width=".26458"><tspan dx="0" dy="0" fill="#000000" font-family="Arial" font-size="3.5057px" font-weight="400" stroke-width=".26458">short)</tspan></tspan></text>
<text x="41.274971" y="139.34196" fill="#000000" font-family="Arial" font-size="3.5057px" font-weight="400" letter-spacing="0px" stroke-width=".26458" word-spacing="0px" style="line-height:125%" xml:space="preserve"><tspan x="41.274971" y="139.34196" stroke-width=".26458"><tspan dx="0" dy="0" fill="#000000" font-family="Arial" font-size="3.5057px" font-weight="400" stroke-width=".26458">2</tspan></tspan></text>
<text x="56.608318" y="139.34196" fill="#000000" font-family="Arial" font-size="3.5057px" font-weight="400" letter-spacing="0px" stroke-width=".26458" word-spacing="0px" style="line-height:125%" xml:space="preserve"><tspan x="56.608318" y="139.34196" stroke-width=".26458"><tspan dx="0" dy="0" fill="#000000" font-family="Arial" font-size="3.5057px" font-weight="400" stroke-width=".26458">3</tspan></tspan></text>
<text x="71.941666" y="139.34196" fill="#000000" font-family="Arial" font-size="3.5057px" font-weight="400" letter-spacing="0px" stroke-width=".26458" word-spacing="0px" style="line-height:125%" xml:space="preserve"><tspan x="71.941666" y="139.34196" stroke-width=".26458"><tspan dx="0" dy="0" fill="#000000" font-family="Arial" font-size="3.5057px" font-weight="400" stroke-width=".26458">4</tspan></tspan></text>
<text x="83.745659" y="139.34196" fill="#000000" font-family="Arial" font-size="3.5057px" font-weight="400" letter-spacing="0px" stroke-width=".26458" word-spacing="0px" style="line-height:125%" xml:space="preserve"><tspan x="83.745659" y="139.34196" stroke-width=".26458"><tspan dx="0" dy="0" fill="#000000" font-family="Arial" font-size="3.5057px" font-weight="400" stroke-width=".26458">5 (too</tspan></tspan></text>
<text x="84.338295" y="143.40576" fill="#000000" font-family="Arial" font-size="3.5057px" font-weight="400" letter-spacing="0px" stroke-width=".26458" word-spacing="0px" style="line-height:125%" xml:space="preserve"><tspan x="84.338295" y="143.40576" stroke-width=".26458"><tspan dx="0" dy="0" fill="#000000" font-family="Arial" font-size="3.5057px" font-weight="400" stroke-width=".26458">long)</tspan></tspan></text>
</g>
</svg>
