<?xml version="1.0" encoding="UTF-8"?>
<svg width="329.55" height="244.9" version="1.1" viewBox="0 0 87.194 64.797" xmlns="http://www.w3.org/2000/svg" xmlns:cc="http://creativecommons.org/ns#" xmlns:dc="http://purl.org/dc/elements/1.1/" xmlns:rdf="http://www.w3.org/1999/02/22-rdf-syntax-ns#">
<defs>
<clipPath id="a">
<path d="m69.276 0.63997h244.95v215.19h-244.95z"/>
</clipPath>
</defs>
<metadata>
<rdf:RDF>
<cc:Work rdf:about="">
<dc:format>image/svg+xml</dc:format>
<dc:type rdf:resource="http://purl.org/dc/dcmitype/StillImage"/>
<dc:title/>
</cc:Work>
</rdf:RDF>
</metadata>
<g transform="translate(-61.404 -123.46)">
<path d="m80.917 124.89v56.681h64.555v-56.681z" fill="#e7e7e7" fill-rule="evenodd"/>
<path d="m93.912 124.89v56.681h-0.16932v-56.681zm12.911 0v56.681h-0.16933v-56.681zm12.911 0v56.681h-0.16933v-56.681zm12.911 0v56.681h-0.16932v-56.681zm12.911 0v56.681h-0.16933v-56.681z" fill="#898989" stroke="#898989" stroke-linejoin="bevel" stroke-width=".042331px"/>
<path transform="matrix(.26458 0 0 .26458 62.608 124.74)" d="m69.196 0.55997v42.718h195.19v-42.718z" clip-path="url(#a)" fill="#4285f4" fill-rule="evenodd"/>
<path transform="matrix(.26458 0 0 .26458 62.608 124.74)" d="m68.876 0.55997c0-0.16999 0.14999-0.31998 0.31998-0.31998h195.19c0.17999 0 0.31998 0.14999 0.31998 0.31998v42.718c0 0.17999-0.13999 0.31998-0.31998 0.31998h-195.19c-0.16999 0-0.31998-0.13999-0.31998-0.31998zm0.63997 42.718-0.31998-0.31998h195.19l-0.31999 0.31998v-42.718l0.31999 0.31998h-195.19l0.31998-0.31998z" clip-path="url(#a)" fill="#2e60b3" stroke="#2e60b3" stroke-linejoin="bevel" stroke-width=".15999px"/>
<path transform="matrix(.26458 0 0 .26458 62.608 124.74)" d="m69.196 43.278v42.878h24.479v-42.878z" clip-path="url(#a)" fill="#ea4335" fill-rule="evenodd"/>
<path transform="matrix(.26458 0 0 .26458 62.608 124.74)" d="m68.876 43.278c0-0.16999 0.14999-0.31998 0.31998-0.31998h24.479c0.17999 0 0.31998 0.14999 0.31998 0.31998v42.878c0 0.17999-0.13999 0.31998-0.31998 0.31998h-24.479c-0.16999 0-0.31998-0.13999-0.31998-0.31998zm0.63997 42.878-0.31998-0.31998h24.479l-0.31998 0.31998v-42.878l0.31998 0.31998h-24.479l0.31998-0.31998z" clip-path="url(#a)" fill="#ac2f24" stroke="#ac2f24" stroke-linejoin="bevel" stroke-width=".15999px"/>
<path transform="matrix(.26458 0 0 .26458 62.608 124.74)" d="m69.196 86.156v42.878h24.479v-42.878z" clip-path="url(#a)" fill="#fbbc04" fill-rule="evenodd"/>
<path transform="matrix(.26458 0 0 .26458 62.608 124.74)" d="m68.876 86.156c0-0.16999 0.14999-0.31998 0.31998-0.31998h24.479c0.17999 0 0.31998 0.14999 0.31998 0.31998v42.878c0 0.17999-0.13999 0.31998-0.31998 0.31998h-24.479c-0.16999 0-0.31998-0.13999-0.31998-0.31998zm0.63997 42.878-0.31998-0.31999h24.479l-0.31998 0.31999v-42.878l0.31998 0.31998h-24.479l0.31998-0.31998z" clip-path="url(#a)" fill="#b98902" stroke="#b98902" stroke-linejoin="bevel" stroke-width=".15999px"/>
<path transform="matrix(.26458 0 0 .26458 62.608 124.74)" d="m69.196 129.03v42.878h48.797v-42.878z" clip-path="url(#a)" fill="#34a853" fill-rule="evenodd"/>
<path transform="matrix(.26458 0 0 .26458 62.608 124.74)" d="m68.876 129.03c0-0.16999 0.14999-0.31999 0.31998-0.31999h48.797c0.17999 0 0.31998 0.15 0.31998 0.31999v42.878c0 0.17999-0.13999 0.31998-0.31998 0.31998h-48.797c-0.16999 0-0.31998-0.13999-0.31998-0.31998zm0.63997 42.878-0.31998-0.31998h48.797l-0.31998 0.31998v-42.878l0.31998 0.31998h-48.797l0.31998-0.31998z" clip-path="url(#a)" fill="#237a3b" stroke="#237a3b" stroke-linejoin="bevel" stroke-width=".15999px"/>
<path transform="matrix(.26458 0 0 .26458 62.608 124.74)" d="m69.196 171.91v42.878h24.479v-42.878z" clip-path="url(#a)" fill="#ff6d01" fill-rule="evenodd"/>
<path transform="matrix(.26458 0 0 .26458 62.608 124.74)" d="m68.876 171.91c0-0.16999 0.14999-0.31998 0.31998-0.31998h24.479c0.17999 0 0.31998 0.14999 0.31998 0.31998v42.878c0 0.17999-0.13999 0.31999-0.31998 0.31999h-24.479c-0.16999 0-0.31998-0.14-0.31998-0.31999zm0.63997 42.878-0.31998-0.31998h24.479l-0.31998 0.31998v-42.878l0.31998 0.31998h-24.479l0.31998-0.31998z" clip-path="url(#a)" fill="#bc4e00" stroke="#bc4e00" stroke-linejoin="bevel" stroke-width=".15999px"/>
<path d="m80.917 181.48h64.555v0.16932h-64.555z" fill="#898989" stroke="#898989" stroke-linejoin="bevel" stroke-width=".042331px"/>
<path d="m81.001 181.57v1.0583h-0.16933v-1.0583zm12.911 0v1.0583h-0.16932v-1.0583zm12.911 0v1.0583h-0.16933v-1.0583zm12.911 0v1.0583h-0.16933v-1.0583zm12.911 0v1.0583h-0.16932v-1.0583zm12.911 0v1.0583h-0.16933v-1.0583z" fill="#898989" stroke="#898989" stroke-linejoin="bevel" stroke-width=".042331px"/>
<path d="m81.001 124.89v56.681h-0.16933v-56.681z" fill="#898989" stroke="#898989" stroke-linejoin="bevel" stroke-width=".042331px"/>
<path d="m79.858 124.8h1.0583v0.16932h-1.0583zm0 11.302h1.0583v0.16932h-1.0583zm0 11.345h1.0583v0.16933h-1.0583zm0 11.345h1.0583v0.16932h-1.0583zm0 11.345h1.0583v0.16933h-1.0583zm0 11.345h1.0583v0.16932h-1.0583z" fill="#898989" stroke="#898989" stroke-linejoin="bevel" stroke-width=".042331px"/>
<text x="128.52339" y="131.85083" fill="#000000" font-family="Arial" font-size="3.5057px" font-weight="400" letter-spacing="0px" stroke-width=".26458" word-spacing="0px" style="line-height:125%" xml:space="preserve"><tspan x="128.52339" y="131.85083" stroke-width=".26458"><tspan dx="0" dy="0" fill="#000000" font-family="Arial" font-size="3.5057px" font-weight="400" stroke-width=".26458">8</tspan></tspan></text>
<text x="83.341263" y="143.18594" fill="#000000" font-family="Arial" font-size="3.5057px" font-weight="400" letter-spacing="0px" stroke-width=".26458" word-spacing="0px" style="line-height:125%" xml:space="preserve"><tspan x="83.341263" y="143.18594" stroke-width=".26458"><tspan dx="0" dy="0" fill="#000000" font-family="Arial" font-size="3.5057px" font-weight="400" stroke-width=".26458">1</tspan></tspan></text>
<text x="83.341263" y="154.52104" fill="#000000" font-family="Arial" font-size="3.5057px" font-weight="400" letter-spacing="0px" stroke-width=".26458" word-spacing="0px" style="line-height:125%" xml:space="preserve"><tspan x="83.341263" y="154.52104" stroke-width=".26458"><tspan dx="0" dy="0" fill="#000000" font-family="Arial" font-size="3.5057px" font-weight="400" stroke-width=".26458">1</tspan></tspan></text>
<text x="89.795853" y="165.85612" fill="#000000" font-family="Arial" font-size="3.5057px" font-weight="400" letter-spacing="0px" stroke-width=".26458" word-spacing="0px" style="line-height:125%" xml:space="preserve"><tspan x="89.795853" y="165.85612" stroke-width=".26458"><tspan dx="0" dy="0" fill="#000000" font-family="Arial" font-size="3.5057px" font-weight="400" stroke-width=".26458">2</tspan></tspan></text>
<text x="83.341263" y="177.19122" fill="#000000" font-family="Arial" font-size="3.5057px" font-weight="400" letter-spacing="0px" stroke-width=".26458" word-spacing="0px" style="line-height:125%" xml:space="preserve"><tspan x="83.341263" y="177.19122" stroke-width=".26458"><tspan dx="0" dy="0" fill="#000000" font-family="Arial" font-size="3.5057px" font-weight="400" stroke-width=".26458">1</tspan></tspan></text>
<text x="79.976852" y="186.88966" fill="#000000" font-family="Arial" font-size="3.5057px" font-weight="400" letter-spacing="0px" stroke-width=".26458" word-spacing="0px" style="line-height:125%" xml:space="preserve"><tspan x="79.976852" y="186.88966" stroke-width=".26458"><tspan dx="0" dy="0" fill="#000000" font-family="Arial" font-size="3.5057px" font-weight="400" stroke-width=".26458">0</tspan></tspan></text>
<text x="92.886017" y="186.88966" fill="#000000" font-family="Arial" font-size="3.5057px" font-weight="400" letter-spacing="0px" stroke-width=".26458" word-spacing="0px" style="line-height:125%" xml:space="preserve"><tspan x="92.886017" y="186.88966" stroke-width=".26458"><tspan dx="0" dy="0" fill="#000000" font-family="Arial" font-size="3.5057px" font-weight="400" stroke-width=".26458">2</tspan></tspan></text>
<text x="105.79521" y="186.88966" fill="#000000" font-family="Arial" font-size="3.5057px" font-weight="400" letter-spacing="0px" stroke-width=".26458" word-spacing="0px" style="line-height:125%" xml:space="preserve"><tspan x="105.79521" y="186.88966" stroke-width=".26458"><tspan dx="0" dy="0" fill="#000000" font-family="Arial" font-size="3.5057px" font-weight="400" stroke-width=".26458">4</tspan></tspan></text>
<text x="118.70438" y="186.88966" fill="#000000" font-family="Arial" font-size="3.5057px" font-weight="400" letter-spacing="0px" stroke-width=".26458" word-spacing="0px" style="line-height:125%" xml:space="preserve"><tspan x="118.70438" y="186.88966" stroke-width=".26458"><tspan dx="0" dy="0" fill="#000000" font-family="Arial" font-size="3.5057px" font-weight="400" stroke-width=".26458">6</tspan></tspan></text>
<text x="131.61356" y="186.88966" fill="#000000" font-family="Arial" font-size="3.5057px" font-weight="400" letter-spacing="0px" stroke-width=".26458" word-spacing="0px" style="line-height:125%" xml:space="preserve"><tspan x="131.61356" y="186.88966" stroke-width=".26458"><tspan dx="0" dy="0" fill="#000000" font-family="Arial" font-size="3.5057px" font-weight="400" stroke-width=".26458">8</tspan></tspan></text>
<text x="143.54205" y="186.88966" fill="#000000" font-family="Arial" font-size="3.5057px" font-weight="400" letter-spacing="0px" stroke-width=".26458" word-spacing="0px" style="line-height:125%" xml:space="preserve"><tspan x="143.54205" y="186.88966" stroke-width=".26458"><tspan dx="0" dy="0" fill="#000000" font-family="Arial" font-size="3.5057px" font-weight="400" stroke-width=".26458">10</tspan></tspan></text>
<text x="66.354759" y="131.67796" fill="#000000" font-family="Arial" font-size="3.5057px" font-weight="400" letter-spacing="0px" stroke-width=".26458" word-spacing="0px" style="line-height:125%" xml:space="preserve"><tspan x="66.354759" y="131.67796" stroke-width=".26458"><tspan dx="0" dy="0" fill="#000000" font-family="Arial" font-size="3.5057px" font-weight="400" stroke-width=".26458">English</tspan></tspan></text>
<text x="66.943863" y="143.01308" fill="#000000" font-family="Arial" font-size="3.5057px" font-weight="400" letter-spacing="0px" stroke-width=".26458" word-spacing="0px" style="line-height:125%" xml:space="preserve"><tspan x="66.943863" y="143.01308" stroke-width=".26458"><tspan dx="0" dy="0" fill="#000000" font-family="Arial" font-size="3.5057px" font-weight="400" stroke-width=".26458">French</tspan></tspan></text>
<text x="68.510109" y="154.34819" fill="#000000" font-family="Arial" font-size="3.5057px" font-weight="400" letter-spacing="0px" stroke-width=".26458" word-spacing="0px" style="line-height:125%" xml:space="preserve"><tspan x="68.510109" y="154.34819" stroke-width=".26458"><tspan dx="0" dy="0" fill="#000000" font-family="Arial" font-size="3.5057px" font-weight="400" stroke-width=".26458">Italian</tspan></tspan></text>
<text x="65.180069" y="165.68329" fill="#000000" font-family="Arial" font-size="3.5057px" font-weight="400" letter-spacing="0px" stroke-width=".26458" word-spacing="0px" style="line-height:125%" xml:space="preserve"><tspan x="65.180069" y="165.68329" stroke-width=".26458"><tspan dx="0" dy="0" fill="#000000" font-family="Arial" font-size="3.5057px" font-weight="400" stroke-width=".26458">German</tspan></tspan></text>
<text x="62.626095" y="177.01839" fill="#000000" font-family="Arial" font-size="3.5057px" font-weight="400" letter-spacing="0px" stroke-width=".26458" word-spacing="0px" style="line-height:125%" xml:space="preserve"><tspan x="62.626095" y="177.01839" stroke-width=".26458"><tspan dx="0" dy="0" fill="#000000" font-family="Arial" font-size="3.5057px" font-weight="400" stroke-width=".26458">Japanese</tspan></tspan></text>
</g>
</svg>
