<?xml version="1.0" encoding="UTF-8"?>
<svg width="464.69" height="272.32" version="1.1" viewBox="0 0 122.95 72.052" xmlns="http://www.w3.org/2000/svg" xmlns:cc="http://creativecommons.org/ns#" xmlns:dc="http://purl.org/dc/elements/1.1/" xmlns:rdf="http://www.w3.org/1999/02/22-rdf-syntax-ns#">
<defs>
<clipPath id="a">
<path d="m70.716 0.47998h379.5v242.71h-379.5z"/>
</clipPath>
</defs>
<metadata>
<rdf:RDF>
<cc:Work rdf:about="">
<dc:format>image/svg+xml</dc:format>
<dc:type rdf:resource="http://purl.org/dc/dcmitype/StillImage"/>
<dc:title/>
</cc:Work>
</rdf:RDF>
</metadata>
<g transform="translate(-15.807 -83.198)">
<path d="m35.475 84.626v63.92h100.16v-63.92z" fill="#e7e7e7" fill-rule="evenodd"/>
<path d="m55.624 84.626v63.92h-0.16932v-63.92zm20.023 0v63.92h-0.16933v-63.92zm20.023 0v63.92h-0.16932v-63.92zm20.023 0v63.92h-0.16932v-63.92zm20.023 0v63.92h-0.16932v-63.92z" fill="#898989" stroke="#898989" stroke-linejoin="bevel" stroke-width=".042331px"/>
<path transform="matrix(.26458 0 0 .26458 16.786 84.478)" d="m70.636 0.55997v40.158h340.62v-40.158z" clip-path="url(#a)" fill="#3975d8" fill-rule="evenodd"/>
<path transform="matrix(.26458 0 0 .26458 16.786 84.478)" d="m70.316 0.55997c0-0.15999 0.15999-0.31998 0.31998-0.31998h340.62c0.17999 0 0.31998 0.15999 0.31998 0.31998v40.158c0 0.17999-0.13999 0.31998-0.31998 0.31998h-340.62c-0.15999 0-0.31998-0.13999-0.31998-0.31998zm0.63997 40.158-0.31998-0.31998h340.62l-0.31998 0.31998v-40.158l0.31998 0.31998h-340.62l0.31998-0.31998z" clip-path="url(#a)" fill="#27549e" stroke="#27549e" stroke-linejoin="bevel" stroke-width=".15999px"/>
<path transform="matrix(.26458 0 0 .26458 16.786 84.478)" d="m70.636 40.718v40.318h340.62v-40.318z" clip-path="url(#a)" fill="#cf3a2e" fill-rule="evenodd"/>
<path transform="matrix(.26458 0 0 .26458 16.786 84.478)" d="m70.316 40.718c0-0.15999 0.15999-0.31998 0.31998-0.31998h340.62c0.17999 0 0.31998 0.15999 0.31998 0.31998v40.318c0 0.17999-0.13999 0.31998-0.31998 0.31998h-340.62c-0.15999 0-0.31998-0.13999-0.31998-0.31998zm0.63997 40.318-0.31998-0.31998h340.62l-0.31998 0.31998v-40.318l0.31998 0.31998h-340.62l0.31998-0.31998z" clip-path="url(#a)" fill="#98281f" stroke="#98281f" stroke-linejoin="bevel" stroke-width=".15999px"/>
<path transform="matrix(.26458 0 0 .26458 16.786 84.478)" d="m70.636 81.036v40.318h151.51v-40.318z" clip-path="url(#a)" fill="#dea603" fill-rule="evenodd"/>
<path transform="matrix(.26458 0 0 .26458 16.786 84.478)" d="m70.316 81.036c0-0.16999 0.14999-0.31998 0.31998-0.31998h151.51c0.17999 0 0.31999 0.14999 0.31999 0.31998v40.318c0 0.17999-0.14 0.31998-0.31999 0.31998h-151.51c-0.16999 0-0.31998-0.13999-0.31998-0.31998zm0.63997 40.318-0.31998-0.31999h151.51l-0.31998 0.31999v-40.318l0.31998 0.31998h-151.51l0.31998-0.31998z" clip-path="url(#a)" fill="#a37902" stroke="#a37902" stroke-linejoin="bevel" stroke-width=".15999px"/>
<path transform="matrix(.26458 0 0 .26458 16.786 84.478)" d="m70.636 121.35v40.318h189.27v-40.318z" clip-path="url(#a)" fill="#2d9449" fill-rule="evenodd"/>
<path transform="matrix(.26458 0 0 .26458 16.786 84.478)" d="m70.316 121.35c0-0.16999 0.14999-0.31999 0.31998-0.31999h189.27c0.17999 0 0.31998 0.15 0.31998 0.31999v40.318c0 0.17999-0.13999 0.31999-0.31998 0.31999h-189.27c-0.16999 0-0.31998-0.14-0.31998-0.31999zm0.63997 40.318-0.31998-0.31998h189.27l-0.31998 0.31998v-40.318l0.31998 0.31998h-189.27l0.31998-0.31998z" clip-path="url(#a)" fill="#1e6c33" stroke="#1e6c33" stroke-linejoin="bevel" stroke-width=".15999px"/>
<path transform="matrix(.26458 0 0 .26458 16.786 84.478)" d="m70.636 161.67v40.318h113.59v-40.318z" clip-path="url(#a)" fill="#e26001" fill-rule="evenodd"/>
<path transform="matrix(.26458 0 0 .26458 16.786 84.478)" d="m70.316 161.67c0-0.16999 0.14999-0.31998 0.31998-0.31998h113.59c0.17999 0 0.31998 0.14999 0.31998 0.31998v40.318c0 0.17999-0.13999 0.31998-0.31998 0.31998h-113.59c-0.16999 0-0.31998-0.13999-0.31998-0.31998zm0.63997 40.318-0.31998-0.31998h113.59l-0.31998 0.31998v-40.318l0.31998 0.31999h-113.59l0.31998-0.31999z" clip-path="url(#a)" fill="#a64400" stroke="#a64400" stroke-linejoin="bevel" stroke-width=".15999px"/>
<path transform="matrix(.26458 0 0 .26458 16.786 84.478)" d="m70.636 201.99v40.158h37.918v-40.158z" clip-path="url(#a)" fill="#3da7af" fill-rule="evenodd"/>
<path transform="matrix(.26458 0 0 .26458 16.786 84.478)" d="m70.316 201.99c0-0.16999 0.14999-0.31998 0.31998-0.31998h37.918c0.17999 0 0.31999 0.14999 0.31999 0.31998v40.158c0 0.17999-0.14 0.31999-0.31999 0.31999h-37.918c-0.16999 0-0.31998-0.14-0.31998-0.31999zm0.63997 40.158-0.31998-0.31998h37.918l-0.31998 0.31998v-40.158l0.31998 0.31998h-37.918l0.31998-0.31998z" clip-path="url(#a)" fill="#2a7a80" stroke="#2a7a80" stroke-linejoin="bevel" stroke-width=".15999px"/>
<path d="m35.475 148.46h100.16v0.16932h-100.16z" fill="#898989" stroke="#898989" stroke-linejoin="bevel" stroke-width=".042331px"/>
<path d="m35.559 148.55v1.1006h-0.16932v-1.1006zm20.065 0v1.1006h-0.16932v-1.1006zm20.023 0v1.1006h-0.16933v-1.1006zm20.023 0v1.1006h-0.16932v-1.1006zm20.023 0v1.1006h-0.16932v-1.1006zm20.023 0v1.1006h-0.16932v-1.1006z" fill="#898989" stroke="#898989" stroke-linejoin="bevel" stroke-width=".042331px"/>
<path d="m35.559 84.626v63.92h-0.16932v-63.92z" fill="#898989" stroke="#898989" stroke-linejoin="bevel" stroke-width=".042331px"/>
<path d="m34.416 84.542h1.0583v0.16932h-1.0583zm0 10.625h1.0583v0.16932h-1.0583zm0 10.667h1.0583v0.16933h-1.0583zm0 10.667h1.0583v0.16933h-1.0583zm0 10.667h1.0583v0.16932h-1.0583zm0 10.667h1.0583v0.16932h-1.0583zm0 10.625h1.0583v0.16932h-1.0583z" fill="#898989" stroke="#898989" stroke-linejoin="bevel" stroke-width=".042331px"/>
<text x="121.5772" y="91.230896" fill="#000000" font-family="Arial" font-size="3.5057px" font-weight="400" letter-spacing="0px" stroke-width=".26458" word-spacing="0px" style="line-height:125%" xml:space="preserve"><tspan x="121.5772" y="91.230896" stroke-width=".26458"><tspan dx="0" dy="0" fill="#000000" font-family="Arial" font-size="3.5057px" font-weight="400" stroke-width=".26458">9</tspan></tspan></text>
<text x="121.5772" y="101.88943" fill="#000000" font-family="Arial" font-size="3.5057px" font-weight="400" letter-spacing="0px" stroke-width=".26458" word-spacing="0px" style="line-height:125%" xml:space="preserve"><tspan x="121.5772" y="101.88943" stroke-width=".26458"><tspan dx="0" dy="0" fill="#000000" font-family="Arial" font-size="3.5057px" font-weight="400" stroke-width=".26458">9</tspan></tspan></text>
<text x="71.507553" y="112.54796" fill="#000000" font-family="Arial" font-size="3.5057px" font-weight="400" letter-spacing="0px" stroke-width=".26458" word-spacing="0px" style="line-height:125%" xml:space="preserve"><tspan x="71.507553" y="112.54796" stroke-width=".26458"><tspan dx="0" dy="0" fill="#000000" font-family="Arial" font-size="3.5057px" font-weight="400" stroke-width=".26458">4</tspan></tspan></text>
<text x="81.521477" y="123.20646" fill="#000000" font-family="Arial" font-size="3.5057px" font-weight="400" letter-spacing="0px" stroke-width=".26458" word-spacing="0px" style="line-height:125%" xml:space="preserve"><tspan x="81.521477" y="123.20646" stroke-width=".26458"><tspan dx="0" dy="0" fill="#000000" font-family="Arial" font-size="3.5057px" font-weight="400" stroke-width=".26458">5</tspan></tspan></text>
<text x="61.493633" y="133.86499" fill="#000000" font-family="Arial" font-size="3.5057px" font-weight="400" letter-spacing="0px" stroke-width=".26458" word-spacing="0px" style="line-height:125%" xml:space="preserve"><tspan x="61.493633" y="133.86499" stroke-width=".26458"><tspan dx="0" dy="0" fill="#000000" font-family="Arial" font-size="3.5057px" font-weight="400" stroke-width=".26458">3</tspan></tspan></text>
<text x="41.465755" y="144.52351" fill="#000000" font-family="Arial" font-size="3.5057px" font-weight="400" letter-spacing="0px" stroke-width=".26458" word-spacing="0px" style="line-height:125%" xml:space="preserve"><tspan x="41.465755" y="144.52351" stroke-width=".26458"><tspan dx="0" dy="0" fill="#000000" font-family="Arial" font-size="3.5057px" font-weight="400" stroke-width=".26458">1</tspan></tspan></text>
<text x="34.542004" y="153.88367" fill="#000000" font-family="Arial" font-size="3.5057px" font-weight="400" letter-spacing="0px" stroke-width=".26458" word-spacing="0px" style="line-height:125%" xml:space="preserve"><tspan x="34.542004" y="153.88367" stroke-width=".26458"><tspan dx="0" dy="0" fill="#000000" font-family="Arial" font-size="3.5057px" font-weight="400" stroke-width=".26458">0</tspan></tspan></text>
<text x="54.569851" y="153.88367" fill="#000000" font-family="Arial" font-size="3.5057px" font-weight="400" letter-spacing="0px" stroke-width=".26458" word-spacing="0px" style="line-height:125%" xml:space="preserve"><tspan x="54.569851" y="153.88367" stroke-width=".26458"><tspan dx="0" dy="0" fill="#000000" font-family="Arial" font-size="3.5057px" font-weight="400" stroke-width=".26458">2</tspan></tspan></text>
<text x="74.597725" y="153.88367" fill="#000000" font-family="Arial" font-size="3.5057px" font-weight="400" letter-spacing="0px" stroke-width=".26458" word-spacing="0px" style="line-height:125%" xml:space="preserve"><tspan x="74.597725" y="153.88367" stroke-width=".26458"><tspan dx="0" dy="0" fill="#000000" font-family="Arial" font-size="3.5057px" font-weight="400" stroke-width=".26458">4</tspan></tspan></text>
<text x="94.625565" y="153.88367" fill="#000000" font-family="Arial" font-size="3.5057px" font-weight="400" letter-spacing="0px" stroke-width=".26458" word-spacing="0px" style="line-height:125%" xml:space="preserve"><tspan x="94.625565" y="153.88367" stroke-width=".26458"><tspan dx="0" dy="0" fill="#000000" font-family="Arial" font-size="3.5057px" font-weight="400" stroke-width=".26458">6</tspan></tspan></text>
<text x="114.65345" y="153.88367" fill="#000000" font-family="Arial" font-size="3.5057px" font-weight="400" letter-spacing="0px" stroke-width=".26458" word-spacing="0px" style="line-height:125%" xml:space="preserve"><tspan x="114.65345" y="153.88367" stroke-width=".26458"><tspan dx="0" dy="0" fill="#000000" font-family="Arial" font-size="3.5057px" font-weight="400" stroke-width=".26458">8</tspan></tspan></text>
<text x="133.70064" y="153.88367" fill="#000000" font-family="Arial" font-size="3.5057px" font-weight="400" letter-spacing="0px" stroke-width=".26458" word-spacing="0px" style="line-height:125%" xml:space="preserve"><tspan x="133.70064" y="153.88367" stroke-width=".26458"><tspan dx="0" dy="0" fill="#000000" font-family="Arial" font-size="3.5057px" font-weight="400" stroke-width=".26458">10</tspan></tspan></text>
<text x="19.551197" y="91.058044" fill="#000000" font-family="Arial" font-size="3.5057px" font-weight="400" letter-spacing="0px" stroke-width=".26458" word-spacing="0px" style="line-height:125%" xml:space="preserve"><tspan x="19.551197" y="91.058044" stroke-width=".26458"><tspan dx="0" dy="0" fill="#000000" font-family="Arial" font-size="3.5057px" font-weight="400" stroke-width=".26458">The wiki</tspan></tspan></text>
<text x="20.531868" y="101.71658" fill="#000000" font-family="Arial" font-size="3.5057px" font-weight="400" letter-spacing="0px" stroke-width=".26458" word-spacing="0px" style="line-height:125%" xml:space="preserve"><tspan x="20.531868" y="101.71658" stroke-width=".26458"><tspan dx="0" dy="0" fill="#000000" font-family="Arial" font-size="3.5057px" font-weight="400" stroke-width=".26458">Discord</tspan></tspan></text>
<text x="16.997219" y="112.37511" fill="#000000" font-family="Arial" font-size="3.5057px" font-weight="400" letter-spacing="0px" stroke-width=".26458" word-spacing="0px" style="line-height:125%" xml:space="preserve"><tspan x="16.997219" y="112.37511" stroke-width=".26458"><tspan dx="0" dy="0" fill="#000000" font-family="Arial" font-size="3.5057px" font-weight="400" stroke-width=".26458">Facebook</tspan></tspan></text>
<text x="21.904102" y="123.03364" fill="#000000" font-family="Arial" font-size="3.5057px" font-weight="400" letter-spacing="0px" stroke-width=".26458" word-spacing="0px" style="line-height:125%" xml:space="preserve"><tspan x="21.904102" y="123.03364" stroke-width=".26458"><tspan dx="0" dy="0" fill="#000000" font-family="Arial" font-size="3.5057px" font-weight="400" stroke-width=".26458">Twitter</tspan></tspan></text>
<text x="16.8032" y="133.69215" fill="#000000" font-family="Arial" font-size="3.5057px" font-weight="400" letter-spacing="0px" stroke-width=".26458" word-spacing="0px" style="line-height:125%" xml:space="preserve"><tspan x="16.8032" y="133.69215" stroke-width=".26458"><tspan dx="0" dy="0" fill="#000000" font-family="Arial" font-size="3.5057px" font-weight="400" stroke-width=".26458">Instagram</tspan></tspan></text>
<text x="22.292137" y="144.35069" fill="#000000" font-family="Arial" font-size="3.5057px" font-weight="400" letter-spacing="0px" stroke-width=".26458" word-spacing="0px" style="line-height:125%" xml:space="preserve"><tspan x="22.292137" y="144.35069" stroke-width=".26458"><tspan dx="0" dy="0" fill="#000000" font-family="Arial" font-size="3.5057px" font-weight="400" stroke-width=".26458">Reddit</tspan></tspan></text>
</g>
</svg>
