<?xml version="1.0" encoding="UTF-8"?>
<svg width="548.18" height="365.21" version="1.1" viewBox="0 0 145.04 96.628" xmlns="http://www.w3.org/2000/svg" xmlns:cc="http://creativecommons.org/ns#" xmlns:dc="http://purl.org/dc/elements/1.1/" xmlns:rdf="http://www.w3.org/1999/02/22-rdf-syntax-ns#">
<defs>
<clipPath id="a">
<path d="m267.35 0.47998h269.91v335.66h-269.91z"/>
</clipPath>
</defs>
<metadata>
<rdf:RDF>
<cc:Work rdf:about="">
<dc:format>image/svg+xml</dc:format>
<dc:type rdf:resource="http://purl.org/dc/dcmitype/StillImage"/>
<dc:title/>
</cc:Work>
</rdf:RDF>
</metadata>
<g transform="translate(-10.422 -36.832)">
<path d="m82.15 38.261v88.514h71.159v-88.514z" fill="#e7e7e7" fill-rule="evenodd"/>
<path d="m90.151 38.261v88.514h-0.16933v-88.514zm7.8736 0v88.514h-0.16932v-88.514zm7.9159 0v88.514h-0.16932v-88.514zm7.9159 0v88.514h-0.16932v-88.514zm7.9159 0v88.514h-0.16933v-88.514zm7.8736 0v88.514h-0.16933v-88.514zm7.9159 0v88.514h-0.16933v-88.514zm7.9159 0v88.514h-0.16932v-88.514zm7.9159 0v88.514h-0.16932v-88.514z" fill="#898989" stroke="#898989" stroke-linejoin="bevel" stroke-width=".042331px"/>
<path transform="matrix(.26458 0 0 .26458 11.436 38.113)" d="m267.27 0.55997v37.118h119.51v-37.118z" clip-path="url(#a)" fill="#3975d8" fill-rule="evenodd"/>
<path transform="matrix(.26458 0 0 .26458 11.436 38.113)" d="m266.95 0.55997c0-0.15999 0.16-0.31998 0.31999-0.31998h119.51c0.17999 0 0.31998 0.15999 0.31998 0.31998v37.118c0 0.17999-0.13999 0.31998-0.31998 0.31998h-119.51c-0.15999 0-0.31999-0.13999-0.31999-0.31998zm0.63997 37.118-0.31998-0.31998h119.51l-0.31998 0.31998v-37.118l0.31998 0.31998h-119.51l0.31998-0.31998z" clip-path="url(#a)" fill="#27549e" stroke="#27549e" stroke-linejoin="bevel" stroke-width=".15999px"/>
<path transform="matrix(.26458 0 0 .26458 11.436 38.113)" d="m267.27 37.678v37.118h119.51v-37.118z" clip-path="url(#a)" fill="#cf3a2e" fill-rule="evenodd"/>
<path transform="matrix(.26458 0 0 .26458 11.436 38.113)" d="m266.95 37.678c0-0.15999 0.16-0.31998 0.31999-0.31998h119.51c0.17999 0 0.31998 0.15999 0.31998 0.31998v37.118c0 0.17999-0.13999 0.31998-0.31998 0.31998h-119.51c-0.15999 0-0.31999-0.13999-0.31999-0.31998zm0.63997 37.118-0.31998-0.31998h119.51l-0.31998 0.31998v-37.118l0.31998 0.31998h-119.51l0.31998-0.31998z" clip-path="url(#a)" fill="#98281f" stroke="#98281f" stroke-linejoin="bevel" stroke-width=".15999px"/>
<path transform="matrix(.26458 0 0 .26458 11.436 38.113)" d="m267.27 74.796v37.278h29.918v-37.278z" clip-path="url(#a)" fill="#dea603" fill-rule="evenodd"/>
<path transform="matrix(.26458 0 0 .26458 11.436 38.113)" d="m266.95 74.796c0-0.15999 0.16-0.31998 0.31999-0.31998h29.918c0.18 0 0.31999 0.15999 0.31999 0.31998v37.278c0 0.17999-0.13999 0.31998-0.31999 0.31998h-29.918c-0.15999 0-0.31999-0.13999-0.31999-0.31998zm0.63997 37.278-0.31998-0.31998h29.918l-0.31998 0.31998v-37.278l0.31998 0.31998h-29.918l0.31998-0.31998z" clip-path="url(#a)" fill="#a37902" stroke="#a37902" stroke-linejoin="bevel" stroke-width=".15999px"/>
<path transform="matrix(.26458 0 0 .26458 11.436 38.113)" d="m267.27 112.07v37.118h59.677v-37.118z" clip-path="url(#a)" fill="#2d9449" fill-rule="evenodd"/>
<path transform="matrix(.26458 0 0 .26458 11.436 38.113)" d="m266.95 112.07c0-0.15999 0.16-0.31998 0.31999-0.31998h59.677c0.17999 0 0.31998 0.15999 0.31998 0.31998v37.118c0 0.17999-0.13999 0.31998-0.31998 0.31998h-59.677c-0.15999 0-0.31999-0.13999-0.31999-0.31998zm0.63997 37.118-0.31998-0.31998h59.677l-0.31998 0.31998v-37.118l0.31998 0.31998h-59.677l0.31998-0.31998z" clip-path="url(#a)" fill="#1e6c33" stroke="#1e6c33" stroke-linejoin="bevel" stroke-width=".15999px"/>
<path transform="matrix(.26458 0 0 .26458 11.436 38.113)" d="m267.27 149.19v37.118h179.19v-37.118z" clip-path="url(#a)" fill="#e26001" fill-rule="evenodd"/>
<path transform="matrix(.26458 0 0 .26458 11.436 38.113)" d="m266.95 149.19c0-0.15999 0.16-0.31998 0.31999-0.31998h179.19c0.17999 0 0.31998 0.15999 0.31998 0.31998v37.118c0 0.17999-0.13999 0.31999-0.31998 0.31999h-179.19c-0.15999 0-0.31999-0.14-0.31999-0.31999zm0.63997 37.118-0.31998-0.31998h179.19l-0.31998 0.31998v-37.118l0.31998 0.31998h-179.19l0.31998-0.31998z" clip-path="url(#a)" fill="#a64400" stroke="#a64400" stroke-linejoin="bevel" stroke-width=".15999px"/>
<path transform="matrix(.26458 0 0 .26458 11.436 38.113)" d="m267.27 186.31v37.278h239.03v-37.278z" clip-path="url(#a)" fill="#3da7af" fill-rule="evenodd"/>
<path transform="matrix(.26458 0 0 .26458 11.436 38.113)" d="m266.95 186.31c0-0.15999 0.16-0.31998 0.31999-0.31998h239.03c0.17999 0 0.31999 0.15999 0.31999 0.31998v37.278c0 0.17999-0.14 0.31998-0.31999 0.31998h-239.03c-0.15999 0-0.31999-0.13999-0.31999-0.31998zm0.63997 37.278-0.31998-0.31999h239.03l-0.31998 0.31999v-37.278l0.31998 0.31999h-239.03l0.31998-0.31999z" clip-path="url(#a)" fill="#2a7a80" stroke="#2a7a80" stroke-linejoin="bevel" stroke-width=".15999px"/>
<path transform="matrix(.26458 0 0 .26458 11.436 38.113)" d="m267.27 223.59v37.118h89.595v-37.118z" clip-path="url(#a)" fill="#8eacf7" fill-rule="evenodd"/>
<path transform="matrix(.26458 0 0 .26458 11.436 38.113)" d="m266.95 223.59c0-0.15999 0.16-0.31999 0.31999-0.31999h89.595c0.18 0 0.31999 0.16 0.31999 0.31999v37.118c0 0.17999-0.13999 0.31998-0.31999 0.31998h-89.595c-0.15999 0-0.31999-0.13999-0.31999-0.31998zm0.63997 37.118-0.31998-0.31998h89.595l-0.31998 0.31998v-37.118l0.31998 0.31998h-89.595l0.31998-0.31998z" clip-path="url(#a)" fill="#8999c8" stroke="#8999c8" stroke-linejoin="bevel" stroke-width=".15999px"/>
<path transform="matrix(.26458 0 0 .26458 11.436 38.113)" d="m267.27 260.71v37.118h29.918v-37.118z" clip-path="url(#a)" fill="#ef8f8b" fill-rule="evenodd"/>
<path transform="matrix(.26458 0 0 .26458 11.436 38.113)" d="m266.95 260.71c0-0.15999 0.16-0.31998 0.31999-0.31998h29.918c0.18 0 0.31999 0.15999 0.31999 0.31998v37.118c0 0.17999-0.13999 0.31998-0.31999 0.31998h-29.918c-0.15999 0-0.31999-0.13999-0.31999-0.31998zm0.63997 37.118-0.31998-0.31998h29.918l-0.31998 0.31998v-37.118l0.31998 0.31998h-29.918l0.31998-0.31998z" clip-path="url(#a)" fill="#c38987" stroke="#c38987" stroke-linejoin="bevel" stroke-width=".15999px"/>
<path d="m82.15 126.69h71.159v0.16933h-71.159z" fill="#898989" stroke="#898989" stroke-linejoin="bevel" stroke-width=".042331px"/>
<path d="m82.235 126.78v1.0583h-0.16932v-1.0583zm7.9159 0v1.0583h-0.16933v-1.0583zm7.8736 0v1.0583h-0.16932v-1.0583zm7.9159 0v1.0583h-0.16932v-1.0583zm7.9159 0v1.0583h-0.16932v-1.0583zm7.9159 0v1.0583h-0.16933v-1.0583zm7.8736 0v1.0583h-0.16933v-1.0583zm7.9159 0v1.0583h-0.16933v-1.0583zm7.9159 0v1.0583h-0.16932v-1.0583zm7.9159 0v1.0583h-0.16932v-1.0583z" fill="#898989" stroke="#898989" stroke-linejoin="bevel" stroke-width=".042331px"/>
<path d="m82.235 38.261v88.514h-0.16932v-88.514z" fill="#898989" stroke="#898989" stroke-linejoin="bevel" stroke-width=".042331px"/>
<path d="m81.092 38.176h1.0583v0.16932h-1.0583zm0 9.8208h1.0583v0.16932h-1.0583zm0 9.8208h1.0583v0.16932h-1.0583zm0 9.8632h1.0583v0.16932h-1.0583zm0 9.8208h1.0583v0.16932h-1.0583zm0 9.8208h1.0583v0.16932h-1.0583zm0 9.8632h1.0583v0.16933h-1.0583zm0 9.8208h1.0583v0.16932h-1.0583zm0 9.8208h1.0583v0.16932h-1.0583zm0 9.8632h1.0583v0.16933h-1.0583z" fill="#898989" stroke="#898989" stroke-linejoin="bevel" stroke-width=".042331px"/>
<text x="109.7315" y="44.464024" fill="#000000" font-family="Arial" font-size="3.5057px" font-weight="400" letter-spacing="0px" stroke-width=".26458" word-spacing="0px" style="line-height:125%" xml:space="preserve"><tspan x="109.7315" y="44.464024" stroke-width=".26458"><tspan dx="0" dy="0" fill="#000000" font-family="Arial" font-size="3.5057px" font-weight="400" stroke-width=".26458">4</tspan></tspan></text>
<text x="109.7315" y="54.299099" fill="#000000" font-family="Arial" font-size="3.5057px" font-weight="400" letter-spacing="0px" stroke-width=".26458" word-spacing="0px" style="line-height:125%" xml:space="preserve"><tspan x="109.7315" y="54.299099" stroke-width=".26458"><tspan dx="0" dy="0" fill="#000000" font-family="Arial" font-size="3.5057px" font-weight="400" stroke-width=".26458">4</tspan></tspan></text>
<text x="86.01606" y="64.134193" fill="#000000" font-family="Arial" font-size="3.5057px" font-weight="400" letter-spacing="0px" stroke-width=".26458" word-spacing="0px" style="line-height:125%" xml:space="preserve"><tspan x="86.01606" y="64.134193" stroke-width=".26458"><tspan dx="0" dy="0" fill="#000000" font-family="Arial" font-size="3.5057px" font-weight="400" stroke-width=".26458">1</tspan></tspan></text>
<text x="93.921204" y="73.969269" fill="#000000" font-family="Arial" font-size="3.5057px" font-weight="400" letter-spacing="0px" stroke-width=".26458" word-spacing="0px" style="line-height:125%" xml:space="preserve"><tspan x="93.921204" y="73.969269" stroke-width=".26458"><tspan dx="0" dy="0" fill="#000000" font-family="Arial" font-size="3.5057px" font-weight="400" stroke-width=".26458">2</tspan></tspan></text>
<text x="125.54182" y="83.804344" fill="#000000" font-family="Arial" font-size="3.5057px" font-weight="400" letter-spacing="0px" stroke-width=".26458" word-spacing="0px" style="line-height:125%" xml:space="preserve"><tspan x="125.54182" y="83.804344" stroke-width=".26458"><tspan dx="0" dy="0" fill="#000000" font-family="Arial" font-size="3.5057px" font-weight="400" stroke-width=".26458">6</tspan></tspan></text>
<text x="141.3521" y="93.639412" fill="#000000" font-family="Arial" font-size="3.5057px" font-weight="400" letter-spacing="0px" stroke-width=".26458" word-spacing="0px" style="line-height:125%" xml:space="preserve"><tspan x="141.3521" y="93.639412" stroke-width=".26458"><tspan dx="0" dy="0" fill="#000000" font-family="Arial" font-size="3.5057px" font-weight="400" stroke-width=".26458">8</tspan></tspan></text>
<text x="101.82635" y="103.47452" fill="#000000" font-family="Arial" font-size="3.5057px" font-weight="400" letter-spacing="0px" stroke-width=".26458" word-spacing="0px" style="line-height:125%" xml:space="preserve"><tspan x="101.82635" y="103.47452" stroke-width=".26458"><tspan dx="0" dy="0" fill="#000000" font-family="Arial" font-size="3.5057px" font-weight="400" stroke-width=".26458">3</tspan></tspan></text>
<text x="86.01606" y="113.30959" fill="#000000" font-family="Arial" font-size="3.5057px" font-weight="400" letter-spacing="0px" stroke-width=".26458" word-spacing="0px" style="line-height:125%" xml:space="preserve"><tspan x="86.01606" y="113.30959" stroke-width=".26458"><tspan dx="0" dy="0" fill="#000000" font-family="Arial" font-size="3.5057px" font-weight="400" stroke-width=".26458">1</tspan></tspan></text>
<text x="84.305374" y="123.14466" fill="#000000" font-family="Arial" font-size="3.5057px" font-weight="400" letter-spacing="0px" stroke-width=".26458" word-spacing="0px" style="line-height:125%" xml:space="preserve"><tspan x="84.305374" y="123.14466" stroke-width=".26458"><tspan dx="0" dy="0" fill="#000000" font-family="Arial" font-size="3.5057px" font-weight="400" stroke-width=".26458">0</tspan></tspan></text>
<text x="81.195801" y="132.09308" fill="#000000" font-family="Arial" font-size="3.5057px" font-weight="400" letter-spacing="0px" stroke-width=".26458" word-spacing="0px" style="line-height:125%" xml:space="preserve"><tspan x="81.195801" y="132.09308" stroke-width=".26458"><tspan dx="0" dy="0" fill="#000000" font-family="Arial" font-size="3.5057px" font-weight="400" stroke-width=".26458">0</tspan></tspan></text>
<text x="89.100945" y="132.09308" fill="#000000" font-family="Arial" font-size="3.5057px" font-weight="400" letter-spacing="0px" stroke-width=".26458" word-spacing="0px" style="line-height:125%" xml:space="preserve"><tspan x="89.100945" y="132.09308" stroke-width=".26458"><tspan dx="0" dy="0" fill="#000000" font-family="Arial" font-size="3.5057px" font-weight="400" stroke-width=".26458">1</tspan></tspan></text>
<text x="97.006088" y="132.09308" fill="#000000" font-family="Arial" font-size="3.5057px" font-weight="400" letter-spacing="0px" stroke-width=".26458" word-spacing="0px" style="line-height:125%" xml:space="preserve"><tspan x="97.006088" y="132.09308" stroke-width=".26458"><tspan dx="0" dy="0" fill="#000000" font-family="Arial" font-size="3.5057px" font-weight="400" stroke-width=".26458">2</tspan></tspan></text>
<text x="104.91123" y="132.09308" fill="#000000" font-family="Arial" font-size="3.5057px" font-weight="400" letter-spacing="0px" stroke-width=".26458" word-spacing="0px" style="line-height:125%" xml:space="preserve"><tspan x="104.91123" y="132.09308" stroke-width=".26458"><tspan dx="0" dy="0" fill="#000000" font-family="Arial" font-size="3.5057px" font-weight="400" stroke-width=".26458">3</tspan></tspan></text>
<text x="112.81638" y="132.09308" fill="#000000" font-family="Arial" font-size="3.5057px" font-weight="400" letter-spacing="0px" stroke-width=".26458" word-spacing="0px" style="line-height:125%" xml:space="preserve"><tspan x="112.81638" y="132.09308" stroke-width=".26458"><tspan dx="0" dy="0" fill="#000000" font-family="Arial" font-size="3.5057px" font-weight="400" stroke-width=".26458">4</tspan></tspan></text>
<text x="120.72155" y="132.09308" fill="#000000" font-family="Arial" font-size="3.5057px" font-weight="400" letter-spacing="0px" stroke-width=".26458" word-spacing="0px" style="line-height:125%" xml:space="preserve"><tspan x="120.72155" y="132.09308" stroke-width=".26458"><tspan dx="0" dy="0" fill="#000000" font-family="Arial" font-size="3.5057px" font-weight="400" stroke-width=".26458">5</tspan></tspan></text>
<text x="128.62669" y="132.09308" fill="#000000" font-family="Arial" font-size="3.5057px" font-weight="400" letter-spacing="0px" stroke-width=".26458" word-spacing="0px" style="line-height:125%" xml:space="preserve"><tspan x="128.62669" y="132.09308" stroke-width=".26458"><tspan dx="0" dy="0" fill="#000000" font-family="Arial" font-size="3.5057px" font-weight="400" stroke-width=".26458">6</tspan></tspan></text>
<text x="136.53183" y="132.09308" fill="#000000" font-family="Arial" font-size="3.5057px" font-weight="400" letter-spacing="0px" stroke-width=".26458" word-spacing="0px" style="line-height:125%" xml:space="preserve"><tspan x="136.53183" y="132.09308" stroke-width=".26458"><tspan dx="0" dy="0" fill="#000000" font-family="Arial" font-size="3.5057px" font-weight="400" stroke-width=".26458">7</tspan></tspan></text>
<text x="144.43697" y="132.09308" fill="#000000" font-family="Arial" font-size="3.5057px" font-weight="400" letter-spacing="0px" stroke-width=".26458" word-spacing="0px" style="line-height:125%" xml:space="preserve"><tspan x="144.43697" y="132.09308" stroke-width=".26458"><tspan dx="0" dy="0" fill="#000000" font-family="Arial" font-size="3.5057px" font-weight="400" stroke-width=".26458">8</tspan></tspan></text>
<text x="152.34213" y="132.09308" fill="#000000" font-family="Arial" font-size="3.5057px" font-weight="400" letter-spacing="0px" stroke-width=".26458" word-spacing="0px" style="line-height:125%" xml:space="preserve"><tspan x="152.34213" y="132.09308" stroke-width=".26458"><tspan dx="0" dy="0" fill="#000000" font-family="Arial" font-size="3.5057px" font-weight="400" stroke-width=".26458">9</tspan></tspan></text>
<text x="78.459152" y="44.291199" fill="#000000" font-family="Arial" font-size="3.5057px" font-weight="400" letter-spacing="0px" stroke-width=".26458" text-align="end" text-anchor="end" word-spacing="0px" style="line-height:120%" xml:space="preserve"><tspan x="78.459152" y="44.291199" stroke-width=".26458" text-align="end" text-anchor="end"><tspan dx="0" dy="0" fill="#000000" font-family="Arial" font-size="3.5057px" font-weight="400" stroke-width=".26458" text-align="end" text-anchor="end">Interest in the language</tspan></tspan></text>
<text x="78.274239" y="52.097904" fill="#000000" font-family="Arial" font-size="3.5057px" font-weight="400" letter-spacing="0px" stroke-width=".26458" text-align="end" text-anchor="end" word-spacing="0px" style="line-height:120%" xml:space="preserve"><tspan x="78.274239" y="52.097904" text-align="end"><tspan dx="0" dy="0" fill="#000000" font-family="Arial" font-size="3.5057px" font-weight="400" stroke-width=".26458" text-align="end" text-anchor="end">Reading their works on the</tspan></tspan><tspan x="78.274239" y="56.304779" text-align="end"><tspan fill="#000000" font-family="Arial" font-size="3.5057px" font-weight="400" stroke-width=".26458" text-align="end" text-anchor="end">International Translation Archive</tspan></tspan></text>
<text x="78.291382" y="61.882477" fill="#000000" font-family="Arial" font-size="3.5057px" font-weight="400" letter-spacing="0px" stroke-width=".26458" text-align="end" text-anchor="end" word-spacing="0px" style="line-height:120%" xml:space="preserve"><tspan x="78.291382" y="61.882477" text-align="end"><tspan dx="0" dy="0" fill="#000000" font-family="Arial" font-size="3.5057px" font-weight="400" stroke-width=".26458" text-align="end" text-anchor="end">Reading their works</tspan></tspan><tspan x="78.291382" y="66.089355" text-align="end"><tspan fill="#000000" font-family="Arial" font-size="3.5057px" font-weight="400" stroke-width=".26458" text-align="end" text-anchor="end">on the English wiki</tspan></tspan></text>
<text x="78.334343" y="73.796417" fill="#000000" font-family="Arial" font-size="3.5057px" font-weight="400" letter-spacing="0px" stroke-width=".26458" text-align="end" text-anchor="end" word-spacing="0px" style="line-height:120%" xml:space="preserve"><tspan x="78.334343" y="73.796417" stroke-width=".26458" text-align="end" text-anchor="end"><tspan dx="0" dy="0" fill="#000000" font-family="Arial" font-size="3.5057px" font-weight="400" stroke-width=".26458" text-align="end" text-anchor="end">Reading their works on my branch</tspan></tspan></text>
<text x="78.39209" y="81.603127" fill="#000000" font-family="Arial" font-size="3.5057px" font-weight="400" letter-spacing="0px" stroke-width=".26458" text-align="end" text-anchor="end" word-spacing="0px" style="line-height:120%" xml:space="preserve"><tspan x="78.39209" y="81.603127" text-align="end"><tspan dx="0" dy="0" fill="#000000" font-family="Arial" font-size="3.5057px" font-weight="400" stroke-width=".26458" text-align="end" text-anchor="end">Interactions with their</tspan></tspan><tspan x="78.39209" y="85.810005" text-align="end"><tspan fill="#000000" font-family="Arial" font-size="3.5057px" font-weight="400" stroke-width=".26458" text-align="end" text-anchor="end">users on the INT Discord</tspan></tspan></text>
<text x="78.297249" y="91.438225" fill="#000000" font-family="Arial" font-size="3.5057px" font-weight="400" letter-spacing="0px" stroke-width=".26458" text-align="end" text-anchor="end" word-spacing="0px" style="line-height:120%" xml:space="preserve"><tspan x="78.297249" y="91.438225" text-align="end"><tspan dx="0" dy="0" fill="#000000" font-family="Arial" font-size="3.5057px" font-weight="400" stroke-width=".26458" text-align="end" text-anchor="end">Interactions with their users</tspan></tspan><tspan x="78.297249" y="95.645103" text-align="end"><tspan fill="#000000" font-family="Arial" font-size="3.5057px" font-weight="400" stroke-width=".26458" text-align="end" text-anchor="end">on my branch's Discord</tspan></tspan></text>
<text x="78.517387" y="101.2733" fill="#000000" font-family="Arial" font-size="3.5057px" font-weight="400" letter-spacing="0px" stroke-width=".26458" text-align="end" text-anchor="end" word-spacing="0px" style="line-height:120%" xml:space="preserve"><tspan x="78.517387" y="101.2733" text-align="end"><tspan dx="0" dy="0" fill="#000000" font-family="Arial" font-size="3.5057px" font-weight="400" stroke-width=".26458" text-align="end" text-anchor="end">Interactions with their users</tspan></tspan><tspan x="78.517387" y="105.48018" text-align="end"><tspan fill="#000000" font-family="Arial" font-size="3.5057px" font-weight="400" stroke-width=".26458" text-align="end" text-anchor="end">on another branch's Discord</tspan></tspan></text>
<text x="78.261017" y="111.24686" fill="#000000" font-family="Arial" font-size="3.5057px" font-weight="400" letter-spacing="0px" stroke-width=".26458" text-align="end" text-anchor="end" word-spacing="0px" style="line-height:120%" xml:space="preserve"><tspan x="78.261017" y="111.24686" text-align="end"><tspan dx="0" dy="0" fill="#000000" font-family="Arial" font-size="3.5057px" font-weight="400" stroke-width=".26458" text-align="end" text-anchor="end">I just joined all official</tspan></tspan><tspan x="78.261017" y="115.45374" text-align="end"><tspan fill="#000000" font-family="Arial" font-size="3.5057px" font-weight="400" stroke-width=".26458" text-align="end" text-anchor="end">branches' Discords</tspan></tspan></text>
<text x="78.73008" y="122.97182" fill="#000000" font-family="Arial" font-size="3.5057px" font-weight="400" letter-spacing="0px" stroke-width=".26458" text-align="end" text-anchor="end" word-spacing="0px" style="line-height:120%" xml:space="preserve"><tspan x="78.73008" y="122.97182" stroke-width=".26458" text-align="end" text-anchor="end"><tspan dx="0" dy="0" fill="#000000" font-family="Arial" font-size="3.5057px" font-weight="400" stroke-width=".26458" text-align="end" text-anchor="end">Social media</tspan></tspan></text>
</g>
</svg>
