<?xml version="1.0" encoding="UTF-8"?>
<svg width="365.29" height="253.38" version="1.1" viewBox="0 0 96.649 67.041" xmlns="http://www.w3.org/2000/svg" xmlns:cc="http://creativecommons.org/ns#" xmlns:dc="http://purl.org/dc/elements/1.1/" xmlns:rdf="http://www.w3.org/1999/02/22-rdf-syntax-ns#">
<defs>
<clipPath id="a">
<path d="m183.35 0.47998h202.87v223.83h-202.87z"/>
</clipPath>
</defs>
<metadata>
<rdf:RDF>
<cc:Work rdf:about="">
<dc:format>image/svg+xml</dc:format>
<dc:type rdf:resource="http://purl.org/dc/dcmitype/StillImage"/>
<dc:title/>
</cc:Work>
</rdf:RDF>
</metadata>
<g transform="translate(-31.674 -22.234)">
<path d="m71.785 23.663v58.925h53.422v-58.925z" fill="#e7e7e7" fill-rule="evenodd"/>
<path d="m82.579 23.663v58.925h-0.16933v-58.925zm10.667 0v58.925h-0.16932v-58.925zm10.667 0v58.925h-0.16932v-58.925zm10.71 0v58.925h-0.16933v-58.925zm10.667 0v58.925h-0.16932v-58.925z" fill="#898989" stroke="#898989" stroke-linejoin="bevel" stroke-width=".042331px"/>
<path transform="matrix(.26458 0 0 .26458 23.295 23.515)" d="m183.27 0.55997v31.838h40.478v-31.838z" clip-path="url(#a)" fill="#3975d8" fill-rule="evenodd"/>
<path transform="matrix(.26458 0 0 .26458 23.295 23.515)" d="m182.95 0.55997c0-0.16999 0.14999-0.31998 0.31998-0.31998h40.478c0.17999 0 0.31998 0.14999 0.31998 0.31998v31.838c0 0.17999-0.13999 0.31998-0.31998 0.31998h-40.478c-0.16999 0-0.31998-0.13999-0.31998-0.31998zm0.63996 31.838-0.31998-0.31998h40.478l-0.31998 0.31998v-31.838l0.31998 0.31998h-40.478l0.31998-0.31998z" clip-path="url(#a)" fill="#27549e" stroke="#27549e" stroke-linejoin="bevel" stroke-width=".15999px"/>
<path transform="matrix(.26458 0 0 .26458 23.295 23.515)" d="m183.27 32.398v31.678h121.11v-31.678z" clip-path="url(#a)" fill="#cf3a2e" fill-rule="evenodd"/>
<path transform="matrix(.26458 0 0 .26458 23.295 23.515)" d="m182.95 32.398c0-0.16999 0.14999-0.31998 0.31998-0.31998h121.11c0.17999 0 0.31998 0.14999 0.31998 0.31998v31.678c0 0.17999-0.13999 0.31998-0.31998 0.31998h-121.11c-0.16999 0-0.31998-0.13999-0.31998-0.31998zm0.63996 31.678-0.31998-0.31998h121.11l-0.31998 0.31998v-31.678l0.31998 0.31998h-121.11l0.31998-0.31998z" clip-path="url(#a)" fill="#98281f" stroke="#98281f" stroke-linejoin="bevel" stroke-width=".15999px"/>
<path transform="matrix(.26458 0 0 .26458 23.295 23.515)" d="m183.27 64.077v31.838h181.75v-31.838z" clip-path="url(#a)" fill="#dea603" fill-rule="evenodd"/>
<path transform="matrix(.26458 0 0 .26458 23.295 23.515)" d="m182.95 64.077c0-0.15999 0.15999-0.31998 0.31998-0.31998h181.75c0.17999 0 0.31998 0.15999 0.31998 0.31998v31.838c0 0.17999-0.13999 0.31998-0.31998 0.31998h-181.75c-0.15999 0-0.31998-0.13999-0.31998-0.31998zm0.63996 31.838-0.31998-0.31998h181.75l-0.31998 0.31998v-31.838l0.31998 0.31998h-181.75l0.31998-0.31998z" clip-path="url(#a)" fill="#a37902" stroke="#a37902" stroke-linejoin="bevel" stroke-width=".15999px"/>
<path transform="matrix(.26458 0 0 .26458 23.295 23.515)" d="m183.27 191.43v31.838h40.478v-31.838z" clip-path="url(#a)" fill="#8eacf7" fill-rule="evenodd"/>
<path transform="matrix(.26458 0 0 .26458 23.295 23.515)" d="m182.95 191.43c0-0.16999 0.14999-0.31999 0.31998-0.31999h40.478c0.17999 0 0.31998 0.15 0.31998 0.31999v31.838c0 0.17999-0.13999 0.31999-0.31998 0.31999h-40.478c-0.16999 0-0.31998-0.14-0.31998-0.31999zm0.63996 31.838-0.31998-0.31998h40.478l-0.31998 0.31998v-31.838l0.31998 0.31998h-40.478l0.31998-0.31998z" clip-path="url(#a)" fill="#8999c8" stroke="#8999c8" stroke-linejoin="bevel" stroke-width=".15999px"/>
<path d="m71.785 82.503h53.422v0.16933h-53.422z" fill="#898989" stroke="#898989" stroke-linejoin="bevel" stroke-width=".042331px"/>
<path d="m71.869 82.588v1.0583h-0.16932v-1.0583zm10.71 0v1.0583h-0.16933v-1.0583zm10.667 0v1.0583h-0.16932v-1.0583zm10.667 0v1.0583h-0.16932v-1.0583zm10.71 0v1.0583h-0.16933v-1.0583zm10.667 0v1.0583h-0.16932v-1.0583z" fill="#898989" stroke="#898989" stroke-linejoin="bevel" stroke-width=".042331px"/>
<path d="m71.869 23.663v58.925h-0.16932v-58.925z" fill="#898989" stroke="#898989" stroke-linejoin="bevel" stroke-width=".042331px"/>
<path d="m70.727 23.578h1.0583v0.16932h-1.0583zm0 8.4239h1.0583v0.16932h-1.0583zm0 8.3816h1.0583v0.16932h-1.0583zm0 8.4239h1.0583v0.16932h-1.0583zm0 8.4239h1.0583v0.16933h-1.0583zm0 8.4239h1.0583v0.16932h-1.0583zm0 8.4239h1.0583v0.16933h-1.0583zm0 8.4239h1.0583v0.16933h-1.0583z" fill="#898989" stroke="#898989" stroke-linejoin="bevel" stroke-width=".042331px"/>
<text x="78.432434" y="29.162685" fill="#000000" font-family="Arial" font-size="3.5057px" font-weight="400" letter-spacing="0px" stroke-width=".26458" word-spacing="0px" style="line-height:125%" xml:space="preserve"><tspan x="78.432434" y="29.162685" stroke-width=".26458"><tspan dx="0" dy="0" fill="#000000" font-family="Arial" font-size="3.5057px" font-weight="400" stroke-width=".26458">2</tspan></tspan></text>
<text x="99.794746" y="37.580444" fill="#000000" font-family="Arial" font-size="3.5057px" font-weight="400" letter-spacing="0px" stroke-width=".26458" word-spacing="0px" style="line-height:125%" xml:space="preserve"><tspan x="99.794746" y="37.580444" stroke-width=".26458"><tspan dx="0" dy="0" fill="#000000" font-family="Arial" font-size="3.5057px" font-weight="400" stroke-width=".26458">6</tspan></tspan></text>
<text x="115.81644" y="45.998199" fill="#000000" font-family="Arial" font-size="3.5057px" font-weight="400" letter-spacing="0px" stroke-width=".26458" word-spacing="0px" style="line-height:125%" xml:space="preserve"><tspan x="115.81644" y="45.998199" stroke-width=".26458"><tspan dx="0" dy="0" fill="#000000" font-family="Arial" font-size="3.5057px" font-weight="400" stroke-width=".26458">9</tspan></tspan></text>
<text x="73.94577" y="54.415958" fill="#000000" font-family="Arial" font-size="3.5057px" font-weight="400" letter-spacing="0px" stroke-width=".26458" word-spacing="0px" style="line-height:125%" xml:space="preserve"><tspan x="73.94577" y="54.415958" stroke-width=".26458"><tspan dx="0" dy="0" fill="#000000" font-family="Arial" font-size="3.5057px" font-weight="400" stroke-width=".26458">0</tspan></tspan></text>
<text x="73.94577" y="62.833714" fill="#000000" font-family="Arial" font-size="3.5057px" font-weight="400" letter-spacing="0px" stroke-width=".26458" word-spacing="0px" style="line-height:125%" xml:space="preserve"><tspan x="73.94577" y="62.833714" stroke-width=".26458"><tspan dx="0" dy="0" fill="#000000" font-family="Arial" font-size="3.5057px" font-weight="400" stroke-width=".26458">0</tspan></tspan></text>
<text x="73.94577" y="71.251472" fill="#000000" font-family="Arial" font-size="3.5057px" font-weight="400" letter-spacing="0px" stroke-width=".26458" word-spacing="0px" style="line-height:125%" xml:space="preserve"><tspan x="73.94577" y="71.251472" stroke-width=".26458"><tspan dx="0" dy="0" fill="#000000" font-family="Arial" font-size="3.5057px" font-weight="400" stroke-width=".26458">0</tspan></tspan></text>
<text x="78.432434" y="79.669228" fill="#000000" font-family="Arial" font-size="3.5057px" font-weight="400" letter-spacing="0px" stroke-width=".26458" word-spacing="0px" style="line-height:125%" xml:space="preserve"><tspan x="78.432434" y="79.669228" stroke-width=".26458"><tspan dx="0" dy="0" fill="#000000" font-family="Arial" font-size="3.5057px" font-weight="400" stroke-width=".26458">2</tspan></tspan></text>
<text x="70.841476" y="87.908997" fill="#000000" font-family="Arial" font-size="3.5057px" font-weight="400" letter-spacing="0px" stroke-width=".26458" word-spacing="0px" style="line-height:125%" xml:space="preserve"><tspan x="70.841476" y="87.908997" stroke-width=".26458"><tspan dx="0" dy="0" fill="#000000" font-family="Arial" font-size="3.5057px" font-weight="400" stroke-width=".26458">0</tspan></tspan></text>
<text x="81.522614" y="87.908997" fill="#000000" font-family="Arial" font-size="3.5057px" font-weight="400" letter-spacing="0px" stroke-width=".26458" word-spacing="0px" style="line-height:125%" xml:space="preserve"><tspan x="81.522614" y="87.908997" stroke-width=".26458"><tspan dx="0" dy="0" fill="#000000" font-family="Arial" font-size="3.5057px" font-weight="400" stroke-width=".26458">2</tspan></tspan></text>
<text x="92.203758" y="87.908997" fill="#000000" font-family="Arial" font-size="3.5057px" font-weight="400" letter-spacing="0px" stroke-width=".26458" word-spacing="0px" style="line-height:125%" xml:space="preserve"><tspan x="92.203758" y="87.908997" stroke-width=".26458"><tspan dx="0" dy="0" fill="#000000" font-family="Arial" font-size="3.5057px" font-weight="400" stroke-width=".26458">4</tspan></tspan></text>
<text x="102.88493" y="87.908997" fill="#000000" font-family="Arial" font-size="3.5057px" font-weight="400" letter-spacing="0px" stroke-width=".26458" word-spacing="0px" style="line-height:125%" xml:space="preserve"><tspan x="102.88493" y="87.908997" stroke-width=".26458"><tspan dx="0" dy="0" fill="#000000" font-family="Arial" font-size="3.5057px" font-weight="400" stroke-width=".26458">6</tspan></tspan></text>
<text x="113.56606" y="87.908997" fill="#000000" font-family="Arial" font-size="3.5057px" font-weight="400" letter-spacing="0px" stroke-width=".26458" word-spacing="0px" style="line-height:125%" xml:space="preserve"><tspan x="113.56606" y="87.908997" stroke-width=".26458"><tspan dx="0" dy="0" fill="#000000" font-family="Arial" font-size="3.5057px" font-weight="400" stroke-width=".26458">8</tspan></tspan></text>
<text x="123.26653" y="87.908997" fill="#000000" font-family="Arial" font-size="3.5057px" font-weight="400" letter-spacing="0px" stroke-width=".26458" word-spacing="0px" style="line-height:125%" xml:space="preserve"><tspan x="123.26653" y="87.908997" stroke-width=".26458"><tspan dx="0" dy="0" fill="#000000" font-family="Arial" font-size="3.5057px" font-weight="400" stroke-width=".26458">10</tspan></tspan></text>
<text x="68.420708" y="26.961466" fill="#000000" font-family="Arial" font-size="3.5057px" font-weight="400" letter-spacing="0px" stroke-width=".26458" text-align="end" text-anchor="end" word-spacing="0px" style="line-height:125%" xml:space="preserve"><tspan x="68.420708" y="26.961466" text-align="end"><tspan dx="0" dy="0" fill="#000000" font-family="Arial" font-size="3.5057px" font-weight="400" stroke-width=".26458" text-align="end" text-anchor="end">The wiki (without</tspan></tspan><tspan x="68.420708" y="31.343628" text-align="end"><tspan fill="#000000" font-family="Arial" font-size="3.5057px" font-weight="400" stroke-width=".26458" text-align="end" text-anchor="end">account/not joined)</tspan></tspan></text>
<text x="32.914257" y="37.407593" fill="#000000" font-family="Arial" font-size="3.5057px" font-weight="400" letter-spacing="0px" stroke-width=".26458" word-spacing="0px" style="line-height:125%" xml:space="preserve"><tspan x="32.914257" y="37.407593" stroke-width=".26458"><tspan dx="0" dy="0" fill="#000000" font-family="Arial" font-size="3.5057px" font-weight="400" stroke-width=".26458">The wiki (with account)</tspan></tspan></text>
<text x="56.831348" y="45.825348" fill="#000000" font-family="Arial" font-size="3.5057px" font-weight="400" letter-spacing="0px" stroke-width=".26458" word-spacing="0px" style="line-height:125%" xml:space="preserve"><tspan x="56.831348" y="45.825348" stroke-width=".26458"><tspan dx="0" dy="0" fill="#000000" font-family="Arial" font-size="3.5057px" font-weight="400" stroke-width=".26458">Discord</tspan></tspan></text>
<text x="53.296696" y="54.243107" fill="#000000" font-family="Arial" font-size="3.5057px" font-weight="400" letter-spacing="0px" stroke-width=".26458" word-spacing="0px" style="line-height:125%" xml:space="preserve"><tspan x="53.296696" y="54.243107" stroke-width=".26458"><tspan dx="0" dy="0" fill="#000000" font-family="Arial" font-size="3.5057px" font-weight="400" stroke-width=".26458">Facebook</tspan></tspan></text>
<text x="58.203579" y="62.66087" fill="#000000" font-family="Arial" font-size="3.5057px" font-weight="400" letter-spacing="0px" stroke-width=".26458" word-spacing="0px" style="line-height:125%" xml:space="preserve"><tspan x="58.203579" y="62.66087" stroke-width=".26458"><tspan dx="0" dy="0" fill="#000000" font-family="Arial" font-size="3.5057px" font-weight="400" stroke-width=".26458">Twitter</tspan></tspan></text>
<text x="54.471386" y="71.078613" fill="#000000" font-family="Arial" font-size="3.5057px" font-weight="400" letter-spacing="0px" stroke-width=".26458" word-spacing="0px" style="line-height:125%" xml:space="preserve"><tspan x="54.471386" y="71.078613" stroke-width=".26458"><tspan dx="0" dy="0" fill="#000000" font-family="Arial" font-size="3.5057px" font-weight="400" stroke-width=".26458">YouTube</tspan></tspan></text>
<text x="53.10268" y="79.496376" fill="#000000" font-family="Arial" font-size="3.5057px" font-weight="400" letter-spacing="0px" stroke-width=".26458" word-spacing="0px" style="line-height:125%" xml:space="preserve"><tspan x="53.10268" y="79.496376" stroke-width=".26458"><tspan dx="0" dy="0" fill="#000000" font-family="Arial" font-size="3.5057px" font-weight="400" stroke-width=".26458">Instagram</tspan></tspan></text>
</g>
</svg>
