<?xml version="1.0" encoding="UTF-8"?>
<svg width="287.63" height="287.65" version="1.1" viewBox="0 0 76.101 76.106" xmlns="http://www.w3.org/2000/svg" xmlns:cc="http://creativecommons.org/ns#" xmlns:dc="http://purl.org/dc/elements/1.1/" xmlns:rdf="http://www.w3.org/1999/02/22-rdf-syntax-ns#">
<defs>
<clipPath id="a">
<path d="m-129.11-41.278h479.98v332.46h-479.98z"/>
</clipPath>
</defs>
<metadata>
<rdf:RDF>
<cc:Work rdf:about="">
<dc:format>image/svg+xml</dc:format>
<dc:type rdf:resource="http://purl.org/dc/dcmitype/StillImage"/>
<dc:title/>
</cc:Work>
</rdf:RDF>
</metadata>
<g transform="translate(-78.983 -110.42)">
<path d="m117.04 148.47 23.541-28.055c-6.5984-5.5348-14.932-8.572-23.541-8.572z" fill="#3975d8" fill-rule="evenodd"/>
<path d="m117.12 148.47-0.14816-0.0529 23.541-28.055 0.0106 0.11641-1.2594-1.0054-1.2911-0.94716-1.3281-0.88896-1.3599-0.82545-1.3969-0.76196-1.4287-0.70376-0.71963-0.32277-0.73022-0.3122-0.7355-0.29631-0.74609-0.28045-0.74608-0.26457-0.75138-0.2434-0.76196-0.23282-0.76196-0.21695-0.77254-0.19578-0.77255-0.17991-0.77783-0.16403-0.78313-0.14816-0.78312-0.12699-0.78842-0.11642-0.79371-0.0952-0.799-0.0794-0.79371-0.0635-0.799-0.0423-0.80429-0.0265-0.80429-0.0106 0.0847-0.0847zm-0.16933-36.627c0-0.0212 0.0106-0.0423 0.0265-0.0582s0.037-0.0265 0.0582-0.0265l0.80958 0.0106 0.80429 0.0265 0.80429 0.0476 0.80429 0.0582 0.79901 0.0794 0.7937 0.10054 0.79371 0.11112 0.78842 0.13229 0.78842 0.14815 0.78312 0.16404 0.77255 0.1799 0.77254 0.20108 0.77254 0.21165 0.75667 0.23282 0.76196 0.2487 0.75138 0.26457 0.74609 0.28044 0.74079 0.29632 0.73021 0.31219 0.73022 0.33336 1.4287 0.70376 1.4022 0.76725 1.3705 0.83075 1.3334 0.88895 1.2964 0.95245 1.2594 1.0054c0.0159 0.0159 0.0265 0.037 0.0317 0.0582 0 0.0265-5e-3 0.0476-0.0212 0.0635l-23.541 28.055c-0.0212 0.0264-0.0582 0.037-0.0952 0.0264-0.0318-0.0106-0.0529-0.0423-0.0529-0.0794z" fill="#27549e" stroke="#27549e" stroke-linejoin="bevel" stroke-width=".042331px"/>
<path d="m117.04 148.47 36.066-6.3602c-1.4922-8.4821-5.9316-16.16-12.525-21.695z" fill="#cf3a2e" fill-rule="evenodd"/>
<path d="m117.1 148.53-0.0794-0.13758 36.071-6.3602-0.0688 0.10053-0.14816-0.79371-0.16932-0.78312-0.17991-0.78313-0.20107-0.77783-0.21166-0.76725-0.23282-0.76196-0.24869-0.76196-0.26986-0.74609-0.28045-0.74609-0.29102-0.74079-0.64555-1.4498-0.69847-1.4234-0.76725-1.3916-0.82017-1.3546-0.88366-1.3228-0.93657-1.2805-1.0001-1.2435-1.0477-1.1959-1.1059-1.1535-1.1535-1.1112-1.2117-1.0583 0.12171-0.0106zm23.414-28.161c0.0106-0.0212 0.0317-0.0318 0.0582-0.0318 0.0212 0 0.0423 5e-3 0.0635 0.0212l1.2117 1.0636 1.1641 1.1112 1.1059 1.1641 1.053 1.2011 1.0001 1.2488 0.94716 1.2911 0.88366 1.3228 0.82546 1.3652 0.76725 1.3916 0.70905 1.434 0.64026 1.4604 0.29631 0.7408 0.28574 0.74608 0.26457 0.75138 0.24869 0.76196 0.23283 0.77254 0.21694 0.77255 0.20108 0.77783 0.18519 0.78313 0.16404 0.78842 0.14816 0.79371c5e-3 0.0212 0 0.0476-0.0106 0.0635-0.0159 0.0212-0.037 0.0318-0.0582 0.037l-36.066 6.3603c-0.037 5e-3 -0.0741-0.0106-0.09-0.0423-0.0159-0.0318-0.0159-0.0688 0.0106-0.0952z" fill="#98281f" stroke="#98281f" stroke-linejoin="bevel" stroke-width=".042331px"/>
<path transform="matrix(.26458 0 0 .26458 79.316 111.66)" d="m142.57 139.13-119.89 69.216c38.238 66.197 122.89 88.875 189.09 50.657 50.397-29.098 77.216-86.616 67.117-143.91z" clip-path="url(#a)" fill="#dea603" fill-rule="evenodd"/>
<path transform="matrix(.26458 0 0 .26458 79.316 111.66)" d="m142.63 139.45 0.1-0.04-119.89 69.216 0.11999-0.43997 3.7198 6.0797 3.9798 5.7997 4.1998 5.5397 4.4598 5.2797 4.6798 5.0197 4.8797 4.7398 5.0997 4.4798 5.2597 4.1798 5.4597 3.9198 5.6197 3.6398 5.7797 3.3398 5.9197 3.0598 6.0397 2.7598 6.1397 2.4799 6.2797 2.1599 6.3597 1.8799 6.4397 1.5399 6.5197 1.2599 6.5597 0.93995 6.5996 0.63997 6.6597 0.29998 6.6596-0.02 6.6996-0.33998 6.6797-0.63997 6.6596-0.99995 6.6397-1.3399 6.6196-1.6599 6.5397-1.9999 6.5197-2.3599 6.4197-2.6799 6.3397-3.0398 6.2397-3.4198 4.6398-2.7998 4.4998-2.9598 4.3598-3.1198 4.2198-3.2798 4.0798-3.3998 3.9198-3.5598 3.7598-3.6998 3.5998-3.8198 3.4598-3.9398 3.2998-4.0598 3.1198-4.1798 2.9798-4.2998 2.7999-4.3798 2.6199-4.4998 2.4599-4.5798 2.2999-4.6598 2.0999-4.7598 1.9199-4.8198 1.7399-4.8998 1.5799-4.9597 1.3799-5.0397 1.1799-5.0797 0.99995-5.1397 0.79996-5.1797 0.59996-5.2197 0.41998-5.2597 0.17999-5.2797v-5.3197l-0.19999-5.3197-0.39998-5.3597-0.61996-5.3597-0.83996-5.3597 0.35998 0.27999zm136.21-24.679c0.08-0.02 0.15999 0 0.23998 0.06 0.06 0.04 0.12 0.11999 0.12 0.19999l0.83995 5.3997 0.61997 5.3797 0.41998 5.3597 0.19999 5.3597v5.3397l-0.19999 5.3197-0.39998 5.2797-0.61997 5.2397-0.79995 5.2197-0.99995 5.1397-1.1999 5.1197-1.3799 5.0397-1.5599 4.9997-1.7599 4.9198-1.9399 4.8398-2.1199 4.7798-2.2799 4.6998-2.4799 4.5998-2.6399 4.4998-2.8198 4.4198-2.9798 4.2998-3.1598 4.1998-3.2998 4.0798-3.4598 3.9598-3.6398 3.8398-3.7798 3.6998-3.9398 3.5798-4.0798 3.4398-4.2398 3.2798-4.3798 3.1398-4.5198 2.9798-4.6798 2.8198-6.2797 3.3998-6.3597 3.0598-6.4597 2.7198-6.5197 2.3399-6.5996 2.0199-6.6197 1.6799-6.6796 1.3199-6.6997 0.99995-6.7196 0.65997-6.7196 0.33998-6.6796 0.02-6.6996-0.31999-6.6397-0.61996-6.5996-0.93995-6.5397-1.2599-6.4597-1.5799-6.3997-1.8799-6.2797-2.1799-6.1997-2.4599-6.0597-2.7798-5.9397-3.0798-5.7997-3.3598-5.6397-3.6598-5.4797-3.9398-5.3197-4.1998-5.0997-4.4998-4.9197-4.7598-4.6798-5.0397-4.4798-5.2997-4.2398-5.5797-3.9798-5.8397-3.7198-6.0797c-0.04-0.06-0.06-0.15999-0.04-0.23999s0.08-0.15999 0.13999-0.19999l119.89-69.216c0.04-0.02 0.06-0.02 0.1-0.04z" clip-path="url(#a)" fill="#a37902" stroke="#a37902" stroke-linejoin="bevel" stroke-width=".15999px"/>
<path d="m117.04 148.47-36.069-6.3603c-1.4948 8.4795 0.04498 17.216 4.3495 24.674z" fill="#2d9449" fill-rule="evenodd"/>
<path d="m116.99 148.4 0.0291 0.1561-36.069-6.3602 0.09789-0.0688-0.13228 0.79635-0.11376 0.79371-0.09524 0.79371-0.07673 0.799-0.06085 0.79636-0.04498 0.79635-0.02381 0.79636-0.0079 0.79899 0.0079 0.79371 0.02646 0.79371 0.04498 0.79636 0.06085 0.79106 0.07672 0.78842 0.09789 0.79106 0.11112 0.78313 0.12964 0.78312 0.14551 0.78048 0.16403 0.77519 0.17991 0.77254 0.19578 0.76726 0.2143 0.76725 0.23018 0.75931 0.24605 0.75932 0.26457 0.74873 0.2778 0.74609 0.29896 0.73814 0.31219 0.73551 0.33071 0.72757 0.34394 0.72491 0.36246 0.71434 0.38098 0.7064 0.39156 0.70376-0.11641-0.0317zm-31.635 18.459c-0.01852 0.0106-0.04233 0.0159-0.0635 8e-3 -0.02117-5e-3 -0.03969-0.0185-0.05027-0.0397l-0.39686-0.70376-0.38098-0.71169-0.36246-0.71963-0.34923-0.72492-0.33071-0.73286-0.31219-0.73815-0.29896-0.74079-0.28309-0.75138-0.26457-0.75402-0.24605-0.75932-0.23018-0.76461-0.21695-0.76989-0.19843-0.7699-0.17991-0.77783-0.16403-0.78049-0.14551-0.78048-0.12964-0.78841-0.11112-0.78842-0.09789-0.79106-0.07673-0.79371-0.06085-0.79636-0.04762-0.79635-0.02646-0.799-0.0079-0.799 0.0079-0.799 0.02646-0.80165 0.04498-0.80164 0.06085-0.80165 0.07673-0.799 0.09524-0.799 0.11376-0.799 0.13228-0.79635c0.0026-0.0212 0.01587-0.0423 0.03439-0.0556 0.01852-0.0132 0.04233-0.0185 0.0635-0.0132l36.069 6.3602c0.0344 5e-3 0.0635 0.0344 0.0688 0.0688 5e-3 0.0344-0.0106 0.0688-0.0423 0.0873z" fill="#1e6c33" stroke="#1e6c33" stroke-linejoin="bevel" stroke-width=".042331px"/>
<path d="m117.04 148.47-23.541-28.055c-6.5957 5.5348-11.033 13.215-12.527 21.695z" fill="#e26001" fill-rule="evenodd"/>
<path d="m117.05 148.39-0.0794 0.13758-23.541-28.055 0.1217 0.0106-1.2117 1.0636-1.1562 1.1086-1.1033 1.1535-1.0503 1.1985-0.99743 1.2382-0.93922 1.2832-0.88102 1.3202-0.82016 1.3572-0.76725 1.389-0.70111 1.426-0.64026 1.4498-0.29632 0.73815-0.28044 0.74609-0.26457 0.74873-0.2487 0.75667-0.23282 0.76725-0.21695 0.76725-0.19843 0.77519-0.17991 0.78313-0.16668 0.78312-0.14816 0.79107-0.06879-0.0979zm-36.098-6.1936c-0.02381-5e-3 -0.04233-0.0159-0.05556-0.0344s-0.01852-0.0423-0.01323-0.0635l0.14816-0.79636 0.16668-0.78842 0.18255-0.78312 0.20107-0.78048 0.21695-0.77255 0.23282-0.76725 0.2487-0.76196 0.26986-0.75402 0.28044-0.74609 0.29632-0.74344 0.64555-1.4604 0.70376-1.4313 0.7699-1.3943 0.82546-1.3625 0.88631-1.3255 0.94451-1.2911 0.99743-1.2461 1.0556-1.2038 1.1085-1.1588 1.1615-1.1138 1.2117-1.0636c0.01852-0.0132 0.03968-0.0212 0.0635-0.0185 0.02117 0 0.04233 0.0106 0.05821 0.0291l23.541 28.055c0.0238 0.0265 0.0265 0.0661 8e-3 0.0953-0.0185 0.0317-0.0529 0.0476-0.0873 0.0423z" fill="#a64400" stroke="#a64400" stroke-linejoin="bevel" stroke-width=".042331px"/>
<path d="m117.04 148.47v-36.624c-8.6117 0-16.946 3.0346-23.541 8.5694z" fill="#3da7af" fill-rule="evenodd"/>
<path d="m117.1 148.42-0.1508 0.0529v-36.624l0.0873 0.0847-0.80694 8e-3 -0.80165 0.0265-0.80164 0.045-0.799 0.0609-0.79371 0.0794-0.79371 0.0979-0.78842 0.11377-0.78577 0.12964-0.78312 0.14816-0.77784 0.16403-0.77254 0.17991-0.7699 0.19578-0.76461 0.2143-0.75931 0.23282-0.75402 0.24605-0.74874 0.26457-0.74079 0.2778-0.73815 0.29632-0.72757 0.31219-0.72227 0.32807-1.426 0.70111-1.3969 0.7646-1.3625 0.82546-1.3281 0.88631-1.2937 0.94716-1.2541 1.0054 0.01323-0.11906zm-23.671-27.946c-0.01588-0.0185-0.02117-0.0397-0.01852-0.0635 0-0.0212 0.01323-0.0423 0.0291-0.0556l1.262-1.0106 1.299-0.95246 1.3334-0.89159 1.3678-0.83075 1.4022-0.76461 1.4313-0.7064 0.72756-0.32807 0.73286-0.31219 0.73815-0.29632 0.74608-0.28309 0.75403-0.26457 0.75402-0.24605 0.76461-0.23282 0.76725-0.21694 0.77254-0.19843 0.77784-0.17991 0.78312-0.16403 0.78313-0.14816 0.79106-0.12964 0.79371-0.11376 0.79371-0.0979 0.799-0.0794 0.80429-0.0608 0.80165-0.0476 0.80693-0.0265 0.80694-8e-3c0.0238 0 0.045 0.0106 0.0609 0.0265s0.0238 0.037 0.0238 0.0582v36.624c0 0.037-0.0212 0.0688-0.0556 0.082-0.0317 0.0106-0.0688 0-0.0926-0.0264z" fill="#2a7a80" stroke="#2a7a80" stroke-linejoin="bevel" stroke-width=".042331px"/>
<text x="120.32288" y="120.48273" fill="#000000" font-family="Arial" font-size="3.5057px" font-weight="400" letter-spacing="0px" stroke-width=".26458" word-spacing="0px" style="line-height:125%" xml:space="preserve"><tspan x="120.32288" y="120.48273" stroke-width=".26458"><tspan dx="0" dy="0" fill="#000000" font-family="Arial" font-size="3.5057px" font-weight="400" stroke-width=".26458">Greece:</tspan></tspan></text>
<text x="121.08484" y="124.54652" fill="#000000" font-family="Arial" font-size="3.5057px" font-weight="400" letter-spacing="0px" stroke-width=".26458" word-spacing="0px" style="line-height:125%" xml:space="preserve"><tspan x="121.08484" y="124.54652" stroke-width=".26458"><tspan dx="0" dy="0" fill="#000000" font-family="Arial" font-size="3.5057px" font-weight="400" stroke-width=".26458">1; 11%</tspan></tspan></text>
<text x="130.67638" y="137.41518" fill="#000000" font-family="Arial" font-size="3.5057px" font-weight="400" letter-spacing="0px" stroke-width=".26458" word-spacing="0px" style="line-height:125%" xml:space="preserve"><tspan x="130.67638" y="137.41518" stroke-width=".26458"><tspan dx="0" dy="0" fill="#000000" font-family="Arial" font-size="3.5057px" font-weight="400" stroke-width=".26458">Hong Kong:</tspan></tspan></text>
<text x="134.44385" y="141.47897" fill="#000000" font-family="Arial" font-size="3.5057px" font-weight="400" letter-spacing="0px" stroke-width=".26458" word-spacing="0px" style="line-height:125%" xml:space="preserve"><tspan x="134.44385" y="141.47897" stroke-width=".26458"><tspan dx="0" dy="0" fill="#000000" font-family="Arial" font-size="3.5057px" font-weight="400" stroke-width=".26458">1; 11%</tspan></tspan></text>
<text x="122.17839" y="166.25327" fill="#000000" font-family="Arial" font-size="3.5057px" font-weight="400" letter-spacing="0px" stroke-width=".26458" word-spacing="0px" style="line-height:125%" xml:space="preserve"><tspan x="122.17839" y="166.25327" stroke-width=".26458"><tspan dx="0" dy="0" fill="#000000" font-family="Arial" font-size="3.5057px" font-weight="400" stroke-width=".26458">Italy: 4; 45%</tspan></tspan></text>
<text x="82.212517" y="152.23108" fill="#000000" font-family="Arial" font-size="3.5057px" font-weight="400" letter-spacing="0px" stroke-width=".26458" word-spacing="0px" style="line-height:125%" xml:space="preserve"><tspan x="82.212517" y="152.23108" stroke-width=".26458"><tspan dx="0" dy="0" fill="#000000" font-family="Arial" font-size="3.5057px" font-weight="400" stroke-width=".26458">Russia:</tspan></tspan></text>
<text x="82.593491" y="156.29486" fill="#000000" font-family="Arial" font-size="3.5057px" font-weight="400" letter-spacing="0px" stroke-width=".26458" word-spacing="0px" style="line-height:125%" xml:space="preserve"><tspan x="82.593491" y="156.29486" stroke-width=".26458"><tspan dx="0" dy="0" fill="#000000" font-family="Arial" font-size="3.5057px" font-weight="400" stroke-width=".26458">1; 11%</tspan></tspan></text>
<text x="85.715416" y="135.56319" fill="#000000" font-family="Arial" font-size="3.5057px" font-weight="400" letter-spacing="0px" stroke-width=".26458" word-spacing="0px" style="line-height:125%" xml:space="preserve"><tspan x="85.715416" y="135.56319" stroke-width=".26458"><tspan dx="0" dy="0" fill="#000000" font-family="Arial" font-size="3.5057px" font-weight="400" stroke-width=".26458">Sardinia:</tspan></tspan></text>
<text x="87.112343" y="139.62698" fill="#000000" font-family="Arial" font-size="3.5057px" font-weight="400" letter-spacing="0px" stroke-width=".26458" word-spacing="0px" style="line-height:125%" xml:space="preserve"><tspan x="87.112343" y="139.62698" stroke-width=".26458"><tspan dx="0" dy="0" fill="#000000" font-family="Arial" font-size="3.5057px" font-weight="400" stroke-width=".26458">1; 11%</tspan></tspan></text>
<text x="97.113068" y="122.86385" fill="#000000" font-family="Arial" font-size="3.5057px" font-weight="400" letter-spacing="0px" stroke-width=".26458" word-spacing="0px" style="line-height:125%" xml:space="preserve"><tspan x="97.113068" y="122.86385" stroke-width=".26458"><tspan dx="0" dy="0" fill="#000000" font-family="Arial" font-size="3.5057px" font-weight="400" stroke-width=".26458">Switzerland:</tspan></tspan></text>
<text x="101.13453" y="126.92764" fill="#000000" font-family="Arial" font-size="3.5057px" font-weight="400" letter-spacing="0px" stroke-width=".26458" word-spacing="0px" style="line-height:125%" xml:space="preserve"><tspan x="101.13453" y="126.92764" stroke-width=".26458"><tspan dx="0" dy="0" fill="#000000" font-family="Arial" font-size="3.5057px" font-weight="400" stroke-width=".26458">1; 11%</tspan></tspan></text>
</g>
</svg>
