<?xml version="1.0" encoding="UTF-8"?>
<svg width="435.22" height="272.41" version="1.1" viewBox="0 0 115.15 72.075" xmlns="http://www.w3.org/2000/svg" xmlns:cc="http://creativecommons.org/ns#" xmlns:dc="http://purl.org/dc/elements/1.1/" xmlns:rdf="http://www.w3.org/1999/02/22-rdf-syntax-ns#">
<defs>
<clipPath id="a">
<path d="m211.51 0.63997h242.39v242.71h-242.39z"/>
</clipPath>
</defs>
<metadata>
<rdf:RDF>
<cc:Work rdf:about="">
<dc:format>image/svg+xml</dc:format>
<dc:type rdf:resource="http://purl.org/dc/dcmitype/StillImage"/>
<dc:title/>
</cc:Work>
</rdf:RDF>
</metadata>
<g transform="translate(-1.7612 -50.678)">
<path d="m50.876 52.107v63.92h63.878v-63.92z" fill="#e7e7e7" fill-rule="evenodd"/>
<path d="m61.628 52.107v63.92h-0.16933v-63.92zm10.625 0v63.92h-0.16932v-63.92zm10.667 0v63.92h-0.16932v-63.92zm10.625 0v63.92h-0.16932v-63.92zm10.667 0v63.92h-0.16933v-63.92zm10.625 0v63.92h-0.16932v-63.92z" fill="#898989" stroke="#898989" stroke-linejoin="bevel" stroke-width=".042331px"/>
<path transform="matrix(.26458 0 0 .26458 -5.0642 51.959)" d="m211.43 0.55997v34.398h201.27v-34.398z" clip-path="url(#a)" fill="#3975d8" fill-rule="evenodd"/>
<path transform="matrix(.26458 0 0 .26458 -5.0642 51.959)" d="m211.11 0.55997c0-0.15999 0.15999-0.31998 0.31998-0.31998h201.27c0.18 0 0.31999 0.15999 0.31999 0.31998v34.398c0 0.17999-0.13999 0.31998-0.31999 0.31998h-201.27c-0.15999 0-0.31998-0.13999-0.31998-0.31998zm0.63996 34.398-0.31998-0.31998h201.27l-0.31998 0.31998v-34.398l0.31998 0.31998h-201.27l0.31998-0.31998z" clip-path="url(#a)" fill="#27549e" stroke="#27549e" stroke-linejoin="bevel" stroke-width=".15999px"/>
<path transform="matrix(.26458 0 0 .26458 -5.0642 51.959)" d="m211.43 69.516v34.558h120.79v-34.558z" clip-path="url(#a)" fill="#dea603" fill-rule="evenodd"/>
<path transform="matrix(.26458 0 0 .26458 -5.0642 51.959)" d="m211.11 69.516c0-0.15999 0.15999-0.31998 0.31998-0.31998h120.79c0.18 0 0.31999 0.15999 0.31999 0.31998v34.558c0 0.18-0.13999 0.31999-0.31999 0.31999h-120.79c-0.15999 0-0.31998-0.13999-0.31998-0.31999zm0.63996 34.558-0.31998-0.31998h120.79l-0.31998 0.31998v-34.558l0.31998 0.31998h-120.79l0.31998-0.31998z" clip-path="url(#a)" fill="#a37902" stroke="#a37902" stroke-linejoin="bevel" stroke-width=".15999px"/>
<path transform="matrix(.26458 0 0 .26458 -5.0642 51.959)" d="m211.43 173.19v34.558h80.476v-34.558z" clip-path="url(#a)" fill="#3da7af" fill-rule="evenodd"/>
<path transform="matrix(.26458 0 0 .26458 -5.0642 51.959)" d="m211.11 173.19c0-0.16999 0.14999-0.31998 0.31998-0.31998h80.476c0.17999 0 0.31998 0.14999 0.31998 0.31998v34.558c0 0.17999-0.13999 0.31998-0.31998 0.31998h-80.476c-0.16999 0-0.31998-0.13999-0.31998-0.31998zm0.63996 34.558-0.31998-0.31998h80.476l-0.31998 0.31998v-34.558l0.31998 0.31999h-80.476l0.31998-0.31999z" clip-path="url(#a)" fill="#2a7a80" stroke="#2a7a80" stroke-linejoin="bevel" stroke-width=".15999px"/>
<path d="m50.876 115.94h63.878v0.16933h-63.878z" fill="#898989" stroke="#898989" stroke-linejoin="bevel" stroke-width=".042331px"/>
<path d="m50.961 116.03v1.1006h-0.16932v-1.1006zm10.667 0v1.1006h-0.16933v-1.1006zm10.625 0v1.1006h-0.16932v-1.1006zm10.667 0v1.1006h-0.16932v-1.1006zm10.625 0v1.1006h-0.16932v-1.1006zm10.667 0v1.1006h-0.16933v-1.1006zm10.625 0v1.1006h-0.16932v-1.1006z" fill="#898989" stroke="#898989" stroke-linejoin="bevel" stroke-width=".042331px"/>
<path d="m50.961 52.107v63.92h-0.16932v-63.92z" fill="#898989" stroke="#898989" stroke-linejoin="bevel" stroke-width=".042331px"/>
<path d="m49.818 52.023h1.0583v0.16932h-1.0583zm0 9.1012h1.0583v0.16932h-1.0583zm0 9.1435h1.0583v0.16932h-1.0583zm0 9.1435h1.0583v0.16933h-1.0583zm0 9.1435h1.0583v0.16932h-1.0583zm0 9.1435h1.0583v0.16933h-1.0583zm0 9.1435h1.0583v0.16932h-1.0583zm0 9.1012h1.0583v0.16933h-1.0583z" fill="#898989" stroke="#898989" stroke-linejoin="bevel" stroke-width=".042331px"/>
<text x="100.06726" y="57.971527" fill="#000000" font-family="Arial" font-size="3.5057px" font-weight="400" letter-spacing="0px" stroke-width=".26458" word-spacing="0px" style="line-height:125%" xml:space="preserve"><tspan x="100.06726" y="57.971527" stroke-width=".26458"><tspan dx="0" dy="0" fill="#000000" font-family="Arial" font-size="3.5057px" font-weight="400" stroke-width=".26458">5</tspan></tspan></text>
<text x="53.040848" y="67.107414" fill="#000000" font-family="Arial" font-size="3.5057px" font-weight="400" letter-spacing="0px" stroke-width=".26458" word-spacing="0px" style="line-height:125%" xml:space="preserve"><tspan x="53.040848" y="67.107414" stroke-width=".26458"><tspan dx="0" dy="0" fill="#000000" font-family="Arial" font-size="3.5057px" font-weight="400" stroke-width=".26458">0</tspan></tspan></text>
<text x="78.778931" y="76.243279" fill="#000000" font-family="Arial" font-size="3.5057px" font-weight="400" letter-spacing="0px" stroke-width=".26458" word-spacing="0px" style="line-height:125%" xml:space="preserve"><tspan x="78.778931" y="76.243279" stroke-width=".26458"><tspan dx="0" dy="0" fill="#000000" font-family="Arial" font-size="3.5057px" font-weight="400" stroke-width=".26458">3</tspan></tspan></text>
<text x="53.040848" y="85.379158" fill="#000000" font-family="Arial" font-size="3.5057px" font-weight="400" letter-spacing="0px" stroke-width=".26458" word-spacing="0px" style="line-height:125%" xml:space="preserve"><tspan x="53.040848" y="85.379158" stroke-width=".26458"><tspan dx="0" dy="0" fill="#000000" font-family="Arial" font-size="3.5057px" font-weight="400" stroke-width=".26458">0</tspan></tspan></text>
<text x="53.040848" y="94.515045" fill="#000000" font-family="Arial" font-size="3.5057px" font-weight="400" letter-spacing="0px" stroke-width=".26458" word-spacing="0px" style="line-height:125%" xml:space="preserve"><tspan x="53.040848" y="94.515045" stroke-width=".26458"><tspan dx="0" dy="0" fill="#000000" font-family="Arial" font-size="3.5057px" font-weight="400" stroke-width=".26458">0</tspan></tspan></text>
<text x="68.134727" y="103.65093" fill="#000000" font-family="Arial" font-size="3.5057px" font-weight="400" letter-spacing="0px" stroke-width=".26458" word-spacing="0px" style="line-height:125%" xml:space="preserve"><tspan x="68.134727" y="103.65093" stroke-width=".26458"><tspan dx="0" dy="0" fill="#000000" font-family="Arial" font-size="3.5057px" font-weight="400" stroke-width=".26458">2</tspan></tspan></text>
<text x="53.040848" y="112.7868" fill="#000000" font-family="Arial" font-size="3.5057px" font-weight="400" letter-spacing="0px" stroke-width=".26458" word-spacing="0px" style="line-height:125%" xml:space="preserve"><tspan x="53.040848" y="112.7868" stroke-width=".26458"><tspan dx="0" dy="0" fill="#000000" font-family="Arial" font-size="3.5057px" font-weight="400" stroke-width=".26458">0</tspan></tspan></text>
<text x="49.936565" y="121.38562" fill="#000000" font-family="Arial" font-size="3.5057px" font-weight="400" letter-spacing="0px" stroke-width=".26458" word-spacing="0px" style="line-height:125%" xml:space="preserve"><tspan x="49.936565" y="121.38562" stroke-width=".26458"><tspan dx="0" dy="0" fill="#000000" font-family="Arial" font-size="3.5057px" font-weight="400" stroke-width=".26458">0</tspan></tspan></text>
<text x="60.580734" y="121.38562" fill="#000000" font-family="Arial" font-size="3.5057px" font-weight="400" letter-spacing="0px" stroke-width=".26458" word-spacing="0px" style="line-height:125%" xml:space="preserve"><tspan x="60.580734" y="121.38562" stroke-width=".26458"><tspan dx="0" dy="0" fill="#000000" font-family="Arial" font-size="3.5057px" font-weight="400" stroke-width=".26458">1</tspan></tspan></text>
<text x="71.224907" y="121.38562" fill="#000000" font-family="Arial" font-size="3.5057px" font-weight="400" letter-spacing="0px" stroke-width=".26458" word-spacing="0px" style="line-height:125%" xml:space="preserve"><tspan x="71.224907" y="121.38562" stroke-width=".26458"><tspan dx="0" dy="0" fill="#000000" font-family="Arial" font-size="3.5057px" font-weight="400" stroke-width=".26458">2</tspan></tspan></text>
<text x="81.869102" y="121.38562" fill="#000000" font-family="Arial" font-size="3.5057px" font-weight="400" letter-spacing="0px" stroke-width=".26458" word-spacing="0px" style="line-height:125%" xml:space="preserve"><tspan x="81.869102" y="121.38562" stroke-width=".26458"><tspan dx="0" dy="0" fill="#000000" font-family="Arial" font-size="3.5057px" font-weight="400" stroke-width=".26458">3</tspan></tspan></text>
<text x="92.513275" y="121.38562" fill="#000000" font-family="Arial" font-size="3.5057px" font-weight="400" letter-spacing="0px" stroke-width=".26458" word-spacing="0px" style="line-height:125%" xml:space="preserve"><tspan x="92.513275" y="121.38562" stroke-width=".26458"><tspan dx="0" dy="0" fill="#000000" font-family="Arial" font-size="3.5057px" font-weight="400" stroke-width=".26458">4</tspan></tspan></text>
<text x="103.15744" y="121.38562" fill="#000000" font-family="Arial" font-size="3.5057px" font-weight="400" letter-spacing="0px" stroke-width=".26458" word-spacing="0px" style="line-height:125%" xml:space="preserve"><tspan x="103.15744" y="121.38562" stroke-width=".26458"><tspan dx="0" dy="0" fill="#000000" font-family="Arial" font-size="3.5057px" font-weight="400" stroke-width=".26458">5</tspan></tspan></text>
<text x="113.80161" y="121.38562" fill="#000000" font-family="Arial" font-size="3.5057px" font-weight="400" letter-spacing="0px" stroke-width=".26458" word-spacing="0px" style="line-height:125%" xml:space="preserve"><tspan x="113.80161" y="121.38562" stroke-width=".26458"><tspan dx="0" dy="0" fill="#000000" font-family="Arial" font-size="3.5057px" font-weight="400" stroke-width=".26458">6</tspan></tspan></text>
<text x="47.293411" y="57.798676" fill="#000000" font-family="Arial" font-size="3.5057px" font-weight="400" letter-spacing="0px" stroke-width=".26458" text-align="end" text-anchor="end" word-spacing="0px" style="line-height:125%" xml:space="preserve"><tspan x="47.293411" y="57.798676" stroke-width=".26458" text-align="end" text-anchor="end"><tspan dx="0" dy="0" fill="#000000" font-family="Arial" font-size="3.5057px" font-weight="400" stroke-width=".26458" text-align="end" text-anchor="end">I like the lore</tspan></tspan></text>
<text x="47.270016" y="66.934563" fill="#000000" font-family="Arial" font-size="3.5057px" font-weight="400" letter-spacing="0px" stroke-width=".26458" text-align="end" text-anchor="end" word-spacing="0px" style="line-height:125%" xml:space="preserve"><tspan x="47.270016" y="66.934563" stroke-width=".26458" text-align="end" text-anchor="end"><tspan dx="0" dy="0" fill="#000000" font-family="Arial" font-size="3.5057px" font-weight="400" stroke-width=".26458" text-align="end" text-anchor="end">I dislike the lore</tspan></tspan></text>
<text x="47.210342" y="76.07045" fill="#000000" font-family="Arial" font-size="3.5057px" font-weight="400" letter-spacing="0px" stroke-width=".26458" text-align="end" text-anchor="end" word-spacing="0px" style="line-height:125%" xml:space="preserve"><tspan x="47.210342" y="76.07045" stroke-width=".26458" text-align="end" text-anchor="end"><tspan dx="0" dy="0" fill="#000000" font-family="Arial" font-size="3.5057px" font-weight="400" stroke-width=".26458" text-align="end" text-anchor="end">I do not know the lore</tspan></tspan></text>
<text x="47.34095" y="85.206306" fill="#000000" font-family="Arial" font-size="3.5057px" font-weight="400" letter-spacing="0px" stroke-width=".26458" text-align="end" text-anchor="end" word-spacing="0px" style="line-height:125%" xml:space="preserve"><tspan x="47.34095" y="85.206306" stroke-width=".26458" text-align="end" text-anchor="end"><tspan dx="0" dy="0" fill="#000000" font-family="Arial" font-size="3.5057px" font-weight="400" stroke-width=".26458" text-align="end" text-anchor="end">I think it is too strict</tspan></tspan></text>
<text x="47.057423" y="94.342194" fill="#000000" font-family="Arial" font-size="3.5057px" font-weight="400" letter-spacing="0px" stroke-width=".26458" text-align="end" text-anchor="end" word-spacing="0px" style="line-height:125%" xml:space="preserve"><tspan x="47.057423" y="94.342194" stroke-width=".26458" text-align="end" text-anchor="end"><tspan dx="0" dy="0" fill="#000000" font-family="Arial" font-size="3.5057px" font-weight="400" stroke-width=".26458" text-align="end" text-anchor="end">I think it is not strict enough</tspan></tspan></text>
<text x="47.114204" y="101.44972" fill="#000000" font-family="Arial" font-size="3.5057px" font-weight="400" letter-spacing="0px" stroke-width=".26458" text-align="end" text-anchor="end" word-spacing="0px" style="line-height:125%" xml:space="preserve"><tspan x="47.114204" y="101.44972" text-align="end"><tspan dx="0" dy="0" fill="#000000" font-family="Arial" font-size="3.5057px" font-weight="400" stroke-width=".26458" text-align="end" text-anchor="end">I wish my branch had</tspan></tspan><tspan x="47.114204" y="105.83189" text-align="end"><tspan fill="#000000" font-family="Arial" font-size="3.5057px" font-weight="400" stroke-width=".26458" text-align="end" text-anchor="end">an own lore like that</tspan></tspan></text>
<text x="47.010113" y="110.5856" fill="#000000" font-family="Arial" font-size="3.5057px" font-weight="400" letter-spacing="0px" stroke-width=".26458" text-align="end" text-anchor="end" word-spacing="0px" style="line-height:125%" xml:space="preserve"><tspan x="47.010109" y="110.5856" text-align="end"><tspan dx="0" dy="0" fill="#000000" font-family="Arial" font-size="3.5057px" font-weight="400" stroke-width=".26458" text-align="end" text-anchor="end">I am glad my branch has no </tspan></tspan><tspan x="47.010113" y="114.96777" text-align="end"><tspan fill="#000000" font-family="Arial" font-size="3.5057px" font-weight="400" stroke-width=".26458" text-align="end" text-anchor="end">such lore / wish it hadn't</tspan></tspan></text>
</g>
</svg>
