<?xml version="1.0" encoding="UTF-8"?>
<svg width="505.08" height="514.78" version="1.1" viewBox="0 0 133.64 136.2" xmlns="http://www.w3.org/2000/svg" xmlns:cc="http://creativecommons.org/ns#" xmlns:dc="http://purl.org/dc/elements/1.1/" xmlns:rdf="http://www.w3.org/1999/02/22-rdf-syntax-ns#">
<defs>
<clipPath id="a">
<path d="m263.67 0.47998h270.23v485.09h-270.23z"/>
</clipPath>
</defs>
<metadata>
<rdf:RDF>
<cc:Work rdf:about="">
<dc:format>image/svg+xml</dc:format>
<dc:type rdf:resource="http://purl.org/dc/dcmitype/StillImage"/>
<dc:title/>
</cc:Work>
</rdf:RDF>
</metadata>
<g transform="translate(-60.829 -24.949)">
<path d="m121.09 26.378v128.09h71.201v-128.09z" fill="#e7e7e7" fill-rule="evenodd"/>
<path d="m129.09 26.378v128.09h-0.16933v-128.09zm7.9159 0v128.09h-0.16932v-128.09zm7.8736 0v128.09h-0.16932v-128.09zm7.9159 0v128.09h-0.16933v-128.09zm7.9159 0v128.09h-0.16933v-128.09zm7.9159 0v128.09h-0.16933v-128.09zm7.9159 0v128.09h-0.16933v-128.09zm7.9159 0v128.09h-0.16932v-128.09zm7.9159 0v128.09h-0.16932v-128.09z" fill="#898989" stroke="#898989" stroke-linejoin="bevel" stroke-width=".042331px"/>
<path d="m121.09 26.378v9.8208h7.9159v-9.8208z" fill="#356dca" fill-rule="evenodd"/>
<path transform="matrix(.26458 0 0 .26458 51.304 26.23)" d="m263.43 0.55997c0-0.16999 0.14999-0.31998 0.31998-0.31998h29.918c0.17999 0 0.31998 0.14999 0.31998 0.31998v37.118c0 0.17999-0.13999 0.31998-0.31998 0.31998h-29.918c-0.16999 0-0.31998-0.13999-0.31998-0.31998zm0.63996 37.118-0.31998-0.31998h29.918l-0.31999 0.31998v-37.118l0.31999 0.31998h-29.918l0.31998-0.31998z" clip-path="url(#a)" fill="#244e94" stroke="#244e94" stroke-linejoin="bevel" stroke-width=".15999px"/>
<path d="m121.09 36.199v9.8632h15.832v-9.8632z" fill="#c1362a" fill-rule="evenodd"/>
<path transform="matrix(.26458 0 0 .26458 51.304 26.23)" d="m263.43 37.678c0-0.15999 0.15999-0.31998 0.31998-0.31998h59.837c0.17999 0 0.31999 0.15999 0.31999 0.31998v37.278c0 0.17999-0.14 0.31998-0.31999 0.31998h-59.837c-0.15999 0-0.31998-0.13999-0.31998-0.31998zm0.63996 37.278-0.31998-0.31998h59.837l-0.31998 0.31998v-37.278l0.31998 0.31998h-59.837l0.31998-0.31998z" clip-path="url(#a)" fill="#8d251c" stroke="#8d251c" stroke-linejoin="bevel" stroke-width=".15999px"/>
<path d="m121.09 55.925v9.8632h63.285v-9.8632z" fill="#298a43" fill-rule="evenodd"/>
<path transform="matrix(.26458 0 0 .26458 51.304 26.23)" d="m263.43 112.23c0-0.15999 0.15999-0.31998 0.31998-0.31998h239.19c0.17999 0 0.31998 0.15999 0.31998 0.31998v37.278c0 0.18-0.13999 0.31999-0.31998 0.31999h-239.19c-0.15999 0-0.31998-0.13999-0.31998-0.31999zm0.63996 37.278-0.31998-0.31998h239.19l-0.31999 0.31998v-37.278l0.31999 0.31998h-239.19l0.31998-0.31998z" clip-path="url(#a)" fill="#1b642f" stroke="#1b642f" stroke-linejoin="bevel" stroke-width=".15999px"/>
<path d="m121.09 65.788v9.8632h7.9159v-9.8632z" fill="#d35901" fill-rule="evenodd"/>
<path transform="matrix(.26458 0 0 .26458 51.304 26.23)" d="m263.43 149.51c0-0.16999 0.14999-0.31998 0.31998-0.31998h29.918c0.17999 0 0.31998 0.14999 0.31998 0.31998v37.278c0 0.17999-0.13999 0.31998-0.31998 0.31998h-29.918c-0.16999 0-0.31998-0.13999-0.31998-0.31998zm0.63996 37.278-0.31998-0.31999h29.918l-0.31999 0.31999v-37.278l0.31999 0.31999h-29.918l0.31998-0.31999z" clip-path="url(#a)" fill="#9a3f00" stroke="#9a3f00" stroke-linejoin="bevel" stroke-width=".15999px"/>
<path d="m121.09 75.651v9.8208h23.705v-9.8208z" fill="#389ca3" fill-rule="evenodd"/>
<path transform="matrix(.26458 0 0 .26458 51.304 26.23)" d="m263.43 186.79c0-0.15999 0.15999-0.31999 0.31998-0.31999h89.595c0.17999 0 0.31998 0.16 0.31998 0.31999v37.118c0 0.17999-0.13999 0.31998-0.31998 0.31998h-89.595c-0.15999 0-0.31998-0.13999-0.31998-0.31998zm0.63996 37.118-0.31998-0.31998h89.595l-0.31999 0.31998v-37.118l0.31999 0.31998h-89.595l0.31998-0.31998z" clip-path="url(#a)" fill="#277177" stroke="#277177" stroke-linejoin="bevel" stroke-width=".15999px"/>
<path d="m121.09 95.335v9.8631h15.832v-9.8631z" fill="#ea4335" fill-rule="evenodd"/>
<path transform="matrix(.26458 0 0 .26458 51.304 26.23)" d="m263.43 261.19c0-0.15999 0.15999-0.31998 0.31998-0.31998h59.837c0.17999 0 0.31999 0.15999 0.31999 0.31998v37.278c0 0.17999-0.14 0.31998-0.31999 0.31998h-59.837c-0.15999 0-0.31998-0.13999-0.31998-0.31998zm0.63996 37.278-0.31998-0.31999h59.837l-0.31998 0.31999v-37.278l0.31998 0.31999h-59.837l0.31998-0.31999z" clip-path="url(#a)" fill="#ac2f24" stroke="#ac2f24" stroke-linejoin="bevel" stroke-width=".15999px"/>
<path d="m121.09 105.2v9.8632h55.369v-9.8632z" fill="#fbbc04" fill-rule="evenodd"/>
<path transform="matrix(.26458 0 0 .26458 51.304 26.23)" d="m263.43 298.46c0-0.15999 0.15999-0.31999 0.31998-0.31999h209.27c0.17999 0 0.31999 0.16 0.31999 0.31999v37.278c0 0.17999-0.14 0.31999-0.31999 0.31999h-209.27c-0.15999 0-0.31998-0.14-0.31998-0.31999zm0.63996 37.278-0.31998-0.31998h209.27l-0.31998 0.31998v-37.278l0.31998 0.31998h-209.27l0.31998-0.31998z" clip-path="url(#a)" fill="#b98902" stroke="#b98902" stroke-linejoin="bevel" stroke-width=".15999px"/>
<path d="m121.09 134.75v9.8632h7.9159v-9.8632z" fill="#46bdc6" fill-rule="evenodd"/>
<path transform="matrix(.26458 0 0 .26458 51.304 26.23)" d="m263.43 410.14c0-0.15999 0.15999-0.31999 0.31998-0.31999h29.918c0.17999 0 0.31998 0.16 0.31998 0.31999v37.278c0 0.17999-0.13999 0.31998-0.31998 0.31998h-29.918c-0.15999 0-0.31998-0.13999-0.31998-0.31998zm0.63996 37.278-0.31998-0.31998h29.918l-0.31999 0.31998v-37.278l0.31999 0.31998h-29.918l0.31998-0.31998z" clip-path="url(#a)" fill="#318a91" stroke="#318a91" stroke-linejoin="bevel" stroke-width=".15999px"/>
<path d="m121.09 154.39h71.201v0.16933h-71.201z" fill="#898989" stroke="#898989" stroke-linejoin="bevel" stroke-width=".042331px"/>
<path d="m121.17 154.47v1.0583h-0.16933v-1.0583zm7.9159 0v1.0583h-0.16933v-1.0583zm7.9159 0v1.0583h-0.16932v-1.0583zm7.8736 0v1.0583h-0.16932v-1.0583zm7.9159 0v1.0583h-0.16933v-1.0583zm7.9159 0v1.0583h-0.16933v-1.0583zm7.9159 0v1.0583h-0.16933v-1.0583zm7.9159 0v1.0583h-0.16933v-1.0583zm7.9159 0v1.0583h-0.16932v-1.0583zm7.9159 0v1.0583h-0.16932v-1.0583z" fill="#898989" stroke="#898989" stroke-linejoin="bevel" stroke-width=".042331px"/>
<path d="m121.17 26.378v128.09h-0.16933v-128.09z" fill="#898989" stroke="#898989" stroke-linejoin="bevel" stroke-width=".042331px"/>
<path d="m119.99 26.293h1.1006v0.16932h-1.1006zm0 9.8208h1.1006v0.16932h-1.1006zm0 9.8632h1.1006v0.16932h-1.1006zm0 9.8632h1.1006v0.16932h-1.1006zm0 9.8632h1.1006v0.16933h-1.1006zm0 9.8632h1.1006v0.16932h-1.1006zm0 9.8208h1.1006v0.16933h-1.1006zm0 9.8632h1.1006v0.16932h-1.1006zm0 9.8631h1.1006v0.16933h-1.1006zm0 9.8632h1.1006v0.16932h-1.1006zm0 9.8632h1.1006v0.16933h-1.1006zm0 9.8208h1.1006v0.16933h-1.1006zm0 9.8632h1.1006v0.16932h-1.1006zm0 9.8632h1.1006v0.16933h-1.1006z" fill="#898989" stroke="#898989" stroke-linejoin="bevel" stroke-width=".042331px"/>
<text x="124.94599" y="32.569897" fill="#000000" font-family="Arial" font-size="3.5057px" font-weight="400" letter-spacing="0px" stroke-width=".26458" word-spacing="0px" style="line-height:125%" xml:space="preserve"><tspan x="124.94599" y="32.569897" stroke-width=".26458"><tspan dx="0" dy="0" fill="#000000" font-family="Arial" font-size="3.5057px" font-weight="400" stroke-width=".26458">1</tspan></tspan></text>
<text x="132.85973" y="42.424473" fill="#000000" font-family="Arial" font-size="3.5057px" font-weight="400" letter-spacing="0px" stroke-width=".26458" word-spacing="0px" style="line-height:125%" xml:space="preserve"><tspan x="132.85973" y="42.424473" stroke-width=".26458"><tspan dx="0" dy="0" fill="#000000" font-family="Arial" font-size="3.5057px" font-weight="400" stroke-width=".26458">2</tspan></tspan></text>
<text x="123.22672" y="52.279026" fill="#000000" font-family="Arial" font-size="3.5057px" font-weight="400" letter-spacing="0px" stroke-width=".26458" word-spacing="0px" style="line-height:125%" xml:space="preserve"><tspan x="123.22672" y="52.279026" stroke-width=".26458"><tspan dx="0" dy="0" fill="#000000" font-family="Arial" font-size="3.5057px" font-weight="400" stroke-width=".26458">0</tspan></tspan></text>
<text x="180.34215" y="62.133579" fill="#000000" font-family="Arial" font-size="3.5057px" font-weight="400" letter-spacing="0px" stroke-width=".26458" word-spacing="0px" style="line-height:125%" xml:space="preserve"><tspan x="180.34215" y="62.133579" stroke-width=".26458"><tspan dx="0" dy="0" fill="#000000" font-family="Arial" font-size="3.5057px" font-weight="400" stroke-width=".26458">8</tspan></tspan></text>
<text x="124.94599" y="71.988159" fill="#000000" font-family="Arial" font-size="3.5057px" font-weight="400" letter-spacing="0px" stroke-width=".26458" word-spacing="0px" style="line-height:125%" xml:space="preserve"><tspan x="124.94599" y="71.988159" stroke-width=".26458"><tspan dx="0" dy="0" fill="#000000" font-family="Arial" font-size="3.5057px" font-weight="400" stroke-width=".26458">1</tspan></tspan></text>
<text x="140.77348" y="81.842705" fill="#000000" font-family="Arial" font-size="3.5057px" font-weight="400" letter-spacing="0px" stroke-width=".26458" word-spacing="0px" style="line-height:125%" xml:space="preserve"><tspan x="140.77348" y="81.842705" stroke-width=".26458"><tspan dx="0" dy="0" fill="#000000" font-family="Arial" font-size="3.5057px" font-weight="400" stroke-width=".26458">3</tspan></tspan></text>
<text x="123.22672" y="91.697273" fill="#000000" font-family="Arial" font-size="3.5057px" font-weight="400" letter-spacing="0px" stroke-width=".26458" word-spacing="0px" style="line-height:125%" xml:space="preserve"><tspan x="123.22672" y="91.697273" stroke-width=".26458"><tspan dx="0" dy="0" fill="#000000" font-family="Arial" font-size="3.5057px" font-weight="400" stroke-width=".26458">0</tspan></tspan></text>
<text x="132.85973" y="101.55186" fill="#000000" font-family="Arial" font-size="3.5057px" font-weight="400" letter-spacing="0px" stroke-width=".26458" word-spacing="0px" style="line-height:125%" xml:space="preserve"><tspan x="132.85973" y="101.55186" stroke-width=".26458"><tspan dx="0" dy="0" fill="#000000" font-family="Arial" font-size="3.5057px" font-weight="400" stroke-width=".26458">2</tspan></tspan></text>
<text x="172.42842" y="111.40643" fill="#000000" font-family="Arial" font-size="3.5057px" font-weight="400" letter-spacing="0px" stroke-width=".26458" word-spacing="0px" style="line-height:125%" xml:space="preserve"><tspan x="172.42842" y="111.40643" stroke-width=".26458"><tspan dx="0" dy="0" fill="#000000" font-family="Arial" font-size="3.5057px" font-weight="400" stroke-width=".26458">7</tspan></tspan></text>
<text x="123.22672" y="121.26096" fill="#000000" font-family="Arial" font-size="3.5057px" font-weight="400" letter-spacing="0px" stroke-width=".26458" word-spacing="0px" style="line-height:125%" xml:space="preserve"><tspan x="123.22672" y="121.26096" stroke-width=".26458"><tspan dx="0" dy="0" fill="#000000" font-family="Arial" font-size="3.5057px" font-weight="400" stroke-width=".26458">0</tspan></tspan></text>
<text x="123.22672" y="131.11552" fill="#000000" font-family="Arial" font-size="3.5057px" font-weight="400" letter-spacing="0px" stroke-width=".26458" word-spacing="0px" style="line-height:125%" xml:space="preserve"><tspan x="123.22672" y="131.11552" stroke-width=".26458"><tspan dx="0" dy="0" fill="#000000" font-family="Arial" font-size="3.5057px" font-weight="400" stroke-width=".26458">0</tspan></tspan></text>
<text x="124.94599" y="140.97009" fill="#000000" font-family="Arial" font-size="3.5057px" font-weight="400" letter-spacing="0px" stroke-width=".26458" word-spacing="0px" style="line-height:125%" xml:space="preserve"><tspan x="124.94599" y="140.97009" stroke-width=".26458"><tspan dx="0" dy="0" fill="#000000" font-family="Arial" font-size="3.5057px" font-weight="400" stroke-width=".26458">1</tspan></tspan></text>
<text x="123.22672" y="150.82465" fill="#000000" font-family="Arial" font-size="3.5057px" font-weight="400" letter-spacing="0px" stroke-width=".26458" word-spacing="0px" style="line-height:125%" xml:space="preserve"><tspan x="123.22672" y="150.82465" stroke-width=".26458"><tspan dx="0" dy="0" fill="#000000" font-family="Arial" font-size="3.5057px" font-weight="400" stroke-width=".26458">0</tspan></tspan></text>
<text x="120.12244" y="159.78281" fill="#000000" font-family="Arial" font-size="3.5057px" font-weight="400" letter-spacing="0px" stroke-width=".26458" word-spacing="0px" style="line-height:125%" xml:space="preserve"><tspan x="120.12244" y="159.78281" stroke-width=".26458"><tspan dx="0" dy="0" fill="#000000" font-family="Arial" font-size="3.5057px" font-weight="400" stroke-width=".26458">0</tspan></tspan></text>
<text x="128.03616" y="159.78281" fill="#000000" font-family="Arial" font-size="3.5057px" font-weight="400" letter-spacing="0px" stroke-width=".26458" word-spacing="0px" style="line-height:125%" xml:space="preserve"><tspan x="128.03616" y="159.78281" stroke-width=".26458"><tspan dx="0" dy="0" fill="#000000" font-family="Arial" font-size="3.5057px" font-weight="400" stroke-width=".26458">1</tspan></tspan></text>
<text x="135.94991" y="159.78281" fill="#000000" font-family="Arial" font-size="3.5057px" font-weight="400" letter-spacing="0px" stroke-width=".26458" word-spacing="0px" style="line-height:125%" xml:space="preserve"><tspan x="135.94991" y="159.78281" stroke-width=".26458"><tspan dx="0" dy="0" fill="#000000" font-family="Arial" font-size="3.5057px" font-weight="400" stroke-width=".26458">2</tspan></tspan></text>
<text x="143.86365" y="159.78281" fill="#000000" font-family="Arial" font-size="3.5057px" font-weight="400" letter-spacing="0px" stroke-width=".26458" word-spacing="0px" style="line-height:125%" xml:space="preserve"><tspan x="143.86365" y="159.78281" stroke-width=".26458"><tspan dx="0" dy="0" fill="#000000" font-family="Arial" font-size="3.5057px" font-weight="400" stroke-width=".26458">3</tspan></tspan></text>
<text x="151.77737" y="159.78281" fill="#000000" font-family="Arial" font-size="3.5057px" font-weight="400" letter-spacing="0px" stroke-width=".26458" word-spacing="0px" style="line-height:125%" xml:space="preserve"><tspan x="151.77737" y="159.78281" stroke-width=".26458"><tspan dx="0" dy="0" fill="#000000" font-family="Arial" font-size="3.5057px" font-weight="400" stroke-width=".26458">4</tspan></tspan></text>
<text x="159.69112" y="159.78281" fill="#000000" font-family="Arial" font-size="3.5057px" font-weight="400" letter-spacing="0px" stroke-width=".26458" word-spacing="0px" style="line-height:125%" xml:space="preserve"><tspan x="159.69112" y="159.78281" stroke-width=".26458"><tspan dx="0" dy="0" fill="#000000" font-family="Arial" font-size="3.5057px" font-weight="400" stroke-width=".26458">5</tspan></tspan></text>
<text x="167.60483" y="159.78281" fill="#000000" font-family="Arial" font-size="3.5057px" font-weight="400" letter-spacing="0px" stroke-width=".26458" word-spacing="0px" style="line-height:125%" xml:space="preserve"><tspan x="167.60483" y="159.78281" stroke-width=".26458"><tspan dx="0" dy="0" fill="#000000" font-family="Arial" font-size="3.5057px" font-weight="400" stroke-width=".26458">6</tspan></tspan></text>
<text x="175.5186" y="159.78281" fill="#000000" font-family="Arial" font-size="3.5057px" font-weight="400" letter-spacing="0px" stroke-width=".26458" word-spacing="0px" style="line-height:125%" xml:space="preserve"><tspan x="175.5186" y="159.78281" stroke-width=".26458"><tspan dx="0" dy="0" fill="#000000" font-family="Arial" font-size="3.5057px" font-weight="400" stroke-width=".26458">7</tspan></tspan></text>
<text x="183.43231" y="159.78281" fill="#000000" font-family="Arial" font-size="3.5057px" font-weight="400" letter-spacing="0px" stroke-width=".26458" word-spacing="0px" style="line-height:125%" xml:space="preserve"><tspan x="183.43231" y="159.78281" stroke-width=".26458"><tspan dx="0" dy="0" fill="#000000" font-family="Arial" font-size="3.5057px" font-weight="400" stroke-width=".26458">8</tspan></tspan></text>
<text x="191.34605" y="159.78281" fill="#000000" font-family="Arial" font-size="3.5057px" font-weight="400" letter-spacing="0px" stroke-width=".26458" word-spacing="0px" style="line-height:125%" xml:space="preserve"><tspan x="191.34605" y="159.78281" stroke-width=".26458"><tspan dx="0" dy="0" fill="#000000" font-family="Arial" font-size="3.5057px" font-weight="400" stroke-width=".26458">9</tspan></tspan></text>
<text x="117.31881" y="32.397038" fill="#000000" font-family="Arial" font-size="3.5057px" font-weight="400" letter-spacing="0px" stroke-width=".26458" text-align="end" text-anchor="end" word-spacing="0px" style="line-height:120%" xml:space="preserve"><tspan x="117.31881" y="32.397038" stroke-width=".26458" text-align="end" text-anchor="end"><tspan dx="0" dy="0" fill="#000000" font-family="Arial" font-size="3.5057px" font-weight="400" stroke-width=".26458" text-align="end" text-anchor="end">Reading articles in German</tspan></tspan></text>
<text x="117.37284" y="42.251606" fill="#000000" font-family="Arial" font-size="3.5057px" font-weight="400" letter-spacing="0px" stroke-width=".26458" text-align="end" text-anchor="end" word-spacing="0px" style="line-height:120%" xml:space="preserve"><tspan x="117.37284" y="42.251606" stroke-width=".26458" text-align="end" text-anchor="end"><tspan dx="0" dy="0" fill="#000000" font-family="Arial" font-size="3.5057px" font-weight="400" stroke-width=".26458" text-align="end" text-anchor="end">Voting on articles in German</tspan></tspan></text>
<text x="117.35371" y="52.106174" fill="#000000" font-family="Arial" font-size="3.5057px" font-weight="400" letter-spacing="0px" stroke-width=".26458" text-align="end" text-anchor="end" word-spacing="0px" style="line-height:120%" xml:space="preserve"><tspan x="117.35371" y="52.106174" stroke-width=".26458" text-align="end" text-anchor="end"><tspan dx="0" dy="0" fill="#000000" font-family="Arial" font-size="3.5057px" font-weight="400" stroke-width=".26458" text-align="end" text-anchor="end">Commenting on articles in German</tspan></tspan></text>
<text x="117.19097" y="59.932354" fill="#000000" font-family="Arial" font-size="3.5057px" font-weight="400" letter-spacing="0px" stroke-width=".26458" text-align="end" text-anchor="end" word-spacing="0px" style="line-height:120%" xml:space="preserve"><tspan x="117.19097" y="59.932354" text-align="end"><tspan dx="0" dy="0" fill="#000000" font-family="Arial" font-size="3.5057px" font-weight="400" stroke-width=".26458" text-align="end" text-anchor="end">Reading their articles on the</tspan></tspan><tspan x="118.16326" y="64.139229" text-align="end"><tspan fill="#000000" font-family="Arial" font-size="3.5057px" font-weight="400" stroke-width=".26458" text-align="end" text-anchor="end">International Translation Archive </tspan></tspan></text>
<text x="117.19872" y="69.677147" fill="#000000" font-family="Arial" font-size="3.5057px" font-weight="400" letter-spacing="0px" stroke-width=".26458" text-align="end" text-anchor="end" word-spacing="0px" style="line-height:120%" xml:space="preserve"><tspan x="117.19872" y="69.677147" text-align="end"><tspan dx="0" dy="0" fill="#000000" font-family="Arial" font-size="3.5057px" font-weight="400" stroke-width=".26458" text-align="end" text-anchor="end">Reading their articles</tspan></tspan><tspan x="117.19872" y="73.884026" text-align="end"><tspan fill="#000000" font-family="Arial" font-size="3.5057px" font-weight="400" stroke-width=".26458" text-align="end" text-anchor="end">on the English Wiki</tspan></tspan></text>
<text x="117.25108" y="81.669868" fill="#000000" font-family="Arial" font-size="3.5057px" font-weight="400" letter-spacing="0px" stroke-width=".26458" text-align="end" text-anchor="end" word-spacing="0px" style="line-height:120%" xml:space="preserve"><tspan x="117.25108" y="81.669868" stroke-width=".26458" text-align="end" text-anchor="end"><tspan dx="0" dy="0" fill="#000000" font-family="Arial" font-size="3.5057px" font-weight="400" stroke-width=".26458" text-align="end" text-anchor="end">Reading their articles on my branch</tspan></tspan></text>
<text x="117.31212" y="91.524406" fill="#000000" font-family="Arial" font-size="3.5057px" font-weight="400" letter-spacing="0px" stroke-width=".26458" text-align="end" text-anchor="end" word-spacing="0px" style="line-height:120%" xml:space="preserve"><tspan x="117.31212" y="91.524406" stroke-width=".26458" text-align="end" text-anchor="end"><tspan dx="0" dy="0" fill="#000000" font-family="Arial" font-size="3.5057px" font-weight="400" stroke-width=".26458" text-align="end" text-anchor="end">Translating from German to English</tspan></tspan></text>
<text x="117.59147" y="99.350609" fill="#000000" font-family="Arial" font-size="3.5057px" font-weight="400" letter-spacing="0px" stroke-width=".26458" text-align="end" text-anchor="end" word-spacing="0px" style="line-height:120%" xml:space="preserve"><tspan x="117.59147" y="99.350609" text-align="end"><tspan dx="0" dy="0" fill="#000000" font-family="Arial" font-size="3.5057px" font-weight="400" stroke-width=".26458" text-align="end" text-anchor="end">Translating from German</tspan></tspan><tspan x="117.59147" y="103.55749" text-align="end"><tspan fill="#000000" font-family="Arial" font-size="3.5057px" font-weight="400" stroke-width=".26458" text-align="end" text-anchor="end">to another language</tspan></tspan></text>
<text x="117.30447" y="109.20519" fill="#000000" font-family="Arial" font-size="3.5057px" font-weight="400" letter-spacing="0px" stroke-width=".26458" text-align="end" text-anchor="end" word-spacing="0px" style="line-height:120%" xml:space="preserve"><tspan x="117.30447" y="109.20519" text-align="end"><tspan dx="0" dy="0" fill="#000000" font-family="Arial" font-size="3.5057px" font-weight="400" stroke-width=".26458" text-align="end" text-anchor="end">I am active on SCP-DE's</tspan></tspan><tspan x="117.30447" y="113.41207" text-align="end"><tspan fill="#000000" font-family="Arial" font-size="3.5057px" font-weight="400" stroke-width=".26458" text-align="end" text-anchor="end">Discord's #international</tspan></tspan></text>
<text x="117.22875" y="119.05976" fill="#000000" font-family="Arial" font-size="3.5057px" font-weight="400" letter-spacing="0px" stroke-width=".26458" text-align="end" text-anchor="end" word-spacing="0px" style="line-height:120%" xml:space="preserve"><tspan x="117.22875" y="119.05976" text-align="end"><tspan dx="0" dy="0" fill="#000000" font-family="Arial" font-size="3.5057px" font-weight="400" stroke-width=".26458" text-align="end" text-anchor="end">I am active on other channels</tspan></tspan><tspan x="117.22875" y="123.26664" text-align="end"><tspan fill="#000000" font-family="Arial" font-size="3.5057px" font-weight="400" stroke-width=".26458" text-align="end" text-anchor="end">of SCP-DE's Discord</tspan></tspan></text>
<text x="117.32697" y="128.91429" fill="#000000" font-family="Arial" font-size="3.5057px" font-weight="400" letter-spacing="0px" stroke-width=".26458" text-align="end" text-anchor="end" word-spacing="0px" style="line-height:120%" xml:space="preserve"><tspan x="117.32697" y="128.91429" text-align="end"><tspan dx="0" dy="0" fill="#000000" font-family="Arial" font-size="3.5057px" font-weight="400" stroke-width=".26458" text-align="end" text-anchor="end">Watching SCP-readings</tspan></tspan><tspan x="117.32697" y="133.12117" text-align="end"><tspan fill="#000000" font-family="Arial" font-size="3.5057px" font-weight="400" stroke-width=".26458" text-align="end" text-anchor="end">in German on Youtube</tspan></tspan></text>
<text x="117.21778" y="138.76886" fill="#000000" font-family="Arial" font-size="3.5057px" font-weight="400" letter-spacing="0px" stroke-width=".26458" text-align="end" text-anchor="end" word-spacing="0px" style="line-height:120%" xml:space="preserve"><tspan x="117.21778" y="138.76886" text-align="end"><tspan dx="0" dy="0" fill="#000000" font-family="Arial" font-size="3.5057px" font-weight="400" stroke-width=".26458" text-align="end" text-anchor="end">I am in an unofficial germano-</tspan></tspan><tspan x="117.21778" y="142.97574" text-align="end"><tspan fill="#000000" font-family="Arial" font-size="3.5057px" font-weight="400" stroke-width=".26458" text-align="end" text-anchor="end">phone SCP-Community</tspan></tspan></text>
<text x="117.25653" y="148.62343" fill="#000000" font-family="Arial" font-size="3.5057px" font-weight="400" letter-spacing="0px" stroke-width=".26458" text-align="end" text-anchor="end" word-spacing="0px" style="line-height:120%" xml:space="preserve"><tspan x="117.25653" y="148.62343" text-align="end"><tspan dx="0" dy="0" fill="#000000" font-family="Arial" font-size="3.5057px" font-weight="400" stroke-width=".26458" text-align="end" text-anchor="end">Making fanart for content of</tspan></tspan><tspan x="117.25653" y="152.83031" text-align="end"><tspan fill="#000000" font-family="Arial" font-size="3.5057px" font-weight="400" stroke-width=".26458" text-align="end" text-anchor="end">the SCP-DE community</tspan></tspan></text>
</g>
</svg>
