<?xml version="1.0" encoding="UTF-8"?>
<svg width="409.88" height="175.91" version="1.1" viewBox="0 0 108.45 46.544" xmlns="http://www.w3.org/2000/svg" xmlns:cc="http://creativecommons.org/ns#" xmlns:dc="http://purl.org/dc/elements/1.1/" xmlns:rdf="http://www.w3.org/1999/02/22-rdf-syntax-ns#">
<defs>
<clipPath id="a">
<path d="m222.87 0.63997h231.03v146.07h-231.03z"/>
</clipPath>
</defs>
<metadata>
<rdf:RDF>
<cc:Work rdf:about="">
<dc:format>image/svg+xml</dc:format>
<dc:type rdf:resource="http://purl.org/dc/dcmitype/StillImage"/>
<dc:title/>
</cc:Work>
</rdf:RDF>
</metadata>
<g transform="translate(-23.215 -45.55)">
<path d="m68.666 46.978v38.394h60.83v-38.394z" fill="#e7e7e7" fill-rule="evenodd"/>
<path d="m76.37 46.978v38.394h-0.16933v-38.394zm7.5773 0v38.394h-0.16932v-38.394zm7.6196 0v38.394h-0.16932v-38.394zm7.6196 0v38.394h-0.16932v-38.394zm7.5773 0v38.394h-0.16932v-38.394zm7.6196 0v38.394h-0.16933v-38.394zm7.6196 0v38.394h-0.16933v-38.394zm7.5773 0v38.394h-0.16932v-38.394z" fill="#898989" stroke="#898989" stroke-linejoin="bevel" stroke-width=".042331px"/>
<path transform="matrix(.26458 0 0 .26458 9.6771 46.83)" d="m222.95 0.55997v36.318h201.27v-36.318z" clip-path="url(#a)" fill="#4285f4" fill-rule="evenodd"/>
<path transform="matrix(.26458 0 0 .26458 9.6771 46.83)" d="m222.63 0.55997c0-0.15999 0.15999-0.31998 0.31998-0.31998h201.27c0.17999 0 0.31998 0.15999 0.31998 0.31998v36.318c0 0.17999-0.13999 0.31998-0.31998 0.31998h-201.27c-0.15999 0-0.31998-0.13999-0.31998-0.31998zm0.63996 36.318-0.31998-0.31998h201.27l-0.31999 0.31998v-36.318l0.31999 0.31998h-201.27l0.31998-0.31998z" clip-path="url(#a)" fill="#2e60b3" stroke="#2e60b3" stroke-linejoin="bevel" stroke-width=".15999px"/>
<path d="m68.666 56.587v9.5668h7.6196v-9.5668z" fill="#ea4335" fill-rule="evenodd"/>
<path transform="matrix(.26458 0 0 .26458 9.6771 46.83)" d="m222.63 36.878c0-0.16999 0.14999-0.31998 0.31998-0.31998h28.798c0.18 0 0.31999 0.14999 0.31999 0.31998v36.158c0 0.17999-0.13999 0.31998-0.31999 0.31998h-28.798c-0.16999 0-0.31998-0.13999-0.31998-0.31998zm0.63996 36.158-0.31998-0.31998h28.798l-0.31998 0.31998v-36.158l0.31998 0.31998h-28.798l0.31998-0.31998z" clip-path="url(#a)" fill="#ac2f24" stroke="#ac2f24" stroke-linejoin="bevel" stroke-width=".15999px"/>
<path d="m68.666 66.154v9.6092h7.6196v-9.6092z" fill="#fbbc04" fill-rule="evenodd"/>
<path transform="matrix(.26458 0 0 .26458 9.6771 46.83)" d="m222.63 73.036c0-0.16999 0.14999-0.31998 0.31998-0.31998h28.798c0.18 0 0.31999 0.14999 0.31999 0.31998v36.318c0 0.17999-0.13999 0.31998-0.31999 0.31998h-28.798c-0.16999 0-0.31998-0.13999-0.31998-0.31998zm0.63996 36.318-0.31998-0.31998h28.798l-0.31998 0.31998v-36.318l0.31998 0.31998h-28.798l0.31998-0.31998z" clip-path="url(#a)" fill="#b98902" stroke="#b98902" stroke-linejoin="bevel" stroke-width=".15999px"/>
<path d="m68.666 85.288h60.83v0.16932h-60.83z" fill="#898989" stroke="#898989" stroke-linejoin="bevel" stroke-width=".042331px"/>
<path d="m68.75 85.373v1.0583h-0.16932v-1.0583zm7.6196 0v1.0583h-0.16933v-1.0583zm7.5773 0v1.0583h-0.16932v-1.0583zm7.6196 0v1.0583h-0.16932v-1.0583zm7.6196 0v1.0583h-0.16932v-1.0583zm7.5773 0v1.0583h-0.16932v-1.0583zm7.6196 0v1.0583h-0.16933v-1.0583zm7.6196 0v1.0583h-0.16933v-1.0583zm7.5773 0v1.0583h-0.16932v-1.0583z" fill="#898989" stroke="#898989" stroke-linejoin="bevel" stroke-width=".042331px"/>
<path d="m68.75 46.978v38.394h-0.16932v-38.394z" fill="#898989" stroke="#898989" stroke-linejoin="bevel" stroke-width=".042331px"/>
<path d="m67.607 46.894h1.0583v0.16932h-1.0583zm0 9.6092h1.0583v0.16932h-1.0583zm0 9.5668h1.0583v0.16932h-1.0583zm0 9.6092h1.0583v0.16932h-1.0583zm0 9.6092h1.0583v0.16932h-1.0583z" fill="#898989" stroke="#898989" stroke-linejoin="bevel" stroke-width=".042331px"/>
<text x="117.84795" y="53.07719" fill="#000000" font-family="Arial" font-size="3.5057px" font-weight="400" letter-spacing="0px" stroke-width=".26458" word-spacing="0px" style="line-height:125%" xml:space="preserve"><tspan x="117.84795" y="53.07719" stroke-width=".26458"><tspan dx="0" dy="0" fill="#000000" font-family="Arial" font-size="3.5057px" font-weight="400" stroke-width=".26458">7</tspan></tspan></text>
<text x="72.219177" y="62.68222" fill="#000000" font-family="Arial" font-size="3.5057px" font-weight="400" letter-spacing="0px" stroke-width=".26458" word-spacing="0px" style="line-height:125%" xml:space="preserve"><tspan x="72.219177" y="62.68222" stroke-width=".26458"><tspan dx="0" dy="0" fill="#000000" font-family="Arial" font-size="3.5057px" font-weight="400" stroke-width=".26458">1</tspan></tspan></text>
<text x="72.219177" y="72.287277" fill="#000000" font-family="Arial" font-size="3.5057px" font-weight="400" letter-spacing="0px" stroke-width=".26458" word-spacing="0px" style="line-height:125%" xml:space="preserve"><tspan x="72.219177" y="72.287277" stroke-width=".26458"><tspan dx="0" dy="0" fill="#000000" font-family="Arial" font-size="3.5057px" font-weight="400" stroke-width=".26458">1</tspan></tspan></text>
<text x="70.80883" y="81.892334" fill="#000000" font-family="Arial" font-size="3.5057px" font-weight="400" letter-spacing="0px" stroke-width=".26458" word-spacing="0px" style="line-height:125%" xml:space="preserve"><tspan x="70.80883" y="81.892334" stroke-width=".26458"><tspan dx="0" dy="0" fill="#000000" font-family="Arial" font-size="3.5057px" font-weight="400" stroke-width=".26458">0</tspan></tspan></text>
<text x="67.704552" y="90.725723" fill="#000000" font-family="Arial" font-size="3.5057px" font-weight="400" letter-spacing="0px" stroke-width=".26458" word-spacing="0px" style="line-height:125%" xml:space="preserve"><tspan x="67.704552" y="90.725723" stroke-width=".26458"><tspan dx="0" dy="0" fill="#000000" font-family="Arial" font-size="3.5057px" font-weight="400" stroke-width=".26458">0</tspan></tspan></text>
<text x="75.309349" y="90.725723" fill="#000000" font-family="Arial" font-size="3.5057px" font-weight="400" letter-spacing="0px" stroke-width=".26458" word-spacing="0px" style="line-height:125%" xml:space="preserve"><tspan x="75.309349" y="90.725723" stroke-width=".26458"><tspan dx="0" dy="0" fill="#000000" font-family="Arial" font-size="3.5057px" font-weight="400" stroke-width=".26458">1</tspan></tspan></text>
<text x="82.914154" y="90.725723" fill="#000000" font-family="Arial" font-size="3.5057px" font-weight="400" letter-spacing="0px" stroke-width=".26458" word-spacing="0px" style="line-height:125%" xml:space="preserve"><tspan x="82.914154" y="90.725723" stroke-width=".26458"><tspan dx="0" dy="0" fill="#000000" font-family="Arial" font-size="3.5057px" font-weight="400" stroke-width=".26458">2</tspan></tspan></text>
<text x="90.518951" y="90.725723" fill="#000000" font-family="Arial" font-size="3.5057px" font-weight="400" letter-spacing="0px" stroke-width=".26458" word-spacing="0px" style="line-height:125%" xml:space="preserve"><tspan x="90.518951" y="90.725723" stroke-width=".26458"><tspan dx="0" dy="0" fill="#000000" font-family="Arial" font-size="3.5057px" font-weight="400" stroke-width=".26458">3</tspan></tspan></text>
<text x="98.123749" y="90.725723" fill="#000000" font-family="Arial" font-size="3.5057px" font-weight="400" letter-spacing="0px" stroke-width=".26458" word-spacing="0px" style="line-height:125%" xml:space="preserve"><tspan x="98.123749" y="90.725723" stroke-width=".26458"><tspan dx="0" dy="0" fill="#000000" font-family="Arial" font-size="3.5057px" font-weight="400" stroke-width=".26458">4</tspan></tspan></text>
<text x="105.72852" y="90.725723" fill="#000000" font-family="Arial" font-size="3.5057px" font-weight="400" letter-spacing="0px" stroke-width=".26458" word-spacing="0px" style="line-height:125%" xml:space="preserve"><tspan x="105.72852" y="90.725723" stroke-width=".26458"><tspan dx="0" dy="0" fill="#000000" font-family="Arial" font-size="3.5057px" font-weight="400" stroke-width=".26458">5</tspan></tspan></text>
<text x="113.33332" y="90.725723" fill="#000000" font-family="Arial" font-size="3.5057px" font-weight="400" letter-spacing="0px" stroke-width=".26458" word-spacing="0px" style="line-height:125%" xml:space="preserve"><tspan x="113.33332" y="90.725723" stroke-width=".26458"><tspan dx="0" dy="0" fill="#000000" font-family="Arial" font-size="3.5057px" font-weight="400" stroke-width=".26458">6</tspan></tspan></text>
<text x="120.93813" y="90.725723" fill="#000000" font-family="Arial" font-size="3.5057px" font-weight="400" letter-spacing="0px" stroke-width=".26458" word-spacing="0px" style="line-height:125%" xml:space="preserve"><tspan x="120.93813" y="90.725723" stroke-width=".26458"><tspan dx="0" dy="0" fill="#000000" font-family="Arial" font-size="3.5057px" font-weight="400" stroke-width=".26458">7</tspan></tspan></text>
<text x="128.54292" y="90.725723" fill="#000000" font-family="Arial" font-size="3.5057px" font-weight="400" letter-spacing="0px" stroke-width=".26458" word-spacing="0px" style="line-height:125%" xml:space="preserve"><tspan x="128.54292" y="90.725723" stroke-width=".26458"><tspan dx="0" dy="0" fill="#000000" font-family="Arial" font-size="3.5057px" font-weight="400" stroke-width=".26458">8</tspan></tspan></text>
<text x="65.104134" y="52.904327" fill="#000000" font-family="Arial" font-size="3.5057px" font-weight="400" letter-spacing="0px" stroke-width=".26458" text-align="end" text-anchor="end" word-spacing="0px" style="line-height:125%" xml:space="preserve"><tspan x="65.104134" y="52.904327" stroke-width=".26458" text-align="end" text-anchor="end"><tspan dx="0" dy="0" fill="#000000" font-family="Arial" font-size="3.5057px" font-weight="400" stroke-width=".26458" text-align="end" text-anchor="end">I love to read about it</tspan></tspan></text>
<text x="64.973007" y="60.481018" fill="#000000" font-family="Arial" font-size="3.5057px" font-weight="400" letter-spacing="0px" stroke-width=".26458" text-align="end" text-anchor="end" word-spacing="0px" style="line-height:125%" xml:space="preserve"><tspan x="64.973007" y="60.481018" text-align="end"><tspan dx="0" dy="0" fill="#000000" font-family="Arial" font-size="3.5057px" font-weight="400" stroke-width=".26458" text-align="end" text-anchor="end">I read it when it comes,</tspan></tspan><tspan x="64.973007" y="64.863182" text-align="end"><tspan fill="#000000" font-family="Arial" font-size="3.5057px" font-weight="400" stroke-width=".26458" text-align="end" text-anchor="end">but wouldn't miss it</tspan></tspan></text>
<text x="65.062706" y="72.11441" fill="#000000" font-family="Arial" font-size="3.5057px" font-weight="400" letter-spacing="0px" stroke-width=".26458" text-align="end" text-anchor="end" word-spacing="0px" style="line-height:125%" xml:space="preserve"><tspan x="65.062706" y="72.11441" stroke-width=".26458" text-align="end" text-anchor="end"><tspan dx="0" dy="0" fill="#000000" font-family="Arial" font-size="3.5057px" font-weight="400" stroke-width=".26458" text-align="end" text-anchor="end">I am not interested in that</tspan></tspan></text>
<text x="64.951134" y="81.719467" fill="#000000" font-family="Arial" font-size="3.5057px" font-weight="400" letter-spacing="0px" stroke-width=".26458" text-align="end" text-anchor="end" word-spacing="0px" style="line-height:125%" xml:space="preserve"><tspan x="64.951134" y="81.719467" stroke-width=".26458" text-align="end" text-anchor="end"><tspan dx="0" dy="0" fill="#000000" font-family="Arial" font-size="3.5057px" font-weight="400" stroke-width=".26458" text-align="end" text-anchor="end">I am against such projects</tspan></tspan></text>
</g>
</svg>
