<?xml version="1.0" encoding="UTF-8"?>
<svg width="426.64" height="246.74" version="1.1" viewBox="0 0 112.88 65.283" xmlns="http://www.w3.org/2000/svg" xmlns:cc="http://creativecommons.org/ns#" xmlns:dc="http://purl.org/dc/elements/1.1/" xmlns:rdf="http://www.w3.org/1999/02/22-rdf-syntax-ns#">
<metadata>
<rdf:RDF>
<cc:Work rdf:about="">
<dc:format>image/svg+xml</dc:format>
<dc:type rdf:resource="http://purl.org/dc/dcmitype/StillImage"/>
<dc:title/>
</cc:Work>
</rdf:RDF>
</metadata>
<g transform="translate(13.378 -76.479)">
<path d="m19.27 109.12v-31.214z" fill="#3975d8" fill-rule="evenodd"/>
<path d="m19.355 109.12h-0.16932v-31.214l0.08466 0.0847 0.08466-0.0847zm-0.16932-31.214c0-0.045 0.03704-0.0847 0.08466-0.0847 0.04498 0 0.08466 0.0397 0.08466 0.0847v31.214c0 0.045-0.03704 0.082-0.08202 0.0847-0.04762 0-0.08731-0.037-0.08731-0.0847z" fill="#27549e" stroke="#27549e" stroke-linejoin="bevel" stroke-width=".042331px"/>
<path d="m19.27 109.12v-31.214z" fill="#cf3a2e" fill-rule="evenodd"/>
<path d="m19.355 109.12h-0.16932v-31.214l0.08466 0.0847 0.08466-0.0847zm-0.16932-31.214c0-0.045 0.03704-0.0847 0.08466-0.0847 0.04498 0 0.08466 0.0397 0.08466 0.0847v31.214c0 0.045-0.03704 0.082-0.08202 0.0847-0.04762 0-0.08731-0.037-0.08731-0.0847z" fill="#98281f" stroke="#98281f" stroke-linejoin="bevel" stroke-width=".042331px"/>
<path d="m19.273 109.12 18.345 25.251c13.943-10.133 17.038-29.653 6.9053-43.601-5.8734-8.08-15.26-12.863-25.251-12.863z" fill="#dea603" fill-rule="evenodd"/>
<path d="m19.358 109.12-0.01588-0.0476 18.345 25.251-0.1217-0.0212 1.2752-0.97362 1.2117-1.0265 1.1429-1.0794 1.0794-1.1218 1.0107-1.1694 0.94716-1.2012 0.88366-1.2488 0.81488-1.2805 0.75138-1.3176 0.68259-1.344 0.6138-1.3705 0.54501-1.3969 0.47623-1.4234 0.41273-1.434 0.33336-1.4604 0.26986-1.4657 0.20107-1.4816 0.127-1.4869 0.05291-1.4975-0.01587-1.4975-0.08466-1.4975-0.15874-1.4922-0.23282-1.4922-0.3069-1.4816-0.38098-1.471-0.45506-1.4604-0.52914-1.4393-0.60322-1.4234-0.6773-1.4022-0.75667-1.3758-0.83604-1.3493-0.90483-1.3176-0.56089-0.74608-0.58205-0.73021-0.59264-0.70376-0.61909-0.68788-0.64026-0.66671-0.65084-0.64555-0.67201-0.62439-0.68788-0.60322-0.70376-0.58205-0.71963-0.56089-0.7355-0.53972-0.75138-0.51327-0.76196-0.49209-0.77783-0.47094-0.79371-0.44977-0.80429-0.42331-0.81488-0.40214-0.82546-0.37569-0.84133-0.35453-0.84662-0.32806-0.8572-0.30161-0.86779-0.28045-0.87837-0.25398-0.88366-0.22753-0.89425-0.19578-0.89954-0.17991-0.90483-0.14816-0.91541-0.12699-0.91541-0.0952-0.926-0.0688-0.92599-0.0423-0.93128-0.0106 0.08466-0.0847zm-0.16933-31.214c0-0.0212 0.01058-0.0423 0.02646-0.0582 0.01587-0.0159 0.03704-0.0264 0.0582-0.0264l0.93658 0.0106 0.93658 0.0476 0.92599 0.0688 0.92599 0.0952 0.91541 0.12171 0.91541 0.15345 0.89954 0.17461 0.89954 0.20107 0.88896 0.23283 0.88366 0.25398 0.86779 0.28045 0.86779 0.3069 0.85191 0.32806 0.84133 0.35453 0.83075 0.38098 0.82017 0.40214 0.80958 0.42861 0.79371 0.44447 0.78313 0.47623 0.76725 0.49739 0.75667 0.51855 0.7355 0.53973 0.72492 0.56618 0.70905 0.58205 0.69317 0.60851 0.672 0.62967 0.66142 0.64555 0.63497 0.67201 0.62438 0.68788 0.59793 0.70905 0.58734 0.73021 0.56089 0.75138 0.91541 1.3281 0.83604 1.3599 0.75667 1.381 0.68788 1.4128 0.60322 1.4287 0.53443 1.4498 0.45506 1.4657 0.38098 1.4763 0.3069 1.4922 0.23282 1.4975 0.16403 1.5028 0.08466 1.508 0.01588 1.508-0.05821 1.4975-0.12699 1.4975-0.19578 1.4869-0.26986 1.4816-0.34394 1.4604-0.40744 1.4498-0.48152 1.4234-0.5503 1.4075-0.61909 1.381-0.68259 1.3493-0.75667 1.3228-0.81488 1.2911-0.88895 1.2488-0.95245 1.2117-1.0212 1.18-1.0847 1.1271-1.1535 1.0794-1.2117 1.0318-1.2752 0.97891c-0.02116 0.0106-0.04233 0.0159-0.0635 0.0159-0.02646-5e-3 -0.04233-0.0159-0.05821-0.037l-18.345-25.251c-0.01058-0.0106-0.01587-0.0318-0.01587-0.0476z" fill="#a37902" stroke="#a37902" stroke-linejoin="bevel" stroke-width=".042331px"/>
<path d="m19.27 109.12 18.345 25.251z" fill="#2d9449" fill-rule="evenodd"/>
<path d="m19.201 109.17 0.13758-0.10054 18.345 25.251-0.11641-0.0185-0.02116 0.11906zm18.483 25.15c0.01323 0.0185 0.01852 0.0423 0.01587 0.0635-0.0053 0.0238-0.01587 0.0423-0.0344 0.0556-0.03968 0.0265-0.0926 0.0185-0.11906-0.0185l-18.345-25.251c-0.02911-0.0397-0.01852-0.0926 0.01852-0.11906 0.03969-0.0264 0.08996-0.0185 0.11906 0.0185z" fill="#1e6c33" stroke="#1e6c33" stroke-linejoin="bevel" stroke-width=".042331px"/>
<path d="m19.27 109.12-29.685-9.6462c-5.3284 16.395 3.6431 34.002 20.039 39.331 9.5033 3.0875 19.909 1.4393 27.991-4.4342z" fill="#e26001" fill-rule="evenodd"/>
<path d="m19.204 109.17 0.04233 0.0317-29.685-9.6462 0.10583-0.0556-0.23811 0.7699-0.21959 0.76725-0.19843 0.7699-0.17462 0.77254-0.1561 0.7699-0.13758 0.77254-0.11641 0.7699-0.09789 0.7699-0.07672 0.77254-0.0582 0.7699-0.03969 0.76725-0.01852 0.76461v0.7646l0.01852 0.76461 0.03704 0.75931 0.05556 0.75667 0.07408 0.75403 0.0926 0.75137 0.11112 0.74609 0.12964 0.74079 0.14551 0.73815 0.16403 0.73551 0.18255 0.72756 0.19578 0.72228 0.21695 0.71698 0.23282 0.71169 0.25134 0.70376 0.26192 0.69846 0.28309 0.69053 0.30161 0.68788 0.31219 0.67465 0.33071 0.66936 0.34923 0.66407 0.35982 0.65085 0.77519 1.2805 0.83075 1.2408 0.8916 1.2012 0.95245 1.1615 1.008 1.1138 1.0636 1.0689 1.1165 1.0186 1.1747 0.96568 1.2223 0.91277 1.2726 0.85191 1.3255 0.79636 0.67994 0.37304 0.69317 0.35981 0.70376 0.34394 0.71698 0.32278 0.72492 0.30954 0.73815 0.29368 0.74873 0.2725 0.76196 0.25928 0.90218 0.28838 0.89424 0.2487 0.89954 0.21694 0.90483 0.19314 0.90483 0.16668 0.90747 0.13757 0.91012 0.11112 0.91276 0.0847 0.91277 0.0556 0.91276 0.0291 0.91276 3e-3 0.91012-0.0238 0.90747-0.0476 0.90483-0.0767 0.90218-0.10319 0.89954-0.12964 0.89689-0.15609 0.88896-0.17991 0.88631-0.20901 0.87837-0.23018 0.87308-0.26192 0.86514-0.28573 0.85985-0.30955 0.84927-0.336 0.84133-0.36246 0.83075-0.38627 0.82017-0.41009 0.80958-0.43918 0.799-0.46036 0.79106-0.48945 0.77519-0.51062 0.76196-0.53708-0.01852 0.11906zm18.48 25.153c0.01323 0.0185 0.01852 0.0397 0.01587 0.0635-0.0026 0.0212-0.01587 0.0423-0.0344 0.0556l-0.76725 0.53707-0.78048 0.51591-0.79371 0.48946-0.80164 0.46564-0.81487 0.43919-0.82546 0.41537-0.83604 0.38627-0.84662 0.36246-0.85456 0.3413-0.8625 0.30954-0.86779 0.28574-0.87837 0.26192-0.88366 0.23547-0.8916 0.20901-0.89424 0.17991-0.90218 0.15609-0.90483 0.12964-0.90747 0.10318-0.91012 0.0767-0.91276 0.0503-0.91541 0.0238-0.91806-3e-3 -0.91276-0.0318-0.91806-0.0556-0.91806-0.0847-0.91541-0.11112-0.91276-0.13757-0.91012-0.16668-0.91012-0.19314-0.90483-0.22224-0.89954-0.24869-0.90747-0.28838-0.76461-0.25928-0.75138-0.2778-0.74344-0.29367-0.73021-0.30955-0.72228-0.32806-0.70376-0.34394-0.69846-0.35982-0.68524-0.37833-1.3308-0.80165-1.2832-0.8572-1.2276-0.91806-1.18-0.97097-1.1218-1.0239-1.0689-1.0742-1.0133-1.1191-0.95774-1.1668-0.89689-1.2117-0.83604-1.2461-0.77783-1.2858-0.36246-0.65613-0.34923-0.66407-0.33336-0.67465-0.31484-0.67995-0.30161-0.68788-0.28309-0.69582-0.26721-0.70375-0.25134-0.70905-0.23282-0.71169-0.21695-0.72227-0.20107-0.72757-0.18255-0.73286-0.16403-0.7355-0.14551-0.74344-0.12964-0.74609-0.11112-0.75138-0.0926-0.75138-0.07408-0.75931-0.05556-0.76196-0.03969-0.76461-0.01852-0.76725v-0.76725l0.02117-0.7699 0.03968-0.77254 0.05821-0.77519 0.07673-0.77519 0.09789-0.77254 0.11641-0.77519 0.13758-0.77783 0.1561-0.77519 0.17726-0.77255 0.20107-0.77519 0.21959-0.77254 0.23811-0.7699c0.0053-0.0212 0.02117-0.0397 0.04233-0.0503 0.01852-0.0106 0.04233-0.0132 0.0635-5e-3l29.685 9.6462c0.01852 5e-3 0.03175 0.0159 0.04233 0.0318z" fill="#a64400" stroke="#a64400" stroke-linejoin="bevel" stroke-width=".042331px"/>
<path d="m19.27 109.12v-31.214c-13.522 0-25.507 8.707-29.685 21.568z" fill="#3da7af" fill-rule="evenodd"/>
<path d="m19.297 109.04-0.11112 0.0794v-31.214l0.08731 0.0847-1.262 0.0265-1.2514 0.0741-1.2355 0.12435-1.2276 0.17461-1.2117 0.2196-1.1985 0.26986-1.18 0.30954-1.1641 0.35982-1.1482 0.40479-1.1271 0.44448-1.1059 0.48945-1.0874 0.52914-1.0583 0.57147-1.0398 0.61116-1.0133 0.64819-0.98949 0.69053-0.95774 0.72492-0.93393 0.76461-0.89954 0.79635-0.87308 0.83604-0.84133 0.86779-0.80429 0.90218-0.77254 0.93393-0.7355 0.96568-0.70111 0.99743-0.66407 1.0265-0.62438 1.0583-0.58205 1.0847-0.54501 1.1112-0.50004 1.1376-0.4577 1.1668-0.41273 1.1906-0.05556-0.10848zm-29.735-9.4848c-0.02381-8e-3 -0.03969-0.0238-0.05027-0.0423-0.01058-0.0212-0.01323-0.045-0.0053-0.0661l0.41802-1.1959 0.45771-1.172 0.50533-1.1482 0.54501-1.1165 0.58734-1.09 0.62968-1.0636 0.66407-1.0318 0.7064-1.0027 0.7408-0.97097 0.77784-0.93922 0.80694-0.90748 0.84398-0.87308 0.87837-0.83604 0.90483-0.80164 0.93922-0.7699 0.96303-0.73021 0.99478-0.69053 1.0186-0.65349 1.045-0.61644 1.0662-0.57147 1.0953-0.53444 1.1112-0.48945 1.1324-0.44977 1.1535-0.40479 1.1694-0.35981 1.1879-0.31484 1.2064-0.26986 1.217-0.21959 1.2329-0.17462 1.2461-0.12435 1.2567-0.0767 1.262-0.0265c0.02116 0 0.04498 0.0106 0.06085 0.0265 0.01588 0.0159 0.02381 0.037 0.02381 0.0582v31.214c0 0.0291-0.01058 0.0529-0.03439 0.0688-0.02117 0.0159-0.05027 0.0212-0.07408 0.0132z" fill="#2a7a80" stroke="#2a7a80" stroke-linejoin="bevel" stroke-width=".042331px"/>
<text x="36.436371" y="102.98636" fill="#000000" font-family="Arial" font-size="3.5057px" font-weight="400" letter-spacing="0px" stroke-width=".26458" word-spacing="0px" style="line-height:125%" xml:space="preserve"><tspan x="36.436371" y="102.98636" stroke-width=".26458"><tspan dx="0" dy="0" fill="#000000" font-family="Arial" font-size="3.5057px" font-weight="400" stroke-width=".26458">2; 40%</tspan></tspan></text>
<text x="-2.4553623" y="127.06219" fill="#000000" font-family="Arial" font-size="3.5057px" font-weight="400" letter-spacing="0px" stroke-width=".26458" word-spacing="0px" style="line-height:125%" xml:space="preserve"><tspan x="-2.4553623" y="127.06219" stroke-width=".26458"><tspan dx="0" dy="0" fill="#000000" font-family="Arial" font-size="3.5057px" font-weight="400" stroke-width=".26458">2; 40%</tspan></tspan></text>
<text x="-1.6616535" y="91.609863" fill="#000000" font-family="Arial" font-size="3.5057px" font-weight="400" letter-spacing="0px" stroke-width=".26458" word-spacing="0px" style="line-height:125%" xml:space="preserve"><tspan x="-1.6616535" y="91.609863" stroke-width=".26458"><tspan dx="0" dy="0" fill="#000000" font-family="Arial" font-size="3.5057px" font-weight="400" stroke-width=".26458">1; 20%</tspan></tspan></text>
<path d="m59.551 81.392v1.7779h1.7779v-1.7779z" fill="#3975d8" fill-rule="evenodd"/>
<path d="m59.466 81.392c0-0.0423 0.04233-0.0847 0.08466-0.0847h1.7779c0.04762 0 0.08466 0.0423 0.08466 0.0847v1.7779c0 0.0476-0.03704 0.0847-0.08466 0.0847h-1.7779c-0.04233 0-0.08466-0.037-0.08466-0.0847zm0.16933 1.7779-0.08466-0.0847h1.7779l-0.08466 0.0847v-1.7779l0.08466 0.0847h-1.7779l0.08466-0.0847z" fill="#27549e" stroke="#27549e" stroke-linejoin="bevel" stroke-width=".042331px"/>
<text x="62.127831" y="83.39933" fill="#000000" font-family="Arial" font-size="3.5057px" font-weight="400" letter-spacing="0px" stroke-width=".26458" word-spacing="0px" style="line-height:125%" xml:space="preserve"><tspan x="62.127831" y="83.39933" stroke-width=".26458"><tspan dx="0" dy="0" fill="#000000" font-family="Arial" font-size="3.5057px" font-weight="400" stroke-width=".26458">Parents</tspan></tspan></text>
<path d="m59.551 91.679v1.7356h1.7779v-1.7356z" fill="#cf3a2e" fill-rule="evenodd"/>
<path d="m59.466 91.679c0-0.0423 0.04233-0.0847 0.08466-0.0847h1.7779c0.04762 0 0.08466 0.0423 0.08466 0.0847v1.7356c0 0.0476-0.03704 0.0847-0.08466 0.0847h-1.7779c-0.04233 0-0.08466-0.037-0.08466-0.0847zm0.16933 1.7356-0.08466-0.0847h1.7779l-0.08466 0.0847v-1.7356l0.08466 0.0847h-1.7779l0.08466-0.0847z" fill="#98281f" stroke="#98281f" stroke-linejoin="bevel" stroke-width=".042331px"/>
<text x="62.127831" y="93.673965" fill="#000000" font-family="Arial" font-size="3.5057px" font-weight="400" letter-spacing="0px" stroke-width=".26458" word-spacing="0px" style="line-height:125%" xml:space="preserve"><tspan x="62.127831" y="93.673965" stroke-width=".26458"><tspan dx="0" dy="0" fill="#000000" font-family="Arial" font-size="3.5057px" font-weight="400" stroke-width=".26458">Other relatives</tspan></tspan></text>
<path d="m59.551 101.92v1.7779h1.7779v-1.7779z" fill="#dea603" fill-rule="evenodd"/>
<path d="m59.466 101.92c0-0.0423 0.04233-0.0847 0.08466-0.0847h1.7779c0.04762 0 0.08466 0.0423 0.08466 0.0847v1.7779c0 0.0476-0.03704 0.0847-0.08466 0.0847h-1.7779c-0.04233 0-0.08466-0.037-0.08466-0.0847zm0.16933 1.7779-0.08466-0.0847h1.7779l-0.08466 0.0847v-1.7779l0.08466 0.0847h-1.7779l0.08466-0.0847z" fill="#a37902" stroke="#a37902" stroke-linejoin="bevel" stroke-width=".042331px"/>
<text x="62.127831" y="103.94859" fill="#000000" font-family="Arial" font-size="3.5057px" font-weight="400" letter-spacing="0px" stroke-width=".26458" word-spacing="0px" style="line-height:125%" xml:space="preserve"><tspan x="62.127831" y="103.94859" stroke-width=".26458"><tspan dx="0" dy="0" fill="#000000" font-family="Arial" font-size="3.5057px" font-weight="400" stroke-width=".26458">At school</tspan></tspan></text>
<path d="m59.551 112.21v1.7779h1.7779v-1.7779z" fill="#2d9449" fill-rule="evenodd"/>
<path d="m59.466 112.21c0-0.0423 0.04233-0.0847 0.08466-0.0847h1.7779c0.04762 0 0.08466 0.0423 0.08466 0.0847v1.7779c0 0.0476-0.03704 0.0847-0.08466 0.0847h-1.7779c-0.04233 0-0.08466-0.037-0.08466-0.0847zm0.16933 1.7779-0.08466-0.0847h1.7779l-0.08466 0.0847v-1.7779l0.08466 0.0847h-1.7779l0.08466-0.0847z" fill="#1e6c33" stroke="#1e6c33" stroke-linejoin="bevel" stroke-width=".042331px"/>
<text x="62.127831" y="114.22324" fill="#000000" font-family="Arial" font-size="3.5057px" font-weight="400" letter-spacing="0px" stroke-width=".26458" word-spacing="0px" style="line-height:125%" xml:space="preserve"><tspan x="62.127831" y="114.22324" stroke-width=".26458"><tspan dx="0" dy="0" fill="#000000" font-family="Arial" font-size="3.5057px" font-weight="400" stroke-width=".26458">While living in a</tspan></tspan></text>
<text x="62.127831" y="118.28702" fill="#000000" font-family="Arial" font-size="3.5057px" font-weight="400" letter-spacing="0px" stroke-width=".26458" word-spacing="0px" style="line-height:125%" xml:space="preserve"><tspan x="62.127831" y="118.28702" stroke-width=".26458"><tspan dx="0" dy="0" fill="#000000" font-family="Arial" font-size="3.5057px" font-weight="400" stroke-width=".26458">germanophone country</tspan></tspan></text>
<path d="m59.551 122.5v1.7779h1.7779v-1.7779z" fill="#e26001" fill-rule="evenodd"/>
<path d="m59.466 122.5c0-0.0423 0.04233-0.0847 0.08466-0.0847h1.7779c0.04762 0 0.08466 0.0423 0.08466 0.0847v1.7779c0 0.0476-0.03704 0.0847-0.08466 0.0847h-1.7779c-0.04233 0-0.08466-0.037-0.08466-0.0847zm0.16933 1.7779-0.08466-0.0847h1.7779l-0.08466 0.0847v-1.7779l0.08466 0.0847h-1.7779l0.08466-0.0847z" fill="#a64400" stroke="#a64400" stroke-linejoin="bevel" stroke-width=".042331px"/>
<text x="62.127831" y="124.49786" fill="#000000" font-family="Arial" font-size="3.5057px" font-weight="400" letter-spacing="0px" stroke-width=".26458" word-spacing="0px" style="line-height:125%" xml:space="preserve"><tspan x="62.127831" y="124.49786" stroke-width=".26458"><tspan dx="0" dy="0" fill="#000000" font-family="Arial" font-size="3.5057px" font-weight="400" stroke-width=".26458">With an online learning</tspan></tspan></text>
<text x="62.127831" y="128.56165" fill="#000000" font-family="Arial" font-size="3.5057px" font-weight="400" letter-spacing="0px" stroke-width=".26458" word-spacing="0px" style="line-height:125%" xml:space="preserve"><tspan x="62.127831" y="128.56165" stroke-width=".26458"><tspan dx="0" dy="0" fill="#000000" font-family="Arial" font-size="3.5057px" font-weight="400" stroke-width=".26458">app</tspan></tspan></text>
<path d="m59.551 132.74v1.7779h1.7779v-1.7779z" fill="#3da7af" fill-rule="evenodd"/>
<path d="m59.466 132.74c0-0.0423 0.04233-0.0847 0.08466-0.0847h1.7779c0.04762 0 0.08466 0.0423 0.08466 0.0847v1.7779c0 0.0476-0.03704 0.0847-0.08466 0.0847h-1.7779c-0.04233 0-0.08466-0.037-0.08466-0.0847zm0.16933 1.7779-0.08466-0.0847h1.7779l-0.08466 0.0847v-1.7779l0.08466 0.0847h-1.7779l0.08466-0.0847z" fill="#2a7a80" stroke="#2a7a80" stroke-linejoin="bevel" stroke-width=".042331px"/>
<text x="62.127831" y="134.77249" fill="#000000" font-family="Arial" font-size="3.5057px" font-weight="400" letter-spacing="0px" stroke-width=".26458" word-spacing="0px" style="line-height:125%" xml:space="preserve"><tspan x="62.127831" y="134.77249" stroke-width=".26458"><tspan dx="0" dy="0" fill="#000000" font-family="Arial" font-size="3.5057px" font-weight="400" stroke-width=".26458">I have no idea</tspan></tspan></text>
</g>
</svg>
