<?xml version="1.0" encoding="UTF-8"?>
<svg width="423.43" height="233.3" version="1.1" viewBox="0 0 112.03 61.727" xmlns="http://www.w3.org/2000/svg" xmlns:cc="http://creativecommons.org/ns#" xmlns:dc="http://purl.org/dc/elements/1.1/" xmlns:rdf="http://www.w3.org/1999/02/22-rdf-syntax-ns#">
<metadata>
<rdf:RDF>
<cc:Work rdf:about="">
<dc:format>image/svg+xml</dc:format>
<dc:type rdf:resource="http://purl.org/dc/dcmitype/StillImage"/>
<dc:title/>
</cc:Work>
</rdf:RDF>
</metadata>
<g transform="translate(-111.05 -112.77)">
<path d="m141.91 143.63 15.914-24.761c-4.7464-3.0531-10.271-4.6749-15.914-4.6749z" fill="#3975d8" fill-rule="evenodd"/>
<path d="m142 143.63-0.15345-0.045 15.914-24.761 0.0265 0.11905-0.89953-0.55559-0.91277-0.52121-0.92864-0.4868-0.94716-0.45242-0.95774-0.41537-0.97362-0.38363-0.98684-0.34658-0.99478-0.3122-1.008-0.27779-1.016-0.23812-1.0265-0.20636-1.0345-0.16668-1.0398-0.13228-1.0424-0.0926-1.0503-0.0582-1.053-0.0185 0.0847-0.0847zm-0.16932-29.436c0-0.0212 0.0106-0.0423 0.0265-0.0582s0.037-0.0265 0.0609-0.0265l1.0583 0.0212 1.0556 0.0582 1.0503 0.0926 1.0477 0.13228 1.0398 0.16668 1.0318 0.20636 1.0212 0.24341 1.0133 0.2778 1.0001 0.31219 0.99213 0.35188 0.97891 0.38362 0.96304 0.42067 0.95245 0.45241 0.93393 0.4921 0.91805 0.5212 0.89954 0.5556c0.0212 0.0132 0.0344 0.0318 0.0397 0.0529 5e-3 0.0238 0 0.0476-0.0132 0.0661l-15.914 24.761c-0.0185 0.0317-0.0582 0.045-0.0952 0.0344-0.0344-0.0106-0.0608-0.0423-0.0608-0.082z" fill="#27549e" stroke="#27549e" stroke-linejoin="bevel" stroke-width=".042331px"/>
<path d="m141.91 143.63 26.774-12.228c-2.3441-5.1326-6.1142-9.4822-10.861-12.533z" fill="#cf3a2e" fill-rule="evenodd"/>
<path d="m141.98 143.68-0.10583-0.12434 26.774-12.228-0.0397 0.11376-0.45506-0.95245-0.48945-0.93128-0.51856-0.91277-0.55295-0.88895-0.5794-0.87043-0.61116-0.84663-0.6429-0.82545-0.66936-0.80165-0.69847-0.77519-0.72492-0.75138-0.75138-0.72756-0.77783-0.69847-0.80429-0.672-0.82811-0.64291-0.85191-0.61644-0.87572-0.5847 0.11641-0.0238zm15.774-24.854c0.0106-0.0185 0.0318-0.0318 0.0529-0.037 0.0212-5e-3 0.045 0 0.0635 0.0132l0.88101 0.58999 0.85721 0.61645 0.83339 0.6482 0.80959 0.6773 0.78312 0.70111 0.75667 0.73021 0.72492 0.75667 0.70376 0.78048 0.67465 0.80693 0.6429 0.83075 0.61645 0.85192 0.5847 0.87572 0.55295 0.89425 0.52385 0.91805 0.48945 0.93658 0.45506 0.95245c0.0106 0.0185 0.0106 0.0423 5e-3 0.0635-8e-3 0.0212-0.0238 0.0397-0.045 0.0503l-26.774 12.228c-0.0344 0.0132-0.0741 5e-3 -0.10053-0.0238-0.0238-0.0265-0.0265-0.0688-5e-3 -0.10053z" fill="#98281f" stroke="#98281f" stroke-linejoin="bevel" stroke-width=".042331px"/>
<path d="m141.91 143.63-22.245 19.271c10.646 12.287 29.235 13.62 41.522 2.9738 9.8684-8.5562 12.922-22.594 7.4979-34.473z" fill="#dea603" fill-rule="evenodd"/>
<path d="m141.95 143.71 0.0159-0.0159-22.245 19.277 0.0106-0.1217 0.50268 0.56618 0.51856 0.5503 0.52384 0.53443 0.53444 0.51856 0.5503 0.50268 0.5556 0.48681 0.56617 0.47093 0.57148 0.44977 0.58734 0.43918 0.59264 0.41803 0.60321 0.40743 0.60851 0.38627 0.6191 0.37569 0.61909 0.35453 0.63497 0.33864 0.64026 0.32278 0.64025 0.31219 0.65085 0.28574 0.66142 0.27515 0.66142 0.25928 0.66143 0.23811 0.6773 0.22753 0.67729 0.20637 0.6773 0.19578 0.68259 0.16932 0.68788 0.15874 0.69317 0.14287 0.69318 0.12699 0.69317 0.11112 0.70375 0.0899 0.69847 0.0741 0.69846 0.0635 0.70376 0.037 0.70375 0.0265 0.70376 5e-3 0.70375-5e-3 0.70376-0.0265 0.70904-0.0423 0.70376-0.0582 0.69846-0.0741 0.69846-0.0952 0.70376-0.11112 0.69847-0.12699 0.69317-0.14287 0.68788-0.16403 0.68788-0.17991 0.68788-0.19049 0.68259-0.21165 0.6773-0.23282 0.672-0.2487 0.67201-0.25928 0.66143-0.28044 0.65613-0.30161 0.65613-0.31219 0.64555-0.33336 0.64026-0.35452 0.63496-0.36511 0.62968-0.38627 0.6138-0.39686 0.6138-0.42331 0.60851-0.43918 0.59264-0.44977 0.58735-0.47623 0.57676-0.4868 0.91012-0.80959 0.86249-0.84133 0.82546-0.87837 0.77783-0.90483 0.7408-0.92599 0.70375-0.95245 0.65614-0.97891 0.6138-1.0001 0.57676-1.0265 0.52914-1.0371 0.48681-1.0636 0.44447-1.0742 0.39686-1.09 0.35981-1.1059 0.3122-1.1165 0.26986-1.1271 0.22223-1.143 0.17991-1.1429 0.13758-1.1535 0.0847-1.1588 0.0423-1.1641-5e-3 -1.1641-0.0476-1.1694-0.0952-1.1694-0.14816-1.1641-0.19049-1.1641-0.23811-1.1588-0.29103-1.1535-0.33336-1.1482-0.38627-1.1324-0.4286-1.1324-0.48681-1.1165 0.11641 0.0476zm26.7-12.387c0.0212-5e-3 0.0476-0.0106 0.0688 0s0.037 0.0265 0.0476 0.0476l0.48152 1.1218 0.43918 1.1324 0.38628 1.1429 0.33335 1.1588 0.29103 1.1588 0.2434 1.1641 0.19049 1.1694 0.14287 1.1747 0.10054 1.1694 0.0476 1.1747 5e-3 1.1747-0.0423 1.1694-0.09 1.1641-0.13229 1.1641-0.17991 1.1535-0.22753 1.143-0.26986 1.1376-0.31219 1.1218-0.3651 1.1112-0.40215 1.1006-0.44448 1.0794-0.4921 1.0636-0.53443 1.0477-0.57676 1.0265-0.61909 1.0054-0.66143 0.98419-0.70375 0.96304-0.74079 0.93128-0.78842 0.91012-0.82546 0.87837-0.86779 0.85192-0.91541 0.81487-0.58205 0.48681-0.59264 0.47622-0.59793 0.45506-0.60851 0.44448-0.6138 0.41802-0.62438 0.40744-0.62968 0.38627-0.63496 0.3704-0.64555 0.34923-0.65084 0.33336-0.65614 0.32277-0.66142 0.29632-0.67201 0.28044-0.672 0.26457-0.6773 0.25399-0.68259 0.22753-0.68259 0.21166-0.68788 0.19578-0.69318 0.18519-0.69846 0.15875-0.69846 0.14816-0.70376 0.12699-0.69846 0.10583-0.70376 0.0952-0.70904 0.0794-0.70905 0.0582-0.70376 0.0423-0.70904 0.0265-0.70905 5e-3 -0.70905-5e-3 -0.70375-0.0265-0.70905-0.0423-0.70904-0.0582-0.70376-0.0741-0.69846-0.0952-0.70377-0.10583-0.69846-0.12699-0.69317-0.14287-0.68788-0.16403-0.69318-0.17462-0.68259-0.19049-0.68259-0.21165-0.672-0.22224-0.67201-0.2434-0.66671-0.25928-0.66143-0.27516-0.65084-0.29631-0.65084-0.3069-0.64026-0.32278-0.63497-0.34394-0.62967-0.35981-0.61909-0.37569-0.61381-0.38628-0.60321-0.40743-0.59793-0.4286-0.58735-0.4339-0.58205-0.46035-0.57147-0.47093-0.5556-0.4921-0.5503-0.50269-0.53972-0.51855-0.52914-0.53972-0.51327-0.55031-0.50797-0.57147c-0.0159-0.0159-0.0212-0.037-0.0212-0.0635 0-0.0212 0.0106-0.0423 0.0265-0.0582l22.245-19.271c0.0106-5e-3 0.0159-0.0106 0.0212-0.0159z" fill="#a37902" stroke="#a37902" stroke-linejoin="bevel" stroke-width=".042331px"/>
<path d="m141.91 143.63-29.134 4.1881c0.80429 5.5851 3.1934 10.824 6.8894 15.086z" fill="#2d9449" fill-rule="evenodd"/>
<path d="m141.86 143.57 0.0661 0.14816-29.134 4.1881 0.0714-0.0979 0.16932 1.0424 0.20637 1.0318 0.24076 1.0212 0.2778 1.0107 0.31219 0.99743 0.34923 0.98684 0.38098 0.97362 0.41802 0.95509 0.44977 0.94452 0.48416 0.92335 0.51591 0.91011 0.55295 0.88896 0.57941 0.87043 0.61115 0.85192 0.6482 0.83075 0.67465 0.80693-0.11905-0.0106zm-22.137 19.404c-0.0159 0.0132-0.0397 0.0212-0.0609 0.0185-0.0238 0-0.045-0.0106-0.0582-0.0291l-0.67994-0.81223-0.65084-0.83604-0.6138-0.85721-0.5847-0.87572-0.55295-0.89425-0.5212-0.91541-0.48417-0.92864-0.45506-0.9498-0.41802-0.96039-0.38627-0.97891-0.34923-0.99214-0.31219-1.0027-0.28309-1.016-0.24076-1.0265-0.20636-1.0371-0.16933-1.0424c-3e-3 -0.0238 3e-3 -0.0476 0.0159-0.0635 0.0132-0.0185 0.0317-0.0318 0.0556-0.0344l29.134-4.1881c0.037-5e-3 0.0741 0.0132 0.09 0.0476 0.0132 0.0344 5e-3 0.0741-0.0238 0.10054z" fill="#1e6c33" stroke="#1e6c33" stroke-linejoin="bevel" stroke-width=".042331px"/>
<path d="m141.91 143.63-26.774-12.228c-2.3441 5.1326-3.1642 10.831-2.36 16.417z" fill="#e26001" fill-rule="evenodd"/>
<path d="m141.9 143.55-0.0238 0.16139-26.774-12.228 0.11376-0.045-0.42066 0.96832-0.38628 0.97891-0.34658 0.98949-0.31484 1.0001-0.2778 1.0107-0.23811 1.0159-0.20372 1.0265-0.16668 1.0292-0.13228 1.0371-0.0926 1.0398-0.0556 1.0424-0.0185 1.0477 0.0185 1.0477 0.0556 1.0477 0.0926 1.0477 0.13228 1.0424-0.0952-0.0714zm-29.111 4.3548c-0.0212 3e-3 -0.045-3e-3 -0.0635-0.0159-0.0185-0.0132-0.0291-0.0344-0.0317-0.0582l-0.13228-1.0503-0.0926-1.053-0.0582-1.053-0.0185-1.053 0.0212-1.053 0.0556-1.0477 0.0926-1.0504 0.13228-1.0424 0.16668-1.0345 0.20372-1.0318 0.2434-1.0212 0.2778-1.016 0.31484-1.0054 0.35188-0.99478 0.38627-0.9842 0.42066-0.96832c0.0106-0.0212 0.0265-0.037 0.0476-0.045 0.0212-8e-3 0.045-8e-3 0.0661 0l26.774 12.228c0.0344 0.0159 0.0529 0.0529 0.0476 0.0899-5e-3 0.037-0.0344 0.0661-0.0714 0.0714z" fill="#a64400" stroke="#a64400" stroke-linejoin="bevel" stroke-width=".042331px"/>
<path d="m141.91 143.63v-29.436c-11.522 0-21.986 6.7254-26.774 17.208z" fill="#3da7af" fill-rule="evenodd"/>
<path d="m141.95 143.56-0.1217 0.0767v-29.436l0.0873 0.0847-1.0768 0.0185-1.0662 0.0609-1.0609 0.0952-1.0477 0.13493-1.0398 0.17197-1.0318 0.20901-1.0186 0.2434-1.008 0.2778-0.99478 0.31484-0.97891 0.34923-0.96568 0.38363-0.95245 0.41537-0.93393 0.44712-0.91541 0.48416-0.89954 0.51062-0.87837 0.54502-0.86249 0.57411-0.83869 0.60322-0.81752 0.63761-0.79635 0.66143-0.77255 0.69053-0.74873 0.72227-0.72757 0.74609-0.69846 0.77254-0.67201 0.80165-0.6429 0.82545-0.61909 0.84927-0.58735 0.87573-0.55824 0.89953-0.52914 0.92335-0.49474 0.94716-0.46565 0.96832-0.0397-0.11376zm-26.846-12.072c-0.0212-0.0106-0.037-0.0291-0.045-0.0503s-5e-3 -0.045 5e-3 -0.0635l0.46564-0.97362 0.50004-0.95245 0.52914-0.92864 0.56353-0.90482 0.59264-0.88102 0.61909-0.85456 0.6482-0.83075 0.67729-0.80694 0.70376-0.77783 0.72757-0.75138 0.75402-0.72227 0.77783-0.69582 0.80165-0.66672 0.82281-0.63761 0.84398-0.60851 0.86779-0.57941 0.88366-0.54501 0.90483-0.51591 0.9207-0.48416 0.93922-0.45242 0.95774-0.41537 0.97097-0.38892 0.9842-0.34923 1.0001-0.31484 1.0133-0.28309 1.0239-0.2434 1.0371-0.20901 1.045-0.17197 1.0583-0.13493 1.0662-0.0952 1.0715-0.0635 1.0768-0.0185c0.0212 0 0.045 0.0106 0.0609 0.0265s0.0238 0.037 0.0238 0.0582v29.436c0 0.0291-0.0132 0.0582-0.037 0.0714-0.0238 0.0159-0.0556 0.0185-0.082 8e-3z" fill="#2a7a80" stroke="#2a7a80" stroke-linejoin="bevel" stroke-width=".042331px"/>
<text x="144.03175" y="121.22586" fill="#000000" font-family="Arial" font-size="3.5057px" font-weight="400" letter-spacing="0px" stroke-width=".26458" word-spacing="0px" style="line-height:125%" xml:space="preserve"><tspan x="144.03175" y="121.22586" stroke-width=".26458"><tspan dx="0" dy="0" fill="#000000" font-family="Arial" font-size="3.5057px" font-weight="400" stroke-width=".26458">1; 9%</tspan></tspan></text>
<text x="155.40825" y="129.95665" fill="#000000" font-family="Arial" font-size="3.5057px" font-weight="400" letter-spacing="0px" stroke-width=".26458" word-spacing="0px" style="line-height:125%" xml:space="preserve"><tspan x="155.40825" y="129.95665" stroke-width=".26458"><tspan dx="0" dy="0" fill="#000000" font-family="Arial" font-size="3.5057px" font-weight="400" stroke-width=".26458">1; 9%</tspan></tspan></text>
<text x="150.65306" y="160.64673" fill="#000000" font-family="Arial" font-size="3.5057px" font-weight="400" letter-spacing="0px" stroke-width=".26458" word-spacing="0px" style="line-height:125%" xml:space="preserve"><tspan x="150.65306" y="160.64673" stroke-width=".26458"><tspan dx="0" dy="0" fill="#000000" font-family="Arial" font-size="3.5057px" font-weight="400" stroke-width=".26458">5; 46%</tspan></tspan></text>
<text x="115.72281" y="153.50334" fill="#000000" font-family="Arial" font-size="3.5057px" font-weight="400" letter-spacing="0px" stroke-width=".26458" word-spacing="0px" style="line-height:125%" xml:space="preserve"><tspan x="115.72281" y="153.50334" stroke-width=".26458"><tspan dx="0" dy="0" fill="#000000" font-family="Arial" font-size="3.5057px" font-weight="400" stroke-width=".26458">1; 9%</tspan></tspan></text>
<text x="114.13539" y="142.12686" fill="#000000" font-family="Arial" font-size="3.5057px" font-weight="400" letter-spacing="0px" stroke-width=".26458" word-spacing="0px" style="line-height:125%" xml:space="preserve"><tspan x="114.13539" y="142.12686" stroke-width=".26458"><tspan dx="0" dy="0" fill="#000000" font-family="Arial" font-size="3.5057px" font-weight="400" stroke-width=".26458">1; 9%</tspan></tspan></text>
<text x="123.13782" y="126.25268" fill="#000000" font-family="Arial" font-size="3.5057px" font-weight="400" letter-spacing="0px" stroke-width=".26458" word-spacing="0px" style="line-height:125%" xml:space="preserve"><tspan x="123.13782" y="126.25268" stroke-width=".26458"><tspan dx="0" dy="0" fill="#000000" font-family="Arial" font-size="3.5057px" font-weight="400" stroke-width=".26458">2; 18%</tspan></tspan></text>
<path d="m176.88 118.47v1.7779h1.7779v-1.7779z" fill="#3975d8" fill-rule="evenodd"/>
<path d="m176.79 118.47c0-0.045 0.0397-0.0847 0.0847-0.0847h1.7779c0.0476 0 0.0847 0.0397 0.0847 0.0847v1.7779c0 0.0476-0.037 0.0847-0.0847 0.0847h-1.7779c-0.045 0-0.0847-0.037-0.0847-0.0847zm0.16933 1.7779-0.0847-0.0847h1.7779l-0.0847 0.0847v-1.7779l0.0847 0.0847h-1.7779l0.0847-0.0847z" fill="#27549e" stroke="#27549e" stroke-linejoin="bevel" stroke-width=".042331px"/>
<text x="179.41672" y="120.46671" fill="#000000" font-family="Arial" font-size="3.5057px" font-weight="400" letter-spacing="0px" stroke-width=".26458" word-spacing="0px" style="line-height:125%" xml:space="preserve"><tspan x="179.41672" y="120.46671" stroke-width=".26458"><tspan dx="0" dy="0" fill="#000000" font-family="Arial" font-size="3.5057px" font-weight="400" stroke-width=".26458">French</tspan></tspan></text>
<path d="m176.88 128.29v1.7779h1.7779v-1.7779z" fill="#cf3a2e" fill-rule="evenodd"/>
<path d="m176.79 128.29c0-0.045 0.0397-0.0847 0.0847-0.0847h1.7779c0.0476 0 0.0847 0.0397 0.0847 0.0847v1.7779c0 0.0476-0.037 0.0847-0.0847 0.0847h-1.7779c-0.045 0-0.0847-0.037-0.0847-0.0847zm0.16933 1.7779-0.0847-0.0847h1.7779l-0.0847 0.0847v-1.7779l0.0847 0.0847h-1.7779l0.0847-0.0847z" fill="#98281f" stroke="#98281f" stroke-linejoin="bevel" stroke-width=".042331px"/>
<text x="179.41672" y="130.30661" fill="#000000" font-family="Arial" font-size="3.5057px" font-weight="400" letter-spacing="0px" stroke-width=".26458" word-spacing="0px" style="line-height:125%" xml:space="preserve"><tspan x="179.41672" y="130.30661" stroke-width=".26458"><tspan dx="0" dy="0" fill="#000000" font-family="Arial" font-size="3.5057px" font-weight="400" stroke-width=".26458">Greek</tspan></tspan></text>
<path d="m176.88 138.15v1.7779h1.7779v-1.7779z" fill="#dea603" fill-rule="evenodd"/>
<path d="m176.79 138.15c0-0.045 0.0397-0.0847 0.0847-0.0847h1.7779c0.0476 0 0.0847 0.0397 0.0847 0.0847v1.7779c0 0.0476-0.037 0.0847-0.0847 0.0847h-1.7779c-0.045 0-0.0847-0.037-0.0847-0.0847zm0.16933 1.7779-0.0847-0.0847h1.7779l-0.0847 0.0847v-1.7779l0.0847 0.0847h-1.7779l0.0847-0.0847z" fill="#a37902" stroke="#a37902" stroke-linejoin="bevel" stroke-width=".042331px"/>
<text x="179.41672" y="140.14651" fill="#000000" font-family="Arial" font-size="3.5057px" font-weight="400" letter-spacing="0px" stroke-width=".26458" word-spacing="0px" style="line-height:125%" xml:space="preserve"><tspan x="179.41672" y="140.14651" stroke-width=".26458"><tspan dx="0" dy="0" fill="#000000" font-family="Arial" font-size="3.5057px" font-weight="400" stroke-width=".26458">Italian</tspan></tspan></text>
<path d="m176.88 147.97v1.7779h1.7779v-1.7779z" fill="#2d9449" fill-rule="evenodd"/>
<path d="m176.79 147.97c0-0.045 0.0397-0.0847 0.0847-0.0847h1.7779c0.0476 0 0.0847 0.0397 0.0847 0.0847v1.7779c0 0.0476-0.037 0.0847-0.0847 0.0847h-1.7779c-0.045 0-0.0847-0.037-0.0847-0.0847zm0.16933 1.7779-0.0847-0.0847h1.7779l-0.0847 0.0847v-1.7779l0.0847 0.0847h-1.7779l0.0847-0.0847z" fill="#1e6c33" stroke="#1e6c33" stroke-linejoin="bevel" stroke-width=".042331px"/>
<text x="179.41672" y="149.98642" fill="#000000" font-family="Arial" font-size="3.5057px" font-weight="400" letter-spacing="0px" stroke-width=".26458" word-spacing="0px" style="line-height:125%" xml:space="preserve"><tspan x="179.41672" y="149.98642" stroke-width=".26458"><tspan dx="0" dy="0" fill="#000000" font-family="Arial" font-size="3.5057px" font-weight="400" stroke-width=".26458">Russian</tspan></tspan></text>
<path d="m176.88 157.84v1.7779h1.7779v-1.7779z" fill="#e26001" fill-rule="evenodd"/>
<path d="m176.79 157.84c0-0.045 0.0397-0.0847 0.0847-0.0847h1.7779c0.0476 0 0.0847 0.0397 0.0847 0.0847v1.7779c0 0.0476-0.037 0.0847-0.0847 0.0847h-1.7779c-0.045 0-0.0847-0.037-0.0847-0.0847zm0.16933 1.7779-0.0847-0.0847h1.7779l-0.0847 0.0847v-1.7779l0.0847 0.0847h-1.7779l0.0847-0.0847z" fill="#a64400" stroke="#a64400" stroke-linejoin="bevel" stroke-width=".042331px"/>
<text x="179.41672" y="159.82632" fill="#000000" font-family="Arial" font-size="3.5057px" font-weight="400" letter-spacing="0px" stroke-width=".26458" word-spacing="0px" style="line-height:125%" xml:space="preserve"><tspan x="179.41672" y="159.82632" stroke-width=".26458"><tspan dx="0" dy="0" fill="#000000" font-family="Arial" font-size="3.5057px" font-weight="400" stroke-width=".26458">Traditional Chinese/English</tspan></tspan></text>
<path d="m176.88 167.66v1.7779h1.7779v-1.7779z" fill="#3da7af" fill-rule="evenodd"/>
<path d="m176.79 167.66c0-0.045 0.0397-0.0847 0.0847-0.0847h1.7779c0.0476 0 0.0847 0.0397 0.0847 0.0847v1.7779c0 0.0476-0.037 0.0847-0.0847 0.0847h-1.7779c-0.045 0-0.0847-0.037-0.0847-0.0847zm0.16933 1.7779-0.0847-0.0847h1.7779l-0.0847 0.0847v-1.7779l0.0847 0.0847h-1.7779l0.0847-0.0847z" fill="#2a7a80" stroke="#2a7a80" stroke-linejoin="bevel" stroke-width=".042331px"/>
<text x="179.41672" y="169.66623" fill="#000000" font-family="Arial" font-size="3.5057px" font-weight="400" letter-spacing="0px" stroke-width=".26458" word-spacing="0px" style="line-height:125%" xml:space="preserve"><tspan x="179.41672" y="169.66623" stroke-width=".26458"><tspan dx="0" dy="0" fill="#000000" font-family="Arial" font-size="3.5057px" font-weight="400" stroke-width=".26458">English</tspan></tspan></text>
</g>
</svg>
