<?xml version="1.0" encoding="UTF-8"?>
<svg width="348.61" height="276.26" version="1.1" viewBox="0 0 92.237 73.093" xmlns="http://www.w3.org/2000/svg" xmlns:cc="http://creativecommons.org/ns#" xmlns:dc="http://purl.org/dc/elements/1.1/" xmlns:rdf="http://www.w3.org/1999/02/22-rdf-syntax-ns#">
<defs>
<clipPath id="a">
<path d="m34.718 7.5196h306.22v163.19h-306.22z"/>
</clipPath>
</defs>
<metadata>
<rdf:RDF>
<cc:Work rdf:about="">
<dc:format>image/svg+xml</dc:format>
<dc:type rdf:resource="http://purl.org/dc/dcmitype/StillImage"/>
<dc:title/>
</cc:Work>
</rdf:RDF>
</metadata>
<g transform="translate(-15.267 -108.32)">
<path d="m25.35 111.01v42.924h80.725v-42.924z" fill="#e7e7e7" fill-rule="evenodd"/>
<path d="m25.35 145.26h80.725v0.16932h-80.725zm0-8.5932h80.725v0.16932h-80.725zm0-8.5932h80.725v0.16932h-80.725zm0-8.5932h80.725v0.16932h-80.725zm0-8.5509h80.725v0.16932h-80.725z" fill="#898989" stroke="#898989" stroke-linejoin="bevel" stroke-width=".042331px"/>
<path d="m25.35 119.57v34.373h10.075v-34.373z" fill="#3975d8" fill-rule="evenodd"/>
<path transform="matrix(.26458 0 0 .26458 16.143 109)" d="m34.478 39.918c0-0.16999 0.14999-0.31998 0.31998-0.31998h38.078c0.17999 0 0.31998 0.14999 0.31998 0.31998v129.91c0 0.17999-0.13999 0.31998-0.31998 0.31998h-38.078c-0.16999 0-0.31998-0.13999-0.31998-0.31998zm0.63997 129.91-0.31998-0.31998h38.078l-0.31998 0.31998v-129.91l0.31998 0.31998h-38.078l0.31998-0.31998z" clip-path="url(#a)" fill="#27549e" stroke="#27549e" stroke-linejoin="bevel" stroke-width=".15999px"/>
<path d="m35.425 145.34v8.5932h10.117v-8.5932z" fill="#cf3a2e" fill-rule="evenodd"/>
<path transform="matrix(.26458 0 0 .26458 16.143 109)" d="m72.556 137.35c0-0.17 0.14999-0.31999 0.31998-0.31999h38.238c0.17999 0 0.31998 0.14999 0.31998 0.31999v32.478c0 0.17999-0.13999 0.31998-0.31998 0.31998h-38.238c-0.16999 0-0.31998-0.13999-0.31998-0.31998zm0.63997 32.478-0.31998-0.31998h38.238l-0.31998 0.31998v-32.478l0.31998 0.31998h-38.238l0.31998-0.31998z" clip-path="url(#a)" fill="#98281f" stroke="#98281f" stroke-linejoin="bevel" stroke-width=".15999px"/>
<path d="m55.617 145.34v8.5932h10.075v-8.5932z" fill="#2d9449" fill-rule="evenodd"/>
<path transform="matrix(.26458 0 0 .26458 16.143 109)" d="m148.87 137.35c0-0.17 0.14999-0.31999 0.31998-0.31999h38.078c0.17999 0 0.31999 0.14999 0.31999 0.31999v32.478c0 0.17999-0.14 0.31998-0.31999 0.31998h-38.078c-0.16999 0-0.31998-0.13999-0.31998-0.31998zm0.63996 32.478-0.31998-0.31998h38.078l-0.31998 0.31998v-32.478l0.31998 0.31998h-38.078l0.31998-0.31998z" clip-path="url(#a)" fill="#1e6c33" stroke="#1e6c33" stroke-linejoin="bevel" stroke-width=".15999px"/>
<path d="m25.265 153.94v-42.924h0.16932v42.924z" fill="#898989" stroke="#898989" stroke-linejoin="bevel" stroke-width=".042331px"/>
<path d="m24.249 153.85h1.1006v0.16932h-1.1006zm0-8.5932h1.1006v0.16932h-1.1006zm0-8.5932h1.1006v0.16932h-1.1006zm0-8.5932h1.1006v0.16932h-1.1006zm0-8.5932h1.1006v0.16932h-1.1006zm0-8.5509h1.1006v0.16932h-1.1006z" fill="#898989" stroke="#898989" stroke-linejoin="bevel" stroke-width=".042331px"/>
<path d="m25.35 153.85h80.725v0.16932h-80.725z" fill="#898989" stroke="#898989" stroke-linejoin="bevel" stroke-width=".042331px"/>
<path d="m25.435 153.94v1.0583h-0.16932v-1.0583zm10.075 0v1.0583h-0.16932v-1.0583zm10.117 0v1.0583h-0.16932v-1.0583zm10.075 0v1.0583h-0.16932v-1.0583zm10.075 0v1.0583h-0.16932v-1.0583zm10.117 0v1.0583h-0.16932v-1.0583zm10.075 0v1.0583h-0.16932v-1.0583zm10.117 0v1.0583h-0.16932v-1.0583zm10.075 0v1.0583h-0.16932v-1.0583z" fill="#898989" stroke="#898989" stroke-linejoin="bevel" stroke-width=".042331px"/>
<text x="20.367577" y="155.04497" fill="#000000" font-family="Arial" font-size="3.5057px" font-weight="400" letter-spacing="0px" stroke-width=".26458" word-spacing="0px" style="line-height:125%" xml:space="preserve"><tspan x="20.367577" y="155.04497" stroke-width=".26458"><tspan dx="0" dy="0" fill="#000000" font-family="Arial" font-size="3.5057px" font-weight="400" stroke-width=".26458">0</tspan></tspan></text>
<text x="20.367577" y="146.45934" fill="#000000" font-family="Arial" font-size="3.5057px" font-weight="400" letter-spacing="0px" stroke-width=".26458" word-spacing="0px" style="line-height:125%" xml:space="preserve"><tspan x="20.367577" y="146.45934" stroke-width=".26458"><tspan dx="0" dy="0" fill="#000000" font-family="Arial" font-size="3.5057px" font-weight="400" stroke-width=".26458">1</tspan></tspan></text>
<text x="20.367577" y="137.87369" fill="#000000" font-family="Arial" font-size="3.5057px" font-weight="400" letter-spacing="0px" stroke-width=".26458" word-spacing="0px" style="line-height:125%" xml:space="preserve"><tspan x="20.367577" y="137.87369" stroke-width=".26458"><tspan dx="0" dy="0" fill="#000000" font-family="Arial" font-size="3.5057px" font-weight="400" stroke-width=".26458">2</tspan></tspan></text>
<text x="20.367577" y="129.28806" fill="#000000" font-family="Arial" font-size="3.5057px" font-weight="400" letter-spacing="0px" stroke-width=".26458" word-spacing="0px" style="line-height:125%" xml:space="preserve"><tspan x="20.367577" y="129.28806" stroke-width=".26458"><tspan dx="0" dy="0" fill="#000000" font-family="Arial" font-size="3.5057px" font-weight="400" stroke-width=".26458">3</tspan></tspan></text>
<text x="20.367577" y="120.70241" fill="#000000" font-family="Arial" font-size="3.5057px" font-weight="400" letter-spacing="0px" stroke-width=".26458" word-spacing="0px" style="line-height:125%" xml:space="preserve"><tspan x="20.367577" y="120.70241" stroke-width=".26458"><tspan dx="0" dy="0" fill="#000000" font-family="Arial" font-size="3.5057px" font-weight="400" stroke-width=".26458">4</tspan></tspan></text>
<text x="20.367577" y="112.11677" fill="#000000" font-family="Arial" font-size="3.5057px" font-weight="400" letter-spacing="0px" stroke-width=".26458" word-spacing="0px" style="line-height:125%" xml:space="preserve"><tspan x="20.367577" y="112.11677" stroke-width=".26458"><tspan dx="0" dy="0" fill="#000000" font-family="Arial" font-size="3.5057px" font-weight="400" stroke-width=".26458">5</tspan></tspan></text>
<path d="m18.585 170.96-0.21959 0.21695-1.3916-1.389c-0.0026 0.10053-0.02117 0.21959-0.05556 0.35717-0.03439 0.13493-0.07408 0.24869-0.11641 0.34129l-0.21166-0.21165c0.0635-0.17991 0.10318-0.35453 0.11112-0.52914 0.01058-0.17197-0.0053-0.31484-0.04233-0.43125l0.14022-0.14022zm2.2727-1.2276c-0.27251-0.0317-0.55295-0.10848-0.83868-0.22753-0.28838-0.1217-0.53972-0.29103-0.75932-0.51062-0.19049-0.19049-0.34394-0.40744-0.4577-0.64555-0.13228-0.2778-0.22488-0.59264-0.27515-0.94716l0.1561-0.15874c0.07143 0.26722 0.12699 0.45241 0.16668 0.5556 0.06085 0.16138 0.14022 0.31483 0.23282 0.46564 0.11641 0.1852 0.25134 0.35452 0.40479 0.50797 0.38892 0.38892 0.89689 0.65613 1.5266 0.80429zm-0.10583-0.93922-1.7779-1.7779 0.24076-0.24341 2.3309 0.463-1.3969-1.3969 0.22488-0.22488 1.7779 1.7779-0.24076 0.24076-2.3309-0.463 1.3969 1.3996zm1.045-2.3335c-0.23811-0.23811-0.34923-0.48151-0.33071-0.73021 0.01587-0.20636 0.10318-0.38892 0.26192-0.54766 0.17726-0.17726 0.37833-0.26457 0.60851-0.25928 0.22753 3e-3 0.44448 0.10583 0.6482 0.31219 0.16668 0.16404 0.27251 0.32013 0.31748 0.46565 0.04498 0.14551 0.04762 0.29102 0.0053 0.43918-0.04498 0.14552-0.1217 0.2778-0.23282 0.38892-0.17991 0.17991-0.38362 0.26722-0.61116 0.26457-0.22753-5e-3 -0.44977-0.11641-0.66672-0.33336zm0.22488-0.22488c0.16403 0.16403 0.32278 0.25134 0.47887 0.26192 0.15345 0.0106 0.28574-0.0397 0.39421-0.14816 0.10847-0.10847 0.1561-0.23811 0.14551-0.39421-0.01058-0.15345-0.10054-0.31483-0.26722-0.48416-0.16139-0.16138-0.31748-0.2434-0.47093-0.25398-0.1561-0.0106-0.28574 0.0397-0.39421 0.14551-0.10847 0.11112-0.15874 0.24076-0.14816 0.39421 0.0079 0.15345 0.09525 0.31484 0.26192 0.47887zm2.188-1.2911 0.22488 0.16139c-0.04762 0.0741-0.09789 0.13493-0.14551 0.18519-0.07937 0.0767-0.15345 0.127-0.22224 0.14552-0.06879 0.0185-0.13228 0.0159-0.19049-8e-3 -0.0582-0.0212-0.15345-0.0979-0.28574-0.23017l-0.7408-0.7408-0.15874 0.16139-0.16932-0.17197 0.15874-0.15874-0.32013-0.32013 0.08731-0.34659 0.44977 0.44977 0.21959-0.21959 0.16932 0.16932-0.21959 0.21959 0.75402 0.75403c0.0635 0.0609 0.10583 0.0979 0.13228 0.10847 0.02381 0.0106 0.05291 0.0106 0.07937 5e-3 0.0291-8e-3 0.05821-0.0265 0.08995-0.0609 0.02381-0.0238 0.05291-0.0582 0.08731-0.10318zm1.7779-1.7038c-0.01323 0.14816-0.04233 0.27515-0.08731 0.37834-0.04762 0.10318-0.11376 0.19842-0.19843 0.28308-0.14287 0.14023-0.28574 0.21695-0.43125 0.22224-0.14551 8e-3 -0.26986-0.0423-0.37833-0.1508-0.0635-0.0635-0.10583-0.13493-0.12964-0.21695-0.02381-0.0794-0.0291-0.15874-0.01323-0.23811 0.01587-0.0767 0.04233-0.15345 0.08466-0.22753 0.03175-0.0556 0.08731-0.12964 0.16139-0.22753 0.1561-0.19578 0.26192-0.35188 0.31484-0.463-0.0291-0.0317-0.04762-0.0503-0.05556-0.0582-0.08995-0.09-0.17197-0.13229-0.2487-0.127-0.10583 5e-3 -0.2143 0.0635-0.32278 0.17462-0.10318 0.10318-0.16139 0.19578-0.17462 0.28044-0.01323 0.0847 0.01587 0.1852 0.08202 0.29897l-0.24076 0.1852c-0.07408-0.11112-0.11641-0.21695-0.12699-0.31749-0.01058-0.10054 0.01058-0.20636 0.0635-0.32277 0.05291-0.11377 0.13493-0.22753 0.24605-0.33601 0.11112-0.11112 0.21166-0.18784 0.3069-0.23017 0.09525-0.0423 0.17726-0.0609 0.2487-0.0529 0.07143 5e-3 0.14551 0.0317 0.21695 0.0794 0.04498 0.0291 0.11641 0.0926 0.2143 0.1905l0.29103 0.29102c0.20107 0.20372 0.336 0.32807 0.39686 0.3704 0.0635 0.045 0.13493 0.0794 0.21166 0.10054l-0.22753 0.22753c-0.06879-0.0212-0.13758-0.0609-0.20372-0.11377zm-0.50533-0.47093c-0.04762 0.11111-0.14022 0.25928-0.27515 0.43918-0.07672 0.10318-0.12435 0.17991-0.14551 0.23547-0.02116 0.0529-0.02646 0.10583-0.01587 0.15609 0.01058 0.0503 0.03439 0.0952 0.07408 0.13494 0.0582 0.0582 0.12699 0.0847 0.21166 0.0794 0.08202-5e-3 0.16668-0.0503 0.25134-0.13493 0.08466-0.0847 0.14022-0.17727 0.16932-0.28045 0.0291-0.10318 0.02646-0.20107-0.0079-0.29632-0.02646-0.0714-0.08731-0.15609-0.18255-0.25398zm1.4816-0.57941 0.22488 0.16139c-0.04762 0.0741-0.09789 0.13493-0.14551 0.1852-0.07937 0.0794-0.15345 0.12699-0.22224 0.14551-0.06879 0.0185-0.13228 0.0159-0.19049-5e-3 -0.05821-0.0238-0.15345-0.10054-0.28574-0.23282l-0.7408-0.7408-0.15874 0.16139-0.17197-0.17197 0.16139-0.15874-0.32013-0.32013 0.08731-0.34659 0.44977 0.44977 0.21959-0.21959 0.16932 0.16932-0.21959 0.21959 0.75402 0.75403c0.06085 0.0608 0.10583 0.0979 0.13228 0.10847 0.02381 0.0106 0.05027 0.0106 0.07937 5e-3 0.02646-8e-3 0.0582-0.0265 0.08995-0.0608 0.02381-0.0238 0.05291-0.0582 0.08731-0.10318zm1.807-1.7356c-0.01058 0.15081-0.04233 0.2778-0.08731 0.38098-0.04762 0.10319-0.11376 0.19579-0.19843 0.28309-0.14287 0.14022-0.28574 0.2143-0.43125 0.22224-0.14287 8e-3 -0.26986-0.0423-0.37834-0.1508-0.0635-0.0635-0.10583-0.13493-0.12964-0.21695-0.02381-0.0794-0.02646-0.15874-0.01323-0.23811 0.01587-0.0767 0.04498-0.15345 0.08731-0.22753 0.0291-0.0556 0.08466-0.12964 0.16139-0.22753 0.15345-0.19843 0.25928-0.35188 0.31219-0.46564-0.0291-0.0291-0.04762-0.0503-0.05556-0.0582-0.08731-0.0873-0.17197-0.12964-0.2487-0.12435-0.10583 5e-3 -0.2143 0.0635-0.32278 0.17462-0.10318 0.10318-0.16139 0.19578-0.17462 0.28044-0.01323 0.0847 0.01587 0.1852 0.08202 0.29896l-0.24076 0.1852c-0.07408-0.11112-0.11376-0.21694-0.12699-0.31748-0.01058-0.10054 0.01058-0.20901 0.0635-0.32278 0.05291-0.11376 0.13493-0.22752 0.24605-0.33864 0.11112-0.10848 0.2143-0.1852 0.3069-0.22754 0.09525-0.0423 0.17991-0.0608 0.25134-0.0556 0.07143 8e-3 0.14287 0.0344 0.2143 0.082 0.04498 0.0291 0.11641 0.0926 0.2143 0.19049l0.29103 0.29103c0.20107 0.20372 0.336 0.32542 0.3995 0.3704 0.06085 0.045 0.13228 0.0794 0.20901 0.10053l-0.22753 0.22753c-0.06879-0.0238-0.13493-0.0608-0.20372-0.11641zm-0.50533-0.46829c-0.04762 0.11112-0.13758 0.25928-0.27515 0.43919-0.07673 0.10318-0.12435 0.17991-0.14551 0.23282-0.02117 0.0556-0.02646 0.10583-0.01587 0.15874 0.01058 0.0503 0.03439 0.0952 0.07408 0.13493 0.0582 0.0582 0.12964 0.0847 0.21166 0.0794 0.08202-5e-3 0.16668-0.0503 0.25134-0.13758 0.08466-0.082 0.14022-0.17726 0.16932-0.2778 0.0291-0.10318 0.02646-0.20107-0.0079-0.29632-0.02381-0.0714-0.08466-0.15609-0.18255-0.25398zm1.1959 0.0979-1.7779-1.7806 0.21695-0.21694 1.7806 1.7779zm0.56882-0.56882-1.7779-1.7779 0.21695-0.21959 1.7806 1.7779zm1.2091-0.16403-0.1561 0.15609c-0.14551-0.62967-0.41273-1.1403-0.80165-1.5292-0.15345-0.1508-0.32277-0.28573-0.50533-0.3995-0.14816-0.0952-0.30426-0.17197-0.46564-0.23547-0.10318-0.0397-0.29103-0.0952-0.55824-0.16668l0.1561-0.15873c0.35452 0.0529 0.67201 0.14286 0.9498 0.27515 0.23811 0.11376 0.45241 0.26721 0.64555 0.46035 0.21695 0.21694 0.38627 0.47093 0.50797 0.75931 0.11906 0.28574 0.19578 0.56618 0.22753 0.83869z"/>
<path d="m40.991 158.22 0.20901 0.21165-1.1747 1.1747c-0.05291-0.0503-0.09525-0.11112-0.12699-0.17726-0.04762-0.11112-0.07937-0.23547-0.0926-0.38098-0.01058-0.14287-0.0053-0.32807 0.01852-0.55295 0.03439-0.35188 0.03969-0.60851 0.01323-0.7699-0.02381-0.16138-0.07672-0.28309-0.15874-0.3651-0.08731-0.0847-0.19049-0.127-0.31219-0.12435-0.1217 3e-3 -0.23282 0.0529-0.33071 0.1508-0.10583 0.10583-0.15874 0.22224-0.15874 0.34923 0 0.12435 0.05556 0.24341 0.16668 0.35717l-0.2487 0.20108c-0.1508-0.18256-0.22224-0.36775-0.20901-0.5556 0.01323-0.18784 0.10318-0.36775 0.27251-0.53708 0.17197-0.16932 0.35452-0.25663 0.54766-0.26192 0.19314-5e-3 0.35982 0.0608 0.50004 0.20107 0.07143 0.0714 0.12699 0.1561 0.16668 0.25399 0.03969 0.0979 0.0635 0.21959 0.07143 0.36246 0.01058 0.14287 0.0026 0.35982-0.02381 0.65084-0.02117 0.24076-0.0291 0.3995-0.02646 0.47358 0 0.0767 0.01058 0.14816 0.02381 0.21166z"/>
<path d="m49.68 159.11 0.19049-0.2487c0.14816 0.0979 0.28044 0.14552 0.39421 0.14023 0.11641-5e-3 0.21695-0.0529 0.30161-0.14023 0.10318-0.10053 0.1561-0.22488 0.15345-0.3651 0-0.14287-0.05291-0.26722-0.1561-0.3704-0.10054-0.10053-0.21694-0.1508-0.34659-0.1508-0.13228 0-0.2487 0.0503-0.34923 0.15345-0.03969 0.0397-0.08466 0.10053-0.12964 0.17726l-0.16668-0.21695c0.01587-0.0106 0.0291-0.0238 0.03704-0.0317 0.0926-0.0926 0.15345-0.20107 0.17991-0.32277 0.02381-0.12435-0.01323-0.23547-0.11377-0.336-0.07937-0.082-0.17462-0.12171-0.28044-0.11906-0.10583 3e-3 -0.20372 0.045-0.28838 0.13228-0.08466 0.0847-0.12964 0.18256-0.13228 0.29103-0.0026 0.11112 0.03968 0.22753 0.12964 0.34923l-0.25663 0.17991c-0.11906-0.17197-0.17197-0.34659-0.15874-0.5212 0.01588-0.17726 0.0926-0.33336 0.23282-0.47358 0.09789-0.0979 0.20901-0.16668 0.33071-0.20637 0.12435-0.0397 0.2434-0.045 0.35717-0.0185 0.11641 0.0291 0.2143 0.0847 0.29632 0.16667 0.07673 0.0767 0.12435 0.16668 0.14816 0.26986 0.02117 0.10583 0.01058 0.21695-0.03439 0.33336 0.12964-0.0794 0.26192-0.11112 0.39685-0.0926 0.13493 0.0185 0.25928 0.0847 0.37304 0.19843 0.1561 0.15609 0.23017 0.34394 0.22488 0.56618-0.0053 0.21959-0.0926 0.41802-0.26721 0.58999-0.1561 0.1561-0.33071 0.24076-0.52649 0.24869-0.19843 0.0106-0.37569-0.0503-0.53972-0.18255z"/>
<path d="m60.943 158.88-0.42596-0.42596-0.7699 0.77254-0.20107-0.20107-0.34129-1.9631 0.17991-0.17991 1.1509 1.1535 0.24076-0.24076 0.20107 0.20107-0.24076 0.23812 0.42596 0.42595zm-0.62438-0.62704-0.80164-0.80164 0.2434 1.3599z"/>
<path d="m69.872 159.12 0.20901-0.2487c0.12964 0.0952 0.25399 0.14022 0.3704 0.13493 0.11906-5e-3 0.22224-0.0529 0.30955-0.14022 0.10318-0.10583 0.15345-0.23282 0.14816-0.38627-0.0079-0.15081-0.07673-0.29367-0.20636-0.42331-0.12435-0.12435-0.25928-0.18785-0.3995-0.19049-0.14287-3e-3 -0.26986 0.0529-0.38363 0.16668-0.07143 0.0714-0.11906 0.1508-0.14287 0.23811-0.02381 0.0899-0.02646 0.17462-0.0079 0.25928l-0.23282 0.17726-0.7408-1.0847 0.88366-0.88631 0.20901 0.20901-0.70905 0.70905 0.38098 0.57412c0.03175-0.17991 0.10847-0.32807 0.22488-0.44712 0.1561-0.1561 0.34129-0.23283 0.5556-0.23018 0.2143 0 0.40479 0.0847 0.57412 0.25399 0.16139 0.16138 0.25399 0.34658 0.27515 0.55824 0.03175 0.25663-0.05291 0.48416-0.2487 0.68259-0.16403 0.16139-0.34129 0.24869-0.53178 0.25928-0.19314 0.0132-0.37304-0.0503-0.53708-0.1852z"/>
<path d="m80.222 157.11-0.19843 0.23282c-0.10583-0.0661-0.19578-0.10053-0.26986-0.10318-0.1217-5e-3 -0.22488 0.037-0.31219 0.12435-0.06879 0.0688-0.11112 0.15081-0.12435 0.24076-0.01852 0.11906 0 0.24605 0.05556 0.38362 0.05821 0.13494 0.17461 0.29368 0.34923 0.47094-0.02646-0.13229-0.02117-0.25399 0.01588-0.3704 0.03704-0.11376 0.09789-0.2143 0.17991-0.29632 0.14551-0.14551 0.32278-0.21694 0.53443-0.21165 0.20901 5e-3 0.39685 0.0926 0.56882 0.26192 0.11112 0.11112 0.19049 0.24076 0.23811 0.38363 0.04762 0.14286 0.05556 0.28309 0.02116 0.41802-0.03175 0.13493-0.10318 0.25663-0.20901 0.36246-0.18255 0.18255-0.39685 0.26457-0.64555 0.24605-0.2487-0.0212-0.52649-0.18256-0.83604-0.48946-0.3413-0.34394-0.52914-0.65878-0.55824-0.94186-0.02381-0.24605 0.05556-0.463 0.24341-0.65085 0.14022-0.14022 0.29367-0.2143 0.463-0.22753 0.16668-0.0106 0.32806 0.045 0.48416 0.16668zm-0.12435 1.6562c0.07672 0.0767 0.16403 0.13228 0.26457 0.16932 0.10054 0.037 0.19843 0.045 0.29103 0.0238 0.0926-0.0212 0.17197-0.0635 0.23547-0.12699 0.08995-0.0926 0.13228-0.20901 0.12435-0.34923-0.0079-0.14287-0.07408-0.27515-0.20372-0.40479-0.1217-0.1217-0.25134-0.1852-0.38892-0.19049-0.13493-5e-3 -0.25399 0.0423-0.35188 0.14022-0.10054 0.0979-0.14816 0.21695-0.14551 0.35717 0.0026 0.14022 0.06085 0.26721 0.17462 0.38098z"/>
<path d="m88.995 158.02-0.20901-0.21165 1.1509-1.1509 0.16933 0.17197c0.0079 0.23282 0.05556 0.50533 0.14551 0.81487 0.08731 0.3122 0.20636 0.60322 0.35717 0.87573 0.10583 0.19049 0.24076 0.38363 0.40479 0.57147l-0.22224 0.22488c-0.13758-0.14286-0.28044-0.33864-0.42596-0.58998-0.14551-0.25135-0.26192-0.51592-0.34659-0.799-0.08466-0.2831-0.13758-0.54237-0.1508-0.77784z"/>
<path d="m79.206 179.07c-0.12699 0.0582-0.23811 0.0794-0.34394 0.0635-0.10583-0.0212-0.20107-0.0741-0.28574-0.15875-0.13228-0.12699-0.19578-0.28573-0.19049-0.46564 0.0053-0.1799 0.08466-0.34923 0.23811-0.50268 0.15874-0.15345 0.32807-0.23282 0.51326-0.23811 0.1852-5e-3 0.34394 0.0582 0.47094 0.1852 0.08466 0.0847 0.13229 0.17461 0.14816 0.28044 0.02117 0.10583 0 0.21695-0.05291 0.33865 0.14287-0.0741 0.28574-0.10054 0.42331-0.0741 0.13228 0.0212 0.25928 0.0847 0.36511 0.19578 0.15345 0.15345 0.22753 0.33336 0.22224 0.54501 0 0.21166-0.08995 0.40215-0.26986 0.58206-0.17462 0.17461-0.36511 0.26457-0.57676 0.26457-0.21166 5e-3 -0.39685-0.0688-0.5503-0.22753-0.11641-0.11112-0.1852-0.23811-0.20636-0.37569-0.01588-0.13758 0.01058-0.27515 0.09524-0.41273zm-0.41802-0.32277c0.08466 0.0847 0.17991 0.1217 0.29103 0.1217 0.10583 0 0.20107-0.0423 0.29103-0.127 0.08466-0.0847 0.12699-0.1799 0.12699-0.29102 0-0.10583-0.03704-0.19578-0.11641-0.27515-0.07937-0.0794-0.17462-0.11642-0.28574-0.11642-0.10583 0-0.20636 0.0423-0.28573 0.127-0.08466 0.0794-0.127 0.17461-0.127 0.28573-0.0053 0.10583 0.03175 0.20108 0.10583 0.27516zm0.75138 0.88895c0.0635 0.0635 0.13758 0.11112 0.22753 0.13758 0.08466 0.0264 0.17462 0.0317 0.26457 5e-3 0.08995-0.0265 0.16933-0.0741 0.23811-0.14287 0.10583-0.10583 0.15874-0.22224 0.15874-0.35982 0-0.13228-0.05291-0.25398-0.15345-0.35452-0.10583-0.10583-0.22753-0.15874-0.3704-0.15874-0.13758 0-0.25928 0.0582-0.36511 0.15874-0.10054 0.10583-0.15345 0.22224-0.15345 0.35982 0 0.13228 0.05291 0.25398 0.15345 0.35452zm3.3865-1.3123c-0.26986-0.0317-0.5503-0.11112-0.83604-0.22752-0.28573-0.12171-0.53972-0.29103-0.75667-0.51327-0.19578-0.19049-0.34923-0.40744-0.46035-0.64555-0.13228-0.27515-0.22753-0.59264-0.27515-0.94716l0.15345-0.15874c0.07408 0.26986 0.12699 0.45506 0.16932 0.55559 0.0635 0.16404 0.13758 0.31749 0.23282 0.46565 0.11641 0.1852 0.2487 0.35452 0.40215 0.50797 0.39156 0.39156 0.89954 0.65613 1.5292 0.80429zm-0.10583-0.94186-1.7779-1.7779 0.2434-0.24341 2.3282 0.46565-1.3969-1.3969 0.22753-0.22753 1.7779 1.7779-0.23811 0.2434-2.3335-0.46564 1.3969 1.3969zm2.4552-2.7674c-0.01058 0.14816-0.04233 0.27515-0.08995 0.37569-0.04762 0.10583-0.11112 0.20107-0.19578 0.28573-0.14287 0.14287-0.28574 0.21695-0.4339 0.22224-0.14287 5e-3 -0.26986-0.0423-0.37569-0.15345-0.06349-0.0635-0.10583-0.13228-0.13228-0.21165-0.02117-0.0847-0.02646-0.16404-0.01058-0.24341 0.01588-0.0741 0.04233-0.15345 0.08466-0.22753 0.03175-0.0529 0.08466-0.12699 0.15874-0.22753 0.15874-0.19578 0.26457-0.34923 0.31748-0.46035-0.03175-0.0317-0.04762-0.0529-0.05821-0.0582-0.08466-0.09-0.16932-0.13229-0.2487-0.127-0.10583 5e-3 -0.21166 0.0635-0.32277 0.17462-0.10054 0.10053-0.15874 0.19578-0.17462 0.28044-0.01058 0.0847 0.01587 0.1852 0.08466 0.30161l-0.2434 0.17991c-0.07408-0.11112-0.11112-0.21695-0.12699-0.31749-0.01058-0.10053 0.01058-0.20636 0.0635-0.32277 0.05291-0.11112 0.13758-0.22224 0.2487-0.33336 0.11112-0.11112 0.21166-0.19049 0.3069-0.23282 0.09525-0.0423 0.17991-0.0582 0.2487-0.0529 0.07408 5e-3 0.14287 0.0318 0.21694 0.0794 0.04233 0.0317 0.11641 0.0952 0.21166 0.19049l0.29103 0.29102c0.20107 0.20637 0.33865 0.32807 0.40215 0.3704 0.0582 0.0476 0.13228 0.0794 0.20636 0.10054l-0.22753 0.22753c-0.06879-0.0212-0.13758-0.0582-0.20107-0.11112zm-0.50797-0.47094c-0.04762 0.11112-0.13758 0.25928-0.27515 0.43919-0.07408 0.10054-0.1217 0.17991-0.14287 0.23282-0.02117 0.0529-0.02645 0.10583-0.01587 0.15874 0.01058 0.0529 0.03175 0.0953 0.07408 0.13229 0.05821 0.0582 0.12699 0.0847 0.21166 0.0794 0.07937-5e-3 0.16403-0.0476 0.2487-0.13229 0.08466-0.0847 0.14287-0.1799 0.16933-0.28044 0.03175-0.10583 0.02646-0.20107-0.0053-0.29632-0.02646-0.0741-0.08466-0.15874-0.1852-0.25398zm1.5133-0.60851 0.22224 0.15875c-0.04762 0.0741-0.09524 0.13757-0.14287 0.18519-0.07937 0.0794-0.15345 0.127-0.22224 0.14816-0.06879 0.0159-0.13228 0.0159-0.19049-0.0106-0.05821-0.0212-0.15345-0.0952-0.28574-0.22753l-0.74079-0.74079-0.15874 0.15874-0.16932-0.16933 0.15874-0.15874-0.31748-0.32277 0.08466-0.34394 0.44977 0.44976 0.21695-0.22223 0.17462 0.16932-0.22224 0.22224 0.75138 0.75138c0.0635 0.0635 0.10583 0.10053 0.13228 0.11112 0.02646 5e-3 0.05291 0.0106 0.07937 0 0.03175-5e-3 0.05821-0.0265 0.09525-0.0582 0.02116-0.0212 0.05291-0.0582 0.08466-0.10054zm-1.1165-1.5451-0.25399-0.25399 0.21695-0.21694 0.25399 0.24869zm1.5239 1.5239-1.2858-1.2858 0.21695-0.21695 1.2858 1.2858zm0.89425-0.89425-1.7779-0.799 0.23282-0.22753 1.0477 0.4921c0.11112 0.0529 0.22753 0.11112 0.34394 0.17991-0.05292-0.09-0.10583-0.19578-0.16403-0.32806l-0.50268-1.0742 0.22753-0.22224 0.799 1.7779zm1.3705-2.1959 0.25399-0.19579c0.09525 0.16404 0.13228 0.33336 0.10583 0.50269-0.02117 0.16932-0.11112 0.32806-0.25928 0.47622-0.19049 0.19049-0.39685 0.28045-0.62438 0.27515-0.22224-5e-3 -0.43918-0.11111-0.65084-0.32277-0.21695-0.21695-0.32807-0.43919-0.33865-0.67201-0.0053-0.23282 0.07937-0.43389 0.25399-0.6138 0.17462-0.16932 0.37569-0.25399 0.59793-0.2434 0.22753 5e-3 0.44977 0.11641 0.66142 0.32806 0.01058 0.0159 0.03175 0.0317 0.05821 0.0582l-0.96304 0.96303c0.14816 0.13229 0.29632 0.20107 0.44448 0.20637 0.14816 0 0.27515-0.0476 0.38098-0.15875 0.08466-0.0794 0.12699-0.16932 0.14287-0.26456 0.01587-0.10054-0.0053-0.21166-0.0635-0.33865zm-1.0742 0.3651 0.71963-0.71963c-0.11641-0.10053-0.22753-0.15345-0.32278-0.16403-0.15345-0.0106-0.28573 0.037-0.39685 0.14816-0.10054 0.10054-0.15345 0.21695-0.15345 0.35452 0 0.13229 0.05291 0.25928 0.15345 0.38098zm1.3652-0.89424-0.22224-0.21695 0.67201-0.67201 0.21695 0.21695zm1.4498-0.38627-1.7779-1.7779 0.21695-0.21695 1.7779 1.7779zm-0.95245-2.1007-0.2487-0.24869 0.21695-0.22224 0.2487 0.25399zm1.5292 1.5292-1.2911-1.2911 0.21694-0.21695 1.2911 1.2911zm0.53443-0.53972-1.7779-1.7779 0.22224-0.21695 1.0107 1.0106-0.0053-1.0371 0.28044-0.28573-0.01058 0.97361 1.3493 0.26457-0.26986 0.26986-1.0847-0.23282-0.0053 0.30161 0.51326 0.51327zm1.725-2.5504 0.25399-0.20107c0.09525 0.16932 0.13228 0.33865 0.11112 0.50797-0.02646 0.16933-0.11112 0.32807-0.25928 0.47623-0.19049 0.19049-0.39685 0.28044-0.62438 0.27515-0.22753-5e-3 -0.44448-0.11641-0.65613-0.32277-0.21695-0.21695-0.32807-0.44448-0.33336-0.67201-0.01058-0.23282 0.07408-0.43919 0.25399-0.6138 0.16933-0.17462 0.3704-0.25399 0.59793-0.2487 0.22753 0.0106 0.44448 0.1217 0.65613 0.33336 0.01587 0.0106 0.03175 0.0318 0.05821 0.0582l-0.95774 0.96303c0.14816 0.13228 0.29632 0.20107 0.44448 0.20107 0.14287 5e-3 0.27515-0.0476 0.38098-0.15345 0.07937-0.0794 0.127-0.16932 0.14287-0.26986 0.01058-0.10054-0.01058-0.21165-0.06879-0.33336zm-1.0689 0.35982 0.71963-0.71963c-0.11641-0.0952-0.22753-0.14816-0.32807-0.15874-0.15345-0.0159-0.28573 0.0318-0.39685 0.14286-0.10054 0.10054-0.14816 0.21695-0.15345 0.35453 0 0.13757 0.05291 0.26457 0.15874 0.38098zm2.7198-1.1853-1.1165-1.1165-0.19578 0.19578-0.16932-0.17461 0.19578-0.19049-0.13758-0.13758c-0.08995-0.0847-0.14287-0.15874-0.16932-0.21695-0.03704-0.0741-0.04762-0.15874-0.02646-0.24869 0.01587-0.0847 0.07408-0.17991 0.16932-0.27515 0.05821-0.0582 0.13228-0.12171 0.22224-0.17991l0.15874 0.22224c-0.05291 0.037-0.10054 0.0741-0.14287 0.11641-0.0635 0.0688-0.09525 0.12699-0.09525 0.1852 0 0.0529 0.03704 0.1217 0.11641 0.19578l0.1217 0.1217 0.2487-0.25399 0.16932 0.17462-0.2487 0.24869 1.1165 1.1165zm0.66142-0.66142-1.7779-1.7779 0.21695-0.21694 1.7779 1.7779zm1.3863-1.3863-0.1852-0.19049c0.04233 0.24869-0.02117 0.45506-0.19049 0.62967-0.07937 0.0741-0.16403 0.13229-0.25928 0.16933-0.09525 0.037-0.17991 0.0476-0.25399 0.037-0.07937-0.0106-0.15345-0.0423-0.23282-0.0953-0.05291-0.0317-0.1217-0.0952-0.21694-0.19049l-0.799-0.799 0.22224-0.21695 0.71434 0.71434c0.11112 0.11112 0.19578 0.1852 0.2434 0.21695 0.06879 0.0423 0.14287 0.0582 0.22224 0.0476 0.07408-0.0106 0.14816-0.0476 0.21166-0.11641 0.06879-0.0635 0.11112-0.14287 0.13758-0.23282 0.02116-0.09 0.01587-0.17991-0.01587-0.25928-0.03704-0.0847-0.10583-0.1799-0.21695-0.29102l-0.69317-0.68789 0.22224-0.21694 1.2858 1.2858zm1.0001-1.8308 0.25399-0.19578c0.09525 0.16933 0.13228 0.33336 0.11112 0.50268-0.02646 0.16933-0.11112 0.32807-0.25928 0.48152-0.19049 0.1852-0.39686 0.28045-0.62438 0.27516-0.22753-5e-3 -0.44448-0.11642-0.65084-0.32278-0.21695-0.21695-0.33336-0.44448-0.33865-0.67201-0.01058-0.23282 0.07408-0.43918 0.25399-0.6138 0.17462-0.17461 0.3704-0.25399 0.59793-0.24869 0.22753 0.0106 0.44448 0.11641 0.65614 0.33335 0.01587 0.0106 0.03704 0.0317 0.0582 0.0582l-0.95774 0.95774c0.14816 0.13758 0.29632 0.20636 0.44448 0.20636 0.14816 5e-3 0.27515-0.0476 0.38098-0.15345 0.07937-0.0847 0.12699-0.16932 0.14287-0.26986 0.01587-0.10053-0.01058-0.21165-0.06879-0.33865zm-1.0689 0.36511 0.71963-0.71963c-0.11641-0.0952-0.22753-0.15345-0.32806-0.15874-0.15345-0.0159-0.28573 0.0317-0.39685 0.14287-0.10054 0.10053-0.14816 0.21694-0.14816 0.35452-0.0053 0.13229 0.04762 0.26457 0.15345 0.38098zm2.0107-0.47093-1.2911-1.2911 0.20108-0.19578 0.17991 0.18519c-0.04762-0.23811 0.02117-0.44447 0.20107-0.62438 0.07408-0.0794 0.15874-0.13228 0.25399-0.17461 0.08995-0.037 0.17991-0.0476 0.25399-0.0317 0.07937 0.0106 0.15345 0.0423 0.23282 0.0899 0.04762 0.0317 0.1217 0.10054 0.22224 0.20107l0.79371 0.79371-0.22224 0.21695-0.78313-0.78313c-0.08466-0.0899-0.16403-0.14816-0.22224-0.17461-0.0635-0.0265-0.127-0.0317-0.19578-0.0159-0.06879 0.0159-0.13228 0.0582-0.19049 0.11641-0.09524 0.09-0.14816 0.20108-0.15345 0.32807-0.01058 0.12699 0.06879 0.26986 0.23282 0.43389l0.70375 0.70376zm1.6562-2.0531 0.22753 0.16403c-0.0529 0.0741-0.10054 0.13758-0.14816 0.1852-0.0794 0.0794-0.15345 0.12699-0.22224 0.14287-0.0688 0.0212-0.13228 0.0212-0.19049-5e-3 -0.0582-0.0212-0.15345-0.10053-0.28573-0.22752l-0.7408-0.74609-0.15874 0.16403-0.16932-0.16932 0.15874-0.16403-0.31748-0.31749 0.08466-0.34923 0.44977 0.44977 0.22224-0.21695 0.16932 0.16933-0.22224 0.21694 0.75667 0.75667c0.0582 0.0635 0.10583 0.0952 0.13228 0.10583 0.0212 0.0106 0.0476 0.0159 0.0794 5e-3 0.0265-5e-3 0.0582-0.0265 0.09-0.0582 0.0212-0.0212 0.0529-0.0582 0.0847-0.10583zm1.0742 0.3651-0.15874 0.15875c-0.14287-0.62968-0.41273-1.143-0.799-1.5292-0.15345-0.15345-0.32277-0.28573-0.50797-0.40214-0.14816-0.0952-0.30161-0.16933-0.46035-0.23282-0.10583-0.0423-0.29103-0.10054-0.56089-0.16933l0.15345-0.15874c0.35452 0.0529 0.67201 0.14287 0.95245 0.27515 0.23811 0.11641 0.44977 0.26986 0.64555 0.46035 0.21695 0.21695 0.38627 0.47094 0.50797 0.76196 0.12171 0.28574 0.19578 0.56618 0.22753 0.83604z"/>
</g>
</svg>
