<?xml version="1.0" encoding="UTF-8"?>
<svg width="233.29" height="233.32" version="1.1" viewBox="0 0 61.724 61.732" xmlns="http://www.w3.org/2000/svg" xmlns:cc="http://creativecommons.org/ns#" xmlns:dc="http://purl.org/dc/elements/1.1/" xmlns:rdf="http://www.w3.org/1999/02/22-rdf-syntax-ns#">
<metadata>
<rdf:RDF>
<cc:Work rdf:about="">
<dc:format>image/svg+xml</dc:format>
<dc:type rdf:resource="http://purl.org/dc/dcmitype/StillImage"/>
<dc:title/>
</cc:Work>
</rdf:RDF>
</metadata>
<g transform="translate(-131.97 -98.513)">
<path d="m162.83 129.37 23.012-18.351c-5.5851-7.0058-14.054-11.083-23.012-11.083z" fill="#4285f4" fill-rule="evenodd"/>
<path d="m162.91 129.37-0.13493-0.0661 23.012-18.351-0.0132 0.1217-0.53178-0.64819-0.54766-0.62968-0.56353-0.61115-0.57676-0.59264-0.59529-0.57941-0.60586-0.55559-0.62174-0.53708-0.63761-0.52385-0.65084-0.50003-0.66143-0.48416-0.6773-0.463-0.68523-0.44448-0.69847-0.42331-0.70904-0.40744-0.72228-0.38098-0.73021-0.36775-0.74079-0.34129-0.74873-0.32278-0.75932-0.30425-0.7699-0.28045-0.77519-0.25928-0.78312-0.24075-0.78842-0.21695-0.79635-0.19314-0.8043-0.17197-0.80958-0.1508-0.81752-0.12964-0.82017-0.10583-0.82545-0.082-0.8281-0.0582-0.83075-0.037-0.83604-0.0106 0.0847-0.08466zm-0.16933-29.433c0-0.02117 0.0106-0.04233 0.0265-0.05821 0.0159-0.01587 0.037-0.02646 0.0608-0.02646l0.84133 0.01323 0.83605 0.03704 0.83339 0.05821 0.83075 0.08202 0.82281 0.10582 0.82016 0.12964 0.81488 0.15081 0.80958 0.17197 0.80165 0.19842 0.79371 0.21695 0.78841 0.24076 0.78048 0.25928 0.7699 0.28573 0.76461 0.30426 0.75402 0.32277 0.74609 0.34659 0.73286 0.36775 0.72492 0.38627 0.71433 0.40744 0.70376 0.4286 0.69052 0.44448 0.6773 0.46829 0.66672 0.48416 0.65613 0.50533 0.63761 0.52385 0.62703 0.54236 0.61116 0.56089 0.59528 0.57941 0.58205 0.59793 0.56883 0.6138 0.54766 0.63232 0.53178 0.64819c0.0159 0.0185 0.0212 0.0397 0.0185 0.0635-3e-3 0.0212-0.0132 0.0423-0.0317 0.0556l-23.012 18.351c-0.0238 0.0212-0.0582 0.0265-0.0873 0.0106-0.0291-0.0132-0.0503-0.0423-0.0503-0.0767z" fill="#2e60b3" stroke="#2e60b3" stroke-linejoin="bevel" stroke-width=".042331px"/>
<path d="m162.83 129.37-12.771 26.52c14.647 7.0534 32.238 0.8969 39.291-13.75 4.9051-10.186 3.5426-22.282-3.5082-31.121z" fill="#ea4335" fill-rule="evenodd"/>
<path d="m162.88 129.44 0.0238-0.0291-12.771 26.52-0.0397-0.11376 0.68788 0.32013 0.69053 0.30161 0.69582 0.28309 0.69846 0.26457 0.69847 0.24075 0.70375 0.22753 0.7064 0.20637 0.70905 0.18784 0.70904 0.16668 0.7117 0.15345 0.71169 0.13229 0.71698 0.11641 0.71434 0.0952 0.71169 0.0794 0.71434 0.0635 0.71434 0.0423 0.71698 0.0238 0.71169 8e-3 0.70905-8e-3 0.70905-0.0265 0.71169-0.0397 0.70375-0.0608 0.70376-0.0794 0.70111-0.0926 0.69582-0.11112 0.69581-0.12964 0.69053-0.14287 0.68524-0.16139 0.68259-0.17726 0.67994-0.19049 0.66936-0.20901 0.66672-0.22488 0.66407-0.24076 0.65613-0.25399 1.2937-0.56353 1.2646-0.61909 1.2382-0.68524 1.2038-0.74079 1.1668-0.799 1.135-0.85985 1.0927-0.91806 1.053-0.97362 1.0054-1.0292 0.96039-1.0821 0.91012-1.1403 0.85985-1.1879 0.80694-1.2435 0.74609-1.2964 0.68788-1.344 0.44977-0.9498 0.40214-0.96832 0.36775-0.97627 0.33071-0.98684 0.29368-0.99214 0.25663-1.0001 0.22488-1.0027 0.18785-1.008 0.1508-1.0133 0.11641-1.016 0.0794-1.0186 0.0423-1.0186 8e-3 -1.0186-0.0264-1.0159-0.0582-1.016-0.0952-1.0106-0.13228-1.0054-0.16668-1.0054-0.20107-0.99743-0.23811-0.98949-0.26722-0.9842-0.30425-0.97361-0.3413-0.96304-0.3704-0.95509-0.40743-0.94187-0.43919-0.93129-0.47622-0.91541-0.50798-0.90218-0.54501-0.88895-0.57412-0.87044-0.61115-0.85456-0.64026-0.83339 0.11905 0.0132zm22.909-18.483c0.0159-0.0132 0.0397-0.0185 0.0608-0.0159 0.0238 3e-3 0.045 0.0132 0.0582 0.0318l0.64555 0.83869 0.61115 0.85985 0.57941 0.87573 0.54502 0.89424 0.51326 0.90747 0.47622 0.92071 0.44448 0.93657 0.40744 0.94716 0.37569 0.96039 0.34129 0.96832 0.30426 0.97891 0.2725 0.98949 0.23812 0.99478 0.20107 1.0027 0.16668 1.0107 0.13228 1.0133 0.0952 1.0186 0.0609 1.0212 0.0265 1.0212-8e-3 1.0239-0.045 1.0239-0.0794 1.0239-0.11641 1.0212-0.1508 1.0186-0.18785 1.0133-0.22753 1.0107-0.25928 1.008-0.29367 0.99743-0.336 0.99214-0.36775 0.98155-0.40744 0.97361-0.44977 0.9551-0.69317 1.352-0.75138 1.3043-0.81223 1.2488-0.86249 1.1958-0.91806 1.1482-0.96568 1.0874-1.0106 1.0345-1.0583 0.97891-1.098 0.92335-1.1403 0.86514-1.1773 0.80429-1.2091 0.74344-1.2435 0.68788-1.2752 0.62439-1.299 0.56353-0.66142 0.25928-0.66407 0.24076-0.67201 0.22488-0.67465 0.20901-0.68259 0.19314-0.68524 0.1799-0.69052 0.16139-0.69582 0.14287-0.69846 0.12964-0.69847 0.11112-0.7064 0.0926-0.70905 0.0794-0.70904 0.0609-0.71169 0.0423-0.71434 0.0265-0.71434 8e-3 -0.71698-8e-3 -0.71699-0.0265-0.71963-0.0423-0.71963-0.0635-0.71698-0.0794-0.71963-0.0952-0.71698-0.11641-0.71699-0.13229-0.71698-0.15345-0.71434-0.17197-0.70904-0.18784-0.7117-0.20637-0.70904-0.22753-0.70376-0.24605-0.70375-0.26457-0.69582-0.28309-0.69582-0.30425-0.68788-0.32013c-0.0212-8e-3 -0.037-0.0265-0.045-0.0476-8e-3 -0.0212-5e-3 -0.045 5e-3 -0.0635l12.771-26.52c5e-3 -0.0132 0.0132-0.0238 0.0238-0.0317z" fill="#ac2f24" stroke="#ac2f24" stroke-linejoin="bevel" stroke-width=".042331px"/>
<path d="m162.83 129.37-28.695 6.5507c1.9922 8.7334 7.8551 16.083 15.924 19.97z" fill="#fbbc04" fill-rule="evenodd"/>
<path d="m162.76 129.34 0.0952 0.11906-28.695 6.5507 0.0635-0.10318 0.19843 0.81488 0.21695 0.80429 0.2434 0.7937 0.26457 0.78578 0.28573 0.77519 0.30426 0.76725 0.32807 0.75667 0.34394 0.74344 0.37039 0.7355 0.38628 0.71963 0.40743 0.71434 0.42596 0.69846 0.44448 0.68259 0.46564 0.67201 0.47887 0.66142 0.50268 0.64555 0.51591 0.62968 0.53708 0.61644 0.55295 0.60322 0.56882 0.58735 0.58735 0.57147 0.60057 0.55295 0.61645 0.53707 0.63761 0.52385 0.6482 0.50268 0.66142 0.48946 0.68259 0.46829 0.69053 0.44976 0.7064 0.43125 0.72227 0.41273 0.73551 0.39156 0.74873 0.37569-0.11377 0.0397zm-12.62 26.592c-8e-3 0.0212-0.0265 0.037-0.0476 0.045-0.0212 8e-3 -0.045 5e-3 -0.0662-5e-3l-0.75402-0.37569-0.7355-0.39685-0.72757-0.41273-0.71169-0.43654-0.69582-0.44977-0.68524-0.47358-0.66406-0.48946-0.65349-0.50797-0.64026-0.52385-0.61909-0.54236-0.60587-0.55825-0.58999-0.57146-0.57147-0.59264-0.55824-0.60587-0.53708-0.61909-0.5212-0.63497-0.50268-0.65084-0.48416-0.66142-0.46565-0.6773-0.44976-0.68788-0.42596-0.70376-0.41273-0.71433-0.38627-0.72492-0.37304-0.7408-0.34659-0.74873-0.32807-0.76196-0.30954-0.76725-0.28574-0.78048-0.26457-0.79107-0.2434-0.799-0.22224-0.80958-0.19843-0.81487c-5e-3 -0.0212 0-0.045 0.0106-0.0635 0.0132-0.0212 0.0317-0.0344 0.0529-0.0397l28.695-6.5507c0.0317-5e-3 0.0661 5e-3 0.0847 0.0318 0.0212 0.0238 0.0265 0.0582 0.0106 0.0873z" fill="#b98902" stroke="#b98902" stroke-linejoin="bevel" stroke-width=".042331px"/>
<path d="m162.83 129.37-23.012-18.351c-5.5851 7.0032-7.6778 16.168-5.683 24.901z" fill="#34a853" fill-rule="evenodd"/>
<path d="m162.81 129.29-0.0317 0.14816-23.012-18.351 0.11905-0.0132-0.51326 0.66407-0.4921 0.672-0.47094 0.68524-0.44976 0.69582-0.42861 0.7064-0.41008 0.71698-0.38363 0.72492-0.36775 0.73815-0.34658 0.74344-0.32013 0.75403-0.30426 0.76196-0.2778 0.76725-0.25927 0.77783-0.23812 0.78048-0.2143 0.78842-0.19049 0.79371-0.17197 0.79635-0.14816 0.80429-0.12699 0.80694-0.10318 0.81223-0.082 0.81487-0.0582 0.81488-0.037 0.82016-0.0106 0.82017 8e-3 0.82281 0.0344 0.82016 0.0582 0.82282 0.0794 0.82281 0.10318 0.82281 0.127 0.82281 0.15345 0.82017 0.17461 0.81752-0.10318-0.0661zm-28.656 6.7174c-0.0238 5e-3 -0.0476 0-0.0661-0.0132-0.0185-0.0106-0.0317-0.0291-0.037-0.0529l-0.17461-0.82281-0.15345-0.82546-0.127-0.82545-0.10318-0.82546-0.0794-0.82811-0.0609-0.8281-0.0344-0.82545-8e-3 -0.82811 0.0132-0.82545 0.037-0.82546 0.0582-0.82017 0.082-0.82016 0.10318-0.81223 0.12699-0.81223 0.14816-0.80958 0.17197-0.80165 0.19578-0.799 0.21431-0.7937 0.23811-0.78578 0.25928-0.77783 0.28309-0.77254 0.30425-0.76726 0.32278-0.75931 0.34923-0.74873 0.36775-0.7408 0.38892-0.72756 0.41008-0.72228 0.43389-0.71169 0.44977-0.70111 0.47623-0.68524 0.4921-0.67729 0.51326-0.66407c0.0132-0.0185 0.0344-0.0291 0.0582-0.0318 0.0212-3e-3 0.045 3e-3 0.0609 0.0159l23.012 18.351c0.0265 0.0212 0.037 0.0556 0.0317 0.0873-8e-3 0.0318-0.0317 0.0556-0.0635 0.0635z" fill="#237a3b" stroke="#237a3b" stroke-linejoin="bevel" stroke-width=".042331px"/>
<path d="m162.83 129.37v-29.433c-8.9583 0-17.427 4.077-23.012 11.083z" fill="#ff6d01" fill-rule="evenodd"/>
<path d="m162.88 129.31-0.13758 0.0661v-29.433l0.0873 0.08466-0.83868 0.0132-0.83075 0.0344-0.83075 0.0582-0.82281 0.082-0.82017 0.10582-0.81752 0.12964-0.80958 0.15081-0.80429 0.17197-0.79636 0.19578-0.79106 0.2143-0.78048 0.24076-0.77519 0.25928-0.76725 0.28309-0.76196 0.30161-0.74873 0.32277-0.7408 0.34394-0.73021 0.36511-0.72227 0.38362-0.70905 0.40479-0.69846 0.42596-0.68524 0.44183-0.67465 0.46565-0.66407 0.48151-0.65084 0.50268-0.63497 0.52121-0.62438 0.53972-0.60587 0.55559-0.59263 0.57677-0.58206 0.59528-0.56088 0.61115-0.54502 0.62703-0.53178 0.6482-0.0132-0.1217zm-23.115-18.218c-0.0185-0.0132-0.0291-0.0344-0.0318-0.0556-3e-3 -0.0238 3e-3 -0.045 0.0185-0.0635l0.53178-0.65084 0.55031-0.62968 0.56618-0.61645 0.58205-0.59528 0.59793-0.58205 0.61115-0.56089 0.62439-0.53972 0.64025-0.52649 0.65614-0.50269 0.66407-0.4868 0.67994-0.46565 0.69053-0.44712 0.70375-0.42596 0.71169-0.41008 0.72493-0.38363 0.7355-0.37039 0.74609-0.34394 0.75402-0.32278 0.76196-0.3069 0.77254-0.28309 0.78048-0.25928 0.78577-0.24076 0.79636-0.21959 0.80164-0.19578 0.80959-0.17197 0.81223-0.1508 0.82016-0.12964 0.82546-0.10583 0.8281-0.08202 0.83604-0.06085 0.83604-0.03439 0.83869-0.01323c0.0238 0 0.045 0.01058 0.0608 0.02646 0.0159 0.01587 0.0238 0.03704 0.0238 0.05821v29.433c0 0.0344-0.0185 0.0635-0.0476 0.0767-0.0291 0.0159-0.0635 0.0106-0.0873-0.0106z" fill="#bc4e00" stroke="#bc4e00" stroke-linejoin="bevel" stroke-width=".042331px"/>
<text x="169.86789" y="107.38126" fill="#000000" font-family="Arial" font-size="3.5057px" font-weight="400" letter-spacing="0px" stroke-width=".26458" word-spacing="0px" style="line-height:125%" xml:space="preserve"><tspan x="169.86789" y="107.38126" stroke-width=".26458"><tspan dx="0" dy="0" fill="#000000" font-family="Arial" font-size="3.5057px" font-weight="400" stroke-width=".26458">16:</tspan></tspan></text>
<text x="166.82004" y="111.44505" fill="#000000" font-family="Arial" font-size="3.5057px" font-weight="400" letter-spacing="0px" stroke-width=".26458" word-spacing="0px" style="line-height:125%" xml:space="preserve"><tspan x="166.82004" y="111.44505" stroke-width=".26458"><tspan dx="0" dy="0" fill="#000000" font-family="Arial" font-size="3.5057px" font-weight="400" stroke-width=".26458">1; 15%</tspan></tspan></text>
<text x="177.27583" y="141.51074" fill="#000000" font-family="Arial" font-size="3.5057px" font-weight="400" letter-spacing="0px" stroke-width=".26458" word-spacing="0px" style="line-height:125%" xml:space="preserve"><tspan x="177.27583" y="141.51074" stroke-width=".26458"><tspan dx="0" dy="0" fill="#000000" font-family="Arial" font-size="3.5057px" font-weight="400" stroke-width=".26458">17:</tspan></tspan></text>
<text x="174.228" y="145.57454" fill="#000000" font-family="Arial" font-size="3.5057px" font-weight="400" letter-spacing="0px" stroke-width=".26458" word-spacing="0px" style="line-height:125%" xml:space="preserve"><tspan x="174.228" y="145.57454" stroke-width=".26458"><tspan dx="0" dy="0" fill="#000000" font-family="Arial" font-size="3.5057px" font-weight="400" stroke-width=".26458">3; 43%</tspan></tspan></text>
<text x="142.88179" y="140.98161" fill="#000000" font-family="Arial" font-size="3.5057px" font-weight="400" letter-spacing="0px" stroke-width=".26458" word-spacing="0px" style="line-height:125%" xml:space="preserve"><tspan x="142.88179" y="140.98161" stroke-width=".26458"><tspan dx="0" dy="0" fill="#000000" font-family="Arial" font-size="3.5057px" font-weight="400" stroke-width=".26458">22:</tspan></tspan></text>
<text x="139.83394" y="145.04539" fill="#000000" font-family="Arial" font-size="3.5057px" font-weight="400" letter-spacing="0px" stroke-width=".26458" word-spacing="0px" style="line-height:125%" xml:space="preserve"><tspan x="139.83394" y="145.04539" stroke-width=".26458"><tspan dx="0" dy="0" fill="#000000" font-family="Arial" font-size="3.5057px" font-weight="400" stroke-width=".26458">1; 14%</tspan></tspan></text>
<text x="138.11954" y="123.52001" fill="#000000" font-family="Arial" font-size="3.5057px" font-weight="400" letter-spacing="0px" stroke-width=".26458" word-spacing="0px" style="line-height:125%" xml:space="preserve"><tspan x="138.11954" y="123.52001" stroke-width=".26458"><tspan dx="0" dy="0" fill="#000000" font-family="Arial" font-size="3.5057px" font-weight="400" stroke-width=".26458">23:</tspan></tspan></text>
<text x="135.07169" y="127.5838" fill="#000000" font-family="Arial" font-size="3.5057px" font-weight="400" letter-spacing="0px" stroke-width=".26458" word-spacing="0px" style="line-height:125%" xml:space="preserve"><tspan x="135.07169" y="127.5838" stroke-width=".26458"><tspan dx="0" dy="0" fill="#000000" font-family="Arial" font-size="3.5057px" font-weight="400" stroke-width=".26458">1; 14%</tspan></tspan></text>
<text x="150.55431" y="107.38126" fill="#000000" font-family="Arial" font-size="3.5057px" font-weight="400" letter-spacing="0px" stroke-width=".26458" word-spacing="0px" style="line-height:125%" xml:space="preserve"><tspan x="150.55431" y="107.38126" stroke-width=".26458"><tspan dx="0" dy="0" fill="#000000" font-family="Arial" font-size="3.5057px" font-weight="400" stroke-width=".26458">24:</tspan></tspan></text>
<text x="147.50647" y="111.44505" fill="#000000" font-family="Arial" font-size="3.5057px" font-weight="400" letter-spacing="0px" stroke-width=".26458" word-spacing="0px" style="line-height:125%" xml:space="preserve"><tspan x="147.50647" y="111.44505" stroke-width=".26458"><tspan dx="0" dy="0" fill="#000000" font-family="Arial" font-size="3.5057px" font-weight="400" stroke-width=".26458">1; 14%</tspan></tspan></text>
</g>
</svg>
