<?xml version="1.0" encoding="UTF-8"?>
<svg width="468.04" height="272.36" version="1.1" viewBox="0 0 123.84 72.062" xmlns="http://www.w3.org/2000/svg" xmlns:cc="http://creativecommons.org/ns#" xmlns:dc="http://purl.org/dc/elements/1.1/" xmlns:rdf="http://www.w3.org/1999/02/22-rdf-syntax-ns#">
<defs>
<clipPath id="a">
<path d="m207.03 0.47998h249.11v242.71h-249.11z"/>
</clipPath>
</defs>
<metadata>
<rdf:RDF>
<cc:Work rdf:about="">
<dc:format>image/svg+xml</dc:format>
<dc:type rdf:resource="http://purl.org/dc/dcmitype/StillImage"/>
<dc:title/>
</cc:Work>
</rdf:RDF>
</metadata>
<g transform="translate(-24.897 -78.599)">
<path d="m80.95 80.027v63.92h65.656v-63.92z" fill="#e7e7e7" fill-rule="evenodd"/>
<path d="m97.417 80.027v63.92h-0.16932v-63.92zm16.424 0v63.92h-0.16933v-63.92zm16.424 0v63.92h-0.16932v-63.92zm16.424 0v63.92h-0.16933v-63.92z" fill="#898989" stroke="#898989" stroke-linejoin="bevel" stroke-width=".042331px"/>
<path d="m80.95 80.027v5.7994h49.231v-5.7994z" fill="#3975d8" fill-rule="evenodd"/>
<path transform="matrix(.26458 0 0 .26458 26.152 79.879)" d="m206.79 0.55997c0-0.15999 0.15999-0.31998 0.31998-0.31998h186.07c0.17999 0 0.31998 0.15999 0.31998 0.31998v21.919c0 0.17999-0.13999 0.31998-0.31998 0.31998h-186.07c-0.15999 0-0.31998-0.13999-0.31998-0.31998zm0.63997 21.919-0.31999-0.31998h186.07l-0.31998 0.31998v-21.919l0.31998 0.31998h-186.07l0.31999-0.31998z" clip-path="url(#a)" fill="#27549e" stroke="#27549e" stroke-linejoin="bevel" stroke-width=".15999px"/>
<path d="m80.95 85.827v5.7994h57.443v-5.7994z" fill="#cf3a2e" fill-rule="evenodd"/>
<path transform="matrix(.26458 0 0 .26458 26.152 79.879)" d="m206.79 22.479c0-0.15999 0.15999-0.31998 0.31998-0.31998h217.11c0.17999 0 0.31998 0.15999 0.31998 0.31998v21.919c0 0.17999-0.13999 0.31998-0.31998 0.31998h-217.11c-0.15999 0-0.31998-0.13999-0.31998-0.31998zm0.63997 21.919-0.31999-0.31998h217.11l-0.31999 0.31998v-21.919l0.31999 0.31998h-217.11l0.31999-0.31998z" clip-path="url(#a)" fill="#98281f" stroke="#98281f" stroke-linejoin="bevel" stroke-width=".15999px"/>
<path d="m80.95 91.626v5.8417h32.807v-5.8417z" fill="#dea603" fill-rule="evenodd"/>
<path transform="matrix(.26458 0 0 .26458 26.152 79.879)" d="m206.79 44.398c0-0.15999 0.15999-0.31998 0.31998-0.31998h123.99c0.17999 0 0.31999 0.15999 0.31999 0.31998v22.079c0 0.17999-0.14 0.31998-0.31999 0.31998h-123.99c-0.15999 0-0.31998-0.13999-0.31998-0.31998zm0.63997 22.079-0.31999-0.31998h123.99l-0.31998 0.31998v-22.079l0.31998 0.31998h-123.99l0.31999-0.31998z" clip-path="url(#a)" fill="#a37902" stroke="#a37902" stroke-linejoin="bevel" stroke-width=".15999px"/>
<path d="m80.95 97.468v5.7994h32.807v-5.7994z" fill="#2d9449" fill-rule="evenodd"/>
<path transform="matrix(.26458 0 0 .26458 26.152 79.879)" d="m206.79 66.477c0-0.15999 0.15999-0.31998 0.31998-0.31998h123.99c0.17999 0 0.31999 0.15999 0.31999 0.31998v21.919c0 0.17999-0.14 0.31998-0.31999 0.31998h-123.99c-0.15999 0-0.31998-0.13999-0.31998-0.31998zm0.63997 21.919-0.31999-0.31998h123.99l-0.31998 0.31998v-21.919l0.31998 0.31998h-123.99l0.31999-0.31998z" clip-path="url(#a)" fill="#1e6c33" stroke="#1e6c33" stroke-linejoin="bevel" stroke-width=".15999px"/>
<path d="m80.95 103.27v5.7994h24.594v-5.7994z" fill="#e26001" fill-rule="evenodd"/>
<path transform="matrix(.26458 0 0 .26458 26.152 79.879)" d="m206.79 88.395c0-0.16999 0.14999-0.31998 0.31998-0.31998h92.955c0.18 0 0.31999 0.14999 0.31999 0.31998v21.919c0 0.17999-0.13999 0.31998-0.31999 0.31998h-92.955c-0.16999 0-0.31998-0.13999-0.31998-0.31998zm0.63997 21.919-0.31999-0.31998h92.955l-0.31998 0.31998v-21.919l0.31998 0.31998h-92.955l0.31999-0.31998z" clip-path="url(#a)" fill="#a64400" stroke="#a64400" stroke-linejoin="bevel" stroke-width=".15999px"/>
<path d="m80.95 109.07v5.8417h49.231v-5.8417z" fill="#3da7af" fill-rule="evenodd"/>
<path transform="matrix(.26458 0 0 .26458 26.152 79.879)" d="m206.79 110.31c0-0.15999 0.15999-0.31998 0.31998-0.31998h186.07c0.17999 0 0.31998 0.15999 0.31998 0.31998v22.079c0 0.17999-0.13999 0.31999-0.31998 0.31999h-186.07c-0.15999 0-0.31998-0.14-0.31998-0.31999zm0.63997 22.079-0.31999-0.31998h186.07l-0.31998 0.31998v-22.079l0.31998 0.31998h-186.07l0.31999-0.31998z" clip-path="url(#a)" fill="#2a7a80" stroke="#2a7a80" stroke-linejoin="bevel" stroke-width=".15999px"/>
<path d="m80.95 114.91v5.7994h16.382v-5.7994z" fill="#8eacf7" fill-rule="evenodd"/>
<path transform="matrix(.26458 0 0 .26458 26.152 79.879)" d="m206.79 132.39c0-0.16999 0.14999-0.31998 0.31998-0.31998h61.917c0.17999 0 0.31998 0.14999 0.31998 0.31998v21.919c0 0.17999-0.13999 0.31998-0.31998 0.31998h-61.917c-0.16999 0-0.31998-0.13999-0.31998-0.31998zm0.63997 21.919-0.31999-0.31999h61.917l-0.31999 0.31999v-21.919l0.31999 0.31999h-61.917l0.31999-0.31999z" clip-path="url(#a)" fill="#8999c8" stroke="#8999c8" stroke-linejoin="bevel" stroke-width=".15999px"/>
<path d="m80.95 132.35v5.7994h24.594v-5.7994z" fill="#8bc194" fill-rule="evenodd"/>
<path transform="matrix(.26458 0 0 .26458 26.152 79.879)" d="m206.79 198.31c0-0.16999 0.14999-0.31998 0.31998-0.31998h92.955c0.18 0 0.31999 0.14999 0.31999 0.31998v21.919c0 0.17999-0.13999 0.31998-0.31999 0.31998h-92.955c-0.16999 0-0.31998-0.13999-0.31998-0.31998zm0.63997 21.919-0.31999-0.31998h92.955l-0.31998 0.31998v-21.919l0.31998 0.31998h-92.955l0.31999-0.31998z" clip-path="url(#a)" fill="#87a68c" stroke="#87a68c" stroke-linejoin="bevel" stroke-width=".15999px"/>
<path d="m80.95 143.86h65.656v0.16933h-65.656z" fill="#898989" stroke="#898989" stroke-linejoin="bevel" stroke-width=".042331px"/>
<path d="m81.034 143.95v1.1006h-0.16933v-1.1006zm16.382 0v1.1006h-0.16932v-1.1006zm16.424 0v1.1006h-0.16933v-1.1006zm16.424 0v1.1006h-0.16932v-1.1006zm16.424 0v1.1006h-0.16933v-1.1006z" fill="#898989" stroke="#898989" stroke-linejoin="bevel" stroke-width=".042331px"/>
<path d="m81.034 80.027v63.92h-0.16933v-63.92z" fill="#898989" stroke="#898989" stroke-linejoin="bevel" stroke-width=".042331px"/>
<path d="m79.849 79.943h1.1006v0.16932h-1.1006zm0 5.7994h1.1006v0.16933h-1.1006zm0 5.7994h1.1006v0.16932h-1.1006zm0 5.8417h1.1006v0.16933h-1.1006zm0 5.7994h1.1006v0.16932h-1.1006zm0 5.7994h1.1006v0.16932h-1.1006zm0 5.8417h1.1006v0.16933h-1.1006zm0 5.7994h1.1006v0.16932h-1.1006zm0 5.7994h1.1006v0.16933h-1.1006zm0 5.8417h1.1006v0.16932h-1.1006zm0 5.7994h1.1006v0.16932h-1.1006zm0 5.7994h1.1006v0.16933h-1.1006z" fill="#898989" stroke="#898989" stroke-linejoin="bevel" stroke-width=".042331px"/>
<text x="126.08233" y="84.219978" fill="#000000" font-family="Arial" font-size="3.5057px" font-weight="400" letter-spacing="0px" stroke-width=".26458" word-spacing="0px" style="line-height:125%" xml:space="preserve"><tspan x="126.08233" y="84.219978" stroke-width=".26458"><tspan dx="0" dy="0" fill="#000000" font-family="Arial" font-size="3.5057px" font-weight="400" stroke-width=".26458">6</tspan></tspan></text>
<text x="134.28992" y="90.033714" fill="#000000" font-family="Arial" font-size="3.5057px" font-weight="400" letter-spacing="0px" stroke-width=".26458" word-spacing="0px" style="line-height:125%" xml:space="preserve"><tspan x="134.28992" y="90.033714" stroke-width=".26458"><tspan dx="0" dy="0" fill="#000000" font-family="Arial" font-size="3.5057px" font-weight="400" stroke-width=".26458">7</tspan></tspan></text>
<text x="109.66718" y="95.847458" fill="#000000" font-family="Arial" font-size="3.5057px" font-weight="400" letter-spacing="0px" stroke-width=".26458" word-spacing="0px" style="line-height:125%" xml:space="preserve"><tspan x="109.66718" y="95.847458" stroke-width=".26458"><tspan dx="0" dy="0" fill="#000000" font-family="Arial" font-size="3.5057px" font-weight="400" stroke-width=".26458">4</tspan></tspan></text>
<text x="109.66718" y="101.66118" fill="#000000" font-family="Arial" font-size="3.5057px" font-weight="400" letter-spacing="0px" stroke-width=".26458" word-spacing="0px" style="line-height:125%" xml:space="preserve"><tspan x="109.66718" y="101.66118" stroke-width=".26458"><tspan dx="0" dy="0" fill="#000000" font-family="Arial" font-size="3.5057px" font-weight="400" stroke-width=".26458">4</tspan></tspan></text>
<text x="101.45962" y="107.47495" fill="#000000" font-family="Arial" font-size="3.5057px" font-weight="400" letter-spacing="0px" stroke-width=".26458" word-spacing="0px" style="line-height:125%" xml:space="preserve"><tspan x="101.45962" y="107.47495" stroke-width=".26458"><tspan dx="0" dy="0" fill="#000000" font-family="Arial" font-size="3.5057px" font-weight="400" stroke-width=".26458">3</tspan></tspan></text>
<text x="126.08233" y="113.28867" fill="#000000" font-family="Arial" font-size="3.5057px" font-weight="400" letter-spacing="0px" stroke-width=".26458" word-spacing="0px" style="line-height:125%" xml:space="preserve"><tspan x="126.08233" y="113.28867" stroke-width=".26458"><tspan dx="0" dy="0" fill="#000000" font-family="Arial" font-size="3.5057px" font-weight="400" stroke-width=".26458">6</tspan></tspan></text>
<text x="93.252045" y="119.10242" fill="#000000" font-family="Arial" font-size="3.5057px" font-weight="400" letter-spacing="0px" stroke-width=".26458" word-spacing="0px" style="line-height:125%" xml:space="preserve"><tspan x="93.252045" y="119.10242" stroke-width=".26458"><tspan dx="0" dy="0" fill="#000000" font-family="Arial" font-size="3.5057px" font-weight="400" stroke-width=".26458">2</tspan></tspan></text>
<text x="83.031342" y="124.91615" fill="#000000" font-family="Arial" font-size="3.5057px" font-weight="400" letter-spacing="0px" stroke-width=".26458" word-spacing="0px" style="line-height:125%" xml:space="preserve"><tspan x="83.031342" y="124.91615" stroke-width=".26458"><tspan dx="0" dy="0" fill="#000000" font-family="Arial" font-size="3.5057px" font-weight="400" stroke-width=".26458">0</tspan></tspan></text>
<text x="83.031342" y="130.7299" fill="#000000" font-family="Arial" font-size="3.5057px" font-weight="400" letter-spacing="0px" stroke-width=".26458" word-spacing="0px" style="line-height:125%" xml:space="preserve"><tspan x="83.031342" y="130.7299" stroke-width=".26458"><tspan dx="0" dy="0" fill="#000000" font-family="Arial" font-size="3.5057px" font-weight="400" stroke-width=".26458">0</tspan></tspan></text>
<text x="101.45962" y="136.54362" fill="#000000" font-family="Arial" font-size="3.5057px" font-weight="400" letter-spacing="0px" stroke-width=".26458" word-spacing="0px" style="line-height:125%" xml:space="preserve"><tspan x="101.45962" y="136.54362" stroke-width=".26458"><tspan dx="0" dy="0" fill="#000000" font-family="Arial" font-size="3.5057px" font-weight="400" stroke-width=".26458">3</tspan></tspan></text>
<text x="83.031342" y="142.35738" fill="#000000" font-family="Arial" font-size="3.5057px" font-weight="400" letter-spacing="0px" stroke-width=".26458" word-spacing="0px" style="line-height:125%" xml:space="preserve"><tspan x="83.031342" y="142.35738" stroke-width=".26458"><tspan dx="0" dy="0" fill="#000000" font-family="Arial" font-size="3.5057px" font-weight="400" stroke-width=".26458">0</tspan></tspan></text>
<text x="79.953522" y="149.29514" fill="#000000" font-family="Arial" font-size="3.5057px" font-weight="400" letter-spacing="0px" stroke-width=".26458" word-spacing="0px" style="line-height:125%" xml:space="preserve"><tspan x="79.953522" y="149.29514" stroke-width=".26458"><tspan dx="0" dy="0" fill="#000000" font-family="Arial" font-size="3.5057px" font-weight="400" stroke-width=".26458">0</tspan></tspan></text>
<text x="96.368675" y="149.29514" fill="#000000" font-family="Arial" font-size="3.5057px" font-weight="400" letter-spacing="0px" stroke-width=".26458" word-spacing="0px" style="line-height:125%" xml:space="preserve"><tspan x="96.368675" y="149.29514" stroke-width=".26458"><tspan dx="0" dy="0" fill="#000000" font-family="Arial" font-size="3.5057px" font-weight="400" stroke-width=".26458">2</tspan></tspan></text>
<text x="112.78382" y="149.29514" fill="#000000" font-family="Arial" font-size="3.5057px" font-weight="400" letter-spacing="0px" stroke-width=".26458" word-spacing="0px" style="line-height:125%" xml:space="preserve"><tspan x="112.78382" y="149.29514" stroke-width=".26458"><tspan dx="0" dy="0" fill="#000000" font-family="Arial" font-size="3.5057px" font-weight="400" stroke-width=".26458">4</tspan></tspan></text>
<text x="129.19897" y="149.29514" fill="#000000" font-family="Arial" font-size="3.5057px" font-weight="400" letter-spacing="0px" stroke-width=".26458" word-spacing="0px" style="line-height:125%" xml:space="preserve"><tspan x="129.19897" y="149.29514" stroke-width=".26458"><tspan dx="0" dy="0" fill="#000000" font-family="Arial" font-size="3.5057px" font-weight="400" stroke-width=".26458">6</tspan></tspan></text>
<text x="145.61412" y="149.29514" fill="#000000" font-family="Arial" font-size="3.5057px" font-weight="400" letter-spacing="0px" stroke-width=".26458" word-spacing="0px" style="line-height:125%" xml:space="preserve"><tspan x="145.61412" y="149.29514" stroke-width=".26458"><tspan dx="0" dy="0" fill="#000000" font-family="Arial" font-size="3.5057px" font-weight="400" stroke-width=".26458">8</tspan></tspan></text>
<text x="52.609085" y="84.047134" fill="#000000" font-family="Arial" font-size="3.5057px" font-weight="400" letter-spacing="0px" stroke-width=".26458" word-spacing="0px" style="line-height:125%" xml:space="preserve"><tspan x="52.609085" y="84.047134" stroke-width=".26458"><tspan dx="0" dy="0" fill="#000000" font-family="Arial" font-size="3.5057px" font-weight="400" stroke-width=".26458">Reading articles</tspan></tspan></text>
<text x="50.841759" y="89.860855" fill="#000000" font-family="Arial" font-size="3.5057px" font-weight="400" letter-spacing="0px" stroke-width=".26458" word-spacing="0px" style="line-height:125%" xml:space="preserve"><tspan x="50.841759" y="89.860855" stroke-width=".26458"><tspan dx="0" dy="0" fill="#000000" font-family="Arial" font-size="3.5057px" font-weight="400" stroke-width=".26458">Voting on articles</tspan></tspan></text>
<text x="40.848083" y="95.674599" fill="#000000" font-family="Arial" font-size="3.5057px" font-weight="400" letter-spacing="0px" stroke-width=".26458" word-spacing="0px" style="line-height:125%" xml:space="preserve"><tspan x="40.848083" y="95.674599" stroke-width=".26458"><tspan dx="0" dy="0" fill="#000000" font-family="Arial" font-size="3.5057px" font-weight="400" stroke-width=".26458">Commenting on articles</tspan></tspan></text>
<text x="54.7715" y="101.48833" fill="#000000" font-family="Arial" font-size="3.5057px" font-weight="400" letter-spacing="0px" stroke-width=".26458" word-spacing="0px" style="line-height:125%" xml:space="preserve"><tspan x="54.7715" y="101.48833" stroke-width=".26458"><tspan dx="0" dy="0" fill="#000000" font-family="Arial" font-size="3.5057px" font-weight="400" stroke-width=".26458">Writing articles</tspan></tspan></text>
<text x="52.60556" y="107.30209" fill="#000000" font-family="Arial" font-size="3.5057px" font-weight="400" letter-spacing="0px" stroke-width=".26458" word-spacing="0px" style="line-height:125%" xml:space="preserve"><tspan x="52.60556" y="107.30209" stroke-width=".26458"><tspan dx="0" dy="0" fill="#000000" font-family="Arial" font-size="3.5057px" font-weight="400" stroke-width=".26458">Giving feedback</tspan></tspan></text>
<text x="39.867409" y="113.11581" fill="#000000" font-family="Arial" font-size="3.5057px" font-weight="400" letter-spacing="0px" stroke-width=".26458" word-spacing="0px" style="line-height:125%" xml:space="preserve"><tspan x="39.867409" y="113.11581" stroke-width=".26458"><tspan dx="0" dy="0" fill="#000000" font-family="Arial" font-size="3.5057px" font-weight="400" stroke-width=".26458">Translating from English</tspan></tspan></text>
<text x="26.138014" y="118.92957" fill="#000000" font-family="Arial" font-size="3.5057px" font-weight="400" letter-spacing="0px" stroke-width=".26458" word-spacing="0px" style="line-height:125%" xml:space="preserve"><tspan x="26.138014" y="118.92957" stroke-width=".26458"><tspan dx="0" dy="0" fill="#000000" font-family="Arial" font-size="3.5057px" font-weight="400" stroke-width=".26458">Translating from other languages</tspan></tspan></text>
<text x="48.294838" y="124.74332" fill="#000000" font-family="Arial" font-size="3.5057px" font-weight="400" letter-spacing="0px" stroke-width=".26458" word-spacing="0px" style="line-height:125%" xml:space="preserve"><tspan x="48.294838" y="124.74332" stroke-width=".26458"><tspan dx="0" dy="0" fill="#000000" font-family="Arial" font-size="3.5057px" font-weight="400" stroke-width=".26458">Making SCP fanart</tspan></tspan></text>
<text x="36.329235" y="130.55705" fill="#000000" font-family="Arial" font-size="3.5057px" font-weight="400" letter-spacing="0px" stroke-width=".26458" word-spacing="0px" style="line-height:125%" xml:space="preserve"><tspan x="36.329235" y="130.55705" stroke-width=".26458"><tspan dx="0" dy="0" fill="#000000" font-family="Arial" font-size="3.5057px" font-weight="400" stroke-width=".26458">Making videos on Youtube</tspan></tspan></text>
<text x="54.369354" y="136.3708" fill="#000000" font-family="Arial" font-size="3.5057px" font-weight="400" letter-spacing="0px" stroke-width=".26458" word-spacing="0px" style="line-height:125%" xml:space="preserve"><tspan x="54.369354" y="136.3708" stroke-width=".26458"><tspan dx="0" dy="0" fill="#000000" font-family="Arial" font-size="3.5057px" font-weight="400" stroke-width=".26458">I am staff there</tspan></tspan></text>
<text x="59.470253" y="142.18452" fill="#000000" font-family="Arial" font-size="3.5057px" font-weight="400" letter-spacing="0px" stroke-width=".26458" word-spacing="0px" style="line-height:125%" xml:space="preserve"><tspan x="59.470253" y="142.18452" stroke-width=".26458"><tspan dx="0" dy="0" fill="#000000" font-family="Arial" font-size="3.5057px" font-weight="400" stroke-width=".26458">Roleplaying</tspan></tspan></text>
</g>
</svg>
