<?xml version="1.0" encoding="UTF-8"?>
<svg width="507.63" height="372.85" version="1.1" viewBox="0 0 134.31 98.649" xmlns="http://www.w3.org/2000/svg" xmlns:cc="http://creativecommons.org/ns#" xmlns:dc="http://purl.org/dc/elements/1.1/" xmlns:rdf="http://www.w3.org/1999/02/22-rdf-syntax-ns#">
<metadata>
<rdf:RDF>
<cc:Work rdf:about="">
<dc:format>image/svg+xml</dc:format>
<dc:type rdf:resource="http://purl.org/dc/dcmitype/StillImage"/>
<dc:title/>
</cc:Work>
</rdf:RDF>
</metadata>
<g transform="translate(26.306 -32.109)">
<path d="m-18.409 34.828v77.043h91.774v-77.043z" fill="#e7e7e7" fill-rule="evenodd"/>
<path d="m-18.409 104.08h91.774v0.16933h-91.774zm0-7.7043h91.774v0.16932h-91.774zm0-7.7043h91.774v0.16932h-91.774zm0-7.7043h91.774v0.16932h-91.774zm0-7.7043h91.774v0.16932h-91.774zm0-7.7043h91.774v0.16932h-91.774zm0-7.7043h91.774v0.16932h-91.774zm0-7.7043h91.774v0.16932h-91.774zm0-7.7043h91.774v0.16932h-91.774zm0-7.7043h91.774v0.16932h-91.774z" fill="#898989" stroke="#898989" stroke-linejoin="bevel" stroke-width=".042331px"/>
<path d="m0.30162 104.17v7.7043h8.4662v-7.7043z" fill="#3975d8" fill-rule="evenodd"/>
<path d="m0.21696 104.17c0-0.045 0.03968-0.0847 0.08466-0.0847h8.4662c0.04762 0 0.08466 0.0397 0.08466 0.0847v7.7043c0 0.0476-0.03704 0.0847-0.08466 0.0847h-8.4662c-0.04498 0-0.08466-0.037-0.08466-0.0847zm0.16932 7.7043-0.08466-0.0847h8.4662l-0.08467 0.0847v-7.7043l0.08467 0.0847h-8.4662l0.08466-0.0847z" fill="#27549e" stroke="#27549e" stroke-linejoin="bevel" stroke-width=".042331px"/>
<path d="m30.907 81.054v30.817h8.4239v-30.817z" fill="#3975d8" fill-rule="evenodd"/>
<path d="m30.822 81.054c0-0.04498 0.03968-0.08466 0.08466-0.08466h8.4239c0.04762 0 0.08466 0.03969 0.08466 0.08466v30.817c0 0.0476-0.03704 0.0847-0.08466 0.0847h-8.4239c-0.04498 0-0.08466-0.037-0.08466-0.0847zm0.16932 30.817-0.08466-0.0847h8.4239l-0.08466 0.0847v-30.817l0.08466 0.08466h-8.4239l0.08466-0.08466z" fill="#27549e" stroke="#27549e" stroke-linejoin="bevel" stroke-width=".042331px"/>
<path d="m46.189 50.236v61.634h8.4662v-61.634z" fill="#3975d8" fill-rule="evenodd"/>
<path d="m46.104 50.236c0-0.04498 0.03969-0.08466 0.08466-0.08466h8.4662c0.04762 0 0.08466 0.03969 0.08466 0.08466v61.634c0 0.0476-0.03704 0.0847-0.08466 0.0847h-8.4662c-0.04498 0-0.08466-0.037-0.08466-0.0847zm0.16933 61.634-0.08467-0.0847h8.4662l-0.08466 0.0847v-61.634l0.08466 0.08466h-8.4662l0.08467-0.08466z" fill="#27549e" stroke="#27549e" stroke-linejoin="bevel" stroke-width=".042331px"/>
<path d="m61.47 104.17v7.7043h8.4662v-7.7043z" fill="#3975d8" fill-rule="evenodd"/>
<path d="m61.385 104.17c0-0.0423 0.04233-0.0847 0.08466-0.0847h8.4662c0.0476 0 0.0847 0.0423 0.0847 0.0847v7.7043c0 0.0476-0.037 0.0847-0.0847 0.0847h-8.4662c-0.04233 0-0.08466-0.037-0.08466-0.0847zm0.16932 7.7043-0.08466-0.0847h8.4662l-0.0847 0.0847v-7.7043l0.0847 0.0847h-8.4662l0.08466-0.0847z" fill="#27549e" stroke="#27549e" stroke-linejoin="bevel" stroke-width=".042331px"/>
<path d="m-15.022 104.17v7.7043h8.4662v-7.7043z" fill="#cf3a2e" fill-rule="evenodd"/>
<path d="m-15.107 104.17c0-0.045 0.03969-0.0847 0.08466-0.0847h8.4662c0.04762 0 0.08466 0.0397 0.08466 0.0847v7.7043c0 0.0476-0.03704 0.0847-0.08466 0.0847h-8.4662c-0.04498 0-0.08466-0.037-0.08466-0.0847zm0.16932 7.7043-0.08466-0.0847h8.4662l-0.08466 0.0847v-7.7043l0.08466 0.0847h-8.4662l0.08466-0.0847z" fill="#98281f" stroke="#98281f" stroke-linejoin="bevel" stroke-width=".042331px"/>
<path d="m0.30162 88.758v15.409h8.4662v-15.409z" fill="#cf3a2e" fill-rule="evenodd"/>
<path d="m0.21696 88.758c0-0.04498 0.03968-0.08466 0.08466-0.08466h8.4662c0.04762 0 0.08466 0.03969 0.08466 0.08466v15.409c0 0.0476-0.03704 0.0847-0.08466 0.0847h-8.4662c-0.04498 0-0.08466-0.037-0.08466-0.0847zm0.16932 15.409-0.08466-0.0847h8.4662l-0.08467 0.0847v-15.409l0.08467 0.08466h-8.4662l0.08466-0.08466z" fill="#98281f" stroke="#98281f" stroke-linejoin="bevel" stroke-width=".042331px"/>
<path d="m15.583 104.17v7.7043h8.4662v-7.7043z" fill="#cf3a2e" fill-rule="evenodd"/>
<path d="m15.499 104.17c0-0.045 0.03968-0.0847 0.08466-0.0847h8.4662c0.04762 0 0.08466 0.0397 0.08466 0.0847v7.7043c0 0.0476-0.03704 0.0847-0.08466 0.0847h-8.4662c-0.04498 0-0.08466-0.037-0.08466-0.0847zm0.16932 7.7043-0.08466-0.0847h8.4662l-0.08466 0.0847v-7.7043l0.08466 0.0847h-8.4662l0.08466-0.0847z" fill="#98281f" stroke="#98281f" stroke-linejoin="bevel" stroke-width=".042331px"/>
<path d="m30.907 65.645v15.409h8.4239v-15.409z" fill="#cf3a2e" fill-rule="evenodd"/>
<path d="m30.822 65.645c0-0.04498 0.03968-0.08466 0.08466-0.08466h8.4239c0.04762 0 0.08466 0.03969 0.08466 0.08466v15.409c0 0.04762-0.03704 0.08466-0.08466 0.08466h-8.4239c-0.04498 0-0.08466-0.03704-0.08466-0.08466zm0.16932 15.409-0.08466-0.08466h8.4239l-0.08466 0.08466v-15.409l0.08466 0.08466h-8.4239l0.08466-0.08466z" fill="#98281f" stroke="#98281f" stroke-linejoin="bevel" stroke-width=".042331px"/>
<path d="m61.47 96.462v7.7043h8.4662v-7.7043z" fill="#cf3a2e" fill-rule="evenodd"/>
<path d="m61.385 96.462c0-0.0423 0.04233-0.0847 0.08466-0.0847h8.4662c0.0476 0 0.0847 0.0423 0.0847 0.0847v7.7043c0 0.0476-0.037 0.0847-0.0847 0.0847h-8.4662c-0.04233 0-0.08466-0.037-0.08466-0.0847zm0.16932 7.7043-0.08466-0.0847h8.4662l-0.0847 0.0847v-7.7043l0.0847 0.0847h-8.4662l0.08466-0.0847z" fill="#98281f" stroke="#98281f" stroke-linejoin="bevel" stroke-width=".042331px"/>
<path d="m-15.022 96.462v7.7043h8.4662v-7.7043z" fill="#dea603" fill-rule="evenodd"/>
<path d="m-15.107 96.462c0-0.045 0.03969-0.0847 0.08466-0.0847h8.4662c0.04762 0 0.08466 0.0397 0.08466 0.0847v7.7043c0 0.0476-0.03704 0.0847-0.08466 0.0847h-8.4662c-0.04498 0-0.08466-0.037-0.08466-0.0847zm0.16932 7.7043-0.08466-0.0847h8.4662l-0.08466 0.0847v-7.7043l0.08466 0.0847h-8.4662l0.08466-0.0847z" fill="#a37902" stroke="#a37902" stroke-linejoin="bevel" stroke-width=".042331px"/>
<path d="m0.30162 73.349v15.409h8.4662v-15.409z" fill="#dea603" fill-rule="evenodd"/>
<path d="m0.21696 73.349c0-0.04498 0.03968-0.08466 0.08466-0.08466h8.4662c0.04762 0 0.08466 0.03969 0.08466 0.08466v15.409c0 0.04762-0.03704 0.08466-0.08466 0.08466h-8.4662c-0.04498 0-0.08466-0.03704-0.08466-0.08466zm0.16932 15.409-0.08466-0.08466h8.4662l-0.08467 0.08466v-15.409l0.08467 0.08466h-8.4662l0.08466-0.08466z" fill="#a37902" stroke="#a37902" stroke-linejoin="bevel" stroke-width=".042331px"/>
<path d="m15.583 96.462v7.7043h8.4662v-7.7043z" fill="#dea603" fill-rule="evenodd"/>
<path d="m15.499 96.462c0-0.045 0.03968-0.0847 0.08466-0.0847h8.4662c0.04762 0 0.08466 0.0397 0.08466 0.0847v7.7043c0 0.0476-0.03704 0.0847-0.08466 0.0847h-8.4662c-0.04498 0-0.08466-0.037-0.08466-0.0847zm0.16932 7.7043-0.08466-0.0847h8.4662l-0.08466 0.0847v-7.7043l0.08466 0.0847h-8.4662l0.08466-0.0847z" fill="#a37902" stroke="#a37902" stroke-linejoin="bevel" stroke-width=".042331px"/>
<path d="m61.47 88.758v7.7043h8.4662v-7.7043z" fill="#dea603" fill-rule="evenodd"/>
<path d="m61.385 88.758c0-0.04233 0.04233-0.08466 0.08466-0.08466h8.4662c0.0476 0 0.0847 0.04233 0.0847 0.08466v7.7043c0 0.0476-0.037 0.0847-0.0847 0.0847h-8.4662c-0.04233 0-0.08466-0.037-0.08466-0.0847zm0.16932 7.7043-0.08466-0.0847h8.4662l-0.0847 0.0847v-7.7043l0.0847 0.08466h-8.4662l0.08466-0.08466z" fill="#a37902" stroke="#a37902" stroke-linejoin="bevel" stroke-width=".042331px"/>
<path d="m0.30162 65.645v7.7043h8.4662v-7.7043z" fill="#2d9449" fill-rule="evenodd"/>
<path d="m0.21696 65.645c0-0.04498 0.03968-0.08466 0.08466-0.08466h8.4662c0.04762 0 0.08466 0.03969 0.08466 0.08466v7.7043c0 0.04762-0.03704 0.08466-0.08466 0.08466h-8.4662c-0.04498 0-0.08466-0.03704-0.08466-0.08466zm0.16932 7.7043-0.08466-0.08466h8.4662l-0.08467 0.08466v-7.7043l0.08467 0.08466h-8.4662l0.08466-0.08466z" fill="#1e6c33" stroke="#1e6c33" stroke-linejoin="bevel" stroke-width=".042331px"/>
<path d="m30.907 57.941v7.7043h8.4239v-7.7043z" fill="#2d9449" fill-rule="evenodd"/>
<path d="m30.822 57.941c0-0.04498 0.03968-0.08466 0.08466-0.08466h8.4239c0.04762 0 0.08466 0.03968 0.08466 0.08466v7.7043c0 0.04762-0.03704 0.08466-0.08466 0.08466h-8.4239c-0.04498 0-0.08466-0.03704-0.08466-0.08466zm0.16932 7.7043-0.08466-0.08466h8.4239l-0.08466 0.08466v-7.7043l0.08466 0.08466h-8.4239l0.08466-0.08466z" fill="#1e6c33" stroke="#1e6c33" stroke-linejoin="bevel" stroke-width=".042331px"/>
<path d="m46.189 42.532v7.7043h8.4662v-7.7043z" fill="#2d9449" fill-rule="evenodd"/>
<path d="m46.104 42.532c0-0.04498 0.03969-0.08466 0.08466-0.08466h8.4662c0.04762 0 0.08466 0.03968 0.08466 0.08466v7.7043c0 0.04762-0.03704 0.08466-0.08466 0.08466h-8.4662c-0.04498 0-0.08466-0.03704-0.08466-0.08466zm0.16933 7.7043-0.08467-0.08466h8.4662l-0.08466 0.08466v-7.7043l0.08466 0.08466h-8.4662l0.08467-0.08466z" fill="#1e6c33" stroke="#1e6c33" stroke-linejoin="bevel" stroke-width=".042331px"/>
<path d="m61.47 73.349v15.409h8.4662v-15.409z" fill="#2d9449" fill-rule="evenodd"/>
<path d="m61.385 73.349c0-0.04233 0.04233-0.08466 0.08466-0.08466h8.4662c0.0476 0 0.0847 0.04233 0.0847 0.08466v15.409c0 0.04762-0.037 0.08466-0.0847 0.08466h-8.4662c-0.04233 0-0.08466-0.03704-0.08466-0.08466zm0.16932 15.409-0.08466-0.08466h8.4662l-0.0847 0.08466v-15.409l0.0847 0.08466h-8.4662l0.08466-0.08466z" fill="#1e6c33" stroke="#1e6c33" stroke-linejoin="bevel" stroke-width=".042331px"/>
<path d="m-15.022 73.349v23.113h8.4662v-23.113z" fill="#e26001" fill-rule="evenodd"/>
<path d="m-15.107 73.349c0-0.04498 0.03969-0.08466 0.08466-0.08466h8.4662c0.04762 0 0.08466 0.03969 0.08466 0.08466v23.113c0 0.0476-0.03704 0.0847-0.08466 0.0847h-8.4662c-0.04498 0-0.08466-0.037-0.08466-0.0847zm0.16932 23.113-0.08466-0.0847h8.4662l-0.08466 0.0847v-23.113l0.08466 0.08466h-8.4662l0.08466-0.08466z" fill="#a64400" stroke="#a64400" stroke-linejoin="bevel" stroke-width=".042331px"/>
<path d="m0.30162 50.236v15.409h8.4662v-15.409z" fill="#e26001" fill-rule="evenodd"/>
<path d="m0.21696 50.236c0-0.04498 0.03968-0.08466 0.08466-0.08466h8.4662c0.04762 0 0.08466 0.03969 0.08466 0.08466v15.409c0 0.04762-0.03704 0.08466-0.08466 0.08466h-8.4662c-0.04498 0-0.08466-0.03704-0.08466-0.08466zm0.16932 15.409-0.08466-0.08466h8.4662l-0.08467 0.08466v-15.409l0.08467 0.08466h-8.4662l0.08466-0.08466z" fill="#a64400" stroke="#a64400" stroke-linejoin="bevel" stroke-width=".042331px"/>
<path d="m30.907 42.532v15.409h8.4239v-15.409z" fill="#e26001" fill-rule="evenodd"/>
<path d="m30.822 42.532c0-0.04498 0.03968-0.08466 0.08466-0.08466h8.4239c0.04762 0 0.08466 0.03968 0.08466 0.08466v15.409c0 0.04762-0.03704 0.08466-0.08466 0.08466h-8.4239c-0.04498 0-0.08466-0.03704-0.08466-0.08466zm0.16932 15.409-0.08466-0.08466h8.4239l-0.08466 0.08466v-15.409l0.08466 0.08466h-8.4239l0.08466-0.08466z" fill="#a64400" stroke="#a64400" stroke-linejoin="bevel" stroke-width=".042331px"/>
<path d="m-15.022 57.941v15.409h8.4662v-15.409z" fill="#3da7af" fill-rule="evenodd"/>
<path d="m-15.107 57.941c0-0.04498 0.03969-0.08466 0.08466-0.08466h8.4662c0.04762 0 0.08466 0.03968 0.08466 0.08466v15.409c0 0.04762-0.03704 0.08466-0.08466 0.08466h-8.4662c-0.04498 0-0.08466-0.03704-0.08466-0.08466zm0.16932 15.409-0.08466-0.08466h8.4662l-0.08466 0.08466v-15.409l0.08466 0.08466h-8.4662l0.08466-0.08466z" fill="#2a7a80" stroke="#2a7a80" stroke-linejoin="bevel" stroke-width=".042331px"/>
<path d="m15.583 88.758v7.7043h8.4662v-7.7043z" fill="#3da7af" fill-rule="evenodd"/>
<path d="m15.499 88.758c0-0.04498 0.03968-0.08466 0.08466-0.08466h8.4662c0.04762 0 0.08466 0.03969 0.08466 0.08466v7.7043c0 0.0476-0.03704 0.0847-0.08466 0.0847h-8.4662c-0.04498 0-0.08466-0.037-0.08466-0.0847zm0.16932 7.7043-0.08466-0.0847h8.4662l-0.08466 0.0847v-7.7043l0.08466 0.08466h-8.4662l0.08466-0.08466z" fill="#2a7a80" stroke="#2a7a80" stroke-linejoin="bevel" stroke-width=".042331px"/>
<path d="m61.47 65.645v7.7043h8.4662v-7.7043z" fill="#3da7af" fill-rule="evenodd"/>
<path d="m61.385 65.645c0-0.04233 0.04233-0.08466 0.08466-0.08466h8.4662c0.0476 0 0.0847 0.04233 0.0847 0.08466v7.7043c0 0.04762-0.037 0.08466-0.0847 0.08466h-8.4662c-0.04233 0-0.08466-0.03704-0.08466-0.08466zm0.16932 7.7043-0.08466-0.08466h8.4662l-0.0847 0.08466v-7.7043l0.0847 0.08466h-8.4662l0.08466-0.08466z" fill="#2a7a80" stroke="#2a7a80" stroke-linejoin="bevel" stroke-width=".042331px"/>
<path d="m-15.022 42.532v15.409h8.4662v-15.409z" fill="#8eacf7" fill-rule="evenodd"/>
<path d="m-15.107 42.532c0-0.04498 0.03969-0.08466 0.08466-0.08466h8.4662c0.04762 0 0.08466 0.03968 0.08466 0.08466v15.409c0 0.04762-0.03704 0.08466-0.08466 0.08466h-8.4662c-0.04498 0-0.08466-0.03704-0.08466-0.08466zm0.16932 15.409-0.08466-0.08466h8.4662l-0.08466 0.08466v-15.409l0.08466 0.08466h-8.4662l0.08466-0.08466z" fill="#8999c8" stroke="#8999c8" stroke-linejoin="bevel" stroke-width=".042331px"/>
<path d="m0.30162 42.532v7.7043h8.4662v-7.7043z" fill="#8eacf7" fill-rule="evenodd"/>
<path d="m0.21696 42.532c0-0.04498 0.03968-0.08466 0.08466-0.08466h8.4662c0.04762 0 0.08466 0.03968 0.08466 0.08466v7.7043c0 0.04762-0.03704 0.08466-0.08466 0.08466h-8.4662c-0.04498 0-0.08466-0.03704-0.08466-0.08466zm0.16932 7.7043-0.08466-0.08466h8.4662l-0.08467 0.08466v-7.7043l0.08467 0.08466h-8.4662l0.08466-0.08466z" fill="#8999c8" stroke="#8999c8" stroke-linejoin="bevel" stroke-width=".042331px"/>
<path d="m15.583 42.532v46.226h8.4662v-46.226z" fill="#8eacf7" fill-rule="evenodd"/>
<path d="m15.499 42.532c0-0.04498 0.03968-0.08466 0.08466-0.08466h8.4662c0.04762 0 0.08466 0.03968 0.08466 0.08466v46.226c0 0.04762-0.03704 0.08466-0.08466 0.08466h-8.4662c-0.04498 0-0.08466-0.03704-0.08466-0.08466zm0.16932 46.226-0.08466-0.08466h8.4662l-0.08466 0.08466v-46.226l0.08466 0.08466h-8.4662l0.08466-0.08466z" fill="#8999c8" stroke="#8999c8" stroke-linejoin="bevel" stroke-width=".042331px"/>
<path d="m61.47 42.532v23.113h8.4662v-23.113z" fill="#8eacf7" fill-rule="evenodd"/>
<path d="m61.385 42.532c0-0.04233 0.04233-0.08466 0.08466-0.08466h8.4662c0.0476 0 0.0847 0.04233 0.0847 0.08466v23.113c0 0.04762-0.037 0.08466-0.0847 0.08466h-8.4662c-0.04233 0-0.08466-0.03704-0.08466-0.08466zm0.16932 23.113-0.08466-0.08466h8.4662l-0.0847 0.08466v-23.113l0.0847 0.08466h-8.4662l0.08466-0.08466z" fill="#8999c8" stroke="#8999c8" stroke-linejoin="bevel" stroke-width=".042331px"/>
<path d="m-18.493 111.87v-77.043h0.16932v77.043z" fill="#898989" stroke="#898989" stroke-linejoin="bevel" stroke-width=".042331px"/>
<path d="m-19.509 111.79h1.1006v0.16932h-1.1006zm0-7.7043h1.1006v0.16933h-1.1006zm0-7.7043h1.1006v0.16932h-1.1006zm0-7.7043h1.1006v0.16932h-1.1006zm0-7.7043h1.1006v0.16932h-1.1006zm0-7.7043h1.1006v0.16932h-1.1006zm0-7.7043h1.1006v0.16932h-1.1006zm0-7.7043h1.1006v0.16932h-1.1006zm0-7.7043h1.1006v0.16932h-1.1006zm0-7.7043h1.1006v0.16932h-1.1006zm0-7.7043h1.1006v0.16932h-1.1006z" fill="#898989" stroke="#898989" stroke-linejoin="bevel" stroke-width=".042331px"/>
<path d="m-18.409 111.79h91.774v0.16932h-91.774z" fill="#898989" stroke="#898989" stroke-linejoin="bevel" stroke-width=".042331px"/>
<path d="m-18.324 111.87v1.0583h-0.16932v-1.0583zm15.282 0v1.0583h-0.16932v-1.0583zm15.282 0v1.0583h-0.16932v-1.0583zm15.324 0v1.0583h-0.16932v-1.0583zm15.282 0v1.0583h-0.16933v-1.0583zm15.324 0v1.0583h-0.16932v-1.0583zm15.282 0v1.0583h-0.16933v-1.0583z" fill="#898989" stroke="#898989" stroke-linejoin="bevel" stroke-width=".042331px"/>
<text x="-23.403811" y="112.99874" fill="#000000" font-family="Arial" font-size="3.5057px" font-weight="400" letter-spacing="0px" stroke-width=".26458" word-spacing="0px" style="line-height:125%" xml:space="preserve"><tspan x="-23.403811" y="112.99874" stroke-width=".26458"><tspan dx="0" dy="0" fill="#000000" font-family="Arial" font-size="3.5057px" font-weight="400" stroke-width=".26458">0</tspan></tspan></text>
<text x="-23.403811" y="105.29401" fill="#000000" font-family="Arial" font-size="3.5057px" font-weight="400" letter-spacing="0px" stroke-width=".26458" word-spacing="0px" style="line-height:125%" xml:space="preserve"><tspan x="-23.403811" y="105.29401" stroke-width=".26458"><tspan dx="0" dy="0" fill="#000000" font-family="Arial" font-size="3.5057px" font-weight="400" stroke-width=".26458">1</tspan></tspan></text>
<text x="-23.403811" y="97.589294" fill="#000000" font-family="Arial" font-size="3.5057px" font-weight="400" letter-spacing="0px" stroke-width=".26458" word-spacing="0px" style="line-height:125%" xml:space="preserve"><tspan x="-23.403811" y="97.589294" stroke-width=".26458"><tspan dx="0" dy="0" fill="#000000" font-family="Arial" font-size="3.5057px" font-weight="400" stroke-width=".26458">2</tspan></tspan></text>
<text x="-23.403811" y="89.884552" fill="#000000" font-family="Arial" font-size="3.5057px" font-weight="400" letter-spacing="0px" stroke-width=".26458" word-spacing="0px" style="line-height:125%" xml:space="preserve"><tspan x="-23.403811" y="89.884552" stroke-width=".26458"><tspan dx="0" dy="0" fill="#000000" font-family="Arial" font-size="3.5057px" font-weight="400" stroke-width=".26458">3</tspan></tspan></text>
<text x="-23.403811" y="82.179848" fill="#000000" font-family="Arial" font-size="3.5057px" font-weight="400" letter-spacing="0px" stroke-width=".26458" word-spacing="0px" style="line-height:125%" xml:space="preserve"><tspan x="-23.403811" y="82.179848" stroke-width=".26458"><tspan dx="0" dy="0" fill="#000000" font-family="Arial" font-size="3.5057px" font-weight="400" stroke-width=".26458">4</tspan></tspan></text>
<text x="-23.403811" y="74.475105" fill="#000000" font-family="Arial" font-size="3.5057px" font-weight="400" letter-spacing="0px" stroke-width=".26458" word-spacing="0px" style="line-height:125%" xml:space="preserve"><tspan x="-23.403811" y="74.475105" stroke-width=".26458"><tspan dx="0" dy="0" fill="#000000" font-family="Arial" font-size="3.5057px" font-weight="400" stroke-width=".26458">5</tspan></tspan></text>
<text x="-23.403811" y="66.77037" fill="#000000" font-family="Arial" font-size="3.5057px" font-weight="400" letter-spacing="0px" stroke-width=".26458" word-spacing="0px" style="line-height:125%" xml:space="preserve"><tspan x="-23.403811" y="66.77037" stroke-width=".26458"><tspan dx="0" dy="0" fill="#000000" font-family="Arial" font-size="3.5057px" font-weight="400" stroke-width=".26458">6</tspan></tspan></text>
<text x="-23.403811" y="59.065655" fill="#000000" font-family="Arial" font-size="3.5057px" font-weight="400" letter-spacing="0px" stroke-width=".26458" word-spacing="0px" style="line-height:125%" xml:space="preserve"><tspan x="-23.403811" y="59.065655" stroke-width=".26458"><tspan dx="0" dy="0" fill="#000000" font-family="Arial" font-size="3.5057px" font-weight="400" stroke-width=".26458">7</tspan></tspan></text>
<text x="-23.403811" y="51.360912" fill="#000000" font-family="Arial" font-size="3.5057px" font-weight="400" letter-spacing="0px" stroke-width=".26458" word-spacing="0px" style="line-height:125%" xml:space="preserve"><tspan x="-23.403811" y="51.360912" stroke-width=".26458"><tspan dx="0" dy="0" fill="#000000" font-family="Arial" font-size="3.5057px" font-weight="400" stroke-width=".26458">8</tspan></tspan></text>
<text x="-23.403811" y="43.656204" fill="#000000" font-family="Arial" font-size="3.5057px" font-weight="400" letter-spacing="0px" stroke-width=".26458" word-spacing="0px" style="line-height:125%" xml:space="preserve"><tspan x="-23.403811" y="43.656204" stroke-width=".26458"><tspan dx="0" dy="0" fill="#000000" font-family="Arial" font-size="3.5057px" font-weight="400" stroke-width=".26458">9</tspan></tspan></text>
<text x="-25.365154" y="35.951466" fill="#000000" font-family="Arial" font-size="3.5057px" font-weight="400" letter-spacing="0px" stroke-width=".26458" word-spacing="0px" style="line-height:125%" xml:space="preserve"><tspan x="-25.365154" y="35.951466" stroke-width=".26458"><tspan dx="0" dy="0" fill="#000000" font-family="Arial" font-size="3.5057px" font-weight="400" stroke-width=".26458">10</tspan></tspan></text>
<text x="-17.420816" y="117.20246" fill="#000000" font-family="Arial" font-size="3.5057px" font-weight="400" letter-spacing="0px" stroke-width=".26458" word-spacing="0px" style="line-height:125%" xml:space="preserve"><tspan x="-17.420816" y="117.20246" stroke-width=".26458"><tspan dx="0" dy="0" fill="#000000" font-family="Arial" font-size="3.5057px" font-weight="400" stroke-width=".26458">SCP-DE</tspan></tspan></text>
<text x="-13.695675" y="121.26626" fill="#000000" font-family="Arial" font-size="3.5057px" font-weight="400" letter-spacing="0px" stroke-width=".26458" word-spacing="0px" style="line-height:125%" xml:space="preserve"><tspan x="-13.695675" y="121.26626" stroke-width=".26458"><tspan dx="0" dy="0" fill="#000000" font-family="Arial" font-size="3.5057px" font-weight="400" stroke-width=".26458">wiki</tspan></tspan></text>
<text x="-2.1218321" y="117.20246" fill="#000000" font-family="Arial" font-size="3.5057px" font-weight="400" letter-spacing="0px" stroke-width=".26458" word-spacing="0px" style="line-height:125%" xml:space="preserve"><tspan x="-2.1218321" y="117.20246" stroke-width=".26458"><tspan dx="0" dy="0" fill="#000000" font-family="Arial" font-size="3.5057px" font-weight="400" stroke-width=".26458">SCP-DE</tspan></tspan></text>
<text x="-1.4445326" y="121.26626" fill="#000000" font-family="Arial" font-size="3.5057px" font-weight="400" letter-spacing="0px" stroke-width=".26458" word-spacing="0px" style="line-height:125%" xml:space="preserve"><tspan x="-1.4445326" y="121.26626" stroke-width=".26458"><tspan dx="0" dy="0" fill="#000000" font-family="Arial" font-size="3.5057px" font-weight="400" stroke-width=".26458">Discord</tspan></tspan></text>
<text x="13.177149" y="117.20246" fill="#000000" font-family="Arial" font-size="3.5057px" font-weight="400" letter-spacing="0px" stroke-width=".26458" word-spacing="0px" style="line-height:125%" xml:space="preserve"><tspan x="13.177149" y="117.20246" stroke-width=".26458"><tspan dx="0" dy="0" fill="#000000" font-family="Arial" font-size="3.5057px" font-weight="400" stroke-width=".26458">SCP-DE</tspan></tspan></text>
<text x="15.336039" y="121.26626" fill="#000000" font-family="Arial" font-size="3.5057px" font-weight="400" letter-spacing="0px" stroke-width=".26458" word-spacing="0px" style="line-height:125%" xml:space="preserve"><tspan x="15.336039" y="121.26626" stroke-width=".26458"><tspan dx="0" dy="0" fill="#000000" font-family="Arial" font-size="3.5057px" font-weight="400" stroke-width=".26458">social</tspan></tspan></text>
<text x="15.039721" y="125.33006" fill="#000000" font-family="Arial" font-size="3.5057px" font-weight="400" letter-spacing="0px" stroke-width=".26458" word-spacing="0px" style="line-height:125%" xml:space="preserve"><tspan x="15.039721" y="125.33006" stroke-width=".26458"><tspan dx="0" dy="0" fill="#000000" font-family="Arial" font-size="3.5057px" font-weight="400" stroke-width=".26458">media</tspan></tspan></text>
<text x="32.804485" y="117.20246" fill="#000000" font-family="Arial" font-size="3.5057px" font-weight="400" letter-spacing="0px" stroke-width=".26458" word-spacing="0px" style="line-height:125%" xml:space="preserve"><tspan x="32.804485" y="117.20246" stroke-width=".26458"><tspan dx="0" dy="0" fill="#000000" font-family="Arial" font-size="3.5057px" font-weight="400" stroke-width=".26458">My</tspan></tspan></text>
<text x="28.529043" y="121.26626" fill="#000000" font-family="Arial" font-size="3.5057px" font-weight="400" letter-spacing="0px" stroke-width=".26458" word-spacing="0px" style="line-height:125%" xml:space="preserve"><tspan x="28.529043" y="121.26626" stroke-width=".26458"><tspan dx="0" dy="0" fill="#000000" font-family="Arial" font-size="3.5057px" font-weight="400" stroke-width=".26458">branch's</tspan></tspan></text>
<text x="32.211849" y="125.33006" fill="#000000" font-family="Arial" font-size="3.5057px" font-weight="400" letter-spacing="0px" stroke-width=".26458" word-spacing="0px" style="line-height:125%" xml:space="preserve"><tspan x="32.211849" y="125.33006" stroke-width=".26458"><tspan dx="0" dy="0" fill="#000000" font-family="Arial" font-size="3.5057px" font-weight="400" stroke-width=".26458">wiki</tspan></tspan></text>
<text x="48.103474" y="117.20246" fill="#000000" font-family="Arial" font-size="3.5057px" font-weight="400" letter-spacing="0px" stroke-width=".26458" word-spacing="0px" style="line-height:125%" xml:space="preserve"><tspan x="48.103474" y="117.20246" stroke-width=".26458"><tspan dx="0" dy="0" fill="#000000" font-family="Arial" font-size="3.5057px" font-weight="400" stroke-width=".26458">My</tspan></tspan></text>
<text x="43.82803" y="121.26626" fill="#000000" font-family="Arial" font-size="3.5057px" font-weight="400" letter-spacing="0px" stroke-width=".26458" word-spacing="0px" style="line-height:125%" xml:space="preserve"><tspan x="43.82803" y="121.26626" stroke-width=".26458"><tspan dx="0" dy="0" fill="#000000" font-family="Arial" font-size="3.5057px" font-weight="400" stroke-width=".26458">branch's</tspan></tspan></text>
<text x="44.462994" y="125.33006" fill="#000000" font-family="Arial" font-size="3.5057px" font-weight="400" letter-spacing="0px" stroke-width=".26458" word-spacing="0px" style="line-height:125%" xml:space="preserve"><tspan x="44.462994" y="125.33006" stroke-width=".26458"><tspan dx="0" dy="0" fill="#000000" font-family="Arial" font-size="3.5057px" font-weight="400" stroke-width=".26458">Discord</tspan></tspan></text>
<text x="63.402454" y="117.20246" fill="#000000" font-family="Arial" font-size="3.5057px" font-weight="400" letter-spacing="0px" stroke-width=".26458" word-spacing="0px" style="line-height:125%" xml:space="preserve"><tspan x="63.402454" y="117.20246" stroke-width=".26458"><tspan dx="0" dy="0" fill="#000000" font-family="Arial" font-size="3.5057px" font-weight="400" stroke-width=".26458">My</tspan></tspan></text>
<text x="59.12701" y="121.26626" fill="#000000" font-family="Arial" font-size="3.5057px" font-weight="400" letter-spacing="0px" stroke-width=".26458" word-spacing="0px" style="line-height:125%" xml:space="preserve"><tspan x="59.12701" y="121.26626" stroke-width=".26458"><tspan dx="0" dy="0" fill="#000000" font-family="Arial" font-size="3.5057px" font-weight="400" stroke-width=".26458">branch's</tspan></tspan></text>
<text x="61.243565" y="125.33006" fill="#000000" font-family="Arial" font-size="3.5057px" font-weight="400" letter-spacing="0px" stroke-width=".26458" word-spacing="0px" style="line-height:125%" xml:space="preserve"><tspan x="61.243565" y="125.33006" stroke-width=".26458"><tspan dx="0" dy="0" fill="#000000" font-family="Arial" font-size="3.5057px" font-weight="400" stroke-width=".26458">social</tspan></tspan></text>
<text x="60.947247" y="129.39383" fill="#000000" font-family="Arial" font-size="3.5057px" font-weight="400" letter-spacing="0px" stroke-width=".26458" word-spacing="0px" style="line-height:125%" xml:space="preserve"><tspan x="60.947247" y="129.39383" stroke-width=".26458"><tspan dx="0" dy="0" fill="#000000" font-family="Arial" font-size="3.5057px" font-weight="400" stroke-width=".26458">media</tspan></tspan></text>
<path d="m77.048 56.544v1.7779h1.7779v-1.7779z" fill="#8eacf7" fill-rule="evenodd"/>
<path d="m76.963 56.544c0-0.04233 0.0423-0.08466 0.0847-0.08466h1.7779c0.0476 0 0.0847 0.04233 0.0847 0.08466v1.7779c0 0.04762-0.037 0.08466-0.0847 0.08466h-1.7779c-0.0423 0-0.0847-0.03704-0.0847-0.08466zm0.16933 1.7779-0.0847-0.08466h1.7779l-0.0847 0.08466v-1.7779l0.0847 0.08466h-1.7779l0.0847-0.08466z" fill="#8999c8" stroke="#8999c8" stroke-linejoin="bevel" stroke-width=".042331px"/>
<text x="79.60453" y="58.563484" fill="#000000" font-family="Arial" font-size="3.5057px" font-weight="400" letter-spacing="0px" stroke-width=".26458" word-spacing="0px" style="line-height:125%" xml:space="preserve"><tspan x="79.60453" y="58.563484" stroke-width=".26458"><tspan dx="0" dy="0" fill="#000000" font-family="Arial" font-size="3.5057px" font-weight="400" stroke-width=".26458">Not at all</tspan></tspan></text>
<path d="m77.048 62.555v1.7779h1.7779v-1.7779z" fill="#3da7af" fill-rule="evenodd"/>
<path d="m76.963 62.555c0-0.04233 0.0423-0.08466 0.0847-0.08466h1.7779c0.0476 0 0.0847 0.04233 0.0847 0.08466v1.7779c0 0.04762-0.037 0.08466-0.0847 0.08466h-1.7779c-0.0423 0-0.0847-0.03704-0.0847-0.08466zm0.16933 1.7779-0.0847-0.08466h1.7779l-0.0847 0.08466v-1.7779l0.0847 0.08466h-1.7779l0.0847-0.08466z" fill="#2a7a80" stroke="#2a7a80" stroke-linejoin="bevel" stroke-width=".042331px"/>
<text x="79.60453" y="64.582703" fill="#000000" font-family="Arial" font-size="3.5057px" font-weight="400" letter-spacing="0px" stroke-width=".26458" word-spacing="0px" style="line-height:125%" xml:space="preserve"><tspan x="79.60453" y="64.582703" stroke-width=".26458"><tspan dx="0" dy="0" fill="#000000" font-family="Arial" font-size="3.5057px" font-weight="400" stroke-width=".26458">Monthly</tspan></tspan></text>
<path d="m77.048 68.566v1.7779h1.7779v-1.7779z" fill="#e26001" fill-rule="evenodd"/>
<path d="m76.963 68.566c0-0.04233 0.0423-0.08466 0.0847-0.08466h1.7779c0.0476 0 0.0847 0.04233 0.0847 0.08466v1.7779c0 0.04762-0.037 0.08466-0.0847 0.08466h-1.7779c-0.0423 0-0.0847-0.03704-0.0847-0.08466zm0.16933 1.7779-0.0847-0.08466h1.7779l-0.0847 0.08466v-1.7779l0.0847 0.08466h-1.7779l0.0847-0.08466z" fill="#a64400" stroke="#a64400" stroke-linejoin="bevel" stroke-width=".042331px"/>
<text x="79.60453" y="70.601921" fill="#000000" font-family="Arial" font-size="3.5057px" font-weight="400" letter-spacing="0px" stroke-width=".26458" word-spacing="0px" style="line-height:125%" xml:space="preserve"><tspan x="79.60453" y="70.601921" stroke-width=".26458"><tspan dx="0" dy="0" fill="#000000" font-family="Arial" font-size="3.5057px" font-weight="400" stroke-width=".26458">Weekly</tspan></tspan></text>
<path d="m77.048 74.577v1.7779h1.7779v-1.7779z" fill="#2d9449" fill-rule="evenodd"/>
<path d="m76.963 74.577c0-0.04233 0.0423-0.08466 0.0847-0.08466h1.7779c0.0476 0 0.0847 0.04233 0.0847 0.08466v1.7779c0 0.04762-0.037 0.08466-0.0847 0.08466h-1.7779c-0.0423 0-0.0847-0.03704-0.0847-0.08466zm0.16933 1.7779-0.0847-0.08466h1.7779l-0.0847 0.08466v-1.7779l0.0847 0.08466h-1.7779l0.0847-0.08466z" fill="#1e6c33" stroke="#1e6c33" stroke-linejoin="bevel" stroke-width=".042331px"/>
<text x="79.60453" y="76.621132" fill="#000000" font-family="Arial" font-size="3.5057px" font-weight="400" letter-spacing="0px" stroke-width=".26458" word-spacing="0px" style="line-height:125%" xml:space="preserve"><tspan x="79.60453" y="76.621132" stroke-width=".26458"><tspan dx="0" dy="0" fill="#000000" font-family="Arial" font-size="3.5057px" font-weight="400" stroke-width=".26458">On weekends</tspan></tspan></text>
<path d="m77.048 80.63v1.7779h1.7779v-1.7779z" fill="#dea603" fill-rule="evenodd"/>
<path d="m76.963 80.63c0-0.04233 0.0423-0.08466 0.0847-0.08466h1.7779c0.0476 0 0.0847 0.04233 0.0847 0.08466v1.7779c0 0.04763-0.037 0.08466-0.0847 0.08466h-1.7779c-0.0423 0-0.0847-0.03704-0.0847-0.08466zm0.16933 1.7779-0.0847-0.08466h1.7779l-0.0847 0.08466v-1.7779l0.0847 0.08466h-1.7779l0.0847-0.08466z" fill="#a37902" stroke="#a37902" stroke-linejoin="bevel" stroke-width=".042331px"/>
<text x="79.60453" y="82.64035" fill="#000000" font-family="Arial" font-size="3.5057px" font-weight="400" letter-spacing="0px" stroke-width=".26458" word-spacing="0px" style="line-height:125%" xml:space="preserve"><tspan x="79.60453" y="82.64035" stroke-width=".26458"><tspan dx="0" dy="0" fill="#000000" font-family="Arial" font-size="3.5057px" font-weight="400" stroke-width=".26458">Once per day</tspan></tspan></text>
<path d="m77.048 86.641v1.7779h1.7779v-1.7779z" fill="#cf3a2e" fill-rule="evenodd"/>
<path d="m76.963 86.641c0-0.04233 0.0423-0.08466 0.0847-0.08466h1.7779c0.0476 0 0.0847 0.04233 0.0847 0.08466v1.7779c0 0.04763-0.037 0.08466-0.0847 0.08466h-1.7779c-0.0423 0-0.0847-0.03704-0.0847-0.08466zm0.16933 1.7779-0.0847-0.08466h1.7779l-0.0847 0.08466v-1.7779l0.0847 0.08466h-1.7779l0.0847-0.08466z" fill="#98281f" stroke="#98281f" stroke-linejoin="bevel" stroke-width=".042331px"/>
<text x="79.60453" y="88.659561" fill="#000000" font-family="Arial" font-size="3.5057px" font-weight="400" letter-spacing="0px" stroke-width=".26458" word-spacing="0px" style="line-height:125%" xml:space="preserve"><tspan x="79.60453" y="88.659561" stroke-width=".26458"><tspan dx="0" dy="0" fill="#000000" font-family="Arial" font-size="3.5057px" font-weight="400" stroke-width=".26458">Some hours daily</tspan></tspan></text>
<path d="m77.048 92.652v1.7779h1.7779v-1.7779z" fill="#3975d8" fill-rule="evenodd"/>
<path d="m76.963 92.652c0-0.04233 0.0423-0.08466 0.0847-0.08466h1.7779c0.0476 0 0.0847 0.04233 0.0847 0.08466v1.7779c0 0.04763-0.037 0.08466-0.0847 0.08466h-1.7779c-0.0423 0-0.0847-0.03704-0.0847-0.08466zm0.16933 1.7779-0.0847-0.08466h1.7779l-0.0847 0.08466v-1.7779l0.0847 0.08466h-1.7779l0.0847-0.08466z" fill="#27549e" stroke="#27549e" stroke-linejoin="bevel" stroke-width=".042331px"/>
<text x="79.60453" y="94.67878" fill="#000000" font-family="Arial" font-size="3.5057px" font-weight="400" letter-spacing="0px" stroke-width=".26458" word-spacing="0px" style="line-height:125%" xml:space="preserve"><tspan x="79.60453" y="94.67878" stroke-width=".26458"><tspan dx="0" dy="0" fill="#000000" font-family="Arial" font-size="3.5057px" font-weight="400" stroke-width=".26458">Almost always</tspan></tspan></text>
</g>
</svg>
