<?xml version="1.0" encoding="UTF-8"?>
<svg width="431.47" height="145.79" version="1.1" viewBox="0 0 114.16 38.575" xmlns="http://www.w3.org/2000/svg" xmlns:cc="http://creativecommons.org/ns#" xmlns:dc="http://purl.org/dc/elements/1.1/" xmlns:rdf="http://www.w3.org/1999/02/22-rdf-syntax-ns#">
<defs>
<clipPath id="a">
<path d="m216.79 0.47998h237.11v116.15h-237.11z"/>
</clipPath>
</defs>
<metadata>
<rdf:RDF>
<cc:Work rdf:about="">
<dc:format>image/svg+xml</dc:format>
<dc:type rdf:resource="http://purl.org/dc/dcmitype/StillImage"/>
<dc:title/>
</cc:Work>
</rdf:RDF>
</metadata>
<g transform="translate(15.629 -54.777)">
<path d="m33.86 56.206v30.478h62.481v-30.478z" fill="#e7e7e7" fill-rule="evenodd"/>
<path d="m46.433 56.206v30.478h-0.16932v-30.478zm12.488 0v30.478h-0.16932v-30.478zm12.53 0v30.478h-0.16933v-30.478zm12.488 0v30.478h-0.16932v-30.478zm12.488 0v30.478h-0.16932v-30.478z" fill="#898989" stroke="#898989" stroke-linejoin="bevel" stroke-width=".042331px"/>
<path transform="matrix(.26458 0 0 .26458 -23.477 56.057)" d="m216.71 0.55997v38.398h188.95v-38.398z" clip-path="url(#a)" fill="#4285f4" fill-rule="evenodd"/>
<path transform="matrix(.26458 0 0 .26458 -23.477 56.057)" d="m216.39 0.55997c0-0.15999 0.15999-0.31998 0.31998-0.31998h188.95c0.17999 0 0.31998 0.15999 0.31998 0.31998v38.398c0 0.17999-0.13999 0.31998-0.31998 0.31998h-188.95c-0.15999 0-0.31998-0.13999-0.31998-0.31998zm0.63997 38.398-0.31999-0.31998h188.95l-0.31998 0.31998v-38.398l0.31998 0.31998h-188.95l0.31999-0.31998z" clip-path="url(#a)" fill="#2e60b3" stroke="#2e60b3" stroke-linejoin="bevel" stroke-width=".15999px"/>
<path transform="matrix(.26458 0 0 .26458 -23.477 56.057)" d="m216.71 38.958v38.398h141.75v-38.398z" clip-path="url(#a)" fill="#ea4335" fill-rule="evenodd"/>
<path transform="matrix(.26458 0 0 .26458 -23.477 56.057)" d="m216.39 38.958c0-0.15999 0.15999-0.31998 0.31998-0.31998h141.75c0.17999 0 0.31999 0.15999 0.31999 0.31998v38.398c0 0.17999-0.14 0.31998-0.31999 0.31998h-141.75c-0.15999 0-0.31998-0.13999-0.31998-0.31998zm0.63997 38.398-0.31999-0.31998h141.75l-0.31998 0.31998v-38.398l0.31998 0.31998h-141.75l0.31999-0.31998z" clip-path="url(#a)" fill="#ac2f24" stroke="#ac2f24" stroke-linejoin="bevel" stroke-width=".15999px"/>
<path transform="matrix(.26458 0 0 .26458 -23.477 56.057)" d="m216.71 77.356v38.398h94.395v-38.398z" clip-path="url(#a)" fill="#fbbc04" fill-rule="evenodd"/>
<path transform="matrix(.26458 0 0 .26458 -23.477 56.057)" d="m216.39 77.356c0-0.16999 0.14999-0.31998 0.31998-0.31998h94.395c0.17999 0 0.31998 0.14999 0.31998 0.31998v38.398c0 0.17999-0.13999 0.31998-0.31998 0.31998h-94.395c-0.16999 0-0.31998-0.13999-0.31998-0.31998zm0.63997 38.398-0.31999-0.31999h94.395l-0.31998 0.31999v-38.398l0.31998 0.31998h-94.395l0.31999-0.31998z" clip-path="url(#a)" fill="#b98902" stroke="#b98902" stroke-linejoin="bevel" stroke-width=".15999px"/>
<path d="m33.86 86.599h62.481v0.16933h-62.481z" fill="#898989" stroke="#898989" stroke-linejoin="bevel" stroke-width=".042331px"/>
<path d="m33.945 86.684v1.0583h-0.16933v-1.0583zm12.488 0v1.0583h-0.16932v-1.0583zm12.488 0v1.0583h-0.16932v-1.0583zm12.53 0v1.0583h-0.16933v-1.0583zm12.488 0v1.0583h-0.16932v-1.0583zm12.488 0v1.0583h-0.16932v-1.0583z" fill="#898989" stroke="#898989" stroke-linejoin="bevel" stroke-width=".042331px"/>
<path d="m33.945 56.206v30.478h-0.16933v-30.478z" fill="#898989" stroke="#898989" stroke-linejoin="bevel" stroke-width=".042331px"/>
<path d="m32.802 56.121h1.0583v0.16932h-1.0583zm0 10.159h1.0583v0.16932h-1.0583zm0 10.159h1.0583v0.16932h-1.0583zm0 10.159h1.0583v0.16933h-1.0583z" fill="#898989" stroke="#898989" stroke-linejoin="bevel" stroke-width=".042331px"/>
<text x="79.810532" y="62.550663" fill="#000000" font-family="Arial" font-size="3.5057px" font-weight="400" letter-spacing="0px" stroke-width=".26458" word-spacing="0px" style="line-height:125%" xml:space="preserve"><tspan x="79.810532" y="62.550663" stroke-width=".26458"><tspan dx="0" dy="0" fill="#000000" font-family="Arial" font-size="3.5057px" font-weight="400" stroke-width=".26458">4</tspan></tspan></text>
<text x="67.311989" y="72.711693" fill="#000000" font-family="Arial" font-size="3.5057px" font-weight="400" letter-spacing="0px" stroke-width=".26458" word-spacing="0px" style="line-height:125%" xml:space="preserve"><tspan x="67.311989" y="72.711693" stroke-width=".26458"><tspan dx="0" dy="0" fill="#000000" font-family="Arial" font-size="3.5057px" font-weight="400" stroke-width=".26458">3</tspan></tspan></text>
<text x="54.813416" y="82.872742" fill="#000000" font-family="Arial" font-size="3.5057px" font-weight="400" letter-spacing="0px" stroke-width=".26458" word-spacing="0px" style="line-height:125%" xml:space="preserve"><tspan x="54.813416" y="82.872742" stroke-width=".26458"><tspan dx="0" dy="0" fill="#000000" font-family="Arial" font-size="3.5057px" font-weight="400" stroke-width=".26458">2</tspan></tspan></text>
<text x="32.906471" y="91.984131" fill="#000000" font-family="Arial" font-size="3.5057px" font-weight="400" letter-spacing="0px" stroke-width=".26458" word-spacing="0px" style="line-height:125%" xml:space="preserve"><tspan x="32.906471" y="91.984131" stroke-width=".26458"><tspan dx="0" dy="0" fill="#000000" font-family="Arial" font-size="3.5057px" font-weight="400" stroke-width=".26458">0</tspan></tspan></text>
<text x="45.405045" y="91.984131" fill="#000000" font-family="Arial" font-size="3.5057px" font-weight="400" letter-spacing="0px" stroke-width=".26458" word-spacing="0px" style="line-height:125%" xml:space="preserve"><tspan x="45.405045" y="91.984131" stroke-width=".26458"><tspan dx="0" dy="0" fill="#000000" font-family="Arial" font-size="3.5057px" font-weight="400" stroke-width=".26458">1</tspan></tspan></text>
<text x="57.903591" y="91.984131" fill="#000000" font-family="Arial" font-size="3.5057px" font-weight="400" letter-spacing="0px" stroke-width=".26458" word-spacing="0px" style="line-height:125%" xml:space="preserve"><tspan x="57.903591" y="91.984131" stroke-width=".26458"><tspan dx="0" dy="0" fill="#000000" font-family="Arial" font-size="3.5057px" font-weight="400" stroke-width=".26458">2</tspan></tspan></text>
<text x="70.402168" y="91.984131" fill="#000000" font-family="Arial" font-size="3.5057px" font-weight="400" letter-spacing="0px" stroke-width=".26458" word-spacing="0px" style="line-height:125%" xml:space="preserve"><tspan x="70.402168" y="91.984131" stroke-width=".26458"><tspan dx="0" dy="0" fill="#000000" font-family="Arial" font-size="3.5057px" font-weight="400" stroke-width=".26458">3</tspan></tspan></text>
<text x="82.900703" y="91.984131" fill="#000000" font-family="Arial" font-size="3.5057px" font-weight="400" letter-spacing="0px" stroke-width=".26458" word-spacing="0px" style="line-height:125%" xml:space="preserve"><tspan x="82.900703" y="91.984131" stroke-width=".26458"><tspan dx="0" dy="0" fill="#000000" font-family="Arial" font-size="3.5057px" font-weight="400" stroke-width=".26458">4</tspan></tspan></text>
<text x="95.399284" y="91.984131" fill="#000000" font-family="Arial" font-size="3.5057px" font-weight="400" letter-spacing="0px" stroke-width=".26458" word-spacing="0px" style="line-height:125%" xml:space="preserve"><tspan x="95.399284" y="91.984131" stroke-width=".26458"><tspan dx="0" dy="0" fill="#000000" font-family="Arial" font-size="3.5057px" font-weight="400" stroke-width=".26458">5</tspan></tspan></text>
<text x="-14.633451" y="62.377811" fill="#000000" font-family="Arial" font-size="3.5057px" font-weight="400" letter-spacing="0px" stroke-width=".26458" word-spacing="0px" style="line-height:125%" xml:space="preserve"><tspan x="-14.633451" y="62.377811" stroke-width=".26458"><tspan dx="0" dy="0" fill="#000000" font-family="Arial" font-size="3.5057px" font-weight="400" stroke-width=".26458">I do not use the SCP-DE wiki</tspan></tspan></text>
<text x="-6.3965163" y="72.538834" fill="#000000" font-family="Arial" font-size="3.5057px" font-weight="400" letter-spacing="0px" stroke-width=".26458" word-spacing="0px" style="line-height:125%" xml:space="preserve"><tspan x="-6.3965163" y="72.538834" stroke-width=".26458"><tspan dx="0" dy="0" fill="#000000" font-family="Arial" font-size="3.5057px" font-weight="400" stroke-width=".26458">Nope, everything is well</tspan></tspan></text>
<text x="30.143255" y="80.671524" fill="#000000" font-family="Arial" font-size="3.5057px" font-weight="400" letter-spacing="0px" stroke-width=".26458" text-align="end" text-anchor="end" word-spacing="0px" style="line-height:125%" xml:space="preserve"><tspan x="30.143255" y="80.671524" text-align="end"><tspan dx="0" dy="0" fill="#000000" font-family="Arial" font-size="3.5057px" font-weight="400" stroke-width=".26458" text-align="end" text-anchor="end">More translations to English</tspan></tspan><tspan x="30.143255" y="85.053688" text-align="end"><tspan fill="#000000" font-family="Arial" font-size="3.5057px" font-weight="400" stroke-width=".26458" text-align="end" text-anchor="end">on the Translation Archive</tspan></tspan></text>
</g>
</svg>
