<?xml version="1.0" encoding="UTF-8"?>
<svg width="429.25" height="232.88" version="1.1" viewBox="0 0 113.57 61.616" xmlns="http://www.w3.org/2000/svg" xmlns:cc="http://creativecommons.org/ns#" xmlns:dc="http://purl.org/dc/elements/1.1/" xmlns:rdf="http://www.w3.org/1999/02/22-rdf-syntax-ns#">
<metadata>
<rdf:RDF>
<cc:Work rdf:about="">
<dc:format>image/svg+xml</dc:format>
<dc:type rdf:resource="http://purl.org/dc/dcmitype/StillImage"/>
<dc:title/>
</cc:Work>
</rdf:RDF>
</metadata>
<g transform="translate(8.9061 -102.64)">
<path d="m21.903 133.44v-29.378z" fill="#3975d8" fill-rule="evenodd"/>
<path d="m21.988 133.44h-0.16932v-29.378l0.08466 0.0847 0.08466-0.0847zm-0.16932-29.378c0-0.0476 0.03704-0.0847 0.08466-0.0847s0.08466 0.037 0.08466 0.0847v29.378c0 0.045-0.03704 0.082-0.08202 0.0847-0.04762 0-0.08731-0.037-0.08731-0.0847z" fill="#27549e" stroke="#27549e" stroke-linejoin="bevel" stroke-width=".042331px"/>
<path d="m21.903 133.44 18.882-22.507c-5.2887-4.4395-11.977-6.8709-18.882-6.8709z" fill="#cf3a2e" fill-rule="evenodd"/>
<path d="m21.988 133.44-0.14816-0.0529 18.882-22.507 0.01058 0.11906-1.008-0.80959-1.0345-0.75666-1.0636-0.7117-1.0927-0.66142-1.1191-0.61116-1.1429-0.56353-1.1641-0.51062-1.1853-0.463-1.2064-0.40743-1.2197-0.35717-1.2382-0.30161-1.2514-0.2487-1.2594-0.19578-1.2752-0.14022-1.2832-0.0847-1.2858-0.0291 0.08466-0.0847zm-0.16932-29.378c0-0.0212 0.01058-0.0423 0.02646-0.0582s0.03969-0.0265 0.06085-0.0265l1.2964 0.0317 1.2885 0.0847 1.2805 0.14023 1.2699 0.19578 1.2567 0.24869 1.2435 0.3069 1.2302 0.35717 1.2117 0.41273 1.1906 0.463 1.1747 0.51591 1.1482 0.56353 1.1244 0.61645 1.098 0.66671 1.0689 0.71699 1.045 0.76196 1.008 0.80958c0.01587 0.0132 0.02646 0.0344 0.0291 0.0556 0.0026 0.0238-0.0026 0.045-0.01852 0.0635l-18.882 22.507c-0.02381 0.0265-0.06085 0.037-0.0926 0.0265-0.0344-0.0132-0.05821-0.045-0.05821-0.082z" fill="#98281f" stroke="#98281f" stroke-linejoin="bevel" stroke-width=".042331px"/>
<path d="m21.903 133.44 25.441 14.689c7.1302-12.347 4.3628-28.031-6.5587-37.196z" fill="#dea603" fill-rule="evenodd"/>
<path d="m21.969 133.5-0.02381-0.12699 25.441 14.689-0.11641 0.0318 0.64026-1.1668 0.58205-1.1826 0.5212-1.1958 0.46829-1.2117 0.40744-1.225 0.35452-1.2329 0.29367-1.2435 0.2434-1.2488 0.18785-1.2541 0.13228-1.2594 0.07672-1.2594 0.01852-1.2594-0.03175-1.2594-0.08202-1.2514-0.13758-1.2488-0.19314-1.2408-0.24605-1.2276-0.29632-1.2223-0.34658-1.2064-0.40215-1.1906-0.44977-1.1773-0.50533-1.1562-0.55295-1.1403-0.60586-1.1112-0.65349-1.0927-0.7064-1.0662-0.75138-1.0398-0.80694-1.0107-0.85191-0.9789-0.90218-0.94452-0.94716-0.91012-0.99743-0.87572 0.1217-0.0106zm18.753-22.615c0.01323-0.0185 0.03439-0.0291 0.05821-0.0291 0.02381-3e-3 0.04498 5e-3 0.0635 0.0185l1.0027 0.88102 0.95245 0.91541 0.90747 0.95245 0.8572 0.98684 0.80694 1.016 0.75667 1.045 0.71169 1.0715 0.65878 1.098 0.60586 1.1191 0.55824 1.1482 0.50533 1.1615 0.45506 1.1826 0.40215 1.2011 0.35188 1.2117 0.29632 1.2276 0.24605 1.2382 0.19314 1.2461 0.13758 1.2541 0.08466 1.262 0.03175 1.2646-0.02117 1.2646-0.07672 1.2699-0.13229 1.2646-0.18784 1.2646-0.2434 1.2541-0.29896 1.2488-0.35452 1.2435-0.41273 1.2302-0.46829 1.217-0.52649 1.2064-0.58205 1.1879-0.64026 1.1668c-0.01323 0.0185-0.03175 0.0344-0.05291 0.0397-0.02116 8e-3 -0.04498 3e-3 -0.06614-8e-3l-25.441-14.689c-0.02117-0.0132-0.03439-0.0344-0.03968-0.0582-0.0053-0.0238 0.0026-0.0503 0.01852-0.0688z" fill="#a37902" stroke="#a37902" stroke-linejoin="bevel" stroke-width=".042331px"/>
<path d="m21.903 133.44-10.048 27.605c13.398 4.876 28.362-0.57147 35.489-12.916z" fill="#2d9449" fill-rule="evenodd"/>
<path d="m21.861 133.52 0.12435-0.045-10.048 27.605-0.05291-0.10847 1.2594 0.42596 1.2646 0.36775 1.2699 0.3069 1.2752 0.2487 1.2752 0.19049 1.2779 0.13493 1.2726 0.0767 1.2726 0.0185 1.2699-0.0344 1.2594-0.0873 1.2567-0.14287 1.2408-0.19842 1.2355-0.2487 1.2197-0.30161 1.2011-0.35188 1.1906-0.40479 1.1694-0.45241 1.1509-0.50533 1.1244-0.55295 1.1059-0.60322 1.0794-0.64819 1.053-0.69582 1.0239-0.74344 0.99478-0.79107 0.95774-0.83339 0.92864-0.87837 0.8916-0.92335 0.8572-0.96568 0.81487-1.0107 0.77519-1.0503 0.73286-1.0927 0.68788-1.1324 0.0291 0.11641zm25.526 14.543c0.02116 0.0106 0.03439 0.0291 0.03969 0.0529 0.0079 0.0212 0.0026 0.045-0.0079 0.0635l-0.69317 1.1376-0.73815 1.1006-0.78048 1.0583-0.82017 1.016-0.85985 0.97097-0.89689 0.92864-0.93393 0.88366-0.96568 0.83868-1.0001 0.79107-1.0292 0.74873-1.0583 0.70111-1.0847 0.65348-1.1112 0.60322-1.135 0.55824-1.1562 0.50533-1.1747 0.45771-1.1985 0.40479-1.2091 0.35717-1.225 0.30161-1.2408 0.24869-1.2514 0.19843-1.262 0.14287-1.2699 0.09-1.2752 0.0344-1.2779-0.0212-1.2832-0.0767-1.2832-0.13493-1.2858-0.19048-1.2805-0.2487-1.2752-0.31219-1.2752-0.36775-1.2594-0.42596c-0.02117-8e-3 -0.03969-0.0238-0.04762-0.045-0.01058-0.0185-0.01323-0.0423-0.0053-0.0635l10.048-27.605c0.01058-0.0238 0.0291-0.0423 0.05291-0.0529 0.02116-8e-3 0.04762-5e-3 0.06879 8e-3z" fill="#1e6c33" stroke="#1e6c33" stroke-linejoin="bevel" stroke-width=".042331px"/>
<path d="m21.903 133.44-10.048 27.605z" fill="#e26001" fill-rule="evenodd"/>
<path d="m21.824 133.41 0.15874 0.0582-10.048 27.605-0.05027-0.10847-0.10847 0.0503zm-9.8896 27.663c-0.0079 0.0212-0.02381 0.0397-0.04498 0.0476-0.01852 0.0106-0.04233 0.0106-0.0635 3e-3 -0.04498-0.0159-0.06614-0.0635-0.05027-0.10847l10.048-27.605c0.01587-0.045 0.0635-0.0688 0.10847-0.0503 0.04498 0.0159 0.06614 0.0635 0.05027 0.10847z" fill="#a64400" stroke="#a64400" stroke-linejoin="bevel" stroke-width=".042331px"/>
<path d="m21.903 133.44v-29.378c-16.226 0-29.378 13.152-29.378 29.378 0 12.35 7.7254 23.38 19.329 27.605z" fill="#3da7af" fill-rule="evenodd"/>
<path d="m21.824 133.42-0.0053 0.0265v-29.378l0.08731 0.0847-0.75931 0.0106-0.74873 0.0265-0.74873 0.0476-0.74079 0.0661-0.7355 0.0847-0.73021 0.10319-0.72492 0.11905-0.71698 0.14022-0.71434 0.15345-0.70376 0.17462-0.69846 0.1852-0.69053 0.20636-0.68788 0.22224-0.67465 0.24076-0.66936 0.25134-0.65878 0.26986-1.299 0.58999-1.2646 0.64555-1.2276 0.70376-1.1879 0.76196-1.1482 0.82016-1.1059 0.86779-1.0636 0.9207-1.0159 0.97097-0.97097 1.016-0.9207 1.0609-0.86779 1.1059-0.81752 1.1482-0.76461 1.1906-0.70376 1.225-0.64555 1.262-0.58734 1.299-0.26986 0.65878-0.25663 0.66936-0.23547 0.67465-0.22224 0.68524-0.20636 0.69317-0.19049 0.69582-0.16932 0.70375-0.1561 0.7117-0.13758 0.71698-0.1217 0.72757-0.10318 0.72756-0.08466 0.73551-0.06614 0.74079-0.04498 0.74609-0.0291 0.75137-0.01058 0.75667 0.02646 1.1615 0.06614 1.143 0.11112 1.1297 0.15345 1.1218 0.19578 1.1112 0.23811 1.0953 0.2778 1.0821 0.32013 1.0689 0.35982 1.053 0.39421 1.0371 0.43654 1.0186 0.47093 1.0001 0.51062 0.97891 0.54501 0.96038 0.58205 0.93658 0.6138 0.91541 0.6482 0.88896 0.68524 0.86778 0.71434 0.83869 0.74609 0.81487 0.77783 0.78313 0.80694 0.75667 0.83869 0.72757 0.86779 0.69846 0.89424 0.66407 0.92335 0.63232 0.9498 0.59793 0.97362 0.56353 1.0001 0.52649 1.0265 0.49475 1.0503 0.45241 1.0742 0.41538-0.11112 0.0503zm-9.887 27.661c-0.0079 0.0212-0.02381 0.0397-0.04498 0.0503-0.02117 8e-3 -0.04498 8e-3 -0.06614 0l-1.0794-0.41537-1.0556-0.45771-1.0318-0.49474-1.0054-0.53179-0.9842-0.56353-0.9551-0.60322-0.92864-0.63761-0.89954-0.66936-0.87043-0.69847-0.84133-0.73285-0.81223-0.76197-0.78313-0.78841-0.75138-0.82017-0.71963-0.84397-0.68524-0.87308-0.65349-0.89425-0.61909-0.9207-0.58205-0.94187-0.5503-0.96568-0.51062-0.9842-0.47623-1.0054-0.43654-1.0239-0.3995-1.0424-0.35982-1.0583-0.32278-1.0768-0.28044-1.09-0.23811-1.1006-0.19578-1.1165-0.15345-1.1271-0.11112-1.1403-0.06879-1.1482-0.02646-1.1668 0.01058-0.76196 0.03175-0.75138 0.04498-0.75138 0.06614-0.74608 0.08466-0.7408 0.10318-0.73286 0.1217-0.73021 0.13758-0.71963 0.1561-0.71698 0.17462-0.70905 0.19049-0.70111 0.20636-0.69317 0.22224-0.69053 0.24076-0.67994 0.25663-0.67465 0.26986-0.66407 0.59264-1.3043 0.65084-1.2673 0.70905-1.2355 0.76461-1.1958 0.82281-1.1535 0.87308-1.1112 0.92599-1.0715 0.97626-1.0212 1.0265-0.97627 1.0689-0.92599 1.1112-0.87308 1.1535-0.82017 1.1985-0.76725 1.2329-0.70904 1.2699-0.65085 1.3043-0.58999 0.66407-0.26986 0.67465-0.25663 0.67994-0.24076 0.68788-0.22224 0.69582-0.20636 0.70376-0.19049 0.70905-0.17462 0.71434-0.15345 0.72228-0.14022 0.73021-0.11905 0.7355-0.10319 0.74079-0.0847 0.74344-0.0661 0.75138-0.0503 0.75402-0.0265 0.75932-0.0106c0.02381 0 0.04498 0.0106 0.06085 0.0265s0.02381 0.037 0.02381 0.0582v29.378c0 0.0106 0 0.0212-0.0026 0.0291z" fill="#2a7a80" stroke="#2a7a80" stroke-linejoin="bevel" stroke-width=".042331px"/>
<text x="24.427931" y="112.3674" fill="#000000" font-family="Arial" font-size="3.5057px" font-weight="400" letter-spacing="0px" stroke-width=".26458" word-spacing="0px" style="line-height:125%" xml:space="preserve"><tspan x="24.427931" y="112.3674" stroke-width=".26458"><tspan dx="0" dy="0" fill="#000000" font-family="Arial" font-size="3.5057px" font-weight="400" stroke-width=".26458">1; 11%</tspan></tspan></text>
<text x="38.450119" y="131.68098" fill="#000000" font-family="Arial" font-size="3.5057px" font-weight="400" letter-spacing="0px" stroke-width=".26458" word-spacing="0px" style="line-height:125%" xml:space="preserve"><tspan x="38.450119" y="131.68098" stroke-width=".26458"><tspan dx="0" dy="0" fill="#000000" font-family="Arial" font-size="3.5057px" font-weight="400" stroke-width=".26458">2; 22%</tspan></tspan></text>
<text x="24.957071" y="156.28595" fill="#000000" font-family="Arial" font-size="3.5057px" font-weight="400" letter-spacing="0px" stroke-width=".26458" word-spacing="0px" style="line-height:125%" xml:space="preserve"><tspan x="24.957071" y="156.28595" stroke-width=".26458"><tspan dx="0" dy="0" fill="#000000" font-family="Arial" font-size="3.5057px" font-weight="400" stroke-width=".26458">2; 22%</tspan></tspan></text>
<text x="-5.4684305" y="130.09357" fill="#000000" font-family="Arial" font-size="3.5057px" font-weight="400" letter-spacing="0px" stroke-width=".26458" word-spacing="0px" style="line-height:125%" xml:space="preserve"><tspan x="-5.4684305" y="130.09357" stroke-width=".26458"><tspan dx="0" dy="0" fill="#000000" font-family="Arial" font-size="3.5057px" font-weight="400" stroke-width=".26458">4; 45%</tspan></tspan></text>
<path d="m55.12 107.77v1.7779h1.7779v-1.7779z" fill="#3975d8" fill-rule="evenodd"/>
<path d="m55.035 107.77c0-0.045 0.03968-0.0847 0.08466-0.0847h1.7779c0.04762 0 0.08466 0.0397 0.08466 0.0847v1.7779c0 0.0476-0.03704 0.0847-0.08466 0.0847h-1.7779c-0.04498 0-0.08466-0.037-0.08466-0.0847zm0.16932 1.7779-0.08466-0.0847h1.7779l-0.08466 0.0847v-1.7779l0.08466 0.0847h-1.7779l0.08466-0.0847z" fill="#27549e" stroke="#27549e" stroke-linejoin="bevel" stroke-width=".042331px"/>
<text x="57.668579" y="109.80099" fill="#000000" font-family="Arial" font-size="3.5057px" font-weight="400" letter-spacing="0px" stroke-width=".26458" word-spacing="0px" style="line-height:125%" xml:space="preserve"><tspan x="57.668579" y="109.80099" stroke-width=".26458"><tspan dx="0" dy="0" fill="#000000" font-family="Arial" font-size="3.5057px" font-weight="400" stroke-width=".26458">Yes, I do</tspan></tspan></text>
<path d="m55.12 117.72v1.7779h1.7779v-1.7779z" fill="#cf3a2e" fill-rule="evenodd"/>
<path d="m55.035 117.72c0-0.045 0.03968-0.0847 0.08466-0.0847h1.7779c0.04762 0 0.08466 0.0397 0.08466 0.0847v1.7779c0 0.0476-0.03704 0.0847-0.08466 0.0847h-1.7779c-0.04498 0-0.08466-0.037-0.08466-0.0847zm0.16932 1.7779-0.08466-0.0847h1.7779l-0.08466 0.0847v-1.7779l0.08466 0.0847h-1.7779l0.08466-0.0847z" fill="#98281f" stroke="#98281f" stroke-linejoin="bevel" stroke-width=".042331px"/>
<text x="57.668579" y="119.72287" fill="#000000" font-family="Arial" font-size="3.5057px" font-weight="400" letter-spacing="0px" stroke-width=".26458" word-spacing="0px" style="line-height:125%" xml:space="preserve"><tspan x="57.668579" y="119.72287" stroke-width=".26458"><tspan dx="0" dy="0" fill="#000000" font-family="Arial" font-size="3.5057px" font-weight="400" stroke-width=".26458">Only with a dictionary</tspan></tspan></text>
<path d="m55.12 127.62v1.7779h1.7779v-1.7779z" fill="#dea603" fill-rule="evenodd"/>
<path d="m55.035 127.62c0-0.045 0.03968-0.0847 0.08466-0.0847h1.7779c0.04762 0 0.08466 0.0397 0.08466 0.0847v1.7779c0 0.0476-0.03704 0.0847-0.08466 0.0847h-1.7779c-0.04498 0-0.08466-0.037-0.08466-0.0847zm0.16932 1.7779-0.08466-0.0847h1.7779l-0.08466 0.0847v-1.7779l0.08466 0.0847h-1.7779l0.08466-0.0847z" fill="#a37902" stroke="#a37902" stroke-linejoin="bevel" stroke-width=".042331px"/>
<text x="57.668579" y="129.64474" fill="#000000" font-family="Arial" font-size="3.5057px" font-weight="400" letter-spacing="0px" stroke-width=".26458" word-spacing="0px" style="line-height:125%" xml:space="preserve"><tspan x="57.668579" y="129.64474" stroke-width=".26458"><tspan dx="0" dy="0" fill="#000000" font-family="Arial" font-size="3.5057px" font-weight="400" stroke-width=".26458">Well, I don't but my translator</tspan></tspan></text>
<text x="57.668579" y="133.70854" fill="#000000" font-family="Arial" font-size="3.5057px" font-weight="400" letter-spacing="0px" stroke-width=".26458" word-spacing="0px" style="line-height:125%" xml:space="preserve"><tspan x="57.668579" y="133.70854" stroke-width=".26458"><tspan dx="0" dy="0" fill="#000000" font-family="Arial" font-size="3.5057px" font-weight="400" stroke-width=".26458">does</tspan></tspan></text>
<path d="m55.12 137.57v1.7356h1.7779v-1.7356z" fill="#2d9449" fill-rule="evenodd"/>
<path d="m55.035 137.57c0-0.045 0.03968-0.0847 0.08466-0.0847h1.7779c0.04762 0 0.08466 0.0397 0.08466 0.0847v1.7356c0 0.0476-0.03704 0.0847-0.08466 0.0847h-1.7779c-0.04498 0-0.08466-0.037-0.08466-0.0847zm0.16932 1.7356-0.08466-0.0847h1.7779l-0.08466 0.0847v-1.7356l0.08466 0.0847h-1.7779l0.08466-0.0847z" fill="#1e6c33" stroke="#1e6c33" stroke-linejoin="bevel" stroke-width=".042331px"/>
<text x="57.668579" y="139.56662" fill="#000000" font-family="Arial" font-size="3.5057px" font-weight="400" letter-spacing="0px" stroke-width=".26458" word-spacing="0px" style="line-height:125%" xml:space="preserve"><tspan x="57.668579" y="139.56662" stroke-width=".26458"><tspan dx="0" dy="0" fill="#000000" font-family="Arial" font-size="3.5057px" font-weight="400" stroke-width=".26458">I am currently learning</tspan></tspan></text>
<text x="57.668579" y="143.63042" fill="#000000" font-family="Arial" font-size="3.5057px" font-weight="400" letter-spacing="0px" stroke-width=".26458" word-spacing="0px" style="line-height:125%" xml:space="preserve"><tspan x="57.668579" y="143.63042" stroke-width=".26458"><tspan dx="0" dy="0" fill="#000000" font-family="Arial" font-size="3.5057px" font-weight="400" stroke-width=".26458">German but don't speak it yet</tspan></tspan></text>
<path d="m55.12 147.48v1.7779h1.7779v-1.7779z" fill="#e26001" fill-rule="evenodd"/>
<path d="m55.035 147.48c0-0.045 0.03968-0.0847 0.08466-0.0847h1.7779c0.04762 0 0.08466 0.0397 0.08466 0.0847v1.7779c0 0.0476-0.03704 0.0847-0.08466 0.0847h-1.7779c-0.04498 0-0.08466-0.037-0.08466-0.0847zm0.16932 1.7779-0.08466-0.0847h1.7779l-0.08466 0.0847v-1.7779l0.08466 0.0847h-1.7779l0.08466-0.0847z" fill="#a64400" stroke="#a64400" stroke-linejoin="bevel" stroke-width=".042331px"/>
<text x="57.668579" y="149.48849" fill="#000000" font-family="Arial" font-size="3.5057px" font-weight="400" letter-spacing="0px" stroke-width=".26458" word-spacing="0px" style="line-height:125%" xml:space="preserve"><tspan x="57.668579" y="149.48849" stroke-width=".26458"><tspan dx="0" dy="0" fill="#000000" font-family="Arial" font-size="3.5057px" font-weight="400" stroke-width=".26458">I did once but forgot</tspan></tspan></text>
<path d="m55.12 157.38v1.7779h1.7779v-1.7779z" fill="#3da7af" fill-rule="evenodd"/>
<path d="m55.035 157.38c0-0.045 0.03968-0.0847 0.08466-0.0847h1.7779c0.04762 0 0.08466 0.0397 0.08466 0.0847v1.7779c0 0.0476-0.03704 0.0847-0.08466 0.0847h-1.7779c-0.04498 0-0.08466-0.037-0.08466-0.0847zm0.16932 1.7779-0.08466-0.0847h1.7779l-0.08466 0.0847v-1.7779l0.08466 0.0847h-1.7779l0.08466-0.0847z" fill="#2a7a80" stroke="#2a7a80" stroke-linejoin="bevel" stroke-width=".042331px"/>
<text x="57.668579" y="159.41037" fill="#000000" font-family="Arial" font-size="3.5057px" font-weight="400" letter-spacing="0px" stroke-width=".26458" word-spacing="0px" style="line-height:125%" xml:space="preserve"><tspan x="57.668579" y="159.41037" stroke-width=".26458"><tspan dx="0" dy="0" fill="#000000" font-family="Arial" font-size="3.5057px" font-weight="400" stroke-width=".26458">No, not at all</tspan></tspan></text>
</g>
</svg>
