<?xml version="1.0" encoding="UTF-8"?>
<svg width="414.1" height="131.8" version="1.1" viewBox="0 0 109.56 34.871" xmlns="http://www.w3.org/2000/svg" xmlns:cc="http://creativecommons.org/ns#" xmlns:dc="http://purl.org/dc/elements/1.1/" xmlns:rdf="http://www.w3.org/1999/02/22-rdf-syntax-ns#">
<defs>
<clipPath id="a">
<path d="m185.43 0.47998h217.43v102.23h-217.43z"/>
</clipPath>
</defs>
<metadata>
<rdf:RDF>
<cc:Work rdf:about="">
<dc:format>image/svg+xml</dc:format>
<dc:type rdf:resource="http://purl.org/dc/dcmitype/StillImage"/>
<dc:title/>
</cc:Work>
</rdf:RDF>
</metadata>
<g transform="translate(-132.05 -114.39)">
<path d="m182.21 115.82v26.753h57.232v-26.753z" fill="#e7e7e7" fill-rule="evenodd"/>
<path d="m193.77 115.82v26.753h-0.16932v-26.753zm11.429 0v26.753h-0.16933v-26.753zm11.472 0v26.753h-0.16932v-26.753zm11.429 0v26.753h-0.16932v-26.753zm11.429 0v26.753h-0.16933v-26.753z" fill="#898989" stroke="#898989" stroke-linejoin="bevel" stroke-width=".042331px"/>
<path d="m182.21 115.82v8.9319h11.472v-8.9319z" fill="#4285f4" fill-rule="evenodd"/>
<path transform="matrix(.26458 0 0 .26458 133.13 115.67)" d="m185.19 0.55997c0-0.16999 0.14999-0.31998 0.31998-0.31998h43.358c0.17999 0 0.31999 0.14999 0.31999 0.31998v33.758c0 0.17999-0.14 0.31998-0.31999 0.31998h-43.358c-0.16999 0-0.31998-0.13999-0.31998-0.31998zm0.63997 33.758-0.31999-0.31998h43.358l-0.31998 0.31998v-33.758l0.31998 0.31998h-43.358l0.31999-0.31998z" clip-path="url(#a)" fill="#2e60b3" stroke="#2e60b3" stroke-linejoin="bevel" stroke-width=".15999px"/>
<path d="m182.21 124.75v8.8895h45.802v-8.8895z" fill="#ea4335" fill-rule="evenodd"/>
<path transform="matrix(.26458 0 0 .26458 133.13 115.67)" d="m185.19 34.318c0-0.15999 0.15999-0.31998 0.31998-0.31998h173.11c0.17999 0 0.31999 0.15999 0.31999 0.31998v33.598c0 0.17999-0.14 0.31998-0.31999 0.31998h-173.11c-0.15999 0-0.31998-0.13999-0.31998-0.31998zm0.63997 33.598-0.31999-0.31998h173.11l-0.31998 0.31998v-33.598l0.31998 0.31998h-173.11l0.31999-0.31998z" clip-path="url(#a)" fill="#ac2f24" stroke="#ac2f24" stroke-linejoin="bevel" stroke-width=".15999px"/>
<path d="m182.21 133.64v8.9319h45.802v-8.9319z" fill="#fbbc04" fill-rule="evenodd"/>
<path transform="matrix(.26458 0 0 .26458 133.13 115.67)" d="m185.19 67.916c0-0.15999 0.15999-0.31998 0.31998-0.31998h173.11c0.17999 0 0.31999 0.15999 0.31999 0.31998v33.758c0 0.17999-0.14 0.31998-0.31999 0.31998h-173.11c-0.15999 0-0.31998-0.13999-0.31998-0.31998zm0.63997 33.758-0.31999-0.31998h173.11l-0.31998 0.31998v-33.758l0.31998 0.31998h-173.11l0.31999-0.31998z" clip-path="url(#a)" fill="#b98902" stroke="#b98902" stroke-linejoin="bevel" stroke-width=".15999px"/>
<path d="m182.21 142.49h57.232v0.16933h-57.232z" fill="#898989" stroke="#898989" stroke-linejoin="bevel" stroke-width=".042331px"/>
<path d="m182.3 142.57v1.0583h-0.16932v-1.0583zm11.472 0v1.0583h-0.16932v-1.0583zm11.429 0v1.0583h-0.16933v-1.0583zm11.472 0v1.0583h-0.16932v-1.0583zm11.429 0v1.0583h-0.16932v-1.0583zm11.429 0v1.0583h-0.16933v-1.0583z" fill="#898989" stroke="#898989" stroke-linejoin="bevel" stroke-width=".042331px"/>
<path d="m182.3 115.82v26.753h-0.16932v-26.753z" fill="#898989" stroke="#898989" stroke-linejoin="bevel" stroke-width=".042331px"/>
<path d="m181.15 115.73h1.0583v0.16932h-1.0583zm0 8.9319h1.0583v0.16932h-1.0583zm0 8.8895h1.0583v0.16933h-1.0583zm0 8.9319h1.0583v0.16933h-1.0583z" fill="#898989" stroke="#898989" stroke-linejoin="bevel" stroke-width=".042331px"/>
<text x="189.59662" y="121.5455" fill="#000000" font-family="Arial" font-size="3.5057px" font-weight="400" letter-spacing="0px" stroke-width=".26458" word-spacing="0px" style="line-height:125%" xml:space="preserve"><tspan x="189.59662" y="121.5455" stroke-width=".26458"><tspan dx="0" dy="0" fill="#000000" font-family="Arial" font-size="3.5057px" font-weight="400" stroke-width=".26458">1</tspan></tspan></text>
<text x="223.93861" y="130.47186" fill="#000000" font-family="Arial" font-size="3.5057px" font-weight="400" letter-spacing="0px" stroke-width=".26458" word-spacing="0px" style="line-height:125%" xml:space="preserve"><tspan x="223.93861" y="130.47186" stroke-width=".26458"><tspan dx="0" dy="0" fill="#000000" font-family="Arial" font-size="3.5057px" font-weight="400" stroke-width=".26458">4</tspan></tspan></text>
<text x="223.93861" y="139.39827" fill="#000000" font-family="Arial" font-size="3.5057px" font-weight="400" letter-spacing="0px" stroke-width=".26458" word-spacing="0px" style="line-height:125%" xml:space="preserve"><tspan x="223.93861" y="139.39827" stroke-width=".26458"><tspan dx="0" dy="0" fill="#000000" font-family="Arial" font-size="3.5057px" font-weight="400" stroke-width=".26458">4</tspan></tspan></text>
<text x="181.24472" y="147.89232" fill="#000000" font-family="Arial" font-size="3.5057px" font-weight="400" letter-spacing="0px" stroke-width=".26458" word-spacing="0px" style="line-height:125%" xml:space="preserve"><tspan x="181.24472" y="147.89232" stroke-width=".26458"><tspan dx="0" dy="0" fill="#000000" font-family="Arial" font-size="3.5057px" font-weight="400" stroke-width=".26458">0</tspan></tspan></text>
<text x="192.69208" y="147.89232" fill="#000000" font-family="Arial" font-size="3.5057px" font-weight="400" letter-spacing="0px" stroke-width=".26458" word-spacing="0px" style="line-height:125%" xml:space="preserve"><tspan x="192.69208" y="147.89232" stroke-width=".26458"><tspan dx="0" dy="0" fill="#000000" font-family="Arial" font-size="3.5057px" font-weight="400" stroke-width=".26458">1</tspan></tspan></text>
<text x="204.1394" y="147.89232" fill="#000000" font-family="Arial" font-size="3.5057px" font-weight="400" letter-spacing="0px" stroke-width=".26458" word-spacing="0px" style="line-height:125%" xml:space="preserve"><tspan x="204.1394" y="147.89232" stroke-width=".26458"><tspan dx="0" dy="0" fill="#000000" font-family="Arial" font-size="3.5057px" font-weight="400" stroke-width=".26458">2</tspan></tspan></text>
<text x="215.58675" y="147.89232" fill="#000000" font-family="Arial" font-size="3.5057px" font-weight="400" letter-spacing="0px" stroke-width=".26458" word-spacing="0px" style="line-height:125%" xml:space="preserve"><tspan x="215.58675" y="147.89232" stroke-width=".26458"><tspan dx="0" dy="0" fill="#000000" font-family="Arial" font-size="3.5057px" font-weight="400" stroke-width=".26458">3</tspan></tspan></text>
<text x="227.03407" y="147.89232" fill="#000000" font-family="Arial" font-size="3.5057px" font-weight="400" letter-spacing="0px" stroke-width=".26458" word-spacing="0px" style="line-height:125%" xml:space="preserve"><tspan x="227.03407" y="147.89232" stroke-width=".26458"><tspan dx="0" dy="0" fill="#000000" font-family="Arial" font-size="3.5057px" font-weight="400" stroke-width=".26458">4</tspan></tspan></text>
<text x="238.48143" y="147.89232" fill="#000000" font-family="Arial" font-size="3.5057px" font-weight="400" letter-spacing="0px" stroke-width=".26458" word-spacing="0px" style="line-height:125%" xml:space="preserve"><tspan x="238.48143" y="147.89232" stroke-width=".26458"><tspan dx="0" dy="0" fill="#000000" font-family="Arial" font-size="3.5057px" font-weight="400" stroke-width=".26458">5</tspan></tspan></text>
<text x="138.80219" y="119.34427" fill="#000000" font-family="Arial" font-size="3.5057px" font-weight="400" letter-spacing="0px" stroke-width=".26458" word-spacing="0px" style="line-height:125%" xml:space="preserve"><tspan x="138.80219" y="119.34427" stroke-width=".26458"><tspan dx="0" dy="0" fill="#000000" font-family="Arial" font-size="3.5057px" font-weight="400" stroke-width=".26458">Level 2 (Lower secondary</tspan></tspan></text>
<text x="150.78189" y="123.40805" fill="#000000" font-family="Arial" font-size="3.5057px" font-weight="400" letter-spacing="0px" stroke-width=".26458" word-spacing="0px" style="line-height:125%" xml:space="preserve"><tspan x="150.78189" y="123.40805" stroke-width=".26458"><tspan dx="0" dy="0" fill="#000000" font-family="Arial" font-size="3.5057px" font-weight="400" stroke-width=".26458">education)</tspan></tspan></text>
<text x="138.80219" y="128.27063" fill="#000000" font-family="Arial" font-size="3.5057px" font-weight="400" letter-spacing="0px" stroke-width=".26458" word-spacing="0px" style="line-height:125%" xml:space="preserve"><tspan x="138.80219" y="128.27063" stroke-width=".26458"><tspan dx="0" dy="0" fill="#000000" font-family="Arial" font-size="3.5057px" font-weight="400" stroke-width=".26458">Level 3 (Upper secondary</tspan></tspan></text>
<text x="150.78189" y="132.33443" fill="#000000" font-family="Arial" font-size="3.5057px" font-weight="400" letter-spacing="0px" stroke-width=".26458" word-spacing="0px" style="line-height:125%" xml:space="preserve"><tspan x="150.78189" y="132.33443" stroke-width=".26458"><tspan dx="0" dy="0" fill="#000000" font-family="Arial" font-size="3.5057px" font-weight="400" stroke-width=".26458">education)</tspan></tspan></text>
<text x="133.11569" y="137.19704" fill="#000000" font-family="Arial" font-size="3.5057px" font-weight="400" letter-spacing="0px" stroke-width=".26458" word-spacing="0px" style="line-height:125%" xml:space="preserve"><tspan x="133.11569" y="137.19704" stroke-width=".26458"><tspan dx="0" dy="0" fill="#000000" font-family="Arial" font-size="3.5057px" font-weight="400" stroke-width=".26458">Level 4 (Post-secondary non-</tspan></tspan></text>
<text x="142.04758" y="141.26082" fill="#000000" font-family="Arial" font-size="3.5057px" font-weight="400" letter-spacing="0px" stroke-width=".26458" word-spacing="0px" style="line-height:125%" xml:space="preserve"><tspan x="142.04758" y="141.26082" stroke-width=".26458"><tspan dx="0" dy="0" fill="#000000" font-family="Arial" font-size="3.5057px" font-weight="400" stroke-width=".26458">tertiary education)</tspan></tspan></text>
</g>
</svg>
