<?xml version="1.0" encoding="UTF-8"?>
<svg width="233.29" height="233.28" version="1.1" viewBox="0 0 61.725 61.721" xmlns="http://www.w3.org/2000/svg" xmlns:cc="http://creativecommons.org/ns#" xmlns:dc="http://purl.org/dc/elements/1.1/" xmlns:rdf="http://www.w3.org/1999/02/22-rdf-syntax-ns#">
<metadata>
<rdf:RDF>
<cc:Work rdf:about="">
<dc:format>image/svg+xml</dc:format>
<dc:type rdf:resource="http://purl.org/dc/dcmitype/StillImage"/>
<dc:title/>
</cc:Work>
</rdf:RDF>
</metadata>
<g transform="translate(-139.66 -106.58)">
<path d="m170.52 137.45-18.919-22.547c-12.453 10.448-14.078 29.015-3.6272 41.466 10.448 12.453 29.015 14.078 41.469 3.6299 12.451-10.45 14.075-29.015 3.6272-41.469-5.593-6.6645-13.848-10.514-22.549-10.514z" fill="#4285f4" fill-rule="evenodd"/>
<path d="m170.61 137.45c0 0.037-0.0212 0.0688-0.0556 0.082-0.0317 0.0106-0.0688 0-0.0926-0.0264l-18.919-22.547 0.11906 0.0106-0.57677 0.49475-0.55559 0.50532-0.54237 0.51856-0.52649 0.52649-0.51062 0.53972-0.49739 0.54766-0.47623 0.55825-0.46299 0.56882-0.44713 0.57676-0.43125 0.5847-0.41272 0.59793-0.3995 0.60322-0.38098 0.60851-0.36511 0.62174-0.35188 0.62438-0.33071 0.63232-0.32013 0.64291-0.30161 0.64555-0.28309 0.65084-0.26721 0.65613-0.25399 0.66407-0.23282 0.66936-0.21959 0.67201-0.20372 0.67994-0.1852 0.67994-0.16933 0.68524-0.15345 0.68788-0.13493 0.69317-0.1217 0.69317-0.10318 0.69582-0.0873 0.69847-0.0688 0.70375-0.0529 0.70111-0.037 0.70111-0.0185 0.70376-3e-3 0.7064 0.0132 0.70375 0.0317 0.7064 0.0476 0.70111 0.0635 0.7064 0.082 0.70111 0.10053 0.70111 0.11641 0.69846 0.13229 0.69847 0.1508 0.69317 0.16668 0.69053 0.18255 0.68788 0.20108 0.68524 0.21959 0.68258 0.23547 0.6773 0.25134 0.67201 0.2725 0.66672 0.28574 0.66671 0.30426 0.65613 0.32277 0.65084 0.34129 0.6482 0.35453 0.64026 0.37569 0.63232 0.39156 0.62703 0.40744 0.61909 0.4286 0.60851 0.44448 0.60322 0.46299 0.59528 0.47623 0.58735 0.50004 0.57676 0.50532 0.55559 0.51856 0.54237 0.52649 0.52649 0.53972 0.51062 0.54766 0.4974 0.55825 0.47622 0.56882 0.463 0.57676 0.44712 0.5847 0.43125 0.59793 0.41273 0.60322 0.3995 0.60851 0.38098 0.62174 0.3651 0.62438 0.35188 0.63232 0.33071 0.64291 0.32013 0.64555 0.29897 0.65084 0.28573 0.65613 0.26722 0.66407 0.25398 0.66936 0.23282 0.67201 0.2196 0.67994 0.20371 0.67994 0.1852 0.68524 0.16668 0.68788 0.15345 0.69317 0.13758 0.69317 0.11906 0.69582 0.10318 0.69847 0.0873 0.70375 0.0688 0.70111 0.0529 0.70111 0.037 0.70376 0.0159 0.7064 3e-3 0.70375-0.0132 0.7064-0.0291 0.70111-0.0476 0.70376-0.0661 0.70375-0.082 0.70111-0.0979 0.69846-0.11641 0.69582-0.13493 0.69582-0.1508 0.69053-0.16668 0.68788-0.18255 0.68524-0.20108 0.68258-0.21959 0.6773-0.23811 0.67201-0.25134 0.66936-0.26987 0.66407-0.28838 0.65613-0.3069 0.65084-0.32013 0.6482-0.34129 0.64026-0.35717 0.63232-0.37569 0.62703-0.39156 0.61909-0.41008 0.60851-0.4286 0.60587-0.44184 0.59263-0.46564 0.58735-0.47887 0.5794-0.48152 0.5556-0.50533 0.54237-0.51855 0.52649-0.52649 0.51062-0.53973 0.49475-0.54766 0.47887-0.55824 0.46299-0.57147 0.44448-0.57411 0.43125-0.58735 0.41273-0.59528 0.3995-0.60322 0.38098-0.61115 0.36775-0.6191 0.34658-0.62703 0.33601-0.63232 0.31748-0.64026 0.29897-0.64555 0.28573-0.65084 0.26986-0.66142 0.25134-0.66143 0.23282-0.66671 0.2196-0.67201 0.20372-0.67994 0.18519-0.67995 0.16933-0.68523 0.15345-0.68788 0.13493-0.69317 0.1217-0.69582 0.10318-0.69582 0.0847-0.69846 0.0714-0.70111 0.0529-0.70111 0.0344-0.70376 0.0185-0.70375 3e-3 -0.7064-0.0159-0.70376-0.0291-0.70375-0.0476-0.70376-0.0635-0.7064-0.0847-0.70111-0.0979-0.70111-0.11641-0.69846-0.13228-0.69847-0.15081-0.69317-0.16932-0.69053-0.18255-0.68788-0.20108-0.68788-0.21959-0.67994-0.23547-0.6773-0.25134-0.67201-0.27251-0.672-0.28837-0.66143-0.30691-0.65878-0.32013-0.65084-0.34129-0.64819-0.35452-0.63761-0.37569-0.63233-0.39421-0.62967-0.40744-0.61645-0.4286-0.61115-0.44183-0.60587-0.46564-0.59528-0.47887-0.5847-0.52121-0.6138-0.54501-0.59793-0.56089-0.57941-0.57411-0.56617-0.58735-0.54502-0.60586-0.52914-0.61381-0.51326-0.62702-0.49475-0.64291-0.47622-0.65084-0.45771-0.66407-0.44183-0.67465-0.41802-0.68524-0.40479-0.69581-0.38627-0.70641-0.36246-0.71433-0.34659-0.72757-0.32277-0.73021-0.3069-0.7408-0.28839-0.74873-0.26456-0.75667-0.24605-0.76725-0.22753-0.7699-0.20637-0.77518-0.17991-0.78313-0.16403-0.78577-0.14287-0.79371-0.1217-0.799-0.10053-0.80165-0.0767-0.80694-0.0556-0.80693-0.0344-0.81223-0.0106 0.0847-0.0847zm-0.16932-29.433c0-0.0212 0.0106-0.0423 0.0264-0.0582 0.0159-0.0159 0.037-0.0265 0.0609-0.0265l0.81752 0.0106 0.81223 0.037 0.81223 0.0556 0.80429 0.0767 0.80165 0.10054 0.799 0.1217 0.79106 0.14287 0.78842 0.16403 0.78048 0.1852 0.77519 0.20636 0.76725 0.22753 0.76196 0.24605 0.75402 0.26986 0.74609 0.28838 0.7355 0.3069 0.72757 0.32807 0.71963 0.34658 0.71169 0.36511 0.70111 0.38892 0.68524 0.40479 0.67994 0.42331 0.66936 0.44183 0.65613 0.463 0.64291 0.47622 0.63232 0.50004 0.61909 0.51326 0.60587 0.53443 0.59263 0.55031 0.57941 0.56618 0.56089 0.5847 0.5503 0.60322 0.5212 0.6138 0.48417 0.58999 0.46564 0.60057 0.44712 0.60586 0.4286 0.61645 0.41273 0.61909 0.39421 0.63233 0.37569 0.63761 0.35981 0.6429 0.3413 0.6482 0.32277 0.65613 0.30955 0.66407 0.28838 0.66407 0.27251 0.67465 0.25663 0.6773 0.23547 0.68259 0.21959 0.68259 0.20107 0.69053 0.18785 0.69317 0.16932 0.69582 0.15081 0.69846 0.13228 0.69846 0.11641 0.70376 0.0979 0.7064 0.0847 0.7064 0.0635 0.7064 0.0476 0.70905 0.0317 0.70905 0.0159 0.70904-3e-3 0.7064-0.0212 0.70905-0.0344 0.70904-0.0529 0.7064-0.0714 0.70112-0.0847 0.70375-0.10318 0.70111-0.1217 0.70111-0.13493 0.69317-0.15345 0.69317-0.17462 0.69053-0.1852 0.68524-0.20372 0.67994-0.21959 0.6773-0.23811 0.672-0.25134 0.66672-0.26986 0.66142-0.28838 0.65614-0.30161 0.65084-0.31749 0.64026-0.33865 0.63761-0.34923 0.63232-0.36775 0.61909-0.38627 0.61645-0.3995 0.60851-0.41802 0.59528-0.43125 0.59264-0.44977 0.5794-0.46299 0.57148-0.48417 0.56353-0.49474 0.55295-0.51591 0.53972-0.5265 0.53179-0.54766 0.51855-0.56088 0.51062-0.57941 0.48152-0.59264 0.48416-0.59792 0.46564-0.60587 0.44713-0.6138 0.4286-0.62438 0.41537-0.62703 0.39157-0.63762 0.37568-0.64555 0.36246-0.64819 0.3413-0.65613 0.32277-0.66143 0.30955-0.66936 0.28838-0.66936 0.26986-0.6773 0.25664-0.68259 0.23811-0.68523 0.21959-0.68788 0.20107-0.69318 0.18785-0.69582 0.16668-0.69581 0.1508-0.70111 0.13493-0.70376 0.11641-0.7064 0.0979-0.7064 0.082-0.7064 0.0661-0.7064 0.0476-0.71169 0.0317-0.70905 0.0132-0.7064-3e-3 -0.70905-0.0185-0.7064-0.037-0.7064-0.0529-0.70375-0.0688-0.70376-0.0873-0.70111-0.10319-0.69846-0.11905-0.69317-0.13758-0.69318-0.15345-0.69052-0.17197-0.68524-0.1852-0.67994-0.20372-0.6773-0.21959-0.67465-0.23811-0.66672-0.25399-0.65878-0.26721-0.65613-0.28838-0.65084-0.30161-0.6429-0.32013-0.63762-0.33601-0.62967-0.35188-0.62439-0.3651-0.61115-0.38627-0.60851-0.3995-0.59793-0.41802-0.58999-0.43125-0.58205-0.45241-0.56883-0.463-0.56353-0.48152-0.55295-0.49739-0.53972-0.51591-0.53179-0.52649-0.51855-0.54766-0.51062-0.56089-0.50004-0.57676-0.48152-0.59264-0.46299-0.59792-0.44977-0.60587-0.4286-0.6138-0.41273-0.62438-0.39157-0.62703-0.37833-0.63762-0.35717-0.64555-0.34129-0.64819-0.32543-0.65613-0.3069-0.66143-0.28573-0.66671-0.27251-0.67201-0.25663-0.6773-0.23547-0.68259-0.21959-0.68523-0.20107-0.68788-0.18785-0.69318-0.16668-0.69582-0.1508-0.69846-0.13229-0.69846-0.11641-0.70376-0.10053-0.7064-0.082-0.7064-0.0635-0.7064-0.0476-0.7064-0.0344-0.71169-0.0132-0.70905 3e-3 -0.7064 0.0212-0.70905 0.037-0.7064 0.0529-0.7064 0.0688-0.70375 0.0873-0.70376 0.10318-0.70111 0.1217-0.69846 0.13493-0.69317 0.15346-0.69318 0.17461-0.69052 0.1852-0.68524 0.20372-0.67994 0.21959-0.6773 0.23811-0.67465 0.25399-0.66672 0.26722-0.65878 0.28573-0.65613 0.30426-0.65084 0.32013-0.6429 0.336-0.63762 0.35188-0.62967 0.3651-0.62439 0.38627-0.61115 0.3995-0.60851 0.41802-0.59793 0.43125-0.58999 0.45242-0.58205 0.46299-0.56883 0.48152-0.56353 0.49739-0.55295 0.51591-0.53972 0.52649-0.53179 0.54766-0.51855 0.56089-0.51062 0.57676-0.49475c0.0159-0.0132 0.0397-0.0212 0.0608-0.0185 0.0238 0 0.0423 0.0106 0.0582 0.0291l18.919 22.547-0.1508 0.0529z" fill="#2e60b3" stroke="#2e60b3" stroke-linejoin="bevel" stroke-width=".042331px"/>
<path d="m170.52 137.45v-29.433c-6.9185 0-13.617 2.4367-18.919 6.8868z" fill="#ea4335" fill-rule="evenodd"/>
<path d="m170.59 137.39-0.1508 0.0529v-29.433l0.0873 0.0847-1.2937 0.0291-1.2832 0.0847-1.2752 0.14022-1.2673 0.19579-1.2514 0.25134-1.2382 0.30425-1.225 0.35452-1.2064 0.41273-1.1879 0.46035-1.1668 0.51327-1.1429 0.56353-1.1218 0.61645-1.0953 0.66142-1.0689 0.71169-1.0371 0.76196-1.008 0.80694 0.0132-0.11906zm-19.049-22.438c-0.0159-0.0185-0.0212-0.0397-0.0185-0.0635 0-0.0212 0.0132-0.0423 0.0291-0.0582l1.016-0.80959 1.0424-0.76725 1.0742-0.71698 1.1006-0.66672 1.1271-0.61645 1.1535-0.56882 1.172-0.51327 1.1932-0.46564 1.217-0.41273 1.2302-0.35981 1.2435-0.30426 1.262-0.25134 1.2726-0.19578 1.2805-0.14022 1.2937-0.0873 1.2938-0.0291c0.0212 0 0.045 0.0106 0.0609 0.0265s0.0238 0.037 0.0238 0.0582v29.433c0 0.037-0.0212 0.0688-0.0556 0.082-0.0317 0.0106-0.0688 0-0.0926-0.0264z" fill="#ac2f24" stroke="#ac2f24" stroke-linejoin="bevel" stroke-width=".042331px"/>
<text x="172.93301" y="147.47557" fill="#000000" font-family="Arial" font-size="3.5057px" font-weight="400" letter-spacing="0px" stroke-width=".26458" word-spacing="0px" style="line-height:125%" xml:space="preserve"><tspan x="172.93301" y="147.47557" stroke-width=".26458"><tspan dx="0" dy="0" fill="#000000" font-family="Arial" font-size="3.5057px" font-weight="400" stroke-width=".26458">Male: 8; 89%</tspan></tspan></text>
<text x="156.77663" y="116.25637" fill="#000000" font-family="Arial" font-size="3.5057px" font-weight="400" letter-spacing="0px" stroke-width=".26458" word-spacing="0px" style="line-height:125%" xml:space="preserve"><tspan x="156.77663" y="116.25637" stroke-width=".26458"><tspan dx="0" dy="0" fill="#000000" font-family="Arial" font-size="3.5057px" font-weight="400" stroke-width=".26458">Female: </tspan></tspan></text>
<text x="157.66557" y="120.32016" fill="#000000" font-family="Arial" font-size="3.5057px" font-weight="400" letter-spacing="0px" stroke-width=".26458" word-spacing="0px" style="line-height:125%" xml:space="preserve"><tspan x="157.66557" y="120.32016" stroke-width=".26458"><tspan dx="0" dy="0" fill="#000000" font-family="Arial" font-size="3.5057px" font-weight="400" stroke-width=".26458">1; 11%</tspan></tspan></text>
</g>
</svg>
