<?xml version="1.0" encoding="UTF-8"?>
<svg width="411.68" height="199.91" version="1.1" viewBox="0 0 108.92 52.893" xmlns="http://www.w3.org/2000/svg" xmlns:cc="http://creativecommons.org/ns#" xmlns:dc="http://purl.org/dc/elements/1.1/" xmlns:rdf="http://www.w3.org/1999/02/22-rdf-syntax-ns#">
<defs>
<clipPath id="a">
<path d="m225.43 0.63997h228.31v170.07h-228.31z"/>
</clipPath>
</defs>
<metadata>
<rdf:RDF>
<cc:Work rdf:about="">
<dc:format>image/svg+xml</dc:format>
<dc:type rdf:resource="http://purl.org/dc/dcmitype/StillImage"/>
<dc:title/>
</cc:Work>
</rdf:RDF>
</metadata>
<g transform="translate(-5.8326 -54.444)">
<path d="m52.446 55.872v44.744h60.153v-44.744z" fill="#e7e7e7" fill-rule="evenodd"/>
<path d="m64.595 55.872v44.744h-0.16932v-44.744zm12.022 0v44.744h-0.16932v-44.744zm12.022 0v44.744h-0.16933v-44.744zm12.022 0v44.744h-0.16933v-44.744zm12.022 0v44.744h-0.16932v-44.744z" fill="#898989" stroke="#898989" stroke-linejoin="bevel" stroke-width=".042331px"/>
<path transform="matrix(.26458 0 0 .26458 -7.2196 55.724)" d="m225.51 0.55997v33.758h91.035v-33.758z" clip-path="url(#a)" fill="#4285f4" fill-rule="evenodd"/>
<path transform="matrix(.26458 0 0 .26458 -7.2196 55.724)" d="m225.19 0.55997c0-0.16999 0.15-0.31998 0.31999-0.31998h91.035c0.17999 0 0.31998 0.14999 0.31998 0.31998v33.758c0 0.17999-0.13999 0.31998-0.31998 0.31998h-91.035c-0.16999 0-0.31999-0.13999-0.31999-0.31998zm0.63997 33.758-0.31998-0.31998h91.035l-0.31998 0.31998v-33.758l0.31998 0.31998h-91.035l0.31998-0.31998z" clip-path="url(#a)" fill="#2e60b3" stroke="#2e60b3" stroke-linejoin="bevel" stroke-width=".15999px"/>
<path d="m52.446 64.804v8.9742h48.131v-8.9742z" fill="#ea4335" fill-rule="evenodd"/>
<path transform="matrix(.26458 0 0 .26458 -7.2196 55.724)" d="m225.19 34.318c0-0.15999 0.16-0.31998 0.31999-0.31998h181.91c0.17999 0 0.31998 0.15999 0.31998 0.31998v33.918c0 0.17999-0.13999 0.31998-0.31998 0.31998h-181.91c-0.15999 0-0.31999-0.13999-0.31999-0.31998zm0.63997 33.918-0.31998-0.31998h181.91l-0.31998 0.31998v-33.918l0.31998 0.31998h-181.91l0.31998-0.31998z" clip-path="url(#a)" fill="#ac2f24" stroke="#ac2f24" stroke-linejoin="bevel" stroke-width=".15999px"/>
<path d="m52.446 73.778v8.9319h24.086v-8.9319z" fill="#fbbc04" fill-rule="evenodd"/>
<path transform="matrix(.26458 0 0 .26458 -7.2196 55.724)" d="m225.19 68.236c0-0.16999 0.15-0.31998 0.31999-0.31998h91.035c0.17999 0 0.31998 0.14999 0.31998 0.31998v33.758c0 0.17999-0.13999 0.31999-0.31998 0.31999h-91.035c-0.16999 0-0.31999-0.14-0.31999-0.31999zm0.63997 33.758-0.31998-0.31998h91.035l-0.31998 0.31998v-33.758l0.31998 0.31998h-91.035l0.31998-0.31998z" clip-path="url(#a)" fill="#b98902" stroke="#b98902" stroke-linejoin="bevel" stroke-width=".15999px"/>
<path d="m52.446 100.53h60.153v0.16932h-60.153z" fill="#898989" stroke="#898989" stroke-linejoin="bevel" stroke-width=".042331px"/>
<path d="m52.531 100.62v1.0583h-0.16932v-1.0583zm12.064 0v1.0583h-0.16932v-1.0583zm12.022 0v1.0583h-0.16932v-1.0583zm12.022 0v1.0583h-0.16933v-1.0583zm12.022 0v1.0583h-0.16933v-1.0583zm12.022 0v1.0583h-0.16932v-1.0583z" fill="#898989" stroke="#898989" stroke-linejoin="bevel" stroke-width=".042331px"/>
<path d="m52.531 55.872v44.744h-0.16932v-44.744z" fill="#898989" stroke="#898989" stroke-linejoin="bevel" stroke-width=".042331px"/>
<path d="m51.388 55.788h1.0583v0.16932h-1.0583zm0 8.9319h1.0583v0.16932h-1.0583zm0 8.9742h1.0583v0.16932h-1.0583zm0 8.9319h1.0583v0.16933h-1.0583zm0 8.9742h1.0583v0.16932h-1.0583zm0 8.9319h1.0583v0.16932h-1.0583z" fill="#898989" stroke="#898989" stroke-linejoin="bevel" stroke-width=".042331px"/>
<text x="72.450981" y="61.645779" fill="#000000" font-family="Arial" font-size="3.5057px" font-weight="400" letter-spacing="0px" stroke-width=".26458" word-spacing="0px" style="line-height:125%" xml:space="preserve"><tspan x="72.450981" y="61.645779" stroke-width=".26458"><tspan dx="0" dy="0" fill="#000000" font-family="Arial" font-size="3.5057px" font-weight="400" stroke-width=".26458">2</tspan></tspan></text>
<text x="96.506927" y="70.599762" fill="#000000" font-family="Arial" font-size="3.5057px" font-weight="400" letter-spacing="0px" stroke-width=".26458" word-spacing="0px" style="line-height:125%" xml:space="preserve"><tspan x="96.506927" y="70.599762" stroke-width=".26458"><tspan dx="0" dy="0" fill="#000000" font-family="Arial" font-size="3.5057px" font-weight="400" stroke-width=".26458">4</tspan></tspan></text>
<text x="72.450981" y="79.553711" fill="#000000" font-family="Arial" font-size="3.5057px" font-weight="400" letter-spacing="0px" stroke-width=".26458" word-spacing="0px" style="line-height:125%" xml:space="preserve"><tspan x="72.450981" y="79.553711" stroke-width=".26458"><tspan dx="0" dy="0" fill="#000000" font-family="Arial" font-size="3.5057px" font-weight="400" stroke-width=".26458">2</tspan></tspan></text>
<text x="54.589466" y="88.50769" fill="#000000" font-family="Arial" font-size="3.5057px" font-weight="400" letter-spacing="0px" stroke-width=".26458" word-spacing="0px" style="line-height:125%" xml:space="preserve"><tspan x="54.589466" y="88.50769" stroke-width=".26458"><tspan dx="0" dy="0" fill="#000000" font-family="Arial" font-size="3.5057px" font-weight="400" stroke-width=".26458">0</tspan></tspan></text>
<text x="54.589466" y="97.46167" fill="#000000" font-family="Arial" font-size="3.5057px" font-weight="400" letter-spacing="0px" stroke-width=".26458" word-spacing="0px" style="line-height:125%" xml:space="preserve"><tspan x="54.589466" y="97.46167" stroke-width=".26458"><tspan dx="0" dy="0" fill="#000000" font-family="Arial" font-size="3.5057px" font-weight="400" stroke-width=".26458">0</tspan></tspan></text>
<text x="51.485188" y="105.96952" fill="#000000" font-family="Arial" font-size="3.5057px" font-weight="400" letter-spacing="0px" stroke-width=".26458" word-spacing="0px" style="line-height:125%" xml:space="preserve"><tspan x="51.485188" y="105.96952" stroke-width=".26458"><tspan dx="0" dy="0" fill="#000000" font-family="Arial" font-size="3.5057px" font-weight="400" stroke-width=".26458">0</tspan></tspan></text>
<text x="63.513172" y="105.96952" fill="#000000" font-family="Arial" font-size="3.5057px" font-weight="400" letter-spacing="0px" stroke-width=".26458" word-spacing="0px" style="line-height:125%" xml:space="preserve"><tspan x="63.513172" y="105.96952" stroke-width=".26458"><tspan dx="0" dy="0" fill="#000000" font-family="Arial" font-size="3.5057px" font-weight="400" stroke-width=".26458">1</tspan></tspan></text>
<text x="75.541153" y="105.96952" fill="#000000" font-family="Arial" font-size="3.5057px" font-weight="400" letter-spacing="0px" stroke-width=".26458" word-spacing="0px" style="line-height:125%" xml:space="preserve"><tspan x="75.541153" y="105.96952" stroke-width=".26458"><tspan dx="0" dy="0" fill="#000000" font-family="Arial" font-size="3.5057px" font-weight="400" stroke-width=".26458">2</tspan></tspan></text>
<text x="87.569115" y="105.96952" fill="#000000" font-family="Arial" font-size="3.5057px" font-weight="400" letter-spacing="0px" stroke-width=".26458" word-spacing="0px" style="line-height:125%" xml:space="preserve"><tspan x="87.569115" y="105.96952" stroke-width=".26458"><tspan dx="0" dy="0" fill="#000000" font-family="Arial" font-size="3.5057px" font-weight="400" stroke-width=".26458">3</tspan></tspan></text>
<text x="99.597107" y="105.96952" fill="#000000" font-family="Arial" font-size="3.5057px" font-weight="400" letter-spacing="0px" stroke-width=".26458" word-spacing="0px" style="line-height:125%" xml:space="preserve"><tspan x="99.597107" y="105.96952" stroke-width=".26458"><tspan dx="0" dy="0" fill="#000000" font-family="Arial" font-size="3.5057px" font-weight="400" stroke-width=".26458">4</tspan></tspan></text>
<text x="111.62509" y="105.96952" fill="#000000" font-family="Arial" font-size="3.5057px" font-weight="400" letter-spacing="0px" stroke-width=".26458" word-spacing="0px" style="line-height:125%" xml:space="preserve"><tspan x="111.62509" y="105.96952" stroke-width=".26458"><tspan dx="0" dy="0" fill="#000000" font-family="Arial" font-size="3.5057px" font-weight="400" stroke-width=".26458">5</tspan></tspan></text>
<text x="48.705814" y="59.444546" fill="#000000" font-family="Arial" font-size="3.5057px" font-weight="400" letter-spacing="0px" stroke-width=".26458" text-align="end" text-anchor="end" word-spacing="0px" style="line-height:125%" xml:space="preserve"><tspan x="48.705814" y="59.444546" text-align="end"><tspan dx="0" dy="0" fill="#000000" font-family="Arial" font-size="3.5057px" font-weight="400" stroke-width=".26458" text-align="end" text-anchor="end">I am involved in such</tspan></tspan><tspan x="48.705814" y="63.82671" text-align="end"><tspan fill="#000000" font-family="Arial" font-size="3.5057px" font-weight="400" stroke-width=".26458" text-align="end" text-anchor="end">projects already</tspan></tspan></text>
<text x="48.730461" y="70.426895" fill="#000000" font-family="Arial" font-size="3.5057px" font-weight="400" letter-spacing="0px" stroke-width=".26458" text-align="end" text-anchor="end" word-spacing="0px" style="line-height:125%" xml:space="preserve"><tspan x="48.730461" y="70.426895" stroke-width=".26458" text-align="end" text-anchor="end"><tspan dx="0" dy="0" fill="#000000" font-family="Arial" font-size="3.5057px" font-weight="400" stroke-width=".26458" text-align="end" text-anchor="end">I would love to participate</tspan></tspan></text>
<text x="48.746265" y="77.352478" fill="#000000" font-family="Arial" font-size="3.5057px" font-weight="400" letter-spacing="0px" stroke-width=".26458" text-align="end" text-anchor="end" word-spacing="0px" style="line-height:125%" xml:space="preserve"><tspan x="48.746265" y="77.352478" text-align="end"><tspan dx="0" dy="0" fill="#000000" font-family="Arial" font-size="3.5057px" font-weight="400" stroke-width=".26458" text-align="end" text-anchor="end">I would if it came to me</tspan></tspan><tspan x="48.746265" y="81.734642" text-align="end"><tspan fill="#000000" font-family="Arial" font-size="3.5057px" font-weight="400" stroke-width=".26458" text-align="end" text-anchor="end">but I do not seek for it</tspan></tspan></text>
<text x="48.845886" y="88.334824" fill="#000000" font-family="Arial" font-size="3.5057px" font-weight="400" letter-spacing="0px" stroke-width=".26458" text-align="end" text-anchor="end" word-spacing="0px" style="line-height:125%" xml:space="preserve"><tspan x="48.845882" y="88.334824" stroke-width=".26458" text-align="end" text-anchor="end"><tspan dx="0" dy="0" fill="#000000" font-family="Arial" font-size="3.5057px" font-weight="400" stroke-width=".26458" text-align="end" text-anchor="end">I would not like to do that</tspan></tspan></text>
<text x="48.541317" y="95.260437" fill="#000000" font-family="Arial" font-size="3.5057px" font-weight="400" letter-spacing="0px" stroke-width=".26458" text-align="end" text-anchor="end" word-spacing="0px" style="line-height:125%" xml:space="preserve"><tspan x="48.541317" y="95.260437" text-align="end"><tspan dx="0" dy="0" fill="#000000" font-family="Arial" font-size="3.5057px" font-weight="400" stroke-width=".26458" text-align="end" text-anchor="end">I do not want such projects</tspan></tspan><tspan x="48.541317" y="99.642601" text-align="end"><tspan fill="#000000" font-family="Arial" font-size="3.5057px" font-weight="400" stroke-width=".26458" text-align="end" text-anchor="end">involving my branch</tspan></tspan></text>
</g>
</svg>
