<?xml version="1.0" encoding="UTF-8"?>
<svg width="464.94" height="272.37" version="1.1" viewBox="0 0 123.01 72.064" xmlns="http://www.w3.org/2000/svg" xmlns:cc="http://creativecommons.org/ns#" xmlns:dc="http://purl.org/dc/elements/1.1/" xmlns:rdf="http://www.w3.org/1999/02/22-rdf-syntax-ns#">
<defs>
<clipPath id="a">
<path d="m215.19 0.47998h238.71v242.71h-238.71z"/>
</clipPath>
</defs>
<metadata>
<rdf:RDF>
<cc:Work rdf:about="">
<dc:format>image/svg+xml</dc:format>
<dc:type rdf:resource="http://purl.org/dc/dcmitype/StillImage"/>
<dc:title/>
</cc:Work>
</rdf:RDF>
</metadata>
<g transform="translate(-80.37 -106.52)">
<path d="m138.32 107.94v63.92h62.904v-63.92z" fill="#e7e7e7" fill-rule="evenodd"/>
<path d="m154.15 107.94v63.92h-0.16933v-63.92zm15.705 0v63.92h-0.16933v-63.92zm15.747 0v63.92h-0.16932v-63.92zm15.705 0v63.92h-0.16932v-63.92z" fill="#898989" stroke="#898989" stroke-linejoin="bevel" stroke-width=".042331px"/>
<path transform="matrix(.26458 0 0 .26458 81.405 107.8)" d="m215.11 0.55997v40.158h59.517v-40.158z" clip-path="url(#a)" fill="#3975d8" fill-rule="evenodd"/>
<path transform="matrix(.26458 0 0 .26458 81.405 107.8)" d="m214.79 0.55997c0-0.16999 0.15-0.31998 0.31999-0.31998h59.517c0.17999 0 0.31998 0.14999 0.31998 0.31998v40.158c0 0.17999-0.13999 0.31998-0.31998 0.31998h-59.517c-0.16999 0-0.31999-0.13999-0.31999-0.31998zm0.63997 40.158-0.31998-0.31998h59.517l-0.31999 0.31998v-40.158l0.31999 0.31998h-59.517l0.31998-0.31998z" clip-path="url(#a)" fill="#27549e" stroke="#27549e" stroke-linejoin="bevel" stroke-width=".15999px"/>
<path transform="matrix(.26458 0 0 .26458 81.405 107.8)" d="m215.11 40.718v40.318h178.39v-40.318z" clip-path="url(#a)" fill="#cf3a2e" fill-rule="evenodd"/>
<path transform="matrix(.26458 0 0 .26458 81.405 107.8)" d="m214.79 40.718c0-0.15999 0.16-0.31998 0.31999-0.31998h178.39c0.17999 0 0.31999 0.15999 0.31999 0.31998v40.318c0 0.17999-0.14 0.31998-0.31999 0.31998h-178.39c-0.15999 0-0.31999-0.13999-0.31999-0.31998zm0.63997 40.318-0.31998-0.31998h178.39l-0.31998 0.31998v-40.318l0.31998 0.31998h-178.39l0.31998-0.31998z" clip-path="url(#a)" fill="#98281f" stroke="#98281f" stroke-linejoin="bevel" stroke-width=".15999px"/>
<path transform="matrix(.26458 0 0 .26458 81.405 107.8)" d="m215.11 81.036v40.318h178.39v-40.318z" clip-path="url(#a)" fill="#dea603" fill-rule="evenodd"/>
<path transform="matrix(.26458 0 0 .26458 81.405 107.8)" d="m214.79 81.036c0-0.15999 0.16-0.31998 0.31999-0.31998h178.39c0.17999 0 0.31999 0.15999 0.31999 0.31998v40.318c0 0.17999-0.14 0.31998-0.31999 0.31998h-178.39c-0.15999 0-0.31999-0.13999-0.31999-0.31998zm0.63997 40.318-0.31998-0.31999h178.39l-0.31998 0.31999v-40.318l0.31998 0.31998h-178.39l0.31998-0.31998z" clip-path="url(#a)" fill="#a37902" stroke="#a37902" stroke-linejoin="bevel" stroke-width=".15999px"/>
<path transform="matrix(.26458 0 0 .26458 81.405 107.8)" d="m215.11 121.35v40.318h118.87v-40.318z" clip-path="url(#a)" fill="#2d9449" fill-rule="evenodd"/>
<path transform="matrix(.26458 0 0 .26458 81.405 107.8)" d="m214.79 121.35c0-0.15999 0.16-0.31999 0.31999-0.31999h118.87c0.17999 0 0.31999 0.16 0.31999 0.31999v40.318c0 0.17999-0.14 0.31999-0.31999 0.31999h-118.87c-0.15999 0-0.31999-0.14-0.31999-0.31999zm0.63997 40.318-0.31998-0.31998h118.87l-0.31998 0.31998v-40.318l0.31998 0.31998h-118.87l0.31998-0.31998z" clip-path="url(#a)" fill="#1e6c33" stroke="#1e6c33" stroke-linejoin="bevel" stroke-width=".15999px"/>
<path transform="matrix(.26458 0 0 .26458 81.405 107.8)" d="m215.11 161.67v40.318h59.517v-40.318z" clip-path="url(#a)" fill="#e26001" fill-rule="evenodd"/>
<path transform="matrix(.26458 0 0 .26458 81.405 107.8)" d="m214.79 161.67c0-0.16999 0.15-0.31998 0.31999-0.31998h59.517c0.17999 0 0.31998 0.14999 0.31998 0.31998v40.318c0 0.17999-0.13999 0.31998-0.31998 0.31998h-59.517c-0.16999 0-0.31999-0.13999-0.31999-0.31998zm0.63997 40.318-0.31998-0.31998h59.517l-0.31999 0.31998v-40.318l0.31999 0.31999h-59.517l0.31998-0.31999z" clip-path="url(#a)" fill="#a64400" stroke="#a64400" stroke-linejoin="bevel" stroke-width=".15999px"/>
<path transform="matrix(.26458 0 0 .26458 81.405 107.8)" d="m215.11 201.99v40.158h59.517v-40.158z" clip-path="url(#a)" fill="#3da7af" fill-rule="evenodd"/>
<path transform="matrix(.26458 0 0 .26458 81.405 107.8)" d="m214.79 201.99c0-0.16999 0.15-0.31998 0.31999-0.31998h59.517c0.17999 0 0.31998 0.14999 0.31998 0.31998v40.158c0 0.17999-0.13999 0.31999-0.31998 0.31999h-59.517c-0.16999 0-0.31999-0.14-0.31999-0.31999zm0.63997 40.158-0.31998-0.31998h59.517l-0.31999 0.31998v-40.158l0.31999 0.31998h-59.517l0.31998-0.31998z" clip-path="url(#a)" fill="#2a7a80" stroke="#2a7a80" stroke-linejoin="bevel" stroke-width=".15999px"/>
<path d="m138.32 171.78h62.904v0.16932h-62.904z" fill="#898989" stroke="#898989" stroke-linejoin="bevel" stroke-width=".042331px"/>
<path d="m138.4 171.86v1.1006h-0.16933v-1.1006zm15.747 0v1.1006h-0.16933v-1.1006zm15.705 0v1.1006h-0.16933v-1.1006zm15.747 0v1.1006h-0.16932v-1.1006zm15.705 0v1.1006h-0.16932v-1.1006z" fill="#898989" stroke="#898989" stroke-linejoin="bevel" stroke-width=".042331px"/>
<path d="m138.4 107.94v63.92h-0.16933v-63.92z" fill="#898989" stroke="#898989" stroke-linejoin="bevel" stroke-width=".042331px"/>
<path d="m137.26 107.86h1.0583v0.16933h-1.0583zm0 10.625h1.0583v0.16932h-1.0583zm0 10.667h1.0583v0.16932h-1.0583zm0 10.667h1.0583v0.16933h-1.0583zm0 10.667h1.0583v0.16932h-1.0583zm0 10.667h1.0583v0.16933h-1.0583zm0 10.625h1.0583v0.16932h-1.0583z" fill="#898989" stroke="#898989" stroke-linejoin="bevel" stroke-width=".042331px"/>
<text x="150.0222" y="114.55995" fill="#000000" font-family="Arial" font-size="3.5057px" font-weight="400" letter-spacing="0px" stroke-width=".26458" word-spacing="0px" style="line-height:125%" xml:space="preserve"><tspan x="150.0222" y="114.55995" stroke-width=".26458"><tspan dx="0" dy="0" fill="#000000" font-family="Arial" font-size="3.5057px" font-weight="400" stroke-width=".26458">1</tspan></tspan></text>
<text x="181.46793" y="125.21849" fill="#000000" font-family="Arial" font-size="3.5057px" font-weight="400" letter-spacing="0px" stroke-width=".26458" word-spacing="0px" style="line-height:125%" xml:space="preserve"><tspan x="181.46793" y="125.21849" stroke-width=".26458"><tspan dx="0" dy="0" fill="#000000" font-family="Arial" font-size="3.5057px" font-weight="400" stroke-width=".26458">3</tspan></tspan></text>
<text x="181.46793" y="135.87701" fill="#000000" font-family="Arial" font-size="3.5057px" font-weight="400" letter-spacing="0px" stroke-width=".26458" word-spacing="0px" style="line-height:125%" xml:space="preserve"><tspan x="181.46793" y="135.87701" stroke-width=".26458"><tspan dx="0" dy="0" fill="#000000" font-family="Arial" font-size="3.5057px" font-weight="400" stroke-width=".26458">3</tspan></tspan></text>
<text x="165.74507" y="146.53551" fill="#000000" font-family="Arial" font-size="3.5057px" font-weight="400" letter-spacing="0px" stroke-width=".26458" word-spacing="0px" style="line-height:125%" xml:space="preserve"><tspan x="165.74507" y="146.53551" stroke-width=".26458"><tspan dx="0" dy="0" fill="#000000" font-family="Arial" font-size="3.5057px" font-weight="400" stroke-width=".26458">2</tspan></tspan></text>
<text x="150.0222" y="157.19405" fill="#000000" font-family="Arial" font-size="3.5057px" font-weight="400" letter-spacing="0px" stroke-width=".26458" word-spacing="0px" style="line-height:125%" xml:space="preserve"><tspan x="150.0222" y="157.19405" stroke-width=".26458"><tspan dx="0" dy="0" fill="#000000" font-family="Arial" font-size="3.5057px" font-weight="400" stroke-width=".26458">1</tspan></tspan></text>
<text x="150.0222" y="167.85257" fill="#000000" font-family="Arial" font-size="3.5057px" font-weight="400" letter-spacing="0px" stroke-width=".26458" word-spacing="0px" style="line-height:125%" xml:space="preserve"><tspan x="150.0222" y="167.85257" stroke-width=".26458"><tspan dx="0" dy="0" fill="#000000" font-family="Arial" font-size="3.5057px" font-weight="400" stroke-width=".26458">1</tspan></tspan></text>
<text x="137.38953" y="177.21272" fill="#000000" font-family="Arial" font-size="3.5057px" font-weight="400" letter-spacing="0px" stroke-width=".26458" word-spacing="0px" style="line-height:125%" xml:space="preserve"><tspan x="137.38953" y="177.21272" stroke-width=".26458"><tspan dx="0" dy="0" fill="#000000" font-family="Arial" font-size="3.5057px" font-weight="400" stroke-width=".26458">0</tspan></tspan></text>
<text x="153.11237" y="177.21272" fill="#000000" font-family="Arial" font-size="3.5057px" font-weight="400" letter-spacing="0px" stroke-width=".26458" word-spacing="0px" style="line-height:125%" xml:space="preserve"><tspan x="153.11237" y="177.21272" stroke-width=".26458"><tspan dx="0" dy="0" fill="#000000" font-family="Arial" font-size="3.5057px" font-weight="400" stroke-width=".26458">1</tspan></tspan></text>
<text x="168.83525" y="177.21272" fill="#000000" font-family="Arial" font-size="3.5057px" font-weight="400" letter-spacing="0px" stroke-width=".26458" word-spacing="0px" style="line-height:125%" xml:space="preserve"><tspan x="168.83525" y="177.21272" stroke-width=".26458"><tspan dx="0" dy="0" fill="#000000" font-family="Arial" font-size="3.5057px" font-weight="400" stroke-width=".26458">2</tspan></tspan></text>
<text x="184.55809" y="177.21272" fill="#000000" font-family="Arial" font-size="3.5057px" font-weight="400" letter-spacing="0px" stroke-width=".26458" word-spacing="0px" style="line-height:125%" xml:space="preserve"><tspan x="184.55809" y="177.21272" stroke-width=".26458"><tspan dx="0" dy="0" fill="#000000" font-family="Arial" font-size="3.5057px" font-weight="400" stroke-width=".26458">3</tspan></tspan></text>
<text x="200.28094" y="177.21272" fill="#000000" font-family="Arial" font-size="3.5057px" font-weight="400" letter-spacing="0px" stroke-width=".26458" word-spacing="0px" style="line-height:125%" xml:space="preserve"><tspan x="200.28094" y="177.21272" stroke-width=".26458"><tspan dx="0" dy="0" fill="#000000" font-family="Arial" font-size="3.5057px" font-weight="400" stroke-width=".26458">4</tspan></tspan></text>
<text x="84.946243" y="114.3871" fill="#000000" font-family="Arial" font-size="3.5057px" font-weight="400" letter-spacing="0px" stroke-width=".26458" word-spacing="0px" style="line-height:125%" xml:space="preserve"><tspan x="84.946243" y="114.3871" stroke-width=".26458"><tspan dx="0" dy="0" fill="#000000" font-family="Arial" font-size="3.5057px" font-weight="400" stroke-width=".26458">Student - Lower secondary level</tspan></tspan></text>
<text x="84.946243" y="125.04564" fill="#000000" font-family="Arial" font-size="3.5057px" font-weight="400" letter-spacing="0px" stroke-width=".26458" word-spacing="0px" style="line-height:125%" xml:space="preserve"><tspan x="84.946243" y="125.04564" stroke-width=".26458"><tspan dx="0" dy="0" fill="#000000" font-family="Arial" font-size="3.5057px" font-weight="400" stroke-width=".26458">Student - Upper secondary level</tspan></tspan></text>
<text x="99.850327" y="135.70416" fill="#000000" font-family="Arial" font-size="3.5057px" font-weight="400" letter-spacing="0px" stroke-width=".26458" word-spacing="0px" style="line-height:125%" xml:space="preserve"><tspan x="99.850327" y="135.70416" stroke-width=".26458"><tspan dx="0" dy="0" fill="#000000" font-family="Arial" font-size="3.5057px" font-weight="400" stroke-width=".26458">Student - Tertiary level</tspan></tspan></text>
<text x="124.16252" y="146.36269" fill="#000000" font-family="Arial" font-size="3.5057px" font-weight="400" letter-spacing="0px" stroke-width=".26458" word-spacing="0px" style="line-height:125%" xml:space="preserve"><tspan x="124.16252" y="146.36269" stroke-width=".26458"><tspan dx="0" dy="0" fill="#000000" font-family="Arial" font-size="3.5057px" font-weight="400" stroke-width=".26458">Politics</tspan></tspan></text>
<text x="81.42218" y="157.02122" fill="#000000" font-family="Arial" font-size="3.5057px" font-weight="400" letter-spacing="0px" stroke-width=".26458" word-spacing="0px" style="line-height:125%" xml:space="preserve"><tspan x="81.42218" y="157.02122" stroke-width=".26458"><tspan dx="0" dy="0" fill="#000000" font-family="Arial" font-size="3.5057px" font-weight="400" stroke-width=".26458">Programmer / Consultant / Analyst</tspan></tspan></text>
<text x="125.13965" y="167.67975" fill="#000000" font-family="Arial" font-size="3.5057px" font-weight="400" letter-spacing="0px" stroke-width=".26458" word-spacing="0px" style="line-height:125%" xml:space="preserve"><tspan x="125.13965" y="167.67975" stroke-width=".26458"><tspan dx="0" dy="0" fill="#000000" font-family="Arial" font-size="3.5057px" font-weight="400" stroke-width=".26458">Health</tspan></tspan></text>
</g>
</svg>
