<?xml version="1.0" encoding="UTF-8"?>
<svg width="250.56" height="250.63" version="1.1" viewBox="0 0 66.294 66.313" xmlns="http://www.w3.org/2000/svg" xmlns:cc="http://creativecommons.org/ns#" xmlns:dc="http://purl.org/dc/elements/1.1/" xmlns:rdf="http://www.w3.org/1999/02/22-rdf-syntax-ns#">
<metadata>
<rdf:RDF>
<cc:Work rdf:about="">
<dc:format>image/svg+xml</dc:format>
<dc:type rdf:resource="http://purl.org/dc/dcmitype/StillImage"/>
<dc:title/>
</cc:Work>
</rdf:RDF>
</metadata>
<g transform="translate(-123.14 -125.21)">
<path d="m156.3 158.37v31.722c17.52 0 31.722-14.202 31.722-31.722s-14.202-31.722-31.722-31.722z" fill="#4285f4" fill-rule="evenodd"/>
<path d="m156.38 158.37v31.722l-0.0847-0.0847 0.81488-0.0106 0.81487-0.0317 0.80429-0.0476 0.80429-0.0688 0.79371-0.0899 0.78842-0.11112 0.77783-0.13229 0.77784-0.14816 0.77254-0.16932 0.76196-0.1852 0.75138-0.20107 0.74609-0.22224 0.74079-0.24341 0.73021-0.25927 0.71963-0.26986 0.71434-0.29103 0.70905-0.31219 0.69317-0.32278 0.68788-0.34394 0.6773-0.35452 1.3228-0.76196 1.2858-0.82546 1.2435-0.88366 1.1959-0.93658 1.1429-0.99478 1.1006-1.0477 1.0477-1.1006 0.98949-1.1482 0.94187-1.1958 0.87837-1.2382 0.82546-1.2858 0.76196-1.3228 0.35452-0.6773 0.34394-0.68788 0.32278-0.69317 0.3069-0.70905 0.29632-0.71434 0.27515-0.71963 0.25398-0.73021 0.23812-0.74079 0.22223-0.75138 0.20637-0.75138 0.1852-0.76196 0.16403-0.76725 0.14816-0.77784 0.13229-0.78312 0.11112-0.78842 0.09-0.79371 0.0688-0.799 0.0476-0.80958 0.0317-0.80958 0.0106-0.82017v-0.80958l-0.0318-0.80959-0.0529-0.80958-0.0688-0.799-0.0899-0.79371-0.11112-0.78842-0.127-0.78312-0.15345-0.77255-0.16403-0.77254-0.1852-0.76196-0.20636-0.75667-0.22224-0.74608-0.23811-0.7408-0.25928-0.73021-0.27515-0.71963-0.29103-0.71434-0.3069-0.70904-0.32807-0.69318-0.33865-0.68788-0.35981-0.6773-0.76196-1.3281-0.82017-1.2805-0.88366-1.2382-0.94187-1.2011-0.99478-1.1482-1.0477-1.0953-1.0953-1.0477-1.1482-0.99478-1.1959-0.94187-1.2435-0.87837-1.2805-0.82546-1.3281-0.76196-0.67201-0.35452-0.69317-0.34394-0.69318-0.32807-0.70375-0.3069-0.71434-0.29103-0.72492-0.27515-0.73021-0.25928-0.7408-0.23811-0.74608-0.22224-0.75667-0.20636-0.75667-0.1852-0.77254-0.16932-0.77784-0.14816-0.78312-0.13229-0.78313-0.11112-0.799-0.09-0.799-0.0688-0.80958-0.0529-0.80959-0.0318-0.81487-0.0106 0.0741-0.12171 5e-3 0.0106c5e-3 0.0106 0.0106 0.0212 0.0106 0.037zm-0.16932-31.722 0.0106 0.037-5e-3 -0.0106c-0.0159-0.0264-0.0159-0.0582 0-0.0847 0.0159-0.0212 0.0476-0.037 0.0741-0.037l0.82546 0.0106 0.81487 0.0318 0.80958 0.0529 0.8043 0.0741 0.799 0.09 0.79371 0.11112 0.78841 0.12699 0.77784 0.15345 0.77254 0.16933 0.76725 0.1852 0.75667 0.20636 0.75138 0.22224 0.74608 0.2434 0.73551 0.25928 0.72492 0.27515 0.71434 0.29632 0.71434 0.3069 0.69846 0.32807 0.68788 0.34394 0.68259 0.35981 1.3334 0.76726 1.2911 0.82545 1.2435 0.88896 1.2011 0.94716 1.1588 1.0001 1.1059 1.053 1.053 1.1006 1.0001 1.1588 0.94186 1.2012 0.88367 1.2488 0.83075 1.2858 0.76725 1.3334 0.35452 0.68259 0.34394 0.69317 0.32807 0.69847 0.31219 0.70905 0.29103 0.71433 0.27515 0.73021 0.25928 0.73551 0.2434 0.74079 0.22224 0.75138 0.20636 0.75667 0.1852 0.76725 0.16933 0.77254 0.14816 0.78313 0.13228 0.78313 0.11112 0.79371 0.09 0.79899 0.0688 0.8043 0.0529 0.80958 0.0318 0.82017v0.81487l-0.0106 0.82017-0.0317 0.81487-0.0476 0.80958-0.0741 0.8043-0.09 0.80429-0.11112 0.78842-0.127 0.78841-0.14815 0.77784-0.16933 0.77783-0.1852 0.76196-0.20636 0.76196-0.22224 0.74609-0.2434 0.74608-0.25928 0.73551-0.27515 0.73021-0.29103 0.71434-0.31219 0.70904-0.32807 0.69847-0.33865 0.69317-0.35981 0.68259-0.76725 1.3334-0.82546 1.2858-0.88896 1.2488-0.94186 1.2011-1.0001 1.1588-1.053 1.1006-1.1059 1.053-1.1535 1.0001-1.2011 0.94716-1.2435 0.88366-1.2964 0.82546-1.3281 0.76725-0.68259 0.35981-0.68788 0.34394-0.70376 0.32807-0.70904 0.3069-0.71434 0.29103-0.72492 0.28044-0.73551 0.25928-0.74608 0.23811-0.75138 0.22224-0.75667 0.21166-0.76725 0.18519-0.77254 0.16404-0.77784 0.15345-0.78841 0.12699-0.79371 0.11112-0.799 0.0899-0.8043 0.0741-0.80958 0.0476-0.81487 0.0317-0.82017 0.0106c-0.0212 5e-3 -0.0423-5e-3 -0.0582-0.0212-0.0159-0.0159-0.0265-0.037-0.0265-0.0635v-31.722z" fill="#2e60b3" stroke="#2e60b3" stroke-linejoin="bevel" stroke-width=".042331px"/>
<path d="m156.29 158.37-27.473 15.861c5.6671 9.8155 16.139 15.861 27.473 15.861z" fill="#ea4335" fill-rule="evenodd"/>
<path d="m156.21 158.37 0.127 0.0741-27.473 15.861 0.0318-0.11641 0.54501 0.91012 0.57147 0.88366 0.59793 0.85985 0.62174 0.83869 0.64819 0.81222 0.6773 0.79371 0.69582 0.76461 0.71963 0.74079 0.74344 0.71434 0.76461 0.69053 0.78312 0.66407 0.80429 0.63496 0.82546 0.61116 0.84398 0.58205 0.86249 0.5556 0.87838 0.52649 0.89424 0.49475 0.91012 0.47093 0.92599 0.43919 0.94187 0.40743 0.95245 0.38099 0.96833 0.34658 0.9789 0.31749 0.98949 0.28573 1.0027 0.25134 1.0107 0.22224 1.0212 0.18784 1.0318 0.1561 1.0371 0.11906 1.045 0.0873 1.0503 0.0529 1.0583 0.0159-0.0873 0.0847zm0.16933 31.722c0 0.0238-8e-3 0.045-0.0238 0.0609-0.0159 0.0159-0.0397 0.0265-0.0608 0.0238l-1.0636-0.0185-1.0556-0.0529-1.0503-0.0873-1.0424-0.11905-1.0371-0.1561-1.0265-0.18784-1.0159-0.22489-1.008-0.25398-0.99478-0.28574-0.9842-0.31748-0.97362-0.35188-0.95774-0.38098-0.94716-0.41273-0.93129-0.43918-0.91541-0.47358-0.89953-0.49739-0.88367-0.53179-0.86778-0.5556-0.84663-0.58734-0.8281-0.61115-0.80958-0.64026-0.78842-0.66937-0.7699-0.69052-0.74344-0.71963-0.72492-0.74609-0.70111-0.76989-0.67994-0.79636-0.65084-0.81487-0.62703-0.84398-0.59793-0.86514-0.57676-0.88895-0.54501-0.91013c-0.0106-0.0185-0.0159-0.0423-0.0106-0.0661 8e-3 -0.0212 0.0212-0.0397 0.0397-0.0503l27.473-15.861c0.0265-0.0159 0.0608-0.0159 0.0847 0 0.0265 0.0132 0.0423 0.0423 0.0423 0.0714z" fill="#ac2f24" stroke="#ac2f24" stroke-linejoin="bevel" stroke-width=".042331px"/>
<path d="m156.29 158.37-27.473-15.864c-5.6671 9.8155-5.6671 21.909 0 31.725z" fill="#fbbc04" fill-rule="evenodd"/>
<path d="m156.25 158.3v0.14551l-27.473-15.864 0.11641-0.0318-0.51591 0.92599-0.47887 0.93658-0.44713 0.9498-0.41272 0.95775-0.38098 0.97097-0.34659 0.97626-0.31484 0.98684-0.28309 0.99478-0.24605 1.0001-0.21694 1.008-0.18256 1.0106-0.14816 1.016-0.11641 1.0186-0.082 1.0239-0.0503 1.0212-0.0159 1.0239 0.0159 1.0265 0.0503 1.0212 0.082 1.0239 0.11641 1.0186 0.14816 1.0159 0.18256 1.0107 0.21694 1.008 0.2487 1.0001 0.28044 0.99479 0.31484 0.98684 0.34923 0.97626 0.37834 0.97097 0.41537 0.95774 0.44448 0.94981 0.48151 0.93657 0.51327 0.92335-0.11641-0.0317zm-27.388 16.006c-0.0185 0.0106-0.0423 0.0159-0.0635 8e-3 -0.0212-5e-3 -0.0397-0.0185-0.0503-0.0397l-0.51856-0.92864-0.48152-0.94187-0.44977-0.95509-0.41537-0.96304-0.38363-0.97626-0.34923-0.98155-0.31484-0.99214-0.28573-1.0001-0.2487-1.0054-0.21694-1.0133-0.18256-1.0159-0.14816-1.0212-0.11641-1.0239-0.082-1.0292-0.0529-1.0265-0.0159-1.0318 0.0185-1.0292 0.0503-1.0265 0.082-1.0292 0.11641-1.0239 0.14816-1.0212 0.18256-1.016 0.21694-1.0133 0.25134-1.0054 0.28309-1.0001 0.31484-0.99213 0.35188-0.98156 0.38098-0.97626 0.41802-0.96303 0.44712-0.9551 0.48416-0.94186 0.51592-0.926c0.0106-0.0212 0.0291-0.0344 0.0503-0.0397 0.0212-8e-3 0.045-5e-3 0.0635 8e-3l27.473 15.864c0.0265 0.0132 0.0423 0.0423 0.0423 0.0714 0 0.0317-0.0159 0.0582-0.0423 0.0741z" fill="#b98902" stroke="#b98902" stroke-linejoin="bevel" stroke-width=".042331px"/>
<path d="m156.29 158.37v-31.725c-11.334 0-21.806 6.0481-27.473 15.861z" fill="#34a853" fill-rule="evenodd"/>
<path d="m156.34 158.3-0.127 0.0714v-31.725l0.0873 0.0847-1.0609 0.0185-1.0503 0.0529-1.045 0.0873-1.0371 0.11906-1.0318 0.1561-1.0212 0.18784-1.0106 0.22224-1.0027 0.25134-0.98949 0.28574-0.97891 0.31748-0.96832 0.34923-0.95245 0.37834-0.94187 0.41008-0.926 0.43654-0.91012 0.47093-0.89424 0.49739-0.87837 0.5265-0.8625 0.55295-0.84133 0.5847-0.8281 0.60851-0.80429 0.63761-0.78313 0.66407-0.76461 0.68788-0.74079 0.71698-0.72228 0.7408-0.69581 0.7646-0.67466 0.79107-0.65084 0.81223-0.62174 0.84133-0.59528 0.85985-0.57411 0.88366-0.54237 0.90747-0.0318-0.11641zm-27.558-15.718c-0.0185-0.0106-0.0318-0.0291-0.0397-0.0503-5e-3 -0.0238 0-0.0476 0.0106-0.0661l0.54765-0.91277 0.57412-0.88895 0.60057-0.86514 0.62439-0.84398 0.65348-0.81488 0.67995-0.79635 0.70111-0.7699 0.72227-0.74608 0.74609-0.71699 0.7699-0.69317 0.78841-0.66936 0.80694-0.63761 0.83075-0.61381 0.84662-0.58469 0.86779-0.55825 0.88366-0.52649 0.89954-0.50268 0.91541-0.47094 0.93129-0.44183 0.94715-0.41008 0.95775-0.38363 0.97361-0.34923 0.9842-0.31748 0.99478-0.28838 1.008-0.25399 1.016-0.22224 1.0265-0.18784 1.0371-0.1561 1.0424-0.11905 1.0503-0.0873 1.0556-0.0556 1.0609-0.0185c0.0212 0 0.045 0.0106 0.0608 0.0265 0.0159 0.0159 0.0238 0.037 0.0238 0.0582v31.725c0 0.0317-0.0159 0.0582-0.0423 0.0741-0.0238 0.0159-0.0582 0.0159-0.0847 0z" fill="#237a3b" stroke="#237a3b" stroke-linejoin="bevel" stroke-width=".042331px"/>
<text x="164.66339" y="159.79439" fill="#000000" font-family="Arial" font-size="3.5057px" font-weight="400" letter-spacing="0px" stroke-width=".26458" word-spacing="0px" style="line-height:125%" xml:space="preserve"><tspan x="164.66339" y="159.79439" stroke-width=".26458"><tspan dx="0" dy="0" fill="#000000" font-family="Arial" font-size="3.5057px" font-weight="400" stroke-width=".26458">Heterosexual: </tspan></tspan></text>
<text x="169.99712" y="163.85818" fill="#000000" font-family="Arial" font-size="3.5057px" font-weight="400" letter-spacing="0px" stroke-width=".26458" word-spacing="0px" style="line-height:125%" xml:space="preserve"><tspan x="169.99712" y="163.85818" stroke-width=".26458"><tspan dx="0" dy="0" fill="#000000" font-family="Arial" font-size="3.5057px" font-weight="400" stroke-width=".26458">3; 50%</tspan></tspan></text>
<text x="137.14816" y="178.57884" fill="#000000" font-family="Arial" font-size="3.5057px" font-weight="400" letter-spacing="0px" stroke-width=".26458" word-spacing="0px" style="line-height:125%" xml:space="preserve"><tspan x="137.14816" y="178.57884" stroke-width=".26458"><tspan dx="0" dy="0" fill="#000000" font-family="Arial" font-size="3.5057px" font-weight="400" stroke-width=".26458">Bisexual:</tspan></tspan></text>
<text x="138.75674" y="182.64262" fill="#000000" font-family="Arial" font-size="3.5057px" font-weight="400" letter-spacing="0px" stroke-width=".26458" word-spacing="0px" style="line-height:125%" xml:space="preserve"><tspan x="138.75674" y="182.64262" stroke-width=".26458"><tspan dx="0" dy="0" fill="#000000" font-family="Arial" font-size="3.5057px" font-weight="400" stroke-width=".26458">1; 16%</tspan></tspan></text>
<text x="125.99744" y="159.26526" fill="#000000" font-family="Arial" font-size="3.5057px" font-weight="400" letter-spacing="0px" stroke-width=".26458" word-spacing="0px" style="line-height:125%" xml:space="preserve"><tspan x="125.99744" y="159.26526" stroke-width=".26458"><tspan dx="0" dy="0" fill="#000000" font-family="Arial" font-size="3.5057px" font-weight="400" stroke-width=".26458">Homosexual: </tspan></tspan></text>
<text x="130.78085" y="163.32904" fill="#000000" font-family="Arial" font-size="3.5057px" font-weight="400" letter-spacing="0px" stroke-width=".26458" word-spacing="0px" style="line-height:125%" xml:space="preserve"><tspan x="130.78085" y="163.32904" stroke-width=".26458"><tspan dx="0" dy="0" fill="#000000" font-family="Arial" font-size="3.5057px" font-weight="400" stroke-width=".26458">1; 17%</tspan></tspan></text>
<text x="135.56427" y="139.95168" fill="#000000" font-family="Arial" font-size="3.5057px" font-weight="400" letter-spacing="0px" stroke-width=".26458" word-spacing="0px" style="line-height:125%" xml:space="preserve"><tspan x="135.56427" y="139.95168" stroke-width=".26458"><tspan dx="0" dy="0" fill="#000000" font-family="Arial" font-size="3.5057px" font-weight="400" stroke-width=".26458">Pansexual:</tspan></tspan></text>
<text x="138.73911" y="144.01546" fill="#000000" font-family="Arial" font-size="3.5057px" font-weight="400" letter-spacing="0px" stroke-width=".26458" word-spacing="0px" style="line-height:125%" xml:space="preserve"><tspan x="138.73911" y="144.01546" stroke-width=".26458"><tspan dx="0" dy="0" fill="#000000" font-family="Arial" font-size="3.5057px" font-weight="400" stroke-width=".26458">1; 17%</tspan></tspan></text>
</g>
</svg>
