<?xml version="1.0" encoding="UTF-8"?>
<svg width="456.92" height="272.41" version="1.1" viewBox="0 0 120.89 72.075" xmlns="http://www.w3.org/2000/svg" xmlns:cc="http://creativecommons.org/ns#" xmlns:dc="http://purl.org/dc/elements/1.1/" xmlns:rdf="http://www.w3.org/1999/02/22-rdf-syntax-ns#">
<defs>
<clipPath id="a">
<path d="m236.63 0.63997h293.26v242.71h-293.26z"/>
</clipPath>
</defs>
<metadata>
<rdf:RDF>
<cc:Work rdf:about="">
<dc:format>image/svg+xml</dc:format>
<dc:type rdf:resource="http://purl.org/dc/dcmitype/StillImage"/>
<dc:title/>
</cc:Work>
</rdf:RDF>
</metadata>
<g transform="translate(-51.268 -102.07)">
<path d="m92.692 103.5v63.92h77.297v-63.92z" fill="#e7e7e7" fill-rule="evenodd"/>
<path d="m103.83 103.5v63.92h-0.16933v-63.92zm11.048 0v63.92h-0.16933v-63.92zm11.006 0v63.92h-0.16932v-63.92zm11.048 0v63.92h-0.16933v-63.92zm11.048 0v63.92h-0.16932v-63.92zm11.048 0v63.92h-0.16932v-63.92zm11.048 0v63.92h-0.16933v-63.92z" fill="#898989" stroke="#898989" stroke-linejoin="bevel" stroke-width=".042331px"/>
<path transform="matrix(.26458 0 0 .26458 30.063 103.35)" d="m236.71 0.55997v26.879h250.39v-26.879z" clip-path="url(#a)" fill="#3975d8" fill-rule="evenodd"/>
<path transform="matrix(.26458 0 0 .26458 30.063 103.35)" d="m236.39 0.55997c0-0.15999 0.15999-0.31998 0.31999-0.31998h250.39c0.17999 0 0.31998 0.15999 0.31998 0.31998v26.879c0 0.17999-0.13999 0.31998-0.31998 0.31998h-250.39c-0.16 0-0.31999-0.13999-0.31999-0.31998zm0.63997 26.879-0.31998-0.31998h250.39l-0.31998 0.31998v-26.879l0.31998 0.31998h-250.39l0.31998-0.31998z" clip-path="url(#a)" fill="#27549e" stroke="#27549e" stroke-linejoin="bevel" stroke-width=".15999px"/>
<path d="m92.692 110.61v7.0693h66.248v-7.0693z" fill="#cf3a2e" fill-rule="evenodd"/>
<path transform="matrix(.26458 0 0 .26458 30.063 103.35)" d="m236.39 27.439c0-0.15999 0.15999-0.31998 0.31999-0.31998h250.39c0.17999 0 0.31998 0.15999 0.31998 0.31998v26.719c0 0.17999-0.13999 0.31998-0.31998 0.31998h-250.39c-0.16 0-0.31999-0.13999-0.31999-0.31998zm0.63997 26.719-0.31998-0.31998h250.39l-0.31998 0.31998v-26.719l0.31998 0.31998h-250.39l0.31998-0.31998z" clip-path="url(#a)" fill="#98281f" stroke="#98281f" stroke-linejoin="bevel" stroke-width=".15999px"/>
<path d="m92.692 117.68v7.1116h66.248v-7.1116z" fill="#dea603" fill-rule="evenodd"/>
<path transform="matrix(.26458 0 0 .26458 30.063 103.35)" d="m236.39 54.157c0-0.15999 0.15999-0.31998 0.31999-0.31998h250.39c0.17999 0 0.31998 0.15999 0.31998 0.31998v26.879c0 0.17999-0.13999 0.31998-0.31998 0.31998h-250.39c-0.16 0-0.31999-0.13999-0.31999-0.31998zm0.63997 26.879-0.31998-0.31998h250.39l-0.31998 0.31998v-26.879l0.31998 0.31998h-250.39l0.31998-0.31998z" clip-path="url(#a)" fill="#a37902" stroke="#a37902" stroke-linejoin="bevel" stroke-width=".15999px"/>
<path d="m92.692 124.79v7.1116h22.097v-7.1116z" fill="#2d9449" fill-rule="evenodd"/>
<path transform="matrix(.26458 0 0 .26458 30.063 103.35)" d="m236.39 81.036c0-0.15999 0.15999-0.31998 0.31999-0.31998h83.516c0.17999 0 0.31998 0.15999 0.31998 0.31998v26.879c0 0.18-0.13999 0.31999-0.31998 0.31999h-83.516c-0.16 0-0.31999-0.13999-0.31999-0.31999zm0.63997 26.879-0.31998-0.31998h83.516l-0.31999 0.31998v-26.879l0.31999 0.31998h-83.516l0.31998-0.31998z" clip-path="url(#a)" fill="#1e6c33" stroke="#1e6c33" stroke-linejoin="bevel" stroke-width=".15999px"/>
<path d="m92.692 131.9v7.1116h22.097v-7.1116z" fill="#e26001" fill-rule="evenodd"/>
<path transform="matrix(.26458 0 0 .26458 30.063 103.35)" d="m236.39 107.91c0-0.15999 0.15999-0.31998 0.31999-0.31998h83.516c0.17999 0 0.31998 0.15999 0.31998 0.31998v26.879c0 0.17999-0.13999 0.31998-0.31998 0.31998h-83.516c-0.16 0-0.31999-0.13999-0.31999-0.31998zm0.63997 26.879-0.31998-0.31998h83.516l-0.31999 0.31998v-26.879l0.31999 0.31999h-83.516l0.31998-0.31999z" clip-path="url(#a)" fill="#a64400" stroke="#a64400" stroke-linejoin="bevel" stroke-width=".15999px"/>
<path d="m92.692 139.01v7.1116h11.048v-7.1116z" fill="#3da7af" fill-rule="evenodd"/>
<path transform="matrix(.26458 0 0 .26458 30.063 103.35)" d="m236.39 134.79c0-0.16999 0.14999-0.31998 0.31999-0.31998h41.758c0.17999 0 0.31998 0.14999 0.31998 0.31998v26.879c0 0.17999-0.13999 0.31999-0.31998 0.31999h-41.758c-0.17 0-0.31999-0.14-0.31999-0.31999zm0.63997 26.879-0.31998-0.31998h41.758l-0.31999 0.31998v-26.879l0.31999 0.31998h-41.758l0.31998-0.31998z" clip-path="url(#a)" fill="#2a7a80" stroke="#2a7a80" stroke-linejoin="bevel" stroke-width=".15999px"/>
<path d="m92.692 146.12v7.1116h22.097v-7.1116z" fill="#8eacf7" fill-rule="evenodd"/>
<path transform="matrix(.26458 0 0 .26458 30.063 103.35)" d="m236.39 161.67c0-0.15999 0.15999-0.31998 0.31999-0.31998h83.516c0.17999 0 0.31998 0.15999 0.31998 0.31998v26.879c0 0.17999-0.13999 0.31998-0.31998 0.31998h-83.516c-0.16 0-0.31999-0.13999-0.31999-0.31998zm0.63997 26.879-0.31998-0.31999h83.516l-0.31999 0.31999v-26.879l0.31999 0.31999h-83.516l0.31998-0.31999z" clip-path="url(#a)" fill="#8999c8" stroke="#8999c8" stroke-linejoin="bevel" stroke-width=".15999px"/>
<path d="m92.692 153.24v7.1116h11.048v-7.1116z" fill="#ef8f8b" fill-rule="evenodd"/>
<path transform="matrix(.26458 0 0 .26458 30.063 103.35)" d="m236.39 188.55c0-0.16999 0.14999-0.31999 0.31999-0.31999h41.758c0.17999 0 0.31998 0.15 0.31998 0.31999v26.879c0 0.17999-0.13999 0.31998-0.31998 0.31998h-41.758c-0.17 0-0.31999-0.13999-0.31999-0.31998zm0.63997 26.879-0.31998-0.31998h41.758l-0.31999 0.31998v-26.879l0.31999 0.31998h-41.758l0.31998-0.31998z" clip-path="url(#a)" fill="#c38987" stroke="#c38987" stroke-linejoin="bevel" stroke-width=".15999px"/>
<path d="m92.692 160.35v7.0693h11.048v-7.0693z" fill="#fcce84" fill-rule="evenodd"/>
<path transform="matrix(.26458 0 0 .26458 30.063 103.35)" d="m236.39 215.43c0-0.16999 0.14999-0.31998 0.31999-0.31998h41.758c0.17999 0 0.31998 0.14999 0.31998 0.31998v26.719c0 0.17999-0.13999 0.31999-0.31998 0.31999h-41.758c-0.17 0-0.31999-0.14-0.31999-0.31999zm0.63997 26.719-0.31998-0.31998h41.758l-0.31999 0.31998v-26.719l0.31999 0.31998h-41.758l0.31998-0.31998z" clip-path="url(#a)" fill="#ccae84" stroke="#ccae84" stroke-linejoin="bevel" stroke-width=".15999px"/>
<path d="m92.692 167.33h77.297v0.16933h-77.297z" fill="#898989" stroke="#898989" stroke-linejoin="bevel" stroke-width=".042331px"/>
<path d="m92.777 167.42v1.1006h-0.16932v-1.1006zm11.048 0v1.1006h-0.16933v-1.1006zm11.048 0v1.1006h-0.16933v-1.1006zm11.006 0v1.1006h-0.16932v-1.1006zm11.048 0v1.1006h-0.16933v-1.1006zm11.048 0v1.1006h-0.16932v-1.1006zm11.048 0v1.1006h-0.16932v-1.1006zm11.048 0v1.1006h-0.16933v-1.1006z" fill="#898989" stroke="#898989" stroke-linejoin="bevel" stroke-width=".042331px"/>
<path d="m92.777 103.5v63.92h-0.16932v-63.92z" fill="#898989" stroke="#898989" stroke-linejoin="bevel" stroke-width=".042331px"/>
<path d="m91.634 103.41h1.0583v0.16933h-1.0583zm0 7.1116h1.0583v0.16933h-1.0583zm0 7.0693h1.0583v0.16933h-1.0583zm0 7.1116h1.0583v0.16932h-1.0583zm0 7.1116h1.0583v0.16932h-1.0583zm0 7.1116h1.0583v0.16932h-1.0583zm0 7.1116h1.0583v0.16933h-1.0583zm0 7.1116h1.0583v0.16933h-1.0583zm0 7.1116h1.0583v0.16932h-1.0583zm0 7.0693h1.0583v0.16933h-1.0583z" fill="#898989" stroke="#898989" stroke-linejoin="bevel" stroke-width=".042331px"/>
<text x="154.89032" y="108.34601" fill="#000000" font-family="Arial" font-size="3.5057px" font-weight="400" letter-spacing="0px" stroke-width=".26458" word-spacing="0px" style="line-height:125%" xml:space="preserve"><tspan x="154.89032" y="108.34601" stroke-width=".26458"><tspan dx="0" dy="0" fill="#000000" font-family="Arial" font-size="3.5057px" font-weight="400" stroke-width=".26458">6</tspan></tspan></text>
<text x="154.89032" y="115.45169" fill="#000000" font-family="Arial" font-size="3.5057px" font-weight="400" letter-spacing="0px" stroke-width=".26458" word-spacing="0px" style="line-height:125%" xml:space="preserve"><tspan x="154.89032" y="115.45169" stroke-width=".26458"><tspan dx="0" dy="0" fill="#000000" font-family="Arial" font-size="3.5057px" font-weight="400" stroke-width=".26458">6</tspan></tspan></text>
<text x="154.89032" y="122.55737" fill="#000000" font-family="Arial" font-size="3.5057px" font-weight="400" letter-spacing="0px" stroke-width=".26458" word-spacing="0px" style="line-height:125%" xml:space="preserve"><tspan x="154.89032" y="122.55737" stroke-width=".26458"><tspan dx="0" dy="0" fill="#000000" font-family="Arial" font-size="3.5057px" font-weight="400" stroke-width=".26458">6</tspan></tspan></text>
<text x="110.70991" y="129.66306" fill="#000000" font-family="Arial" font-size="3.5057px" font-weight="400" letter-spacing="0px" stroke-width=".26458" word-spacing="0px" style="line-height:125%" xml:space="preserve"><tspan x="110.70991" y="129.66306" stroke-width=".26458"><tspan dx="0" dy="0" fill="#000000" font-family="Arial" font-size="3.5057px" font-weight="400" stroke-width=".26458">2</tspan></tspan></text>
<text x="110.70991" y="136.76872" fill="#000000" font-family="Arial" font-size="3.5057px" font-weight="400" letter-spacing="0px" stroke-width=".26458" word-spacing="0px" style="line-height:125%" xml:space="preserve"><tspan x="110.70991" y="136.76872" stroke-width=".26458"><tspan dx="0" dy="0" fill="#000000" font-family="Arial" font-size="3.5057px" font-weight="400" stroke-width=".26458">2</tspan></tspan></text>
<text x="99.664803" y="143.8744" fill="#000000" font-family="Arial" font-size="3.5057px" font-weight="400" letter-spacing="0px" stroke-width=".26458" word-spacing="0px" style="line-height:125%" xml:space="preserve"><tspan x="99.664803" y="143.8744" stroke-width=".26458"><tspan dx="0" dy="0" fill="#000000" font-family="Arial" font-size="3.5057px" font-weight="400" stroke-width=".26458">1</tspan></tspan></text>
<text x="110.70991" y="150.98009" fill="#000000" font-family="Arial" font-size="3.5057px" font-weight="400" letter-spacing="0px" stroke-width=".26458" word-spacing="0px" style="line-height:125%" xml:space="preserve"><tspan x="110.70991" y="150.98009" stroke-width=".26458"><tspan dx="0" dy="0" fill="#000000" font-family="Arial" font-size="3.5057px" font-weight="400" stroke-width=".26458">2</tspan></tspan></text>
<text x="99.664803" y="158.08578" fill="#000000" font-family="Arial" font-size="3.5057px" font-weight="400" letter-spacing="0px" stroke-width=".26458" word-spacing="0px" style="line-height:125%" xml:space="preserve"><tspan x="99.664803" y="158.08578" stroke-width=".26458"><tspan dx="0" dy="0" fill="#000000" font-family="Arial" font-size="3.5057px" font-weight="400" stroke-width=".26458">1</tspan></tspan></text>
<text x="99.664803" y="165.19147" fill="#000000" font-family="Arial" font-size="3.5057px" font-weight="400" letter-spacing="0px" stroke-width=".26458" word-spacing="0px" style="line-height:125%" xml:space="preserve"><tspan x="99.664803" y="165.19147" stroke-width=".26458"><tspan dx="0" dy="0" fill="#000000" font-family="Arial" font-size="3.5057px" font-weight="400" stroke-width=".26458">1</tspan></tspan></text>
<text x="91.731026" y="172.77518" fill="#000000" font-family="Arial" font-size="3.5057px" font-weight="400" letter-spacing="0px" stroke-width=".26458" word-spacing="0px" style="line-height:125%" xml:space="preserve"><tspan x="91.731026" y="172.77518" stroke-width=".26458"><tspan dx="0" dy="0" fill="#000000" font-family="Arial" font-size="3.5057px" font-weight="400" stroke-width=".26458">0</tspan></tspan></text>
<text x="102.77615" y="172.77518" fill="#000000" font-family="Arial" font-size="3.5057px" font-weight="400" letter-spacing="0px" stroke-width=".26458" word-spacing="0px" style="line-height:125%" xml:space="preserve"><tspan x="102.77615" y="172.77518" stroke-width=".26458"><tspan dx="0" dy="0" fill="#000000" font-family="Arial" font-size="3.5057px" font-weight="400" stroke-width=".26458">1</tspan></tspan></text>
<text x="113.82124" y="172.77518" fill="#000000" font-family="Arial" font-size="3.5057px" font-weight="400" letter-spacing="0px" stroke-width=".26458" word-spacing="0px" style="line-height:125%" xml:space="preserve"><tspan x="113.82124" y="172.77518" stroke-width=".26458"><tspan dx="0" dy="0" fill="#000000" font-family="Arial" font-size="3.5057px" font-weight="400" stroke-width=".26458">2</tspan></tspan></text>
<text x="124.86637" y="172.77518" fill="#000000" font-family="Arial" font-size="3.5057px" font-weight="400" letter-spacing="0px" stroke-width=".26458" word-spacing="0px" style="line-height:125%" xml:space="preserve"><tspan x="124.86637" y="172.77518" stroke-width=".26458"><tspan dx="0" dy="0" fill="#000000" font-family="Arial" font-size="3.5057px" font-weight="400" stroke-width=".26458">3</tspan></tspan></text>
<text x="135.91145" y="172.77518" fill="#000000" font-family="Arial" font-size="3.5057px" font-weight="400" letter-spacing="0px" stroke-width=".26458" word-spacing="0px" style="line-height:125%" xml:space="preserve"><tspan x="135.91145" y="172.77518" stroke-width=".26458"><tspan dx="0" dy="0" fill="#000000" font-family="Arial" font-size="3.5057px" font-weight="400" stroke-width=".26458">4</tspan></tspan></text>
<text x="146.95656" y="172.77518" fill="#000000" font-family="Arial" font-size="3.5057px" font-weight="400" letter-spacing="0px" stroke-width=".26458" word-spacing="0px" style="line-height:125%" xml:space="preserve"><tspan x="146.95656" y="172.77518" stroke-width=".26458"><tspan dx="0" dy="0" fill="#000000" font-family="Arial" font-size="3.5057px" font-weight="400" stroke-width=".26458">5</tspan></tspan></text>
<text x="158.00166" y="172.77518" fill="#000000" font-family="Arial" font-size="3.5057px" font-weight="400" letter-spacing="0px" stroke-width=".26458" word-spacing="0px" style="line-height:125%" xml:space="preserve"><tspan x="158.00166" y="172.77518" stroke-width=".26458"><tspan dx="0" dy="0" fill="#000000" font-family="Arial" font-size="3.5057px" font-weight="400" stroke-width=".26458">6</tspan></tspan></text>
<text x="169.04678" y="172.77518" fill="#000000" font-family="Arial" font-size="3.5057px" font-weight="400" letter-spacing="0px" stroke-width=".26458" word-spacing="0px" style="line-height:125%" xml:space="preserve"><tspan x="169.04678" y="172.77518" stroke-width=".26458"><tspan dx="0" dy="0" fill="#000000" font-family="Arial" font-size="3.5057px" font-weight="400" stroke-width=".26458">7</tspan></tspan></text>
<text x="69.879051" y="108.17316" fill="#000000" font-family="Arial" font-size="3.5057px" font-weight="400" letter-spacing="0px" stroke-width=".26458" word-spacing="0px" style="line-height:125%" xml:space="preserve"><tspan x="69.879051" y="108.17316" stroke-width=".26458"><tspan dx="0" dy="0" fill="#000000" font-family="Arial" font-size="3.5057px" font-weight="400" stroke-width=".26458">English (EN)</tspan></tspan></text>
<text x="52.264095" y="113.2075" fill="#000000" font-family="Arial" font-size="3.5057px" font-weight="400" letter-spacing="0px" stroke-width=".26458" word-spacing="0px" style="line-height:125%" xml:space="preserve"><tspan x="52.264095" y="113.2075" stroke-width=".26458"><tspan dx="0" dy="0" fill="#000000" font-family="Arial" font-size="3.5057px" font-weight="400" stroke-width=".26458">International Translation</tspan></tspan></text>
<text x="68.704369" y="122.38453" fill="#000000" font-family="Arial" font-size="3.5057px" font-weight="400" letter-spacing="0px" stroke-width=".26458" word-spacing="0px" style="line-height:125%" xml:space="preserve"><tspan x="68.704369" y="122.38453" stroke-width=".26458"><tspan dx="0" dy="0" fill="#000000" font-family="Arial" font-size="3.5057px" font-weight="400" stroke-width=".26458">German (DE)</tspan></tspan></text>
<text x="70.665703" y="129.49022" fill="#000000" font-family="Arial" font-size="3.5057px" font-weight="400" letter-spacing="0px" stroke-width=".26458" word-spacing="0px" style="line-height:125%" xml:space="preserve"><tspan x="70.665703" y="129.49022" stroke-width=".26458"><tspan dx="0" dy="0" fill="#000000" font-family="Arial" font-size="3.5057px" font-weight="400" stroke-width=".26458">French (FR)</tspan></tspan></text>
<text x="68.894859" y="136.59586" fill="#000000" font-family="Arial" font-size="3.5057px" font-weight="400" letter-spacing="0px" stroke-width=".26458" word-spacing="0px" style="line-height:125%" xml:space="preserve"><tspan x="68.894859" y="136.59586" stroke-width=".26458"><tspan dx="0" dy="0" fill="#000000" font-family="Arial" font-size="3.5057px" font-weight="400" stroke-width=".26458">Spanish (ES)</tspan></tspan></text>
<text x="66.93351" y="143.70155" fill="#000000" font-family="Arial" font-size="3.5057px" font-weight="400" letter-spacing="0px" stroke-width=".26458" word-spacing="0px" style="line-height:125%" xml:space="preserve"><tspan x="66.93351" y="143.70155" stroke-width=".26458"><tspan dx="0" dy="0" fill="#000000" font-family="Arial" font-size="3.5057px" font-weight="400" stroke-width=".26458">Japanese (JP)</tspan></tspan></text>
<text x="73.79821" y="150.80724" fill="#000000" font-family="Arial" font-size="3.5057px" font-weight="400" letter-spacing="0px" stroke-width=".26458" word-spacing="0px" style="line-height:125%" xml:space="preserve"><tspan x="73.79821" y="150.80724" stroke-width=".26458"><tspan dx="0" dy="0" fill="#000000" font-family="Arial" font-size="3.5057px" font-weight="400" stroke-width=".26458">Italian (IT)</tspan></tspan></text>
<text x="72.425972" y="157.91292" fill="#000000" font-family="Arial" font-size="3.5057px" font-weight="400" letter-spacing="0px" stroke-width=".26458" word-spacing="0px" style="line-height:125%" xml:space="preserve"><tspan x="72.425972" y="157.91292" stroke-width=".26458"><tspan dx="0" dy="0" fill="#000000" font-family="Arial" font-size="3.5057px" font-weight="400" stroke-width=".26458">Greek (EL)</tspan></tspan></text>
<text x="70.461098" y="165.01862" fill="#000000" font-family="Arial" font-size="3.5057px" font-weight="400" letter-spacing="0px" stroke-width=".26458" word-spacing="0px" style="line-height:125%" xml:space="preserve"><tspan x="70.461098" y="165.01862" stroke-width=".26458"><tspan dx="0" dy="0" fill="#000000" font-family="Arial" font-size="3.5057px" font-weight="400" stroke-width=".26458">An unofficial</tspan></tspan></text>
<text x="68.986023" y="116.59901" fill="#000000" font-family="Arial" font-size="3.5057px" font-weight="400" letter-spacing="0px" stroke-width=".26458" word-spacing="0px" style="line-height:125%" xml:space="preserve"><tspan x="68.986023" y="116.59901" stroke-width=".26458"><tspan fill="#000000" font-family="Arial" font-size="3.5057px" font-weight="400" stroke-width=".26458">Archive (INT)</tspan></tspan></text>
</g>
</svg>
