<?xml version="1.0" encoding="UTF-8"?>
<svg width="356.35" height="362.33" version="1.1" viewBox="0 0 94.283 95.867" xmlns="http://www.w3.org/2000/svg" xmlns:cc="http://creativecommons.org/ns#" xmlns:dc="http://purl.org/dc/elements/1.1/" xmlns:rdf="http://www.w3.org/1999/02/22-rdf-syntax-ns#">
<defs>
<clipPath id="a">
<path d="m91.355 0.47998h250.23v332.78h-250.23z"/>
</clipPath>
</defs>
<metadata>
<rdf:RDF>
<cc:Work rdf:about="">
<dc:format>image/svg+xml</dc:format>
<dc:type rdf:resource="http://purl.org/dc/dcmitype/StillImage"/>
<dc:title/>
</cc:Work>
</rdf:RDF>
</metadata>
<path d="m25.243 1.4287v87.752h65.952v-87.752z" fill="#e7e7e7" fill-rule="evenodd"/>
<path d="m47.297 1.4287v87.752h-0.16932v-87.752zm21.97 0v87.752h-0.16933v-87.752zm22.012 0v87.752h-0.16933v-87.752z" fill="#898989" stroke="#898989" stroke-linejoin="bevel" stroke-width=".042331px"/>
<path d="m25.243 1.4287v5.4607h3.3018v-5.4607z" fill="#356dca" fill-rule="evenodd"/>
<path transform="matrix(.26458 0 0 .26458 1.0504 1.2806)" d="m91.115 0.55997c0-0.16999 0.14999-0.31998 0.31998-0.31998h12.479c0.17999 0 0.31999 0.14999 0.31999 0.31998v20.639c0 0.17999-0.14 0.31998-0.31999 0.31998h-12.479c-0.16999 0-0.31998-0.13999-0.31998-0.31998zm0.63997 20.639-0.31998-0.31998h12.479l-0.31998 0.31998v-20.639l0.31998 0.31998h-12.479l0.31998-0.31998z" clip-path="url(#a)" fill="#244e94" stroke="#244e94" stroke-linejoin="bevel" stroke-width=".15999px"/>
<path d="m25.243 6.8895v5.503h48.342v-5.503z" fill="#c1362a" fill-rule="evenodd"/>
<path transform="matrix(.26458 0 0 .26458 1.0504 1.2806)" d="m91.115 21.199c0-0.15999 0.15999-0.31998 0.31998-0.31998h182.71c0.17999 0 0.31998 0.15999 0.31998 0.31998v20.799c0 0.17999-0.13999 0.31998-0.31998 0.31998h-182.71c-0.15999 0-0.31998-0.13999-0.31998-0.31998zm0.63997 20.799-0.31998-0.31998h182.71l-0.31998 0.31998v-20.799l0.31998 0.31998h-182.71l0.31998-0.31998z" clip-path="url(#a)" fill="#8d251c" stroke="#8d251c" stroke-linejoin="bevel" stroke-width=".15999px"/>
<path d="m25.243 12.392v5.4607h7.7043v-5.4607z" fill="#cf9b03" fill-rule="evenodd"/>
<path transform="matrix(.26458 0 0 .26458 1.0504 1.2806)" d="m91.115 41.998c0-0.16999 0.14999-0.31998 0.31998-0.31998h29.118c0.17999 0 0.31998 0.14999 0.31998 0.31998v20.639c0 0.17999-0.13999 0.31998-0.31998 0.31998h-29.118c-0.16999 0-0.31998-0.13999-0.31998-0.31998zm0.63997 20.639-0.31998-0.31998h29.118l-0.31998 0.31998v-20.639l0.31998 0.31998h-29.118l0.31998-0.31998z" clip-path="url(#a)" fill="#987001" stroke="#987001" stroke-linejoin="bevel" stroke-width=".15999px"/>
<path d="m25.243 17.853v5.503h2.2012v-5.503z" fill="#298a43" fill-rule="evenodd"/>
<path transform="matrix(.26458 0 0 .26458 1.0504 1.2806)" d="m91.115 62.637c0-0.16999 0.14999-0.31998 0.31998-0.31998h8.3196c0.17999 0 0.31998 0.14999 0.31998 0.31998v20.799c0 0.17999-0.13999 0.31998-0.31998 0.31998h-8.3196c-0.16999 0-0.31998-0.13999-0.31998-0.31998zm0.63997 20.799-0.31998-0.31998h8.3196l-0.31998 0.31998v-20.799l0.31998 0.31998h-8.3196l0.31998-0.31998z" clip-path="url(#a)" fill="#1b642f" stroke="#1b642f" stroke-linejoin="bevel" stroke-width=".15999px"/>
<path d="m25.243 23.356v5.4607h1.1006v-5.4607z" fill="#d35901" fill-rule="evenodd"/>
<path transform="matrix(.26458 0 0 .26458 1.0504 1.2806)" d="m91.115 83.436c0-0.16999 0.14999-0.31998 0.31998-0.31998h4.1598c0.17999 0 0.31998 0.14999 0.31998 0.31998v20.639c0 0.18-0.13999 0.31999-0.31998 0.31999h-4.1598c-0.16999 0-0.31998-0.13999-0.31998-0.31999zm0.63997 20.639-0.31998-0.31998h4.1598l-0.31998 0.31998v-20.639l0.31998 0.31998h-4.1598l0.31998-0.31998z" clip-path="url(#a)" fill="#9a3f00" stroke="#9a3f00" stroke-linejoin="bevel" stroke-width=".15999px"/>
<path d="m25.243 28.817v5.503h8.8049v-5.503z" fill="#389ca3" fill-rule="evenodd"/>
<path transform="matrix(.26458 0 0 .26458 1.0504 1.2806)" d="m91.115 104.07c0-0.16999 0.14999-0.31998 0.31998-0.31998h33.278c0.17999 0 0.31999 0.14999 0.31999 0.31998v20.799c0 0.17999-0.14 0.31999-0.31999 0.31999h-33.278c-0.16999 0-0.31998-0.14-0.31998-0.31999zm0.63997 20.799-0.31998-0.31998h33.278l-0.31998 0.31998v-20.799l0.31998 0.31999h-33.278l0.31998-0.31999z" clip-path="url(#a)" fill="#277177" stroke="#277177" stroke-linejoin="bevel" stroke-width=".15999px"/>
<path d="m25.243 34.32v5.503h1.1006v-5.503z" fill="#4285f4" fill-rule="evenodd"/>
<path transform="matrix(.26458 0 0 .26458 1.0504 1.2806)" d="m91.115 124.87c0-0.16999 0.14999-0.31998 0.31998-0.31998h4.1598c0.17999 0 0.31998 0.14999 0.31998 0.31998v20.799c0 0.17999-0.13999 0.31999-0.31998 0.31999h-4.1598c-0.16999 0-0.31998-0.14-0.31998-0.31999zm0.63997 20.799-0.31998-0.31998h4.1598l-0.31998 0.31998v-20.799l0.31998 0.31999h-4.1598l0.31998-0.31999z" clip-path="url(#a)" fill="#2e60b3" stroke="#2e60b3" stroke-linejoin="bevel" stroke-width=".15999px"/>
<path d="m25.243 39.823v5.4607h1.1006v-5.4607z" fill="#ea4335" fill-rule="evenodd"/>
<path transform="matrix(.26458 0 0 .26458 1.0504 1.2806)" d="m91.115 145.67c0-0.16999 0.14999-0.31998 0.31998-0.31998h4.1598c0.17999 0 0.31998 0.14999 0.31998 0.31998v20.639c0 0.17999-0.13999 0.31999-0.31998 0.31999h-4.1598c-0.16999 0-0.31998-0.14-0.31998-0.31999zm0.63997 20.639-0.31998-0.31998h4.1598l-0.31998 0.31998v-20.639l0.31998 0.31999h-4.1598l0.31998-0.31999z" clip-path="url(#a)" fill="#ac2f24" stroke="#ac2f24" stroke-linejoin="bevel" stroke-width=".15999px"/>
<path d="m25.243 45.284v5.503h1.1006v-5.503z" fill="#fbbc04" fill-rule="evenodd"/>
<path transform="matrix(.26458 0 0 .26458 1.0504 1.2806)" d="m91.115 166.31c0-0.16999 0.14999-0.31998 0.31998-0.31998h4.1598c0.17999 0 0.31998 0.14999 0.31998 0.31998v20.799c0 0.17999-0.13999 0.31998-0.31998 0.31998h-4.1598c-0.16999 0-0.31998-0.13999-0.31998-0.31998zm0.63997 20.799-0.31998-0.31998h4.1598l-0.31998 0.31998v-20.799l0.31998 0.31999h-4.1598l0.31998-0.31999z" clip-path="url(#a)" fill="#b98902" stroke="#b98902" stroke-linejoin="bevel" stroke-width=".15999px"/>
<path d="m25.243 50.787v5.4607h1.1006v-5.4607z" fill="#34a853" fill-rule="evenodd"/>
<path transform="matrix(.26458 0 0 .26458 1.0504 1.2806)" d="m91.115 187.11c0-0.16999 0.14999-0.31998 0.31998-0.31998h4.1598c0.17999 0 0.31998 0.14999 0.31998 0.31998v20.639c0 0.17999-0.13999 0.31998-0.31998 0.31998h-4.1598c-0.16999 0-0.31998-0.13999-0.31998-0.31998zm0.63997 20.639-0.31998-0.31998h4.1598l-0.31998 0.31998v-20.639l0.31998 0.31998h-4.1598l0.31998-0.31998z" clip-path="url(#a)" fill="#237a3b" stroke="#237a3b" stroke-linejoin="bevel" stroke-width=".15999px"/>
<path d="m25.243 56.247v5.503h2.2012v-5.503z" fill="#ff6d01" fill-rule="evenodd"/>
<path transform="matrix(.26458 0 0 .26458 1.0504 1.2806)" d="m91.115 207.75c0-0.16999 0.14999-0.31998 0.31998-0.31998h8.3196c0.17999 0 0.31998 0.14999 0.31998 0.31998v20.799c0 0.17999-0.13999 0.31998-0.31998 0.31998h-8.3196c-0.16999 0-0.31998-0.13999-0.31998-0.31998zm0.63997 20.799-0.31998-0.31998h8.3196l-0.31998 0.31998v-20.799l0.31998 0.31998h-8.3196l0.31998-0.31998z" clip-path="url(#a)" fill="#bc4e00" stroke="#bc4e00" stroke-linejoin="bevel" stroke-width=".15999px"/>
<path d="m25.243 61.751v5.4607h1.1006v-5.4607z" fill="#46bdc6" fill-rule="evenodd"/>
<path transform="matrix(.26458 0 0 .26458 1.0504 1.2806)" d="m91.115 228.55c0-0.16999 0.14999-0.31998 0.31998-0.31998h4.1598c0.17999 0 0.31998 0.14999 0.31998 0.31998v20.639c0 0.17999-0.13999 0.31998-0.31998 0.31998h-4.1598c-0.16999 0-0.31998-0.13999-0.31998-0.31998zm0.63997 20.639-0.31998-0.31999h4.1598l-0.31998 0.31999v-20.639l0.31998 0.31998h-4.1598l0.31998-0.31998z" clip-path="url(#a)" fill="#318a91" stroke="#318a91" stroke-linejoin="bevel" stroke-width=".15999px"/>
<path d="m25.243 67.211v5.503h3.3018v-5.503z" fill="#a7bcf8" fill-rule="evenodd"/>
<path transform="matrix(.26458 0 0 .26458 1.0504 1.2806)" d="m91.115 249.19c0-0.16999 0.14999-0.31999 0.31998-0.31999h12.479c0.17999 0 0.31999 0.15 0.31999 0.31999v20.799c0 0.17999-0.14 0.31998-0.31999 0.31998h-12.479c-0.16999 0-0.31998-0.13999-0.31998-0.31998zm0.63997 20.799-0.31998-0.31999h12.479l-0.31998 0.31999v-20.799l0.31998 0.31998h-12.479l0.31998-0.31998z" clip-path="url(#a)" fill="#a3afd2" stroke="#a3afd2" stroke-linejoin="bevel" stroke-width=".15999px"/>
<path d="m25.243 72.714v5.4607h1.1006v-5.4607z" fill="#f2a7a4" fill-rule="evenodd"/>
<path transform="matrix(.26458 0 0 .26458 1.0504 1.2806)" d="m91.115 269.99c0-0.16999 0.14999-0.31999 0.31998-0.31999h4.1598c0.17999 0 0.31998 0.15 0.31998 0.31999v20.639c0 0.17999-0.13999 0.31998-0.31998 0.31998h-4.1598c-0.16999 0-0.31998-0.13999-0.31998-0.31998zm0.63997 20.639-0.31998-0.31999h4.1598l-0.31998 0.31999v-20.639l0.31998 0.31998h-4.1598l0.31998-0.31998z" clip-path="url(#a)" fill="#cea3a2" stroke="#cea3a2" stroke-linejoin="bevel" stroke-width=".15999px"/>
<path d="m25.243 78.175v5.503h1.1006v-5.503z" fill="#fcd7a0" fill-rule="evenodd"/>
<path transform="matrix(.26458 0 0 .26458 1.0504 1.2806)" d="m91.115 290.62c0-0.17 0.14999-0.31999 0.31998-0.31999h4.1598c0.17999 0 0.31998 0.14999 0.31998 0.31999v20.799c0 0.18-0.13999 0.31999-0.31998 0.31999h-4.1598c-0.16999 0-0.31998-0.13999-0.31998-0.31999zm0.63997 20.799-0.31998-0.31998h4.1598l-0.31998 0.31998v-20.799l0.31998 0.31998h-4.1598l0.31998-0.31998z" clip-path="url(#a)" fill="#d5bea0" stroke="#d5bea0" stroke-linejoin="bevel" stroke-width=".15999px"/>
<path d="m25.243 83.678v5.503h5.503v-5.503z" fill="#a4ccab" fill-rule="evenodd"/>
<path transform="matrix(.26458 0 0 .26458 1.0504 1.2806)" d="m91.115 311.42c0-0.15999 0.15999-0.31998 0.31998-0.31998h20.799c0.17999 0 0.31998 0.15999 0.31998 0.31998v20.799c0 0.18-0.13999 0.31999-0.31998 0.31999h-20.799c-0.15999 0-0.31998-0.13999-0.31998-0.31999zm0.63997 20.799-0.31998-0.31998h20.799l-0.31998 0.31998v-20.799l0.31998 0.31999h-20.799l0.31998-0.31999z" clip-path="url(#a)" fill="#a2b8a5" stroke="#a2b8a5" stroke-linejoin="bevel" stroke-width=".15999px"/>
<path d="m25.243 89.096h65.952v0.16932h-65.952z" fill="#898989" stroke="#898989" stroke-linejoin="bevel" stroke-width=".042331px"/>
<path d="m25.327 89.181v1.0583h-0.16932v-1.0583zm21.97 0v1.0583h-0.16932v-1.0583zm21.97 0v1.0583h-0.16933v-1.0583zm22.012 0v1.0583h-0.16933v-1.0583z" fill="#898989" stroke="#898989" stroke-linejoin="bevel" stroke-width=".042331px"/>
<path d="m25.327 1.4287v87.752h-0.16932v-87.752z" fill="#898989" stroke="#898989" stroke-linejoin="bevel" stroke-width=".042331px"/>
<path d="m24.184 1.3441h1.0583v0.16932h-1.0583zm0 5.4607h1.0583v0.16932h-1.0583zm0 5.503h1.0583v0.16932h-1.0583zm0 5.4607h1.0583v0.16932h-1.0583zm0 5.503h1.0583v0.16932h-1.0583zm0 5.4607h1.0583v0.16932h-1.0583zm0 5.503h1.0583v0.16932h-1.0583zm0 5.503h1.0583v0.16933h-1.0583zm0 5.4607h1.0583v0.16932h-1.0583zm0 5.503h1.0583v0.16932h-1.0583zm0 5.4607h1.0583v0.16932h-1.0583zm0 5.503h1.0583v0.16932h-1.0583zm0 5.4607h1.0583v0.16932h-1.0583zm0 5.503h1.0583v0.16932h-1.0583zm0 5.4607h1.0583v0.16932h-1.0583zm0 5.503h1.0583v0.16933h-1.0583zm0 5.503h1.0583v0.16932h-1.0583z" fill="#898989" stroke="#898989" stroke-linejoin="bevel" stroke-width=".042331px"/>
<text x="29.617388" y="5.8159261" fill="#000000" font-family="Arial" font-size="3.5057px" font-weight="400" letter-spacing="0px" stroke-width=".26458" word-spacing="0px" style="line-height:125%" xml:space="preserve"><tspan x="29.617388" y="5.8159261" stroke-width=".26458"><tspan dx="0" dy="0" fill="#000000" font-family="Arial" font-size="3.5057px" font-weight="400" stroke-width=".26458">3</tspan></tspan></text>
<text x="67.575806" y="10.947542" fill="#000000" font-family="Arial" font-size="3.5057px" font-weight="400" letter-spacing="0px" stroke-width=".26458" word-spacing="0px" style="line-height:125%" xml:space="preserve"><tspan x="67.575806" y="10.947542" stroke-width=".26458"><tspan dx="0" dy="0" fill="#000000" font-family="Arial" font-size="3.5057px" font-weight="400" stroke-width=".26458">44</tspan></tspan></text>
<text x="28.874285" y="16.431915" fill="#000000" font-family="Arial" font-size="3.5057px" font-weight="400" letter-spacing="0px" stroke-width=".26458" word-spacing="0px" style="line-height:125%" xml:space="preserve"><tspan x="28.874285" y="16.431915" stroke-width=".26458"><tspan dx="0" dy="0" fill="#000000" font-family="Arial" font-size="3.5057px" font-weight="400" stroke-width=".26458">7</tspan></tspan></text>
<text x="27.981052" y="21.916235" fill="#000000" font-family="Arial" font-size="3.5057px" font-weight="400" letter-spacing="0px" stroke-width=".26458" word-spacing="0px" style="line-height:125%" xml:space="preserve"><tspan x="27.981052" y="21.916235" stroke-width=".26458"><tspan dx="0" dy="0" fill="#000000" font-family="Arial" font-size="3.5057px" font-weight="400" stroke-width=".26458">2</tspan></tspan></text>
<text x="27.377085" y="27.400637" fill="#000000" font-family="Arial" font-size="3.5057px" font-weight="400" letter-spacing="0px" stroke-width=".26458" word-spacing="0px" style="line-height:125%" xml:space="preserve"><tspan x="27.377085" y="27.400637" stroke-width=".26458"><tspan dx="0" dy="0" fill="#000000" font-family="Arial" font-size="3.5057px" font-weight="400" stroke-width=".26458">1</tspan></tspan></text>
<text x="29.973085" y="32.884987" fill="#000000" font-family="Arial" font-size="3.5057px" font-weight="400" letter-spacing="0px" stroke-width=".26458" word-spacing="0px" style="line-height:125%" xml:space="preserve"><tspan x="29.973085" y="32.884987" stroke-width=".26458"><tspan dx="0" dy="0" fill="#000000" font-family="Arial" font-size="3.5057px" font-weight="400" stroke-width=".26458">8</tspan></tspan></text>
<text x="27.377085" y="38.369362" fill="#000000" font-family="Arial" font-size="3.5057px" font-weight="400" letter-spacing="0px" stroke-width=".26458" word-spacing="0px" style="line-height:125%" xml:space="preserve"><tspan x="27.377085" y="38.369362" stroke-width=".26458"><tspan dx="0" dy="0" fill="#000000" font-family="Arial" font-size="3.5057px" font-weight="400" stroke-width=".26458">1</tspan></tspan></text>
<text x="27.377085" y="43.853706" fill="#000000" font-family="Arial" font-size="3.5057px" font-weight="400" letter-spacing="0px" stroke-width=".26458" word-spacing="0px" style="line-height:125%" xml:space="preserve"><tspan x="27.377085" y="43.853706" stroke-width=".26458"><tspan dx="0" dy="0" fill="#000000" font-family="Arial" font-size="3.5057px" font-weight="400" stroke-width=".26458">1</tspan></tspan></text>
<text x="27.377085" y="49.338081" fill="#000000" font-family="Arial" font-size="3.5057px" font-weight="400" letter-spacing="0px" stroke-width=".26458" word-spacing="0px" style="line-height:125%" xml:space="preserve"><tspan x="27.377085" y="49.338081" stroke-width=".26458"><tspan dx="0" dy="0" fill="#000000" font-family="Arial" font-size="3.5057px" font-weight="400" stroke-width=".26458">1</tspan></tspan></text>
<text x="27.377085" y="54.822456" fill="#000000" font-family="Arial" font-size="3.5057px" font-weight="400" letter-spacing="0px" stroke-width=".26458" word-spacing="0px" style="line-height:125%" xml:space="preserve"><tspan x="27.377085" y="54.822456" stroke-width=".26458"><tspan dx="0" dy="0" fill="#000000" font-family="Arial" font-size="3.5057px" font-weight="400" stroke-width=".26458">1</tspan></tspan></text>
<text x="27.545885" y="60.306774" fill="#000000" font-family="Arial" font-size="3.5057px" font-weight="400" letter-spacing="0px" stroke-width=".26458" word-spacing="0px" style="line-height:125%" xml:space="preserve"><tspan x="27.545885" y="60.306774" stroke-width=".26458"><tspan dx="0" dy="0" fill="#000000" font-family="Arial" font-size="3.5057px" font-weight="400" stroke-width=".26458">2</tspan></tspan></text>
<text x="27.377085" y="65.791176" fill="#000000" font-family="Arial" font-size="3.5057px" font-weight="400" letter-spacing="0px" stroke-width=".26458" word-spacing="0px" style="line-height:125%" xml:space="preserve"><tspan x="27.377085" y="65.791176" stroke-width=".26458"><tspan dx="0" dy="0" fill="#000000" font-family="Arial" font-size="3.5057px" font-weight="400" stroke-width=".26458">1</tspan></tspan></text>
<text x="29.617388" y="71.275497" fill="#000000" font-family="Arial" font-size="3.5057px" font-weight="400" letter-spacing="0px" stroke-width=".26458" word-spacing="0px" style="line-height:125%" xml:space="preserve"><tspan x="29.617388" y="71.275497" stroke-width=".26458"><tspan dx="0" dy="0" fill="#000000" font-family="Arial" font-size="3.5057px" font-weight="400" stroke-width=".26458">3</tspan></tspan></text>
<text x="27.377085" y="76.759903" fill="#000000" font-family="Arial" font-size="3.5057px" font-weight="400" letter-spacing="0px" stroke-width=".26458" word-spacing="0px" style="line-height:125%" xml:space="preserve"><tspan x="27.377085" y="76.759903" stroke-width=".26458"><tspan dx="0" dy="0" fill="#000000" font-family="Arial" font-size="3.5057px" font-weight="400" stroke-width=".26458">1</tspan></tspan></text>
<text x="27.377085" y="82.244247" fill="#000000" font-family="Arial" font-size="3.5057px" font-weight="400" letter-spacing="0px" stroke-width=".26458" word-spacing="0px" style="line-height:125%" xml:space="preserve"><tspan x="27.377085" y="82.244247" stroke-width=".26458"><tspan dx="0" dy="0" fill="#000000" font-family="Arial" font-size="3.5057px" font-weight="400" stroke-width=".26458">1</tspan></tspan></text>
<text x="27.377085" y="87.728615" fill="#000000" font-family="Arial" font-size="3.5057px" font-weight="400" letter-spacing="0px" stroke-width=".26458" word-spacing="0px" style="line-height:125%" xml:space="preserve"><tspan x="27.377085" y="87.728615" stroke-width=".26458"><tspan dx="0" dy="0" fill="#000000" font-family="Arial" font-size="3.5057px" font-weight="400" stroke-width=".26458">5</tspan></tspan></text>
<text x="24.279867" y="94.501671" fill="#000000" font-family="Arial" font-size="3.5057px" font-weight="400" letter-spacing="0px" stroke-width=".26458" word-spacing="0px" style="line-height:125%" xml:space="preserve"><tspan x="24.279867" y="94.501671" stroke-width=".26458"><tspan dx="0" dy="0" fill="#000000" font-family="Arial" font-size="3.5057px" font-weight="400" stroke-width=".26458">0</tspan></tspan></text>
<text x="45.275303" y="94.501671" fill="#000000" font-family="Arial" font-size="3.5057px" font-weight="400" letter-spacing="0px" stroke-width=".26458" word-spacing="0px" style="line-height:125%" xml:space="preserve"><tspan x="45.275303" y="94.501671" stroke-width=".26458"><tspan dx="0" dy="0" fill="#000000" font-family="Arial" font-size="3.5057px" font-weight="400" stroke-width=".26458">20</tspan></tspan></text>
<text x="67.251442" y="94.501671" fill="#000000" font-family="Arial" font-size="3.5057px" font-weight="400" letter-spacing="0px" stroke-width=".26458" word-spacing="0px" style="line-height:125%" xml:space="preserve"><tspan x="67.251442" y="94.501671" stroke-width=".26458"><tspan dx="0" dy="0" fill="#000000" font-family="Arial" font-size="3.5057px" font-weight="400" stroke-width=".26458">40</tspan></tspan></text>
<text x="89.227547" y="94.501671" fill="#000000" font-family="Arial" font-size="3.5057px" font-weight="400" letter-spacing="0px" stroke-width=".26458" word-spacing="0px" style="line-height:125%" xml:space="preserve"><tspan x="89.227547" y="94.501671" stroke-width=".26458"><tspan dx="0" dy="0" fill="#000000" font-family="Arial" font-size="3.5057px" font-weight="400" stroke-width=".26458">60</tspan></tspan></text>
<text x="9.285552" y="5.2903428" fill="#000000" font-family="Arial" font-size="3.5057px" font-weight="400" letter-spacing="0px" stroke-width=".26458" word-spacing="0px" style="line-height:125%" xml:space="preserve"><tspan x="9.285552" y="5.2903428" stroke-width=".26458"><tspan dx="0" dy="0" fill="#000000" font-family="Arial" font-size="3.5057px" font-weight="400" stroke-width=".26458">Deutsch</tspan></tspan></text>
<text x="8.8939886" y="10.77469" fill="#000000" font-family="Arial" font-size="3.5057px" font-weight="400" letter-spacing="0px" stroke-width=".26458" word-spacing="0px" style="line-height:125%" xml:space="preserve"><tspan x="8.8939886" y="10.77469" stroke-width=".26458"><tspan dx="0" dy="0" fill="#000000" font-family="Arial" font-size="3.5057px" font-weight="400" stroke-width=".26458">Englisch</tspan></tspan></text>
<text x="3.2110434" y="16.259064" fill="#000000" font-family="Arial" font-size="3.5057px" font-weight="400" letter-spacing="0px" stroke-width=".26458" word-spacing="0px" style="line-height:125%" xml:space="preserve"><tspan x="3.2110434" y="16.259064" stroke-width=".26458"><tspan dx="0" dy="0" fill="#000000" font-family="Arial" font-size="3.5057px" font-weight="400" stroke-width=".26458">Französisch</tspan></tspan></text>
<text x="6.5410872" y="21.74341" fill="#000000" font-family="Arial" font-size="3.5057px" font-weight="400" letter-spacing="0px" stroke-width=".26458" word-spacing="0px" style="line-height:125%" xml:space="preserve"><tspan x="6.5410872" y="21.74341" stroke-width=".26458"><tspan dx="0" dy="0" fill="#000000" font-family="Arial" font-size="3.5057px" font-weight="400" stroke-width=".26458">Italienisch</tspan></tspan></text>
<text x="6.3435431" y="27.227785" fill="#000000" font-family="Arial" font-size="3.5057px" font-weight="400" letter-spacing="0px" stroke-width=".26458" word-spacing="0px" style="line-height:125%" xml:space="preserve"><tspan x="6.3435431" y="27.227785" stroke-width=".26458"><tspan dx="0" dy="0" fill="#000000" font-family="Arial" font-size="3.5057px" font-weight="400" stroke-width=".26458">Japanisch</tspan></tspan></text>
<text x="12.6156" y="32.712162" fill="#000000" font-family="Arial" font-size="3.5057px" font-weight="400" letter-spacing="0px" stroke-width=".26458" word-spacing="0px" style="line-height:125%" xml:space="preserve"><tspan x="12.6156" y="32.712162" stroke-width=".26458"><tspan dx="0" dy="0" fill="#000000" font-family="Arial" font-size="3.5057px" font-weight="400" stroke-width=".26458">Latein</tspan></tspan></text>
<text x="8.3048811" y="38.19651" fill="#000000" font-family="Arial" font-size="3.5057px" font-weight="400" letter-spacing="0px" stroke-width=".26458" word-spacing="0px" style="line-height:125%" xml:space="preserve"><tspan x="8.3048811" y="38.19651" stroke-width=".26458"><tspan dx="0" dy="0" fill="#000000" font-family="Arial" font-size="3.5057px" font-weight="400" stroke-width=".26458">Litauisch</tspan></tspan></text>
<text x="4.5797453" y="43.680885" fill="#000000" font-family="Arial" font-size="3.5057px" font-weight="400" letter-spacing="0px" stroke-width=".26458" word-spacing="0px" style="line-height:125%" xml:space="preserve"><tspan x="4.5797453" y="43.680885" stroke-width=".26458"><tspan dx="0" dy="0" fill="#000000" font-family="Arial" font-size="3.5057px" font-weight="400" stroke-width=".26458">Koreanisch</tspan></tspan></text>
<text x="8.8939886" y="49.165234" fill="#000000" font-family="Arial" font-size="3.5057px" font-weight="400" letter-spacing="0px" stroke-width=".26458" word-spacing="0px" style="line-height:125%" xml:space="preserve"><tspan x="8.8939886" y="49.165234" stroke-width=".26458"><tspan dx="0" dy="0" fill="#000000" font-family="Arial" font-size="3.5057px" font-weight="400" stroke-width=".26458">Polnisch</tspan></tspan></text>
<text x="1.0521574" y="54.649609" fill="#000000" font-family="Arial" font-size="3.5057px" font-weight="400" letter-spacing="0px" stroke-width=".26458" word-spacing="0px" style="line-height:125%" xml:space="preserve"><tspan x="1.0521574" y="54.649609" stroke-width=".26458"><tspan dx="0" dy="0" fill="#000000" font-family="Arial" font-size="3.5057px" font-weight="400" stroke-width=".26458">Portugiesisch</tspan></tspan></text>
<text x="7.9168463" y="60.133953" fill="#000000" font-family="Arial" font-size="3.5057px" font-weight="400" letter-spacing="0px" stroke-width=".26458" word-spacing="0px" style="line-height:125%" xml:space="preserve"><tspan x="7.9168463" y="60.133953" stroke-width=".26458"><tspan dx="0" dy="0" fill="#000000" font-family="Arial" font-size="3.5057px" font-weight="400" stroke-width=".26458">Russisch</tspan></tspan></text>
<text x="4.5832739" y="65.618332" fill="#000000" font-family="Arial" font-size="3.5057px" font-weight="400" letter-spacing="0px" stroke-width=".26458" word-spacing="0px" style="line-height:125%" xml:space="preserve"><tspan x="4.5832739" y="65.618332" stroke-width=".26458"><tspan dx="0" dy="0" fill="#000000" font-family="Arial" font-size="3.5057px" font-weight="400" stroke-width=".26458">Slowakisch</tspan></tspan></text>
<text x="7.7157736" y="71.102699" fill="#000000" font-family="Arial" font-size="3.5057px" font-weight="400" letter-spacing="0px" stroke-width=".26458" word-spacing="0px" style="line-height:125%" xml:space="preserve"><tspan x="7.7157736" y="71.102699" stroke-width=".26458"><tspan dx="0" dy="0" fill="#000000" font-family="Arial" font-size="3.5057px" font-weight="400" stroke-width=".26458">Spanisch</tspan></tspan></text>
<text x="2.6219358" y="76.587051" fill="#000000" font-family="Arial" font-size="3.5057px" font-weight="400" letter-spacing="0px" stroke-width=".26458" word-spacing="0px" style="line-height:125%" xml:space="preserve"><tspan x="2.6219358" y="76.587051" stroke-width=".26458"><tspan dx="0" dy="0" fill="#000000" font-family="Arial" font-size="3.5057px" font-weight="400" stroke-width=".26458">Tschechisch</tspan></tspan></text>
<text x="8.8975172" y="82.071426" fill="#000000" font-family="Arial" font-size="3.5057px" font-weight="400" letter-spacing="0px" stroke-width=".26458" word-spacing="0px" style="line-height:125%" xml:space="preserve"><tspan x="8.8975172" y="82.071426" stroke-width=".26458"><tspan dx="0" dy="0" fill="#000000" font-family="Arial" font-size="3.5057px" font-weight="400" stroke-width=".26458">Türkisch</tspan></tspan></text>
<text x="13.204703" y="87.555771" fill="#000000" font-family="Arial" font-size="3.5057px" font-weight="400" letter-spacing="0px" stroke-width=".26458" word-spacing="0px" style="line-height:125%" xml:space="preserve"><tspan x="13.204703" y="87.555771" stroke-width=".26458"><tspan dx="0" dy="0" fill="#000000" font-family="Arial" font-size="3.5057px" font-weight="400" stroke-width=".26458">Keine</tspan></tspan></text>
</svg>
