<?xml version="1.0" encoding="UTF-8"?>
<svg width="149.83mm" height="108.1mm" version="1.1" viewBox="0 0 149.83 108.1" xmlns="http://www.w3.org/2000/svg" xmlns:cc="http://creativecommons.org/ns#" xmlns:dc="http://purl.org/dc/elements/1.1/" xmlns:rdf="http://www.w3.org/1999/02/22-rdf-syntax-ns#">
<defs>
<clipPath id="a">
<path d="m303.34 0.47998h220.47v351.18h-220.47z"/>
</clipPath>
</defs>
<metadata>
<rdf:RDF>
<cc:Work rdf:about="">
<dc:format>image/svg+xml</dc:format>
<dc:type rdf:resource="http://purl.org/dc/dcmitype/StillImage"/>
<dc:title/>
</cc:Work>
</rdf:RDF>
</metadata>
<g transform="translate(-213.1 22.3)">
<path d="m298.06-17.194v92.621h58.078v-92.621z" fill="#e7e7e7" fill-rule="evenodd"/>
<path d="m317.49-17.194v92.621h-0.16932v-92.621zm19.388 0v92.621h-0.16933v-92.621zm19.345 0v92.621h-0.16932v-92.621z" fill="#898989" stroke="#898989" stroke-linejoin="bevel" stroke-width=".042331px"/>
<path transform="matrix(.26458 0 0 .26458 217.82 -17.342)" d="m303.26 0.55997v31.838h175.51v-31.838z" clip-path="url(#a)" fill="#3975d8" fill-rule="evenodd"/>
<path transform="matrix(.26458 0 0 .26458 217.82 -17.342)" d="m302.94 0.55997c0-0.15999 0.15999-0.31998 0.31998-0.31998h175.51c0.17999 0 0.31999 0.15999 0.31999 0.31998v31.838c0 0.17999-0.14 0.31998-0.31999 0.31998h-175.51c-0.15999 0-0.31998-0.13999-0.31998-0.31998zm0.63996 31.838-0.31998-0.31998h175.51l-0.31998 0.31998v-31.838l0.31998 0.31998h-175.51l0.31998-0.31998z" clip-path="url(#a)" fill="#27549e" stroke="#27549e" stroke-linejoin="bevel" stroke-width=".15999px"/>
<path transform="matrix(.26458 0 0 .26458 217.82 -17.342)" d="m303.26 32.398v31.838h65.917v-31.838z" clip-path="url(#a)" fill="#cf3a2e" fill-rule="evenodd"/>
<path transform="matrix(.26458 0 0 .26458 217.82 -17.342)" d="m302.94 32.398c0-0.15999 0.15999-0.31998 0.31998-0.31998h65.917c0.18 0 0.31999 0.15999 0.31999 0.31998v31.838c0 0.17999-0.13999 0.31998-0.31999 0.31998h-65.917c-0.15999 0-0.31998-0.13999-0.31998-0.31998zm0.63996 31.838-0.31998-0.31998h65.917l-0.31998 0.31998v-31.838l0.31998 0.31998h-65.917l0.31998-0.31998z" clip-path="url(#a)" fill="#98281f" stroke="#98281f" stroke-linejoin="bevel" stroke-width=".15999px"/>
<path transform="matrix(.26458 0 0 .26458 217.82 -17.342)" d="m303.26 64.237v31.838h21.919v-31.838z" clip-path="url(#a)" fill="#dea603" fill-rule="evenodd"/>
<path transform="matrix(.26458 0 0 .26458 217.82 -17.342)" d="m302.94 64.237c0-0.15999 0.15999-0.31998 0.31998-0.31998h21.919c0.17999 0 0.31998 0.15999 0.31998 0.31998v31.838c0 0.17999-0.13999 0.31998-0.31998 0.31998h-21.919c-0.15999 0-0.31998-0.13999-0.31998-0.31998zm0.63996 31.838-0.31998-0.31998h21.919l-0.31998 0.31998v-31.838l0.31998 0.31998h-21.919l0.31998-0.31998z" clip-path="url(#a)" fill="#a37902" stroke="#a37902" stroke-linejoin="bevel" stroke-width=".15999px"/>
<path transform="matrix(.26458 0 0 .26458 217.82 -17.342)" d="m303.26 96.075v31.838h36.638v-31.838z" clip-path="url(#a)" fill="#2d9449" fill-rule="evenodd"/>
<path transform="matrix(.26458 0 0 .26458 217.82 -17.342)" d="m302.94 96.075c0-0.15999 0.15999-0.31998 0.31998-0.31998h36.638c0.17999 0 0.31998 0.15999 0.31998 0.31998v31.838c0 0.17999-0.13999 0.31998-0.31998 0.31998h-36.638c-0.15999 0-0.31998-0.13999-0.31998-0.31998zm0.63996 31.838-0.31998-0.31999h36.638l-0.31999 0.31999v-31.838l0.31999 0.31998h-36.638l0.31998-0.31998z" clip-path="url(#a)" fill="#1e6c33" stroke="#1e6c33" stroke-linejoin="bevel" stroke-width=".15999px"/>
<path transform="matrix(.26458 0 0 .26458 217.82 -17.342)" d="m303.26 127.91v31.838h7.3596v-31.838z" clip-path="url(#a)" fill="#e26001" fill-rule="evenodd"/>
<path transform="matrix(.26458 0 0 .26458 217.82 -17.342)" d="m302.94 127.91c0-0.16 0.15999-0.31999 0.31998-0.31999h7.3596c0.17999 0 0.31998 0.15999 0.31998 0.31999v31.838c0 0.17999-0.13999 0.31999-0.31998 0.31999h-7.3596c-0.15999 0-0.31998-0.14-0.31998-0.31999zm0.63996 31.838-0.31998-0.31998h7.3596l-0.31999 0.31998v-31.838l0.31999 0.31998h-7.3596l0.31998-0.31998z" clip-path="url(#a)" fill="#a64400" stroke="#a64400" stroke-linejoin="bevel" stroke-width=".15999px"/>
<path transform="matrix(.26458 0 0 .26458 217.82 -17.342)" d="m303.26 159.75v31.838h14.719v-31.838z" clip-path="url(#a)" fill="#3da7af" fill-rule="evenodd"/>
<path transform="matrix(.26458 0 0 .26458 217.82 -17.342)" d="m302.94 159.75c0-0.15999 0.15999-0.31998 0.31998-0.31998h14.719c0.17999 0 0.31999 0.15999 0.31999 0.31998v31.838c0 0.17999-0.14 0.31998-0.31999 0.31998h-14.719c-0.15999 0-0.31998-0.13999-0.31998-0.31998zm0.63996 31.838-0.31998-0.31998h14.719l-0.31998 0.31998v-31.838l0.31998 0.31999h-14.719l0.31998-0.31999z" clip-path="url(#a)" fill="#2a7a80" stroke="#2a7a80" stroke-linejoin="bevel" stroke-width=".15999px"/>
<path transform="matrix(.26458 0 0 .26458 217.82 -17.342)" d="m303.26 191.59v31.838h21.919v-31.838z" clip-path="url(#a)" fill="#8eacf7" fill-rule="evenodd"/>
<path transform="matrix(.26458 0 0 .26458 217.82 -17.342)" d="m302.94 191.59c0-0.15999 0.15999-0.31998 0.31998-0.31998h21.919c0.17999 0 0.31998 0.15999 0.31998 0.31998v31.838c0 0.17999-0.13999 0.31998-0.31998 0.31998h-21.919c-0.15999 0-0.31998-0.13999-0.31998-0.31998zm0.63996 31.838-0.31998-0.31999h21.919l-0.31998 0.31999v-31.838l0.31998 0.31998h-21.919l0.31998-0.31998z" clip-path="url(#a)" fill="#8999c8" stroke="#8999c8" stroke-linejoin="bevel" stroke-width=".15999px"/>
<path transform="matrix(.26458 0 0 .26458 217.82 -17.342)" d="m303.26 223.43v31.838h14.719v-31.838z" clip-path="url(#a)" fill="#ef8f8b" fill-rule="evenodd"/>
<path transform="matrix(.26458 0 0 .26458 217.82 -17.342)" d="m302.94 223.43c0-0.16 0.15999-0.31999 0.31998-0.31999h14.719c0.17999 0 0.31999 0.15999 0.31999 0.31999v31.838c0 0.17999-0.14 0.31998-0.31999 0.31998h-14.719c-0.15999 0-0.31998-0.13999-0.31998-0.31998zm0.63996 31.838-0.31998-0.31998h14.719l-0.31998 0.31998v-31.838l0.31998 0.31998h-14.719l0.31998-0.31998z" clip-path="url(#a)" fill="#c38987" stroke="#c38987" stroke-linejoin="bevel" stroke-width=".15999px"/>
<path transform="matrix(.26458 0 0 .26458 217.82 -17.342)" d="m303.26 255.27v31.838h21.919v-31.838z" clip-path="url(#a)" fill="#fcce84" fill-rule="evenodd"/>
<path transform="matrix(.26458 0 0 .26458 217.82 -17.342)" d="m302.94 255.27c0-0.15999 0.15999-0.31998 0.31998-0.31998h21.919c0.17999 0 0.31998 0.15999 0.31998 0.31998v31.838c0 0.17999-0.13999 0.31998-0.31998 0.31998h-21.919c-0.15999 0-0.31998-0.13999-0.31998-0.31998zm0.63996 31.838-0.31998-0.31999h21.919l-0.31998 0.31999v-31.838l0.31998 0.31998h-21.919l0.31998-0.31998z" clip-path="url(#a)" fill="#ccae84" stroke="#ccae84" stroke-linejoin="bevel" stroke-width=".15999px"/>
<path transform="matrix(.26458 0 0 .26458 217.82 -17.342)" d="m303.26 287.11v31.678h73.116v-31.678z" clip-path="url(#a)" fill="#8bc194" fill-rule="evenodd"/>
<path transform="matrix(.26458 0 0 .26458 217.82 -17.342)" d="m302.94 287.11c0-0.15999 0.15999-0.31999 0.31998-0.31999h73.116c0.17999 0 0.31998 0.16 0.31998 0.31999v31.678c0 0.17999-0.13999 0.31999-0.31998 0.31999h-73.116c-0.15999 0-0.31998-0.14-0.31998-0.31999zm0.63996 31.678-0.31998-0.31998h73.116l-0.31998 0.31998v-31.678l0.31998 0.31998h-73.116l0.31998-0.31998z" clip-path="url(#a)" fill="#87a68c" stroke="#87a68c" stroke-linejoin="bevel" stroke-width=".15999px"/>
<path transform="matrix(.26458 0 0 .26458 217.82 -17.342)" d="m303.26 318.78v31.838h29.278v-31.838z" clip-path="url(#a)" fill="#ff9f84" fill-rule="evenodd"/>
<path transform="matrix(.26458 0 0 .26458 217.82 -17.342)" d="m302.94 318.78c0-0.15999 0.15999-0.31998 0.31998-0.31998h29.278c0.17999 0 0.31998 0.15999 0.31998 0.31998v31.838c0 0.17999-0.13999 0.31998-0.31998 0.31998h-29.278c-0.15999 0-0.31998-0.13999-0.31998-0.31998zm0.63996 31.838-0.31998-0.31998h29.278l-0.31999 0.31998v-31.838l0.31999 0.31999h-29.278l0.31998-0.31999z" clip-path="url(#a)" fill="#ce9284" stroke="#ce9284" stroke-linejoin="bevel" stroke-width=".15999px"/>
<path d="m298.06 75.342h58.078v0.16932h-58.078z" fill="#898989" stroke="#898989" stroke-linejoin="bevel" stroke-width=".042331px"/>
<path d="m298.15 75.427v1.1006h-0.16933v-1.1006zm19.345 0v1.1006h-0.16932v-1.1006zm19.388 0v1.1006h-0.16933v-1.1006zm19.345 0v1.1006h-0.16932v-1.1006z" fill="#898989" stroke="#898989" stroke-linejoin="bevel" stroke-width=".042331px"/>
<path d="m298.15-17.194v92.621h-0.16933v-92.621z" fill="#898989" stroke="#898989" stroke-linejoin="bevel" stroke-width=".042331px"/>
<path d="m297.01-17.278h1.0583v0.16932h-1.0583zm0 8.4239h1.0583v0.16932h-1.0583zm0 8.4239h1.0583v0.16932h-1.0583zm0 8.4239h1.0583v0.16932h-1.0583zm0 8.4239h1.0583v0.16933h-1.0583zm0 8.4239h1.0583v0.16932h-1.0583zm0 8.4239h1.0583v0.16932h-1.0583zm0 8.4239h1.0583v0.16932h-1.0583zm0 8.4239h1.0583v0.16932h-1.0583zm0 8.4239h1.0583v0.16932h-1.0583zm0 8.3816h1.0583v0.16932h-1.0583zm0 8.4239h1.0583v0.16932h-1.0583z" fill="#898989" stroke="#898989" stroke-linejoin="bevel" stroke-width=".042331px"/>
<text x="338.50357" y="-11.695441" fill="#000000" font-family="Arial" font-size="3.5057px" font-weight="400" letter-spacing="0px" stroke-width=".26458" word-spacing="0px" style="line-height:125%" xml:space="preserve"><tspan x="338.50357" y="-11.695441" stroke-width=".26458"><tspan dx="0" dy="0" fill="#000000" font-family="Arial" font-size="3.5057px" font-weight="400" stroke-width=".26458">24</tspan></tspan></text>
<text x="311.43237" y="-3.2745178" fill="#000000" font-family="Arial" font-size="3.5057px" font-weight="400" letter-spacing="0px" stroke-width=".26458" word-spacing="0px" style="line-height:125%" xml:space="preserve"><tspan x="311.43237" y="-3.2745178" stroke-width=".26458"><tspan dx="0" dy="0" fill="#000000" font-family="Arial" font-size="3.5057px" font-weight="400" stroke-width=".26458">9</tspan></tspan></text>
<text x="300.21158" y="5.1464062" fill="#000000" font-family="Arial" font-size="3.5057px" font-weight="400" letter-spacing="0px" stroke-width=".26458" word-spacing="0px" style="line-height:125%" xml:space="preserve"><tspan x="300.21158" y="5.1464062" stroke-width=".26458"><tspan dx="0" dy="0" fill="#000000" font-family="Arial" font-size="3.5057px" font-weight="400" stroke-width=".26458">3</tspan></tspan></text>
<text x="303.69229" y="13.567329" fill="#000000" font-family="Arial" font-size="3.5057px" font-weight="400" letter-spacing="0px" stroke-width=".26458" word-spacing="0px" style="line-height:125%" xml:space="preserve"><tspan x="303.69229" y="13.567329" stroke-width=".26458"><tspan dx="0" dy="0" fill="#000000" font-family="Arial" font-size="3.5057px" font-weight="400" stroke-width=".26458">5</tspan></tspan></text>
<text x="300.21158" y="21.988251" fill="#000000" font-family="Arial" font-size="3.5057px" font-weight="400" letter-spacing="0px" stroke-width=".26458" word-spacing="0px" style="line-height:125%" xml:space="preserve"><tspan x="300.21158" y="21.988251" stroke-width=".26458"><tspan dx="0" dy="0" fill="#000000" font-family="Arial" font-size="3.5057px" font-weight="400" stroke-width=".26458">1</tspan></tspan></text>
<text x="302.7691" y="30.409149" fill="#000000" font-family="Arial" font-size="3.5057px" font-weight="400" letter-spacing="0px" stroke-width=".26458" word-spacing="0px" style="line-height:125%" xml:space="preserve"><tspan x="302.7691" y="30.409149" stroke-width=".26458"><tspan dx="0" dy="0" fill="#000000" font-family="Arial" font-size="3.5057px" font-weight="400" stroke-width=".26458">2</tspan></tspan></text>
<text x="300.21158" y="38.830097" fill="#000000" font-family="Arial" font-size="3.5057px" font-weight="400" letter-spacing="0px" stroke-width=".26458" word-spacing="0px" style="line-height:125%" xml:space="preserve"><tspan x="300.21158" y="38.830097" stroke-width=".26458"><tspan dx="0" dy="0" fill="#000000" font-family="Arial" font-size="3.5057px" font-weight="400" stroke-width=".26458">3</tspan></tspan></text>
<text x="302.7691" y="47.250996" fill="#000000" font-family="Arial" font-size="3.5057px" font-weight="400" letter-spacing="0px" stroke-width=".26458" word-spacing="0px" style="line-height:125%" xml:space="preserve"><tspan x="302.7691" y="47.250996" stroke-width=".26458"><tspan dx="0" dy="0" fill="#000000" font-family="Arial" font-size="3.5057px" font-weight="400" stroke-width=".26458">2</tspan></tspan></text>
<text x="300.21158" y="55.671947" fill="#000000" font-family="Arial" font-size="3.5057px" font-weight="400" letter-spacing="0px" stroke-width=".26458" word-spacing="0px" style="line-height:125%" xml:space="preserve"><tspan x="300.21158" y="55.671947" stroke-width=".26458"><tspan dx="0" dy="0" fill="#000000" font-family="Arial" font-size="3.5057px" font-weight="400" stroke-width=".26458">3</tspan></tspan></text>
<text x="311.41315" y="64.092873" fill="#000000" font-family="Arial" font-size="3.5057px" font-weight="400" letter-spacing="0px" stroke-width=".26458" word-spacing="0px" style="line-height:125%" xml:space="preserve"><tspan x="311.41315" y="64.092873" stroke-width=".26458"><tspan dx="0" dy="0" fill="#000000" font-family="Arial" font-size="3.5057px" font-weight="400" stroke-width=".26458">10</tspan></tspan></text>
<text x="301.75723" y="72.513794" fill="#000000" font-family="Arial" font-size="3.5057px" font-weight="400" letter-spacing="0px" stroke-width=".26458" word-spacing="0px" style="line-height:125%" xml:space="preserve"><tspan x="301.75723" y="72.513794" stroke-width=".26458"><tspan dx="0" dy="0" fill="#000000" font-family="Arial" font-size="3.5057px" font-weight="400" stroke-width=".26458">4</tspan></tspan></text>
<text x="297.13022" y="80.755135" fill="#000000" font-family="Arial" font-size="3.5057px" font-weight="400" letter-spacing="0px" stroke-width=".26458" word-spacing="0px" style="line-height:125%" xml:space="preserve"><tspan x="297.13022" y="80.755135" stroke-width=".26458"><tspan dx="0" dy="0" fill="#000000" font-family="Arial" font-size="3.5057px" font-weight="400" stroke-width=".26458">0</tspan></tspan></text>
<text x="315.49988" y="80.755135" fill="#000000" font-family="Arial" font-size="3.5057px" font-weight="400" letter-spacing="0px" stroke-width=".26458" word-spacing="0px" style="line-height:125%" xml:space="preserve"><tspan x="315.49988" y="80.755135" stroke-width=".26458"><tspan dx="0" dy="0" fill="#000000" font-family="Arial" font-size="3.5057px" font-weight="400" stroke-width=".26458">10</tspan></tspan></text>
<text x="334.85016" y="80.755135" fill="#000000" font-family="Arial" font-size="3.5057px" font-weight="400" letter-spacing="0px" stroke-width=".26458" word-spacing="0px" style="line-height:125%" xml:space="preserve"><tspan x="334.85016" y="80.755135" stroke-width=".26458"><tspan dx="0" dy="0" fill="#000000" font-family="Arial" font-size="3.5057px" font-weight="400" stroke-width=".26458">20</tspan></tspan></text>
<text x="354.20047" y="80.755135" fill="#000000" font-family="Arial" font-size="3.5057px" font-weight="400" letter-spacing="0px" stroke-width=".26458" word-spacing="0px" style="line-height:125%" xml:space="preserve"><tspan x="354.20047" y="80.755135" stroke-width=".26458"><tspan dx="0" dy="0" fill="#000000" font-family="Arial" font-size="3.5057px" font-weight="400" stroke-width=".26458">30</tspan></tspan></text>
<text x="260.17664" y="-11.868308" fill="#000000" font-family="Arial" font-size="3.5057px" font-weight="400" letter-spacing="0px" stroke-width=".26458" word-spacing="0px" style="line-height:125%" xml:space="preserve"><tspan x="260.17664" y="-11.868308" stroke-width=".26458"><tspan dx="0" dy="0" fill="#000000" font-family="Arial" font-size="3.5057px" font-weight="400" stroke-width=".26458">Nein, alles in Ordnung</tspan></tspan></text>
<text x="248.21808" y="-3.4473846" fill="#000000" font-family="Arial" font-size="3.5057px" font-weight="400" letter-spacing="0px" stroke-width=".26458" word-spacing="0px" style="line-height:125%" xml:space="preserve"><tspan x="248.21808" y="-3.4473846" stroke-width=".26458"><tspan dx="0" dy="0" fill="#000000" font-family="Arial" font-size="3.5057px" font-weight="400" stroke-width=".26458">Das Aussehen/Theme/Design</tspan></tspan></text>
<text x="276.45294" y="4.9735394" fill="#000000" font-family="Arial" font-size="3.5057px" font-weight="400" letter-spacing="0px" stroke-width=".26458" word-spacing="0px" style="line-height:125%" xml:space="preserve"><tspan x="276.45294" y="4.9735394" stroke-width=".26458"><tspan dx="0" dy="0" fill="#000000" font-family="Arial" font-size="3.5057px" font-weight="400" stroke-width=".26458">Die Struktur</tspan></tspan></text>
<text x="217.83139" y="13.394463" fill="#000000" font-family="Arial" font-size="3.5057px" font-weight="400" letter-spacing="0px" stroke-width=".26458" word-spacing="0px" style="line-height:125%" xml:space="preserve"><tspan x="217.83139" y="13.394463" stroke-width=".26458"><tspan dx="0" dy="0" fill="#000000" font-family="Arial" font-size="3.5057px" font-weight="400" stroke-width=".26458">Die Auswahl der ins Deutsche übersetzten Artikel</tspan></tspan></text>
<text x="229.00328" y="21.815388" fill="#000000" font-family="Arial" font-size="3.5057px" font-weight="400" letter-spacing="0px" stroke-width=".26458" word-spacing="0px" style="line-height:125%" xml:space="preserve"><tspan x="229.00328" y="21.815388" stroke-width=".26458"><tspan dx="0" dy="0" fill="#000000" font-family="Arial" font-size="3.5057px" font-weight="400" stroke-width=".26458">Die inhaltliche Qualität der Übersetzungen</tspan></tspan></text>
<text x="226.84792" y="30.236309" fill="#000000" font-family="Arial" font-size="3.5057px" font-weight="400" letter-spacing="0px" stroke-width=".26458" word-spacing="0px" style="line-height:125%" xml:space="preserve"><tspan x="226.84792" y="30.236309" stroke-width=".26458"><tspan dx="0" dy="0" fill="#000000" font-family="Arial" font-size="3.5057px" font-weight="400" stroke-width=".26458">Die sprachliche Qualität der Übersetzungen</tspan></tspan></text>
<text x="220.77693" y="38.657234" fill="#000000" font-family="Arial" font-size="3.5057px" font-weight="400" letter-spacing="0px" stroke-width=".26458" word-spacing="0px" style="line-height:125%" xml:space="preserve"><tspan x="220.77693" y="38.657234" stroke-width=".26458"><tspan dx="0" dy="0" fill="#000000" font-family="Arial" font-size="3.5057px" font-weight="400" stroke-width=".26458">Die inhaltliche Qualität der originalen DE-Artikel</tspan></tspan></text>
<text x="218.62157" y="47.078159" fill="#000000" font-family="Arial" font-size="3.5057px" font-weight="400" letter-spacing="0px" stroke-width=".26458" word-spacing="0px" style="line-height:125%" xml:space="preserve"><tspan x="218.62157" y="47.078159" stroke-width=".26458"><tspan dx="0" dy="0" fill="#000000" font-family="Arial" font-size="3.5057px" font-weight="400" stroke-width=".26458">Die sprachliche Qualität der originalen DE-Artikel</tspan></tspan></text>
<text x="262.14502" y="55.499081" fill="#000000" font-family="Arial" font-size="3.5057px" font-weight="400" letter-spacing="0px" stroke-width=".26458" word-spacing="0px" style="line-height:125%" xml:space="preserve"><tspan x="262.14502" y="55.499081" stroke-width=".26458"><tspan dx="0" dy="0" fill="#000000" font-family="Arial" font-size="3.5057px" font-weight="400" stroke-width=".26458">Die Plattform Wikidot</tspan></tspan></text>
<text x="225.09117" y="63.920002" fill="#000000" font-family="Arial" font-size="3.5057px" font-weight="400" letter-spacing="0px" stroke-width=".26458" word-spacing="0px" style="line-height:125%" xml:space="preserve"><tspan x="225.09117" y="63.920002" stroke-width=".26458"><tspan dx="0" dy="0" fill="#000000" font-family="Arial" font-size="3.5057px" font-weight="400" stroke-width=".26458">Ich würde mir ein aktiveres Forum wünschen</tspan></tspan></text>
<text x="222.72769" y="70.312569" fill="#000000" font-family="Arial" font-size="3.5057px" font-weight="400" letter-spacing="0px" stroke-width=".26458" word-spacing="0px" style="line-height:125%" xml:space="preserve"><tspan x="222.72769" y="70.312569" stroke-width=".26458"><tspan dx="0" dy="0" fill="#000000" font-family="Arial" font-size="3.5057px" font-weight="400" stroke-width=".26458">Es dauert zu lange, in Forum Antworten außer</tspan></tspan></text>
<text x="256.39542" y="74.376358" fill="#000000" font-family="Arial" font-size="3.5057px" font-weight="400" letter-spacing="0px" stroke-width=".26458" word-spacing="0px" style="line-height:125%" xml:space="preserve"><tspan x="256.39542" y="74.376358" stroke-width=".26458"><tspan dx="0" dy="0" fill="#000000" font-family="Arial" font-size="3.5057px" font-weight="400" stroke-width=".26458">Feedback zu bekommen</tspan></tspan></text>
</g>
</svg>
