<?xml version="1.0" encoding="UTF-8"?>
<svg width="389.09" height="307.93" version="1.1" viewBox="0 0 102.95 81.473" xmlns="http://www.w3.org/2000/svg" xmlns:cc="http://creativecommons.org/ns#" xmlns:dc="http://purl.org/dc/elements/1.1/" xmlns:rdf="http://www.w3.org/1999/02/22-rdf-syntax-ns#">
<defs>
<clipPath id="a">
<path d="m149.91 0.47998h223.99v278.39h-223.99z"/>
</clipPath>
</defs>
<metadata>
<rdf:RDF>
<cc:Work rdf:about="">
<dc:format>image/svg+xml</dc:format>
<dc:type rdf:resource="http://purl.org/dc/dcmitype/StillImage"/>
<dc:title/>
</cc:Work>
</rdf:RDF>
</metadata>
<path d="m40.794 1.4278v73.362h59.011v-73.362z" fill="#e7e7e7" fill-rule="evenodd"/>
<path d="m60.563 1.4278v73.362h-0.16933v-73.362zm19.685 0v73.362h-0.16933v-73.362zm19.642 0v73.362h-0.16933v-73.362z" fill="#898989" stroke="#898989" stroke-linejoin="bevel" stroke-width=".042332px"/>
<path transform="matrix(.26459 0 0 .26459 1.1496 1.2796)" d="m149.83 256.55v21.279h51.997v-21.279z" clip-path="url(#a)" fill="#356dca" fill-rule="evenodd"/>
<path transform="matrix(.26459 0 0 .26459 1.1496 1.2796)" d="m149.51 256.55c0-0.16 0.16-0.31999 0.31999-0.31999h51.997c0.17999 0 0.31998 0.15999 0.31998 0.31999v21.279c0 0.17999-0.13999 0.31998-0.31998 0.31998h-51.997c-0.15999 0-0.31999-0.13999-0.31999-0.31998zm0.63997 21.279-0.31998-0.31998h51.997l-0.31999 0.31998v-21.279l0.31999 0.31998h-51.997l0.31998-0.31998z" clip-path="url(#a)" fill="#244e94" stroke="#244e94" stroke-linejoin="bevel" stroke-width=".15999px"/>
<path transform="matrix(.26459 0 0 .26459 1.1496 1.2796)" d="m149.83 235.11v21.439h37.118v-21.439z" clip-path="url(#a)" fill="#c1362a" fill-rule="evenodd"/>
<path transform="matrix(.26459 0 0 .26459 1.1496 1.2796)" d="m149.51 235.11c0-0.16999 0.15-0.31998 0.31999-0.31998h37.118c0.17999 0 0.31998 0.14999 0.31998 0.31998v21.439c0 0.17999-0.13999 0.31998-0.31998 0.31998h-37.118c-0.16999 0-0.31999-0.13999-0.31999-0.31998zm0.63997 21.439-0.31998-0.31999h37.118l-0.31998 0.31999v-21.439l0.31998 0.31998h-37.118l0.31998-0.31998z" clip-path="url(#a)" fill="#8d251c" stroke="#8d251c" stroke-linejoin="bevel" stroke-width=".15999px"/>
<path transform="matrix(.26459 0 0 .26459 1.1496 1.2796)" d="m149.83 213.83v21.279h22.399v-21.279z" clip-path="url(#a)" fill="#cf9b03" fill-rule="evenodd"/>
<path transform="matrix(.26459 0 0 .26459 1.1496 1.2796)" d="m149.51 213.83c0-0.16999 0.15-0.31998 0.31999-0.31998h22.399c0.18 0 0.31999 0.14999 0.31999 0.31998v21.279c0 0.17999-0.13999 0.31998-0.31999 0.31998h-22.399c-0.16999 0-0.31999-0.13999-0.31999-0.31998zm0.63997 21.279-0.31998-0.31998h22.399l-0.31998 0.31998v-21.279l0.31998 0.31999h-22.399l0.31998-0.31999z" clip-path="url(#a)" fill="#987001" stroke="#987001" stroke-linejoin="bevel" stroke-width=".15999px"/>
<path transform="matrix(.26459 0 0 .26459 1.1496 1.2796)" d="m149.83 128.55v21.279h148.79v-21.279z" clip-path="url(#a)" fill="#4285f4" fill-rule="evenodd"/>
<path transform="matrix(.26459 0 0 .26459 1.1496 1.2796)" d="m149.51 128.55c0-0.16999 0.15-0.31998 0.31999-0.31998h148.79c0.17999 0 0.31998 0.14999 0.31998 0.31998v21.279c0 0.17999-0.13999 0.31998-0.31998 0.31998h-148.79c-0.16999 0-0.31999-0.13999-0.31999-0.31998zm0.63997 21.279-0.31998-0.31999h148.79l-0.31998 0.31999v-21.279l0.31998 0.31999h-148.79l0.31998-0.31999z" clip-path="url(#a)" fill="#2e60b3" stroke="#2e60b3" stroke-linejoin="bevel" stroke-width=".15999px"/>
<path transform="matrix(.26459 0 0 .26459 1.1496 1.2796)" d="m149.83 107.11v21.439h14.879v-21.439z" clip-path="url(#a)" fill="#ea4335" fill-rule="evenodd"/>
<path transform="matrix(.26459 0 0 .26459 1.1496 1.2796)" d="m149.51 107.11c0-0.16999 0.15-0.31999 0.31999-0.31999h14.879c0.18 0 0.31999 0.15 0.31999 0.31999v21.439c0 0.17999-0.13999 0.31999-0.31999 0.31999h-14.879c-0.16999 0-0.31999-0.14-0.31999-0.31999zm0.63997 21.439-0.31998-0.31998h14.879l-0.31998 0.31998v-21.439l0.31998 0.31998h-14.879l0.31998-0.31998z" clip-path="url(#a)" fill="#ac2f24" stroke="#ac2f24" stroke-linejoin="bevel" stroke-width=".15999px"/>
<path transform="matrix(.26459 0 0 .26459 1.1496 1.2796)" d="m149.83 85.836v21.279h22.399v-21.279z" clip-path="url(#a)" fill="#fbbc04" fill-rule="evenodd"/>
<path transform="matrix(.26459 0 0 .26459 1.1496 1.2796)" d="m149.51 85.836c0-0.16999 0.15-0.31998 0.31999-0.31998h22.399c0.18 0 0.31999 0.14999 0.31999 0.31998v21.279c0 0.17999-0.13999 0.31998-0.31999 0.31998h-22.399c-0.16999 0-0.31999-0.13999-0.31999-0.31998zm0.63997 21.279-0.31998-0.31999h22.399l-0.31998 0.31999v-21.279l0.31998 0.31998h-22.399l0.31998-0.31998z" clip-path="url(#a)" fill="#b98902" stroke="#b98902" stroke-linejoin="bevel" stroke-width=".15999px"/>
<path transform="matrix(.26459 0 0 .26459 1.1496 1.2796)" d="m149.83 64.557v21.279h22.399v-21.279z" clip-path="url(#a)" fill="#34a853" fill-rule="evenodd"/>
<path transform="matrix(.26459 0 0 .26459 1.1496 1.2796)" d="m149.51 64.557c0-0.16999 0.15-0.31998 0.31999-0.31998h22.399c0.18 0 0.31999 0.14999 0.31999 0.31998v21.279c0 0.17999-0.13999 0.31998-0.31999 0.31998h-22.399c-0.16999 0-0.31999-0.13999-0.31999-0.31998zm0.63997 21.279-0.31998-0.31998h22.399l-0.31998 0.31998v-21.279l0.31998 0.31998h-22.399l0.31998-0.31998z" clip-path="url(#a)" fill="#237a3b" stroke="#237a3b" stroke-linejoin="bevel" stroke-width=".15999px"/>
<path transform="matrix(.26459 0 0 .26459 1.1496 1.2796)" d="m149.83 0.55997v21.279h66.877v-21.279z" clip-path="url(#a)" fill="#a7bcf8" fill-rule="evenodd"/>
<path transform="matrix(.26459 0 0 .26459 1.1496 1.2796)" d="m149.51 0.55997c0-0.16999 0.15-0.31998 0.31999-0.31998h66.877c0.17999 0 0.31999 0.14999 0.31999 0.31998v21.279c0 0.17999-0.14 0.31998-0.31999 0.31998h-66.877c-0.16999 0-0.31999-0.13999-0.31999-0.31998zm0.63997 21.279-0.31998-0.31998h66.877l-0.31998 0.31998v-21.279l0.31998 0.31998h-66.877l0.31998-0.31998z" clip-path="url(#a)" fill="#a3afd2" stroke="#a3afd2" stroke-linejoin="bevel" stroke-width=".15999px"/>
<path d="m40.794 74.705h59.011v0.16933h-59.011z" fill="#898989" stroke="#898989" stroke-linejoin="bevel" stroke-width=".042332px"/>
<path d="m40.879 74.79v1.0583h-0.16933v-1.0583zm19.685 0v1.0583h-0.16933v-1.0583zm19.685 0v1.0583h-0.16933v-1.0583zm19.642 0v1.0583h-0.16933v-1.0583z" fill="#898989" stroke="#898989" stroke-linejoin="bevel" stroke-width=".042332px"/>
<path d="m40.709 74.79v-73.362h0.16933v73.362z" fill="#898989" stroke="#898989" stroke-linejoin="bevel" stroke-width=".042332px"/>
<path d="m39.736 74.705h1.0583v0.16933h-1.0583zm0-5.6302h1.0583v0.16933h-1.0583zm0-5.6726h1.0583v0.16933h-1.0583zm0-5.6302h1.0583v0.16933h-1.0583zm0-5.6302h1.0583v0.16933h-1.0583zm0-5.6726h1.0583v0.16933h-1.0583zm0-5.6302h1.0583v0.16933h-1.0583zm0-5.6302h1.0583v0.16933h-1.0583zm0-5.6726h1.0583v0.16933h-1.0583zm0-5.6302h1.0583v0.16933h-1.0583zm0-5.6302h1.0583v0.16933h-1.0583zm0-5.6726h1.0583v0.16933h-1.0583zm0-5.6302h1.0583v0.16933h-1.0583zm0-5.6302h1.0583v0.16933h-1.0583z" fill="#898989" stroke="#898989" stroke-linejoin="bevel" stroke-width=".042332px"/>
<text x="50.509254" y="73.253433" fill="#000000" font-family="Arial" font-size="3.5058px" font-weight="400" letter-spacing="0px" stroke-width=".26459" word-spacing="0px" style="line-height:125%" xml:space="preserve"><tspan x="50.509254" y="73.253433" stroke-width=".26459"><tspan dx="0" dy="0" fill="#000000" font-family="Arial" font-size="3.5058px" font-weight="400" stroke-width=".26459">7</tspan></tspan></text>
<text x="46.574554" y="67.609016" fill="#000000" font-family="Arial" font-size="3.5058px" font-weight="400" letter-spacing="0px" stroke-width=".26459" word-spacing="0px" style="line-height:125%" xml:space="preserve"><tspan x="46.574554" y="67.609016" stroke-width=".26459"><tspan dx="0" dy="0" fill="#000000" font-family="Arial" font-size="3.5058px" font-weight="400" stroke-width=".26459">5</tspan></tspan></text>
<text x="42.932407" y="61.964603" fill="#000000" font-family="Arial" font-size="3.5058px" font-weight="400" letter-spacing="0px" stroke-width=".26459" word-spacing="0px" style="line-height:125%" xml:space="preserve"><tspan x="42.932407" y="61.964603" stroke-width=".26459"><tspan dx="0" dy="0" fill="#000000" font-family="Arial" font-size="3.5058px" font-weight="400" stroke-width=".26459">3</tspan></tspan></text>
<text x="42.932407" y="56.32019" fill="#000000" font-family="Arial" font-size="3.5058px" font-weight="400" letter-spacing="0px" stroke-width=".26459" word-spacing="0px" style="line-height:125%" xml:space="preserve"><tspan x="42.932407" y="56.32019" stroke-width=".26459"><tspan dx="0" dy="0" fill="#000000" font-family="Arial" font-size="3.5058px" font-weight="400" stroke-width=".26459">0</tspan></tspan></text>
<text x="42.932407" y="50.675774" fill="#000000" font-family="Arial" font-size="3.5058px" font-weight="400" letter-spacing="0px" stroke-width=".26459" word-spacing="0px" style="line-height:125%" xml:space="preserve"><tspan x="42.932407" y="50.675774" stroke-width=".26459"><tspan dx="0" dy="0" fill="#000000" font-family="Arial" font-size="3.5058px" font-weight="400" stroke-width=".26459">0</tspan></tspan></text>
<text x="42.713104" y="45.031391" fill="#000000" font-family="Arial" font-size="3.5058px" font-weight="400" letter-spacing="0px" stroke-width=".26459" word-spacing="0px" style="line-height:125%" xml:space="preserve"><tspan x="42.713104" y="45.031391" stroke-width=".26459"><tspan dx="0" dy="0" fill="#000000" font-family="Arial" font-size="3.5058px" font-weight="400" stroke-width=".26459">0</tspan></tspan></text>
<text x="74.130585" y="39.386948" fill="#000000" font-family="Arial" font-size="3.5058px" font-weight="400" letter-spacing="0px" stroke-width=".26459" word-spacing="0px" style="line-height:125%" xml:space="preserve"><tspan x="74.130585" y="39.386948" stroke-width=".26459"><tspan dx="0" dy="0" fill="#000000" font-family="Arial" font-size="3.5058px" font-weight="400" stroke-width=".26459">20</tspan></tspan></text>
<text x="41.717903" y="33.742538" fill="#000000" font-family="Arial" font-size="3.5058px" font-weight="400" letter-spacing="0px" stroke-width=".26459" word-spacing="0px" style="line-height:125%" xml:space="preserve"><tspan x="41.717903" y="33.742538" stroke-width=".26459"><tspan dx="0" dy="0" fill="#000000" font-family="Arial" font-size="3.5058px" font-weight="400" stroke-width=".26459">2</tspan></tspan></text>
<text x="42.932407" y="28.098122" fill="#000000" font-family="Arial" font-size="3.5058px" font-weight="400" letter-spacing="0px" stroke-width=".26459" word-spacing="0px" style="line-height:125%" xml:space="preserve"><tspan x="42.932407" y="28.098122" stroke-width=".26459"><tspan dx="0" dy="0" fill="#000000" font-family="Arial" font-size="3.5058px" font-weight="400" stroke-width=".26459">3</tspan></tspan></text>
<text x="42.932407" y="22.453707" fill="#000000" font-family="Arial" font-size="3.5058px" font-weight="400" letter-spacing="0px" stroke-width=".26459" word-spacing="0px" style="line-height:125%" xml:space="preserve"><tspan x="42.932407" y="22.453707" stroke-width=".26459"><tspan dx="0" dy="0" fill="#000000" font-family="Arial" font-size="3.5058px" font-weight="400" stroke-width=".26459">3</tspan></tspan></text>
<text x="42.932407" y="16.80929" fill="#000000" font-family="Arial" font-size="3.5058px" font-weight="400" letter-spacing="0px" stroke-width=".26459" word-spacing="0px" style="line-height:125%" xml:space="preserve"><tspan x="42.932407" y="16.80929" stroke-width=".26459"><tspan dx="0" dy="0" fill="#000000" font-family="Arial" font-size="3.5058px" font-weight="400" stroke-width=".26459">0</tspan></tspan></text>
<text x="42.932407" y="11.164879" fill="#000000" font-family="Arial" font-size="3.5058px" font-weight="400" letter-spacing="0px" stroke-width=".26459" word-spacing="0px" style="line-height:125%" xml:space="preserve"><tspan x="42.932407" y="11.164879" stroke-width=".26459"><tspan dx="0" dy="0" fill="#000000" font-family="Arial" font-size="3.5058px" font-weight="400" stroke-width=".26459">0</tspan></tspan></text>
<text x="54.443977" y="5.5204644" fill="#000000" font-family="Arial" font-size="3.5058px" font-weight="400" letter-spacing="0px" stroke-width=".26459" word-spacing="0px" style="line-height:125%" xml:space="preserve"><tspan x="54.443977" y="5.5204644" stroke-width=".26459"><tspan dx="0" dy="0" fill="#000000" font-family="Arial" font-size="3.5058px" font-weight="400" stroke-width=".26459">9</tspan></tspan></text>
<text x="39.852707" y="80.106651" fill="#000000" font-family="Arial" font-size="3.5058px" font-weight="400" letter-spacing="0px" stroke-width=".26459" word-spacing="0px" style="line-height:125%" xml:space="preserve"><tspan x="39.852707" y="80.106651" stroke-width=".26459"><tspan dx="0" dy="0" fill="#000000" font-family="Arial" font-size="3.5058px" font-weight="400" stroke-width=".26459">0</tspan></tspan></text>
<text x="58.545578" y="80.106651" fill="#000000" font-family="Arial" font-size="3.5058px" font-weight="400" letter-spacing="0px" stroke-width=".26459" word-spacing="0px" style="line-height:125%" xml:space="preserve"><tspan x="58.545578" y="80.106651" stroke-width=".26459"><tspan dx="0" dy="0" fill="#000000" font-family="Arial" font-size="3.5058px" font-weight="400" stroke-width=".26459">10</tspan></tspan></text>
<text x="78.219185" y="80.106651" fill="#000000" font-family="Arial" font-size="3.5058px" font-weight="400" letter-spacing="0px" stroke-width=".26459" word-spacing="0px" style="line-height:125%" xml:space="preserve"><tspan x="78.219185" y="80.106651" stroke-width=".26459"><tspan dx="0" dy="0" fill="#000000" font-family="Arial" font-size="3.5058px" font-weight="400" stroke-width=".26459">20</tspan></tspan></text>
<text x="97.892761" y="80.106651" fill="#000000" font-family="Arial" font-size="3.5058px" font-weight="400" letter-spacing="0px" stroke-width=".26459" word-spacing="0px" style="line-height:125%" xml:space="preserve"><tspan x="97.892761" y="80.106651" stroke-width=".26459"><tspan dx="0" dy="0" fill="#000000" font-family="Arial" font-size="3.5058px" font-weight="400" stroke-width=".26459">30</tspan></tspan></text>
<text x="29.172283" y="73.080574" fill="#000000" font-family="Arial" font-size="3.5058px" font-weight="400" letter-spacing="0px" stroke-width=".26459" word-spacing="0px" style="line-height:125%" xml:space="preserve"><tspan x="29.172283" y="73.080574" stroke-width=".26459"><tspan dx="0" dy="0" fill="#000000" font-family="Arial" font-size="3.5058px" font-weight="400" stroke-width=".26459">Zufall</tspan></tspan></text>
<text x="16.620701" y="67.436157" fill="#000000" font-family="Arial" font-size="3.5058px" font-weight="400" letter-spacing="0px" stroke-width=".26459" word-spacing="0px" style="line-height:125%" xml:space="preserve"><tspan x="16.620701" y="67.436157" stroke-width=".26459"><tspan dx="0" dy="0" fill="#000000" font-family="Arial" font-size="3.5058px" font-weight="400" stroke-width=".26459">Einen Freund</tspan></tspan></text>
<text x="1.3280942" y="61.791744" fill="#000000" font-family="Arial" font-size="3.5058px" font-weight="400" letter-spacing="0px" stroke-width=".26459" word-spacing="0px" style="line-height:125%" xml:space="preserve"><tspan x="1.3280942" y="61.791744" stroke-width=".26459"><tspan dx="0" dy="0" fill="#000000" font-family="Arial" font-size="3.5058px" font-weight="400" stroke-width=".26459">Andere Soziale Medien</tspan></tspan></text>
<text x="27.214405" y="56.147331" fill="#000000" font-family="Arial" font-size="3.5058px" font-weight="400" letter-spacing="0px" stroke-width=".26459" word-spacing="0px" style="line-height:125%" xml:space="preserve"><tspan x="27.214405" y="56.147331" stroke-width=".26459"><tspan dx="0" dy="0" fill="#000000" font-family="Arial" font-size="3.5058px" font-weight="400" stroke-width=".26459">Twitter</tspan></tspan></text>
<text x="22.11334" y="50.502918" fill="#000000" font-family="Arial" font-size="3.5058px" font-weight="400" letter-spacing="0px" stroke-width=".26459" word-spacing="0px" style="line-height:125%" xml:space="preserve"><tspan x="22.11334" y="50.502918" stroke-width=".26459"><tspan dx="0" dy="0" fill="#000000" font-family="Arial" font-size="3.5058px" font-weight="400" stroke-width=".26459">Instagram</tspan></tspan></text>
<text x="22.307364" y="44.858505" fill="#000000" font-family="Arial" font-size="3.5058px" font-weight="400" letter-spacing="0px" stroke-width=".26459" word-spacing="0px" style="line-height:125%" xml:space="preserve"><tspan x="22.307364" y="44.858505" stroke-width=".26459"><tspan dx="0" dy="0" fill="#000000" font-family="Arial" font-size="3.5058px" font-weight="400" stroke-width=".26459">Facebook</tspan></tspan></text>
<text x="24.656818" y="39.214092" fill="#000000" font-family="Arial" font-size="3.5058px" font-weight="400" letter-spacing="0px" stroke-width=".26459" word-spacing="0px" style="line-height:125%" xml:space="preserve"><tspan x="24.656818" y="39.214092" stroke-width=".26459"><tspan dx="0" dy="0" fill="#000000" font-family="Arial" font-size="3.5058px" font-weight="400" stroke-width=".26459">Youtube</tspan></tspan></text>
<text x="14.662825" y="33.56971" fill="#000000" font-family="Arial" font-size="3.5058px" font-weight="400" letter-spacing="0px" stroke-width=".26459" word-spacing="0px" style="line-height:125%" xml:space="preserve"><tspan x="14.662825" y="33.56971" stroke-width=".26459"><tspan dx="0" dy="0" fill="#000000" font-family="Arial" font-size="3.5058px" font-weight="400" stroke-width=".26459">Suchmaschine</tspan></tspan></text>
<text x="27.99403" y="27.925264" fill="#000000" font-family="Arial" font-size="3.5058px" font-weight="400" letter-spacing="0px" stroke-width=".26459" word-spacing="0px" style="line-height:125%" xml:space="preserve"><tspan x="27.99403" y="27.925264" stroke-width=".26459"><tspan dx="0" dy="0" fill="#000000" font-family="Arial" font-size="3.5058px" font-weight="400" stroke-width=".26459">Spiele</tspan></tspan></text>
<text x="8.1965389" y="22.280849" fill="#000000" font-family="Arial" font-size="3.5058px" font-weight="400" letter-spacing="0px" stroke-width=".26459" word-spacing="0px" style="line-height:125%" xml:space="preserve"><tspan x="8.1965389" y="22.280849" stroke-width=".26459"><tspan dx="0" dy="0" fill="#000000" font-family="Arial" font-size="3.5058px" font-weight="400" stroke-width=".26459">Creepypasta Wikia</tspan></tspan></text>
<text x="1.7161405" y="16.636436" fill="#000000" font-family="Arial" font-size="3.5058px" font-weight="400" letter-spacing="0px" stroke-width=".26459" word-spacing="0px" style="line-height:125%" xml:space="preserve"><tspan x="1.7161405" y="16.636436" stroke-width=".26459"><tspan dx="0" dy="0" fill="#000000" font-family="Arial" font-size="3.5058px" font-weight="400" stroke-width=".26459">Einen anderen Ableger</tspan></tspan></text>
<text x="1.1375978" y="10.992022" fill="#000000" font-family="Arial" font-size="3.5058px" font-weight="400" letter-spacing="0px" stroke-width=".26459" word-spacing="0px" style="line-height:125%" xml:space="preserve"><tspan x="1.1375978" y="10.992022" stroke-width=".26459"><tspan dx="0" dy="0" fill="#000000" font-family="Arial" font-size="3.5058px" font-weight="400" stroke-width=".26459">Das Übersetzungarchiv</tspan></tspan></text>
<text x="7.6109385" y="5.3476081" fill="#000000" font-family="Arial" font-size="3.5058px" font-weight="400" letter-spacing="0px" stroke-width=".26459" word-spacing="0px" style="line-height:125%" xml:space="preserve"><tspan x="7.6109385" y="5.3476081" stroke-width=".26459"><tspan dx="0" dy="0" fill="#000000" font-family="Arial" font-size="3.5058px" font-weight="400" stroke-width=".26459">Das Englische Wiki</tspan></tspan></text>
</svg>
