<?xml version="1.0" encoding="UTF-8"?>
<svg width="520.29" height="406.7" version="1.1" viewBox="0 0 137.66 107.61" xmlns="http://www.w3.org/2000/svg" xmlns:cc="http://creativecommons.org/ns#" xmlns:dc="http://purl.org/dc/elements/1.1/" xmlns:rdf="http://www.w3.org/1999/02/22-rdf-syntax-ns#">
<defs>
<clipPath id="a">
<path d="m322.7 0.47998h183.03v377.1h-183.03z"/>
</clipPath>
</defs>
<metadata>
<rdf:RDF>
<cc:Work rdf:about="">
<dc:format>image/svg+xml</dc:format>
<dc:type rdf:resource="http://purl.org/dc/dcmitype/StillImage"/>
<dc:title/>
</cc:Work>
</rdf:RDF>
</metadata>
<path d="m86.342 1.4288v99.479h48.173v-99.479z" fill="#e7e7e7" fill-rule="evenodd"/>
<path d="m102.47 1.4288v99.479h-0.16933v-99.479zm16.086 0v99.479h-0.16933v-99.479zm16.044 0v99.479h-0.16933v-99.479z" fill="#898989" stroke="#898989" stroke-linejoin="bevel" stroke-width=".042332px"/>
<path transform="matrix(.26459 0 0 .26459 .98075 1.2806)" d="m322.62 0.55997v23.519h97.115v-23.519z" clip-path="url(#a)" fill="#356dca" fill-rule="evenodd"/>
<path transform="matrix(.26459 0 0 .26459 .98075 1.2806)" d="m322.3 0.55997c0-0.15999 0.15999-0.31998 0.31998-0.31998h97.115c0.17999 0 0.31998 0.15999 0.31998 0.31998v23.519c0 0.17999-0.13999 0.31998-0.31998 0.31998h-97.115c-0.15999 0-0.31998-0.13999-0.31998-0.31998zm0.63997 23.519-0.31999-0.31998h97.115l-0.31998 0.31998v-23.519l0.31998 0.31998h-97.115l0.31999-0.31998z" clip-path="url(#a)" fill="#244e94" stroke="#244e94" stroke-linejoin="bevel" stroke-width=".15999px"/>
<path transform="matrix(.26459 0 0 .26459 .98075 1.2806)" d="m322.62 24.079v23.519h139.67v-23.519z" clip-path="url(#a)" fill="#c1362a" fill-rule="evenodd"/>
<path transform="matrix(.26459 0 0 .26459 .98075 1.2806)" d="m322.3 24.079c0-0.15999 0.15999-0.31998 0.31998-0.31998h139.67c0.17999 0 0.31998 0.15999 0.31998 0.31998v23.519c0 0.17999-0.13999 0.31998-0.31998 0.31998h-139.67c-0.15999 0-0.31998-0.13999-0.31998-0.31998zm0.63997 23.519-0.31999-0.31998h139.67l-0.31998 0.31998v-23.519l0.31998 0.31998h-139.67l0.31999-0.31998z" clip-path="url(#a)" fill="#8d251c" stroke="#8d251c" stroke-linejoin="bevel" stroke-width=".15999px"/>
<path transform="matrix(.26459 0 0 .26459 .98075 1.2806)" d="m322.62 94.475v23.519h6.0797v-23.519z" clip-path="url(#a)" fill="#d35901" fill-rule="evenodd"/>
<path transform="matrix(.26459 0 0 .26459 .98075 1.2806)" d="m322.3 94.475c0-0.15999 0.15999-0.31998 0.31998-0.31998h6.0797c0.17999 0 0.31998 0.15999 0.31998 0.31998v23.519c0 0.17999-0.13999 0.31998-0.31998 0.31998h-6.0797c-0.15999 0-0.31998-0.13999-0.31998-0.31998zm0.63997 23.519-0.31999-0.31998h6.0797l-0.31999 0.31998v-23.519l0.31999 0.31998h-6.0797l0.31999-0.31998z" clip-path="url(#a)" fill="#9a3f00" stroke="#9a3f00" stroke-linejoin="bevel" stroke-width=".15999px"/>
<path transform="matrix(.26459 0 0 .26459 .98075 1.2806)" d="m322.62 117.99v23.519h6.0797v-23.519z" clip-path="url(#a)" fill="#389ca3" fill-rule="evenodd"/>
<path transform="matrix(.26459 0 0 .26459 .98075 1.2806)" d="m322.3 117.99c0-0.15999 0.15999-0.31998 0.31998-0.31998h6.0797c0.17999 0 0.31998 0.15999 0.31998 0.31998v23.519c0 0.17999-0.13999 0.31998-0.31998 0.31998h-6.0797c-0.15999 0-0.31998-0.13999-0.31998-0.31998zm0.63997 23.519-0.31999-0.31998h6.0797l-0.31999 0.31998v-23.519l0.31999 0.31998h-6.0797l0.31999-0.31998z" clip-path="url(#a)" fill="#277177" stroke="#277177" stroke-linejoin="bevel" stroke-width=".15999px"/>
<path transform="matrix(.26459 0 0 .26459 .98075 1.2806)" d="m322.62 165.03v23.519h6.0797v-23.519z" clip-path="url(#a)" fill="#ea4335" fill-rule="evenodd"/>
<path transform="matrix(.26459 0 0 .26459 .98075 1.2806)" d="m322.3 165.03c0-0.15999 0.15999-0.31999 0.31998-0.31999h6.0797c0.17999 0 0.31998 0.16 0.31998 0.31999v23.519c0 0.17999-0.13999 0.31998-0.31998 0.31998h-6.0797c-0.15999 0-0.31998-0.13999-0.31998-0.31998zm0.63997 23.519-0.31999-0.31999h6.0797l-0.31999 0.31999v-23.519l0.31999 0.31998h-6.0797l0.31999-0.31998z" clip-path="url(#a)" fill="#ac2f24" stroke="#ac2f24" stroke-linejoin="bevel" stroke-width=".15999px"/>
<path transform="matrix(.26459 0 0 .26459 .98075 1.2806)" d="m322.62 212.07v23.519h6.0797v-23.519z" clip-path="url(#a)" fill="#34a853" fill-rule="evenodd"/>
<path transform="matrix(.26459 0 0 .26459 .98075 1.2806)" d="m322.3 212.07c0-0.16 0.15999-0.31999 0.31998-0.31999h6.0797c0.17999 0 0.31998 0.15999 0.31998 0.31999v23.519c0 0.17999-0.13999 0.31999-0.31998 0.31999h-6.0797c-0.15999 0-0.31998-0.14-0.31998-0.31999zm0.63997 23.519-0.31999-0.31998h6.0797l-0.31999 0.31998v-23.519l0.31999 0.31998h-6.0797l0.31999-0.31998z" clip-path="url(#a)" fill="#237a3b" stroke="#237a3b" stroke-linejoin="bevel" stroke-width=".15999px"/>
<path transform="matrix(.26459 0 0 .26459 .98075 1.2806)" d="m322.62 259.11v23.519h18.239v-23.519z" clip-path="url(#a)" fill="#46bdc6" fill-rule="evenodd"/>
<path transform="matrix(.26459 0 0 .26459 .98075 1.2806)" d="m322.3 259.11c0-0.15999 0.15999-0.31998 0.31998-0.31998h18.239c0.17999 0 0.31998 0.15999 0.31998 0.31998v23.519c0 0.17999-0.13999 0.31998-0.31998 0.31998h-18.239c-0.15999 0-0.31998-0.13999-0.31998-0.31998zm0.63997 23.519-0.31999-0.31998h18.239l-0.31999 0.31998v-23.519l0.31999 0.31999h-18.239l0.31999-0.31999z" clip-path="url(#a)" fill="#318a91" stroke="#318a91" stroke-linejoin="bevel" stroke-width=".15999px"/>
<path transform="matrix(.26459 0 0 .26459 .98075 1.2806)" d="m322.62 282.63v23.519h18.239v-23.519z" clip-path="url(#a)" fill="#a7bcf8" fill-rule="evenodd"/>
<path transform="matrix(.26459 0 0 .26459 .98075 1.2806)" d="m322.3 282.63c0-0.15999 0.15999-0.31998 0.31998-0.31998h18.239c0.17999 0 0.31998 0.15999 0.31998 0.31998v23.519c0 0.17999-0.13999 0.31998-0.31998 0.31998h-18.239c-0.15999 0-0.31998-0.13999-0.31998-0.31998zm0.63997 23.519-0.31999-0.31998h18.239l-0.31999 0.31998v-23.519l0.31999 0.31998h-18.239l0.31999-0.31998z" clip-path="url(#a)" fill="#a3afd2" stroke="#a3afd2" stroke-linejoin="bevel" stroke-width=".15999px"/>
<path transform="matrix(.26459 0 0 .26459 .98075 1.2806)" d="m322.62 306.14v23.519h6.0797v-23.519z" clip-path="url(#a)" fill="#f2a7a4" fill-rule="evenodd"/>
<path transform="matrix(.26459 0 0 .26459 .98075 1.2806)" d="m322.3 306.14c0-0.15999 0.15999-0.31998 0.31998-0.31998h6.0797c0.17999 0 0.31998 0.15999 0.31998 0.31998v23.519c0 0.17999-0.13999 0.31998-0.31998 0.31998h-6.0797c-0.15999 0-0.31998-0.13999-0.31998-0.31998zm0.63997 23.519-0.31999-0.31999h6.0797l-0.31999 0.31999v-23.519l0.31999 0.31998h-6.0797l0.31999-0.31998z" clip-path="url(#a)" fill="#cea3a2" stroke="#cea3a2" stroke-linejoin="bevel" stroke-width=".15999px"/>
<path transform="matrix(.26459 0 0 .26459 .98075 1.2806)" d="m322.62 353.02v23.519h36.478v-23.519z" clip-path="url(#a)" fill="#a4ccab" fill-rule="evenodd"/>
<path transform="matrix(.26459 0 0 .26459 .98075 1.2806)" d="m322.3 353.02c0-0.15999 0.15999-0.31998 0.31998-0.31998h36.478c0.17999 0 0.31998 0.15999 0.31998 0.31998v23.519c0 0.17999-0.13999 0.31999-0.31998 0.31999h-36.478c-0.15999 0-0.31998-0.14-0.31998-0.31999zm0.63997 23.519-0.31999-0.31998h36.478l-0.31998 0.31998v-23.519l0.31998 0.31999h-36.478l0.31999-0.31999z" clip-path="url(#a)" fill="#a2b8a5" stroke="#a2b8a5" stroke-linejoin="bevel" stroke-width=".15999px"/>
<path d="m86.342 100.82h48.173v0.16933h-48.173z" fill="#898989" stroke="#898989" stroke-linejoin="bevel" stroke-width=".042332px"/>
<path d="m86.427 100.91v1.1006h-0.16933v-1.1006zm16.044 0v1.1006h-0.16933v-1.1006zm16.086 0v1.1006h-0.16933v-1.1006zm16.044 0v1.1006h-0.16933v-1.1006z" fill="#898989" stroke="#898989" stroke-linejoin="bevel" stroke-width=".042332px"/>
<path d="m86.427 1.4288v99.479h-0.16933v-99.479z" fill="#898989" stroke="#898989" stroke-linejoin="bevel" stroke-width=".042332px"/>
<path d="m85.284 1.3441h1.0583v0.16933h-1.0583zm0 6.2227h1.0583v0.16933h-1.0583zm0 6.2227h1.0583v0.16933h-1.0583zm0 6.2227h1.0583v0.16933h-1.0583zm0 6.1804h1.0583v0.16933h-1.0583zm0 6.2227h1.0583v0.16932h-1.0583zm0 6.2227h1.0583v0.16932h-1.0583zm0 6.2227h1.0583v0.16933h-1.0583zm0 6.2227h1.0583v0.16933h-1.0583zm0 6.2227h1.0583v0.16933h-1.0583zm0 6.2227h1.0583v0.16933h-1.0583zm0 6.2227h1.0583v0.16933h-1.0583zm0 6.2227h1.0583v0.16932h-1.0583zm0 6.2227h1.0583v0.16932h-1.0583zm0 6.2227h1.0583v0.16933h-1.0583zm0 6.1804h1.0583v0.16933h-1.0583zm0 6.2227h1.0583v0.16933h-1.0583z" fill="#898989" stroke="#898989" stroke-linejoin="bevel" stroke-width=".042332px"/>
<text x="106.03773" y="5.8132668" fill="#000000" font-family="Arial" font-size="3.5058px" font-weight="400" letter-spacing="0px" stroke-width=".26459" word-spacing="0px" style="line-height:125%" xml:space="preserve"><tspan x="106.03773" y="5.8132668" stroke-width=".26459"><tspan dx="0" dy="0" fill="#000000" font-family="Arial" font-size="3.5058px" font-weight="400" stroke-width=".26459">16</tspan></tspan></text>
<text x="117.28248" y="12.032253" fill="#000000" font-family="Arial" font-size="3.5058px" font-weight="400" letter-spacing="0px" stroke-width=".26459" word-spacing="0px" style="line-height:125%" xml:space="preserve"><tspan x="117.28248" y="12.032253" stroke-width=".26459"><tspan dx="0" dy="0" fill="#000000" font-family="Arial" font-size="3.5058px" font-weight="400" stroke-width=".26459">23</tspan></tspan></text>
<text x="88.484291" y="18.251266" fill="#000000" font-family="Arial" font-size="3.5058px" font-weight="400" letter-spacing="0px" stroke-width=".26459" word-spacing="0px" style="line-height:125%" xml:space="preserve"><tspan x="88.484291" y="18.251266" stroke-width=".26459"><tspan dx="0" dy="0" fill="#000000" font-family="Arial" font-size="3.5058px" font-weight="400" stroke-width=".26459">0</tspan></tspan></text>
<text x="88.484291" y="24.470255" fill="#000000" font-family="Arial" font-size="3.5058px" font-weight="400" letter-spacing="0px" stroke-width=".26459" word-spacing="0px" style="line-height:125%" xml:space="preserve"><tspan x="88.484291" y="24.470255" stroke-width=".26459"><tspan dx="0" dy="0" fill="#000000" font-family="Arial" font-size="3.5058px" font-weight="400" stroke-width=".26459">0</tspan></tspan></text>
<text x="88.905609" y="30.689241" fill="#000000" font-family="Arial" font-size="3.5058px" font-weight="400" letter-spacing="0px" stroke-width=".26459" word-spacing="0px" style="line-height:125%" xml:space="preserve"><tspan x="88.905609" y="30.689241" stroke-width=".26459"><tspan dx="0" dy="0" fill="#000000" font-family="Arial" font-size="3.5058px" font-weight="400" stroke-width=".26459">1</tspan></tspan></text>
<text x="88.905609" y="36.908226" fill="#000000" font-family="Arial" font-size="3.5058px" font-weight="400" letter-spacing="0px" stroke-width=".26459" word-spacing="0px" style="line-height:125%" xml:space="preserve"><tspan x="88.905609" y="36.908226" stroke-width=".26459"><tspan dx="0" dy="0" fill="#000000" font-family="Arial" font-size="3.5058px" font-weight="400" stroke-width=".26459">1</tspan></tspan></text>
<text x="88.484291" y="43.12727" fill="#000000" font-family="Arial" font-size="3.5058px" font-weight="400" letter-spacing="0px" stroke-width=".26459" word-spacing="0px" style="line-height:125%" xml:space="preserve"><tspan x="88.484291" y="43.12727" stroke-width=".26459"><tspan dx="0" dy="0" fill="#000000" font-family="Arial" font-size="3.5058px" font-weight="400" stroke-width=".26459">0</tspan></tspan></text>
<text x="88.905609" y="49.346226" fill="#000000" font-family="Arial" font-size="3.5058px" font-weight="400" letter-spacing="0px" stroke-width=".26459" word-spacing="0px" style="line-height:125%" xml:space="preserve"><tspan x="88.905609" y="49.346226" stroke-width=".26459"><tspan dx="0" dy="0" fill="#000000" font-family="Arial" font-size="3.5058px" font-weight="400" stroke-width=".26459">1</tspan></tspan></text>
<text x="88.484291" y="55.565269" fill="#000000" font-family="Arial" font-size="3.5058px" font-weight="400" letter-spacing="0px" stroke-width=".26459" word-spacing="0px" style="line-height:125%" xml:space="preserve"><tspan x="88.484291" y="55.565269" stroke-width=".26459"><tspan dx="0" dy="0" fill="#000000" font-family="Arial" font-size="3.5058px" font-weight="400" stroke-width=".26459">0</tspan></tspan></text>
<text x="88.905609" y="61.784256" fill="#000000" font-family="Arial" font-size="3.5058px" font-weight="400" letter-spacing="0px" stroke-width=".26459" word-spacing="0px" style="line-height:125%" xml:space="preserve"><tspan x="88.905609" y="61.784256" stroke-width=".26459"><tspan dx="0" dy="0" fill="#000000" font-family="Arial" font-size="3.5058px" font-weight="400" stroke-width=".26459">1</tspan></tspan></text>
<text x="88.484291" y="68.003265" fill="#000000" font-family="Arial" font-size="3.5058px" font-weight="400" letter-spacing="0px" stroke-width=".26459" word-spacing="0px" style="line-height:125%" xml:space="preserve"><tspan x="88.484291" y="68.003265" stroke-width=".26459"><tspan dx="0" dy="0" fill="#000000" font-family="Arial" font-size="3.5058px" font-weight="400" stroke-width=".26459">0</tspan></tspan></text>
<text x="88.484291" y="74.222282" fill="#000000" font-family="Arial" font-size="3.5058px" font-weight="400" letter-spacing="0px" stroke-width=".26459" word-spacing="0px" style="line-height:125%" xml:space="preserve"><tspan x="88.484291" y="74.222282" stroke-width=".26459"><tspan dx="0" dy="0" fill="#000000" font-family="Arial" font-size="3.5058px" font-weight="400" stroke-width=".26459">3</tspan></tspan></text>
<text x="88.484291" y="80.441269" fill="#000000" font-family="Arial" font-size="3.5058px" font-weight="400" letter-spacing="0px" stroke-width=".26459" word-spacing="0px" style="line-height:125%" xml:space="preserve"><tspan x="88.484291" y="80.441269" stroke-width=".26459"><tspan dx="0" dy="0" fill="#000000" font-family="Arial" font-size="3.5058px" font-weight="400" stroke-width=".26459">3</tspan></tspan></text>
<text x="88.905609" y="86.660248" fill="#000000" font-family="Arial" font-size="3.5058px" font-weight="400" letter-spacing="0px" stroke-width=".26459" word-spacing="0px" style="line-height:125%" xml:space="preserve"><tspan x="88.905609" y="86.660248" stroke-width=".26459"><tspan dx="0" dy="0" fill="#000000" font-family="Arial" font-size="3.5058px" font-weight="400" stroke-width=".26459">1</tspan></tspan></text>
<text x="88.484291" y="92.879265" fill="#000000" font-family="Arial" font-size="3.5058px" font-weight="400" letter-spacing="0px" stroke-width=".26459" word-spacing="0px" style="line-height:125%" xml:space="preserve"><tspan x="88.484291" y="92.879265" stroke-width=".26459"><tspan dx="0" dy="0" fill="#000000" font-family="Arial" font-size="3.5058px" font-weight="400" stroke-width=".26459">0</tspan></tspan></text>
<text x="91.928123" y="99.098282" fill="#000000" font-family="Arial" font-size="3.5058px" font-weight="400" letter-spacing="0px" stroke-width=".26459" word-spacing="0px" style="line-height:125%" xml:space="preserve"><tspan x="91.928123" y="99.098282" stroke-width=".26459"><tspan dx="0" dy="0" fill="#000000" font-family="Arial" font-size="3.5058px" font-weight="400" stroke-width=".26459">6</tspan></tspan></text>
<text x="85.392342" y="106.2387" fill="#000000" font-family="Arial" font-size="3.5058px" font-weight="400" letter-spacing="0px" stroke-width=".26459" word-spacing="0px" style="line-height:125%" xml:space="preserve"><tspan x="85.392342" y="106.2387" stroke-width=".26459"><tspan dx="0" dy="0" fill="#000000" font-family="Arial" font-size="3.5058px" font-weight="400" stroke-width=".26459">0</tspan></tspan></text>
<text x="100.47557" y="106.2387" fill="#000000" font-family="Arial" font-size="3.5058px" font-weight="400" letter-spacing="0px" stroke-width=".26459" word-spacing="0px" style="line-height:125%" xml:space="preserve"><tspan x="100.47557" y="106.2387" stroke-width=".26459"><tspan dx="0" dy="0" fill="#000000" font-family="Arial" font-size="3.5058px" font-weight="400" stroke-width=".26459">10</tspan></tspan></text>
<text x="116.53945" y="106.2387" fill="#000000" font-family="Arial" font-size="3.5058px" font-weight="400" letter-spacing="0px" stroke-width=".26459" word-spacing="0px" style="line-height:125%" xml:space="preserve"><tspan x="116.53945" y="106.2387" stroke-width=".26459"><tspan dx="0" dy="0" fill="#000000" font-family="Arial" font-size="3.5058px" font-weight="400" stroke-width=".26459">20</tspan></tspan></text>
<text x="132.60336" y="106.2387" fill="#000000" font-family="Arial" font-size="3.5058px" font-weight="400" letter-spacing="0px" stroke-width=".26459" word-spacing="0px" style="line-height:125%" xml:space="preserve"><tspan x="132.60336" y="106.2387" stroke-width=".26459"><tspan dx="0" dy="0" fill="#000000" font-family="Arial" font-size="3.5058px" font-weight="400" stroke-width=".26459">30</tspan></tspan></text>
<text x="48.43837" y="5.6404133" fill="#000000" font-family="Arial" font-size="3.5058px" font-weight="400" letter-spacing="0px" stroke-width=".26459" word-spacing="0px" style="line-height:125%" xml:space="preserve"><tspan x="48.43837" y="5.6404133" stroke-width=".26459"><tspan dx="0" dy="0" fill="#000000" font-family="Arial" font-size="3.5058px" font-weight="400" stroke-width=".26459">Nein, alles in Ordnung</tspan></tspan></text>
<text x="41.372532" y="11.859399" fill="#000000" font-family="Arial" font-size="3.5058px" font-weight="400" letter-spacing="0px" stroke-width=".26459" word-spacing="0px" style="line-height:125%" xml:space="preserve"><tspan x="41.372532" y="11.859399" stroke-width=".26459"><tspan dx="0" dy="0" fill="#000000" font-family="Arial" font-size="3.5058px" font-weight="400" stroke-width=".26459">Ich benutze den Chat nicht</tspan></tspan></text>
<text x="50.015221" y="18.078413" fill="#000000" font-family="Arial" font-size="3.5058px" font-weight="400" letter-spacing="0px" stroke-width=".26459" word-spacing="0px" style="line-height:125%" xml:space="preserve"><tspan x="50.015221" y="18.078413" stroke-width=".26459"><tspan dx="0" dy="0" fill="#000000" font-family="Arial" font-size="3.5058px" font-weight="400" stroke-width=".26459">Die Plattform Discord</tspan></tspan></text>
<text x="40.99155" y="24.297401" fill="#000000" font-family="Arial" font-size="3.5058px" font-weight="400" letter-spacing="0px" stroke-width=".26459" word-spacing="0px" style="line-height:125%" xml:space="preserve"><tspan x="40.99155" y="24.297401" stroke-width=".26459"><tspan dx="0" dy="0" fill="#000000" font-family="Arial" font-size="3.5058px" font-weight="400" stroke-width=".26459">Die Moderation ist zu lasch</tspan></tspan></text>
<text x="41.778214" y="30.516417" fill="#000000" font-family="Arial" font-size="3.5058px" font-weight="400" letter-spacing="0px" stroke-width=".26459" word-spacing="0px" style="line-height:125%" xml:space="preserve"><tspan x="41.778214" y="30.516417" stroke-width=".26459"><tspan dx="0" dy="0" fill="#000000" font-family="Arial" font-size="3.5058px" font-weight="400" stroke-width=".26459">Die Moderation ist zu strikt</tspan></tspan></text>
<text x="59.024792" y="36.735432" fill="#000000" font-family="Arial" font-size="3.5058px" font-weight="400" letter-spacing="0px" stroke-width=".26459" word-spacing="0px" style="line-height:125%" xml:space="preserve"><tspan x="59.024792" y="36.735432" stroke-width=".26459"><tspan dx="0" dy="0" fill="#000000" font-family="Arial" font-size="3.5058px" font-weight="400" stroke-width=".26459">Zu viele Kanäle</tspan></tspan></text>
<text x="57.063423" y="42.954418" fill="#000000" font-family="Arial" font-size="3.5058px" font-weight="400" letter-spacing="0px" stroke-width=".26459" word-spacing="0px" style="line-height:125%" xml:space="preserve"><tspan x="57.063423" y="42.954418" stroke-width=".26459"><tspan dx="0" dy="0" fill="#000000" font-family="Arial" font-size="3.5058px" font-weight="400" stroke-width=".26459">Zu wenig Kanäle</tspan></tspan></text>
<text x="59.811447" y="49.173428" fill="#000000" font-family="Arial" font-size="3.5058px" font-weight="400" letter-spacing="0px" stroke-width=".26459" word-spacing="0px" style="line-height:125%" xml:space="preserve"><tspan x="59.811447" y="49.173428" stroke-width=".26459"><tspan dx="0" dy="0" fill="#000000" font-family="Arial" font-size="3.5058px" font-weight="400" stroke-width=".26459">Zu viel Offtopic</tspan></tspan></text>
<text x="40.003819" y="55.392418" fill="#000000" font-family="Arial" font-size="3.5058px" font-weight="400" letter-spacing="0px" stroke-width=".26459" word-spacing="0px" style="line-height:125%" xml:space="preserve"><tspan x="40.003819" y="55.392418" stroke-width=".26459"><tspan dx="0" dy="0" fill="#000000" font-family="Arial" font-size="3.5058px" font-weight="400" stroke-width=".26459">Ich mag den Bot KIRA nicht</tspan></tspan></text>
<text x="31.576313" y="61.611427" fill="#000000" font-family="Arial" font-size="3.5058px" font-weight="400" letter-spacing="0px" stroke-width=".26459" word-spacing="0px" style="line-height:125%" xml:space="preserve"><tspan x="31.576313" y="61.611427" stroke-width=".26459"><tspan dx="0" dy="0" fill="#000000" font-family="Arial" font-size="3.5058px" font-weight="400" stroke-width=".26459">KIRA hat zu wenige Kommandos</tspan></tspan></text>
<text x="35.499031" y="67.830414" fill="#000000" font-family="Arial" font-size="3.5058px" font-weight="400" letter-spacing="0px" stroke-width=".26459" word-spacing="0px" style="line-height:125%" xml:space="preserve"><tspan x="35.499031" y="67.830414" stroke-width=".26459"><tspan dx="0" dy="0" fill="#000000" font-family="Arial" font-size="3.5058px" font-weight="400" stroke-width=".26459">KIRA hat zu viele Kommandos</tspan></tspan></text>
<text x="30.606216" y="74.049423" fill="#000000" font-family="Arial" font-size="3.5058px" font-weight="400" letter-spacing="0px" stroke-width=".26459" word-spacing="0px" style="line-height:125%" xml:space="preserve"><tspan x="30.606216" y="74.049423" stroke-width=".26459"><tspan dx="0" dy="0" fill="#000000" font-family="Arial" font-size="3.5058px" font-weight="400" stroke-width=".26459">Mir sind manche User zu kindisch</tspan></tspan></text>
<text x="35.506092" y="80.26844" fill="#000000" font-family="Arial" font-size="3.5058px" font-weight="400" letter-spacing="0px" stroke-width=".26459" word-spacing="0px" style="line-height:125%" xml:space="preserve"><tspan x="35.506092" y="80.26844" stroke-width=".26459"><tspan dx="0" dy="0" fill="#000000" font-family="Arial" font-size="3.5058px" font-weight="400" stroke-width=".26459">Mir sind manche User zu ernst</tspan></tspan></text>
<text x="3.3482313" y="86.487434" fill="#000000" font-family="Arial" font-size="3.5058px" font-weight="400" letter-spacing="0px" stroke-width=".26459" word-spacing="0px" style="line-height:125%" xml:space="preserve"><tspan x="3.3482313" y="86.487434" stroke-width=".26459"><tspan dx="0" dy="0" fill="#000000" font-family="Arial" font-size="3.5058px" font-weight="400" stroke-width=".26459">Ich habe ein Problem mit einem o. mehreren Usern</tspan></tspan></text>
<text x="0.99530113" y="92.706451" fill="#000000" font-family="Arial" font-size="3.5058px" font-weight="400" letter-spacing="0px" stroke-width=".26459" word-spacing="0px" style="line-height:125%" xml:space="preserve"><tspan x="0.99530113" y="92.706451" stroke-width=".26459"><tspan dx="0" dy="0" fill="#000000" font-family="Arial" font-size="3.5058px" font-weight="400" stroke-width=".26459">Ich habe ein Problem mit einem o. mehreren Admins</tspan></tspan></text>
<text x="9.6203547" y="98.92543" fill="#000000" font-family="Arial" font-size="3.5058px" font-weight="400" letter-spacing="0px" stroke-width=".26459" word-spacing="0px" style="line-height:125%" xml:space="preserve"><tspan x="9.6203547" y="98.92543" stroke-width=".26459"><tspan dx="0" dy="0" fill="#000000" font-family="Arial" font-size="3.5058px" font-weight="400" stroke-width=".26459">Der Chat ist zu relevant gegenüber dem Forum</tspan></tspan></text>
</svg>
