<?xml version="1.0" encoding="UTF-8"?>
<svg width="424.85" height="247.4" version="1.1" viewBox="0 0 112.41 65.459" xmlns="http://www.w3.org/2000/svg" xmlns:cc="http://creativecommons.org/ns#" xmlns:dc="http://purl.org/dc/elements/1.1/" xmlns:rdf="http://www.w3.org/1999/02/22-rdf-syntax-ns#">
<metadata>
<rdf:RDF>
<cc:Work rdf:about="">
<dc:format>image/svg+xml</dc:format>
<dc:type rdf:resource="http://purl.org/dc/dcmitype/StillImage"/>
<dc:title/>
</cc:Work>
</rdf:RDF>
</metadata>
<g transform="translate(94.303 20.698)">
<path d="m-63.438 13.901 22.245 19.277c10.646-12.287 9.3155-30.875-2.9685-41.522-5.3522-4.6379-12.194-7.1884-19.277-7.1884z" fill="#4285f4" fill-rule="evenodd"/>
<path d="m-63.353 13.901-0.0291-0.0635 22.245 19.277-0.11906 0.01058 0.48946-0.57941 0.47357-0.58999 0.45242-0.59528 0.43918-0.60322 0.41538-0.6138 0.40479-0.62174 0.38098-0.62438 0.3704-0.63761 0.34658-0.64026 0.33336-0.64555 0.31748-0.65349 0.29632-0.65878 0.28045-0.66407 0.26457-0.66672 0.2434-0.67465 0.23018-0.67994 0.2143-0.67994 0.19578-0.68523 0.17461-0.68788 0.16139-0.69317 0.14287-0.69582 0.12964-0.69582 0.10847-0.69846 0.0926-0.70376 0.0767-0.70111 0.0609-0.70111 0.0423-0.70375 0.0212-0.7064 8e-3 -0.7064-8e-3 -0.70376-0.0238-0.70111-0.0397-0.7064-0.0609-0.70111-0.0741-0.69846-0.0926-0.69847-0.10847-0.69846-0.127-0.69317-0.14287-0.69053-0.15874-0.68788-0.17462-0.68524-0.19049-0.67994-0.20901-0.6773-0.22488-0.66936-0.2434-0.66936-0.25664-0.66142-0.27515-0.65613-0.29102-0.65349-0.30426-0.6429-0.32542-0.63761-0.34129-0.63232-0.35453-0.62703-0.37304-0.61645-0.38892-0.60851-0.40479-0.60322-0.42331-0.59264-0.43654-0.5847-0.45506-0.57676-0.46829-0.56618-0.48681-0.5556-0.50268-0.54766-0.51856-0.53443-0.53443-0.52914-0.54766-0.51327-0.56882-0.50533-1.0107-0.83339-1.0503-0.79371-1.0821-0.74344-1.1085-0.69053-1.1403-0.6429-1.1641-0.58734-1.1906-0.53443-1.2091-0.48416-1.2302-0.42596-1.2514-0.37569-1.262-0.31484-1.2832-0.26192-1.2911-0.20372-1.3043-0.14816-1.3149-0.08995-1.3202-0.0291 0.0847-0.08466zm-0.16933-29.433c0-0.02116 0.0106-0.04233 0.0265-0.0582s0.0397-0.02646 0.0608-0.02646l1.3308 0.03175 1.3202 0.08995 1.3096 0.14816 1.3017 0.20372 1.2884 0.26192 1.2726 0.32013 1.2567 0.37569 1.2355 0.43125 1.2197 0.48416 1.1958 0.53972 1.1694 0.59264 1.1456 0.6429 1.1191 0.69582 1.0874 0.74873 1.0556 0.799 1.0159 0.83869 0.56883 0.50533 0.55295 0.51856 0.53708 0.52914 0.5212 0.53972 0.50797 0.54766 0.48681 0.56089 0.47358 0.57147 0.45506 0.57676 0.44183 0.58999 0.42331 0.59793 0.40479 0.60322 0.39421 0.6138 0.37305 0.62174 0.35981 0.62703 0.34129 0.63761 0.32543 0.6429 0.30954 0.64555 0.29103 0.65613 0.27515 0.66142 0.26192 0.66672 0.24341 0.66936 0.22488 0.67465 0.20901 0.68259 0.19314 0.68524 0.17726 0.68524 0.15874 0.69317 0.14287 0.69582 0.12699 0.69847 0.10848 0.69846 0.0926 0.70375 0.0741 0.70376 0.0609 0.7064 0.0423 0.7064 0.0238 0.7064 8e-3 0.70905-8e-3 0.71169-0.0238 0.7064-0.0423 0.70905-0.0609 0.7064-0.0767 0.7064-0.0926 0.70376-0.10847 0.70376-0.12964 0.70111-0.14287 0.70111-0.16403 0.69317-0.17727 0.69317-0.19578 0.69052-0.2143 0.68524-0.23017 0.67994-0.2487 0.67994-0.26457 0.67201-0.28044 0.66936-0.30161 0.66142-0.31748 0.65613-0.33336 0.65084-0.35188 0.64555-0.3704 0.63761-0.38627 0.62968-0.40479 0.62438-0.42067 0.61645-0.43918 0.60851-0.45771 0.59793-0.47358 0.59264-0.48945 0.57941c-0.0159 0.01852-0.037 0.0291-0.0582 0.0291-0.0238 0.0026-0.045-0.0053-0.0609-0.01852l-22.245-19.277c-0.0212-0.01588-0.0317-0.03968-0.0317-0.06614z" fill="#2e60b3" stroke="#2e60b3" stroke-linejoin="bevel" stroke-width=".042331px"/>
<path d="m-63.438 13.901-29.134-4.1881c-2.3123 16.091 8.8552 31.01 24.946 33.323 9.9161 1.426 19.874-2.2885 26.433-9.8579z" fill="#ea4335" fill-rule="evenodd"/>
<path d="m-63.491 13.968 0.0423 0.01852-29.134-4.1881 0.0952-0.07143-0.0979 0.75402-0.0794 0.74873-0.0609 0.74608-0.0397 0.74344-0.0212 0.7408-3e-3 0.74079 0.0159 0.7355 0.0344 0.73286 0.0529 0.72757 0.0688 0.72228 0.0873 0.72228 0.10583 0.71434 0.12435 0.70905 0.14022 0.70376 0.1561 0.70375 0.17461 0.69317 0.18785 0.68788 0.20901 0.67994 0.22224 0.67465 0.24075 0.67201 0.52121 1.3176 0.58734 1.2858 0.64555 1.2567 0.70376 1.2197 0.76196 1.1853 0.82016 1.1482 0.87044 1.1085 0.9207 1.0636 0.97361 1.0186 1.0239 0.97362 1.0662 0.92335 1.1165 0.87308 1.1615 0.82281 1.2038 0.76461 1.2408 0.71169 1.2858 0.65084 1.3202 0.58734 0.67201 0.27251 0.68788 0.25134 0.69053 0.24076 0.70111 0.22224 0.70904 0.20372 0.71699 0.19049 0.72492 0.16668 0.73285 0.15345 0.7408 0.13493 0.74873 0.11906 0.93658 0.12699 0.92599 0.08731 0.92599 0.06085 0.92335 0.02646h0.9207l0.91806-0.0291 0.91806-0.05291 0.91276-0.08466 0.90218-0.11376 0.90219-0.14287 0.89689-0.16932 0.88895-0.19843 0.88102-0.22488 0.87043-0.2487 0.86515-0.2778 0.85455-0.30425 0.84663-0.32806 0.83339-0.35717 0.82546-0.38363 0.81223-0.40744 0.799-0.43389 0.78577-0.4577 0.77519-0.48416 0.75931-0.50533 0.74344-0.53443 0.72757-0.5556 0.71434-0.57676 0.69317-0.60586 0.68259-0.62703 0.65878-0.65084 0.6429-0.67465 0.62439-0.69582 8e-3 0.1217zm22.353 19.147c0.0185 0.01588 0.0291 0.03704 0.0291 0.05821 3e-3 0.02381-5e-3 0.04498-0.0212 0.06349l-0.62438 0.70111-0.64819 0.67465-0.66407 0.65614-0.68524 0.63232-0.69582 0.60586-0.71963 0.58205-0.73286 0.55824-0.74873 0.53708-0.7646 0.51062-0.77519 0.48416-0.79107 0.463-0.80429 0.43389-0.81752 0.41273-0.83075 0.38363-0.83868 0.35717-0.85192 0.33336-0.85985 0.30426-0.87043 0.2778-0.87573 0.25134-0.8863 0.22753-0.89425 0.19843-0.89954 0.16932-0.90747 0.14287-0.91012 0.11377-0.91805 0.08466-0.92071 0.05556-0.92335 0.0291h-0.92599l-0.93128-0.0291-0.92864-0.06085-0.93393-0.08731-0.93923-0.12699-0.75137-0.11906-0.74609-0.13493-0.73815-0.15345-0.73021-0.17197-0.71698-0.19049-0.71434-0.20372-0.7064-0.22224-0.69582-0.2434-0.69053-0.25399-0.6773-0.27251-1.3281-0.59264-1.2911-0.65613-1.2514-0.71434-1.2091-0.76725-1.1668-0.8281-1.1218-0.87837-1.0768-0.92864-1.0292-0.97891-0.97891-1.0292-0.92599-1.0689-0.87573-1.1138-0.82017-1.1535-0.76725-1.1932-0.70904-1.2276-0.65084-1.262-0.58735-1.2964-0.52649-1.3228-0.24076-0.67465-0.22224-0.6773-0.20901-0.68524-0.19314-0.69317-0.17461-0.69847-0.1561-0.70375-0.14022-0.70905-0.12435-0.71434-0.10582-0.71963-0.0873-0.72492-0.0688-0.72492-0.0529-0.73286-0.037-0.73815-0.0159-0.7408 3e-3 -0.74079 0.0238-0.74609 0.0397-0.74873 0.0608-0.75138 0.0794-0.75402 0.0979-0.75403c3e-3 -0.02116 0.0132-0.04233 0.0317-0.05556s0.0423-0.01852 0.0635-0.01588l29.134 4.1881c0.0159 0.0026 0.0317 0.0079 0.0423 0.01852z" fill="#ac2f24" stroke="#ac2f24" stroke-linejoin="bevel" stroke-width=".042331px"/>
<path d="m-63.438 13.901-8.2916-28.243c-11.056 3.2463-19.202 12.649-20.843 24.055z" fill="#fbbc04" fill-rule="evenodd"/>
<path d="m-63.425 13.819-0.0926 0.10583-8.2916-28.243 0.10583 0.0582-1.0292 0.32277-1.0054 0.35717-0.98949 0.38892-0.97097 0.42596-0.9498 0.4577-0.93129 0.48945-0.90747 0.5212-0.88896 0.55295-0.86514 0.58205-0.84133 0.60851-0.81752 0.64026-0.79635 0.66672-0.76726 0.69317-0.74608 0.71963-0.71699 0.74873-0.69317 0.7699-0.66142 0.79106-0.63497 0.81752-0.60851 0.83869-0.57676 0.85985-0.54501 0.88102-0.51856 0.90218-0.48416 0.9207-0.45242 0.93922-0.41802 0.95774-0.38891 0.97362-0.35188 0.99214-0.31749 1.0054-0.28308 1.0212-0.24605 1.0345-0.20901 1.0477-0.17197 1.0609-0.0714-0.09789zm-29.158-4.0215c-0.0238-0.0026-0.0423-0.01588-0.0556-0.03439-0.0132-0.01587-0.0185-0.03969-0.0159-0.06349l0.17197-1.0662 0.20901-1.053 0.25134-1.0398 0.28309-1.0265 0.31748-1.0107 0.35717-0.99743 0.38892-0.97891 0.42331-0.96303 0.45241-0.94451 0.48946-0.92599 0.51855-0.90747 0.55031-0.88631 0.58205-0.86514 0.60851-0.84398 0.64026-0.82281 0.66671-0.79636 0.69318-0.77519 0.72227-0.75138 0.75138-0.72228 0.77254-0.69846 0.80165-0.67201 0.82281-0.64026 0.84662-0.6138 0.87044-0.58734 0.89424-0.55295 0.91277-0.52649 0.93657-0.48945 0.9551-0.463 0.97626-0.42596 0.99478-0.39421 1.0107-0.35717 1.0292-0.32278c0.0212-0.0079 0.045-0.0053 0.0661 0.0053 0.0185 0.01058 0.0344 0.0291 0.0397 0.05027l8.2916 28.243c8e-3 0.0291 3e-3 0.0582-0.0159 0.07937-0.0185 0.02381-0.0476 0.03439-0.0767 0.0291z" fill="#b98902" stroke="#b98902" stroke-linejoin="bevel" stroke-width=".042331px"/>
<path d="m-63.438 13.901v-29.433c-2.8071 0-5.5983 0.3995-8.2916 1.1906z" fill="#34a853" fill-rule="evenodd"/>
<path d="m-63.356 13.878-0.16668 0.02381v-29.433l0.0873 0.08466-1.053 0.01852-1.045 0.05556-1.0424 0.09525-1.0398 0.12964-1.0318 0.16668-1.0265 0.20636-1.0212 0.24076-1.0106 0.27515 0.0582-0.10583zm-8.453-28.195c-8e-3 -0.02117-5e-3 -0.04498 8e-3 -0.0635 0.0106-0.02117 0.0291-0.03439 0.0503-0.03969l1.016-0.28044 1.0265-0.24076 1.0318-0.20636 1.0424-0.16668 1.045-0.12964 1.0477-0.09525 1.0503-0.05821 1.053-0.01852c0.0212 0 0.045 0.01058 0.0609 0.02646 0.0159 0.01587 0.0238 0.03704 0.0238 0.05821v29.433c0 0.04233-0.0291 0.07937-0.0714 0.08466-0.0423 0.0053-0.082-0.01852-0.0926-0.06085z" fill="#237a3b" stroke="#237a3b" stroke-linejoin="bevel" stroke-width=".042331px"/>
<text x="-50.169975" y="7.2527938" fill="#000000" font-family="Arial" font-size="3.5057px" font-weight="400" letter-spacing="0px" stroke-width=".26458" word-spacing="0px" style="line-height:125%" xml:space="preserve"><tspan x="-50.169975" y="7.2527938" stroke-width=".26458"><tspan dx="0" dy="0" fill="#000000" font-family="Arial" font-size="3.5057px" font-weight="400" stroke-width=".26458">16; 36%</tspan></tspan></text>
<text x="-82.447464" y="30.534916" fill="#000000" font-family="Arial" font-size="3.5057px" font-weight="400" letter-spacing="0px" stroke-width=".26458" word-spacing="0px" style="line-height:125%" xml:space="preserve"><tspan x="-82.447464" y="30.534916" stroke-width=".26458"><tspan dx="0" dy="0" fill="#000000" font-family="Arial" font-size="3.5057px" font-weight="400" stroke-width=".26458">18; 41%</tspan></tspan></text>
<text x="-86.952209" y="2.2259727" fill="#000000" font-family="Arial" font-size="3.5057px" font-weight="400" letter-spacing="0px" stroke-width=".26458" word-spacing="0px" style="line-height:125%" xml:space="preserve"><tspan x="-86.952209" y="2.2259727" stroke-width=".26458"><tspan dx="0" dy="0" fill="#000000" font-family="Arial" font-size="3.5057px" font-weight="400" stroke-width=".26458">8; 18%</tspan></tspan></text>
<text x="-72.937073" y="-16.823038" fill="#000000" font-family="Arial" font-size="3.5057px" font-weight="400" letter-spacing="0px" stroke-width=".26458" word-spacing="0px" style="line-height:125%" xml:space="preserve"><tspan x="-72.937073" y="-16.823038" stroke-width=".26458"><tspan dx="0" dy="0" fill="#000000" font-family="Arial" font-size="3.5057px" font-weight="400" stroke-width=".26458">2; 5%</tspan></tspan></text>
<path d="m-28.639-9.2405v1.7356h1.7779v-1.7356z" fill="#4285f4" fill-rule="evenodd"/>
<path d="m-28.724-9.2405c0-0.044977 0.03968-0.084662 0.08466-0.084662h1.7779c0.04762 0 0.08466 0.039685 0.08466 0.084662v1.7356c0 0.047622-0.03704 0.084662-0.08466 0.084662h-1.7779c-0.04498 0-0.08466-0.03704-0.08466-0.084662zm0.16932 1.7356-0.08466-0.084662h1.7779l-0.08466 0.084662v-1.7356l0.08466 0.084663h-1.7779l0.08466-0.084663z" fill="#2e60b3" stroke="#2e60b3" stroke-linejoin="bevel" stroke-width=".042331px"/>
<text x="-26.059769" y="-7.2575078" fill="#000000" font-family="Arial" font-size="3.5057px" font-weight="400" letter-spacing="0px" stroke-width=".26458" word-spacing="0px" style="line-height:125%" xml:space="preserve"><tspan x="-26.059769" y="-7.2575078" stroke-width=".26458"><tspan dx="0" dy="0" fill="#000000" font-family="Arial" font-size="3.5057px" font-weight="400" stroke-width=".26458">Ja, gerne</tspan></tspan></text>
<path d="m-28.639 5.3638v1.7356h1.7779v-1.7356z" fill="#ea4335" fill-rule="evenodd"/>
<path d="m-28.724 5.3638c0-0.04498 0.03968-0.08466 0.08466-0.08466h1.7779c0.04762 0 0.08466 0.03969 0.08466 0.08466v1.7356c0 0.04762-0.03704 0.08466-0.08466 0.08466h-1.7779c-0.04498 0-0.08466-0.03704-0.08466-0.08466zm0.16932 1.7356-0.08466-0.08466h1.7779l-0.08466 0.08466v-1.7356l0.08466 0.08466h-1.7779l0.08466-0.08466z" fill="#ac2f24" stroke="#ac2f24" stroke-linejoin="bevel" stroke-width=".042331px"/>
<text x="-26.059769" y="7.3495669" fill="#000000" font-family="Arial" font-size="3.5057px" font-weight="400" letter-spacing="0px" stroke-width=".26458" word-spacing="0px" style="line-height:125%" xml:space="preserve"><tspan x="-26.059769" y="7.3495669" stroke-width=".26458"><tspan dx="0" dy="0" fill="#000000" font-family="Arial" font-size="3.5057px" font-weight="400" stroke-width=".26458">Nur wenn es sich ergibt, ich</tspan></tspan></text>
<text x="-26.059769" y="11.413357" fill="#000000" font-family="Arial" font-size="3.5057px" font-weight="400" letter-spacing="0px" stroke-width=".26458" word-spacing="0px" style="line-height:125%" xml:space="preserve"><tspan x="-26.059769" y="11.413357" stroke-width=".26458"><tspan dx="0" dy="0" fill="#000000" font-family="Arial" font-size="3.5057px" font-weight="400" stroke-width=".26458">arbeite nicht darauf hin</tspan></tspan></text>
<path d="m-28.639 19.968v1.7779h1.7779v-1.7779z" fill="#fbbc04" fill-rule="evenodd"/>
<path d="m-28.724 19.968c0-0.04498 0.03968-0.08466 0.08466-0.08466h1.7779c0.04762 0 0.08466 0.03968 0.08466 0.08466v1.7779c0 0.04762-0.03704 0.08466-0.08466 0.08466h-1.7779c-0.04498 0-0.08466-0.03704-0.08466-0.08466zm0.16932 1.7779-0.08466-0.08466h1.7779l-0.08466 0.08466v-1.7779l0.08466 0.08466h-1.7779l0.08466-0.08466z" fill="#b98902" stroke="#b98902" stroke-linejoin="bevel" stroke-width=".042331px"/>
<text x="-26.059769" y="21.956638" fill="#000000" font-family="Arial" font-size="3.5057px" font-weight="400" letter-spacing="0px" stroke-width=".26458" word-spacing="0px" style="line-height:125%" xml:space="preserve"><tspan x="-26.059769" y="21.956638" stroke-width=".26458"><tspan dx="0" dy="0" fill="#000000" font-family="Arial" font-size="3.5057px" font-weight="400" stroke-width=".26458">Nein, darauf habe ich keine</tspan></tspan></text>
<text x="-26.059769" y="26.020428" fill="#000000" font-family="Arial" font-size="3.5057px" font-weight="400" letter-spacing="0px" stroke-width=".26458" word-spacing="0px" style="line-height:125%" xml:space="preserve"><tspan x="-26.059769" y="26.020428" stroke-width=".26458"><tspan dx="0" dy="0" fill="#000000" font-family="Arial" font-size="3.5057px" font-weight="400" stroke-width=".26458">Lust</tspan></tspan></text>
<path d="m-28.639 34.572v1.7779h1.7779v-1.7779z" fill="#34a853" fill-rule="evenodd"/>
<path d="m-28.724 34.572c0-0.04498 0.03968-0.08466 0.08466-0.08466h1.7779c0.04762 0 0.08466 0.03968 0.08466 0.08466v1.7779c0 0.04762-0.03704 0.08466-0.08466 0.08466h-1.7779c-0.04498 0-0.08466-0.03704-0.08466-0.08466zm0.16932 1.7779-0.08466-0.08466h1.7779l-0.08466 0.08466v-1.7779l0.08466 0.08466h-1.7779l0.08466-0.08466z" fill="#237a3b" stroke="#237a3b" stroke-linejoin="bevel" stroke-width=".042331px"/>
<text x="-26.059769" y="36.563717" fill="#000000" font-family="Arial" font-size="3.5057px" font-weight="400" letter-spacing="0px" stroke-width=".26458" word-spacing="0px" style="line-height:125%" xml:space="preserve"><tspan x="-26.059769" y="36.563717" stroke-width=".26458"><tspan dx="0" dy="0" fill="#000000" font-family="Arial" font-size="3.5057px" font-weight="400" stroke-width=".26458">Vielleicht</tspan></tspan></text>
</g>
</svg>
