<?xml version="1.0" encoding="UTF-8"?>
<svg width="424.44" height="251.38" version="1.1" viewBox="0 0 112.3 66.512" xmlns="http://www.w3.org/2000/svg" xmlns:cc="http://creativecommons.org/ns#" xmlns:dc="http://purl.org/dc/elements/1.1/" xmlns:rdf="http://www.w3.org/1999/02/22-rdf-syntax-ns#">
<metadata>
<rdf:RDF>
<cc:Work rdf:about="">
<dc:format>image/svg+xml</dc:format>
<dc:type rdf:resource="http://purl.org/dc/dcmitype/StillImage"/>
<dc:title/>
</cc:Work>
</rdf:RDF>
</metadata>
<g transform="translate(91.456 -16.375)">
<path d="m-60.591 52.022-24.536-16.258c-8.9795 13.551-5.2729 31.814 8.2784 40.794 13.551 8.9795 31.814 5.2729 40.794-8.2784 8.9795-13.551 5.2755-31.814-8.2757-40.794-4.8231-3.1934-10.477-4.8972-16.26-4.8972z" fill="#4285f4" fill-rule="evenodd"/>
<path d="m-60.507 52.022c0 0.03175-0.01587 0.06085-0.04233 0.07673-0.0291 0.01323-0.06085 0.01323-0.08731-0.0053l-24.536-16.258 0.11641-0.02381-0.41273 0.63761-0.38891 0.6429-0.37569 0.6482-0.35188 0.65878-0.33865 0.66142-0.32013 0.66407-0.29896 0.67465-0.28309 0.67465-0.26457 0.67994-0.24605 0.68259-0.23018 0.69053-0.21165 0.69053-0.19314 0.69317-0.17197 0.69846-0.15874 0.70111-0.14022 0.70111-0.12435 0.70111-0.10583 0.7064-0.0873 0.70376-0.0714 0.70905-0.0529 0.7064-0.037 0.70905-0.0185 0.7064-3e-3 0.70905 0.0132 0.70376 0.0318 0.7064 0.0503 0.70111 0.0661 0.70111 0.082 0.70375 0.0979 0.69582 0.11641 0.69317 0.13228 0.69053 0.14816 0.69053 0.16403 0.68524 0.17991 0.67994 0.19578 0.6773 0.2143 0.67201 0.23018 0.66672 0.2434 0.66142 0.26193 0.65613 0.28044 0.65084 0.29367 0.6429 0.63232 1.2673 0.69582 1.2408 0.76196 1.2064 0.82017 1.1747 0.88102 1.1376 0.94186 1.1006 1.0027 1.0556 1.0609 1.0133 1.1191 0.96568 1.18 0.91806 1.2382 0.86514 0.64291 0.41537 0.6429 0.38892 0.6482 0.37569 0.65877 0.35188 0.66143 0.33865 0.66407 0.32013 0.67465 0.29896 0.67465 0.28309 0.67995 0.26457 0.68259 0.24605 0.69052 0.23018 0.69053 0.20901 0.69317 0.19578 0.69847 0.17197 0.7011 0.15874 0.70111 0.14022 0.70111 0.12435 0.70641 0.10583 0.70375 0.08731 0.70905 0.07144 0.7064 0.05291 0.70905 0.03704 0.7064 0.01587 0.70905 0.0026 0.70375-0.01588 0.7064-0.0291 0.70111-0.04762 0.70111-0.06614 0.70375-0.08202 0.69582-0.10054 0.69317-0.11377 0.69052-0.13229 0.69053-0.14816 0.68523-0.16668 0.67994-0.17991 0.6773-0.19578 0.67201-0.2143 0.66671-0.23017 0.66143-0.24605 0.65613-0.26192 0.65084-0.2778 0.6429-0.29367 1.2673-0.63497 1.2408-0.69582 1.2064-0.76196 1.1747-0.82017 1.1377-0.88102 1.1006-0.94451 1.0556-1.0027 1.0133-1.0636 0.96568-1.1191 0.91806-1.1826 0.86514-1.2382 0.41537-0.62968 0.38892-0.6429 0.37569-0.65084 0.35188-0.65613 0.33865-0.66142 0.32013-0.66407 0.29896-0.67465 0.28309-0.67465 0.26457-0.67994 0.24605-0.68259 0.23018-0.69053 0.21166-0.69052 0.19314-0.69317 0.17197-0.69847 0.15874-0.70111 0.14022-0.70111 0.12435-0.70375 0.10583-0.70376 0.08731-0.70375 0.07143-0.70905 0.05291-0.70905 0.03704-0.7064 0.01587-0.7064 0.0026-0.70905-0.01323-0.7064-0.0291-0.70376-0.05027-0.70375-0.0635-0.70376-0.08466-0.69846-0.09789-0.69582-0.11641-0.69582-0.13229-0.69317-0.14816-0.68788-0.16403-0.68523-0.17991-0.67994-0.19578-0.6773-0.2143-0.67201-0.23018-0.66672-0.24605-0.66142-0.26192-0.65613-0.2778-0.65084-0.29367-0.6429-0.63232-1.2699-0.69582-1.2408-0.76196-1.2064-0.82017-1.1773-0.88366-1.1376-0.94187-1.1006-1.0027-1.0583-1.0609-1.0133-1.1218-0.96832-1.18-0.91806-1.2382-0.86779-0.90747-0.56618-0.93393-0.54501-0.94716-0.50797-0.96303-0.47358-0.97891-0.43654-0.99214-0.40215-1.0054-0.36246-1.0186-0.32807-1.0292-0.29103-1.0398-0.25134-1.0503-0.2143-1.0583-0.17726-1.0636-0.13758-1.0689-0.09789-1.0768-0.05821-1.0794-0.02117 0.08466-0.08466zm-0.16932-29.433c0-0.02117 0.01058-0.04233 0.02645-0.05821 0.01587-0.01587 0.03968-0.02646 0.06085-0.02646l1.0847 0.02381 1.0821 0.05821 1.0794 0.09789 1.0689 0.13758 1.0636 0.17726 1.0556 0.2143 1.045 0.25663 1.0345 0.29103 1.0239 0.32807 1.0133 0.36775 1.0001 0.40215 0.9842 0.44183 0.96832 0.47358 0.95245 0.51326 0.93393 0.54501 0.91806 0.57147 1.2435 0.87308 1.1853 0.92335 1.1324 0.97362 1.0662 1.0212 1.008 1.0662 0.94716 1.1059 0.88895 1.1429 0.82546 1.1826 0.76196 1.217 0.70111 1.2461 0.63761 1.2752 0.29367 0.6482 0.2778 0.65613 0.26457 0.65613 0.2487 0.66672 0.23018 0.67201 0.2143 0.6773 0.19578 0.6773 0.1852 0.68523 0.16403 0.69053 0.14816 0.69053 0.13228 0.69582 0.11641 0.70111 0.09789 0.70111 0.08466 0.70376 0.06349 0.70376 0.05027 0.70905 0.03175 0.70905 0.01323 0.71169-0.0026 0.70905-0.01852 0.71169-0.03704 0.71169-0.05291 0.71434-0.07143 0.70905-0.08731 0.70905-0.10583 0.70905-0.12435 0.70905-0.14022 0.7064-0.15874 0.70111-0.17726 0.70376-0.19314 0.69846-0.21165 0.69582-0.23018 0.69053-0.25134 0.68788-0.26457 0.68524-0.28309 0.67994-0.30426 0.67465-0.32013 0.66936-0.33865 0.66672-0.35717 0.65878-0.37569 0.65349-0.39421 0.6482-0.41538 0.63497-0.87043 1.2435-0.92335 1.1879-0.97097 1.1297-1.0212 1.0689-1.0636 1.008-1.1059 0.94981-1.1429 0.88631-1.18 0.82546-1.217 0.76196-1.2461 0.70111-1.2726 0.64026-0.6482 0.29367-0.65613 0.2778-0.65613 0.26457-0.66672 0.2487-0.672 0.23017-0.6773 0.2143-0.6773 0.19578-0.68523 0.1852-0.69053 0.16668-0.69317 0.14816-0.69317 0.13229-0.69846 0.11376-0.70111 0.10054-0.7064 0.08202-0.70376 0.06614-0.7064 0.04762-0.71169 0.03175-0.70905 0.01587-0.70905-0.0026-0.71169-0.01852-0.71434-0.03704-0.71168-0.05291-0.70905-0.07143-0.70905-0.08731-0.71169-0.10583-0.7064-0.12435-0.7064-0.14022-0.70111-0.15874-0.70376-0.17726-0.69846-0.19578-0.69582-0.20901-0.69052-0.23018-0.68788-0.25134-0.68524-0.26457-0.67994-0.28309-0.67466-0.30426-0.66936-0.32013-0.66671-0.33865-0.66143-0.35717-0.65084-0.37569-0.64819-0.39421-0.6482-0.41537-1.2435-0.87043-1.1853-0.92335-1.1297-0.97097-1.0662-1.0212-1.008-1.0636-0.94715-1.1059-0.88631-1.1429-0.82546-1.18-0.76196-1.217-0.70111-1.2461-0.63761-1.2726-0.29367-0.6482-0.28045-0.65613-0.26457-0.65614-0.24605-0.66671-0.23017-0.67201-0.2143-0.6773-0.19579-0.6773-0.1852-0.68523-0.16403-0.69053-0.14816-0.69317-0.13228-0.69317-0.11641-0.69847-0.0979-0.70111-0.082-0.7064-0.0661-0.70376-0.0503-0.7064-0.0344-0.71169-0.0132-0.70905 3e-3 -0.70905 0.0212-0.71169 0.037-0.71434 0.0529-0.71169 0.0714-0.70905 0.0873-0.70905 0.10583-0.71169 0.12435-0.7064 0.14022-0.7064 0.15874-0.70111 0.17726-0.70376 0.19314-0.69846 0.21166-0.69582 0.23017-0.69053 0.25134-0.68788 0.26457-0.68524 0.28309-0.67994 0.30426-0.67465 0.32013-0.66936 0.33864-0.66672 0.35717-0.66142 0.37569-0.65084 0.39421-0.6482 0.41273-0.63761c0.0106-0.01852 0.0318-0.03175 0.0529-0.03704 0.0212-0.0053 0.045 0 0.0635 0.01323l24.536 16.258-0.13228 0.06879z" fill="#2e60b3" stroke="#2e60b3" stroke-linejoin="bevel" stroke-width=".042331px"/>
<path d="m-60.591 52.022-7.1778-28.544c-7.1169 1.7885-13.305 6.1698-17.358 12.287z" fill="#ea4335" fill-rule="evenodd"/>
<path d="m-60.544 51.953-0.12964 0.08995-7.1778-28.544 0.10583 0.06085-1.3228 0.36511-1.2964 0.42596-1.2699 0.47887-1.2461 0.54237-1.2117 0.59264-1.1853 0.65084-1.1535 0.70111-1.1191 0.75402-1.0794 0.80165-1.045 0.85456-1.0054 0.90218-0.96568 0.94716-0.9207 0.99478-0.87837 1.0371-0.8281 1.0821-0.78313 1.1244-0.0238-0.11906zm-24.629-16.118c-0.0185-0.01323-0.0317-0.03175-0.037-0.05556-5e-3 -0.02117 0-0.04498 0.0132-0.0635l0.78842-1.1297 0.83339-1.0874 0.88366-1.0424 0.926-1.0001 0.97097-0.95245 1.0106-0.90747 1.0503-0.85985 1.09-0.80694 1.1244-0.75932 1.1588-0.7064 1.1906-0.65084 1.2223-0.59793 1.2514-0.54237 1.2779-0.48416 1.3043-0.42596 1.3228-0.36511c0.0212-0.0079 0.045-0.0053 0.0662 0.0079 0.0185 0.01058 0.0317 0.0291 0.0397 0.05291l7.1778 28.544c0.0079 0.03175-0.0053 0.06879-0.03439 0.08996-0.0291 0.01852-0.06614 0.01852-0.09525 0z" fill="#ac2f24" stroke="#ac2f24" stroke-linejoin="bevel" stroke-width=".042331px"/>
<path d="m-60.591 52.022-3.6167-29.211c-1.2012 0.14816-2.3891 0.3704-3.5611 0.66672z" fill="#fbbc04" fill-rule="evenodd"/>
<path d="m-60.507 52.004-0.16668 0.0291-3.6167-29.211 0.0952 0.07408-0.89953 0.12435-0.88896 0.15345-0.88631 0.17991-0.87837 0.20901 0.0635-0.10318zm-7.3445-28.505c-5e-3 -0.02116 0-0.04498 0.0106-0.0635 0.0132-0.01852 0.0317-0.03439 0.0529-0.03969l0.88366-0.20901 0.8916-0.17991 0.89425-0.15345 0.89953-0.12435c0.0238-0.0026 0.045 0.0026 0.0635 0.01587 0.0185 0.01323 0.0291 0.03439 0.0318 0.05821l3.6167 29.211c0.0053 0.04233-0.02381 0.08466-0.06879 0.0926-0.04233 0.0079-0.08466-0.01852-0.09789-0.0635z" fill="#b98902" stroke="#b98902" stroke-linejoin="bevel" stroke-width=".042331px"/>
<path d="m-60.591 52.022v-29.433c-1.2091 0-2.4155 0.07408-3.6167 0.22224z" fill="#34a853" fill-rule="evenodd"/>
<path d="m-60.507 52.014-0.16932 0.0079v-29.433l0.08731 0.08466-0.90747 0.01323-0.90218 0.04233-0.89954 0.06879-0.89953 0.09789 0.0741-0.0926zm-3.7833-29.193c-3e-3 -0.02116 3e-3 -0.04498 0.0159-0.06085 0.0159-0.01852 0.0344-0.0291 0.0582-0.03175l0.90483-0.09789 0.90483-0.06879 0.90747-0.04498 0.90747-0.01323c0.02381 0 0.04498 0.01058 0.06085 0.02646 0.01587 0.01587 0.02381 0.03704 0.02381 0.05821v29.433c0 0.04498-0.03439 0.08201-0.07937 0.08466-0.04233 0.0026-0.08202-0.0291-0.08731-0.07408z" fill="#237a3b" stroke="#237a3b" stroke-linejoin="bevel" stroke-width=".042331px"/>
<path d="m-66.073 23.134-1.6509-2.1589 0.0661 0.03175h-1.6086v-0.16932h1.6086c0.0264 0 0.0529 0.01323 0.0688 0.03439l1.6509 2.1589z" stroke="#000" stroke-linejoin="bevel" stroke-width=".042331px"/>
<text x="-53.673008" y="68.401581" fill="#000000" font-family="Arial" font-size="3.5057px" font-weight="400" letter-spacing="0px" stroke-width=".26458" word-spacing="0px" style="line-height:125%" xml:space="preserve"><tspan x="-53.673008" y="68.401581" stroke-width=".26458"><tspan dx="0" dy="0" fill="#000000" font-family="Arial" font-size="3.5057px" font-weight="400" stroke-width=".26458">43; 84%</tspan></tspan></text>
<text x="-79.872452" y="35.065819" fill="#000000" font-family="Arial" font-size="3.5057px" font-weight="400" letter-spacing="0px" stroke-width=".26458" word-spacing="0px" style="line-height:125%" xml:space="preserve"><tspan x="-79.872452" y="35.065819" stroke-width=".26458"><tspan dx="0" dy="0" fill="#000000" font-family="Arial" font-size="3.5057px" font-weight="400" stroke-width=".26458">6; 12%</tspan></tspan></text>
<text x="-78.82122" y="21.043627" fill="#000000" font-family="Arial" font-size="3.5057px" font-weight="400" letter-spacing="0px" stroke-width=".26458" word-spacing="0px" style="line-height:125%" xml:space="preserve"><tspan x="-78.82122" y="21.043627" stroke-width=".26458"><tspan dx="0" dy="0" fill="#000000" font-family="Arial" font-size="3.5057px" font-weight="400" stroke-width=".26458">1; 2%</tspan></tspan></text>
<text x="-66.651031" y="20.249918" fill="#000000" font-family="Arial" font-size="3.5057px" font-weight="400" letter-spacing="0px" stroke-width=".26458" word-spacing="0px" style="line-height:125%" xml:space="preserve"><tspan x="-66.651031" y="20.249918" stroke-width=".26458"><tspan dx="0" dy="0" fill="#000000" font-family="Arial" font-size="3.5057px" font-weight="400" stroke-width=".26458">1; 2%</tspan></tspan></text>
<path d="m-25.75 28.88v1.7356h1.7779v-1.7356z" fill="#4285f4" fill-rule="evenodd"/>
<path d="m-25.835 28.88c0-0.04498 0.03968-0.08466 0.08466-0.08466h1.7779c0.04762 0 0.08466 0.03969 0.08466 0.08466v1.7356c0 0.04762-0.03704 0.08466-0.08466 0.08466h-1.7779c-0.04498 0-0.08466-0.03704-0.08466-0.08466zm0.16932 1.7356-0.08466-0.08466h1.7779l-0.08466 0.08466v-1.7356l0.08466 0.08466h-1.7779l0.08466-0.08466z" fill="#2e60b3" stroke="#2e60b3" stroke-linejoin="bevel" stroke-width=".042331px"/>
<text x="-23.203737" y="30.873726" fill="#000000" font-family="Arial" font-size="3.5057px" font-weight="400" letter-spacing="0px" stroke-width=".26458" word-spacing="0px" style="line-height:125%" xml:space="preserve"><tspan x="-23.203737" y="30.873726" stroke-width=".26458"><tspan dx="0" dy="0" fill="#000000" font-family="Arial" font-size="3.5057px" font-weight="400" stroke-width=".26458">Deutsch (DE)</tspan></tspan></text>
<path d="m-25.75 43.484v1.7356h1.7779v-1.7356z" fill="#ea4335" fill-rule="evenodd"/>
<path d="m-25.835 43.484c0-0.04498 0.03968-0.08466 0.08466-0.08466h1.7779c0.04762 0 0.08466 0.03969 0.08466 0.08466v1.7356c0 0.04762-0.03704 0.08466-0.08466 0.08466h-1.7779c-0.04498 0-0.08466-0.03704-0.08466-0.08466zm0.16932 1.7356-0.08466-0.08466h1.7779l-0.08466 0.08466v-1.7356l0.08466 0.08466h-1.7779l0.08466-0.08466z" fill="#ac2f24" stroke="#ac2f24" stroke-linejoin="bevel" stroke-width=".042331px"/>
<text x="-23.203737" y="45.480804" fill="#000000" font-family="Arial" font-size="3.5057px" font-weight="400" letter-spacing="0px" stroke-width=".26458" word-spacing="0px" style="line-height:125%" xml:space="preserve"><tspan x="-23.203737" y="45.480804" stroke-width=".26458"><tspan dx="0" dy="0" fill="#000000" font-family="Arial" font-size="3.5057px" font-weight="400" stroke-width=".26458">Englisch (EN)</tspan></tspan></text>
<path d="m-25.75 58.089v1.7779h1.7779v-1.7779z" fill="#fbbc04" fill-rule="evenodd"/>
<path d="m-25.835 58.089c0-0.04498 0.03968-0.08466 0.08466-0.08466h1.7779c0.04762 0 0.08466 0.03968 0.08466 0.08466v1.7779c0 0.04762-0.03704 0.08466-0.08466 0.08466h-1.7779c-0.04498 0-0.08466-0.03704-0.08466-0.08466zm0.16932 1.7779-0.08466-0.08466h1.7779l-0.08466 0.08466v-1.7779l0.08466 0.08466h-1.7779l0.08466-0.08466z" fill="#b98902" stroke="#b98902" stroke-linejoin="bevel" stroke-width=".042331px"/>
<text x="-23.203737" y="60.087875" fill="#000000" font-family="Arial" font-size="3.5057px" font-weight="400" letter-spacing="0px" stroke-width=".26458" word-spacing="0px" style="line-height:125%" xml:space="preserve"><tspan x="-23.203737" y="60.087875" stroke-width=".26458"><tspan dx="0" dy="0" fill="#000000" font-family="Arial" font-size="3.5057px" font-weight="400" stroke-width=".26458">Russisch (RU)</tspan></tspan></text>
<path d="m-25.75 72.693v1.7779h1.7779v-1.7779z" fill="#34a853" fill-rule="evenodd"/>
<path d="m-25.835 72.693c0-0.04498 0.03968-0.08466 0.08466-0.08466h1.7779c0.04762 0 0.08466 0.03968 0.08466 0.08466v1.7779c0 0.04762-0.03704 0.08466-0.08466 0.08466h-1.7779c-0.04498 0-0.08466-0.03704-0.08466-0.08466zm0.16932 1.7779-0.08466-0.08466h1.7779l-0.08466 0.08466v-1.7779l0.08466 0.08466h-1.7779l0.08466-0.08466z" fill="#237a3b" stroke="#237a3b" stroke-linejoin="bevel" stroke-width=".042331px"/>
<text x="-23.203737" y="74.694954" fill="#000000" font-family="Arial" font-size="3.5057px" font-weight="400" letter-spacing="0px" stroke-width=".26458" word-spacing="0px" style="line-height:125%" xml:space="preserve"><tspan x="-23.203737" y="74.694954" stroke-width=".26458"><tspan dx="0" dy="0" fill="#000000" font-family="Arial" font-size="3.5057px" font-weight="400" stroke-width=".26458">SenseiGaming Garry's Mod</tspan></tspan></text>
<text x="-23.203737" y="78.758743" fill="#000000" font-family="Arial" font-size="3.5057px" font-weight="400" letter-spacing="0px" stroke-width=".26458" word-spacing="0px" style="line-height:125%" xml:space="preserve"><tspan x="-23.203737" y="78.758743" stroke-width=".26458"><tspan dx="0" dy="0" fill="#000000" font-family="Arial" font-size="3.5057px" font-weight="400" stroke-width=".26458">Community</tspan></tspan></text>
</g>
</svg>
