<?xml version="1.0" encoding="UTF-8"?>
<svg width="321.78" height="284.86" version="1.1" viewBox="0 0 85.139 75.368" xmlns="http://www.w3.org/2000/svg" xmlns:cc="http://creativecommons.org/ns#" xmlns:dc="http://purl.org/dc/elements/1.1/" xmlns:rdf="http://www.w3.org/1999/02/22-rdf-syntax-ns#">
<metadata>
<rdf:RDF>
<cc:Work rdf:about="">
<dc:format>image/svg+xml</dc:format>
<dc:type rdf:resource="http://purl.org/dc/dcmitype/StillImage"/>
<dc:title/>
</cc:Work>
</rdf:RDF>
</metadata>
<path d="m51.469 41.7-26.875-17.806c-9.8368 14.842-5.7729 34.849 9.0695 44.681 14.837 9.8368 34.844 5.7782 44.681-9.0642 9.8315-14.842 5.7729-34.849-9.0695-44.681-5.2808-3.5029-11.472-5.3655-17.806-5.3655z" fill="#4285f4" fill-rule="evenodd"/>
<path d="m51.554 41.7c0 0.03175-0.01587 0.0635-0.04233 0.07937-0.03175 0.01058-0.0635 0.01058-0.08996-0.0053l-26.87-17.806 0.11641-0.02646-0.87838 1.4022-0.8043 1.434-0.71434 1.4551-0.64026 1.4763-0.56089 1.4922-0.48152 1.5133-0.40215 1.5239-0.32807 1.5345-0.2487 1.5451-0.17462 1.5451-0.10054 1.5504-0.02116 1.5504 0.05291 1.5451 0.1217 1.5398 0.20107 1.5292 0.26986 1.5239 0.34394 1.5028 0.41273 1.4869 0.48681 1.4657 0.5556 1.4446 0.62439 1.4181 0.69318 1.3864 0.76726 1.3599 0.83075 1.3229 0.89954 1.2858 0.96833 1.2488 1.0318 1.2012 1.1006 1.1588 1.1641 1.1112 1.2223 1.0583 1.2964 1.0054 1.3546 0.94716 1.4022 0.87838 1.4287 0.8043 1.4551 0.71434 1.4763 0.64026 1.4975 0.5556 1.5081 0.48681 1.5292 0.40215 1.5292 0.32807 1.5451 0.2487 1.5504 0.17462 1.5451 0.09525 1.5504 0.02117 1.5451-0.04762 1.5451-0.1217 1.5292-0.20107 1.5186-0.26986 1.5028-0.34394 1.4869-0.41273 1.4657-0.48681 1.4446-0.5556 1.4181-0.62439 1.3916-0.69847 1.3546-0.76196 1.3229-0.83075 1.2858-0.89954 1.2488-0.96833 1.2064-1.0318 1.1535-1.1006 1.1112-1.1641 1.0583-1.2223 1.0054-1.2964 0.95245-1.3546 0.87838-1.4022 0.799-1.4287 0.71963-1.4551 0.63497-1.4763 0.56089-1.4975 0.48152-1.5081 0.40744-1.5292 0.32278-1.5345 0.2487-1.5398 0.17462-1.5504 0.10054-1.5504 0.02116-1.5504-0.05291-1.5451-0.1217-1.5398-0.19578-1.5292-0.27515-1.5186-0.34394-1.5028-0.41273-1.4869-0.48681-1.471-0.55031-1.4393-0.62968-1.4234-0.69318-1.3864-0.76196-1.3599-0.83605-1.3229-0.89954-1.2858-0.96304-1.2435-1.0318-1.2064-1.1006-1.1588-1.1641-1.1059-1.2276-1.0583-1.2911-1.0054-1.3599-0.95246-0.99479-0.63497-1.0212-0.59794-1.0371-0.5556-1.053-0.51856-1.0742-0.48152-1.0847-0.43919-1.1006-0.39686-1.1165-0.35982-1.1324-0.31749-1.1377-0.27515-1.1482-0.23282-1.1588-0.19578-1.1694-0.14816-1.1694-0.11112-1.18-0.063497-1.18-0.021166 0.084664-0.084663zm-0.16933-32.235c0-0.021166 0.01058-0.042331 0.02646-0.058205 0.01587-0.015874 0.03704-0.026457 0.0582-0.026457l1.1906 0.021166 1.1853 0.068788 1.18 0.10583 1.1694 0.15345 1.1641 0.19049 1.1535 0.23811 1.1482 0.28045 1.1324 0.31748 1.1218 0.35982 1.1059 0.40215 1.1006 0.43919 1.0742 0.48152 1.0636 0.52385 1.0424 0.56089 1.0212 0.59793 1.0054 0.64026 1.3599 0.95246 1.3017 1.0107 1.2329 1.0636 1.1694 1.1165 1.1059 1.1694 1.0371 1.2064 0.97362 1.2541 0.90484 1.2911 0.83075 1.3334 0.76726 1.3652 0.70376 1.3969 0.62439 1.4234 0.56089 1.4498 0.48681 1.4763 0.41802 1.4922 0.34394 1.5133 0.26986 1.5292 0.20107 1.5398 0.1217 1.5451 0.05291 1.5557-0.02646 1.5557-0.09525 1.561-0.17462 1.5557-0.2487 1.5504-0.33336 1.5451-0.40215 1.5292-0.48681 1.5239-0.56089 1.4975-0.64556 1.4869-0.71963 1.4604-0.8043 1.4393-0.88367 1.4075-0.95246 1.3652-1.0107 1.2964-1.0636 1.2382-1.1218 1.1694-1.1641 1.1059-1.2064 1.0371-1.2541 0.96833-1.2964 0.90483-1.3281 0.83605-1.3652 0.76726-1.3969 0.69847-1.4234 0.62968-1.4551 0.5556-1.471 0.48681-1.4922 0.41802-1.5133 0.34394-1.5292 0.27516-1.5398 0.19578-1.5504 0.127-1.5504 0.04762-1.561-0.02117-1.5557-0.10054-1.5557-0.17462-1.5504-0.2487-1.5451-0.32807-1.5292-0.40744-1.5239-0.48681-1.4975-0.56089-1.4869-0.64026-1.4604-0.72492-1.4393-0.799-1.4075-0.88367-1.3652-0.95775-1.2964-1.0107-1.2382-1.0636-1.1694-1.1165-1.1059-1.1641-1.0371-1.2117-0.96833-1.2488-0.90483-1.2964-0.83604-1.3281-0.76726-1.3652-0.69847-1.3969-0.62968-1.4287-0.56089-1.4498-0.48681-1.4763-0.41802-1.4922-0.33865-1.5133-0.27515-1.5239-0.19578-1.5398-0.12699-1.5451-0.05291-1.5557 0.02646-1.561 0.09525-1.5557 0.17462-1.561 0.25399-1.5451 0.32807-1.5451 0.40744-1.5345 0.48152-1.5186 0.56618-1.5028 0.64026-1.4869 0.72492-1.4604 0.799-1.4393 0.88367-1.4022c0.01058-0.02117 0.03175-0.03175 0.05291-0.03704 0.02117-0.0053 0.04762 0 0.0635 0.01058l26.875 17.806-0.13229 0.06879z" fill="#7f7f7f" stroke="#7f7f7f" stroke-linejoin="bevel" stroke-width=".042331px"/>
<path d="m51.469 41.7-15.255-28.399c-4.6882 2.5187-8.6779 6.1592-11.62 10.593z" fill="#ea4335" fill-rule="evenodd"/>
<path d="m51.517 41.631-0.1217 0.11112-15.25-28.399 0.11641 0.03175-0.87308 0.48152-0.85192 0.51327-0.83605 0.53443-0.81488 0.56089-0.799 0.58206-0.77784 0.60851-0.76196 0.63497-0.7408 0.65084-0.71963 0.6773-0.69847 0.69847-0.6773 0.71963-0.65614 0.74609-0.62968 0.75667-0.60851 0.78313-0.58735 0.799-0.56089 0.82546-0.02646-0.1217zm-26.965-17.663c-0.02116-0.01587-0.03175-0.03175-0.03704-0.05291-0.0053-0.02646 0-0.04762 0.01058-0.06879l0.56618-0.82017 0.58735-0.80959 0.6138-0.78313 0.63497-0.76726 0.66143-0.7408 0.68259-0.72492 0.70376-0.70376 0.71963-0.68259 0.74609-0.65614 0.76196-0.63497 0.78313-0.60851 0.8043-0.58735 0.82017-0.56618 0.84134-0.53443 0.85721-0.51856 0.86779-0.48152c0.02116-0.01058 0.04233-0.01587 0.06349-0.0053 0.02646 0.0053 0.04233 0.02117 0.05291 0.03704l15.25 28.404c0.02117 0.03175 0.01058 0.07408-0.01588 0.10054-0.03175 0.02646-0.07408 0.03175-0.10583 0.01058z" fill="#7f7f7f" stroke="#7f7f7f" stroke-linejoin="bevel" stroke-width=".042331px"/>
<path d="m51.469 41.7-7.863-31.262c-2.5716 0.64555-5.0533 1.6086-7.3921 2.8627z" fill="#fbbc04" fill-rule="evenodd"/>
<path d="m51.543 41.663-0.15874 0.05821-7.8631-31.262 0.10583 0.05821-0.95775 0.25928-0.94716 0.28574-0.94187 0.31749-0.926 0.33865-0.9207 0.37569-0.90484 0.39686-0.89425 0.4286-0.87838 0.45506 0.03704-0.11641zm-15.398-28.32c-0.01058-0.02117-0.01587-0.04762-0.0053-0.06879 0.0053-0.02116 0.02117-0.03704 0.04233-0.04762l0.88367-0.46035 0.89954-0.4286 0.90483-0.40215 0.92071-0.37569 0.93658-0.34394 0.94187-0.31219 0.95246-0.29103 0.96304-0.25399c0.02117-0.01058 0.04233-0.0053 0.0635 0.0053 0.02117 0.01058 0.03175 0.03175 0.03704 0.05291l7.8631 31.267c0.01058 0.03704-0.01058 0.07937-0.04762 0.09524-0.04233 0.01587-0.08466 0-0.10583-0.03704z" fill="#7f7f7f" stroke="#7f7f7f" stroke-linejoin="bevel" stroke-width=".042331px"/>
<path d="m51.469 41.7-3.9633-31.992c-1.3123 0.16403-2.6193 0.40744-3.8998 0.73022z" fill="#34a853" fill-rule="evenodd"/>
<path d="m51.549 41.684-0.16404 0.02646-3.958-31.992 0.09524 0.07408-0.9842 0.13758-0.97891 0.16933-0.96833 0.19578-0.96304 0.22753 0.05821-0.10583zm-8.0271-31.225c-0.0053-0.02117 0-0.04762 0.01058-0.0635 0.01588-0.02116 0.03175-0.03704 0.05291-0.04233l0.97363-0.22753 0.97362-0.19578 0.97891-0.16403 0.9842-0.13758c0.02117-0.00529 0.04763 0 0.0635 0.015874 0.02117 0.010583 0.03175 0.031749 0.03175 0.058205l3.9633 31.992c0.0053 0.04233-0.02646 0.08466-0.06879 0.08996-0.04233 0.01058-0.08466-0.01588-0.10054-0.0635z" fill="#7f7f7f" stroke="#7f7f7f" stroke-linejoin="bevel" stroke-width=".042331px"/>
<path d="m51.469 41.7v-32.235c-1.3229 0-2.6457 0.079372-3.9633 0.24341z" fill="#ff6d01" fill-rule="evenodd"/>
<path d="m51.554 41.695-0.16933 0.0053v-32.235l0.08466 0.084663-0.98949 0.015874-0.9895 0.042331-0.98949 0.079371-0.9842 0.10583 0.07408-0.089954zm-4.1273-31.976c-0.0053-0.021166 0-0.042331 0.01588-0.058205 0.01587-0.021166 0.03175-0.031749 0.0582-0.031749l0.9895-0.11112 0.9895-0.079372 0.99479-0.042331 0.99479-0.015874c0.02117 0 0.04233 0.010583 0.05821 0.026457s0.02646 0.03704 0.02646 0.058205v32.235c0 0.04762-0.03704 0.08466-0.07937 0.08466-0.04233 0.0053-0.08466-0.02646-0.08995-0.07408z" fill="#7f7f7f" stroke="#7f7f7f" stroke-linejoin="bevel" stroke-width=".042331px"/>
<path d="m45.485 10.057-4.6988-6.0111 0.0635 0.031749h-1.6086v-0.16933h1.6086c0.02645 0 0.05291 0.015874 0.06879 0.03704l4.6988 6.0111zm3.9209-0.53443 1.2699-5.6724c0.0053-0.03704 0.04233-0.068788 0.07937-0.068788h1.5663v0.16933h-1.5663l0.08466-0.063497-1.2699 5.6724z" stroke="#000" stroke-linejoin="bevel" stroke-width=".042331px"/>
<text x="46.821068" y="61.826839" fill="#000000" font-family="Arial" font-size="3.5058px" font-weight="400" letter-spacing="0px" stroke-width=".26458" word-spacing="0px" style="line-height:125%" xml:space="preserve"><tspan x="46.821068" y="61.826839" stroke-width=".26458"><tspan dx="0" dy="0" fill="#000000" font-family="Arial" font-size="3.5058px" font-weight="400" stroke-width=".26458">Deutschland;</tspan></tspan></text>
<text x="50.588562" y="65.890648" fill="#000000" font-family="Arial" font-size="3.5058px" font-weight="400" letter-spacing="0px" stroke-width=".26458" word-spacing="0px" style="line-height:125%" xml:space="preserve"><tspan x="50.588562" y="65.890648" stroke-width=".26458"><tspan dx="0" dy="0" fill="#000000" font-family="Arial" font-size="3.5058px" font-weight="400" stroke-width=".26458">43; 84%</tspan></tspan></text>
<text x="1.1534566" y="16.178101" fill="#000000" font-family="Arial" font-size="3.5058px" font-weight="400" letter-spacing="0px" stroke-width=".26458" word-spacing="0px" style="line-height:125%" xml:space="preserve"><tspan x="1.1534566" y="16.178101" stroke-width=".26458"><tspan dx="0" dy="0" fill="#000000" font-family="Arial" font-size="3.5058px" font-weight="400" stroke-width=".26458">Österreich; 4; 8%</tspan></tspan></text>
<text x="18.24073" y="10.172771" fill="#000000" font-family="Arial" font-size="3.5058px" font-weight="400" letter-spacing="0px" stroke-width=".26458" word-spacing="0px" style="line-height:125%" xml:space="preserve"><tspan x="18.24073" y="10.172771" stroke-width=".26458"><tspan dx="0" dy="0" fill="#000000" font-family="Arial" font-size="3.5058px" font-weight="400" stroke-width=".26458">Schweiz; 2; 4%</tspan></tspan></text>
<text x="16.206593" y="4.0039458" fill="#000000" font-family="Arial" font-size="3.5058px" font-weight="400" letter-spacing="0px" stroke-width=".26458" word-spacing="0px" style="line-height:125%" xml:space="preserve"><tspan x="16.206593" y="4.0039458" stroke-width=".26458"><tspan dx="0" dy="0" fill="#000000" font-family="Arial" font-size="3.5058px" font-weight="400" stroke-width=".26458">Litauen; 1; 2%</tspan></tspan></text>
<text x="52.903557" y="3.8743954" fill="#000000" font-family="Arial" font-size="3.5058px" font-weight="400" letter-spacing="0px" stroke-width=".26458" word-spacing="0px" style="line-height:125%" xml:space="preserve"><tspan x="52.903557" y="3.8743954" stroke-width=".26458"><tspan dx="0" dy="0" fill="#000000" font-family="Arial" font-size="3.5058px" font-weight="400" stroke-width=".26458">Russland; 1; 2%</tspan></tspan></text>
</svg>
