<?xml version="1.0" encoding="UTF-8"?>
<svg width="81.19mm" height="89.381mm" version="1.1" viewBox="0 0 81.19 89.381" xmlns="http://www.w3.org/2000/svg" xmlns:cc="http://creativecommons.org/ns#" xmlns:dc="http://purl.org/dc/elements/1.1/" xmlns:rdf="http://www.w3.org/1999/02/22-rdf-syntax-ns#">
<metadata>
<rdf:RDF>
<cc:Work rdf:about="">
<dc:format>image/svg+xml</dc:format>
<dc:type rdf:resource="http://purl.org/dc/dcmitype/StillImage"/>
<dc:title/>
</cc:Work>
</rdf:RDF>
</metadata>
<g transform="translate(-287.93 -35.527)">
<path d="m328.53 84.323 11.641 33.521c18.509-6.429 28.309-26.647 21.88-45.157-4.958-14.276-18.409-23.843-33.521-23.843z" fill="#4285f4" fill-rule="evenodd"/>
<path d="m328.61 84.323v-0.02645l11.636 33.521-0.11112-0.0529 1.7091-0.64026 1.6562-0.71963 1.598-0.79371 1.5451-0.86249 1.4869-0.93658 1.434-1.0054 1.3705-1.0636 1.3123-1.1271 1.2435-1.1853 1.1853-1.2382 1.1218-1.2911 1.053-1.3387 0.98949-1.3864 0.91541-1.434 0.85191-1.4763 0.77784-1.508 0.70375-1.5451 0.62968-1.5768 0.5503-1.6086 0.48152-1.635 0.39686-1.6615 0.31748-1.6774 0.23811-1.6985 0.15874-1.7144 0.0688-1.725-0.0159-1.7356-0.10054-1.7462-0.1852-1.7462-0.28044-1.7515-0.3704-1.7462-0.46035-1.7409-0.5503-1.7356-0.4921-1.3228-0.53444-1.2911-0.58205-1.2646-0.62967-1.2329-0.67201-1.2011-0.71963-1.1694-0.76196-1.1376-0.799-1.1059-0.84133-1.0689-0.87837-1.0318-0.91541-1.0001-0.95245-0.95774-0.98949-0.9207-1.0212-0.88366-1.053-0.84133-1.0794-0.80429-1.1165-0.75667-1.1376-0.71963-1.1694-0.6773-1.1959-0.62438-1.217-0.58734-1.2435-0.53972-1.2646-0.4921-1.2858-0.43919-1.307-0.39685-1.3228-0.34394-1.3387-0.29103-1.3599-0.2434-1.3705-0.19049-1.3863-0.13758-1.3969-0.08466-1.4075-0.02646 0.0847-0.08466zm-0.16932-35.479c0-0.02116 0.0106-0.04233 0.0265-0.05821 0.0159-0.01587 0.037-0.02646 0.0635-0.02646l1.4128 0.02646 1.4075 0.08466 1.3916 0.13758 1.3758 0.19049 1.3599 0.2434 1.3493 0.29632 1.3334 0.34923 1.307 0.39156 1.2964 0.44977 1.2699 0.4921 1.2488 0.53972 1.2223 0.58734 1.2012 0.63497 1.1747 0.6773 1.1429 0.71963 1.1218 0.76725 1.0847 0.80429 1.0583 0.84662 1.0265 0.88366 0.98949 0.93129 0.95774 0.96303 0.9207 1.0001 0.88366 1.0424 0.84133 1.0742 0.80959 1.1059 0.76196 1.1429 0.71963 1.1747 0.6773 1.2117 0.63496 1.2382 0.58735 1.2699 0.53443 1.2964 0.4921 1.3281 0.55559 1.7462 0.46565 1.7514 0.37039 1.7515 0.27516 1.762 0.19049 1.7567 0.10053 1.7462 0.0159 1.7462-0.0741 1.7356-0.15345 1.7197-0.23812 1.7091-0.32277 1.688-0.40215 1.6668-0.47622 1.6403-0.56089 1.6139-0.62968 1.5874-0.70904 1.5557-0.77783 1.5133-0.85721 1.4816-0.9207 1.4393-0.98949 1.3916-1.0583 1.3493-1.1271 1.3017-1.1958 1.2435-1.2541 1.1906-1.3176 1.1271-1.3758 1.0742-1.4393 1.0054-1.4922 0.93658-1.5504 0.87308-1.6086 0.799-1.6615 0.71963-1.7091 0.64026c-0.0212 0.0106-0.0476 0.0106-0.0688 0s-0.037-0.0265-0.0423-0.0476l-11.641-33.521c0-0.01058-5e-3 -0.02116-5e-3 -0.03175z" fill="#2e60b3" stroke="#2e60b3" stroke-linejoin="bevel" stroke-width=".042331px"/>
<path d="m328.53 84.323-34.516-8.2255c-4.5427 19.065 7.228 38.199 26.29 42.741 6.5798 1.5689 13.475 1.225 19.864-0.99478z" fill="#ea4335" fill-rule="evenodd"/>
<path d="m328.45 84.353 0.0609 0.05556-34.516-8.2255 0.10318-0.06614-0.20107 0.89425-0.17726 0.8916-0.15345 0.8916-0.13229 0.88895-0.10582 0.88896-0.0847 0.88895-0.0635 0.88366-0.0397 0.88366-0.0159 0.87837 5e-3 0.87837 0.0265 0.87573 0.0476 0.87043 0.0688 0.86514 0.0926 0.8625 0.11112 0.8572 0.13229 0.85456 0.15345 0.84662 0.17462 0.84133 0.19313 0.83604 0.21166 0.8281 0.23282 0.82546 0.25134 0.81487 0.27251 0.80958 0.29367 0.80165 0.3069 0.79371 0.32807 0.78577 0.34923 0.77518 0.36246 0.7699 0.38362 0.75667 0.40215 0.74874 0.41802 0.74079 0.43654 0.72757 0.45506 0.71698 0.46829 0.70905 0.48945 0.69317 0.50268 0.68788 0.5212 0.66936 0.53444 0.65878 0.55559 0.65084 0.56618 0.63232 1.1853 1.2276 1.2435 1.1747 1.3017 1.1138 0.67201 0.53179 0.69052 0.5212 0.70111 0.50003 0.7117 0.48681 0.73021 0.47094 0.74344 0.45241 0.75402 0.43654 0.7699 0.41538 0.77783 0.40214 0.79371 0.38098 0.80694 0.36246 0.81752 0.34394 0.8281 0.32542 0.83869 0.30426 0.85456 0.28308 0.86514 0.26722 0.87308 0.2434 0.88631 0.22224 1.2435 0.27251 1.2408 0.22753 1.2435 0.17991 1.2514 0.13757 1.2514 0.0952 1.2541 0.045 1.2541 3e-3 1.2488-0.0397 1.2514-0.082 1.2461-0.12964 1.2408-0.17461 1.2382-0.21695 1.2276-0.26193 1.2223-0.3069 1.2117-0.34658 1.2012-0.39421-0.0556 0.10847zm11.8 33.465c8e-3 0.0212 5e-3 0.045-5e-3 0.0661-0.0106 0.0185-0.0265 0.0344-0.0503 0.0423l-1.2064 0.39422-1.217 0.35187-1.2276 0.3069-1.2329 0.26193-1.2435 0.21694-1.2461 0.17462-1.2514 0.12964-1.2594 0.0847-1.2567 0.0397-1.2594-3e-3 -1.2594-0.0476-1.2567-0.0952-1.2567-0.13757-1.2488-0.17991-1.2461-0.22753-1.2488-0.27515-0.8916-0.22489-0.87837-0.2434-0.87043-0.26722-0.85456-0.28309-0.84398-0.30954-0.83339-0.32542-0.82281-0.34394-0.80694-0.36776-0.799-0.38097-0.78313-0.40215-0.77254-0.42067-0.75667-0.43654-0.74873-0.4577-0.73286-0.47094-0.71434-0.4868-0.7064-0.50533-0.69052-0.5212-0.6773-0.53708-1.307-1.1191-1.2541-1.18-1.1853-1.2329-0.57147-0.63762-0.55559-0.65084-0.53973-0.66407-0.5212-0.67465-0.50797-0.68788-0.48946-0.69847-0.47357-0.70904-0.45506-0.72228-0.43654-0.73285-0.42332-0.7408-0.40214-0.75402-0.38363-0.76196-0.36775-0.7699-0.34923-0.78048-0.32807-0.79106-0.31219-0.79636-0.29367-0.80429-0.27251-0.81488-0.25134-0.82017-0.23547-0.8281-0.2143-0.83075-0.19313-0.84133-0.17462-0.84662-0.15345-0.85191-0.13228-0.85456-0.11112-0.8625-0.0926-0.86779-0.0688-0.87043-0.0503-0.87573-0.0265-0.87573-5e-3 -0.88366 0.0185-0.88366 0.0397-0.88896 0.0635-0.88895 0.0847-0.88896 0.10582-0.89424 0.13229-0.89425 0.15345-0.89689 0.17726-0.89425 0.20107-0.89424c5e-3 -0.02117 0.0185-0.03968 0.0397-0.05291 0.0185-0.01058 0.0423-0.01587 0.0635-0.01058l34.516 8.2255c0.0291 0.0079 0.0503 0.0291 0.0609 0.05556z" fill="#ac2f24" stroke="#ac2f24" stroke-linejoin="bevel" stroke-width=".042331px"/>
<path d="m328.53 84.323-4.7305-35.164c-14.543 1.9552-26.383 12.665-29.785 26.938z" fill="#fbbc04" fill-rule="evenodd"/>
<path d="m328.55 84.241-0.10318 0.09524-4.7305-35.164 0.0952 0.07143-1.3546 0.20901-1.3334 0.25928-1.3176 0.3069-1.299 0.35452-1.2805 0.40479-1.2567 0.45241-1.2355 0.4921-1.2091 0.54237-1.1879 0.58205-1.1641 0.62703-1.135 0.66672-1.1112 0.70905-1.0794 0.74873-1.053 0.78842-1.0186 0.82281-0.99213 0.86514-0.95774 0.89689-0.92071 0.93393-0.88895 0.96568-0.85191 1.0001-0.81488 1.0345-0.78048 1.0636-0.73815 1.0927-0.70111 1.1244-0.65878 1.1509-0.61644 1.18-0.57412 1.2064-0.52914 1.2329-0.48416 1.2567-0.43654 1.2805-0.39156 1.3017-0.34394 1.3228-0.0609-0.10318zm-34.555-8.0588c-0.0212-0.0053-0.0423-0.02117-0.0529-0.03969s-0.0159-0.04233-0.0106-0.06614l0.34659-1.3308 0.39156-1.307 0.44183-1.2858 0.48417-1.262 0.53443-1.2382 0.57411-1.2117 0.62174-1.1853 0.65878-1.1562 0.7064-1.1297 0.74344-1.098 0.78048-1.0689 0.82017-1.0398 0.8572-1.0054 0.89425-0.97097 0.92599-0.93922 0.96039-0.90218 0.99478-0.86514 1.0239-0.8281 1.0583-0.79371 1.0847-0.74873 1.1165-0.71434 1.1403-0.67201 1.1694-0.62703 1.1932-0.58734 1.2197-0.54237 1.2408-0.49739 1.262-0.45241 1.2858-0.40479 1.3043-0.35982 1.3228-0.3069 1.344-0.25928 1.3546-0.20901c0.0212-0.0026 0.045 0.0026 0.0635 0.01588 0.0185 0.01323 0.0291 0.03439 0.0318 0.05556l4.7305 35.164c5e-3 0.0291-5e-3 0.05556-0.0265 0.07408-0.0212 0.01852-0.0503 0.02646-0.0767 0.02116z" fill="#b98902" stroke="#b98902" stroke-linejoin="bevel" stroke-width=".042331px"/>
<path d="m328.53 84.323v-35.481c-1.5821 0-3.1616 0.10583-4.7305 0.31748z" fill="#34a853" fill-rule="evenodd"/>
<path d="m328.61 84.313-0.16932 0.01058v-35.481l0.0873 0.08466-1.1853 0.02116-1.1826 0.05821-1.18 0.10054-1.1747 0.13758 0.0741-0.09525zm-4.8972-35.14c-3e-3 -0.02381 3e-3 -0.04498 0.0159-0.0635 0.0132-0.01852 0.0344-0.0291 0.0582-0.03175l1.18-0.13758 1.1853-0.10054 1.1879-0.06085 1.1853-0.02117c0.0212 0 0.045 0.01058 0.0609 0.02646 0.0159 0.01587 0.0238 0.03704 0.0238 0.05821v35.481c0 0.04498-0.0344 0.08202-0.0767 0.08466-0.045 0.0053-0.0847-0.0291-0.09-0.07143z" fill="#237a3b" stroke="#237a3b" stroke-linejoin="bevel" stroke-width=".042331px"/>
<path d="m328.53 84.323v-35.481z" fill="#ff6d01" fill-rule="evenodd"/>
<path d="m328.61 84.323h-0.16932v-35.481l0.0847 0.08466 0.0847-0.08466zm-0.16932-35.481c0-0.04762 0.037-0.08466 0.0847-0.08466 0.0476 0 0.0847 0.03704 0.0847 0.08466v35.481c0 0.04762-0.037 0.08466-0.082 0.08466-0.0476 0.0026-0.0873-0.03439-0.0873-0.08466z" fill="#bc4e00" stroke="#bc4e00" stroke-linejoin="bevel" stroke-width=".042331px"/>
<path d="m328.47 48.784 7.4926-4.5718c0.0132-0.0079 0.0291-0.01323 0.0423-0.01323h1.5662v0.16932h-1.5662l0.045-0.01058-7.4926 4.5718z" stroke="#000" stroke-linejoin="bevel" stroke-width=".042331px"/>
<text x="349.93933" y="76.037148" fill="#000000" font-family="Arial" font-size="3.5057px" font-weight="400" letter-spacing="0px" stroke-width=".26458" word-spacing="0px" style="line-height:125%" xml:space="preserve"><tspan x="349.93933" y="76.037148" stroke-width=".26458"><tspan dx="0" dy="0" fill="#000000" font-family="Arial" font-size="3.5057px" font-weight="400" stroke-width=".26458">Super:</tspan></tspan></text>
<text x="348.6694" y="80.100937" fill="#000000" font-family="Arial" font-size="3.5057px" font-weight="400" letter-spacing="0px" stroke-width=".26458" word-spacing="0px" style="line-height:125%" xml:space="preserve"><tspan x="348.6694" y="80.100937" stroke-width=".26458"><tspan dx="0" dy="0" fill="#000000" font-family="Arial" font-size="3.5057px" font-weight="400" stroke-width=".26458">26; 45%</tspan></tspan></text>
<text x="306.25714" y="101.43583" fill="#000000" font-family="Arial" font-size="3.5057px" font-weight="400" letter-spacing="0px" stroke-width=".26458" word-spacing="0px" style="line-height:125%" xml:space="preserve"><tspan x="306.25714" y="101.43583" stroke-width=".26458"><tspan dx="0" dy="0" fill="#000000" font-family="Arial" font-size="3.5057px" font-weight="400" stroke-width=".26458">Gut:</tspan></tspan></text>
<text x="303.59027" y="105.49963" fill="#000000" font-family="Arial" font-size="3.5057px" font-weight="400" letter-spacing="0px" stroke-width=".26458" word-spacing="0px" style="line-height:125%" xml:space="preserve"><tspan x="303.59027" y="105.49963" stroke-width=".26458"><tspan dx="0" dy="0" fill="#000000" font-family="Arial" font-size="3.5057px" font-weight="400" stroke-width=".26458">16; 28%</tspan></tspan></text>
<text x="298.95679" y="71.01033" fill="#000000" font-family="Arial" font-size="3.5057px" font-weight="400" letter-spacing="0px" stroke-width=".26458" word-spacing="0px" style="line-height:125%" xml:space="preserve"><tspan x="298.95679" y="71.01033" stroke-width=".26458"><tspan dx="0" dy="0" fill="#000000" font-family="Arial" font-size="3.5057px" font-weight="400" stroke-width=".26458">Unentschieden: </tspan></tspan></text>
<text x="305.68744" y="75.074112" fill="#000000" font-family="Arial" font-size="3.5057px" font-weight="400" letter-spacing="0px" stroke-width=".26458" word-spacing="0px" style="line-height:125%" xml:space="preserve"><tspan x="305.68744" y="75.074112" stroke-width=".26458"><tspan dx="0" dy="0" fill="#000000" font-family="Arial" font-size="3.5057px" font-weight="400" stroke-width=".26458">9; 16%</tspan></tspan></text>
<text x="315.2319" y="43.036667" fill="#000000" font-family="Arial" font-size="3.5057px" font-weight="400" letter-spacing="0px" stroke-width=".26458" word-spacing="0px" style="line-height:125%" xml:space="preserve"><tspan x="315.2319" y="43.036667" stroke-width=".26458"><tspan dx="0" dy="0" fill="#000000" font-family="Arial" font-size="3.5057px" font-weight="400" stroke-width=".26458">Nicht gut:</tspan></tspan></text>
<text x="318.15274" y="47.100452" fill="#000000" font-family="Arial" font-size="3.5057px" font-weight="400" letter-spacing="0px" stroke-width=".26458" word-spacing="0px" style="line-height:125%" xml:space="preserve"><tspan x="318.15274" y="47.100452" stroke-width=".26458"><tspan dx="0" dy="0" fill="#000000" font-family="Arial" font-size="3.5057px" font-weight="400" stroke-width=".26458">1; 2%</tspan></tspan></text>
<text x="338.13678" y="44.295853" fill="#000000" font-family="Arial" font-size="3.5057px" font-weight="400" letter-spacing="0px" stroke-width=".26458" word-spacing="0px" style="line-height:125%" xml:space="preserve"><tspan x="338.13678" y="44.295853" stroke-width=".26458"><tspan dx="0" dy="0" fill="#000000" font-family="Arial" font-size="3.5057px" font-weight="400" stroke-width=".26458">Doof: 0</tspan></tspan></text>
</g>
</svg>
