<?xml version="1.0" encoding="UTF-8"?>
<svg width="109.5mm" height="68.871mm" version="1.1" viewBox="0 0 109.5 68.871" xmlns="http://www.w3.org/2000/svg" xmlns:cc="http://creativecommons.org/ns#" xmlns:dc="http://purl.org/dc/elements/1.1/" xmlns:rdf="http://www.w3.org/1999/02/22-rdf-syntax-ns#">
<metadata>
<rdf:RDF>
<cc:Work rdf:about="">
<dc:format>image/svg+xml</dc:format>
<dc:type rdf:resource="http://purl.org/dc/dcmitype/StillImage"/>
<dc:title/>
</cc:Work>
</rdf:RDF>
</metadata>
<g transform="translate(-317.91 34.568)">
<path d="m350.37 1.854 11.361 24.872c13.736-6.2729 19.787-22.496 13.514-36.233-4.4474-9.7388-14.168-15.985-24.875-15.985z" fill="#4285f4" fill-rule="evenodd"/>
<path d="m350.45 1.854-5e-3 -0.03439 11.361 24.872-0.11641-0.03969 1.2646-0.61645 1.217-0.672 1.1694-0.72492 1.1191-0.77519 1.0742-0.82546 1.0265-0.87043 0.97362-0.91806 0.9207-0.95774 0.87043-0.99743 0.82017-1.0345 0.76461-1.0715 0.71433-1.1059 0.65614-1.1376 0.60057-1.1615 0.54237-1.1906 0.4868-1.2144 0.42596-1.2355 0.3704-1.2567 0.3069-1.2726 0.24869-1.2885 0.1852-1.3017 0.0688-0.65349 0.0556-0.65613 0.037-0.65614 0.0185-0.66407 5e-3 -0.66142-0.0106-0.66142-0.0265-0.66407-0.0423-0.66407-0.0582-0.66672-0.0767-0.66672-0.0952-0.66407-0.10848-0.66407-0.12699-0.66407-0.14552-0.66142-0.16138-0.66142-0.17726-0.65878-0.19578-0.65613-0.21431-0.65878-0.23017-0.65084-0.2487-0.65084-0.26721-0.64555-0.28309-0.64555-0.4286-0.89954-0.463-0.87837-0.48946-0.85985-0.5212-0.8334-0.54501-0.81487-0.57147-0.78842-0.60058-0.76725-0.62438-0.74344-0.64819-0.71698-0.67466-0.69317-0.69582-0.66936-0.71698-0.6429-0.74079-0.61645-0.75932-0.58734-0.78048-0.56353-0.799-0.53178-0.81752-0.50533-0.83339-0.47887-0.85192-0.44448-0.86778-0.41802-0.88367-0.38363-0.89689-0.35717-0.91012-0.32278-0.92334-0.29367-0.93658-0.25928-0.94716-0.22488-0.9551-0.19314-0.96832-0.16139-0.97626-0.12435-0.98156-0.08995-0.99213-0.05291-0.99743-0.01852 0.0847-0.08466zm-0.16932-27.346c0-0.02117 0.0106-0.04233 0.0264-0.05821 0.0159-0.01587 0.0371-0.02646 0.0609-0.02646l1.0027 0.02117 0.99743 0.05291 0.99214 0.08995 0.98155 0.12435 0.97362 0.16139 0.96038 0.19314 0.95245 0.23018 0.94187 0.25928 0.92864 0.29367 0.91541 0.32807 0.90219 0.35717 0.88895 0.38892 0.87308 0.41802 0.85721 0.44977 0.83868 0.47887 0.82281 0.51062 0.80429 0.53443 0.78578 0.56618 0.7646 0.59264 0.74609 0.62174 0.72227 0.6429 0.69847 0.67465 0.67729 0.69846 0.65349 0.72228 0.62968 0.74873 0.60057 0.77254 0.57676 0.79371 0.55031 0.82016 0.5212 0.83869 0.49474 0.86514 0.463 0.88366 0.43389 0.90483 0.28309 0.64555 0.26722 0.65084 0.25398 0.65613 0.23018 0.65613 0.2143 0.65878 0.19578 0.66142 0.18256 0.66407 0.16138 0.66672 0.14552 0.66407 0.12699 0.66672 0.10848 0.66936 0.0952 0.66936 0.0767 0.67201 0.0582 0.66672 0.045 0.66936 0.0265 0.66936 0.0106 0.66671-5e-3 0.66407-0.0212 0.66672-0.037 0.66142-0.0556 0.66142-0.0688 0.65878-0.1852 1.3123-0.24869 1.2937-0.31219 1.2805-0.3704 1.2646-0.43125 1.2408-0.48681 1.225-0.54766 1.1959-0.60586 1.1694-0.66142 1.1456-0.71434 1.1112-0.7699 1.0768-0.82546 1.045-0.87572 1.0027-0.93129 0.96303-0.97891 0.92335-1.0318 0.87572-1.0794 0.83075-1.1297 0.78048-1.1747 0.72757-1.225 0.67465-1.2646 0.61645c-0.0185 0.01058-0.0423 0.01323-0.0635 0.0053-0.0212-0.0079-0.0397-0.02381-0.0503-0.04498l-11.361-24.872c-5e-3 -0.01058-8e-3 -0.02381-8e-3 -0.03704z" fill="#2e60b3" stroke="#2e60b3" stroke-linejoin="bevel" stroke-width=".042331px"/>
<path d="m350.37 1.854-7.7016-26.237c-14.49 4.2543-22.79 19.451-18.533 33.942 4.2543 14.488 19.449 22.787 33.939 18.533 1.2514-0.36775 2.4711-0.82281 3.6564-1.3652z" fill="#ea4335" fill-rule="evenodd"/>
<path d="m350.29 1.891c0-0.0053-3e-3 -0.0079-3e-3 -0.01323l-7.7016-26.237 0.10583 0.0582-0.67466 0.20636-0.66407 0.22488-1.299 0.48945-1.262 0.55295-1.217 0.60586-1.1826 0.66407-1.135 0.71963-1.0953 0.76725-1.0503 0.81752-1.0054 0.8625-0.96039 0.91012-0.90747 0.9498-0.8625 0.99214-0.80958 1.0292-0.75932 1.0689-0.71169 1.1006-0.65349 1.1297-0.59793 1.1641-0.54236 1.1906-0.48946 1.2144-0.42595 1.2408-0.3704 1.2594-0.3069 1.2832-0.24605 1.2964-0.10054 0.65349-0.0847 0.65878-0.0688 0.66142-0.0503 0.66142-0.037 0.66672-0.0185 0.66936-3e-3 0.67201 0.0159 0.67465 0.0317 0.67201 0.0476 0.6773 0.0662 0.67465 0.082 0.67994 0.10054 0.67994 0.11905 0.6773 0.13494 0.6773 0.15345 0.67994 0.16932 0.67994 0.19049 0.6773 0.20901 0.6773 0.22488 0.66142 0.48946 1.3017 0.55295 1.2594 0.60586 1.2197 0.66407 1.18 0.71963 1.1376 0.76725 1.0953 0.81488 1.0503 0.86514 1.0054 0.90747 0.9551 0.95245 0.91012 0.98949 0.8625 1.0318 0.80958 1.0662 0.75932 1.1006 0.71169 1.1324 0.65084 1.1615 0.60058 1.1906 0.53972 1.2144 0.48945 1.2408 0.42596 1.2594 0.3704 1.2805 0.30425 1.2964 0.2487 0.65348 0.09789 0.65878 0.08466 0.66143 0.06879 0.66407 0.05027 0.66407 0.03439 0.66936 0.01588 0.672 0.0026 0.67201-0.01323 0.67465-0.0291 0.67466-0.05027 0.67729-0.06614 0.67995-0.08202 0.6773-0.10318 0.67729-0.11641 0.67995-0.13758 0.6773-0.15345 0.67994-0.17462 0.6773-0.18784 0.93922-0.2778 0.91806-0.32542 0.90747-0.35452 0.8916-0.39156-0.045 0.11376zm11.517 24.801c8e-3 0.02116 8e-3 0.04498 0 0.06614-8e-3 0.02117-0.0238 0.03704-0.045 0.04762l-0.89689 0.39156-0.91276 0.35982-0.92335 0.32542-0.94451 0.2778-0.68259 0.19049-0.67995 0.17726-0.68259 0.15345-0.68523 0.13758-0.68259 0.11641-0.68259 0.10318-0.67995 0.08202-0.68259 0.06614-0.67994 0.05027-0.67994 0.03175-0.6773 0.01323-0.67201-0.0026-0.67465-0.01852-0.66936-0.03439-0.66936-0.05027-0.66672-0.06879-0.65878-0.08466-0.66142-0.09789-1.3043-0.2487-1.2884-0.30955-1.2673-0.3704-1.2461-0.43125-1.225-0.48945-1.1959-0.54501-1.1668-0.60586-1.1429-0.65614-1.1059-0.71169-1.0715-0.76461-1.0398-0.81487-0.99743-0.86779-0.95774-0.91806-0.91277-0.96303-0.87043-1.0107-0.82017-1.0556-0.77254-1.1006-0.71963-1.1482-0.66936-1.1853-0.61116-1.2302-0.55295-1.2646-0.49474-1.307-0.22489-0.66672-0.20901-0.68259-0.19313-0.68259-0.17197-0.68259-0.15345-0.68259-0.13493-0.68259-0.11906-0.68259-0.10054-0.68523-0.082-0.67994-0.0661-0.67994-0.0476-0.68259-0.0344-0.6773-0.0159-0.67994 3e-3 -0.67201 0.0212-0.67465 0.037-0.67201 0.0503-0.66672 0.0688-0.66671 0.0847-0.65878 0.10054-0.65878 0.24605-1.307 0.31219-1.2911 0.3704-1.2673 0.43125-1.2461 0.48945-1.225 0.54766-1.1959 0.60322-1.172 0.65878-1.1376 0.71169-1.1059 0.76461-1.0742 0.81487-1.0345 0.86779-1.0027 0.91541-0.9551 0.96832-0.91541 1.0107-0.86779 1.0556-0.82281 1.1006-0.77254 1.1456-0.71963 1.1879-0.66936 1.2276-0.61116 1.2673-0.55295 1.3043-0.49474 0.66937-0.22488 0.67465-0.20636c0.0212-0.0079 0.045-0.0053 0.0661 0.0053 0.0185 0.01058 0.0344 0.0291 0.0397 0.05027l7.7016 26.237-3e-3 -0.01058z" fill="#ac2f24" stroke="#ac2f24" stroke-linejoin="bevel" stroke-width=".042331px"/>
<path d="m350.37 1.854v-27.346c-2.606 0-5.2014 0.37304-7.7016 1.1085z" fill="#fbbc04" fill-rule="evenodd"/>
<path d="m350.45 1.8302-0.16668 0.02381v-27.346l0.0873 0.08466-0.97627 0.01852-0.97097 0.05027-0.97097 0.08731-0.96303 0.1217-0.95774 0.1561-0.9551 0.19049-0.94716 0.22488-0.93922 0.25663 0.0582-0.10583zm-7.863-26.19c-8e-3 -0.02117-5e-3 -0.04498 8e-3 -0.0635 0.0106-0.02117 0.0291-0.03439 0.0503-0.03969l0.94452-0.26192 0.95245-0.22488 0.96039-0.19049 0.96568-0.1561 0.97097-0.1217 0.97626-0.08731 0.97626-0.05291 0.97626-0.01852c0.0212 0 0.045 0.01058 0.0609 0.02646 0.0159 0.01587 0.0238 0.03704 0.0238 0.05821v27.346c0 0.04233-0.0291 0.07937-0.0714 0.08466-0.0423 0.0053-0.082-0.01852-0.0926-0.06085z" fill="#b98902" stroke="#b98902" stroke-linejoin="bevel" stroke-width=".042331px"/>
<text x="362.4039" y="-1.3525908" fill="#000000" font-family="Arial" font-size="3.5057px" font-weight="400" letter-spacing="0px" stroke-width=".26458" word-spacing="0px" style="line-height:125%" xml:space="preserve"><tspan x="362.4039" y="-1.3525908" stroke-width=".26458"><tspan dx="0" dy="0" fill="#000000" font-family="Arial" font-size="3.5057px" font-weight="400" stroke-width=".26458">19; 43%</tspan></tspan></text>
<text x="325.62872" y="9.4947605" fill="#000000" font-family="Arial" font-size="3.5057px" font-weight="400" letter-spacing="0px" stroke-width=".26458" word-spacing="0px" style="line-height:125%" xml:space="preserve"><tspan x="325.62872" y="9.4947605" stroke-width=".26458"><tspan dx="0" dy="0" fill="#000000" font-family="Arial" font-size="3.5057px" font-weight="400" stroke-width=".26458">23; 52%</tspan></tspan></text>
<text x="341.22421" y="-27.015841" fill="#000000" font-family="Arial" font-size="3.5057px" font-weight="400" letter-spacing="0px" stroke-width=".26458" word-spacing="0px" style="line-height:125%" xml:space="preserve"><tspan x="341.22421" y="-27.015841" stroke-width=".26458"><tspan dx="0" dy="0" fill="#000000" font-family="Arial" font-size="3.5057px" font-weight="400" stroke-width=".26458">2; 5%</tspan></tspan></text>
<path d="m381.66-21.476v1.7779h1.7779v-1.7779z" fill="#4285f4" fill-rule="evenodd"/>
<path d="m381.57-21.476c0-0.04498 0.0397-0.08466 0.0847-0.08466h1.7779c0.0476 0 0.0847 0.03968 0.0847 0.08466v1.7779c0 0.04762-0.037 0.08466-0.0847 0.08466h-1.7779c-0.045 0-0.0847-0.03704-0.0847-0.08466zm0.16933 1.7779-0.0847-0.08466h1.7779l-0.0847 0.08466v-1.7779l0.0847 0.08466h-1.7779l0.0847-0.08466z" fill="#2e60b3" stroke="#2e60b3" stroke-linejoin="bevel" stroke-width=".042331px"/>
<text x="384.23126" y="-19.463678" fill="#000000" font-family="Arial" font-size="3.5057px" font-weight="400" letter-spacing="0px" stroke-width=".26458" word-spacing="0px" style="line-height:125%" xml:space="preserve"><tspan x="384.23126" y="-19.463678" stroke-width=".26458"><tspan dx="0" dy="0" fill="#000000" font-family="Arial" font-size="3.5057px" font-weight="400" stroke-width=".26458">Ich finde, der Einstieg ist</tspan></tspan></text>
<text x="384.23126" y="-15.399889" fill="#000000" font-family="Arial" font-size="3.5057px" font-weight="400" letter-spacing="0px" stroke-width=".26458" word-spacing="0px" style="line-height:125%" xml:space="preserve"><tspan x="384.23126" y="-15.399889" stroke-width=".26458"><tspan dx="0" dy="0" fill="#000000" font-family="Arial" font-size="3.5057px" font-weight="400" stroke-width=".26458">gut zu schaffen.</tspan></tspan></text>
<path d="m381.66-0.60649v1.7779h1.7779v-1.7779z" fill="#ea4335" fill-rule="evenodd"/>
<path d="m381.57-0.60649c0-0.04498 0.0397-0.08466 0.0847-0.08466h1.7779c0.0476 0 0.0847 0.03968 0.0847 0.08466v1.7779c0 0.04763-0.037 0.08466-0.0847 0.08466h-1.7779c-0.045 0-0.0847-0.03704-0.0847-0.08466zm0.16933 1.7779-0.0847-0.08466h1.7779l-0.0847 0.08466v-1.7779l0.0847 0.08466h-1.7779l0.0847-0.08466z" fill="#ac2f24" stroke="#ac2f24" stroke-linejoin="bevel" stroke-width=".042331px"/>
<text x="384.23126" y="1.3722093" fill="#000000" font-family="Arial" font-size="3.5057px" font-weight="400" letter-spacing="0px" stroke-width=".26458" word-spacing="0px" style="line-height:125%" xml:space="preserve"><tspan x="384.23126" y="1.3722093" stroke-width=".26458"><tspan dx="0" dy="0" fill="#000000" font-family="Arial" font-size="3.5057px" font-weight="400" stroke-width=".26458">Am Anfang schwierig,</tspan></tspan></text>
<text x="384.23126" y="5.4359984" fill="#000000" font-family="Arial" font-size="3.5057px" font-weight="400" letter-spacing="0px" stroke-width=".26458" word-spacing="0px" style="line-height:125%" xml:space="preserve"><tspan x="384.23126" y="5.4359984" stroke-width=".26458"><tspan dx="0" dy="0" fill="#000000" font-family="Arial" font-size="3.5057px" font-weight="400" stroke-width=".26458">geht aber wenn man</tspan></tspan></text>
<text x="384.23126" y="9.4997883" fill="#000000" font-family="Arial" font-size="3.5057px" font-weight="400" letter-spacing="0px" stroke-width=".26458" word-spacing="0px" style="line-height:125%" xml:space="preserve"><tspan x="384.23126" y="9.4997883" stroke-width=".26458"><tspan dx="0" dy="0" fill="#000000" font-family="Arial" font-size="3.5057px" font-weight="400" stroke-width=".26458">alles gelesen hat.</tspan></tspan></text>
<path d="m381.66 20.22v1.7779h1.7779v-1.7779z" fill="#fbbc04" fill-rule="evenodd"/>
<path d="m381.57 20.22c0-0.04498 0.0397-0.08466 0.0847-0.08466h1.7779c0.0476 0 0.0847 0.03969 0.0847 0.08466v1.7779c0 0.04762-0.037 0.08466-0.0847 0.08466h-1.7779c-0.045 0-0.0847-0.03704-0.0847-0.08466zm0.16933 1.7779-0.0847-0.08466h1.7779l-0.0847 0.08466v-1.7779l0.0847 0.08466h-1.7779l0.0847-0.08466z" fill="#b98902" stroke="#b98902" stroke-linejoin="bevel" stroke-width=".042331px"/>
<text x="384.23126" y="22.208101" fill="#000000" font-family="Arial" font-size="3.5057px" font-weight="400" letter-spacing="0px" stroke-width=".26458" word-spacing="0px" style="line-height:125%" xml:space="preserve"><tspan x="384.23126" y="22.208101" stroke-width=".26458"><tspan dx="0" dy="0" fill="#000000" font-family="Arial" font-size="3.5057px" font-weight="400" stroke-width=".26458">Zu schwer, finde/fand</tspan></tspan></text>
<text x="384.23126" y="26.271891" fill="#000000" font-family="Arial" font-size="3.5057px" font-weight="400" letter-spacing="0px" stroke-width=".26458" word-spacing="0px" style="line-height:125%" xml:space="preserve"><tspan x="384.23126" y="26.271891" stroke-width=".26458"><tspan dx="0" dy="0" fill="#000000" font-family="Arial" font-size="3.5057px" font-weight="400" stroke-width=".26458">mich nicht gut zurecht</tspan></tspan></text>
</g>
</svg>
