<?xml version="1.0" encoding="UTF-8"?>
<svg width="121.34mm" height="67.837mm" version="1.1" viewBox="0 0 121.34 67.837" xmlns="http://www.w3.org/2000/svg" xmlns:cc="http://creativecommons.org/ns#" xmlns:dc="http://purl.org/dc/elements/1.1/" xmlns:rdf="http://www.w3.org/1999/02/22-rdf-syntax-ns#">
<metadata>
<rdf:RDF>
<cc:Work rdf:about="">
<dc:format>image/svg+xml</dc:format>
<dc:type rdf:resource="http://purl.org/dc/dcmitype/StillImage"/>
<dc:title/>
</cc:Work>
</rdf:RDF>
</metadata>
<g transform="translate(-331.14 23.507)">
<path d="m363.2 12.269 1.6588 26.904c14.858-0.91541 26.161-13.705 25.245-28.563-0.87572-14.215-12.662-25.295-26.904-25.295z" fill="#4285f4" fill-rule="evenodd"/>
<path d="m363.29 12.269 1.6588 26.899-0.09-0.07673 0.69317-0.05027 0.68524-0.06879 0.68259-0.08731 0.67465-0.10318 0.66936-0.11906 0.66143-0.13493 0.65613-0.1508 0.65348-0.16668 1.2779-0.37833 1.2514-0.44183 1.217-0.49739 1.1906-0.5556 1.1535-0.61116 1.1191-0.66142 1.0847-0.71434 1.045-0.76461 1.0054-0.81487 0.96303-0.8572 0.9207-0.90483 0.87837-0.94452 0.83075-0.98684 0.78048-1.0265 0.73551-1.0636 0.68258-1.0953 0.62968-1.135 0.57676-1.1641 0.5212-1.1906 0.463-1.2223 0.40479-1.2488 0.34659-1.2726 0.14551-0.64555 0.13493-0.65084 0.11906-0.65349 0.10053-0.66142 0.0873-0.66672 0.0688-0.672 0.0529-0.67201 0.0344-0.67994 0.0159-0.68259v-0.68788l-0.0159-0.69053-0.0317-0.69317-0.0476-0.64819-0.0635-0.65613-0.17726-1.3017-0.23547-1.2779-0.29631-1.2541-0.35188-1.2329-0.41009-1.2064-0.46299-1.1773-0.51856-1.1509-0.56618-1.1191-0.61645-1.09-0.66671-1.0583-0.71434-1.0186-0.75667-0.98684-0.80164-0.9498-0.84398-0.91012-0.88366-0.87043-0.92335-0.83075-0.96303-0.78577-0.99479-0.7408-1.0292-0.69582-1.0662-0.64555-1.0953-0.60057-1.1271-0.5503-1.1509-0.49739-1.1826-0.44448-1.2038-0.38892-1.2302-0.336-1.2488-0.27515-1.2726-0.21695-1.2885-0.15874-1.3096-0.09524-0.66142-0.02381-0.66143-0.0079 0.0847-0.08466zm-0.17197-26.954c0-0.02117 0.0106-0.04233 0.0265-0.05821 0.0159-0.01587 0.037-0.02646 0.0609-0.02646l0.66672 0.0079 0.66671 0.02646 1.3149 0.09524 1.299 0.15874 1.2779 0.21695 1.2594 0.28044 1.2355 0.336 1.2144 0.39421 1.1879 0.44448 1.1588 0.50268 1.135 0.5503 1.1006 0.60586 1.0715 0.65084 1.0398 0.70111 1.0001 0.74609 0.96832 0.79106 0.92864 0.83604 0.88896 0.87573 0.84926 0.91541 0.80694 0.9551 0.76196 0.99214 0.71963 1.0265 0.66672 1.0662 0.62174 1.0953 0.57147 1.1244 0.51855 1.1615 0.46829 1.1826 0.41008 1.217 0.35717 1.2382 0.29632 1.2646 0.23547 1.2832 0.17726 1.307 0.0635 0.66142 0.0476 0.65349 0.0344 0.69846 0.0159 0.69317v0.69053l-0.0185 0.68788-0.0344 0.68524-0.0529 0.6773-0.0688 0.6773-0.0873 0.66672-0.10053 0.66672-0.11906 0.65878-0.13493 0.65613-0.15081 0.65084-0.34658 1.2779-0.41008 1.2594-0.463 1.2276-0.52649 1.2011-0.57941 1.1694-0.63232 1.1403-0.68788 1.1059-0.7408 1.0689-0.78577 1.0318-0.83604 0.99214-0.88366 0.9498-0.926 0.91012-0.96832 0.8625-1.016 0.82016-1.0503 0.7699-1.09 0.71963-1.1271 0.66672-1.1615 0.6138-1.1959 0.55824-1.2276 0.50268-1.2567 0.44183-1.2884 0.38098-0.65349 0.16932-0.66142 0.1508-0.66672 0.13493-0.67465 0.11906-0.67465 0.10318-0.68788 0.08731-0.69053 0.06879-0.69317 0.05027c-0.0238 0.0026-0.045-0.0053-0.0635-0.01852-0.0159-0.01588-0.0265-0.03704-0.0265-0.06085l-1.6616-26.909z" fill="#2e60b3" stroke="#2e60b3" stroke-linejoin="bevel" stroke-width=".042331px"/>
<path d="m363.2 12.269-3.3124-26.751c-14.774 1.8308-25.269 15.289-23.438 30.063 1.7488 14.136 14.194 24.47 28.409 23.592z" fill="#ea4335" fill-rule="evenodd"/>
<path d="m363.12 12.275-3.3124-26.745 0.0952 0.07408-0.69053 0.09525-0.67994 0.11112-0.67466 0.12699-0.66671 0.14287-0.66142 0.16139-0.65085 0.17197-1.2858 0.3995-1.2541 0.4577-1.2197 0.51591-1.1906 0.57147-1.1482 0.62968-1.1165 0.67994-1.0768 0.73021-1.0371 0.78048-0.99743 0.8281-0.95245 0.87308-0.91012 0.91541-0.86249 0.96039-0.81752 0.99743-0.7699 1.0345-0.71698 1.0715-0.66672 1.1059-0.6138 1.1376-0.56089 1.1668-0.50268 1.1959-0.44712 1.2223-0.38892 1.2488-0.32807 1.2673-0.26457 1.2937-0.10847 0.65084-0.0953 0.65614-0.0767 0.66142-0.0608 0.66407-0.045 0.672-0.0291 0.67201-0.0106 0.6773 5e-3 0.6773 0.0238 0.68259 0.0423 0.68259 0.0582 0.69052 0.0767 0.68788 0.20107 1.3149 0.25399 1.2832 0.31748 1.2646 0.3704 1.2329 0.4286 1.2091 0.48152 1.1747 0.53443 1.1509 0.58735 1.1165 0.63496 1.0821 0.68259 1.0503 0.73021 1.0133 0.77519 0.97626 0.81752 0.93393 0.85985 0.89954 0.89689 0.85721 0.93394 0.81487 0.97361 0.7699 1.008 0.72492 1.0398 0.67994 1.0742 0.62968 1.098 0.58205 1.1324 0.52914 1.1562 0.48152 1.18 0.42331 1.2064 0.37304 1.225 0.31219 1.2488 0.25928 1.2646 0.19843 1.2832 0.14022 1.2964 0.07672 0.65349 0.01323h0.65613l0.66407-0.01852 0.66143-0.0291-0.0794 0.08731zm1.8255 26.894c3e-3 0.02381-5e-3 0.04498-0.0212 0.06349-0.0132 0.01588-0.0344 0.02646-0.0582 0.02646l-0.66671 0.03175-0.66672 0.01852h-0.65877l-0.65879-0.01588-1.307-0.07672-1.2884-0.14022-1.2752-0.19843-1.2541-0.26192-1.2355-0.31484-1.2117-0.37304-1.1906-0.4286-1.1615-0.48416-1.1403-0.53179-1.1059-0.58734-1.0794-0.63497-1.045-0.68259-1.0133-0.72757-0.98155-0.77519-0.94187-0.82017-0.90218-0.8625-0.86515-0.90483-0.82281-0.94452-0.77519-0.98155-0.7355-1.0186-0.68788-1.0556-0.64026-1.0927-0.58999-1.1218-0.53708-1.1562-0.4868-1.1853-0.42861-1.2144-0.37569-1.2435-0.31748-1.2699-0.25399-1.2937-0.20107-1.3202-0.0767-0.69317-0.0582-0.69317-0.045-0.68524-0.0238-0.68788-5e-3 -0.68259 0.0106-0.68259 0.0318-0.6773 0.045-0.67201 0.0609-0.66936 0.0767-0.66672 0.0952-0.66142 0.10847-0.65613 0.26722-1.3017 0.33071-1.2752 0.38892-1.2567 0.45241-1.2302 0.50798-1.2011 0.56088-1.1773 0.6191-1.1429 0.672-1.1112 0.72228-1.0821 0.77519-1.0398 0.82281-1.0027 0.86779-0.96568 0.91541-0.9207 0.95774-0.87837 1.0027-0.8334 1.045-0.78577 1.0847-0.7355 1.1218-0.68524 1.1588-0.62968 1.1959-0.57676 1.2302-0.5212 1.2594-0.45771 1.2911-0.3995 0.65613-0.17726 0.66672-0.16139 0.672-0.14287 0.67465-0.12699 0.68524-0.11112 0.69053-0.09524c0.0238-0.0026 0.045 0.0026 0.0635 0.01587 0.0185 0.01323 0.0291 0.03439 0.0317 0.0582l3.3124 26.753z" fill="#ac2f24" stroke="#ac2f24" stroke-linejoin="bevel" stroke-width=".042331px"/>
<path d="m363.2 12.269v-26.954c-1.1086 0-2.2144 0.06879-3.3124 0.20372z" fill="#fbbc04" fill-rule="evenodd"/>
<path d="m363.29 12.261-0.16932 0.0079v-26.954l0.0873 0.08466-0.83075 0.01323-0.82546 0.03704-0.82546 0.0635-0.82281 0.08995 0.0741-0.0926zm-3.4791-26.732c-3e-3 -0.02117 3e-3 -0.04498 0.0159-0.06085 0.0159-0.01852 0.0344-0.0291 0.0582-0.03175l0.8281-0.08995 0.83075-0.0635 0.83075-0.03968 0.83075-0.01323c0.0238 0 0.045 0.01058 0.0609 0.02646 0.0159 0.01587 0.0238 0.03704 0.0238 0.05821v26.954c0 0.04498-0.0344 0.08202-0.0794 0.08466-0.0423 0.0027-0.082-0.0291-0.0873-0.07408z" fill="#b98902" stroke="#b98902" stroke-linejoin="bevel" stroke-width=".042331px"/>
<text x="375.20294" y="11.295624" fill="#000000" font-family="Arial" font-size="3.5057px" font-weight="400" letter-spacing="0px" stroke-width=".26458" word-spacing="0px" style="line-height:125%" xml:space="preserve"><tspan x="375.20294" y="11.295624" stroke-width=".26458"><tspan dx="0" dy="0" fill="#000000" font-family="Arial" font-size="3.5057px" font-weight="400" stroke-width=".26458">25; 49%</tspan></tspan></text>
<text x="338.16321" y="16.851585" fill="#000000" font-family="Arial" font-size="3.5057px" font-weight="400" letter-spacing="0px" stroke-width=".26458" word-spacing="0px" style="line-height:125%" xml:space="preserve"><tspan x="338.16321" y="16.851585" stroke-width=".26458"><tspan dx="0" dy="0" fill="#000000" font-family="Arial" font-size="3.5057px" font-weight="400" stroke-width=".26458">25; 49%</tspan></tspan></text>
<text x="356.93353" y="-15.955045" fill="#000000" font-family="Arial" font-size="3.5057px" font-weight="400" letter-spacing="0px" stroke-width=".26458" word-spacing="0px" style="line-height:125%" xml:space="preserve"><tspan x="356.93353" y="-15.955045" stroke-width=".26458"><tspan dx="0" dy="0" fill="#000000" font-family="Arial" font-size="3.5057px" font-weight="400" stroke-width=".26458">1; 2%</tspan></tspan></text>
<path d="m396.3-9.5366v1.7779h1.7779v-1.7779z" fill="#4285f4" fill-rule="evenodd"/>
<path d="m396.22-9.5366c0-0.04498 0.0397-0.08466 0.0847-0.08466h1.7779c0.0476 0 0.0847 0.03969 0.0847 0.08466v1.7779c0 0.04762-0.037 0.08466-0.0847 0.08466h-1.7779c-0.045 0-0.0847-0.03704-0.0847-0.08466zm0.16933 1.7779-0.0847-0.08466h1.7779l-0.0847 0.08466v-1.7779l0.0847 0.08466h-1.7779l0.0847-0.08466z" fill="#2e60b3" stroke="#2e60b3" stroke-linejoin="bevel" stroke-width=".042331px"/>
<text x="398.84167" y="-7.5160685" fill="#000000" font-family="Arial" font-size="3.5057px" font-weight="400" letter-spacing="0px" stroke-width=".26458" word-spacing="0px" style="line-height:125%" xml:space="preserve"><tspan x="398.84167" y="-7.5160685" stroke-width=".26458"><tspan dx="0" dy="0" fill="#000000" font-family="Arial" font-size="3.5057px" font-weight="400" stroke-width=".26458">Ja, ich finde das gut und</tspan></tspan></text>
<text x="398.84167" y="-3.4522791" fill="#000000" font-family="Arial" font-size="3.5057px" font-weight="400" letter-spacing="0px" stroke-width=".26458" word-spacing="0px" style="line-height:125%" xml:space="preserve"><tspan x="398.84167" y="-3.4522791" stroke-width=".26458"><tspan dx="0" dy="0" fill="#000000" font-family="Arial" font-size="3.5057px" font-weight="400" stroke-width=".26458">verständlich.</tspan></tspan></text>
<path d="m396.3 7.5229v1.7779h1.7779v-1.7779z" fill="#ea4335" fill-rule="evenodd"/>
<path d="m396.22 7.5229c0-0.044977 0.0397-0.084664 0.0847-0.084664h1.7779c0.0476 0 0.0847 0.039687 0.0847 0.084664v1.7779c0 0.047622-0.037 0.084661-0.0847 0.084661h-1.7779c-0.045 0-0.0847-0.037039-0.0847-0.084661zm0.16933 1.7779-0.0847-0.084664h1.7779l-0.0847 0.084664v-1.7779l0.0847 0.084661h-1.7779l0.0847-0.084661z" fill="#ac2f24" stroke="#ac2f24" stroke-linejoin="bevel" stroke-width=".042331px"/>
<text x="398.84167" y="9.5130215" fill="#000000" font-family="Arial" font-size="3.5057px" font-weight="400" letter-spacing="0px" stroke-width=".26458" word-spacing="0px" style="line-height:125%" xml:space="preserve"><tspan x="398.84167" y="9.5130215" stroke-width=".26458"><tspan dx="0" dy="0" fill="#000000" font-family="Arial" font-size="3.5057px" font-weight="400" stroke-width=".26458">Naja, könnte zugänglicher sein,</tspan></tspan></text>
<text x="398.84167" y="13.57681" fill="#000000" font-family="Arial" font-size="3.5057px" font-weight="400" letter-spacing="0px" stroke-width=".26458" word-spacing="0px" style="line-height:125%" xml:space="preserve"><tspan x="398.84167" y="13.57681" stroke-width=".26458"><tspan dx="0" dy="0" fill="#000000" font-family="Arial" font-size="3.5057px" font-weight="400" stroke-width=".26458">geht aber wenn man die</tspan></tspan></text>
<text x="398.84167" y="17.640598" fill="#000000" font-family="Arial" font-size="3.5057px" font-weight="400" letter-spacing="0px" stroke-width=".26458" word-spacing="0px" style="line-height:125%" xml:space="preserve"><tspan x="398.84167" y="17.640598" stroke-width=".26458"><tspan dx="0" dy="0" fill="#000000" font-family="Arial" font-size="3.5057px" font-weight="400" stroke-width=".26458">Grundlagen drin hat.</tspan></tspan></text>
<path d="m396.3 24.54v1.7779h1.7779v-1.7779z" fill="#fbbc04" fill-rule="evenodd"/>
<path d="m396.22 24.54c0-0.04498 0.0397-0.08466 0.0847-0.08466h1.7779c0.0476 0 0.0847 0.03969 0.0847 0.08466v1.7779c0 0.04762-0.037 0.08466-0.0847 0.08466h-1.7779c-0.045 0-0.0847-0.03704-0.0847-0.08466zm0.16933 1.7779-0.0847-0.08466h1.7779l-0.0847 0.08466v-1.7779l0.0847 0.08466h-1.7779l0.0847-0.08466z" fill="#b98902" stroke="#b98902" stroke-linejoin="bevel" stroke-width=".042331px"/>
<text x="398.84167" y="26.54211" fill="#000000" font-family="Arial" font-size="3.5057px" font-weight="400" letter-spacing="0px" stroke-width=".26458" word-spacing="0px" style="line-height:125%" xml:space="preserve"><tspan x="398.84167" y="26.54211" stroke-width=".26458"><tspan dx="0" dy="0" fill="#000000" font-family="Arial" font-size="3.5057px" font-weight="400" stroke-width=".26458">Zu schwer zu erfassen, müsste</tspan></tspan></text>
<text x="398.84167" y="30.6059" fill="#000000" font-family="Arial" font-size="3.5057px" font-weight="400" letter-spacing="0px" stroke-width=".26458" word-spacing="0px" style="line-height:125%" xml:space="preserve"><tspan x="398.84167" y="30.6059" stroke-width=".26458"><tspan dx="0" dy="0" fill="#000000" font-family="Arial" font-size="3.5057px" font-weight="400" stroke-width=".26458">insgesamt besser beschrieben</tspan></tspan></text>
<text x="398.84167" y="34.669689" fill="#000000" font-family="Arial" font-size="3.5057px" font-weight="400" letter-spacing="0px" stroke-width=".26458" word-spacing="0px" style="line-height:125%" xml:space="preserve"><tspan x="398.84167" y="34.669689" stroke-width=".26458"><tspan dx="0" dy="0" fill="#000000" font-family="Arial" font-size="3.5057px" font-weight="400" stroke-width=".26458">sein.</tspan></tspan></text>
</g>
</svg>
