<?xml version="1.0" encoding="UTF-8"?>
<svg width="246.29" height="279.23" version="1.1" viewBox="0 0 65.164 73.88" xmlns="http://www.w3.org/2000/svg" xmlns:cc="http://creativecommons.org/ns#" xmlns:dc="http://purl.org/dc/elements/1.1/" xmlns:rdf="http://www.w3.org/1999/02/22-rdf-syntax-ns#">
<metadata>
<rdf:RDF>
<cc:Work rdf:about="">
<dc:format>image/svg+xml</dc:format>
<dc:type rdf:resource="http://purl.org/dc/dcmitype/StillImage"/>
<dc:title/>
</cc:Work>
</rdf:RDF>
</metadata>
<path d="m32.585 41.296 18.311-25.206c-5.3232-3.8654-11.734-5.9502-18.311-5.9502z" fill="#4285f4" fill-rule="evenodd"/>
<path d="m32.669 41.296-0.15081-0.04762 18.311-25.206 0.01852 0.11906-1.0107-0.70376-1.0318-0.66143-1.0556-0.61646-1.0768-0.57412-1.0927-0.53179-1.1165-0.48681-1.1324-0.44184-1.1482-0.39686-1.1615-0.35453-1.1773-0.30955-1.1853-0.25928-1.2012-0.2143-1.2091-0.16933-1.2144-0.11906-1.2223-0.07408-1.2276-0.02381 0.08467-0.08466zm-0.16933-31.156c0-0.02117 0.01058-0.04233 0.02646-0.05821 0.01587-0.01587 0.03704-0.02646 0.06085-0.02646l1.2329 0.02646 1.2329 0.07408 1.2197 0.11906 1.2144 0.16933 1.2064 0.2143 1.1959 0.26457 1.1826 0.30955 1.1668 0.35453 1.1535 0.40215 1.1377 0.44184 1.1218 0.4921 1.1033 0.53179 1.0821 0.57941 1.0609 0.62174 1.0371 0.66143 1.0107 0.70376c0.01852 0.01323 0.03175 0.03439 0.03439 0.05556 0.0026 0.02381-0.0026 0.04498-0.01587 0.0635l-18.311 25.206c-0.02117 0.0291-0.05821 0.04233-0.0926 0.03175-0.03704-0.01058-0.06085-0.04498-0.06085-0.08202z" fill="#2e60b3" stroke="#2e60b3" stroke-linejoin="bevel" stroke-width=".042332px"/>
<path d="m32.585 41.299v31.151c17.208 0 31.156-13.948 31.156-31.151 0-9.9744-4.7782-19.345-12.842-25.208z" fill="#ea4335" fill-rule="evenodd"/>
<path d="m32.654 41.347 0.01588-0.04762v31.151l-0.08467-0.08466 0.8043-0.01058 0.79901-0.02646 0.78842-0.04762 0.78843-0.07408 0.78313-0.08995 0.77255-0.10583 0.76726-0.127 0.76197-0.14816 0.75668-0.16404 0.74609-0.1852 0.7408-0.19578 0.73022-0.21695 0.73022-0.23811 0.71964-0.25399 0.70905-0.26986 0.69847-0.28574 0.69318-0.30161 0.6826-0.32278 0.67201-0.33336 0.67201-0.34924 1.2964-0.75138 1.2594-0.8043 1.2223-0.87309 1.1747-0.92071 1.1218-0.97362 1.0795-1.0318 1.0318-1.0795 0.97362-1.1271 0.92071-1.1747 0.8678-1.217 0.80959-1.2594 0.74609-1.3017 0.34924-0.66672 0.33865-0.67201 0.31748-0.68789 0.30161-0.68789 0.28574-0.70376 0.27515-0.70905 0.2487-0.71964 0.23811-0.72493 0.21695-0.73551 0.20108-0.7408 0.17991-0.74609 0.16404-0.75668 0.14816-0.76197 0.127-0.77255 0.10583-0.77255 0.08996-0.77784 0.06879-0.78842 0.05292-0.79371 0.02646-0.79901 0.01058-0.79901-0.01058-0.92071-0.04233-0.926-0.0635-0.92071-0.10054-0.92071-0.1217-0.91013-0.14816-0.90484-0.17462-0.89954-0.20637-0.88896-0.22753-0.88367-0.2487-0.87838-0.28045-0.8625-0.30161-0.85722-0.32807-0.84663-0.35453-0.83605-0.37569-0.82546-0.39686-0.81488-0.42332-0.8043-0.44977-0.78842-0.47094-0.77784-0.48681-0.76197-0.51856-0.74609-0.53443-0.73551-0.56089-0.71964-0.58206-0.70376-0.60322-0.6826-0.62439-0.67201-0.64026-0.65085-0.66672-0.63497-0.68789-0.6191-0.70376-0.59793-0.72493-0.57677-0.74609-0.56089 0.1217-0.01587zm18.176-25.304c0.01588-0.01587 0.03175-0.03175 0.05821-0.03175 0.02117-0.0053 0.04233 0 0.0635 0.01588l0.74609 0.56089 0.73022 0.58206 0.70905 0.59793 0.68789 0.6191 0.66672 0.64026 0.65085 0.65614 0.62439 0.67201 0.60852 0.69318 0.58206 0.70905 0.56089 0.71964 0.53973 0.73551 0.51856 0.75668 0.4974 0.76726 0.47094 0.78313 0.44977 0.79372 0.42332 0.8043 0.40744 0.81488 0.37569 0.83076 0.35453 0.84134 0.32807 0.85192 0.3069 0.8625 0.27516 0.87308 0.25399 0.87838 0.23282 0.88896 0.20107 0.89425 0.17462 0.90484 0.15345 0.91013 0.1217 0.91542 0.09525 0.92071 0.06879 0.926 0.04233 0.93129 0.01058 0.926-0.01058 0.80959-0.03175 0.79901-0.04762 0.79901-0.06879 0.78842-0.08995 0.78843-0.11112 0.77784-0.12699 0.77255-0.14287 0.76726-0.16933 0.75668-0.1852 0.75668-0.20108 0.7408-0.21695 0.7408-0.23812 0.73022-0.25399 0.71964-0.26986 0.71434-0.28574 0.70376-0.3069 0.69847-0.32278 0.68789-0.33336 0.6773-0.35453 0.66672-0.75138 1.3123-0.81488 1.2699-0.8678 1.2223-0.926 1.18-0.98421 1.1377-1.0318 1.0847-1.09 1.0318-1.1324 0.98421-1.18 0.926-1.2223 0.8678-1.2699 0.81488-1.307 0.75138-0.66672 0.35453-0.6773 0.33336-0.68788 0.32278-0.69847 0.3069-0.70376 0.28574-0.71434 0.26986-0.71964 0.25399-0.73551 0.23811-0.73551 0.21695-0.7408 0.20637-0.75668 0.17991-0.75668 0.16933-0.76726 0.14287-0.77255 0.127-0.77784 0.11112-0.78313 0.08996-0.79372 0.06879-0.79372 0.05291-0.79901 0.02646-0.8043 0.01058c-0.02646 0.0053-0.04762-0.0053-0.0635-0.02117-0.01588-0.01588-0.02646-0.03704-0.02646-0.0635v-31.151c0-0.01588 0.01058-0.03704 0.02117-0.04762z" fill="#ac2f24" stroke="#ac2f24" stroke-linejoin="bevel" stroke-width=".042332px"/>
<path d="m32.585 41.299-24.002-19.859c-10.969 13.255-9.1119 32.892 4.1432 43.861 5.5878 4.6194 12.609 7.1487 19.859 7.1487z" fill="#fbbc04" fill-rule="evenodd"/>
<path d="m32.5 41.299 0.03175 0.0635-24.002-19.859 0.1217-0.01058-0.99479 1.2594-0.91013 1.2911-0.84134 1.3282-0.76726 1.3493-0.68789 1.3811-0.61381 1.4022-0.55031 1.4234-0.46565 1.4393-0.40215 1.4604-0.32278 1.471-0.25399 1.4763-0.17991 1.4869-0.11112 1.4922-0.03704 1.4922 0.03704 1.4922 0.10583 1.4869 0.17462 1.4816 0.2487 1.4657 0.3122 1.4604 0.38627 1.4446 0.46036 1.4287 0.52385 1.4022 0.59793 1.3864 0.66143 1.3546 0.73022 1.3282 0.8043 1.2964 0.8678 1.2594 0.93658 1.2276 1.0054 1.1853 1.0742 1.143 1.1377 1.0953 1.2064 1.053 1.0583 0.83604 1.0953 0.79372 1.1218 0.7408 1.1535 0.68789 1.1747 0.63497 1.2012 0.58735 1.2276 0.53443 1.2488 0.48152 1.2647 0.42331 1.2805 0.3704 1.3017 0.3122 1.3176 0.25928 1.3229 0.20637 1.3387 0.14816 1.344 0.08466 1.3546 0.02646-0.08995 0.08466zm0.16933 31.151c0 0.02646-0.0053 0.04762-0.02117 0.0635-0.01588 0.01588-0.04233 0.02645-0.0635 0.02117l-1.3599-0.02646-1.3546-0.08995-1.344-0.14816-1.3334-0.20108-1.3176-0.25928-1.307-0.32279-1.2911-0.3704-1.2752-0.4286-1.2541-0.48152-1.2329-0.53443-1.2064-0.58735-1.1853-0.64556-1.1535-0.69318-1.1324-0.7408-1.0953-0.79371-1.0689-0.84663-1.2117-1.0583-1.1482-1.1006-1.0742-1.1482-1.0107-1.1959-0.94188-1.2276-0.87838-1.2752-0.8043-1.3017-0.73551-1.3334-0.66672-1.3652-0.59793-1.3864-0.52914-1.4181-0.45506-1.434-0.39157-1.4499-0.31749-1.4657-0.2487-1.4816-0.17462-1.4869-0.10583-1.4975-0.03704-1.4975 0.04233-1.4975 0.11112-1.4975 0.17991-1.4975 0.25399-1.4869 0.32807-1.4763 0.39686-1.4657 0.47623-1.4499 0.54502-1.434 0.62439-1.4075 0.69318-1.3864 0.76726-1.3652 0.84134-1.3282 0.92071-1.2964 0.9895-1.2647c0.01587-0.01587 0.03704-0.02646 0.05821-0.03175 0.02646 0 0.04762 0.0053 0.0635 0.02116l24.007 19.859c0.01588 0.01587 0.02646 0.03704 0.02646 0.0635z" fill="#b98902" stroke="#b98902" stroke-linejoin="bevel" stroke-width=".042332px"/>
<path d="m32.585 41.296-3.9051-30.91c-7.8631 0.99479-15.049 4.9448-20.1 11.051z" fill="#34a853" fill-rule="evenodd"/>
<path d="m32.64 41.233-0.13758 0.07408-3.9051-30.91 0.09524 0.07408-0.73551 0.10318-0.72757 0.11906-0.72757 0.13493-0.71699 0.15345-0.71434 0.16933-0.70905 0.18256-0.70641 0.20372-0.69582 0.2196-0.69318 0.23547-0.68524 0.25134-1.352 0.54502-1.3229 0.61381-1.2911 0.66937-1.2567 0.73022-1.225 0.78842-1.1879 0.84928-1.1482 0.90484-1.1059 0.95775-1.0609 1.0107-1.016 1.0662-0.96833 1.1138-0.01058-0.11906zm-24.113-19.729c-0.01852-0.01323-0.0291-0.03439-0.0291-0.05821-0.0026-0.02117 0.0053-0.04498 0.01852-0.0635l0.97362-1.1218 1.0212-1.0715 1.0715-1.016 1.1112-0.96304 1.1535-0.91013 1.1932-0.84928 1.2303-0.79372 1.2673-0.73551 1.2964-0.67466 1.3308-0.61381 1.3573-0.55031 0.68789-0.25134 0.69847-0.23547 0.70112-0.21959 0.70641-0.20372 0.71434-0.18785 0.71964-0.16933 0.72228-0.15345 0.72757-0.13493 0.73286-0.11906 0.73551-0.10318c0.02381-0.0027 0.04498 0.0026 0.0635 0.01587 0.01852 0.01323 0.0291 0.03439 0.03175 0.05556l3.9051 30.91c0.0053 0.03439-0.01323 0.06879-0.04233 0.08731-0.03175 0.01587-0.06879 0.01058-0.09525-0.01058z" fill="#237a3b" stroke="#237a3b" stroke-linejoin="bevel" stroke-width=".042332px"/>
<path d="m32.585 41.296v-31.156c-1.307 0-2.6113 0.08202-3.9051 0.24605z" fill="#ff6d01" fill-rule="evenodd"/>
<path d="m32.669 41.286-0.16933 0.01058v-31.156l0.08731 0.08466-0.97891 0.01587-0.97627 0.04498-0.97362 0.07673-0.96833 0.10847 0.07408-0.09525zm-4.0718-30.889c-0.0026-0.02117 0.0026-0.04498 0.01587-0.06085 0.01588-0.01852 0.0344-0.0291 0.05821-0.03175l0.97362-0.10847 0.97892-0.07673 0.98156-0.04762 0.97891-0.01587c0.02381 0 0.04498 0.01058 0.06085 0.02646 0.01588 0.01587 0.02381 0.03704 0.02381 0.05821v31.156c0 0.04498-0.0344 0.08202-0.07937 0.08466-0.04233 0.0026-0.08202-0.0291-0.08731-0.07408z" fill="#bc4e00" stroke="#bc4e00" stroke-linejoin="bevel" stroke-width=".042332px"/>
<path d="m30.542 10.223-0.6773-2.2859 0.07937 0.05821h-1.6086v-0.16933h1.6086c0.03969 0 0.07144 0.02646 0.08202 0.06085l0.6773 2.2859z" stroke="#000" stroke-linejoin="bevel" stroke-width=".042332px"/>
<text x="36.766182" y="5.8208356" fill="#000000" font-family="Arial" font-size="3.5058px" font-weight="400" letter-spacing="0px" stroke-width=".26459" word-spacing="0px" style="line-height:125%" xml:space="preserve"><tspan x="36.766182" y="5.8208356" stroke-width=".26459"><tspan dx="0" dy="0" fill="#000000" font-family="Arial" font-size="3.5058px" font-weight="400" stroke-width=".26459">1 Sprache</tspan></tspan></text>
<text x="39.263741" y="9.8846598" fill="#000000" font-family="Arial" font-size="3.5058px" font-weight="400" letter-spacing="0px" stroke-width=".26459" word-spacing="0px" style="line-height:125%" xml:space="preserve"><tspan x="39.263741" y="9.8846598" stroke-width=".26459"><tspan dx="0" dy="0" fill="#000000" font-family="Arial" font-size="3.5058px" font-weight="400" stroke-width=".26459">5; 10%</tspan></tspan></text>
<text x="43.387531" y="48.15234" fill="#000000" font-family="Arial" font-size="3.5058px" font-weight="400" letter-spacing="0px" stroke-width=".26459" word-spacing="0px" style="line-height:125%" xml:space="preserve"><tspan x="43.387531" y="48.15234" stroke-width=".26459"><tspan dx="0" dy="0" fill="#000000" font-family="Arial" font-size="3.5058px" font-weight="400" stroke-width=".26459">2 Sprachen</tspan></tspan></text>
<text x="45.88509" y="52.216167" fill="#000000" font-family="Arial" font-size="3.5058px" font-weight="400" letter-spacing="0px" stroke-width=".26459" word-spacing="0px" style="line-height:125%" xml:space="preserve"><tspan x="45.88509" y="52.216167" stroke-width=".26459"><tspan dx="0" dy="0" fill="#000000" font-family="Arial" font-size="3.5058px" font-weight="400" stroke-width=".26459">20; 40%</tspan></tspan></text>
<text x="4.2308922" y="49.475201" fill="#000000" font-family="Arial" font-size="3.5058px" font-weight="400" letter-spacing="0px" stroke-width=".26459" word-spacing="0px" style="line-height:125%" xml:space="preserve"><tspan x="4.2308922" y="49.475201" stroke-width=".26459"><tspan dx="0" dy="0" fill="#000000" font-family="Arial" font-size="3.5058px" font-weight="400" stroke-width=".26459">3 Sprachen</tspan></tspan></text>
<text x="6.7284508" y="53.539024" fill="#000000" font-family="Arial" font-size="3.5058px" font-weight="400" letter-spacing="0px" stroke-width=".26459" word-spacing="0px" style="line-height:125%" xml:space="preserve"><tspan x="6.7284508" y="53.539024" stroke-width=".26459"><tspan dx="0" dy="0" fill="#000000" font-family="Arial" font-size="3.5058px" font-weight="400" stroke-width=".26459">18; 36%</tspan></tspan></text>
<text x="20.258657" y="17.462" fill="#000000" font-family="Arial" font-size="3.5058px" font-weight="400" letter-spacing="0px" stroke-width=".26459" word-spacing="0px" style="line-height:125%" xml:space="preserve"><tspan x="20.258657" y="17.462" stroke-width=".26459"><tspan dx="0" dy="0" fill="#000000" font-family="Arial" font-size="3.5058px" font-weight="400" stroke-width=".26459">4 </tspan></tspan></text>
<text x="13.739606" y="21.525822" fill="#000000" font-family="Arial" font-size="3.5058px" font-weight="400" letter-spacing="0px" stroke-width=".26459" word-spacing="0px" style="line-height:125%" xml:space="preserve"><tspan x="13.739606" y="21.525822" stroke-width=".26459"><tspan dx="0" dy="0" fill="#000000" font-family="Arial" font-size="3.5058px" font-weight="400" stroke-width=".26459">Sprachen</tspan></tspan></text>
<text x="15.771518" y="25.589645" fill="#000000" font-family="Arial" font-size="3.5058px" font-weight="400" letter-spacing="0px" stroke-width=".26459" word-spacing="0px" style="line-height:125%" xml:space="preserve"><tspan x="15.771518" y="25.589645" stroke-width=".26459"><tspan dx="0" dy="0" fill="#000000" font-family="Arial" font-size="3.5058px" font-weight="400" stroke-width=".26459">6; 12%</tspan></tspan></text>
<text x="14.344775" y="3.8743641" fill="#000000" font-family="Arial" font-size="3.5058px" font-weight="400" letter-spacing="0px" stroke-width=".26459" word-spacing="0px" style="line-height:125%" xml:space="preserve"><tspan x="14.344775" y="3.8743641" stroke-width=".26459"><tspan dx="0" dy="0" fill="#000000" font-family="Arial" font-size="3.5058px" font-weight="400" stroke-width=".26459">5 Sprachen</tspan></tspan></text>
<text x="18.831915" y="7.9381881" fill="#000000" font-family="Arial" font-size="3.5058px" font-weight="400" letter-spacing="0px" stroke-width=".26459" word-spacing="0px" style="line-height:125%" xml:space="preserve"><tspan x="18.831915" y="7.9381881" stroke-width=".26459"><tspan dx="0" dy="0" fill="#000000" font-family="Arial" font-size="3.5058px" font-weight="400" stroke-width=".26459">1; 2%</tspan></tspan></text>
</svg>
