<?xml version="1.0" encoding="UTF-8"?>
<svg width="337.79" height="285.32" version="1.1" viewBox="0 0 89.374 75.491" xmlns="http://www.w3.org/2000/svg" xmlns:cc="http://creativecommons.org/ns#" xmlns:dc="http://purl.org/dc/elements/1.1/" xmlns:rdf="http://www.w3.org/1999/02/22-rdf-syntax-ns#">
<defs>
<clipPath id="a">
<path d="m26.239 7.5196h195.35v266.71h-195.35z"/>
</clipPath>
</defs>
<metadata>
<rdf:RDF>
<cc:Work rdf:about="">
<dc:format>image/svg+xml</dc:format>
<dc:type rdf:resource="http://purl.org/dc/dcmitype/StillImage"/>
<dc:title/>
</cc:Work>
</rdf:RDF>
</metadata>
<g transform="translate(-22.089 -30.433)">
<path d="m30.273 33.155v70.27h51.39v-70.27z" fill="#e7e7e7" fill-rule="evenodd"/>
<path d="m30.273 103.34h51.39v0.16932h-51.39zm0-10.032h51.39v0.16932h-51.39zm0-10.032h51.39v0.16932h-51.39zm0-10.032h51.39v0.16932h-51.39zm0-10.075h51.39v0.16933h-51.39zm0-10.032h51.39v0.16932h-51.39zm0-10.032h51.39v0.16932h-51.39zm0-10.032h51.39v0.16932h-51.39z" fill="#898989" stroke="#898989" stroke-linejoin="bevel" stroke-width=".042331px"/>
<path d="m30.273 101.44v1.9896h10.286v-1.9896z" fill="#4285f4" fill-rule="evenodd"/>
<path transform="matrix(.26458 0 0 .26458 23.31 31.144)" d="m25.999 265.67c0-0.16999 0.14999-0.31998 0.31998-0.31998h38.878c0.17999 0 0.31998 0.14999 0.31998 0.31998v7.5196c0 0.17999-0.13999 0.31998-0.31998 0.31998h-38.878c-0.16999 0-0.31998-0.13999-0.31998-0.31998zm0.63997 7.5196-0.31998-0.31998h38.878l-0.31998 0.31998v-7.5196l0.31998 0.31998h-38.878l0.31998-0.31998z" clip-path="url(#a)" fill="#2e60b3" stroke="#2e60b3" stroke-linejoin="bevel" stroke-width=".15999px"/>
<path d="m40.559 79.338v24.086h10.244v-24.086z" fill="#ea4335" fill-rule="evenodd"/>
<path d="m40.475 79.338c0-0.04498 0.03969-0.08466 0.08466-0.08466h10.244c0.04762 0 0.08466 0.03968 0.08466 0.08466v24.086c0 0.0476-0.03704 0.0847-0.08466 0.0847h-10.244c-0.04498 0-0.08466-0.037-0.08466-0.0847zm0.16932 24.086-0.08466-0.0847h10.244l-0.08466 0.0847v-24.086l0.08466 0.08466h-10.244l0.08466-0.08466z" fill="#ac2f24" stroke="#ac2f24" stroke-linejoin="bevel" stroke-width=".042331px"/>
<path d="m50.804 37.176v66.248h10.286v-66.248z" fill="#fbbc04" fill-rule="evenodd"/>
<path d="m50.719 37.176c0-0.04498 0.03968-0.08466 0.08466-0.08466h10.286c0.04762 0 0.08466 0.03969 0.08466 0.08466v66.248c0 0.0476-0.03704 0.0847-0.08466 0.0847h-10.286c-0.04498 0-0.08466-0.037-0.08466-0.0847zm0.16932 66.248-0.08466-0.0847h10.286l-0.08466 0.0847v-66.248l0.08466 0.08466h-10.286l0.08466-0.08466z" fill="#b98902" stroke="#b98902" stroke-linejoin="bevel" stroke-width=".042331px"/>
<path d="m61.09 85.349v18.075h10.286v-18.075z" fill="#34a853" fill-rule="evenodd"/>
<path d="m61.005 85.349c0-0.045 0.03968-0.0847 0.08466-0.0847h10.286c0.04762 0 0.08466 0.0397 0.08466 0.0847v18.075c0 0.0476-0.03704 0.0847-0.08466 0.0847h-10.286c-0.04498 0-0.08466-0.037-0.08466-0.0847zm0.16932 18.075-0.08466-0.0847h10.286l-0.08466 0.0847v-18.075l0.08466 0.0847h-10.286l0.08466-0.0847z" fill="#237a3b" stroke="#237a3b" stroke-linejoin="bevel" stroke-width=".042331px"/>
<path d="m71.377 97.414v6.011h10.286v-6.011z" fill="#ff6d01" fill-rule="evenodd"/>
<path d="m71.292 97.414c0-0.045 0.03968-0.0847 0.08466-0.0847h10.286c0.04762 0 0.08466 0.0397 0.08466 0.0847v6.011c0 0.0476-0.03704 0.0847-0.08466 0.0847h-10.286c-0.04498 0-0.08466-0.037-0.08466-0.0847zm0.16933 6.011-0.08466-0.0847h10.286l-0.08466 0.0847v-6.011l0.08466 0.0847h-10.286l0.08466-0.0847z" fill="#bc4e00" stroke="#bc4e00" stroke-linejoin="bevel" stroke-width=".042331px"/>
<path d="m30.188 103.42v-70.27h0.16932v70.27z" fill="#898989" stroke="#898989" stroke-linejoin="bevel" stroke-width=".042331px"/>
<path d="m29.172 103.34h1.1006v0.16932h-1.1006zm0-10.032h1.1006v0.16932h-1.1006zm0-10.032h1.1006v0.16932h-1.1006zm0-10.032h1.1006v0.16932h-1.1006zm0-10.075h1.1006v0.16933h-1.1006zm0-10.032h1.1006v0.16932h-1.1006zm0-10.032h1.1006v0.16932h-1.1006zm0-10.032h1.1006v0.16932h-1.1006z" fill="#898989" stroke="#898989" stroke-linejoin="bevel" stroke-width=".042331px"/>
<text x="34.433178" y="101.11517" fill="#000000" font-family="Arial" font-size="3.5057px" font-weight="400" letter-spacing="0px" stroke-width=".26458" word-spacing="0px" style="line-height:125%" xml:space="preserve"><tspan x="34.433178" y="101.11517" stroke-width=".26458"><tspan dx="0" dy="0" fill="#000000" font-family="Arial" font-size="3.5057px" font-weight="400" stroke-width=".26458">1</tspan></tspan></text>
<text x="43.74419" y="84.249947" fill="#000000" font-family="Arial" font-size="3.5057px" font-weight="400" letter-spacing="0px" stroke-width=".26458" word-spacing="0px" style="line-height:125%" xml:space="preserve"><tspan x="43.74419" y="84.249947" stroke-width=".26458"><tspan dx="0" dy="0" fill="#000000" font-family="Arial" font-size="3.5057px" font-weight="400" stroke-width=".26458">12</tspan></tspan></text>
<text x="54.028851" y="42.080494" fill="#000000" font-family="Arial" font-size="3.5057px" font-weight="400" letter-spacing="0px" stroke-width=".26458" word-spacing="0px" style="line-height:125%" xml:space="preserve"><tspan x="54.028851" y="42.080494" stroke-width=".26458"><tspan dx="0" dy="0" fill="#000000" font-family="Arial" font-size="3.5057px" font-weight="400" stroke-width=".26458">33</tspan></tspan></text>
<text x="65.287102" y="90.274139" fill="#000000" font-family="Arial" font-size="3.5057px" font-weight="400" letter-spacing="0px" stroke-width=".26458" word-spacing="0px" style="line-height:125%" xml:space="preserve"><tspan x="65.287102" y="90.274139" stroke-width=".26458"><tspan dx="0" dy="0" fill="#000000" font-family="Arial" font-size="3.5057px" font-weight="400" stroke-width=".26458">9</tspan></tspan></text>
<text x="75.571762" y="101.11517" fill="#000000" font-family="Arial" font-size="3.5057px" font-weight="400" letter-spacing="0px" stroke-width=".26458" word-spacing="0px" style="line-height:125%" xml:space="preserve"><tspan x="75.571762" y="101.11517" stroke-width=".26458"><tspan dx="0" dy="0" fill="#000000" font-family="Arial" font-size="3.5057px" font-weight="400" stroke-width=".26458">3</tspan></tspan></text>
<text x="25.267347" y="104.55812" fill="#000000" font-family="Arial" font-size="3.5057px" font-weight="400" letter-spacing="0px" stroke-width=".26458" word-spacing="0px" style="line-height:125%" xml:space="preserve"><tspan x="25.267347" y="104.55812" stroke-width=".26458"><tspan dx="0" dy="0" fill="#000000" font-family="Arial" font-size="3.5057px" font-weight="400" stroke-width=".26458">0</tspan></tspan></text>
<text x="25.267347" y="94.517776" fill="#000000" font-family="Arial" font-size="3.5057px" font-weight="400" letter-spacing="0px" stroke-width=".26458" word-spacing="0px" style="line-height:125%" xml:space="preserve"><tspan x="25.267347" y="94.517776" stroke-width=".26458"><tspan dx="0" dy="0" fill="#000000" font-family="Arial" font-size="3.5057px" font-weight="400" stroke-width=".26458">5</tspan></tspan></text>
<text x="23.306004" y="84.47744" fill="#000000" font-family="Arial" font-size="3.5057px" font-weight="400" letter-spacing="0px" stroke-width=".26458" word-spacing="0px" style="line-height:125%" xml:space="preserve"><tspan x="23.306004" y="84.47744" stroke-width=".26458"><tspan dx="0" dy="0" fill="#000000" font-family="Arial" font-size="3.5057px" font-weight="400" stroke-width=".26458">10</tspan></tspan></text>
<text x="23.306004" y="74.437096" fill="#000000" font-family="Arial" font-size="3.5057px" font-weight="400" letter-spacing="0px" stroke-width=".26458" word-spacing="0px" style="line-height:125%" xml:space="preserve"><tspan x="23.306004" y="74.437096" stroke-width=".26458"><tspan dx="0" dy="0" fill="#000000" font-family="Arial" font-size="3.5057px" font-weight="400" stroke-width=".26458">15</tspan></tspan></text>
<text x="23.306004" y="64.396751" fill="#000000" font-family="Arial" font-size="3.5057px" font-weight="400" letter-spacing="0px" stroke-width=".26458" word-spacing="0px" style="line-height:125%" xml:space="preserve"><tspan x="23.306004" y="64.396751" stroke-width=".26458"><tspan dx="0" dy="0" fill="#000000" font-family="Arial" font-size="3.5057px" font-weight="400" stroke-width=".26458">20</tspan></tspan></text>
<text x="23.306004" y="54.356411" fill="#000000" font-family="Arial" font-size="3.5057px" font-weight="400" letter-spacing="0px" stroke-width=".26458" word-spacing="0px" style="line-height:125%" xml:space="preserve"><tspan x="23.306004" y="54.356411" stroke-width=".26458"><tspan dx="0" dy="0" fill="#000000" font-family="Arial" font-size="3.5057px" font-weight="400" stroke-width=".26458">25</tspan></tspan></text>
<text x="23.306004" y="44.316074" fill="#000000" font-family="Arial" font-size="3.5057px" font-weight="400" letter-spacing="0px" stroke-width=".26458" word-spacing="0px" style="line-height:125%" xml:space="preserve"><tspan x="23.306004" y="44.316074" stroke-width=".26458"><tspan dx="0" dy="0" fill="#000000" font-family="Arial" font-size="3.5057px" font-weight="400" stroke-width=".26458">30</tspan></tspan></text>
<text x="23.306004" y="34.27573" fill="#000000" font-family="Arial" font-size="3.5057px" font-weight="400" letter-spacing="0px" stroke-width=".26458" word-spacing="0px" style="line-height:125%" xml:space="preserve"><tspan x="23.306004" y="34.27573" stroke-width=".26458"><tspan dx="0" dy="0" fill="#000000" font-family="Arial" font-size="3.5057px" font-weight="400" stroke-width=".26458">35</tspan></tspan></text>
<path d="m91.145 51.442v1.7779h1.7779v-1.7779z" fill="#4285f4" fill-rule="evenodd"/>
<path d="m91.061 51.442c0-0.04498 0.03968-0.08466 0.08466-0.08466h1.7779c0.04762 0 0.08466 0.03968 0.08466 0.08466v1.7779c0 0.04762-0.03704 0.08466-0.08466 0.08466h-1.7779c-0.04498 0-0.08466-0.03704-0.08466-0.08466zm0.16933 1.7779-0.08466-0.08466h1.7779l-0.08466 0.08466v-1.7779l0.08466 0.08466h-1.7779l0.08466-0.08466z" fill="#2e60b3" stroke="#2e60b3" stroke-linejoin="bevel" stroke-width=".042331px"/>
<text x="93.693405" y="53.447155" fill="#000000" font-family="Arial" font-size="3.5057px" font-weight="400" letter-spacing="0px" stroke-width=".26458" word-spacing="0px" style="line-height:125%" xml:space="preserve"><tspan x="93.693405" y="53.447155" stroke-width=".26458"><tspan dx="0" dy="0" fill="#000000" font-family="Arial" font-size="3.5057px" font-weight="400" stroke-width=".26458">1 (zu kurz)</tspan></tspan></text>
<path d="m91.145 59.062v1.7779h1.7779v-1.7779z" fill="#ea4335" fill-rule="evenodd"/>
<path d="m91.061 59.062c0-0.04498 0.03968-0.08466 0.08466-0.08466h1.7779c0.04762 0 0.08466 0.03969 0.08466 0.08466v1.7779c0 0.04762-0.03704 0.08466-0.08466 0.08466h-1.7779c-0.04498 0-0.08466-0.03704-0.08466-0.08466zm0.16933 1.7779-0.08466-0.08466h1.7779l-0.08466 0.08466v-1.7779l0.08466 0.08466h-1.7779l0.08466-0.08466z" fill="#ac2f24" stroke="#ac2f24" stroke-linejoin="bevel" stroke-width=".042331px"/>
<text x="93.693405" y="61.079227" fill="#000000" font-family="Arial" font-size="3.5057px" font-weight="400" letter-spacing="0px" stroke-width=".26458" word-spacing="0px" style="line-height:125%" xml:space="preserve"><tspan x="93.693405" y="61.079227" stroke-width=".26458"><tspan dx="0" dy="0" fill="#000000" font-family="Arial" font-size="3.5057px" font-weight="400" stroke-width=".26458">2</tspan></tspan></text>
<path d="m91.145 66.681v1.7779h1.7779v-1.7779z" fill="#fbbc04" fill-rule="evenodd"/>
<path d="m91.061 66.681c0-0.04498 0.03968-0.08466 0.08466-0.08466h1.7779c0.04762 0 0.08466 0.03968 0.08466 0.08466v1.7779c0 0.04762-0.03704 0.08466-0.08466 0.08466h-1.7779c-0.04498 0-0.08466-0.03704-0.08466-0.08466zm0.16933 1.7779-0.08466-0.08466h1.7779l-0.08466 0.08466v-1.7779l0.08466 0.08466h-1.7779l0.08466-0.08466z" fill="#b98902" stroke="#b98902" stroke-linejoin="bevel" stroke-width=".042331px"/>
<text x="93.693405" y="68.711311" fill="#000000" font-family="Arial" font-size="3.5057px" font-weight="400" letter-spacing="0px" stroke-width=".26458" word-spacing="0px" style="line-height:125%" xml:space="preserve"><tspan x="93.693405" y="68.711311" stroke-width=".26458"><tspan dx="0" dy="0" fill="#000000" font-family="Arial" font-size="3.5057px" font-weight="400" stroke-width=".26458">3</tspan></tspan></text>
<path d="m91.145 74.343v1.7779h1.7779v-1.7779z" fill="#34a853" fill-rule="evenodd"/>
<path d="m91.061 74.343c0-0.04498 0.03968-0.08466 0.08466-0.08466h1.7779c0.04762 0 0.08466 0.03968 0.08466 0.08466v1.7779c0 0.04762-0.03704 0.08466-0.08466 0.08466h-1.7779c-0.04498 0-0.08466-0.03704-0.08466-0.08466zm0.16933 1.7779-0.08466-0.08466h1.7779l-0.08466 0.08466v-1.7779l0.08466 0.08466h-1.7779l0.08466-0.08466z" fill="#237a3b" stroke="#237a3b" stroke-linejoin="bevel" stroke-width=".042331px"/>
<text x="93.693405" y="76.343384" fill="#000000" font-family="Arial" font-size="3.5057px" font-weight="400" letter-spacing="0px" stroke-width=".26458" word-spacing="0px" style="line-height:125%" xml:space="preserve"><tspan x="93.693405" y="76.343384" stroke-width=".26458"><tspan dx="0" dy="0" fill="#000000" font-family="Arial" font-size="3.5057px" font-weight="400" stroke-width=".26458">4</tspan></tspan></text>
<path d="m91.145 81.963v1.7779h1.7779v-1.7779z" fill="#ff6d01" fill-rule="evenodd"/>
<path d="m91.061 81.963c0-0.045 0.03968-0.0847 0.08466-0.0847h1.7779c0.04762 0 0.08466 0.0397 0.08466 0.0847v1.7779c0 0.0476-0.03704 0.0847-0.08466 0.0847h-1.7779c-0.04498 0-0.08466-0.037-0.08466-0.0847zm0.16933 1.7779-0.08466-0.0847h1.7779l-0.08466 0.0847v-1.7779l0.08466 0.0847h-1.7779l0.08466-0.0847z" fill="#bc4e00" stroke="#bc4e00" stroke-linejoin="bevel" stroke-width=".042331px"/>
<text x="93.693405" y="83.975464" fill="#000000" font-family="Arial" font-size="3.5057px" font-weight="400" letter-spacing="0px" stroke-width=".26458" word-spacing="0px" style="line-height:125%" xml:space="preserve"><tspan x="93.693405" y="83.975464" stroke-width=".26458"><tspan dx="0" dy="0" fill="#000000" font-family="Arial" font-size="3.5057px" font-weight="400" stroke-width=".26458">5 (zu lang)</tspan></tspan></text>
</g>
</svg>
