<?xml version="1.0" encoding="UTF-8"?>
<svg width="368" height="304.85" version="1.1" viewBox="0 0 97.369 80.658" xmlns="http://www.w3.org/2000/svg" xmlns:cc="http://creativecommons.org/ns#" xmlns:dc="http://purl.org/dc/elements/1.1/" xmlns:rdf="http://www.w3.org/1999/02/22-rdf-syntax-ns#">
<metadata>
<rdf:RDF>
<cc:Work rdf:about="">
<dc:format>image/svg+xml</dc:format>
<dc:type rdf:resource="http://purl.org/dc/dcmitype/StillImage"/>
<dc:title/>
</cc:Work>
</rdf:RDF>
</metadata>
<path d="m59.412 42.703 23.055 28.331c15.647-12.732 18.013-35.734 5.281-51.381-6.9372-8.53-17.346-13.478-28.336-13.478z" fill="#3975d8" fill-rule="evenodd"/>
<path d="m59.497 42.703-0.01587-0.05292 23.05 28.331-0.11641-0.01058 1.4287-1.2224 1.3441-1.2753 1.2647-1.3335 1.1906-1.3758 1.1112-1.434 1.0319-1.4711 0.95248-1.5134 0.87311-1.5504 0.78844-1.5822 0.71436-1.6139 0.6297-1.6457 0.54503-1.6721 0.47095-1.688 0.38099-1.7092 0.30691-1.7198 0.21696-1.7356 0.13758-1.7462 0.05292-1.7462-0.03175-1.7515-0.11112-1.7462-0.19579-1.7462-0.28045-1.7356-0.37041-1.7303-0.45508-1.7092-0.53445-1.6986-0.6297-1.6721-0.70907-1.6563-0.79374-1.6192-0.88898-1.5981-0.96836-1.561-1.0583-1.524-1.1483-1.4816-0.65616-0.78844-0.68261-0.76199-0.6932-0.74611-0.71436-0.72494-0.74082-0.69849-0.7514-0.68261-0.76728-0.65086-0.78844-0.63499-0.79903-0.61382-0.82019-0.58736-0.83078-0.56091-0.84665-0.54503-0.86253-0.51328-0.87311-0.49212-0.88898-0.46566-0.89957-0.44449-0.91015-0.42332-0.92602-0.39158-0.93132-0.36512-0.9419-0.33866-0.95777-0.31749-0.96307-0.29104-0.97365-0.26458-0.97894-0.23812-0.98423-0.20637-0.99481-0.1852-1.0001-0.15346-1.0107-0.13229-1.016-0.09525-1.016-0.07408-1.0213-0.04233-1.0266-0.01588 0.08466-0.08467zm-0.16933-36.528c0-0.02117 0.01058-0.04233 0.02646-0.05821 0.01588-0.01587 0.03704-0.02646 0.0635-0.02646l1.0266 0.01587 1.0319 0.04762 1.0213 0.06879 1.016 0.10054 1.0107 0.127 1.0054 0.15875 1.0001 0.17991 0.99482 0.21166 0.98423 0.23812 0.97365 0.26458 0.96836 0.29104 0.95778 0.31749 0.94719 0.34395 0.9419 0.37041 0.92602 0.39158 0.91544 0.42333 0.90486 0.44449 0.88898 0.47095 0.88369 0.49741 0.86253 0.51328 0.85194 0.54503 0.83607 0.5662 0.82019 0.59266 0.80961 0.61382 0.78844 0.63499 0.77257 0.66145 0.7567 0.67732 0.73553 0.70907 0.71965 0.72494 0.69849 0.74611 0.68261 0.77257 0.66674 0.78844 1.1483 1.4922 1.0689 1.5346 0.96836 1.5663 0.88898 1.5981 0.80432 1.6351 0.70907 1.6563 0.6297 1.688 0.53974 1.6986 0.45507 1.7251 0.37041 1.7303 0.28574 1.7462 0.19579 1.7515 0.11112 1.7621 0.03175 1.7568-0.05291 1.7568-0.13758 1.7515-0.22224 1.7409-0.30162 1.7303-0.39158 1.7198-0.46566 1.6933-0.55561 1.6774-0.6297 1.651-0.71436 1.6245-0.79374 1.5928-0.8784 1.5557-0.95248 1.524-1.0371 1.4763-1.1165 1.434-1.1959 1.3917-1.2753 1.3335-1.3546 1.2859-1.4287 1.2224c-0.01588 0.01058-0.03704 0.02117-0.05821 0.01587-0.02646 0-0.04762-0.01058-0.05821-0.02646l-23.055-28.336c-0.01058-0.01588-0.02116-0.03175-0.02116-0.05292z" fill="#27549e" stroke="#27549e" stroke-linejoin="bevel" stroke-width=".042333px"/>
<path d="m59.412 42.703-32.427 16.801c9.2761 17.912 31.321 24.907 49.233 15.631 2.2172-1.1536 4.3126-2.5241 6.2493-4.101z" fill="#cf3a2e" fill-rule="evenodd"/>
<path d="m59.349 42.756 0.10583 0.02117-32.432 16.806 0.03704-0.11642 0.90486 1.6457 0.97894 1.5822 1.0424 1.5081 1.1112 1.4446 1.1747 1.3811 1.2276 1.3123 1.2911 1.2329 1.3388 1.1694 1.3917 1.1006 1.434 1.0213 1.4869 0.95777 1.5187 0.87311 1.561 0.79903 1.5928 0.72495 1.6245 0.65086 1.6563 0.5662 1.6774 0.49212 1.6986 0.40216 1.7198 0.32808 1.7409 0.2487 1.7462 0.15875 1.7568 0.07937 1.7674-0.01058 1.7674-0.09525 1.7727-0.17992 1.7674-0.26987 1.7621-0.35983 1.7515-0.44978 1.7409-0.53974 1.7251-0.63499 1.7092-0.72495 1.6827-0.82019 0.82548-0.44449 0.80961-0.46037 0.79903-0.48153 0.78844-0.5027 0.77257-0.51857 0.76199-0.54503 0.74611-0.55562 0.73024-0.58207-0.01058 0.12171zm23.182 28.225c0.01588 0.02117 0.02117 0.04233 0.02117 0.0635-0.0053 0.02116-0.01588 0.04233-0.03175 0.05821l-0.73553 0.58207-0.7514 0.5662-0.76199 0.53974-0.77786 0.52386-0.78844 0.50799-0.80432 0.48153-0.8149 0.46566-0.83078 0.4392-1.6933 0.82549-1.7145 0.73024-1.7356 0.63499-1.7462 0.54503-1.7621 0.44979-1.7727 0.35982-1.7727 0.27516-1.778 0.17992-1.778 0.09525-1.7727 0.01058-1.7674-0.07937-1.7568-0.16404-1.7462-0.24341-1.7251-0.32808-1.7092-0.41274-1.688-0.49212-1.6616-0.57149-1.6298-0.64557-1.6033-0.73024-1.5663-0.80432-1.5293-0.88369-1.4869-0.95778-1.4446-1.0266-1.397-1.1006-1.3493-1.1747-1.2911-1.2488-1.2382-1.3123-1.1747-1.3864-1.1165-1.4499-1.0477-1.524-0.98423-1.5822-0.90486-1.651c-0.01058-0.02117-0.01587-0.04234-0.0053-0.0635 0.0053-0.02117 0.02117-0.04233 0.04233-0.05292l32.427-16.801c0.03704-0.02117 0.07937-0.01058 0.10583 0.02116z" fill="#98281f" stroke="#98281f" stroke-linejoin="bevel" stroke-width=".042333px"/>
<path d="m59.412 42.7-34.416 12.231c0.55826 1.569 1.2197 3.0956 1.987 4.5719z" fill="#dea603" fill-rule="evenodd"/>
<path d="m59.375 42.626 0.06615 0.1561-34.416 12.231 0.05027-0.11112 0.4392 1.1694 0.47624 1.1483 0.51593 1.1324 0.55297 1.1139-0.11377-0.03704zm-32.353 16.954c-0.01852 0.01058-0.04233 0.01323-0.0635 0.0053-0.02381-0.0079-0.03969-0.02381-0.05027-0.04233l-0.55826-1.1192-0.51593-1.1377-0.47624-1.1536-0.4392-1.1694c-0.01058-0.02117-0.0079-0.04498 0-0.06614 0.01058-0.02117 0.0291-0.03704 0.05027-0.04498l34.416-12.231c0.04233-0.01323 0.08731 0.0053 0.10583 0.04762 0.01852 0.03969 0 0.08731-0.03969 0.10848z" fill="#a37902" stroke="#a37902" stroke-linejoin="bevel" stroke-width=".042333px"/>
<path d="m59.412 42.7-34.416-12.231c-2.8125 7.9109-2.8125 16.552 0 24.463z" fill="#2d9449" fill-rule="evenodd"/>
<path d="m59.386 42.621v0.16139l-34.416-12.231 0.10848-0.05292-0.25664 0.74346-0.23812 0.74611-0.22225 0.7514-0.20637 0.7514-0.1852 0.75669-0.17462 0.75934-0.1561 0.76199-0.14023 0.76463-0.12435 0.76728-0.10583 0.76728-0.08996 0.76992-0.07408 0.77257-0.05821 0.77257-0.04233 0.77257-0.02381 0.77257-0.0079 0.77522 0.0079 0.77257 0.02381 0.77257 0.04233 0.77522 0.05821 0.77257 0.07408 0.76992 0.08996 0.77257 0.10583 0.76728 0.12435 0.76463 0.14023 0.76728 0.1561 0.76199 0.17462 0.75669 0.18785 0.75934 0.20373 0.7514 0.22225 0.74876 0.23812 0.74876 0.25664 0.74082-0.10848-0.05292zm-34.361 12.393c-0.02117 0.0053-0.04498 0.0053-0.0635-0.0053-0.02117-0.0079-0.03704-0.02646-0.04498-0.04762l-0.25664-0.74611-0.23812-0.74876-0.22225-0.75405-0.20902-0.75669-0.18785-0.75934-0.17462-0.76199-0.1561-0.76728-0.14023-0.76728-0.12435-0.76992-0.10583-0.77257-0.08996-0.77257-0.07408-0.77522-0.05821-0.77786-0.04498-0.77786-0.02381-0.77522-0.0079-0.77786 0.0079-0.77786 0.02646-0.77521 0.04233-0.77786 0.05821-0.77786 0.07408-0.77257 0.08996-0.77521 0.10583-0.77257 0.12435-0.76728 0.14023-0.76992 0.1561-0.76728 0.17462-0.75934 0.1905-0.76199 0.20637-0.75669 0.22225-0.7514 0.23812-0.7514 0.25664-0.74346c0.0079-0.02117 0.02381-0.03969 0.04498-0.04762 0.01852-0.01058 0.04233-0.01323 0.0635-0.0053l34.416 12.231c0.03439 0.01323 0.05556 0.04498 0.05556 0.07937 0 0.03704-0.02117 0.06879-0.05556 0.08202z" fill="#1e6c33" stroke="#1e6c33" stroke-linejoin="bevel" stroke-width=".042333px"/>
<path d="m59.412 42.7-32.429-16.803c-0.76728 1.4763-1.4287 3.003-1.987 4.5719z" fill="#e26001" fill-rule="evenodd"/>
<path d="m59.441 42.621-0.06615 0.1561-32.429-16.803 0.11377-0.03704-0.55562 1.1165-0.51328 1.1324-0.47624 1.1483-0.4392 1.1668-0.05027-0.11112zm-34.472-12.07c-0.02117-0.0079-0.03969-0.02381-0.05027-0.04498-0.0079-0.02117-0.01058-0.04498 0-0.06615l0.4392-1.1721 0.47624-1.1536 0.51857-1.1377 0.55562-1.1165c0.01058-0.01852 0.02646-0.0344 0.05027-0.04233 0.02117-0.0079 0.04498-0.0053 0.0635 0.0053l32.429 16.803c0.03969 0.02117 0.05821 0.06879 0.03969 0.10848-0.01852 0.04233-0.0635 0.06085-0.10583 0.04762z" fill="#a64400" stroke="#a64400" stroke-linejoin="bevel" stroke-width=".042333px"/>
<path d="m59.412 42.7-26.693-24.931c-2.2754 2.4341-4.2042 5.1699-5.7361 8.1279z" fill="#3da7af" fill-rule="evenodd"/>
<path d="m59.452 42.626-0.09525 0.13758-26.693-24.931 0.11906-0.0053-0.83607 0.92602-0.80167 0.95248-0.76728 0.97894-0.73553 1.0028-0.69849 1.0266-0.66409 1.0557-0.6297 1.0742-0.59001 1.0954-0.03704-0.11641zm-32.506-16.653c-0.02117-0.01058-0.03704-0.0291-0.04233-0.05027-0.0079-0.02117-0.0053-0.04498 0.0053-0.06614l0.5953-1.1006 0.6297-1.0795 0.66938-1.0583 0.70378-1.0292 0.73553-1.008 0.77257-0.98423 0.80696-0.95777 0.83607-0.92602c0.01323-0.01588 0.03704-0.02646 0.05821-0.0291 0.02381 0 0.04498 0.0079 0.06085 0.02381l26.693 24.931c0.03175 0.02911 0.03704 0.07673 0.01323 0.11112-0.02646 0.0344-0.07144 0.04498-0.10848 0.02646z" fill="#2a7a80" stroke="#2a7a80" stroke-linejoin="bevel" stroke-width=".042333px"/>
<path d="m59.412 42.7v-36.525c-10.12 0-19.785 4.1989-26.693 11.594z" fill="#8eacf7" fill-rule="evenodd"/>
<path d="m59.47 42.64-0.14287 0.06085v-36.525l0.08731 0.08467-0.94719 0.01323-0.9419 0.03704-0.93925 0.06085-0.93661 0.08467-0.92867 0.10848-0.92602 0.13229-0.91809 0.1561-0.91544 0.17991-0.91015 0.20108-0.90221 0.22489-0.89427 0.24606-0.88898 0.27252-0.8784 0.29104-0.87576 0.3175-0.86253 0.33337-0.85459 0.35983-0.844 0.38099-0.83872 0.39951-0.82284 0.42332-0.8149 0.44449-0.80167 0.46301-0.79373 0.48682-0.78051 0.50534-0.76728 0.52651-0.7567 0.54503-0.74082 0.56884-0.72759 0.58472-0.71701 0.60588-0.69849 0.6244-0.68526 0.64557-0.66938 0.66145-0.65351 0.68526-0.0053-0.12171zm-26.807-24.807c-0.01852-0.01587-0.02646-0.03704-0.0291-0.06085 0-0.02117 0.0079-0.04233 0.02381-0.06085l0.6588-0.68526 0.67468-0.66674 0.68526-0.64557 0.70378-0.6297 0.71701-0.60588 0.73288-0.59001 0.74611-0.56884 0.75669-0.55032 0.77257-0.52651 0.7858-0.51064 0.79374-0.48682 0.80696-0.4683 0.82019-0.44449 0.82813-0.42333 0.83871-0.4048 0.8493-0.38099 0.85988-0.35983 0.86782-0.33866 0.87575-0.31749 0.88369-0.29104 0.89427-0.27252 0.89957-0.25135 0.9075-0.22489 0.91015-0.20108 0.92073-0.17991 0.92338-0.1561 0.93132-0.13229 0.93396-0.10848 0.93661-0.08466 0.94454-0.0635 0.94719-0.03704 0.94719-0.01323c0.02381 0 0.04498 0.01058 0.06085 0.02646 0.01588 0.01587 0.02381 0.03704 0.02381 0.05821v36.525c0 0.0344-0.01852 0.06615-0.05027 0.07938-0.0291 0.01323-0.06614 0.0079-0.08996-0.01588z" fill="#8999c8" stroke="#8999c8" stroke-linejoin="bevel" stroke-width=".042333px"/>
<text x="70.828667" y="37.854469" fill="#000000" font-family="Arial" font-size="3.5058px" font-weight="400" letter-spacing="0px" stroke-width=".26459" word-spacing="0px" style="line-height:125%" xml:space="preserve"><tspan x="70.828667" y="37.854469" stroke-width=".26459"><tspan dx="0" dy="0" fill="#000000" font-family="Arial" font-size="3.5058px" font-weight="400" stroke-width=".26459">Heterosexuell: </tspan></tspan></text>
<text x="75.612244" y="41.918392" fill="#000000" font-family="Arial" font-size="3.5058px" font-weight="400" letter-spacing="0px" stroke-width=".26459" word-spacing="0px" style="line-height:125%" xml:space="preserve"><tspan x="75.612244" y="41.918392" stroke-width=".26459"><tspan dx="0" dy="0" fill="#000000" font-family="Arial" font-size="3.5058px" font-weight="400" stroke-width=".26459">18; 39%</tspan></tspan></text>
<text x="44.899971" y="69.603889" fill="#000000" font-family="Arial" font-size="3.5058px" font-weight="400" letter-spacing="0px" stroke-width=".26459" word-spacing="0px" style="line-height:125%" xml:space="preserve"><tspan x="44.899971" y="69.603889" stroke-width=".26459"><tspan dx="0" dy="0" fill="#000000" font-family="Arial" font-size="3.5058px" font-weight="400" stroke-width=".26459">Bisexuell:</tspan></tspan></text>
<text x="45.958286" y="73.667816" fill="#000000" font-family="Arial" font-size="3.5058px" font-weight="400" letter-spacing="0px" stroke-width=".26459" word-spacing="0px" style="line-height:125%" xml:space="preserve"><tspan x="45.958286" y="73.667816" stroke-width=".26459"><tspan dx="0" dy="0" fill="#000000" font-family="Arial" font-size="3.5058px" font-weight="400" stroke-width=".26459">13; 28%</tspan></tspan></text>
<text x="3.5869169" y="60.608223" fill="#000000" font-family="Arial" font-size="3.5058px" font-weight="400" letter-spacing="0px" stroke-width=".26459" word-spacing="0px" style="line-height:125%" xml:space="preserve"><tspan x="3.5869169" y="60.608223" stroke-width=".26459"><tspan dx="0" dy="0" fill="#000000" font-family="Arial" font-size="3.5058px" font-weight="400" stroke-width=".26459">Homosexuell:</tspan></tspan></text>
<text x="9.7674713" y="64.67215" fill="#000000" font-family="Arial" font-size="3.5058px" font-weight="400" letter-spacing="0px" stroke-width=".26459" word-spacing="0px" style="line-height:125%" xml:space="preserve"><tspan x="9.7674713" y="64.67215" stroke-width=".26459"><tspan dx="0" dy="0" fill="#000000" font-family="Arial" font-size="3.5058px" font-weight="400" stroke-width=".26459">1; 2%</tspan></tspan></text>
<text x="6.6143899" y="40.626247" fill="#000000" font-family="Arial" font-size="3.5058px" font-weight="400" letter-spacing="0px" stroke-width=".26459" word-spacing="0px" style="line-height:125%" xml:space="preserve"><tspan x="6.6143899" y="40.626247" stroke-width=".26459"><tspan dx="0" dy="0" fill="#000000" font-family="Arial" font-size="3.5058px" font-weight="400" stroke-width=".26459">Pan</tspan></tspan></text>
<text x="12.837276" y="40.626247" fill="#000000" font-family="Arial" font-size="3.5058px" font-weight="400" letter-spacing="0px" stroke-width=".26459" word-spacing="0px" style="line-height:125%" xml:space="preserve"><tspan x="12.837276" y="40.626247" stroke-width=".26459"><tspan dx="0" dy="0" fill="#000000" font-family="Arial" font-size="3.5058px" font-weight="400" stroke-width=".26459">-</tspan></tspan></text>
<text x="15.03857" y="40.626247" fill="#000000" font-family="Arial" font-size="3.5058px" font-weight="400" letter-spacing="0px" stroke-width=".26459" word-spacing="0px" style="line-height:125%" xml:space="preserve"><tspan x="15.03857" y="40.626247" stroke-width=".26459"><tspan dx="0" dy="0" fill="#000000" font-family="Arial" font-size="3.5058px" font-weight="400" stroke-width=".26459">/</tspan></tspan></text>
<text x="1.1534891" y="44.690174" fill="#000000" font-family="Arial" font-size="3.5058px" font-weight="400" letter-spacing="0px" stroke-width=".26459" word-spacing="0px" style="line-height:125%" xml:space="preserve"><tspan x="1.1534891" y="44.690174" stroke-width=".26459"><tspan dx="0" dy="0" fill="#000000" font-family="Arial" font-size="3.5058px" font-weight="400" stroke-width=".26459">Omnisexuell:</tspan></tspan></text>
<text x="5.8524036" y="48.754101" fill="#000000" font-family="Arial" font-size="3.5058px" font-weight="400" letter-spacing="0px" stroke-width=".26459" word-spacing="0px" style="line-height:125%" xml:space="preserve"><tspan x="5.8524036" y="48.754101" stroke-width=".26459"><tspan dx="0" dy="0" fill="#000000" font-family="Arial" font-size="3.5058px" font-weight="400" stroke-width=".26459">5; 11%</tspan></tspan></text>
<text x="4.1760454" y="27.006746" fill="#000000" font-family="Arial" font-size="3.5058px" font-weight="400" letter-spacing="0px" stroke-width=".26459" word-spacing="0px" style="line-height:125%" xml:space="preserve"><tspan x="4.1760454" y="27.006746" stroke-width=".26459"><tspan dx="0" dy="0" fill="#000000" font-family="Arial" font-size="3.5058px" font-weight="400" stroke-width=".26459">Sapiosexuell:</tspan></tspan></text>
<text x="10.102605" y="31.070669" fill="#000000" font-family="Arial" font-size="3.5058px" font-weight="400" letter-spacing="0px" stroke-width=".26459" word-spacing="0px" style="line-height:125%" xml:space="preserve"><tspan x="10.102605" y="31.070669" stroke-width=".26459"><tspan dx="0" dy="0" fill="#000000" font-family="Arial" font-size="3.5058px" font-weight="400" stroke-width=".26459">1; 2%</tspan></tspan></text>
<text x="4.3614159" y="20.747694" fill="#000000" font-family="Arial" font-size="3.5058px" font-weight="400" letter-spacing="0px" stroke-width=".26459" word-spacing="0px" style="line-height:125%" xml:space="preserve"><tspan x="4.3614159" y="20.747694" stroke-width=".26459"><tspan dx="0" dy="0" fill="#000000" font-family="Arial" font-size="3.5058px" font-weight="400" stroke-width=".26459">Asexuell: 2; 5%</tspan></tspan></text>
<text x="32.415668" y="3.8312507" fill="#000000" font-family="Arial" font-size="3.5058px" font-weight="400" letter-spacing="0px" stroke-width=".26459" word-spacing="0px" style="line-height:125%" xml:space="preserve"><tspan x="32.415668" y="3.8312507" stroke-width=".26459"><tspan dx="0" dy="0" fill="#000000" font-family="Arial" font-size="3.5058px" font-weight="400" stroke-width=".26459">Unsicher:</tspan></tspan></text>
<text x="34.362968" y="7.8951764" fill="#000000" font-family="Arial" font-size="3.5058px" font-weight="400" letter-spacing="0px" stroke-width=".26459" word-spacing="0px" style="line-height:125%" xml:space="preserve"><tspan x="34.362968" y="7.8951764" stroke-width=".26459"><tspan dx="0" dy="0" fill="#000000" font-family="Arial" font-size="3.5058px" font-weight="400" stroke-width=".26459">6; 13%</tspan></tspan></text>
</svg>
