<?xml version="1.0" encoding="UTF-8"?>
<svg width="308.18" height="314.57" version="1.1" viewBox="0 0 81.54 83.229" xmlns="http://www.w3.org/2000/svg" xmlns:cc="http://creativecommons.org/ns#" xmlns:dc="http://purl.org/dc/elements/1.1/" xmlns:rdf="http://www.w3.org/1999/02/22-rdf-syntax-ns#">
<metadata>
<rdf:RDF>
<cc:Work rdf:about="">
<dc:format>image/svg+xml</dc:format>
<dc:type rdf:resource="http://purl.org/dc/dcmitype/StillImage"/>
<dc:title/>
</cc:Work>
</rdf:RDF>
</metadata>
<path d="m20.552 2.7194v52.786h59.559v-52.786z" fill="#e7e7e7" fill-rule="evenodd"/>
<path d="m20.552 44.838h59.559v0.16932h-59.559zm0-10.54h59.559v0.16932h-59.559zm0-10.583h59.559v0.16932h-59.559zm0-10.54h59.559v0.16932h-59.559zm0-10.54h59.559v0.16932h-59.559z" fill="#898989" stroke="#898989" stroke-linejoin="bevel" stroke-width=".042331px"/>
<path d="m50.31 42.807v12.699h7.4502v-12.699z" fill="#e26001" fill-rule="evenodd"/>
<path d="m50.225 42.807c0-0.04498 0.0397-0.08466 0.0847-0.08466h7.4502c0.0476 0 0.0847 0.03969 0.0847 0.08466v12.699c0 0.04762-0.037 0.08466-0.0847 0.08466h-7.4502c-0.045 0-0.0847-0.03704-0.0847-0.08466zm0.16933 12.699-0.0847-0.08466h7.4502l-0.0847 0.08466v-12.699l0.0847 0.08466h-7.4502l0.0847-0.08466z" fill="#a64400" stroke="#a64400" stroke-linejoin="bevel" stroke-width=".042331px"/>
<path d="m57.76 42.807v12.699h7.4502v-12.699z" fill="#3da7af" fill-rule="evenodd"/>
<path d="m57.676 42.807c0-0.04498 0.0397-0.08466 0.0847-0.08466h7.4502c0.0476 0 0.0847 0.03969 0.0847 0.08466v12.699c0 0.04762-0.037 0.08466-0.0847 0.08466h-7.4502c-0.045 0-0.0847-0.03704-0.0847-0.08466zm0.16932 12.699-0.0847-0.08466h7.4502l-0.0847 0.08466v-12.699l0.0847 0.08466h-7.4502l0.0847-0.08466z" fill="#2a7a80" stroke="#2a7a80" stroke-linejoin="bevel" stroke-width=".042331px"/>
<path d="m65.21 17.493v38.013h7.4502v-38.013z" fill="#8eacf7" fill-rule="evenodd"/>
<path d="m65.126 17.493c0-0.04498 0.0397-0.08466 0.0847-0.08466h7.4502c0.0476 0 0.0847 0.03969 0.0847 0.08466v38.013c0 0.04762-0.037 0.08466-0.0847 0.08466h-7.4502c-0.045 0-0.0847-0.03704-0.0847-0.08466zm0.16932 38.013-0.0847-0.08466h7.4502l-0.0847 0.08466v-38.013l0.0847 0.08466h-7.4502l0.0847-0.08466z" fill="#8999c8" stroke="#8999c8" stroke-linejoin="bevel" stroke-width=".042331px"/>
<path d="m72.661 13.26v42.246h7.4502v-42.246z" fill="#ef8f8b" fill-rule="evenodd"/>
<path d="m72.576 13.26c0-0.04498 0.0397-0.08466 0.0847-0.08466h7.4502c0.0476 0 0.0847 0.03968 0.0847 0.08466v42.246c0 0.04762-0.037 0.08466-0.0847 0.08466h-7.4502c-0.045 0-0.0847-0.03704-0.0847-0.08466zm0.16932 42.246-0.0847-0.08466h7.4502l-0.0847 0.08466v-42.246l0.0847 0.08466h-7.4502l0.0847-0.08466z" fill="#c38987" stroke="#c38987" stroke-linejoin="bevel" stroke-width=".042331px"/>
<path d="m20.467 55.506v-52.786h0.16933v52.786z" fill="#898989" stroke="#898989" stroke-linejoin="bevel" stroke-width=".042331px"/>
<path d="m19.493 55.421h1.0583v0.16932h-1.0583zm0-10.583h1.0583v0.16932h-1.0583zm0-10.54h1.0583v0.16932h-1.0583zm0-10.583h1.0583v0.16932h-1.0583zm0-10.54h1.0583v0.16932h-1.0583zm0-10.54h1.0583v0.16932h-1.0583z" fill="#898989" stroke="#898989" stroke-linejoin="bevel" stroke-width=".042331px"/>
<path d="m20.552 55.421h59.559v0.16932h-59.559z" fill="#898989" stroke="#898989" stroke-linejoin="bevel" stroke-width=".042331px"/>
<path d="m20.636 55.506v1.0583h-0.16933v-1.0583zm7.4502 0v1.0583h-0.16933v-1.0583zm7.4502 0v1.0583h-0.16933v-1.0583zm7.4079 0v1.0583h-0.16932v-1.0583zm7.4502 0v1.0583h-0.16933v-1.0583zm7.4502 0v1.0583h-0.16932v-1.0583zm7.4502 0v1.0583h-0.16932v-1.0583zm7.4502 0v1.0583h-0.16932v-1.0583zm7.4502 0v1.0583h-0.16932v-1.0583z" fill="#898989" stroke="#898989" stroke-linejoin="bevel" stroke-width=".042331px"/>
<text x="23.325968" y="53.173138" fill="#000000" font-family="Arial" font-size="3.5057px" font-weight="400" letter-spacing="0px" stroke-width=".26458" word-spacing="0px" style="line-height:125%" xml:space="preserve"><tspan x="23.325968" y="53.173138" stroke-width=".26458"><tspan dx="0" dy="0" fill="#000000" font-family="Arial" font-size="3.5057px" font-weight="400" stroke-width=".26458">0</tspan></tspan></text>
<text x="30.770548" y="53.181824" fill="#000000" font-family="Arial" font-size="3.5057px" font-weight="400" letter-spacing="0px" stroke-width=".26458" word-spacing="0px" style="line-height:125%" xml:space="preserve"><tspan x="30.770548" y="53.181824" stroke-width=".26458"><tspan dx="0" dy="0" fill="#000000" font-family="Arial" font-size="3.5057px" font-weight="400" stroke-width=".26458">0</tspan></tspan></text>
<text x="38.21513" y="53.181824" fill="#000000" font-family="Arial" font-size="3.5057px" font-weight="400" letter-spacing="0px" stroke-width=".26458" word-spacing="0px" style="line-height:125%" xml:space="preserve"><tspan x="38.21513" y="53.181824" stroke-width=".26458"><tspan dx="0" dy="0" fill="#000000" font-family="Arial" font-size="3.5057px" font-weight="400" stroke-width=".26458">0</tspan></tspan></text>
<text x="45.659702" y="53.181824" fill="#000000" font-family="Arial" font-size="3.5057px" font-weight="400" letter-spacing="0px" stroke-width=".26458" word-spacing="0px" style="line-height:125%" xml:space="preserve"><tspan x="45.659702" y="53.181824" stroke-width=".26458"><tspan dx="0" dy="0" fill="#000000" font-family="Arial" font-size="3.5057px" font-weight="400" stroke-width=".26458">0</tspan></tspan></text>
<text x="53.104267" y="47.745529" fill="#000000" font-family="Arial" font-size="3.5057px" font-weight="400" letter-spacing="0px" stroke-width=".26458" word-spacing="0px" style="line-height:125%" xml:space="preserve"><tspan x="53.104267" y="47.745529" stroke-width=".26458"><tspan dx="0" dy="0" fill="#000000" font-family="Arial" font-size="3.5057px" font-weight="400" stroke-width=".26458">6</tspan></tspan></text>
<text x="60.548847" y="47.745529" fill="#000000" font-family="Arial" font-size="3.5057px" font-weight="400" letter-spacing="0px" stroke-width=".26458" word-spacing="0px" style="line-height:125%" xml:space="preserve"><tspan x="60.548847" y="47.745529" stroke-width=".26458"><tspan dx="0" dy="0" fill="#000000" font-family="Arial" font-size="3.5057px" font-weight="400" stroke-width=".26458">6</tspan></tspan></text>
<text x="67.019806" y="22.409986" fill="#000000" font-family="Arial" font-size="3.5057px" font-weight="400" letter-spacing="0px" stroke-width=".26458" word-spacing="0px" style="line-height:125%" xml:space="preserve"><tspan x="67.019806" y="22.409986" stroke-width=".26458"><tspan dx="0" dy="0" fill="#000000" font-family="Arial" font-size="3.5057px" font-weight="400" stroke-width=".26458">18</tspan></tspan></text>
<text x="74.464386" y="18.187395" fill="#000000" font-family="Arial" font-size="3.5057px" font-weight="400" letter-spacing="0px" stroke-width=".26458" word-spacing="0px" style="line-height:125%" xml:space="preserve"><tspan x="74.464386" y="18.187395" stroke-width=".26458"><tspan dx="0" dy="0" fill="#000000" font-family="Arial" font-size="3.5057px" font-weight="400" stroke-width=".26458">20</tspan></tspan></text>
<text x="15.576685" y="56.624718" fill="#000000" font-family="Arial" font-size="3.5057px" font-weight="400" letter-spacing="0px" stroke-width=".26458" word-spacing="0px" style="line-height:125%" xml:space="preserve"><tspan x="15.576685" y="56.624718" stroke-width=".26458"><tspan dx="0" dy="0" fill="#000000" font-family="Arial" font-size="3.5057px" font-weight="400" stroke-width=".26458">0</tspan></tspan></text>
<text x="15.576685" y="46.068218" fill="#000000" font-family="Arial" font-size="3.5057px" font-weight="400" letter-spacing="0px" stroke-width=".26458" word-spacing="0px" style="line-height:125%" xml:space="preserve"><tspan x="15.576685" y="46.068218" stroke-width=".26458"><tspan dx="0" dy="0" fill="#000000" font-family="Arial" font-size="3.5057px" font-weight="400" stroke-width=".26458">5</tspan></tspan></text>
<text x="13.615366" y="35.511761" fill="#000000" font-family="Arial" font-size="3.5057px" font-weight="400" letter-spacing="0px" stroke-width=".26458" word-spacing="0px" style="line-height:125%" xml:space="preserve"><tspan x="13.615366" y="35.511761" stroke-width=".26458"><tspan dx="0" dy="0" fill="#000000" font-family="Arial" font-size="3.5057px" font-weight="400" stroke-width=".26458">10</tspan></tspan></text>
<text x="13.615366" y="24.955267" fill="#000000" font-family="Arial" font-size="3.5057px" font-weight="400" letter-spacing="0px" stroke-width=".26458" word-spacing="0px" style="line-height:125%" xml:space="preserve"><tspan x="13.615366" y="24.955267" stroke-width=".26458"><tspan dx="0" dy="0" fill="#000000" font-family="Arial" font-size="3.5057px" font-weight="400" stroke-width=".26458">15</tspan></tspan></text>
<text x="13.615366" y="14.398804" fill="#000000" font-family="Arial" font-size="3.5057px" font-weight="400" letter-spacing="0px" stroke-width=".26458" word-spacing="0px" style="line-height:125%" xml:space="preserve"><tspan x="13.615366" y="14.398804" stroke-width=".26458"><tspan dx="0" dy="0" fill="#000000" font-family="Arial" font-size="3.5057px" font-weight="400" stroke-width=".26458">20</tspan></tspan></text>
<text x="13.615366" y="3.8423123" fill="#000000" font-family="Arial" font-size="3.5057px" font-weight="400" letter-spacing="0px" stroke-width=".26458" word-spacing="0px" style="line-height:125%" xml:space="preserve"><tspan x="13.615366" y="3.8423123" stroke-width=".26458"><tspan dx="0" dy="0" fill="#000000" font-family="Arial" font-size="3.5057px" font-weight="400" stroke-width=".26458">25</tspan></tspan></text>
<path d="m3.3177 81.69-0.21959 0.21695-1.3916-1.3916c-0.0026 0.10318-0.02116 0.22224-0.05556 0.35716-0.03439 0.13758-0.07408 0.25134-0.11641 0.34394l-0.21165-0.21165c0.0635-0.17991 0.10054-0.35452 0.11112-0.52913 0.01058-0.17197-0.0053-0.31748-0.04233-0.43124l0.14022-0.14022zm2.2726-1.2276c-0.2725-0.03175-0.55294-0.10847-0.83868-0.23017-0.28838-0.11906-0.53972-0.28838-0.75931-0.50797-0.19313-0.19049-0.34658-0.40743-0.46034-0.64554-0.12964-0.2778-0.22224-0.59263-0.2725-0.9498l0.1561-0.15609c0.07143 0.26721 0.12435 0.45241 0.16668 0.55559 0.06085 0.16139 0.14022 0.31484 0.23282 0.46564 0.11641 0.1852 0.25134 0.35452 0.40214 0.50797 0.38891 0.38891 0.89953 0.65612 1.5292 0.80164zm-0.11376-0.93392-1.7779-1.7779 0.23546-0.23547 0.88101 0.88365 0.0026-1.7673 0.31748-0.31748-0.02381 1.4657 1.8361 0.28044-0.31219 0.30954-1.5318-0.26721-0.0079 0.57411 0.61644 0.61644zm2.3388-2.6562c-0.01058 0.14816-0.03969 0.27515-0.08731 0.37833-0.04498 0.10318-0.11112 0.19843-0.19842 0.28309-0.14022 0.14286-0.28309 0.21694-0.4286 0.22223-0.14551 0.0079-0.2725-0.04233-0.38098-0.1508-0.06085-0.06349-0.10583-0.13493-0.12964-0.2143-0.02381-0.08202-0.02646-0.16138-0.01323-0.23811 0.01587-0.07937 0.04498-0.15609 0.08731-0.23017 0.03175-0.05291 0.08466-0.12964 0.16138-0.22753 0.15345-0.19578 0.25928-0.35187 0.31483-0.46299-0.0291-0.03175-0.04762-0.05027-0.05821-0.0582-0.08731-0.08995-0.17197-0.13228-0.24869-0.12699-0.10583 0.0053-0.21165 0.0635-0.32277 0.17462-0.10318 0.10318-0.16138 0.19578-0.17461 0.28044-0.01058 0.08731 0.01587 0.1852 0.08466 0.30161l-0.2434 0.18255c-0.07143-0.10847-0.11376-0.2143-0.12435-0.31748-0.01323-0.10054 0.0079-0.20636 0.06085-0.32013 0.05556-0.11641 0.13757-0.22753 0.24869-0.33864 0.10847-0.11112 0.21165-0.18784 0.3069-0.23017 0.0926-0.04233 0.17726-0.06085 0.24869-0.05291 0.07143 0.0053 0.14287 0.0344 0.21694 0.07937 0.04498 0.03175 0.11376 0.09524 0.21165 0.19049l0.29102 0.29102c0.20372 0.20372 0.336 0.32806 0.3995 0.37304 0.0635 0.04233 0.13228 0.07672 0.20901 0.09789l-0.22753 0.22753c-0.06879-0.02117-0.13493-0.06085-0.20372-0.11376zm-0.50532-0.47093c-0.04762 0.11376-0.13757 0.25928-0.2725 0.43918-0.07672 0.10318-0.12699 0.18255-0.14816 0.23547-0.02116 0.05291-0.02646 0.10583-0.01587 0.15609 0.01323 0.05291 0.03704 0.09789 0.07408 0.13493 0.05821 0.05821 0.12964 0.08466 0.21165 0.07937 0.08202-0.0053 0.16668-0.05027 0.25134-0.13493 0.08466-0.08466 0.14022-0.17726 0.16932-0.28044 0.0291-0.10318 0.02646-0.20107-0.0053-0.29631-0.02646-0.07143-0.08731-0.15609-0.1852-0.25134zm2.0451-0.75137-0.18784-0.18784c0.04498 0.2434-0.01852 0.45505-0.19049 0.62702-0.07672 0.07408-0.16139 0.13228-0.25663 0.16932-0.09524 0.03439-0.17991 0.04762-0.25663 0.03704-0.07672-0.01323-0.15345-0.04498-0.23017-0.09524-0.05027-0.03439-0.12435-0.09789-0.21694-0.19049l-0.79899-0.799 0.21959-0.21694 0.71433 0.71433c0.11376 0.11376 0.19578 0.1852 0.2434 0.21694 0.07143 0.04233 0.14551 0.05821 0.22224 0.04763 0.07672-0.01323 0.14816-0.05027 0.2143-0.11641 0.06614-0.06614 0.11112-0.14286 0.13493-0.23547 0.02381-0.08995 0.01852-0.17726-0.01587-0.25928-0.03439-0.07937-0.10583-0.17726-0.2143-0.28573l-0.69052-0.69052 0.21694-0.21959 1.2884 1.2884zm0.56353-0.56353-1.2884-1.2858 0.19578-0.19578 0.1799 0.1799c-0.02117-0.10318-0.01852-0.209 0.01058-0.31219 0.02646-0.10583 0.08466-0.20372 0.16932-0.28838 0.09524-0.09524 0.19578-0.15345 0.29631-0.17461 0.10054-0.02117 0.19842-0.01058 0.29367 0.03704-0.04762-0.25398 0.01058-0.46035 0.17197-0.62438 0.12964-0.12699 0.26192-0.19049 0.40214-0.18784 0.14022 0.0026 0.28309 0.07672 0.4286 0.22224l0.8863 0.8863-0.21695 0.21694-0.81221-0.81222c-0.0873-0.08731-0.15875-0.14286-0.20902-0.16668-0.05291-0.02381-0.11112-0.0291-0.17197-0.01588-0.06085 0.01323-0.11376 0.04498-0.16403 0.09525-0.0926 0.08995-0.13758 0.19578-0.13758 0.31483 0.0027 0.1217 0.06879 0.24869 0.20107 0.38098l0.74873 0.74872-0.21959 0.21694-0.83604-0.83603c-0.09789-0.09789-0.18784-0.15345-0.2725-0.16668-0.08466-0.01058-0.16668 0.02116-0.24605 0.10318-0.0635 0.06085-0.10318 0.13493-0.1217 0.21959-0.02116 0.08466-0.01058 0.16932 0.02646 0.25398 0.03969 0.08731 0.11641 0.18784 0.23546 0.30425l0.66671 0.66935zm3.1113-3.1113-1.7779-0.79634 0.23017-0.23017 1.0477 0.49474c0.11376 0.05291 0.22753 0.11112 0.34129 0.17726-0.0476-0.08731-0.10318-0.19842-0.16138-0.32806l-0.50003-1.0715 0.22223-0.22488 0.80164 1.7752zm0.17462-1.4604c-0.23811-0.23811-0.34923-0.48151-0.33071-0.7302 0.0132-0.20636 0.10053-0.38891 0.26192-0.54765 0.17726-0.17726 0.37833-0.26457 0.6085-0.25928 0.22753 0.0026 0.44447 0.10583 0.64819 0.31219 0.16668 0.16403 0.2725 0.32012 0.31748 0.46564 0.045 0.14286 0.045 0.29102 3e-3 0.43653-0.0423 0.14816-0.11906 0.2778-0.23017 0.39156-0.18256 0.17991-0.38627 0.26721-0.61115 0.26457-0.22753-0.0053-0.44977-0.11641-0.66671-0.33335zm0.22488-0.22488c0.16403 0.16403 0.32277 0.25134 0.47622 0.26192 0.15609 0.01058 0.28573-0.03969 0.39685-0.14816 0.10847-0.10847 0.15609-0.24076 0.14551-0.3942-0.0106-0.15345-0.10054-0.31748-0.26986-0.48416-0.15874-0.16139-0.31483-0.24605-0.47093-0.25398-0.15345-0.01058-0.28308 0.03968-0.39156 0.14551-0.10847 0.10847-0.15874 0.24076-0.14815 0.3942 8e-3 0.15345 0.0952 0.31484 0.26192 0.47887zm1.8731-0.58734-1.2858-1.2884 0.19578-0.19578 0.19578 0.19578c-0.0423-0.14286-0.0556-0.24869-0.0423-0.32013 0.0132-0.07143 0.045-0.13493 0.0952-0.1852 0.0741-0.07408 0.17197-0.12435 0.29632-0.15345l0.12699 0.27779c-0.0847 0.02117-0.15345 0.05821-0.20901 0.11376-0.0476 0.04762-0.0741 0.10318-0.0847 0.17197-8e-3 0.06614 3e-3 0.13228 0.0397 0.19842 0.0529 0.10318 0.12435 0.20107 0.21695 0.29102l0.67464 0.67464zm0.84132-0.84132-1.7779-1.7779 0.21959-0.21695 0.63761 0.63761c-0.0159-0.21959 0.0529-0.40743 0.20901-0.56353 0.0952-0.09524 0.19577-0.15874 0.30425-0.19313 0.10847-0.03175 0.209-0.03175 0.30689 0.0053 0.0952 0.03704 0.20901 0.11641 0.33336 0.2434l0.81751 0.81751-0.21959 0.21694-0.81487-0.81486c-0.11112-0.11112-0.2143-0.16668-0.30954-0.16932-0.0979-0.0026-0.19049 0.03968-0.27515 0.12699-0.0661 0.0635-0.10847 0.14286-0.13228 0.23282-0.0238 0.08995-0.0185 0.17726 0.0132 0.25928 0.0344 0.08201 0.10053 0.17197 0.20107 0.2725l0.70639 0.70639zm2.0583-2.3758c-0.0106 0.1508-0.0397 0.27515-0.0873 0.37833s-0.11377 0.19842-0.19843 0.28309c-0.14022 0.14286-0.28573 0.21694-0.4286 0.22223-0.14551 0.0079-0.2725-0.04233-0.38097-0.1508-0.0635-0.06085-0.10583-0.13493-0.12964-0.2143-0.0238-0.08202-0.0265-0.16139-0.0132-0.23811 0.0159-0.07937 0.045-0.15609 0.0873-0.23017 0.0318-0.05291 0.0847-0.12964 0.16139-0.22753 0.15344-0.19578 0.25927-0.35187 0.31218-0.46299-0.0291-0.03175-0.0476-0.05027-0.0556-0.05821-0.0873-0.08995-0.17196-0.13228-0.24869-0.12699-0.10582 0.0079-0.2143 0.06614-0.32277 0.17462-0.10318 0.10318-0.16138 0.19578-0.17461 0.28308-0.0132 0.08466 0.0159 0.18255 0.0847 0.29896l-0.2434 0.1852c-0.0714-0.11112-0.11377-0.21694-0.127-0.31748-0.0106-0.10054 0.0106-0.20901 0.0635-0.32277 0.0556-0.11641 0.13758-0.22753 0.2487-0.33864 0.10847-0.11112 0.21165-0.1852 0.30689-0.23017 0.0926-0.04233 0.17726-0.06085 0.2487-0.05291 0.0714 0.0079 0.14286 0.0344 0.21694 0.07937 0.0423 0.03175 0.11376 0.09524 0.21165 0.19049l0.29103 0.29102c0.20371 0.20372 0.336 0.32806 0.39949 0.37304 0.0635 0.04498 0.13229 0.07672 0.20901 0.09789l-0.22753 0.23017c-0.0688-0.02381-0.13493-0.06349-0.20371-0.11641zm-0.50533-0.46828c-0.0476 0.11112-0.13757 0.25663-0.27515 0.43918-0.0767 0.10054-0.12434 0.17991-0.14551 0.23282-0.0212 0.05291-0.0265 0.10583-0.0159 0.1561 0.0106 0.05291 0.037 0.09789 0.0741 0.13493 0.0582 0.05821 0.12964 0.08466 0.21166 0.07937 0.082-0.0053 0.16667-0.05027 0.25133-0.13493 0.0847-0.08466 0.14023-0.17726 0.16933-0.28044 0.0291-0.10054 0.0265-0.20107-5e-3 -0.29367-0.0265-0.07408-0.0873-0.15874-0.1852-0.25398zm1.2302 0.06085-1.2884-1.2884 0.19842-0.19578 0.18255 0.18255c-0.0476-0.23546 0.0185-0.44447 0.19843-0.62173 0.0767-0.07937 0.16138-0.13493 0.25398-0.17197 0.0952-0.03704 0.17991-0.05027 0.25663-0.03704 0.0767 0.01323 0.15345 0.04498 0.23018 0.0926 0.0476 0.03439 0.1217 0.10054 0.22488 0.20107l0.79105 0.79105-0.21959 0.21959-0.78312-0.78312c-0.0873-0.08995-0.16403-0.14816-0.22488-0.17461-0.0609-0.02646-0.12699-0.03175-0.19578-0.01588-0.0688 0.01852-0.13228 0.05556-0.19048 0.11376-0.0926 0.0926-0.14552 0.20107-0.15345 0.32806-8e-3 0.12699 0.0714 0.2725 0.23546 0.43918l0.70375 0.70375zm2.2144-2.2118-0.16403-0.16403c0.0476 0.20901-0.0106 0.39421-0.16933 0.55295-0.10053 0.10318-0.22488 0.16932-0.36774 0.19842-0.14287 0.0291-0.28838 0.01587-0.43654-0.03704-0.14815-0.05556-0.28837-0.14816-0.42066-0.28044-0.12964-0.12699-0.22488-0.26457-0.28573-0.41272-0.0609-0.14816-0.0767-0.29367-0.0476-0.43389 0.0291-0.14287 0.0979-0.26456 0.20372-0.37039 0.0767-0.07937 0.16403-0.13228 0.25663-0.15874 0.0926-0.0291 0.18519-0.03439 0.27515-0.02117l-0.63761-0.6376 0.21694-0.21694 1.7779 1.7779zm-1.3334 0.04762c0.16403 0.16403 0.32277 0.25134 0.47358 0.26457 0.1508 0.01323 0.27515-0.0291 0.36775-0.12435 0.0979-0.09524 0.13757-0.2143 0.12699-0.35981-0.0106-0.14551-0.0979-0.29632-0.25663-0.4577-0.17726-0.17462-0.33865-0.2725-0.48945-0.28573-0.1508-0.01588-0.27515 0.0291-0.37568 0.12699-0.0979 0.09789-0.13758 0.21694-0.12435 0.36246 0.0132 0.14551 0.10583 0.30161 0.27779 0.47357zm2.3414-1.8864 0.25398-0.19842c0.0952 0.16932 0.13228 0.336 0.10847 0.50532-0.0238 0.16932-0.11112 0.32806-0.25927 0.47887-0.19049 0.18784-0.39685 0.27779-0.62438 0.2725-0.22488-0.0053-0.44183-0.11112-0.65348-0.32277-0.21694-0.21694-0.32806-0.43918-0.336-0.672-8e-3 -0.23017 0.0767-0.43389 0.25399-0.61379 0.17196-0.17197 0.37303-0.25398 0.59792-0.24605 0.22752 0.0079 0.44711 0.11906 0.65877 0.33071 0.0132 0.01323 0.0317 0.0344 0.0582 0.06085l-0.96038 0.96038c0.14816 0.13228 0.29631 0.20107 0.44447 0.20636 0.14551 0.0026 0.27515-0.05027 0.38098-0.15874 0.082-0.07937 0.12699-0.16932 0.14286-0.26721 0.0132-0.09789-8e-3 -0.21165-0.0661-0.336zm-1.0715 0.3651 0.71962-0.71962c-0.11641-0.10054-0.22752-0.15345-0.32541-0.16139-0.15345-0.01587-0.28574 0.03175-0.39685 0.14287-0.10054 0.10054-0.15081 0.21959-0.15345 0.35452 0 0.13493 0.0529 0.26192 0.15609 0.38362zm2.0107-0.47622-1.2884-1.2884 0.19578-0.19578 0.18519 0.18255c-0.0476-0.23546 0.0185-0.44182 0.19578-0.62173 0.0794-0.07672 0.16403-0.13493 0.25663-0.17197 0.0926-0.03704 0.17726-0.05027 0.25663-0.03704 0.0767 0.01323 0.15345 0.04498 0.22753 0.09524 0.0503 0.03175 0.12435 0.09789 0.22488 0.19843l0.7937 0.7937-0.21959 0.21694-0.78312-0.78312c-0.09-0.08995-0.16403-0.14551-0.22488-0.17462-0.0609-0.02646-0.12699-0.03175-0.19578-0.01323-0.0688 0.01587-0.13493 0.05291-0.19313 0.11112-0.0926 0.0926-0.14287 0.20372-0.1508 0.33071-8e-3 0.12699 0.0688 0.2725 0.23546 0.43654l0.7011 0.70375zm2.0424-0.99477-0.15609 0.15609c-0.14552-0.62967-0.41537-1.1403-0.80429-1.5292-0.1508-0.15345-0.32012-0.28573-0.50267-0.3995-0.1508-0.09524-0.30425-0.17197-0.46564-0.23547-0.10318-0.03968-0.29102-0.09789-0.55823-0.16932l0.15609-0.1561c0.35452 0.05291 0.672 0.14287 0.94715 0.27515 0.24075 0.11376 0.45505 0.26721 0.64819 0.46034 0.21694 0.21695 0.38626 0.47093 0.50796 0.75666 0.11906 0.28838 0.19578 0.56882 0.22753 0.84132z"/>
<path d="m31.942 60.597 2e-6 0.29558-1.6631 0.0019c-0.0019-0.07673 0.0093-0.1478 0.03554-0.21514 0.04301-0.11414 0.11039-0.22635 0.20391-0.33487 0.09169-0.11036 0.22844-0.23551 0.4041-0.38162 0.27314-0.22449 0.45835-0.40221 0.55376-0.53128 0.09538-0.13286 0.14403-0.25632 0.14405-0.37228 7e-6 -0.12347-0.04303-0.22636-0.13095-0.31055-0.08789-0.08422-0.20018-0.12535-0.34235-0.12534-0.14966-2e-6 -0.26752 0.04303-0.35732 0.13282-0.0898 0.0898-0.13467 0.2133-0.13469 0.37041l-0.31803-0.02993c0.02245-0.23946 0.10476-0.41905 0.24694-0.54252 0.14032-0.12533 0.33112-0.1852 0.57059-0.1852 0.24133-0.0019 0.43214 0.06547 0.57245 0.1983 0.14028 0.1366 0.2114 0.3012 0.2114 0.4995-2.1e-5 0.101-0.02058 0.20017-0.06173 0.29745-0.04306 0.09538-0.1085 0.1983-0.20581 0.30678-0.09536 0.10668-0.25442 0.25442-0.47517 0.44151-0.18523 0.15525-0.30497 0.26-0.35732 0.31616-0.05213 0.05637-0.09727 0.11226-0.13092 0.1684z"/>
<path d="m37.633 60.289 0.30868-0.03928c0.03554 0.17398 0.09541 0.30119 0.18146 0.37602 0.08419 0.07669 0.18895 0.11786 0.31055 0.11599 0.14592-1e-6 0.26751-0.05052 0.36853-0.15154 0.09915-0.09915 0.14967-0.22448 0.14966-0.37416 0.0019-0.14031-0.04677-0.2563-0.13843-0.34796-0.09354-0.09354-0.2114-0.1403-0.35358-0.14031-0.058 0.0019-0.13098 0.0112-0.21888 0.03554l0.03554-0.27126c0.0206 0.0019 0.03741 0.0037 0.04861 0.0037 0.13282-0.0019 0.25068-0.03367 0.35545-0.10476 0.10479-0.06732 0.159-0.17399 0.15901-0.31616-2.1e-5 -0.11227-0.03928-0.20765-0.11598-0.28061-0.07483-0.07483-0.17586-0.11225-0.29558-0.11225-0.11976-2.8e-5 -0.22075 0.03741-0.3012 0.11411-0.07882 0.07458-0.13094 0.18709-0.15527 0.33861l-0.30868-0.05425c0.03929-0.20765 0.12534-0.36854 0.25817-0.48266 0.13471-0.11223 0.30119-0.17024 0.4995-0.17024 0.13657 0.0019 0.26191 0.02993 0.3779 0.0898 0.11785 0.05799 0.20578 0.13844 0.26565 0.23945 0.06174 0.10289 0.09167 0.2114 0.09167 0.32364-1.4e-5 0.10848-0.02806 0.20765-0.08792 0.29746-0.05613 0.08979-0.1422 0.16087-0.25813 0.2133 0.14967 0.03367 0.26378 0.10663 0.34797 0.21326 0.08231 0.10851 0.12159 0.24507 0.1216 0.40596-3e-6 0.22075-0.08045 0.40596-0.23946 0.55749-0.16068 0.15361-0.36106 0.2301-0.608 0.23011-0.22076-4e-6 -0.40222-0.06548-0.55001-0.19831-0.14591-0.13095-0.22823-0.29932-0.24881-0.51072z"/>
<path d="m46.071 60.76 2e-6 -0.60239-1.0907-0.0019-0.0019-0.28248 1.1486-1.6313 0.25256 0.0019-4e-6 1.6276 0.33861 0.0019 0.0019 0.28248-0.34048-2e-6 7e-6 0.60239zm2e-6 -0.88674-3e-6 -1.1337-0.78759 1.1318z"/>
<path d="m52.416 60.288 0.32364-0.02806c0.02432 0.15901 0.07857 0.27688 0.16836 0.35544 0.08794 0.08044 0.19082 0.11973 0.31429 0.11973 0.14966-5e-6 0.27687-0.05613 0.3779-0.16837 0.10497-0.11204 0.15526-0.26005 0.15528-0.44711-4e-6 -0.17585-0.04864-0.31429-0.14966-0.41531-0.09731-0.10099-0.22823-0.15341-0.38725-0.15154-0.09912-0.0019-0.18894 0.02058-0.26939 0.06735-0.08048 0.043-0.14405 0.1029-0.18896 0.17397l-0.28997-0.03554 0.24507-1.2927 1.2497-2e-6 1e-6 0.29558-1.0046-0.0019-0.1347 0.67722c0.14963-0.1048 0.30867-0.15902 0.47517-0.15714 0.21888-0.0019 0.40408 0.07483 0.55562 0.22636 0.14969 0.15337 0.22636 0.34984 0.22637 0.5893-1e-6 0.22449-0.06735 0.42279-0.1983 0.58742-0.16276 0.20391-0.38163 0.30682-0.66225 0.30681-0.22824-3e-6 -0.41531-0.06361-0.55936-0.19269-0.14404-0.12908-0.22636-0.29745-0.24694-0.50885z"/>
<path d="m61.539 59.016-0.30681 0.02619c-0.02806-0.1216-0.06735-0.20953-0.11599-0.26565-0.08422-0.08789-0.18708-0.13095-0.31055-0.13095-0.09729-7e-6 -0.18333 0.0262-0.25816 0.08232-0.09727 0.0711-0.17398 0.17398-0.23008 0.30871-0.05613 0.13843-0.08419 0.33112-0.08792 0.58181 0.0748-0.11228 0.16648-0.19646 0.27315-0.25066 0.10848-0.05615 0.22076-0.08231 0.33862-0.08418 0.20578-1e-6 0.37976 0.0767 0.52568 0.2301 0.14595 0.14963 0.21701 0.34422 0.21701 0.58742 2e-6 0.15715-0.03368 0.30306-0.10289 0.43963-0.06736 0.13468-0.16086 0.23949-0.28059 0.31057-0.11782 0.07299-0.25255 0.10663-0.40409 0.1085-0.25816 0-0.46582-0.09541-0.62858-0.28436-0.16276-0.18895-0.2432-0.50137-0.24507-0.93726 0.0019-0.48453 0.0898-0.8381 0.26939-1.0589 0.15715-0.19081 0.3667-0.28807 0.63232-0.2881 0.1983-1e-6 0.36106 0.05425 0.48827 0.1665 0.12534 0.11038 0.20018 0.26379 0.22636 0.45834zm-1.2609 1.085c0.0019 0.10662 0.02245 0.20953 0.06735 0.30681 0.04677 0.0954 0.11037 0.17024 0.19081 0.22075 0.08045 0.05051 0.1665 0.0767 0.25629 0.0767 0.12912-0.0018 0.24133-0.05425 0.33487-0.15901 0.09349-0.10481 0.14216-0.24696 0.1403-0.42841 0-0.17211-0.0449-0.31055-0.13844-0.41156-0.09166-0.09916-0.20952-0.14966-0.34983-0.14779-0.14031-0.0019-0.25817 0.04864-0.35544 0.14966-0.09703 0.10127-0.14596 0.23194-0.14592 0.39286z"/>
<path d="m67.819 58.558-2e-6 -0.29558 1.6276-1e-6 8e-6 0.23946c-0.16084 0.17216-0.318 0.39663-0.47705 0.67908-0.15718 0.28432-0.27874 0.57433-0.36293 0.87178-0.06361 0.20952-0.10102 0.44151-0.11973 0.69219l-0.31803 1e-6c0.0037-0.1983 0.04302-0.43589 0.11786-0.7165 0.07483-0.28061 0.18146-0.55188 0.31803-0.81191 0.14028-0.26006 0.28809-0.47893 0.44524-0.65852z"/>
<path d="m62.853 72.337c-0.12434 0.05556-0.23811 0.07672-0.34394 0.05821-0.10582-0.01852-0.20107-0.06879-0.28573-0.15609-0.12964-0.12964-0.19048-0.28309-0.18784-0.46564 5e-3 -0.17991 0.0847-0.34923 0.24076-0.50268 0.15345-0.1561 0.32541-0.23547 0.51061-0.24076 0.18255-0.0026 0.34129 0.0582 0.47093 0.18784 0.082 0.08201 0.13228 0.17726 0.14816 0.28044 0.0185 0.10583 0 0.21695-0.0556 0.33865 0.14551-0.07408 0.28573-0.09789 0.4233-0.07672 0.13493 0.02117 0.25928 0.08731 0.36775 0.19842 0.15345 0.1508 0.22753 0.33336 0.22224 0.54501-3e-3 0.21165-0.0926 0.40479-0.26986 0.5794-0.17461 0.17462-0.36775 0.26457-0.5794 0.26986-0.21165 0.0026-0.39421-0.07408-0.5503-0.22753-0.11641-0.11641-0.18255-0.2434-0.20107-0.37833-0.0212-0.13757 0.0106-0.27515 0.0899-0.41008zm-0.41272-0.32806c0.082 0.08466 0.1799 0.12699 0.28573 0.12435 0.10847 0 0.20636-0.04233 0.29102-0.12964 0.0847-0.08466 0.12699-0.1799 0.12699-0.28573 3e-3 -0.10847-0.037-0.19842-0.11376-0.27515-0.0794-0.08201-0.17461-0.1217-0.28308-0.11905-0.11112 0-0.20637 0.04233-0.29103 0.12434-0.082 0.08202-0.12434 0.17991-0.12699 0.28838 0 0.10847 0.0344 0.19842 0.11112 0.2725zm0.74872 0.89159c0.0635 0.0635 0.13757 0.10847 0.22488 0.13757 0.09 0.0291 0.17726 0.0291 0.26721 0.0026 0.09-0.02645 0.16933-0.07143 0.23812-0.14022 0.10318-0.10318 0.15609-0.22224 0.15609-0.35981 0-0.13493-0.0503-0.25398-0.15345-0.35716-0.10583-0.10583-0.22753-0.1561-0.3651-0.1561-0.14022 0.0026-0.26192 0.05556-0.36775 0.16139-0.10053 0.10054-0.15345 0.21959-0.15345 0.35716 3e-3 0.13493 0.0529 0.25398 0.15345 0.35452zm3.3891-1.3149c-0.27251-0.03175-0.55295-0.10847-0.84132-0.22753-0.28574-0.1217-0.53972-0.29102-0.75666-0.50797-0.19314-0.19313-0.34659-0.40743-0.46035-0.64819-0.13228-0.27515-0.22224-0.59263-0.27515-0.94715l0.15874-0.15609c0.0688 0.26457 0.12435 0.44976 0.16403 0.55295 0.0635 0.16138 0.14022 0.31748 0.23282 0.46563 0.11641 0.18784 0.25134 0.35716 0.40479 0.50797 0.38891 0.38891 0.89952 0.65877 1.5292 0.80428zm-0.10054-0.94715-1.7779-1.7779 1.2858-1.2858 0.20901 0.20901-1.0503 1.053 0.545 0.54236 0.98419-0.98154 0.20901 0.20636-0.98419 0.98419 0.60586 0.60586 1.09-1.0927 0.21165 0.21165zm1.4974-1.4974-0.19843-1.1403-1.053-0.18255 0.2725-0.2725 0.50003 0.10318c0.0952 0.02116 0.17197 0.03968 0.23282 0.05556-0.0159-0.08995-0.0317-0.16932-0.0423-0.24076l-0.0873-0.5212 0.25928-0.26192 0.16138 1.053 1.1614 0.20107-0.26721 0.26986-0.66406-0.13757-0.17991-0.03704 0.16932 0.84661zm1.2884-1.2858-0.17726-0.17726-0.1217-1.762c-0.0873 0.09789-0.16668 0.18255-0.23811 0.25398l-0.52649 0.52384-0.17726-0.17726 1.053-1.053 0.14552 0.14551 0.11905 1.516 0.0159 0.28309c0.09-0.10583 0.17726-0.20107 0.26457-0.28573l0.59527-0.59792 0.18784 0.19049zm1.8096-2.6404 0.25398-0.19842c0.0952 0.16668 0.13229 0.336 0.10848 0.50532-0.0238 0.16932-0.11112 0.32806-0.25928 0.47886-0.18784 0.18784-0.39685 0.2778-0.62173 0.2725-0.22753-0.0053-0.44447-0.11376-0.65348-0.32277-0.21694-0.21695-0.33071-0.43918-0.33864-0.672-8e-3 -0.23017 0.0767-0.43389 0.25398-0.61379 0.17461-0.17197 0.37304-0.25398 0.59792-0.24605 0.22753 0.0079 0.44712 0.11906 0.65877 0.33071 0.0132 0.01323 0.0318 0.03439 0.0582 0.06085l-0.96038 0.96038c0.14816 0.13228 0.29632 0.20107 0.44448 0.20372 0.14815 0.0053 0.27515-0.04762 0.38362-0.1561 0.0794-0.07937 0.12699-0.16932 0.14022-0.26721 0.0159-0.09789-8e-3 -0.21165-0.0661-0.336zm-1.0688 0.3651 0.71698-0.71962c-0.11641-0.10054-0.22488-0.15345-0.32542-0.16139-0.15345-0.01588-0.28573 0.03175-0.39685 0.14286-0.10054 0.10054-0.1508 0.21959-0.1508 0.35452-3e-3 0.13493 0.0503 0.26192 0.15609 0.38362zm2.0028-0.47093-1.7779-1.7779 0.21959-0.21959 1.7779 1.7805zm0.53971-0.53707-1.7779-1.7805 0.21694-0.21694 1.7805 1.7779zm1.0398-1.8705 0.25399-0.19842c0.0979 0.16668 0.13228 0.336 0.10847 0.50532-0.0212 0.16668-0.10847 0.32806-0.25928 0.47622-0.18784 0.18784-0.3942 0.28044-0.62173 0.27515-0.22752-0.0053-0.44447-0.11376-0.65348-0.32277-0.21694-0.21694-0.32806-0.44183-0.33864-0.672-8e-3 -0.23282 0.0767-0.43654 0.25663-0.61379 0.17196-0.17197 0.37039-0.25398 0.59792-0.24605 0.22488 0.0079 0.44447 0.11905 0.65877 0.33071 0.0132 0.01323 0.0318 0.03175 0.0556 0.05821l-0.96038 0.96302c0.1508 0.13228 0.29896 0.20107 0.44447 0.20372 0.14816 0.0026 0.27515-0.04762 0.38362-0.15609 0.0794-0.07937 0.127-0.16932 0.14287-0.26721 0.0132-0.10054-8e-3 -0.21165-0.0688-0.336zm-1.0688 0.36246 0.71962-0.71962c-0.11905-0.09789-0.22752-0.1508-0.32806-0.16139-0.15345-0.01323-0.28573 0.03439-0.3942 0.14551-0.10054 0.10054-0.15345 0.21694-0.15345 0.35452 0 0.13493 0.0503 0.26192 0.15609 0.38098zm1.979-0.44447-1.2884-1.2884 0.19843-0.19578 0.18255 0.18255c-0.0476-0.23546 0.0185-0.44182 0.19842-0.62173 0.0767-0.07672 0.16139-0.13493 0.25399-0.17197 0.0926-0.03704 0.1799-0.05027 0.25663-0.03704 0.0767 0.01323 0.15344 0.04498 0.23017 0.09525 0.0476 0.03175 0.1217 0.09789 0.22223 0.19842l0.7937 0.7937-0.21959 0.21694-0.78311-0.78312c-0.0873-0.08995-0.16404-0.14816-0.22488-0.17461-0.0609-0.02646-0.127-0.03175-0.19579-0.01587-0.0688 0.01852-0.13228 0.05556-0.19048 0.11376-0.0952 0.0926-0.14551 0.20372-0.15345 0.33071-8e-3 0.12435 0.0688 0.26986 0.23546 0.43654l0.70375 0.70375zm1.6588-2.0477 0.22488 0.16139c-0.0503 0.07408-0.0979 0.13493-0.14551 0.1852-0.0794 0.07937-0.15345 0.12699-0.22223 0.14551-0.0688 0.01852-0.13229 0.01587-0.19049-0.0053-0.0582-0.02381-0.15345-0.10054-0.28573-0.23282l-0.74079-0.74079-0.16139 0.16139-0.16932-0.17197 0.16139-0.15874-0.32013-0.32013 0.0873-0.34658 0.44976 0.44976 0.2196-0.21959 0.16932 0.16932-0.21959 0.21959 0.75401 0.75401c0.0609 0.06085 0.10583 0.09789 0.13228 0.10847 0.0238 0.01058 0.0503 0.01058 0.0794 0.0053 0.0265-0.0079 0.0582-0.02646 0.0899-0.06085 0.0238-0.02381 0.0529-0.05821 0.0873-0.10318zm1.0741 0.36246-0.15874 0.15609c-0.14551-0.62967-0.41272-1.1376-0.80164-1.5265-0.15344-0.15345-0.32012-0.28573-0.50532-0.40214-0.14815-0.0926-0.30425-0.17197-0.46299-0.23282-0.10583-0.04233-0.29102-0.09789-0.56088-0.16932l0.15609-0.1561c0.35717 0.05027 0.672 0.14287 0.9498 0.27515 0.23811 0.11376 0.45505 0.26721 0.64554 0.4577 0.21959 0.21959 0.38891 0.47093 0.50797 0.75931 0.1217 0.28838 0.19578 0.56617 0.23017 0.83868z"/>
</svg>
