<?xml version="1.0" encoding="UTF-8"?>
<svg width="78.603mm" height="87.159mm" version="1.1" viewBox="0 0 78.603 87.159" xmlns="http://www.w3.org/2000/svg" xmlns:cc="http://creativecommons.org/ns#" xmlns:dc="http://purl.org/dc/elements/1.1/" xmlns:rdf="http://www.w3.org/1999/02/22-rdf-syntax-ns#">
<metadata>
<rdf:RDF>
<cc:Work rdf:about="">
<dc:format>image/svg+xml</dc:format>
<dc:type rdf:resource="http://purl.org/dc/dcmitype/StillImage"/>
<dc:title/>
</cc:Work>
</rdf:RDF>
</metadata>
<g transform="translate(-271.12 -42.407)">
<path d="m310.42 90.278 31.013 14.393c7.9477-17.128 0.50797-37.458-16.62-45.405-4.5083-2.0901-9.4187-3.1748-14.393-3.1748z" fill="#4285f4" fill-rule="evenodd"/>
<path d="m310.51 90.278-0.0476-0.07937 31.013 14.393-0.11641 0.0476 0.70375-1.6139 0.60851-1.6298 0.51856-1.6403 0.43389-1.6509 0.34923-1.6562 0.26986-1.6615 0.17991-1.6615 0.0953-1.6615 0.0159-1.6562-0.0635-1.6509-0.14286-1.6456-0.22224-1.6245-0.30161-1.6139-0.37569-1.5927-0.44977-1.5768-0.52914-1.5504-0.59793-1.5239-0.672-1.4922-0.7408-1.4604-0.80958-1.4234-0.88366-1.3863-0.95245-1.3493-1.016-1.3017-1.0847-1.2541-1.1482-1.2064-1.2117-1.1535-1.2699-1.0953-1.3387-1.0424-1.3969-0.97891-1.4604-0.91012-1.5133-0.85191-1.5716-0.77784-0.84662-0.38098-0.8572-0.35452-0.86779-0.33336-0.86779-0.3069-0.88366-0.28574-0.88895-0.25928-0.89425-0.23811-0.89954-0.20636-0.90482-0.1852-0.91013-0.16403-0.91012-0.13758-0.9207-0.11641-0.9207-0.08466-0.92599-0.0635-0.926-0.03704-0.93128-0.01587 0.0847-0.08466zm-0.16932-34.188c0-0.02117 0.0106-0.04233 0.0265-0.0582s0.037-0.02646 0.0635-0.02646l0.93129 0.01587 0.93128 0.03704 0.93128 0.0635 0.926 0.08995 0.9207 0.11112 0.9207 0.13758 0.91541 0.16403 0.91012 0.1852 0.90483 0.21695 0.89425 0.23811 0.89424 0.25928 0.88366 0.28574 0.87838 0.31219 0.86778 0.32807 0.8625 0.35981 0.85191 0.38098 1.5821 0.78313 1.5186 0.85191 1.4657 0.9207 1.4075 0.9842 1.3387 1.0424 1.2858 1.1059 1.217 1.1588 1.1535 1.2117 1.09 1.2646 1.0212 1.307 0.95245 1.3493 0.88367 1.3969 0.82016 1.434 0.74609 1.4657 0.67201 1.5028 0.60321 1.5292 0.52385 1.5557 0.45506 1.5821 0.38098 1.6033 0.29632 1.6192 0.22753 1.6403 0.14287 1.6456 0.0635 1.6615-0.0159 1.6668-0.10053 1.6721-0.17991 1.6721-0.26457 1.6668-0.35453 1.6668-0.43389 1.6562-0.52385 1.6456-0.6138 1.635-0.69846 1.6139c-0.0106 0.0212-0.0265 0.037-0.0476 0.0476-0.0212 5e-3 -0.0476 5e-3 -0.0688-5e-3l-31.008-14.393c-0.0317-0.01058-0.0529-0.04233-0.0529-0.07408z" fill="#2e60b3" stroke="#2e60b3" stroke-linejoin="bevel" stroke-width=".042331px"/>
<path d="m310.42 90.278-33.711 5.6882c3.1431 18.615 20.779 31.161 39.4 28.023 11.107-1.8732 20.584-9.1012 25.325-19.319z" fill="#ea4335" fill-rule="evenodd"/>
<path d="m310.39 90.352 0.0476 0.01058-33.706 5.6882 0.0688-0.10054 0.15874 0.86779 0.17461 0.8572 0.20108 0.84662 0.21694 0.84133 0.23812 0.83074 0.25927 0.81488 0.28045 0.80958 0.29632 0.79371 0.31748 0.78842 0.33336 0.77783 0.34923 0.76725 0.3704 0.75138 0.39156 0.74609 0.40214 0.72492 0.42332 0.71963 0.43918 0.70904 0.44977 0.69318 0.47093 0.68259 0.98949 1.3228 1.0477 1.2752 1.1006 1.217 1.1641 1.1588 1.2117 1.1006 1.2646 1.0424 0.64555 0.49739 0.66142 0.48151 0.67201 0.46565 0.68259 0.44976 0.69317 0.4339 0.70375 0.41802 0.71434 0.40214 0.72492 0.38098 0.73551 0.36511 0.74079 0.34923 0.75138 0.32807 0.76196 0.31748 0.76725 0.29632 0.77784 0.27515 0.78312 0.25399 0.79371 0.2434 0.79371 0.22224 0.80429 0.19578 0.80958 0.1852 0.82017 0.15874 0.82546 0.14287 0.82545 0.12699 0.83604 0.10054 0.83604 0.0794 0.84663 0.0635 0.84662 0.037 0.84662 0.0159h0.85721l0.8572-0.0265 0.8625-0.0476 0.8625-0.0635 0.86249-0.09 0.86779-0.11641 0.87308-0.13228 1.0424-0.1852 1.0212-0.22224 1.0107-0.25399 1.0054-0.28044 0.98949-0.31219 0.97891-0.33865 0.96303-0.3704 0.94717-0.39685 0.94186-0.42861 0.9207-0.44976 0.90483-0.48152 0.89425-0.50268 0.87308-0.53443 0.8572-0.56089 0.84133-0.58205 0.82546-0.60851 0.80429-0.63497 0.78313-0.65613 0.76725-0.6773 0.74079-0.70376 0.72493-0.72492 0.70375-0.75138 0.68259-0.76725 0.65613-0.79371 0.63497-0.80958 0.6138-0.83604 0.58205-0.85191 0.56618-0.87308 0.53443-0.88896 0.51327-0.91011 0.48152-0.93129 0.46035-0.94716 0.037 0.11112zm31.082 14.239c0.0212 0.0106 0.037 0.0318 0.0423 0.0529 5e-3 0.0212 5e-3 0.0423-5e-3 0.0635l-0.45506 0.95245-0.4921 0.93129-0.50798 0.91541-0.54501 0.89953-0.56089 0.87308-0.59263 0.85721-0.6138 0.83604-0.63497 0.82016-0.66143 0.79371-0.68258 0.77255-0.70905 0.75137-0.73021 0.73022-0.74609 0.70375-0.76725 0.68788-0.79371 0.66143-0.80429 0.63496-0.82546 0.60851-0.84662 0.58735-0.8625 0.56088-0.87837 0.53443-0.89954 0.51327-0.91012 0.48152-0.92599 0.45506-0.94187 0.42331-0.95774 0.40214-0.96832 0.3704-0.9842 0.34394-0.99478 0.31219-1.0054 0.28045-1.016 0.25928-1.0318 0.22223-1.0424 0.17991-0.87308 0.13758-0.87308 0.11112-0.87308 0.09-0.86779 0.0688-0.8625 0.0476-0.86249 0.0265h-0.85721l-0.8572-0.0159-0.85192-0.0423-0.84662-0.0582-0.84133-0.0847-0.83604-0.10053-0.83604-0.1217-0.82546-0.14287-0.82546-0.16403-0.80958-0.1852-0.80958-0.20108-0.80429-0.22223-0.79371-0.23812-0.78842-0.25928-0.77783-0.28044-0.77255-0.29632-0.76196-0.31219-0.75667-0.33336-0.75137-0.34923-0.73022-0.3704-0.73021-0.38627-0.71963-0.40214-0.70375-0.41802-0.69847-0.4339-0.68788-0.45506-0.6773-0.46564-0.66142-0.48681-0.65613-0.50268-1.2699-1.0424-1.217-1.1112-1.1641-1.1641-1.1112-1.2223-1.053-1.2752-0.98949-1.3334-0.47094-0.68259-0.46035-0.69846-0.43918-0.70905-0.42331-0.72492-0.40744-0.7355-0.38627-0.74609-0.37569-0.75667-0.35453-0.76725-0.33335-0.78313-0.31749-0.78841-0.30161-0.8043-0.27515-0.80958-0.25928-0.82546-0.2434-0.83074-0.21695-0.84133-0.20107-0.85191-0.17991-0.8625-0.15874-0.86779c-5e-3 -0.02117 0-0.04762 0.0159-0.0635 0.0106-0.02116 0.0317-0.03175 0.0529-0.03704l33.711-5.6882c0.0159 0 0.0317 0 0.0476 0.0053z" fill="#ac2f24" stroke="#ac2f24" stroke-linejoin="bevel" stroke-width=".042331px"/>
<path d="m310.42 90.276-4.5559-33.881c-18.713 2.5161-31.841 19.726-29.325 38.439 0.0503 0.37569 0.10847 0.75402 0.17197 1.1297z" fill="#fbbc04" fill-rule="evenodd"/>
<path d="m310.41 90.194-0.0688 0.09524-4.5559-33.881 0.0953 0.07143-0.87308 0.12964-0.8625 0.14816-0.85191 0.17197-0.84927 0.19049-0.83339 0.20901-0.82546 0.23282-0.81752 0.25134-0.80694 0.26986-0.799 0.29103-0.78577 0.3069-0.77784 0.32542-0.7646 0.34659-0.75667 0.35982-0.74344 0.38098-0.73021 0.3995-0.72492 0.41273-0.7064 0.43125-0.69582 0.44448-0.68788 0.46564-0.67201 0.48152-1.3043 1.0027-1.2541 1.0636-1.1985 1.1218-1.1429 1.1747-1.0847 1.2276-1.0239 1.2752-0.48681 0.65613-0.47093 0.66672-0.45771 0.67994-0.44183 0.69053-0.42331 0.70111-0.40744 0.70904-0.38891 0.72228-0.37569 0.73021-0.35717 0.74079-0.336 0.75138-0.32278 0.75667-0.30425 0.76461-0.28309 0.77784-0.26722 0.78312-0.24605 0.78842-0.23017 0.79635-0.20901 0.80429-0.18785 0.81488-0.17197 0.81752-0.1508 0.82281-0.12964 0.8281-0.11112 0.83868-0.09 0.83869-0.0688 0.84662-0.0476 0.84927-0.0265 0.85191-5e-3 0.8625 0.0159 0.85985 0.0397 0.86514 0.0608 0.86779 0.082 0.87043 0.10583 0.87573 0.1852 1.1271-0.0979-0.06879zm-33.68 5.8549c-0.0238 0.0026-0.045-0.0026-0.0635-0.01587-0.0185-0.01058-0.0317-0.03175-0.0344-0.05291l-0.1852-1.1376-0.10583-0.87837-0.082-0.87308-0.0608-0.87308-0.0423-0.87043-0.0159-0.86514 5e-3 -0.86514 0.0291-0.85456 0.0476-0.85456 0.0688-0.85192 0.09-0.84398 0.11112-0.83869 0.12964-0.83339 0.1508-0.8281 0.17197-0.82281 0.19049-0.81752 0.21166-0.80694 0.23017-0.80164 0.24605-0.79371 0.26722-0.78842 0.28838-0.77784 0.30426-0.7699 0.32277-0.76196 0.34129-0.75138 0.35717-0.74609 0.37569-0.7355 0.39421-0.72228 0.40744-0.71434 0.4286-0.7064 0.44183-0.69053 0.45771-0.68524 0.47622-0.67201 0.4921-0.65878 1.0265-1.2832 1.0927-1.2329 1.1482-1.18 1.2038-1.1271 1.2594-1.0689 1.3096-1.008 0.6773-0.48152 0.68788-0.46564 0.70111-0.44977 0.71169-0.43125 0.72492-0.41802 0.7355-0.3995 0.74874-0.38098 0.75667-0.36511 0.76989-0.34659 0.78313-0.32542 0.79106-0.31219 0.799-0.29103 0.81223-0.26986 0.82281-0.25134 0.83075-0.23547 0.83604-0.21166 0.85192-0.19049 0.8572-0.17197 0.86779-0.14816 0.87308-0.12964c0.0212-0.0026 0.045 0.0026 0.0635 0.01587 0.0185 0.01323 0.0291 0.03439 0.0317 0.05556l4.5559 33.881c5e-3 0.04498-0.0238 0.08731-0.0688 0.09524z" fill="#b98902" stroke="#b98902" stroke-linejoin="bevel" stroke-width=".042331px"/>
<path d="m310.42 90.276-4.5559-33.881z" fill="#34a853" fill-rule="evenodd"/>
<path d="m310.51 90.265-0.16668 0.02381-4.5585-33.883 0.0952 0.07408 0.0741-0.09524zm-4.7252-33.86c-5e-3 -0.04498 0.0265-0.08731 0.0741-0.09524 0.045-0.0053 0.0873 0.02646 0.0952 0.07408l4.5559 33.881c5e-3 0.04498-0.0238 0.08731-0.0714 0.09524-0.045 0.0079-0.09-0.02381-0.0952-0.07143z" fill="#237a3b" stroke="#237a3b" stroke-linejoin="bevel" stroke-width=".042331px"/>
<path d="m310.42 90.276v-34.185c-1.5239 0-3.0452 0.10054-4.5559 0.30426z" fill="#ff6d01" fill-rule="evenodd"/>
<path d="m310.51 90.265-0.16932 0.01058v-34.185l0.0873 0.08466-1.1429 0.01852-1.1376 0.05821-1.135 0.09525-1.1324 0.13228 0.0741-0.09524zm-4.7226-33.857c-3e-3 -0.02381 3e-3 -0.04498 0.0159-0.0635 0.0132-0.01852 0.0344-0.0291 0.0582-0.03175l1.1376-0.13228 1.1403-0.09525 1.1429-0.06085 1.1429-0.01852c0.0238 0 0.045 0.01058 0.0608 0.02646 0.0159 0.01587 0.0238 0.03704 0.0238 0.0582v34.185c0 0.04498-0.0344 0.08201-0.0767 0.08466-0.045 0.0053-0.0847-0.0291-0.09-0.07143z" fill="#bc4e00" stroke="#bc4e00" stroke-linejoin="bevel" stroke-width=".042331px"/>
<path d="m305.82 56.48-4.7834-3.9791 0.0529 0.01852h-1.5662v-0.16932h1.5662c0.0212 0 0.0397 0.0079 0.0556 0.02117l4.7834 3.9791z" stroke="#000" stroke-linejoin="bevel" stroke-width=".042331px"/>
<text x="327.36554" y="75.446541" fill="#000000" font-family="Arial" font-size="3.5057px" font-weight="400" letter-spacing="0px" stroke-width=".26458" word-spacing="0px" style="line-height:125%" xml:space="preserve"><tspan x="327.36554" y="75.446541" stroke-width=".26458"><tspan dx="0" dy="0" fill="#000000" font-family="Arial" font-size="3.5057px" font-weight="400" stroke-width=".26458">Super:</tspan></tspan></text>
<text x="326.05328" y="79.51033" fill="#000000" font-family="Arial" font-size="3.5057px" font-weight="400" letter-spacing="0px" stroke-width=".26458" word-spacing="0px" style="line-height:125%" xml:space="preserve"><tspan x="326.05328" y="79.51033" stroke-width=".26458"><tspan dx="0" dy="0" fill="#000000" font-family="Arial" font-size="3.5057px" font-weight="400" stroke-width=".26458">20; 35%</tspan></tspan></text>
<text x="302.72882" y="114.86741" fill="#000000" font-family="Arial" font-size="3.5057px" font-weight="400" letter-spacing="0px" stroke-width=".26458" word-spacing="0px" style="line-height:125%" xml:space="preserve"><tspan x="302.72882" y="114.86741" stroke-width=".26458"><tspan dx="0" dy="0" fill="#000000" font-family="Arial" font-size="3.5057px" font-weight="400" stroke-width=".26458">Gut:</tspan></tspan></text>
<text x="299.59631" y="118.9312" fill="#000000" font-family="Arial" font-size="3.5057px" font-weight="400" letter-spacing="0px" stroke-width=".26458" word-spacing="0px" style="line-height:125%" xml:space="preserve"><tspan x="299.59631" y="118.9312" stroke-width=".26458"><tspan dx="0" dy="0" fill="#000000" font-family="Arial" font-size="3.5057px" font-weight="400" stroke-width=".26458">19; 33%</tspan></tspan></text>
<text x="279.82239" y="82.58992" fill="#000000" font-family="Arial" font-size="3.5057px" font-weight="400" letter-spacing="0px" stroke-width=".26458" word-spacing="0px" style="line-height:125%" xml:space="preserve"><tspan x="279.82239" y="82.58992" stroke-width=".26458"><tspan dx="0" dy="0" fill="#000000" font-family="Arial" font-size="3.5057px" font-weight="400" stroke-width=".26458">Unentschieden:</tspan></tspan></text>
<text x="285.53708" y="86.653709" fill="#000000" font-family="Arial" font-size="3.5057px" font-weight="400" letter-spacing="0px" stroke-width=".26458" word-spacing="0px" style="line-height:125%" xml:space="preserve"><tspan x="285.53708" y="86.653709" stroke-width=".26458"><tspan dx="0" dy="0" fill="#000000" font-family="Arial" font-size="3.5057px" font-weight="400" stroke-width=".26458">12; 21%</tspan></tspan></text>
<text x="281.15829" y="52.452877" fill="#000000" font-family="Arial" font-size="3.5057px" font-weight="400" letter-spacing="0px" stroke-width=".26458" word-spacing="0px" style="line-height:125%" xml:space="preserve"><tspan x="281.15829" y="52.452877" stroke-width=".26458"><tspan dx="0" dy="0" fill="#000000" font-family="Arial" font-size="3.5057px" font-weight="400" stroke-width=".26458">Nicht gut: 0</tspan></tspan></text>
<text x="304.34262" y="49.959671" fill="#000000" font-family="Arial" font-size="3.5057px" font-weight="400" letter-spacing="0px" stroke-width=".26458" word-spacing="0px" style="line-height:125%" xml:space="preserve"><tspan x="304.34262" y="49.959671" stroke-width=".26458"><tspan dx="0" dy="0" fill="#000000" font-family="Arial" font-size="3.5057px" font-weight="400" stroke-width=".26458">Doof:</tspan></tspan></text>
<text x="304.0463" y="54.02346" fill="#000000" font-family="Arial" font-size="3.5057px" font-weight="400" letter-spacing="0px" stroke-width=".26458" word-spacing="0px" style="line-height:125%" xml:space="preserve"><tspan x="304.0463" y="54.02346" stroke-width=".26458"><tspan dx="0" dy="0" fill="#000000" font-family="Arial" font-size="3.5057px" font-weight="400" stroke-width=".26458">1; 2%</tspan></tspan></text>
</g>
</svg>
