<?xml version="1.0" encoding="UTF-8"?>
<svg width="454.41" height="354.01" version="1.1" viewBox="0 0 120.23 93.664" xmlns="http://www.w3.org/2000/svg" xmlns:cc="http://creativecommons.org/ns#" xmlns:dc="http://purl.org/dc/elements/1.1/" xmlns:rdf="http://www.w3.org/1999/02/22-rdf-syntax-ns#">
<defs>
<clipPath id="a">
<path d="m165.59 0.63997h273.75v324.3h-273.75z"/>
</clipPath>
</defs>
<metadata>
<rdf:RDF>
<cc:Work rdf:about="">
<dc:format>image/svg+xml</dc:format>
<dc:type rdf:resource="http://purl.org/dc/dcmitype/StillImage"/>
<dc:title/>
</cc:Work>
</rdf:RDF>
</metadata>
<path d="m44.982 1.428v85.509h72.132v-85.509z" fill="#e7e7e7" fill-rule="evenodd"/>
<path d="m81.133 1.428v85.509h-0.16932v-85.509zm36.066 0v85.509h-0.16932v-85.509z" fill="#898989" stroke="#898989" stroke-linejoin="bevel" stroke-width=".042331px"/>
<path d="m44.982 81.603v5.3337h7.1963v-5.3337z" fill="#356dca" fill-rule="evenodd"/>
<path transform="matrix(.26458 0 0 .26458 1.1478 1.2798)" d="m165.35 303.58c0-0.15999 0.15999-0.31998 0.31999-0.31998h27.199c0.17999 0 0.31999 0.15999 0.31999 0.31998v20.159c0 0.18-0.14 0.31999-0.31999 0.31999h-27.199c-0.16 0-0.31999-0.13999-0.31999-0.31999zm0.63997 20.159-0.31998-0.31998h27.199l-0.31998 0.31998v-20.159l0.31998 0.31999h-27.199l0.31998-0.31999z" clip-path="url(#a)" fill="#244e94" stroke="#244e94" stroke-linejoin="bevel" stroke-width=".15999px"/>
<path d="m44.982 76.27v5.3337h36.066v-5.3337z" fill="#c1362a" fill-rule="evenodd"/>
<path transform="matrix(.26458 0 0 .26458 1.1478 1.2798)" d="m165.35 283.43c0-0.15999 0.15999-0.31998 0.31999-0.31998h136.31c0.17999 0 0.31998 0.15999 0.31998 0.31998v20.159c0 0.17999-0.13999 0.31999-0.31998 0.31999h-136.31c-0.16 0-0.31999-0.14-0.31999-0.31999zm0.63997 20.159-0.31998-0.31998h136.31l-0.31999 0.31998v-20.159l0.31999 0.31998h-136.31l0.31998-0.31998z" clip-path="url(#a)" fill="#8d251c" stroke="#8d251c" stroke-linejoin="bevel" stroke-width=".15999px"/>
<path d="m44.982 70.936v5.3337h7.1963v-5.3337z" fill="#cf9b03" fill-rule="evenodd"/>
<path transform="matrix(.26458 0 0 .26458 1.1478 1.2798)" d="m165.35 263.27c0-0.17 0.14999-0.31999 0.31999-0.31999h27.199c0.17999 0 0.31999 0.14999 0.31999 0.31999v20.159c0 0.17999-0.14 0.31998-0.31999 0.31998h-27.199c-0.17 0-0.31999-0.13999-0.31999-0.31998zm0.63997 20.159-0.31998-0.31998h27.199l-0.31998 0.31998v-20.159l0.31998 0.31998h-27.199l0.31998-0.31998z" clip-path="url(#a)" fill="#987001" stroke="#987001" stroke-linejoin="bevel" stroke-width=".15999px"/>
<path d="m44.982 65.56v5.3761h7.1963v-5.3761z" fill="#298a43" fill-rule="evenodd"/>
<path transform="matrix(.26458 0 0 .26458 1.1478 1.2798)" d="m165.35 242.95c0-0.16999 0.14999-0.31998 0.31999-0.31998h27.199c0.17999 0 0.31999 0.14999 0.31999 0.31998v20.319c0 0.17999-0.14 0.31998-0.31999 0.31998h-27.199c-0.17 0-0.31999-0.13999-0.31999-0.31998zm0.63997 20.319-0.31998-0.31999h27.199l-0.31998 0.31999v-20.319l0.31998 0.31998h-27.199l0.31998-0.31998z" clip-path="url(#a)" fill="#1b642f" stroke="#1b642f" stroke-linejoin="bevel" stroke-width=".15999px"/>
<path d="m44.982 60.226v5.3337h7.1963v-5.3337z" fill="#d35901" fill-rule="evenodd"/>
<path transform="matrix(.26458 0 0 .26458 1.1478 1.2798)" d="m165.35 222.79c0-0.16999 0.14999-0.31998 0.31999-0.31998h27.199c0.17999 0 0.31999 0.14999 0.31999 0.31998v20.159c0 0.17999-0.14 0.31998-0.31999 0.31998h-27.199c-0.17 0-0.31999-0.13999-0.31999-0.31998zm0.63997 20.159-0.31998-0.31998h27.199l-0.31998 0.31998v-20.159l0.31998 0.31998h-27.199l0.31998-0.31998z" clip-path="url(#a)" fill="#9a3f00" stroke="#9a3f00" stroke-linejoin="bevel" stroke-width=".15999px"/>
<path d="m44.982 54.892v5.3337h7.1963v-5.3337z" fill="#389ca3" fill-rule="evenodd"/>
<path transform="matrix(.26458 0 0 .26458 1.1478 1.2798)" d="m165.35 202.63c0-0.17 0.14999-0.31999 0.31999-0.31999h27.199c0.17999 0 0.31999 0.14999 0.31999 0.31999v20.159c0 0.17999-0.14 0.31998-0.31999 0.31998h-27.199c-0.17 0-0.31999-0.13999-0.31999-0.31998zm0.63997 20.159-0.31998-0.31998h27.199l-0.31998 0.31998v-20.159l0.31998 0.31998h-27.199l0.31998-0.31998z" clip-path="url(#a)" fill="#277177" stroke="#277177" stroke-linejoin="bevel" stroke-width=".15999px"/>
<path d="m44.982 49.559v5.3337h14.393v-5.3337z" fill="#4285f4" fill-rule="evenodd"/>
<path transform="matrix(.26458 0 0 .26458 1.1478 1.2798)" d="m165.35 182.47c0-0.16999 0.14999-0.31998 0.31999-0.31998h54.397c0.17999 0 0.31998 0.14999 0.31998 0.31998v20.159c0 0.17999-0.13999 0.31998-0.31998 0.31998h-54.397c-0.17 0-0.31999-0.13999-0.31999-0.31998zm0.63997 20.159-0.31998-0.31999h54.397l-0.31998 0.31999v-20.159l0.31998 0.31999h-54.397l0.31998-0.31999z" clip-path="url(#a)" fill="#2e60b3" stroke="#2e60b3" stroke-linejoin="bevel" stroke-width=".15999px"/>
<path d="m44.982 44.182v5.3761h28.828v-5.3761z" fill="#ea4335" fill-rule="evenodd"/>
<path transform="matrix(.26458 0 0 .26458 1.1478 1.2798)" d="m165.35 162.15c0-0.16999 0.14999-0.31999 0.31999-0.31999h108.95c0.17999 0 0.31998 0.15 0.31998 0.31999v20.319c0 0.17999-0.13999 0.31999-0.31998 0.31999h-108.95c-0.17 0-0.31999-0.14-0.31999-0.31999zm0.63997 20.319-0.31998-0.31998h108.95l-0.31999 0.31998v-20.319l0.31999 0.31998h-108.95l0.31998-0.31998z" clip-path="url(#a)" fill="#ac2f24" stroke="#ac2f24" stroke-linejoin="bevel" stroke-width=".15999px"/>
<path d="m44.982 38.849v5.3337h36.066v-5.3337z" fill="#fbbc04" fill-rule="evenodd"/>
<path transform="matrix(.26458 0 0 .26458 1.1478 1.2798)" d="m165.35 141.99c0-0.15999 0.15999-0.31998 0.31999-0.31998h136.31c0.17999 0 0.31998 0.15999 0.31998 0.31998v20.159c0 0.17999-0.13999 0.31998-0.31998 0.31998h-136.31c-0.16 0-0.31999-0.13999-0.31999-0.31998zm0.63997 20.159-0.31998-0.31999h136.31l-0.31999 0.31999v-20.159l0.31999 0.31999h-136.31l0.31998-0.31999z" clip-path="url(#a)" fill="#b98902" stroke="#b98902" stroke-linejoin="bevel" stroke-width=".15999px"/>
<path d="m44.982 33.515v5.3337h7.1963v-5.3337z" fill="#34a853" fill-rule="evenodd"/>
<path transform="matrix(.26458 0 0 .26458 1.1478 1.2798)" d="m165.35 121.83c0-0.16999 0.14999-0.31998 0.31999-0.31998h27.199c0.17999 0 0.31999 0.14999 0.31999 0.31998v20.159c0 0.18-0.14 0.31999-0.31999 0.31999h-27.199c-0.17 0-0.31999-0.13999-0.31999-0.31999zm0.63997 20.159-0.31998-0.31998h27.199l-0.31998 0.31998v-20.159l0.31998 0.31999h-27.199l0.31998-0.31999z" clip-path="url(#a)" fill="#237a3b" stroke="#237a3b" stroke-linejoin="bevel" stroke-width=".15999px"/>
<path d="m44.982 28.181v5.3337h21.631v-5.3337z" fill="#ff6d01" fill-rule="evenodd"/>
<path transform="matrix(.26458 0 0 .26458 1.1478 1.2798)" d="m165.35 101.67c0-0.16999 0.14999-0.31998 0.31999-0.31998h81.756c0.17999 0 0.31998 0.14999 0.31998 0.31998v20.159c0 0.17999-0.13999 0.31999-0.31998 0.31999h-81.756c-0.17 0-0.31999-0.14-0.31999-0.31999zm0.63997 20.159-0.31998-0.31998h81.756l-0.31998 0.31998v-20.159l0.31998 0.31998h-81.756l0.31998-0.31998z" clip-path="url(#a)" fill="#bc4e00" stroke="#bc4e00" stroke-linejoin="bevel" stroke-width=".15999px"/>
<path d="m44.982 22.805v5.3761h28.828v-5.3761z" fill="#46bdc6" fill-rule="evenodd"/>
<path transform="matrix(.26458 0 0 .26458 1.1478 1.2798)" d="m165.35 81.356c0-0.16999 0.14999-0.31998 0.31999-0.31998h108.95c0.17999 0 0.31998 0.14999 0.31998 0.31998v20.319c0 0.17999-0.13999 0.31998-0.31998 0.31998h-108.95c-0.17 0-0.31999-0.13999-0.31999-0.31998zm0.63997 20.319-0.31998-0.31998h108.95l-0.31999 0.31998v-20.319l0.31999 0.31998h-108.95l0.31998-0.31998z" clip-path="url(#a)" fill="#318a91" stroke="#318a91" stroke-linejoin="bevel" stroke-width=".15999px"/>
<path d="m44.982 17.472v5.3337h64.936v-5.3337z" fill="#a7bcf8" fill-rule="evenodd"/>
<path transform="matrix(.26458 0 0 .26458 1.1478 1.2798)" d="m165.35 61.197c0-0.15999 0.15999-0.31998 0.31999-0.31998h245.43c0.17999 0 0.31998 0.15999 0.31998 0.31998v20.159c0 0.17999-0.13999 0.31998-0.31998 0.31998h-245.43c-0.16 0-0.31999-0.13999-0.31999-0.31998zm0.63997 20.159-0.31998-0.31998h245.43l-0.31999 0.31998v-20.159l0.31999 0.31998h-245.43l0.31998-0.31998z" clip-path="url(#a)" fill="#a3afd2" stroke="#a3afd2" stroke-linejoin="bevel" stroke-width=".15999px"/>
<path d="m44.982 12.138v5.3337h21.631v-5.3337z" fill="#f2a7a4" fill-rule="evenodd"/>
<path transform="matrix(.26458 0 0 .26458 1.1478 1.2798)" d="m165.35 41.038c0-0.16999 0.14999-0.31998 0.31999-0.31998h81.756c0.17999 0 0.31998 0.14999 0.31998 0.31998v20.159c0 0.17999-0.13999 0.31998-0.31998 0.31998h-81.756c-0.17 0-0.31999-0.13999-0.31999-0.31998zm0.63997 20.159-0.31998-0.31998h81.756l-0.31998 0.31998v-20.159l0.31998 0.31998h-81.756l0.31998-0.31998z" clip-path="url(#a)" fill="#cea3a2" stroke="#cea3a2" stroke-linejoin="bevel" stroke-width=".15999px"/>
<path d="m44.982 6.7617v5.3761h43.262v-5.3761z" fill="#fcd7a0" fill-rule="evenodd"/>
<path transform="matrix(.26458 0 0 .26458 1.1478 1.2798)" d="m165.35 20.719c0-0.15999 0.15999-0.31998 0.31999-0.31998h163.51c0.17999 0 0.31999 0.15999 0.31999 0.31998v20.319c0 0.17999-0.14 0.31998-0.31999 0.31998h-163.51c-0.16 0-0.31999-0.13999-0.31999-0.31998zm0.63997 20.319-0.31998-0.31998h163.51l-0.31998 0.31998v-20.319l0.31998 0.31998h-163.51l0.31998-0.31998z" clip-path="url(#a)" fill="#d5bea0" stroke="#d5bea0" stroke-linejoin="bevel" stroke-width=".15999px"/>
<path transform="matrix(.26458 0 0 .26458 1.1478 1.2798)" d="m165.67 0.55997v20.159h27.199v-20.159z" clip-path="url(#a)" fill="#a4ccab" fill-rule="evenodd"/>
<path transform="matrix(.26458 0 0 .26458 1.1478 1.2798)" d="m165.35 0.55997c0-0.16999 0.14999-0.31998 0.31999-0.31998h27.199c0.17999 0 0.31999 0.14999 0.31999 0.31998v20.159c0 0.17999-0.14 0.31998-0.31999 0.31998h-27.199c-0.17 0-0.31999-0.13999-0.31999-0.31998zm0.63997 20.159-0.31998-0.31998h27.199l-0.31998 0.31998v-20.159l0.31998 0.31998h-27.199l0.31998-0.31998z" clip-path="url(#a)" fill="#a2b8a5" stroke="#a2b8a5" stroke-linejoin="bevel" stroke-width=".15999px"/>
<path d="m44.982 86.852h72.132v0.16932h-72.132z" fill="#898989" stroke="#898989" stroke-linejoin="bevel" stroke-width=".042331px"/>
<path d="m45.066 86.937v1.1006h-0.16933v-1.1006zm36.066 0v1.1006h-0.16932v-1.1006zm36.066 0v1.1006h-0.16932v-1.1006z" fill="#898989" stroke="#898989" stroke-linejoin="bevel" stroke-width=".042331px"/>
<path d="m44.897 86.937v-85.509h0.16933v85.509z" fill="#898989" stroke="#898989" stroke-linejoin="bevel" stroke-width=".042331px"/>
<path d="m43.881 86.852h1.1006v0.16932h-1.1006zm0-5.3337h1.1006v0.16932h-1.1006zm0-5.3337h1.1006v0.16932h-1.1006zm0-5.3337h1.1006v0.16933h-1.1006zm0-5.3761h1.1006v0.16932h-1.1006zm0-5.3337h1.1006v0.16932h-1.1006zm0-5.3337h1.1006v0.16932h-1.1006zm0-5.3337h1.1006v0.16933h-1.1006zm0-5.3761h1.1006v0.16933h-1.1006zm0-5.3337h1.1006v0.16933h-1.1006zm0-5.3337h1.1006v0.16932h-1.1006zm0-5.3337h1.1006v0.16932h-1.1006zm0-5.3761h1.1006v0.16932h-1.1006zm0-5.3337h1.1006v0.16932h-1.1006zm0-5.3337h1.1006v0.16932h-1.1006zm0-5.3761h1.1006v0.16932h-1.1006zm0-5.3337h1.1006v0.16932h-1.1006z" fill="#898989" stroke="#898989" stroke-linejoin="bevel" stroke-width=".042331px"/>
<text x="48.101482" y="85.596298" fill="#000000" font-family="Arial" font-size="3.5057px" font-weight="400" letter-spacing="0px" stroke-width=".26458" word-spacing="0px" style="line-height:125%" xml:space="preserve"><tspan x="48.101482" y="85.596298" stroke-width=".26458"><tspan dx="0" dy="0" fill="#000000" font-family="Arial" font-size="3.5057px" font-weight="400" stroke-width=".26458">1</tspan></tspan></text>
<text x="76.961517" y="80.251297" fill="#000000" font-family="Arial" font-size="3.5057px" font-weight="400" letter-spacing="0px" stroke-width=".26458" word-spacing="0px" style="line-height:125%" xml:space="preserve"><tspan x="76.961517" y="80.251297" stroke-width=".26458"><tspan dx="0" dy="0" fill="#000000" font-family="Arial" font-size="3.5057px" font-weight="400" stroke-width=".26458">5</tspan></tspan></text>
<text x="48.101482" y="74.906258" fill="#000000" font-family="Arial" font-size="3.5057px" font-weight="400" letter-spacing="0px" stroke-width=".26458" word-spacing="0px" style="line-height:125%" xml:space="preserve"><tspan x="48.101482" y="74.906258" stroke-width=".26458"><tspan dx="0" dy="0" fill="#000000" font-family="Arial" font-size="3.5057px" font-weight="400" stroke-width=".26458">1</tspan></tspan></text>
<text x="48.101482" y="69.561256" fill="#000000" font-family="Arial" font-size="3.5057px" font-weight="400" letter-spacing="0px" stroke-width=".26458" word-spacing="0px" style="line-height:125%" xml:space="preserve"><tspan x="48.101482" y="69.561256" stroke-width=".26458"><tspan dx="0" dy="0" fill="#000000" font-family="Arial" font-size="3.5057px" font-weight="400" stroke-width=".26458">1</tspan></tspan></text>
<text x="48.101482" y="64.216217" fill="#000000" font-family="Arial" font-size="3.5057px" font-weight="400" letter-spacing="0px" stroke-width=".26458" word-spacing="0px" style="line-height:125%" xml:space="preserve"><tspan x="48.101482" y="64.216217" stroke-width=".26458"><tspan dx="0" dy="0" fill="#000000" font-family="Arial" font-size="3.5057px" font-weight="400" stroke-width=".26458">1</tspan></tspan></text>
<text x="48.101482" y="58.871208" fill="#000000" font-family="Arial" font-size="3.5057px" font-weight="400" letter-spacing="0px" stroke-width=".26458" word-spacing="0px" style="line-height:125%" xml:space="preserve"><tspan x="48.101482" y="58.871208" stroke-width=".26458"><tspan dx="0" dy="0" fill="#000000" font-family="Arial" font-size="3.5057px" font-weight="400" stroke-width=".26458">1</tspan></tspan></text>
<text x="55.316505" y="53.52618" fill="#000000" font-family="Arial" font-size="3.5057px" font-weight="400" letter-spacing="0px" stroke-width=".26458" word-spacing="0px" style="line-height:125%" xml:space="preserve"><tspan x="55.316505" y="53.52618" stroke-width=".26458"><tspan dx="0" dy="0" fill="#000000" font-family="Arial" font-size="3.5057px" font-weight="400" stroke-width=".26458">2</tspan></tspan></text>
<text x="69.746521" y="48.181168" fill="#000000" font-family="Arial" font-size="3.5057px" font-weight="400" letter-spacing="0px" stroke-width=".26458" word-spacing="0px" style="line-height:125%" xml:space="preserve"><tspan x="69.746521" y="48.181168" stroke-width=".26458"><tspan dx="0" dy="0" fill="#000000" font-family="Arial" font-size="3.5057px" font-weight="400" stroke-width=".26458">4</tspan></tspan></text>
<text x="76.961517" y="42.83614" fill="#000000" font-family="Arial" font-size="3.5057px" font-weight="400" letter-spacing="0px" stroke-width=".26458" word-spacing="0px" style="line-height:125%" xml:space="preserve"><tspan x="76.961517" y="42.83614" stroke-width=".26458"><tspan dx="0" dy="0" fill="#000000" font-family="Arial" font-size="3.5057px" font-weight="400" stroke-width=".26458">5</tspan></tspan></text>
<text x="48.101482" y="37.491131" fill="#000000" font-family="Arial" font-size="3.5057px" font-weight="400" letter-spacing="0px" stroke-width=".26458" word-spacing="0px" style="line-height:125%" xml:space="preserve"><tspan x="48.101482" y="37.491131" stroke-width=".26458"><tspan dx="0" dy="0" fill="#000000" font-family="Arial" font-size="3.5057px" font-weight="400" stroke-width=".26458">1</tspan></tspan></text>
<text x="62.531498" y="32.146099" fill="#000000" font-family="Arial" font-size="3.5057px" font-weight="400" letter-spacing="0px" stroke-width=".26458" word-spacing="0px" style="line-height:125%" xml:space="preserve"><tspan x="62.531498" y="32.146099" stroke-width=".26458"><tspan dx="0" dy="0" fill="#000000" font-family="Arial" font-size="3.5057px" font-weight="400" stroke-width=".26458">3</tspan></tspan></text>
<text x="69.746521" y="26.80109" fill="#000000" font-family="Arial" font-size="3.5057px" font-weight="400" letter-spacing="0px" stroke-width=".26458" word-spacing="0px" style="line-height:125%" xml:space="preserve"><tspan x="69.746521" y="26.80109" stroke-width=".26458"><tspan dx="0" dy="0" fill="#000000" font-family="Arial" font-size="3.5057px" font-weight="400" stroke-width=".26458">4</tspan></tspan></text>
<text x="105.82155" y="21.456055" fill="#000000" font-family="Arial" font-size="3.5057px" font-weight="400" letter-spacing="0px" stroke-width=".26458" word-spacing="0px" style="line-height:125%" xml:space="preserve"><tspan x="105.82155" y="21.456055" stroke-width=".26458"><tspan dx="0" dy="0" fill="#000000" font-family="Arial" font-size="3.5057px" font-weight="400" stroke-width=".26458">9</tspan></tspan></text>
<text x="62.531498" y="16.11105" fill="#000000" font-family="Arial" font-size="3.5057px" font-weight="400" letter-spacing="0px" stroke-width=".26458" word-spacing="0px" style="line-height:125%" xml:space="preserve"><tspan x="62.531498" y="16.11105" stroke-width=".26458"><tspan dx="0" dy="0" fill="#000000" font-family="Arial" font-size="3.5057px" font-weight="400" stroke-width=".26458">3</tspan></tspan></text>
<text x="84.176514" y="10.766015" fill="#000000" font-family="Arial" font-size="3.5057px" font-weight="400" letter-spacing="0px" stroke-width=".26458" word-spacing="0px" style="line-height:125%" xml:space="preserve"><tspan x="84.176514" y="10.766015" stroke-width=".26458"><tspan dx="0" dy="0" fill="#000000" font-family="Arial" font-size="3.5057px" font-weight="400" stroke-width=".26458">6</tspan></tspan></text>
<text x="48.101482" y="5.4210095" fill="#000000" font-family="Arial" font-size="3.5057px" font-weight="400" letter-spacing="0px" stroke-width=".26458" word-spacing="0px" style="line-height:125%" xml:space="preserve"><tspan x="48.101482" y="5.4210095" stroke-width=".26458"><tspan dx="0" dy="0" fill="#000000" font-family="Arial" font-size="3.5057px" font-weight="400" stroke-width=".26458">1</tspan></tspan></text>
<text x="44.00312" y="92.299706" fill="#000000" font-family="Arial" font-size="3.5057px" font-weight="400" letter-spacing="0px" stroke-width=".26458" word-spacing="0px" style="line-height:125%" xml:space="preserve"><tspan x="44.00312" y="92.299706" stroke-width=".26458"><tspan dx="0" dy="0" fill="#000000" font-family="Arial" font-size="3.5057px" font-weight="400" stroke-width=".26458">0</tspan></tspan></text>
<text x="80.078156" y="92.299706" fill="#000000" font-family="Arial" font-size="3.5057px" font-weight="400" letter-spacing="0px" stroke-width=".26458" word-spacing="0px" style="line-height:125%" xml:space="preserve"><tspan x="80.078156" y="92.299706" stroke-width=".26458"><tspan dx="0" dy="0" fill="#000000" font-family="Arial" font-size="3.5057px" font-weight="400" stroke-width=".26458">5</tspan></tspan></text>
<text x="115.17252" y="92.299706" fill="#000000" font-family="Arial" font-size="3.5057px" font-weight="400" letter-spacing="0px" stroke-width=".26458" word-spacing="0px" style="line-height:125%" xml:space="preserve"><tspan x="115.17252" y="92.299706" stroke-width=".26458"><tspan dx="0" dy="0" fill="#000000" font-family="Arial" font-size="3.5057px" font-weight="400" stroke-width=".26458">10</tspan></tspan></text>
<text x="29.597879" y="85.423477" fill="#000000" font-family="Arial" font-size="3.5057px" font-weight="400" letter-spacing="0px" stroke-width=".26458" word-spacing="0px" style="line-height:125%" xml:space="preserve"><tspan x="29.597879" y="85.423477" stroke-width=".26458"><tspan dx="0" dy="0" fill="#000000" font-family="Arial" font-size="3.5057px" font-weight="400" stroke-width=".26458">Arbeiter</tspan></tspan></text>
<text x="26.461843" y="80.078438" fill="#000000" font-family="Arial" font-size="3.5057px" font-weight="400" letter-spacing="0px" stroke-width=".26458" word-spacing="0px" style="line-height:125%" xml:space="preserve"><tspan x="26.461843" y="80.078438" stroke-width=".26458"><tspan dx="0" dy="0" fill="#000000" font-family="Arial" font-size="3.5057px" font-weight="400" stroke-width=".26458">Arbeitslos</tspan></tspan></text>
<text x="19.794682" y="74.733437" fill="#000000" font-family="Arial" font-size="3.5057px" font-weight="400" letter-spacing="0px" stroke-width=".26458" word-spacing="0px" style="line-height:125%" xml:space="preserve"><tspan x="19.794682" y="74.733437" stroke-width=".26458"><tspan dx="0" dy="0" fill="#000000" font-family="Arial" font-size="3.5057px" font-weight="400" stroke-width=".26458">Dienstleistung</tspan></tspan></text>
<text x="31.94726" y="69.388397" fill="#000000" font-family="Arial" font-size="3.5057px" font-weight="400" letter-spacing="0px" stroke-width=".26458" word-spacing="0px" style="line-height:125%" xml:space="preserve"><tspan x="31.94726" y="69.388397" stroke-width=".26458"><tspan dx="0" dy="0" fill="#000000" font-family="Arial" font-size="3.5057px" font-weight="400" stroke-width=".26458">Pflege</tspan></tspan></text>
<text x="23.124735" y="64.043388" fill="#000000" font-family="Arial" font-size="3.5057px" font-weight="400" letter-spacing="0px" stroke-width=".26458" word-spacing="0px" style="line-height:125%" xml:space="preserve"><tspan x="23.124735" y="64.043388" stroke-width=".26458"><tspan dx="0" dy="0" fill="#000000" font-family="Arial" font-size="3.5057px" font-weight="400" stroke-width=".26458">Engineering</tspan></tspan></text>
<text x="29.989443" y="58.69836" fill="#000000" font-family="Arial" font-size="3.5057px" font-weight="400" letter-spacing="0px" stroke-width=".26458" word-spacing="0px" style="line-height:125%" xml:space="preserve"><tspan x="29.989443" y="58.69836" stroke-width=".26458"><tspan dx="0" dy="0" fill="#000000" font-family="Arial" font-size="3.5057px" font-weight="400" stroke-width=".26458">Gärtner</tspan></tspan></text>
<text x="23.907862" y="53.353352" fill="#000000" font-family="Arial" font-size="3.5057px" font-weight="400" letter-spacing="0px" stroke-width=".26458" word-spacing="0px" style="line-height:125%" xml:space="preserve"><tspan x="23.907862" y="53.353352" stroke-width=".26458"><tspan dx="0" dy="0" fill="#000000" font-family="Arial" font-size="3.5057px" font-weight="400" stroke-width=".26458">Gesundheit</tspan></tspan></text>
<text x="26.07028" y="48.00832" fill="#000000" font-family="Arial" font-size="3.5057px" font-weight="400" letter-spacing="0px" stroke-width=".26458" word-spacing="0px" style="line-height:125%" xml:space="preserve"><tspan x="26.07028" y="48.00832" stroke-width=".26458"><tspan dx="0" dy="0" fill="#000000" font-family="Arial" font-size="3.5057px" font-weight="400" stroke-width=".26458">Handwerk</tspan></tspan></text>
<text x="38.81197" y="42.663311" fill="#000000" font-family="Arial" font-size="3.5057px" font-weight="400" letter-spacing="0px" stroke-width=".26458" word-spacing="0px" style="line-height:125%" xml:space="preserve"><tspan x="38.81197" y="42.663311" stroke-width=".26458"><tspan dx="0" dy="0" fill="#000000" font-family="Arial" font-size="3.5057px" font-weight="400" stroke-width=".26458">IT</tspan></tspan></text>
<text x="32.543427" y="37.318279" fill="#000000" font-family="Arial" font-size="3.5057px" font-weight="400" letter-spacing="0px" stroke-width=".26458" word-spacing="0px" style="line-height:125%" xml:space="preserve"><tspan x="32.543427" y="37.318279" stroke-width=".26458"><tspan dx="0" dy="0" fill="#000000" font-family="Arial" font-size="3.5057px" font-weight="400" stroke-width=".26458">Militär</tspan></tspan></text>
<text x="30.381006" y="31.973272" fill="#000000" font-family="Arial" font-size="3.5057px" font-weight="400" letter-spacing="0px" stroke-width=".26458" word-spacing="0px" style="line-height:125%" xml:space="preserve"><tspan x="30.381006" y="31.973272" stroke-width=".26458"><tspan dx="0" dy="0" fill="#000000" font-family="Arial" font-size="3.5057px" font-weight="400" stroke-width=".26458">Medien</tspan></tspan></text>
<text x="2.1461062" y="26.628239" fill="#000000" font-family="Arial" font-size="3.5057px" font-weight="400" letter-spacing="0px" stroke-width=".26458" word-spacing="0px" style="line-height:125%" xml:space="preserve"><tspan x="2.1461062" y="26.628239" stroke-width=".26458"><tspan dx="0" dy="0" fill="#000000" font-family="Arial" font-size="3.5057px" font-weight="400" stroke-width=".26458">Schüler - Sekundarstufe I</tspan></tspan></text>
<text x="1.1654342" y="21.283232" fill="#000000" font-family="Arial" font-size="3.5057px" font-weight="400" letter-spacing="0px" stroke-width=".26458" word-spacing="0px" style="line-height:125%" xml:space="preserve"><tspan x="1.1654342" y="21.283232" stroke-width=".26458"><tspan dx="0" dy="0" fill="#000000" font-family="Arial" font-size="3.5057px" font-weight="400" stroke-width=".26458">Schüler - Sekundarstufe II</tspan></tspan></text>
<text x="32.927933" y="15.938198" fill="#000000" font-family="Arial" font-size="3.5057px" font-weight="400" letter-spacing="0px" stroke-width=".26458" word-spacing="0px" style="line-height:125%" xml:space="preserve"><tspan x="32.927933" y="15.938198" stroke-width=".26458"><tspan dx="0" dy="0" fill="#000000" font-family="Arial" font-size="3.5057px" font-weight="400" stroke-width=".26458">Kunst</tspan></tspan></text>
<text x="2.9292331" y="10.593191" fill="#000000" font-family="Arial" font-size="3.5057px" font-weight="400" letter-spacing="0px" stroke-width=".26458" word-spacing="0px" style="line-height:125%" xml:space="preserve"><tspan x="2.9292331" y="10.593191" stroke-width=".26458"><tspan dx="0" dy="0" fill="#000000" font-family="Arial" font-size="3.5057px" font-weight="400" stroke-width=".26458">Student o.ä - Tertiärstufe</tspan></tspan></text>
<text x="20.771828" y="5.248157" fill="#000000" font-family="Arial" font-size="3.5057px" font-weight="400" letter-spacing="0px" stroke-width=".26458" word-spacing="0px" style="line-height:125%" xml:space="preserve"><tspan x="20.771828" y="5.248157" stroke-width=".26458"><tspan dx="0" dy="0" fill="#000000" font-family="Arial" font-size="3.5057px" font-weight="400" stroke-width=".26458">Selbstständig</tspan></tspan></text>
</svg>
