<?xml version="1.0" encoding="UTF-8"?>
<svg width="426.25" height="246.33" version="1.1" viewBox="0 0 112.78 65.176" xmlns="http://www.w3.org/2000/svg" xmlns:cc="http://creativecommons.org/ns#" xmlns:dc="http://purl.org/dc/elements/1.1/" xmlns:rdf="http://www.w3.org/1999/02/22-rdf-syntax-ns#">
<metadata>
<rdf:RDF>
<cc:Work rdf:about="">
<dc:format>image/svg+xml</dc:format>
<dc:type rdf:resource="http://purl.org/dc/dcmitype/StillImage"/>
<dc:title/>
</cc:Work>
</rdf:RDF>
</metadata>
<g transform="translate(103.23 -4.1289)">
<path d="m-72.364 38.443 5.7438 28.87c15.943-3.1722 26.298-18.668 23.126-34.611-2.7409-13.773-14.826-23.692-28.87-23.692z" fill="#4285f4" fill-rule="evenodd"/>
<path d="m-72.279 38.443v-0.01588l5.7438 28.87-0.10054-0.06614 0.74344-0.15874 0.73286-0.17462 0.72228-0.19049 0.71698-0.20901 0.7064-0.22753 0.69846-0.24341 0.68788-0.25928 0.6773-0.27515 0.67201-0.29367 0.65878-0.3069 1.2885-0.65878 1.2461-0.71963 1.2064-0.77519 1.1588-0.83075 1.1165-0.88366 1.0662-0.93393 1.0186-0.97891 0.96832-1.0265 0.91806-1.0715 0.86514-1.1138 0.80958-1.1509 0.75403-1.1906 0.69846-1.2223 0.63761-1.2594 0.57676-1.2911 0.51591-1.3149 0.23282-0.66672 0.21959-0.67465 0.20372-0.68523 0.1852-0.68524 0.16932-0.69052 0.15345-0.69846 0.13493-0.70376 0.11906-0.7064 0.10318-0.71169 0.08466-0.71698 0.06614-0.71963 0.05027-0.72492 0.0291-0.72757 0.01323-0.72757-0.0053-0.73286-0.02381-0.7355-0.03969-0.74079-0.0635-0.73815-0.07937-0.74079-0.10054-0.74344-0.11906-0.74344-0.14022-0.74873-0.2778-1.2673-0.336-1.2488-0.38892-1.2302-0.44183-1.2011-0.48681-1.1747-0.53708-1.1482-0.58205-1.1165-0.62703-1.0874-0.67201-1.0556-0.71434-1.0239-0.75402-0.98949-0.79371-0.9551-0.83339-0.9207-0.87043-0.88102-0.90747-0.84398-0.93922-0.80694-0.97362-0.76461-1.0054-0.72492-1.0345-0.67994-1.0662-0.63761-1.0927-0.59264-1.1191-0.5503-1.1403-0.49739-1.1668-0.45506-1.1906-0.40215-1.2091-0.35452-1.2302-0.29896-1.2488-0.25134-1.262-0.19578-1.2805-0.14287-1.2964-0.08466-1.3043-0.0291 0.08466-0.08466zm-0.16932-29.433c0-0.02117 0.01058-0.04233 0.02646-0.05821 0.01587-0.01587 0.03968-0.02646 0.06085-0.02646l1.3149 0.03175 1.3017 0.08466 1.2858 0.14287 1.2726 0.19578 1.2541 0.25134 1.2355 0.30426 1.2197 0.35452 1.1959 0.40744 1.172 0.45506 1.1509 0.50268 1.1244 0.5503 1.098 0.59793 1.0715 0.6429 1.0398 0.68259 1.0107 0.72757 0.97891 0.7699 0.94451 0.81223 0.91276 0.84927 0.87573 0.88631 0.83869 0.92599 0.799 0.96039 0.75932 0.99478 0.71963 1.0292 0.67201 1.0636 0.63232 1.0953 0.5847 1.1218 0.53972 1.1535 0.4921 1.1826 0.44183 1.2091 0.38892 1.2355 0.3413 1.2594 0.2778 1.2726 0.14022 0.74873 0.11906 0.74873 0.10054 0.74873 0.07937 0.74609 0.06349 0.74344 0.04233 0.74079 0.02381 0.7408 0.0053 0.73815-0.01323 0.73286-0.03175 0.73286-0.05027 0.72492-0.06614 0.72492-0.08466 0.72228-0.10318 0.71698-0.11906 0.70905-0.13493 0.7064-0.15345 0.70376-0.17462 0.69582-0.1852 0.69053-0.20372 0.68523-0.21959 0.67994-0.23811 0.67201-0.51591 1.3255-0.58205 1.2964-0.6429 1.2646-0.70111 1.2329-0.75667 1.1959-0.81487 1.1562-0.87043 1.1191-0.92335 1.0768-0.97362 1.0371-1.0239 0.9842-1.0768 0.93922-1.1218 0.88631-1.1641 0.83339-1.2144 0.78048-1.2541 0.72492-1.2937 0.66142-0.66407 0.30955-0.67465 0.29367-0.67994 0.27515-0.69317 0.26457-0.70376 0.2434-0.71169 0.22753-0.71698 0.20901-0.72757 0.19578-0.73815 0.17462-0.74344 0.15874c-0.02116 0.0053-0.04498 0-0.06349-0.01323-0.01852-0.01323-0.03175-0.03175-0.03704-0.05291l-5.7438-28.87c0-0.0053-0.0026-0.01058-0.0026-0.01852z" fill="#2e60b3" stroke="#2e60b3" stroke-linejoin="bevel" stroke-width=".042331px"/>
<path d="m-72.364 38.443-27.192-11.263c-6.2227 15.017 0.91012 32.235 15.93 38.458 5.3787 2.2277 11.297 2.8097 17.007 1.6747z" fill="#ea4335" fill-rule="evenodd"/>
<path d="m-72.446 38.461 0.05027 0.06085-27.192-11.263 0.11112-0.04762-0.28309 0.7064-0.26192 0.7064-0.24076 0.70905-0.22224 0.71169-0.20636 0.71169-0.1852 0.71434-0.16403 0.71963-0.14816 0.71698-0.13229 0.71698-0.11112 0.71963-0.0926 0.71963-0.0741 0.71963-0.0582 0.71698-0.037 0.71698-0.0238 0.71963-3e-3 0.71434 0.0132 0.71434 0.0318 0.70905 0.0503 0.71169 0.0661 0.7064 0.082 0.7064 0.10054 0.70111 0.11641 0.69582 0.13493 0.69317 0.14816 0.69317 0.16668 0.68524 0.1799 0.67994 0.19843 0.67465 0.21695 0.67465 0.23017 0.66407 0.50533 1.3149 0.57147 1.2885 0.62968 1.2594 0.69053 1.2276 0.75138 1.1959 0.80958 1.1615 0.8625 1.1218 0.92335 1.0847 0.97626 1.0398 1.0292 0.99214 1.0821 0.94716 1.135 0.89954 1.1853 0.84398 1.2382 0.79371 1.2832 0.73286 1.3334 0.67465 0.68524 0.31219 0.69582 0.29896 1.0186 0.41008 1.0212 0.35717 1.0345 0.32013 1.045 0.28044 1.0503 0.24076 1.0583 0.20372 1.0636 0.16668 1.0689 0.12435 1.0742 0.08731 1.0768 0.04233 1.0768 0.0079 1.0768-0.0344 1.0794-0.06879 1.0768-0.11112 1.0742-0.15345 1.0689-0.19314-0.06879 0.10054zm5.9105 28.835c0.0053 0.02381 0 0.04498-0.01323 0.0635-0.01323 0.02117-0.03175 0.03175-0.05556 0.03704l-1.0742 0.19314-1.0794 0.15345-1.0821 0.11112-1.0874 0.07144-1.0847 0.03439-1.0821-0.0079-1.0821-0.04498-1.0794-0.08731-1.0742-0.12435-1.0742-0.16668-1.0636-0.20372-1.0556-0.24605-1.0503-0.28044-1.0398-0.32013-1.0265-0.36246-1.0239-0.41008-0.70111-0.29896-0.69053-0.31748-1.3387-0.67994-1.2937-0.73815-1.2435-0.79371-1.1906-0.84927-1.1456-0.90483-1.0874-0.9551-1.0345-1.0001-0.98155-1.045-0.92864-1.09-0.86779-1.1271-0.81487-1.1694-0.75138-1.2038-0.69582-1.2329-0.63497-1.2699-0.57147-1.2937-0.51062-1.3202-0.23018-0.66936-0.21694-0.6773-0.19843-0.6773-0.1852-0.68524-0.16668-0.69052-0.14816-0.69317-0.13493-0.69846-0.11641-0.70111-0.10054-0.7064-0.082-0.70905-0.0661-0.70905-0.0503-0.71698-0.0344-0.71434-0.0132-0.71963 3e-3 -0.71963 0.0265-0.71963 0.037-0.72228 0.0582-0.72228 0.0741-0.72492 0.0926-0.71963 0.11112-0.72492 0.13229-0.72228 0.14816-0.72228 0.16668-0.72227 0.18784-0.71698 0.20636-0.71698 0.22224-0.71698 0.24341-0.71434 0.26457-0.7064 0.28309-0.7064c0.0079-0.02117 0.02381-0.03969 0.04498-0.04762 0.02117-0.0079 0.04498-0.0079 0.06614 0l27.192 11.263c0.02646 0.01058 0.04498 0.0344 0.05027 0.06085z" fill="#ac2f24" stroke="#ac2f24" stroke-linejoin="bevel" stroke-width=".042331px"/>
<path d="m-72.364 38.443-5.7412-28.87c-9.6436 1.9181-17.689 8.5244-21.451 17.607z" fill="#fbbc04" fill-rule="evenodd"/>
<path d="m-72.33 38.366-0.11641 0.09525-5.7412-28.87 0.10054 0.06614-0.89954 0.19314-0.88631 0.21959-0.87573 0.24605-0.86779 0.27251-0.85191 0.29896-0.84398 0.32278-0.83075 0.34923-0.81752 0.37569-0.80429 0.39686-0.79106 0.42067-0.77784 0.44448-0.75932 0.46829-0.74609 0.48945-0.73021 0.51326-0.71434 0.53178-0.70111 0.55824-0.67994 0.57412-0.66142 0.59793-0.6429 0.61909-0.62968 0.63497-0.60586 0.65349-0.58734 0.67465-0.56882 0.69582-0.54501 0.71169-0.52649 0.72757-0.50268 0.74609-0.48152 0.76725-0.46035 0.77784-0.43389 0.79635-0.41538 0.80958-0.38892 0.8281-0.36246 0.84133-0.04498-0.11112zm-27.259-11.107c-0.02116-0.0079-0.03704-0.02646-0.04498-0.04762-0.0079-0.01852-0.0079-0.04233 0-0.0635l0.36511-0.84662 0.39156-0.83339 0.41537-0.81487 0.43919-0.80165 0.46035-0.78313 0.48681-0.76725 0.50797-0.75138 0.52649-0.73286 0.5503-0.71698 0.56882-0.69846 0.59264-0.6773 0.61116-0.65878 0.62968-0.64026 0.6482-0.61909 0.66672-0.60322 0.68524-0.57941 0.70111-0.55824 0.71963-0.53708 0.7355-0.51326 0.75138-0.49474 0.76461-0.46829 0.78048-0.44977 0.79371-0.42067 0.80958-0.40215 0.82281-0.37569 0.83604-0.34923 0.84927-0.32807 0.85721-0.29896 0.87308-0.27251 0.88102-0.25134 0.8916-0.21959 0.89954-0.19314c0.02116-0.0053 0.04498 0 0.06349 0.01323 0.01852 0.01058 0.03175 0.03175 0.03704 0.05291l5.7412 28.87c0.0053 0.03175-0.0053 0.0635-0.0291 0.08202-0.02381 0.02116-0.0582 0.02646-0.08731 0.01323z" fill="#b98902" stroke="#b98902" stroke-linejoin="bevel" stroke-width=".042331px"/>
<path d="m-72.364 38.443v-29.433c-1.9287 0-3.8521 0.18784-5.7412 0.56353z" fill="#34a853" fill-rule="evenodd"/>
<path d="m-72.279 38.427-0.16932 0.01588v-29.433l0.08731 0.08466-0.72227 0.0079-0.71963 0.02646-0.72228 0.04498-0.71698 0.06085-0.71434 0.07937-0.71169 0.09789-0.71169 0.11376-0.70905 0.13228 0.06879-0.10054zm-5.9078-28.835c-0.0053-0.02381 0-0.04498 0.01323-0.0635 0.01323-0.02117 0.03175-0.03175 0.05556-0.03704l0.70905-0.13228 0.71698-0.11376 0.71698-0.09789 0.71963-0.07937 0.71963-0.06085 0.72492-0.04762 0.72492-0.02646 0.72227-0.0079c0.02381 0 0.04498 0.01058 0.06085 0.02646 0.01588 0.01588 0.02381 0.03704 0.02381 0.05821v29.433c0 0.04498-0.03175 0.08202-0.07408 0.08466-0.04498 0.0053-0.08466-0.02381-0.0926-0.06614z" fill="#237a3b" stroke="#237a3b" stroke-linejoin="bevel" stroke-width=".042331px"/>
<text x="-58.058872" y="36.577568" fill="#000000" font-family="Arial" font-size="3.5057px" font-weight="400" letter-spacing="0px" stroke-width=".26458" word-spacing="0px" style="line-height:125%" xml:space="preserve"><tspan x="-58.058872" y="36.577568" stroke-width=".26458"><tspan dx="0" dy="0" fill="#000000" font-family="Arial" font-size="3.5057px" font-weight="400" stroke-width=".26458">15; 47%</tspan></tspan></text>
<text x="-96.686035" y="51.128891" fill="#000000" font-family="Arial" font-size="3.5057px" font-weight="400" letter-spacing="0px" stroke-width=".26458" word-spacing="0px" style="line-height:125%" xml:space="preserve"><tspan x="-96.686035" y="51.128891" stroke-width=".26458"><tspan dx="0" dy="0" fill="#000000" font-family="Arial" font-size="3.5057px" font-weight="400" stroke-width=".26458">11; 34%</tspan></tspan></text>
<text x="-93.253685" y="23.084522" fill="#000000" font-family="Arial" font-size="3.5057px" font-weight="400" letter-spacing="0px" stroke-width=".26458" word-spacing="0px" style="line-height:125%" xml:space="preserve"><tspan x="-93.253685" y="23.084522" stroke-width=".26458"><tspan dx="0" dy="0" fill="#000000" font-family="Arial" font-size="3.5057px" font-weight="400" stroke-width=".26458">5; 16%</tspan></tspan></text>
<text x="-80.032257" y="8.0040531" fill="#000000" font-family="Arial" font-size="3.5057px" font-weight="400" letter-spacing="0px" stroke-width=".26458" word-spacing="0px" style="line-height:125%" xml:space="preserve"><tspan x="-80.032257" y="8.0040531" stroke-width=".26458"><tspan dx="0" dy="0" fill="#000000" font-family="Arial" font-size="3.5057px" font-weight="400" stroke-width=".26458">1; 3%</tspan></tspan></text>
<path d="m-37.565 15.301v1.7356h1.7779v-1.7356z" fill="#4285f4" fill-rule="evenodd"/>
<path d="m-37.65 15.301c0-0.04498 0.03968-0.08466 0.08466-0.08466h1.7779c0.04762 0 0.08466 0.03969 0.08466 0.08466v1.7356c0 0.04762-0.03704 0.08466-0.08466 0.08466h-1.7779c-0.04498 0-0.08466-0.03704-0.08466-0.08466zm0.16932 1.7356-0.08466-0.08466h1.7779l-0.08466 0.08466v-1.7356l0.08466 0.08466h-1.7779l0.08466-0.08466z" fill="#2e60b3" stroke="#2e60b3" stroke-linejoin="bevel" stroke-width=".042331px"/>
<text x="-35.006943" y="17.305016" fill="#000000" font-family="Arial" font-size="3.5057px" font-weight="400" letter-spacing="0px" stroke-width=".26458" word-spacing="0px" style="line-height:125%" xml:space="preserve"><tspan x="-35.006943" y="17.305016" stroke-width=".26458"><tspan dx="0" dy="0" fill="#000000" font-family="Arial" font-size="3.5057px" font-weight="400" stroke-width=".26458">Ich finde mich gut zurecht</tspan></tspan></text>
<path d="m-37.565 29.905v1.7356h1.7779v-1.7356z" fill="#ea4335" fill-rule="evenodd"/>
<path d="m-37.65 29.905c0-0.04498 0.03968-0.08466 0.08466-0.08466h1.7779c0.04762 0 0.08466 0.03968 0.08466 0.08466v1.7356c0 0.04762-0.03704 0.08466-0.08466 0.08466h-1.7779c-0.04498 0-0.08466-0.03704-0.08466-0.08466zm0.16932 1.7356-0.08466-0.08466h1.7779l-0.08466 0.08466v-1.7356l0.08466 0.08466h-1.7779l0.08466-0.08466z" fill="#ac2f24" stroke="#ac2f24" stroke-linejoin="bevel" stroke-width=".042331px"/>
<text x="-35.006943" y="31.91209" fill="#000000" font-family="Arial" font-size="3.5057px" font-weight="400" letter-spacing="0px" stroke-width=".26458" word-spacing="0px" style="line-height:125%" xml:space="preserve"><tspan x="-35.006943" y="31.91209" stroke-width=".26458"><tspan dx="0" dy="0" fill="#000000" font-family="Arial" font-size="3.5057px" font-weight="400" stroke-width=".26458">Ich muss manchmal suchen</tspan></tspan></text>
<text x="-35.006943" y="35.97588" fill="#000000" font-family="Arial" font-size="3.5057px" font-weight="400" letter-spacing="0px" stroke-width=".26458" word-spacing="0px" style="line-height:125%" xml:space="preserve"><tspan x="-35.006943" y="35.97588" stroke-width=".26458"><tspan dx="0" dy="0" fill="#000000" font-family="Arial" font-size="3.5057px" font-weight="400" stroke-width=".26458">aber sonst alles gut</tspan></tspan></text>
<path d="m-37.565 44.509v1.7779h1.7779v-1.7779z" fill="#fbbc04" fill-rule="evenodd"/>
<path d="m-37.65 44.509c0-0.04498 0.03968-0.08466 0.08466-0.08466h1.7779c0.04762 0 0.08466 0.03969 0.08466 0.08466v1.7779c0 0.04762-0.03704 0.08466-0.08466 0.08466h-1.7779c-0.04498 0-0.08466-0.03704-0.08466-0.08466zm0.16932 1.7779-0.08466-0.08466h1.7779l-0.08466 0.08466v-1.7779l0.08466 0.08466h-1.7779l0.08466-0.08466z" fill="#b98902" stroke="#b98902" stroke-linejoin="bevel" stroke-width=".042331px"/>
<text x="-35.006943" y="46.519165" fill="#000000" font-family="Arial" font-size="3.5057px" font-weight="400" letter-spacing="0px" stroke-width=".26458" word-spacing="0px" style="line-height:125%" xml:space="preserve"><tspan x="-35.006943" y="46.519165" stroke-width=".26458"><tspan dx="0" dy="0" fill="#000000" font-family="Arial" font-size="3.5057px" font-weight="400" stroke-width=".26458">Meist gut, aber manches ist</tspan></tspan></text>
<text x="-35.006943" y="50.582954" fill="#000000" font-family="Arial" font-size="3.5057px" font-weight="400" letter-spacing="0px" stroke-width=".26458" word-spacing="0px" style="line-height:125%" xml:space="preserve"><tspan x="-35.006943" y="50.582954" stroke-width=".26458"><tspan dx="0" dy="0" fill="#000000" font-family="Arial" font-size="3.5057px" font-weight="400" stroke-width=".26458">zu versteckt</tspan></tspan></text>
<path d="m-37.565 59.114v1.7779h1.7779v-1.7779z" fill="#34a853" fill-rule="evenodd"/>
<path d="m-37.65 59.114c0-0.04498 0.03968-0.08466 0.08466-0.08466h1.7779c0.04762 0 0.08466 0.03968 0.08466 0.08466v1.7779c0 0.04762-0.03704 0.08466-0.08466 0.08466h-1.7779c-0.04498 0-0.08466-0.03704-0.08466-0.08466zm0.16932 1.7779-0.08466-0.08466h1.7779l-0.08466 0.08466v-1.7779l0.08466 0.08466h-1.7779l0.08466-0.08466z" fill="#237a3b" stroke="#237a3b" stroke-linejoin="bevel" stroke-width=".042331px"/>
<text x="-35.006943" y="61.126244" fill="#000000" font-family="Arial" font-size="3.5057px" font-weight="400" letter-spacing="0px" stroke-width=".26458" word-spacing="0px" style="line-height:125%" xml:space="preserve"><tspan x="-35.006943" y="61.126244" stroke-width=".26458"><tspan dx="0" dy="0" fill="#000000" font-family="Arial" font-size="3.5057px" font-weight="400" stroke-width=".26458">Ich finde echt nichts!</tspan></tspan></text>
</g>
</svg>
