<?xml version="1.0" encoding="UTF-8"?>
<svg width="422.69" height="247.42" version="1.1" viewBox="0 0 111.84 65.464" xmlns="http://www.w3.org/2000/svg" xmlns:cc="http://creativecommons.org/ns#" xmlns:dc="http://purl.org/dc/elements/1.1/" xmlns:rdf="http://www.w3.org/1999/02/22-rdf-syntax-ns#">
<metadata>
<rdf:RDF>
<cc:Work rdf:about="">
<dc:format>image/svg+xml</dc:format>
<dc:type rdf:resource="http://purl.org/dc/dcmitype/StillImage"/>
<dc:title/>
</cc:Work>
</rdf:RDF>
</metadata>
<g transform="translate(79.161 -23.11)">
<path d="m-48.299 57.709-28.312 8.0561c4.4501 15.636 20.732 24.703 36.368 20.255 15.636-4.4501 24.703-20.732 20.255-36.365-3.6008-12.654-15.157-21.38-28.312-21.38z" fill="#4285f4" fill-rule="evenodd"/>
<path d="m-48.215 57.709c0 0.03969-0.02381 0.07143-0.06085 0.08202l-28.312 8.0561 0.0582-0.10583 0.21695 0.72757 0.23547 0.71963 0.25134 0.70376 0.26457 0.69582 0.28309 0.68524 0.29896 0.67994 0.6429 1.3176 0.70376 1.2752 0.76461 1.2329 0.81488 1.1826 0.87043 1.1403 0.9207 1.09 0.97097 1.0398 1.0159 0.98949 1.0609 0.93393 1.1006 0.88102 1.1403 0.83075 1.18 0.7699 1.2144 0.71434 1.2435 0.65613 1.2779 0.59264 1.307 0.53708 0.65878 0.24076 0.66936 0.23017 0.67465 0.21166 0.6773 0.19578 0.68788 0.17991 0.69053 0.16139 0.69317 0.14816 0.69846 0.12964 0.7064 0.11376 0.7064 0.09525 0.70905 0.07937 0.71434 0.06085 0.71698 0.04498 0.72227 0.02381 0.72228 0.0079 0.72228-0.01058 0.72757-0.02645 0.72756-0.04498 0.73021-0.06349 0.73021-0.08466 0.73286-0.10318 0.73021-0.1217 0.73021-0.14022 0.7355-0.15874 0.73021-0.17991 0.73021-0.19578 0.73815-0.20636 0.71698-0.23547 0.70376-0.25134 0.69582-0.26457 0.68523-0.28309 0.67994-0.29896 1.3176-0.6429 1.2752-0.7064 1.2329-0.76196 1.1826-0.81488 1.1403-0.87043 1.09-0.92335 1.0398-0.96832 0.98949-1.0159 0.93393-1.0609 0.88102-1.1033 0.83075-1.1403 0.7699-1.18 0.71434-1.2144 0.65613-1.2435 0.59264-1.2779 0.53708-1.307 0.24076-0.66142 0.23017-0.66672 0.21166-0.67465 0.19578-0.67994 0.17991-0.68788 0.16139-0.68788 0.14816-0.69582 0.12964-0.69846 0.11377-0.7064 0.09524-0.7064 0.07937-0.71169 0.06085-0.71434 0.04498-0.71963 0.02381-0.71963 0.0079-0.72228-0.01058-0.72492-0.02646-0.72492-0.04498-0.72757-0.0635-0.73286-0.08466-0.73021-0.10318-0.73286-0.1217-0.73021-0.14022-0.7355-0.15874-0.73286-0.17991-0.73021-0.19578-0.73021-0.34923-1.1668-0.40744-1.1482-0.44712-1.1244-0.49475-1.0927-0.53178-1.0715-0.57676-1.045-0.6138-1.0159-0.65084-0.9842-0.69053-0.95774-0.72757-0.92599-0.75931-0.8916-0.79371-0.8625-0.82546-0.82546-0.85985-0.79371-0.88895-0.75932-0.91541-0.71963-0.94716-0.68788-0.97097-0.64555-1.0001-0.60851-1.0212-0.56882-1.045-0.52914-1.0689-0.48416-1.09-0.44712-1.1059-0.3995-1.1271-0.35982-1.1456-0.31219-1.1615-0.26722-1.1747-0.21959-1.1906-0.17462-1.2038-0.12435-1.2144-0.07672-1.2223-0.02381 0.08466-0.08466zm-0.16932-29.433c0-0.02117 0.01058-0.04233 0.02646-0.05821 0.01587-0.01587 0.03704-0.02646 0.06085-0.02646l1.2302 0.02646 1.2223 0.07673 1.2091 0.12435 1.1959 0.17462 1.1853 0.21959 1.1668 0.27251 1.1509 0.31219 1.1324 0.35982 1.1165 0.40479 1.0953 0.44712 1.0742 0.48945 1.0503 0.53178 1.0265 0.57147 1.0054 0.6138 0.97626 0.65084 0.95245 0.68788 0.9207 0.72492 0.89424 0.76461 0.86514 0.799 0.83075 0.83075 0.799 0.86779 0.76461 0.89689 0.73021 0.93128 0.69317 0.96303 0.65613 0.98949 0.61909 1.0212 0.57676 1.0503 0.53708 1.0768 0.49475 1.1033 0.45241 1.1297 0.40744 1.1535 0.34923 1.172 0.20107 0.7355 0.17991 0.7355 0.15874 0.7355 0.14022 0.73815 0.1217 0.7355 0.10318 0.73815 0.08466 0.7355 0.0635 0.73286 0.04762 0.73286 0.02646 0.73021 0.01058 0.73021-0.0079 0.72757-0.02646 0.72228-0.04498 0.72227-0.06085 0.71963-0.07937 0.71698-0.09525 0.71169-0.11376 0.7064-0.12964 0.70376-0.14816 0.70111-0.16668 0.69317-0.17991 0.68788-0.19578 0.68523-0.21166 0.67994-0.23018 0.66936-0.24605 0.66936-0.53972 1.3123-0.59528 1.2832-0.66142 1.2541-0.71963 1.2197-0.77519 1.1853-0.83339 1.1482-0.88631 1.1112-0.94187 1.0662-0.99478 1.0212-1.045 0.97362-1.0953 0.92864-1.1456 0.87572-1.1932 0.82017-1.2382 0.76461-1.2805 0.70905-1.3281 0.6482-0.67994 0.29896-0.69053 0.28309-0.70111 0.26986-0.70905 0.25134-0.72228 0.23547-0.73815 0.20636-0.7355 0.20107-0.7355 0.17991-0.73815 0.15874-0.73286 0.14022-0.7355 0.1217-0.73815 0.10318-0.7355 0.08466-0.73021 0.0635-0.73286 0.04762-0.73286 0.02646-0.72757 0.01058-0.72756-0.0079-0.72492-0.02646-0.71963-0.04498-0.71963-0.06085-0.71434-0.07937-0.71169-0.09524-0.7064-0.11377-0.70376-0.12964-0.69846-0.14816-0.69582-0.16668-0.68788-0.17991-0.68259-0.19578-0.67994-0.21166-0.67201-0.23017-0.66672-0.24605-1.3123-0.53972-1.2832-0.59528-1.2541-0.66142-1.2197-0.71963-1.1853-0.77519-1.1482-0.83339-1.1085-0.88631-1.0662-0.94187-1.0212-0.99478-0.97626-1.0451-0.92599-1.0953-0.87572-1.1456-0.82017-1.1932-0.76725-1.2382-0.7064-1.2805-0.6482-1.3281-0.29896-0.67994-0.28309-0.69053-0.26986-0.70111-0.25134-0.70905-0.23547-0.71963-0.21695-0.72757c-0.0079-0.02381-0.0053-0.04498 0.0053-0.06614 0.01323-0.01852 0.0291-0.0344 0.05291-0.03969l28.312-8.0561-0.0635 0.07937z" fill="#2e60b3" stroke="#2e60b3" stroke-linejoin="bevel" stroke-width=".042331px"/>
<path d="m-48.299 57.709-26.348-13.12c-3.2701 6.5666-3.9685 14.12-1.9631 21.176z" fill="#ea4335" fill-rule="evenodd"/>
<path d="m-48.32 57.63-0.01588 0.1561-26.348-13.12 0.11376-0.03968-0.58205 1.2435-0.5212 1.2594-0.4577 1.2779-0.40215 1.2964-0.33865 1.307-0.2778 1.3228-0.21695 1.3334-0.1561 1.3387-0.0926 1.3467-0.03175 1.3467 0.0291 1.352 0.0926 1.3467 0.1561 1.3493 0.21959 1.3387 0.28044 1.3361 0.3413 1.3228-0.10318-0.0582zm-28.267 8.2175c-0.02117 0.0079-0.04498 0.0053-0.0635-0.0079-0.02116-0.01058-0.03439-0.0291-0.04233-0.05291l-0.34394-1.3308-0.28044-1.3414-0.21959-1.3493-0.1561-1.3546-0.09525-1.3572-0.0291-1.3572 0.03439-1.3572 0.0926-1.352 0.1561-1.3493 0.21695-1.3387 0.28044-1.3308 0.34129-1.3149 0.40215-1.3017 0.463-1.2885 0.52385-1.2646 0.58205-1.2435c0.01058-0.02117 0.0291-0.03704 0.05027-0.04498 0.02117-0.0079 0.04498-0.0053 0.06614 0.0053l26.348 13.12c0.03175 0.01587 0.05027 0.04762 0.04498 0.08202-0.0026 0.03704-0.02646 0.06614-0.06085 0.07408z" fill="#ac2f24" stroke="#ac2f24" stroke-linejoin="bevel" stroke-width=".042331px"/>
<path d="m-48.299 57.709-5.4078-28.933c-9.0747 1.6959-16.827 7.5508-20.941 15.813z" fill="#fbbc04" fill-rule="evenodd"/>
<path d="m-48.26 57.635-0.1217 0.08995-5.4078-28.933 0.10054 0.06879-0.84662 0.17197-0.83604 0.19314-0.8281 0.21695-0.81752 0.2434-0.81223 0.26457-0.799 0.28838-0.78842 0.3069-0.77783 0.33336-0.76725 0.35452-0.75402 0.37304-0.74609 0.39685-0.73286 0.41538-0.71698 0.43918-0.7064 0.4577-0.69053 0.47623-0.67994 0.49739-0.66142 0.51591-0.6482 0.53443-0.63232 0.5556-0.61909 0.56882-0.60057 0.58999-0.58205 0.60851-0.56882 0.62438-0.5503 0.64026-0.53178 0.65878-0.51326 0.67465-0.49739 0.68788-0.47358 0.7064-0.4577 0.72228-0.43654 0.7355-0.41802 0.75138-0.39156 0.76461-0.03704-0.11376zm-26.425-12.969c-0.01852-0.01058-0.03439-0.02646-0.04233-0.05027-0.0079-0.02117-0.0053-0.04498 0.0053-0.0635l0.39421-0.7699 0.42067-0.75667 0.43918-0.7408 0.46035-0.72228 0.47887-0.71169 0.49739-0.69317 0.51856-0.67994 0.53178-0.65878 0.5556-0.64555 0.56882-0.62968 0.58734-0.60851 0.60586-0.59528 0.61909-0.57412 0.63761-0.5556 0.65349-0.53972 0.66672-0.51591 0.67994-0.50268 0.69582-0.47622 0.71169-0.463 0.72228-0.43919 0.7355-0.42066 0.74873-0.39686 0.75932-0.37833 0.77254-0.35452 0.78312-0.33336 0.79371-0.31219 0.80429-0.28838 0.81223-0.26457 0.82281-0.2434 0.83339-0.22224 0.84133-0.19314 0.84662-0.17197c0.02381-0.0053 0.04498 0 0.0635 0.01323s0.03175 0.03175 0.03704 0.05556l5.4078 28.933c0.0053 0.03175-0.0079 0.0635-0.03175 0.08202-0.02645 0.01852-0.06085 0.02381-0.08995 0.0079z" fill="#b98902" stroke="#b98902" stroke-linejoin="bevel" stroke-width=".042331px"/>
<path d="m-48.299 57.709-5.4078-28.933z" fill="#34a853" fill-rule="evenodd"/>
<path d="m-48.215 57.694-0.16668 0.03175-5.4078-28.933 0.09789 0.06879 0.06614-0.10054zm-5.5771-28.902c-0.0079-0.04498 0.02381-0.08995 0.06879-0.09789 0.02117-0.0053 0.04498 0 0.0635 0.01323 0.01852 0.01058 0.03175 0.03175 0.03439 0.05291l5.4104 28.933c0.0079 0.04498-0.02116 0.08996-0.06614 0.09789-0.04498 0.01058-0.0926-0.01852-0.10054-0.06614z" fill="#237a3b" stroke="#237a3b" stroke-linejoin="bevel" stroke-width=".042331px"/>
<path d="m-48.299 57.709v-29.433c-1.8149 0-3.6246 0.16668-5.4078 0.50004z" fill="#ff6d01" fill-rule="evenodd"/>
<path d="m-48.215 57.696-0.16932 0.01323v-29.433l0.08731 0.08466-1.3599 0.03175-1.3493 0.0926-1.3493 0.1561-1.3361 0.21959 0.06879-0.09789zm-5.5745-28.904c-0.0053-0.02116 0-0.04498 0.01323-0.0635s0.03439-0.03175 0.05556-0.03439l1.3467-0.21959 1.3546-0.1561 1.3599-0.09525 1.3599-0.03175c0.02117 0 0.04498 0.01058 0.06085 0.02646 0.01588 0.01587 0.02381 0.03704 0.02381 0.05821v29.433c0 0.04498-0.03175 0.08202-0.07672 0.08466-0.04233 0.0053-0.08202-0.02381-0.08995-0.06879z" fill="#bc4e00" stroke="#bc4e00" stroke-linejoin="bevel" stroke-width=".042331px"/>
<text x="-36.883118" y="69.845207" fill="#000000" font-family="Arial" font-size="3.5057px" font-weight="400" letter-spacing="0px" stroke-width=".26458" word-spacing="0px" style="line-height:125%" xml:space="preserve"><tspan x="-36.883118" y="69.845207" stroke-width=".26458"><tspan dx="0" dy="0" fill="#000000" font-family="Arial" font-size="3.5057px" font-weight="400" stroke-width=".26458">24; 70%</tspan></tspan></text>
<text x="-76.311043" y="57.675007" fill="#000000" font-family="Arial" font-size="3.5057px" font-weight="400" letter-spacing="0px" stroke-width=".26458" word-spacing="0px" style="line-height:125%" xml:space="preserve"><tspan x="-76.311043" y="57.675007" stroke-width=".26458"><tspan dx="0" dy="0" fill="#000000" font-family="Arial" font-size="3.5057px" font-weight="400" stroke-width=".26458">4; 12%</tspan></tspan></text>
<text x="-68.373955" y="41.536259" fill="#000000" font-family="Arial" font-size="3.5057px" font-weight="400" letter-spacing="0px" stroke-width=".26458" word-spacing="0px" style="line-height:125%" xml:space="preserve"><tspan x="-68.373955" y="41.536259" stroke-width=".26458"><tspan dx="0" dy="0" fill="#000000" font-family="Arial" font-size="3.5057px" font-weight="400" stroke-width=".26458">5; 15%</tspan></tspan></text>
<text x="-55.681671" y="26.984932" fill="#000000" font-family="Arial" font-size="3.5057px" font-weight="400" letter-spacing="0px" stroke-width=".26458" word-spacing="0px" style="line-height:125%" xml:space="preserve"><tspan x="-55.681671" y="26.984932" stroke-width=".26458"><tspan dx="0" dy="0" fill="#000000" font-family="Arial" font-size="3.5057px" font-weight="400" stroke-width=".26458">1; 3%</tspan></tspan></text>
<path d="m-13.5 32.366v1.7779h1.7779v-1.7779z" fill="#4285f4" fill-rule="evenodd"/>
<path d="m-13.585 32.366c0-0.04498 0.03968-0.08466 0.08466-0.08466h1.7779c0.04762 0 0.08466 0.03969 0.08466 0.08466v1.7779c0 0.04762-0.03704 0.08466-0.08466 0.08466h-1.7779c-0.04498 0-0.08466-0.03704-0.08466-0.08466zm0.16932 1.7779-0.08466-0.08466h1.7779l-0.08466 0.08466v-1.7779l0.08466 0.08466h-1.7779l0.08466-0.08466z" fill="#2e60b3" stroke="#2e60b3" stroke-linejoin="bevel" stroke-width=".042331px"/>
<text x="-10.932703" y="34.384243" fill="#000000" font-family="Arial" font-size="3.5057px" font-weight="400" letter-spacing="0px" stroke-width=".26458" word-spacing="0px" style="line-height:125%" xml:space="preserve"><tspan x="-10.932703" y="34.384243" stroke-width=".26458"><tspan dx="0" dy="0" fill="#000000" font-family="Arial" font-size="3.5057px" font-weight="400" stroke-width=".26458">Finde ich super</tspan></tspan></text>
<path d="m-13.5 44.05v1.7779h1.7779v-1.7779z" fill="#ea4335" fill-rule="evenodd"/>
<path d="m-13.585 44.05c0-0.04498 0.03968-0.08466 0.08466-0.08466h1.7779c0.04762 0 0.08466 0.03969 0.08466 0.08466v1.7779c0 0.04762-0.03704 0.08466-0.08466 0.08466h-1.7779c-0.04498 0-0.08466-0.03704-0.08466-0.08466zm0.16932 1.7779-0.08466-0.08466h1.7779l-0.08466 0.08466v-1.7779l0.08466 0.08466h-1.7779l0.08466-0.08466z" fill="#ac2f24" stroke="#ac2f24" stroke-linejoin="bevel" stroke-width=".042331px"/>
<text x="-10.932703" y="46.069912" fill="#000000" font-family="Arial" font-size="3.5057px" font-weight="400" letter-spacing="0px" stroke-width=".26458" word-spacing="0px" style="line-height:125%" xml:space="preserve"><tspan x="-10.932703" y="46.069912" stroke-width=".26458"><tspan dx="0" dy="0" fill="#000000" font-family="Arial" font-size="3.5057px" font-weight="400" stroke-width=".26458">Finde ich gut aber nicht gut</tspan></tspan></text>
<text x="-10.932703" y="50.133701" fill="#000000" font-family="Arial" font-size="3.5057px" font-weight="400" letter-spacing="0px" stroke-width=".26458" word-spacing="0px" style="line-height:125%" xml:space="preserve"><tspan x="-10.932703" y="50.133701" stroke-width=".26458"><tspan dx="0" dy="0" fill="#000000" font-family="Arial" font-size="3.5057px" font-weight="400" stroke-width=".26458">umgesetzt</tspan></tspan></text>
<path d="m-13.5 55.733v1.7779h1.7779v-1.7779z" fill="#fbbc04" fill-rule="evenodd"/>
<path d="m-13.585 55.733c0-0.04498 0.03968-0.08466 0.08466-0.08466h1.7779c0.04762 0 0.08466 0.03969 0.08466 0.08466v1.7779c0 0.04762-0.03704 0.08466-0.08466 0.08466h-1.7779c-0.04498 0-0.08466-0.03704-0.08466-0.08466zm0.16932 1.7779-0.08466-0.08466h1.7779l-0.08466 0.08466v-1.7779l0.08466 0.08466h-1.7779l0.08466-0.08466z" fill="#b98902" stroke="#b98902" stroke-linejoin="bevel" stroke-width=".042331px"/>
<text x="-10.932703" y="57.755585" fill="#000000" font-family="Arial" font-size="3.5057px" font-weight="400" letter-spacing="0px" stroke-width=".26458" word-spacing="0px" style="line-height:125%" xml:space="preserve"><tspan x="-10.932703" y="57.755585" stroke-width=".26458"><tspan dx="0" dy="0" fill="#000000" font-family="Arial" font-size="3.5057px" font-weight="400" stroke-width=".26458">Finde ich kompliziert</tspan></tspan></text>
<text x="-10.932703" y="61.81937" fill="#000000" font-family="Arial" font-size="3.5057px" font-weight="400" letter-spacing="0px" stroke-width=".26458" word-spacing="0px" style="line-height:125%" xml:space="preserve"><tspan x="-10.932703" y="61.81937" stroke-width=".26458"><tspan dx="0" dy="0" fill="#000000" font-family="Arial" font-size="3.5057px" font-weight="400" stroke-width=".26458">anzuwenden</tspan></tspan></text>
<path d="m-13.5 67.459v1.7356h1.7779v-1.7356z" fill="#34a853" fill-rule="evenodd"/>
<path d="m-13.585 67.459c0-0.04498 0.03968-0.08466 0.08466-0.08466h1.7779c0.04762 0 0.08466 0.03969 0.08466 0.08466v1.7356c0 0.04762-0.03704 0.08466-0.08466 0.08466h-1.7779c-0.04498 0-0.08466-0.03704-0.08466-0.08466zm0.16932 1.7356-0.08466-0.08466h1.7779l-0.08466 0.08466v-1.7356l0.08466 0.08466h-1.7779l0.08466-0.08466z" fill="#237a3b" stroke="#237a3b" stroke-linejoin="bevel" stroke-width=".042331px"/>
<text x="-10.932703" y="69.441254" fill="#000000" font-family="Arial" font-size="3.5057px" font-weight="400" letter-spacing="0px" stroke-width=".26458" word-spacing="0px" style="line-height:125%" xml:space="preserve"><tspan x="-10.932703" y="69.441254" stroke-width=".26458"><tspan dx="0" dy="0" fill="#000000" font-family="Arial" font-size="3.5057px" font-weight="400" stroke-width=".26458">Stört meine Immersion</tspan></tspan></text>
<path d="m-13.5 79.142v1.7356h1.7779v-1.7356z" fill="#ff6d01" fill-rule="evenodd"/>
<path d="m-13.585 79.142c0-0.04498 0.03968-0.08466 0.08466-0.08466h1.7779c0.04762 0 0.08466 0.03968 0.08466 0.08466v1.7356c0 0.04762-0.03704 0.08466-0.08466 0.08466h-1.7779c-0.04498 0-0.08466-0.03704-0.08466-0.08466zm0.16932 1.7356-0.08466-0.08466h1.7779l-0.08466 0.08466v-1.7356l0.08466 0.08466h-1.7779l0.08466-0.08466z" fill="#bc4e00" stroke="#bc4e00" stroke-linejoin="bevel" stroke-width=".042331px"/>
<text x="-10.932703" y="81.126923" fill="#000000" font-family="Arial" font-size="3.5057px" font-weight="400" letter-spacing="0px" stroke-width=".26458" word-spacing="0px" style="line-height:125%" xml:space="preserve"><tspan x="-10.932703" y="81.126923" stroke-width=".26458"><tspan dx="0" dy="0" fill="#000000" font-family="Arial" font-size="3.5057px" font-weight="400" stroke-width=".26458">Finde ich doof und unnötig</tspan></tspan></text>
</g>
</svg>
