<?xml version="1.0" encoding="UTF-8"?>
<svg width="428.96" height="272.37" version="1.1" viewBox="0 0 113.5 72.063" xmlns="http://www.w3.org/2000/svg" xmlns:cc="http://creativecommons.org/ns#" xmlns:dc="http://purl.org/dc/elements/1.1/" xmlns:rdf="http://www.w3.org/1999/02/22-rdf-syntax-ns#">
<defs>
<clipPath id="a">
<path d="m85.596 0.47998h328.62v242.71h-328.62z"/>
</clipPath>
</defs>
<metadata>
<rdf:RDF>
<cc:Work rdf:about="">
<dc:format>image/svg+xml</dc:format>
<dc:type rdf:resource="http://purl.org/dc/dcmitype/StillImage"/>
<dc:title/>
</cc:Work>
</rdf:RDF>
</metadata>
<path d="m23.686 1.4271v63.922h86.697v-63.922z" fill="#e7e7e7" fill-rule="evenodd"/>
<path d="m52.684 1.4271v63.922h-0.16933v-63.922zm28.871 0v63.922h-0.16933v-63.922zm28.913 0v63.922h-0.16933v-63.922z" fill="#898989" stroke="#898989" stroke-linejoin="bevel" stroke-width=".042333px"/>
<path transform="matrix(.26459 0 0 .26459 1.0591 1.279)" d="m85.516 0.55997v21.919h316.78v-21.919z" clip-path="url(#a)" fill="#3975d8" fill-rule="evenodd"/>
<path transform="matrix(.26459 0 0 .26459 1.0591 1.279)" d="m85.196 0.55997c0-0.15999 0.15999-0.31998 0.31998-0.31998h316.78c0.18 0 0.31999 0.15999 0.31999 0.31998v21.919c0 0.17999-0.13999 0.31998-0.31999 0.31998h-316.78c-0.15999 0-0.31998-0.13999-0.31998-0.31998zm0.63997 21.919-0.31998-0.31998h316.78l-0.31998 0.31998v-21.919l0.31998 0.31998h-316.78l0.31998-0.31998z" clip-path="url(#a)" fill="#27549e" stroke="#27549e" stroke-linejoin="bevel" stroke-width=".15999px"/>
<path transform="matrix(.26459 0 0 .26459 1.0591 1.279)" d="m85.516 22.479v21.919h240.31v-21.919z" clip-path="url(#a)" fill="#cf3a2e" fill-rule="evenodd"/>
<path transform="matrix(.26459 0 0 .26459 1.0591 1.279)" d="m85.196 22.479c0-0.15999 0.15999-0.31998 0.31998-0.31998h240.31c0.17999 0 0.31998 0.15999 0.31998 0.31998v21.919c0 0.17999-0.13999 0.31998-0.31998 0.31998h-240.31c-0.15999 0-0.31998-0.13999-0.31998-0.31998zm0.63997 21.919-0.31998-0.31998h240.31l-0.31999 0.31998v-21.919l0.31999 0.31998h-240.31l0.31998-0.31998z" clip-path="url(#a)" fill="#98281f" stroke="#98281f" stroke-linejoin="bevel" stroke-width=".15999px"/>
<path transform="matrix(.26459 0 0 .26459 1.0591 1.279)" d="m85.516 66.477v21.919h21.919v-21.919z" clip-path="url(#a)" fill="#2d9449" fill-rule="evenodd"/>
<path transform="matrix(.26459 0 0 .26459 1.0591 1.279)" d="m85.196 66.477c0-0.16999 0.14999-0.31998 0.31998-0.31998h21.919c0.17999 0 0.31998 0.14999 0.31998 0.31998v21.919c0 0.17999-0.13999 0.31998-0.31998 0.31998h-21.919c-0.16999 0-0.31998-0.13999-0.31998-0.31998zm0.63997 21.919-0.31998-0.31998h21.919l-0.31998 0.31998v-21.919l0.31998 0.31998h-21.919l0.31998-0.31998z" clip-path="url(#a)" fill="#1e6c33" stroke="#1e6c33" stroke-linejoin="bevel" stroke-width=".15999px"/>
<path transform="matrix(.26459 0 0 .26459 1.0591 1.279)" d="m85.516 88.395v21.919h32.798v-21.919z" clip-path="url(#a)" fill="#e26001" fill-rule="evenodd"/>
<path transform="matrix(.26459 0 0 .26459 1.0591 1.279)" d="m85.196 88.395c0-0.16999 0.14999-0.31998 0.31998-0.31998h32.798c0.18 0 0.31999 0.14999 0.31999 0.31998v21.919c0 0.17999-0.13999 0.31998-0.31999 0.31998h-32.798c-0.16999 0-0.31998-0.13999-0.31998-0.31998zm0.63997 21.919-0.31998-0.31998h32.798l-0.31998 0.31998v-21.919l0.31998 0.31998h-32.798l0.31998-0.31998z" clip-path="url(#a)" fill="#a64400" stroke="#a64400" stroke-linejoin="bevel" stroke-width=".15999px"/>
<path transform="matrix(.26459 0 0 .26459 1.0591 1.279)" d="m85.516 110.31v22.079h65.597v-22.079z" clip-path="url(#a)" fill="#3da7af" fill-rule="evenodd"/>
<path transform="matrix(.26459 0 0 .26459 1.0591 1.279)" d="m85.196 110.31c0-0.16999 0.14999-0.31998 0.31998-0.31998h65.597c0.17999 0 0.31998 0.14999 0.31998 0.31998v22.079c0 0.17999-0.13999 0.31999-0.31998 0.31999h-65.597c-0.16999 0-0.31998-0.14-0.31998-0.31999zm0.63997 22.079-0.31998-0.31998h65.597l-0.31998 0.31998v-22.079l0.31998 0.31998h-65.597l0.31998-0.31998z" clip-path="url(#a)" fill="#2a7a80" stroke="#2a7a80" stroke-linejoin="bevel" stroke-width=".15999px"/>
<path transform="matrix(.26459 0 0 .26459 1.0591 1.279)" d="m85.516 154.31v21.919h21.919v-21.919z" clip-path="url(#a)" fill="#ef8f8b" fill-rule="evenodd"/>
<path transform="matrix(.26459 0 0 .26459 1.0591 1.279)" d="m85.196 154.31c0-0.17 0.14999-0.31999 0.31998-0.31999h21.919c0.17999 0 0.31998 0.14999 0.31998 0.31999v21.919c0 0.17999-0.13999 0.31998-0.31998 0.31998h-21.919c-0.16999 0-0.31998-0.13999-0.31998-0.31998zm0.63997 21.919-0.31998-0.31999h21.919l-0.31998 0.31999v-21.919l0.31998 0.31998h-21.919l0.31998-0.31998z" clip-path="url(#a)" fill="#c38987" stroke="#c38987" stroke-linejoin="bevel" stroke-width=".15999px"/>
<path transform="matrix(.26459 0 0 .26459 1.0591 1.279)" d="m85.516 176.23v22.079h142.07v-22.079z" clip-path="url(#a)" fill="#fcce84" fill-rule="evenodd"/>
<path transform="matrix(.26459 0 0 .26459 1.0591 1.279)" d="m85.196 176.23c0-0.16999 0.14999-0.31999 0.31998-0.31999h142.07c0.17999 0 0.31998 0.15 0.31998 0.31999v22.079c0 0.17999-0.13999 0.31998-0.31998 0.31998h-142.07c-0.16999 0-0.31998-0.13999-0.31998-0.31998zm0.63997 22.079-0.31998-0.31998h142.07l-0.31998 0.31998v-22.079l0.31998 0.31998h-142.07l0.31998-0.31998z" clip-path="url(#a)" fill="#ccae84" stroke="#ccae84" stroke-linejoin="bevel" stroke-width=".15999px"/>
<path transform="matrix(.26459 0 0 .26459 1.0591 1.279)" d="m85.516 198.31v21.919h76.476v-21.919z" clip-path="url(#a)" fill="#8bc194" fill-rule="evenodd"/>
<path transform="matrix(.26459 0 0 .26459 1.0591 1.279)" d="m85.196 198.31c0-0.16999 0.14999-0.31998 0.31998-0.31998h76.476c0.17999 0 0.31998 0.14999 0.31998 0.31998v21.919c0 0.17999-0.13999 0.31998-0.31998 0.31998h-76.476c-0.16999 0-0.31998-0.13999-0.31998-0.31998zm0.63997 21.919-0.31998-0.31998h76.476l-0.31999 0.31998v-21.919l0.31999 0.31998h-76.476l0.31998-0.31998z" clip-path="url(#a)" fill="#87a68c" stroke="#87a68c" stroke-linejoin="bevel" stroke-width=".15999px"/>
<path transform="matrix(.26459 0 0 .26459 1.0591 1.279)" d="m85.516 220.23v21.919h10.879v-21.919z" clip-path="url(#a)" fill="#ff9f84" fill-rule="evenodd"/>
<path transform="matrix(.26459 0 0 .26459 1.0591 1.279)" d="m85.196 220.23c0-0.16999 0.14999-0.31998 0.31998-0.31998h10.879c0.17999 0 0.31998 0.14999 0.31998 0.31998v21.919c0 0.17999-0.13999 0.31999-0.31998 0.31999h-10.879c-0.16999 0-0.31998-0.14-0.31998-0.31999zm0.63997 21.919-0.31998-0.31998h10.879l-0.31998 0.31998v-21.919l0.31998 0.31998h-10.879l0.31998-0.31998z" clip-path="url(#a)" fill="#ce9284" stroke="#ce9284" stroke-linejoin="bevel" stroke-width=".15999px"/>
<path d="m23.686 65.265h86.697v0.16933h-86.697z" fill="#898989" stroke="#898989" stroke-linejoin="bevel" stroke-width=".042333px"/>
<path d="m23.771 65.35v1.1007h-0.16933v-1.1007zm28.913 0v1.1007h-0.16933v-1.1007zm28.871 0v1.1007h-0.16933v-1.1007zm28.913 0v1.1007h-0.16933v-1.1007z" fill="#898989" stroke="#898989" stroke-linejoin="bevel" stroke-width=".042333px"/>
<path d="m23.771 1.4271v63.922h-0.16933v-63.922z" fill="#898989" stroke="#898989" stroke-linejoin="bevel" stroke-width=".042333px"/>
<path d="m22.628 1.3425h1.0583v0.16933h-1.0583zm0 5.7996h1.0583v0.16933h-1.0583zm0 5.7996h1.0583v0.16933h-1.0583zm0 5.8419h1.0583v0.16933h-1.0583zm0 5.7996h1.0583v0.16933h-1.0583zm0 5.7996h1.0583v0.16933h-1.0583zm0 5.8419h1.0583v0.16933h-1.0583zm0 5.7996h1.0583v0.16933h-1.0583zm0 5.7996h1.0583v0.16933h-1.0583zm0 5.8419h1.0583v0.16933h-1.0583zm0 5.7996h1.0583v0.16933h-1.0583zm0 5.7996h1.0583v0.16933h-1.0583z" fill="#898989" stroke="#898989" stroke-linejoin="bevel" stroke-width=".042333px"/>
<text x="101.48953" y="5.6199741" fill="#000000" font-family="Arial" font-size="3.5059px" font-weight="400" letter-spacing="0px" stroke-width=".26459" word-spacing="0px" style="line-height:125%" xml:space="preserve"><tspan x="101.48953" y="5.6199741" stroke-width=".26459"><tspan dx="0" dy="0" fill="#000000" font-family="Arial" font-size="3.5059px" font-weight="400" stroke-width=".26459">29</tspan></tspan></text>
<text x="81.261421" y="11.433921" fill="#000000" font-family="Arial" font-size="3.5059px" font-weight="400" letter-spacing="0px" stroke-width=".26459" word-spacing="0px" style="line-height:125%" xml:space="preserve"><tspan x="81.261421" y="11.433921" stroke-width=".26459"><tspan dx="0" dy="0" fill="#000000" font-family="Arial" font-size="3.5059px" font-weight="400" stroke-width=".26459">22</tspan></tspan></text>
<text x="25.836432" y="17.247896" fill="#000000" font-family="Arial" font-size="3.5059px" font-weight="400" letter-spacing="0px" stroke-width=".26459" word-spacing="0px" style="line-height:125%" xml:space="preserve"><tspan x="25.836432" y="17.247896" stroke-width=".26459"><tspan dx="0" dy="0" fill="#000000" font-family="Arial" font-size="3.5059px" font-weight="400" stroke-width=".26459">0</tspan></tspan></text>
<text x="25.836432" y="23.061844" fill="#000000" font-family="Arial" font-size="3.5059px" font-weight="400" letter-spacing="0px" stroke-width=".26459" word-spacing="0px" style="line-height:125%" xml:space="preserve"><tspan x="25.836432" y="23.061844" stroke-width=".26459"><tspan dx="0" dy="0" fill="#000000" font-family="Arial" font-size="3.5059px" font-weight="400" stroke-width=".26459">2</tspan></tspan></text>
<text x="28.310926" y="28.87582" fill="#000000" font-family="Arial" font-size="3.5059px" font-weight="400" letter-spacing="0px" stroke-width=".26459" word-spacing="0px" style="line-height:125%" xml:space="preserve"><tspan x="28.310926" y="28.87582" stroke-width=".26459"><tspan dx="0" dy="0" fill="#000000" font-family="Arial" font-size="3.5059px" font-weight="400" stroke-width=".26459">3</tspan></tspan></text>
<text x="36.980114" y="34.689766" fill="#000000" font-family="Arial" font-size="3.5059px" font-weight="400" letter-spacing="0px" stroke-width=".26459" word-spacing="0px" style="line-height:125%" xml:space="preserve"><tspan x="36.980114" y="34.689766" stroke-width=".26459"><tspan dx="0" dy="0" fill="#000000" font-family="Arial" font-size="3.5059px" font-weight="400" stroke-width=".26459">6</tspan></tspan></text>
<text x="25.836432" y="40.503742" fill="#000000" font-family="Arial" font-size="3.5059px" font-weight="400" letter-spacing="0px" stroke-width=".26459" word-spacing="0px" style="line-height:125%" xml:space="preserve"><tspan x="25.836432" y="40.503742" stroke-width=".26459"><tspan dx="0" dy="0" fill="#000000" font-family="Arial" font-size="3.5059px" font-weight="400" stroke-width=".26459">0</tspan></tspan></text>
<text x="25.836432" y="46.317688" fill="#000000" font-family="Arial" font-size="3.5059px" font-weight="400" letter-spacing="0px" stroke-width=".26459" word-spacing="0px" style="line-height:125%" xml:space="preserve"><tspan x="25.836432" y="46.317688" stroke-width=".26459"><tspan dx="0" dy="0" fill="#000000" font-family="Arial" font-size="3.5059px" font-weight="400" stroke-width=".26459">2</tspan></tspan></text>
<text x="55.253864" y="52.131664" fill="#000000" font-family="Arial" font-size="3.5059px" font-weight="400" letter-spacing="0px" stroke-width=".26459" word-spacing="0px" style="line-height:125%" xml:space="preserve"><tspan x="55.253864" y="52.131664" stroke-width=".26459"><tspan dx="0" dy="0" fill="#000000" font-family="Arial" font-size="3.5059px" font-weight="400" stroke-width=".26459">13</tspan></tspan></text>
<text x="39.869854" y="57.945621" fill="#000000" font-family="Arial" font-size="3.5059px" font-weight="400" letter-spacing="0px" stroke-width=".26459" word-spacing="0px" style="line-height:125%" xml:space="preserve"><tspan x="39.869854" y="57.945621" stroke-width=".26459"><tspan dx="0" dy="0" fill="#000000" font-family="Arial" font-size="3.5059px" font-weight="400" stroke-width=".26459">7</tspan></tspan></text>
<text x="27.95307" y="63.759563" fill="#000000" font-family="Arial" font-size="3.5059px" font-weight="400" letter-spacing="0px" stroke-width=".26459" word-spacing="0px" style="line-height:125%" xml:space="preserve"><tspan x="27.95307" y="63.759563" stroke-width=".26459"><tspan dx="0" dy="0" fill="#000000" font-family="Arial" font-size="3.5059px" font-weight="400" stroke-width=".26459">1</tspan></tspan></text>
<text x="22.732029" y="70.697609" fill="#000000" font-family="Arial" font-size="3.5059px" font-weight="400" letter-spacing="0px" stroke-width=".26459" word-spacing="0px" style="line-height:125%" xml:space="preserve"><tspan x="22.732029" y="70.697609" stroke-width=".26459"><tspan dx="0" dy="0" fill="#000000" font-family="Arial" font-size="3.5059px" font-weight="400" stroke-width=".26459">0</tspan></tspan></text>
<text x="50.648621" y="70.697609" fill="#000000" font-family="Arial" font-size="3.5059px" font-weight="400" letter-spacing="0px" stroke-width=".26459" word-spacing="0px" style="line-height:125%" xml:space="preserve"><tspan x="50.648621" y="70.697609" stroke-width=".26459"><tspan dx="0" dy="0" fill="#000000" font-family="Arial" font-size="3.5059px" font-weight="400" stroke-width=".26459">10</tspan></tspan></text>
<text x="79.545914" y="70.697609" fill="#000000" font-family="Arial" font-size="3.5059px" font-weight="400" letter-spacing="0px" stroke-width=".26459" word-spacing="0px" style="line-height:125%" xml:space="preserve"><tspan x="79.545914" y="70.697609" stroke-width=".26459"><tspan dx="0" dy="0" fill="#000000" font-family="Arial" font-size="3.5059px" font-weight="400" stroke-width=".26459">20</tspan></tspan></text>
<text x="108.44322" y="70.697609" fill="#000000" font-family="Arial" font-size="3.5059px" font-weight="400" letter-spacing="0px" stroke-width=".26459" word-spacing="0px" style="line-height:125%" xml:space="preserve"><tspan x="108.44322" y="70.697609" stroke-width=".26459"><tspan dx="0" dy="0" fill="#000000" font-family="Arial" font-size="3.5059px" font-weight="400" stroke-width=".26459">30</tspan></tspan></text>
<text x="1.6659046" y="5.4471149" fill="#000000" font-family="Arial" font-size="3.5059px" font-weight="400" letter-spacing="0px" stroke-width=".26459" word-spacing="0px" style="line-height:125%" xml:space="preserve"><tspan x="1.6659046" y="5.4471149" stroke-width=".26459"><tspan dx="0" dy="0" fill="#000000" font-family="Arial" font-size="3.5059px" font-weight="400" stroke-width=".26459">Deren Wikis</tspan></tspan></text>
<text x="8.7213631" y="11.261062" fill="#000000" font-family="Arial" font-size="3.5059px" font-weight="400" letter-spacing="0px" stroke-width=".26459" word-spacing="0px" style="line-height:125%" xml:space="preserve"><tspan x="8.7213631" y="11.261062" stroke-width=".26459"><tspan dx="0" dy="0" fill="#000000" font-family="Arial" font-size="3.5059px" font-weight="400" stroke-width=".26459">Discord</tspan></tspan></text>
<text x="14.602087" y="17.075037" fill="#000000" font-family="Arial" font-size="3.5059px" font-weight="400" letter-spacing="0px" stroke-width=".26459" word-spacing="0px" style="line-height:125%" xml:space="preserve"><tspan x="14.602087" y="17.075037" stroke-width=".26459"><tspan dx="0" dy="0" fill="#000000" font-family="Arial" font-size="3.5059px" font-weight="400" stroke-width=".26459">IRC</tspan></tspan></text>
<text x="5.1865783" y="22.888987" fill="#000000" font-family="Arial" font-size="3.5059px" font-weight="400" letter-spacing="0px" stroke-width=".26459" word-spacing="0px" style="line-height:125%" xml:space="preserve"><tspan x="5.1865783" y="22.888987" stroke-width=".26459"><tspan dx="0" dy="0" fill="#000000" font-family="Arial" font-size="3.5059px" font-weight="400" stroke-width=".26459">Facebook</tspan></tspan></text>
<text x="10.093649" y="28.702961" fill="#000000" font-family="Arial" font-size="3.5059px" font-weight="400" letter-spacing="0px" stroke-width=".26459" word-spacing="0px" style="line-height:125%" xml:space="preserve"><tspan x="10.093649" y="28.702961" stroke-width=".26459"><tspan dx="0" dy="0" fill="#000000" font-family="Arial" font-size="3.5059px" font-weight="400" stroke-width=".26459">Twitter</tspan></tspan></text>
<text x="10.4817" y="34.516907" fill="#000000" font-family="Arial" font-size="3.5059px" font-weight="400" letter-spacing="0px" stroke-width=".26459" word-spacing="0px" style="line-height:125%" xml:space="preserve"><tspan x="10.4817" y="34.516907" stroke-width=".26459"><tspan dx="0" dy="0" fill="#000000" font-family="Arial" font-size="3.5059px" font-weight="400" stroke-width=".26459">Reddit</tspan></tspan></text>
<text x="9.7020721" y="40.330883" fill="#000000" font-family="Arial" font-size="3.5059px" font-weight="400" letter-spacing="0px" stroke-width=".26459" word-spacing="0px" style="line-height:125%" xml:space="preserve"><tspan x="9.7020721" y="40.330883" stroke-width=".26459"><tspan dx="0" dy="0" fill="#000000" font-family="Arial" font-size="3.5059px" font-weight="400" stroke-width=".26459">Tumblr</tspan></tspan></text>
<text x="4.2093959" y="46.144859" fill="#000000" font-family="Arial" font-size="3.5059px" font-weight="400" letter-spacing="0px" stroke-width=".26459" word-spacing="0px" style="line-height:125%" xml:space="preserve"><tspan x="4.2093959" y="46.144859" stroke-width=".26459"><tspan dx="0" dy="0" fill="#000000" font-family="Arial" font-size="3.5059px" font-weight="400" stroke-width=".26459">DeviantArt</tspan></tspan></text>
<text x="6.3613105" y="51.958809" fill="#000000" font-family="Arial" font-size="3.5059px" font-weight="400" letter-spacing="0px" stroke-width=".26459" word-spacing="0px" style="line-height:125%" xml:space="preserve"><tspan x="6.3613105" y="51.958809" stroke-width=".26459"><tspan dx="0" dy="0" fill="#000000" font-family="Arial" font-size="3.5059px" font-weight="400" stroke-width=".26459">YouTube</tspan></tspan></text>
<text x="1.0661904" y="57.772785" fill="#000000" font-family="Arial" font-size="3.5059px" font-weight="400" letter-spacing="0px" stroke-width=".26459" word-spacing="0px" style="line-height:125%" xml:space="preserve"><tspan x="1.0661904" y="57.772785" stroke-width=".26459"><tspan dx="0" dy="0" fill="#000000" font-family="Arial" font-size="3.5059px" font-weight="400" stroke-width=".26459">Keine davon</tspan></tspan></text>
<text x="1.5777107" y="63.586727" fill="#000000" font-family="Arial" font-size="3.5059px" font-weight="400" letter-spacing="0px" stroke-width=".26459" word-spacing="0px" style="line-height:125%" xml:space="preserve"><tspan x="1.5777107" y="63.586727" stroke-width=".26459"><tspan dx="0" dy="0" fill="#000000" font-family="Arial" font-size="3.5059px" font-weight="400" stroke-width=".26459">Garry's Mod</tspan></tspan></text>
</svg>
