<?xml version="1.0" encoding="UTF-8"?>
<svg width="107.7mm" height="81.371mm" version="1.1" viewBox="0 0 107.7 81.371" xmlns="http://www.w3.org/2000/svg" xmlns:cc="http://creativecommons.org/ns#" xmlns:dc="http://purl.org/dc/elements/1.1/" xmlns:rdf="http://www.w3.org/1999/02/22-rdf-syntax-ns#">
<metadata>
<rdf:RDF>
<cc:Work rdf:about="">
<dc:format>image/svg+xml</dc:format>
<dc:type rdf:resource="http://purl.org/dc/dcmitype/StillImage"/>
<dc:title/>
</cc:Work>
</rdf:RDF>
</metadata>
<g transform="translate(-226.4 -13.2)">
<path d="m238.31 19.628v63.92h61.295v-63.92z" fill="#e7e7e7" fill-rule="evenodd"/>
<path d="m238.31 72.838h61.295v0.16932h-61.295zm0-10.667h61.295v0.16932h-61.295zm0-10.667h61.295v0.16932h-61.295zm0-10.667h61.295v0.16932h-61.295zm0-10.667h61.295v0.16932h-61.295zm0-10.625h61.295v0.16932h-61.295z" fill="#898989" stroke="#898989" stroke-linejoin="bevel" stroke-width=".042331px"/>
<path d="m243.39 48.371v35.177h10.244v-35.177z" fill="#34a853" fill-rule="evenodd"/>
<path d="m243.31 48.371c0-0.04498 0.0397-0.08466 0.0847-0.08466h10.244c0.0476 0 0.0847 0.03968 0.0847 0.08466v35.177c0 0.04762-0.037 0.08466-0.0847 0.08466h-10.244c-0.045 0-0.0847-0.03704-0.0847-0.08466zm0.16932 35.177-0.0847-0.08466h10.244l-0.0847 0.08466v-35.177l0.0847 0.08466h-10.244l0.0847-0.08466z" fill="#237a3b" stroke="#237a3b" stroke-linejoin="bevel" stroke-width=".042331px"/>
<path d="m263.84 66.531v17.017h10.202v-17.017z" fill="#34a853" fill-rule="evenodd"/>
<path d="m263.75 66.531c0-0.04498 0.0397-0.08466 0.0847-0.08466h10.202c0.0476 0 0.0847 0.03969 0.0847 0.08466v17.017c0 0.04762-0.037 0.08466-0.0847 0.08466h-10.202c-0.045 0-0.0847-0.03704-0.0847-0.08466zm0.16933 17.017-0.0847-0.08466h10.202l-0.0847 0.08466v-17.017l0.0847 0.08466h-10.202l0.0847-0.08466z" fill="#237a3b" stroke="#237a3b" stroke-linejoin="bevel" stroke-width=".042331px"/>
<path d="m284.28 81.431v2.1166h10.202v-2.1166z" fill="#34a853" fill-rule="evenodd"/>
<path d="m284.2 81.431c0-0.04498 0.0397-0.08466 0.0847-0.08466h10.202c0.0476 0 0.0847 0.03969 0.0847 0.08466v2.1166c0 0.04762-0.037 0.08466-0.0847 0.08466h-10.202c-0.045 0-0.0847-0.03704-0.0847-0.08466zm0.16933 2.1166-0.0847-0.08466h10.202l-0.0847 0.08466v-2.1166l0.0847 0.08466h-10.202l0.0847-0.08466z" fill="#237a3b" stroke="#237a3b" stroke-linejoin="bevel" stroke-width=".042331px"/>
<path d="m243.39 38.804v9.5668h10.244v-9.5668z" fill="#fbbc04" fill-rule="evenodd"/>
<path d="m243.31 38.804c0-0.04498 0.0397-0.08466 0.0847-0.08466h10.244c0.0476 0 0.0847 0.03968 0.0847 0.08466v9.5668c0 0.04762-0.037 0.08466-0.0847 0.08466h-10.244c-0.045 0-0.0847-0.03704-0.0847-0.08466zm0.16932 9.5668-0.0847-0.08466h10.244l-0.0847 0.08466v-9.5668l0.0847 0.08466h-10.244l0.0847-0.08466z" fill="#b98902" stroke="#b98902" stroke-linejoin="bevel" stroke-width=".042331px"/>
<path d="m263.84 41.979v24.552h10.202v-24.552z" fill="#fbbc04" fill-rule="evenodd"/>
<path d="m263.75 41.979c0-0.04498 0.0397-0.08466 0.0847-0.08466h10.202c0.0476 0 0.0847 0.03969 0.0847 0.08466v24.552c0 0.04762-0.037 0.08466-0.0847 0.08466h-10.202c-0.045 0-0.0847-0.03704-0.0847-0.08466zm0.16933 24.552-0.0847-0.08466h10.202l-0.0847 0.08466v-24.552l0.0847 0.08466h-10.202l0.0847-0.08466z" fill="#b98902" stroke="#b98902" stroke-linejoin="bevel" stroke-width=".042331px"/>
<path d="m243.39 32.412v6.392h10.244v-6.392z" fill="#ea4335" fill-rule="evenodd"/>
<path d="m243.31 32.412c0-0.04498 0.0397-0.08466 0.0847-0.08466h10.244c0.0476 0 0.0847 0.03969 0.0847 0.08466v6.392c0 0.04762-0.037 0.08466-0.0847 0.08466h-10.244c-0.045 0-0.0847-0.03704-0.0847-0.08466zm0.16932 6.392-0.0847-0.08466h10.244l-0.0847 0.08466v-6.392l0.0847 0.08466h-10.244l0.0847-0.08466z" fill="#ac2f24" stroke="#ac2f24" stroke-linejoin="bevel" stroke-width=".042331px"/>
<path d="m263.84 34.529v7.4503h10.202v-7.4503z" fill="#ea4335" fill-rule="evenodd"/>
<path d="m263.75 34.529c0-0.04498 0.0397-0.08466 0.0847-0.08466h10.202c0.0476 0 0.0847 0.03969 0.0847 0.08466v7.4503c0 0.04762-0.037 0.08466-0.0847 0.08466h-10.202c-0.045 0-0.0847-0.03704-0.0847-0.08466zm0.16933 7.4503-0.0847-0.08466h10.202l-0.0847 0.08466v-7.4503l0.0847 0.08466h-10.202l0.0847-0.08466z" fill="#ac2f24" stroke="#ac2f24" stroke-linejoin="bevel" stroke-width=".042331px"/>
<path d="m284.28 79.315v2.1166h10.202v-2.1166z" fill="#ea4335" fill-rule="evenodd"/>
<path d="m284.2 79.315c0-0.04498 0.0397-0.08466 0.0847-0.08466h10.202c0.0476 0 0.0847 0.03968 0.0847 0.08466v2.1166c0 0.04762-0.037 0.08466-0.0847 0.08466h-10.202c-0.045 0-0.0847-0.03704-0.0847-0.08466zm0.16933 2.1166-0.0847-0.08466h10.202l-0.0847 0.08466v-2.1166l0.0847 0.08466h-10.202l0.0847-0.08466z" fill="#ac2f24" stroke="#ac2f24" stroke-linejoin="bevel" stroke-width=".042331px"/>
<path d="m243.39 28.137v4.2754h10.244v-4.2754z" fill="#4285f4" fill-rule="evenodd"/>
<path d="m243.31 28.137c0-0.04498 0.0397-0.08466 0.0847-0.08466h10.244c0.0476 0 0.0847 0.03968 0.0847 0.08466v4.2754c0 0.04762-0.037 0.08466-0.0847 0.08466h-10.244c-0.045 0-0.0847-0.03704-0.0847-0.08466zm0.16932 4.2754-0.0847-0.08466h10.244l-0.0847 0.08466v-4.2754l0.0847 0.08466h-10.244l0.0847-0.08466z" fill="#2e60b3" stroke="#2e60b3" stroke-linejoin="bevel" stroke-width=".042331px"/>
<path d="m263.84 29.195v5.3337h10.202v-5.3337z" fill="#4285f4" fill-rule="evenodd"/>
<path d="m263.75 29.195c0-0.04498 0.0397-0.08466 0.0847-0.08466h10.202c0.0476 0 0.0847 0.03969 0.0847 0.08466v5.3337c0 0.04762-0.037 0.08466-0.0847 0.08466h-10.202c-0.045 0-0.0847-0.03704-0.0847-0.08466zm0.16933 5.3337-0.0847-0.08466h10.202l-0.0847 0.08466v-5.3337l0.0847 0.08466h-10.202l0.0847-0.08466z" fill="#2e60b3" stroke="#2e60b3" stroke-linejoin="bevel" stroke-width=".042331px"/>
<path d="m284.28 30.253v49.062h10.202v-49.062z" fill="#4285f4" fill-rule="evenodd"/>
<path d="m284.2 30.253c0-0.04498 0.0397-0.08466 0.0847-0.08466h10.202c0.0476 0 0.0847 0.03968 0.0847 0.08466v49.062c0 0.04762-0.037 0.08466-0.0847 0.08466h-10.202c-0.045 0-0.0847-0.03704-0.0847-0.08466zm0.16933 49.062-0.0847-0.08466h10.202l-0.0847 0.08466v-49.062l0.0847 0.08466h-10.202l0.0847-0.08466z" fill="#2e60b3" stroke="#2e60b3" stroke-linejoin="bevel" stroke-width=".042331px"/>
<path d="m238.23 83.548v-63.92h0.16932v63.92z" fill="#898989" stroke="#898989" stroke-linejoin="bevel" stroke-width=".042331px"/>
<path d="m237.21 83.463h1.1006v0.16932h-1.1006zm0-10.625h1.1006v0.16932h-1.1006zm0-10.667h1.1006v0.16932h-1.1006zm0-10.667h1.1006v0.16932h-1.1006zm0-10.667h1.1006v0.16932h-1.1006zm0-10.667h1.1006v0.16932h-1.1006zm0-10.625h1.1006v0.16932h-1.1006z" fill="#898989" stroke="#898989" stroke-linejoin="bevel" stroke-width=".042331px"/>
<path d="m238.31 83.463h61.295v0.16932h-61.295z" fill="#898989" stroke="#898989" stroke-linejoin="bevel" stroke-width=".042331px"/>
<path d="m238.4 83.548v1.1006h-0.16932v-1.1006zm20.404 0v1.1006h-0.16932v-1.1006zm20.446 0v1.1006h-0.16933v-1.1006zm20.446 0v1.1006h-0.16933v-1.1006z" fill="#898989" stroke="#898989" stroke-linejoin="bevel" stroke-width=".042331px"/>
<text x="233.31787" y="84.670891" fill="#000000" font-family="Arial" font-size="3.5057px" font-weight="400" letter-spacing="0px" stroke-width=".26458" word-spacing="0px" style="line-height:125%" xml:space="preserve"><tspan x="233.31787" y="84.670891" stroke-width=".26458"><tspan dx="0" dy="0" fill="#000000" font-family="Arial" font-size="3.5057px" font-weight="400" stroke-width=".26458">0</tspan></tspan></text>
<text x="231.35651" y="74.01236" fill="#000000" font-family="Arial" font-size="3.5057px" font-weight="400" letter-spacing="0px" stroke-width=".26458" word-spacing="0px" style="line-height:125%" xml:space="preserve"><tspan x="231.35651" y="74.01236" stroke-width=".26458"><tspan dx="0" dy="0" fill="#000000" font-family="Arial" font-size="3.5057px" font-weight="400" stroke-width=".26458">10</tspan></tspan></text>
<text x="231.35651" y="63.353832" fill="#000000" font-family="Arial" font-size="3.5057px" font-weight="400" letter-spacing="0px" stroke-width=".26458" word-spacing="0px" style="line-height:125%" xml:space="preserve"><tspan x="231.35651" y="63.353832" stroke-width=".26458"><tspan dx="0" dy="0" fill="#000000" font-family="Arial" font-size="3.5057px" font-weight="400" stroke-width=".26458">20</tspan></tspan></text>
<text x="231.35651" y="52.695305" fill="#000000" font-family="Arial" font-size="3.5057px" font-weight="400" letter-spacing="0px" stroke-width=".26458" word-spacing="0px" style="line-height:125%" xml:space="preserve"><tspan x="231.35651" y="52.695305" stroke-width=".26458"><tspan dx="0" dy="0" fill="#000000" font-family="Arial" font-size="3.5057px" font-weight="400" stroke-width=".26458">30</tspan></tspan></text>
<text x="231.35651" y="42.0368" fill="#000000" font-family="Arial" font-size="3.5057px" font-weight="400" letter-spacing="0px" stroke-width=".26458" word-spacing="0px" style="line-height:125%" xml:space="preserve"><tspan x="231.35651" y="42.0368" stroke-width=".26458"><tspan dx="0" dy="0" fill="#000000" font-family="Arial" font-size="3.5057px" font-weight="400" stroke-width=".26458">40</tspan></tspan></text>
<text x="231.35651" y="31.378271" fill="#000000" font-family="Arial" font-size="3.5057px" font-weight="400" letter-spacing="0px" stroke-width=".26458" word-spacing="0px" style="line-height:125%" xml:space="preserve"><tspan x="231.35651" y="31.378271" stroke-width=".26458"><tspan dx="0" dy="0" fill="#000000" font-family="Arial" font-size="3.5057px" font-weight="400" stroke-width=".26458">50</tspan></tspan></text>
<text x="231.35651" y="20.719742" fill="#000000" font-family="Arial" font-size="3.5057px" font-weight="400" letter-spacing="0px" stroke-width=".26458" word-spacing="0px" style="line-height:125%" xml:space="preserve"><tspan x="231.35651" y="20.719742" stroke-width=".26458"><tspan dx="0" dy="0" fill="#000000" font-family="Arial" font-size="3.5057px" font-weight="400" stroke-width=".26458">60</tspan></tspan></text>
<text x="240.19913" y="88.874619" fill="#000000" font-family="Arial" font-size="3.5057px" font-weight="400" letter-spacing="0px" stroke-width=".26458" word-spacing="0px" style="line-height:125%" xml:space="preserve"><tspan x="240.19913" y="88.874619" stroke-width=".26458"><tspan dx="0" dy="0" fill="#000000" font-family="Arial" font-size="3.5057px" font-weight="400" stroke-width=".26458">PC/Laptop</tspan></tspan></text>
<text x="259.36182" y="88.874619" fill="#000000" font-family="Arial" font-size="3.5057px" font-weight="400" letter-spacing="0px" stroke-width=".26458" word-spacing="0px" style="line-height:125%" xml:space="preserve"><tspan x="259.36182" y="88.874619" stroke-width=".26458"><tspan dx="0" dy="0" fill="#000000" font-family="Arial" font-size="3.5057px" font-weight="400" stroke-width=".26458">Smartphone</tspan></tspan></text>
<text x="284.50375" y="88.874619" fill="#000000" font-family="Arial" font-size="3.5057px" font-weight="400" letter-spacing="0px" stroke-width=".26458" word-spacing="0px" style="line-height:125%" xml:space="preserve"><tspan x="284.50375" y="88.874619" stroke-width=".26458"><tspan dx="0" dy="0" fill="#000000" font-family="Arial" font-size="3.5057px" font-weight="400" stroke-width=".26458">Tablet</tspan></tspan></text>
<path d="m304.35 42.868v1.7779h1.7779v-1.7779z" fill="#4285f4" fill-rule="evenodd"/>
<path d="m304.26 42.868c0-0.04498 0.0397-0.08466 0.0847-0.08466h1.7779c0.0476 0 0.0847 0.03968 0.0847 0.08466v1.7779c0 0.04762-0.037 0.08466-0.0847 0.08466h-1.7779c-0.045 0-0.0847-0.03704-0.0847-0.08466zm0.16932 1.7779-0.0847-0.08466h1.7779l-0.0847 0.08466v-1.7779l0.0847 0.08466h-1.7779l0.0847-0.08466z" fill="#2e60b3" stroke="#2e60b3" stroke-linejoin="bevel" stroke-width=".042331px"/>
<text x="306.91934" y="44.850323" fill="#000000" font-family="Arial" font-size="3.5057px" font-weight="400" letter-spacing="0px" stroke-width=".26458" word-spacing="0px" style="line-height:125%" xml:space="preserve"><tspan x="306.91934" y="44.850323" stroke-width=".26458"><tspan dx="0" dy="0" fill="#000000" font-family="Arial" font-size="3.5057px" font-weight="400" stroke-width=".26458">Gar nicht</tspan></tspan></text>
<path d="m304.35 48.879v1.7779h1.7779v-1.7779z" fill="#ea4335" fill-rule="evenodd"/>
<path d="m304.26 48.879c0-0.04498 0.0397-0.08466 0.0847-0.08466h1.7779c0.0476 0 0.0847 0.03968 0.0847 0.08466v1.7779c0 0.04762-0.037 0.08466-0.0847 0.08466h-1.7779c-0.045 0-0.0847-0.03704-0.0847-0.08466zm0.16932 1.7779-0.0847-0.08466h1.7779l-0.0847 0.08466v-1.7779l0.0847 0.08466h-1.7779l0.0847-0.08466z" fill="#ac2f24" stroke="#ac2f24" stroke-linejoin="bevel" stroke-width=".042331px"/>
<text x="306.91934" y="50.869537" fill="#000000" font-family="Arial" font-size="3.5057px" font-weight="400" letter-spacing="0px" stroke-width=".26458" word-spacing="0px" style="line-height:125%" xml:space="preserve"><tspan x="306.91934" y="50.869537" stroke-width=".26458"><tspan dx="0" dy="0" fill="#000000" font-family="Arial" font-size="3.5057px" font-weight="400" stroke-width=".26458">Am seltensten</tspan></tspan></text>
<path d="m304.35 54.89v1.7779h1.7779v-1.7779z" fill="#fbbc04" fill-rule="evenodd"/>
<path d="m304.26 54.89c0-0.04498 0.0397-0.08466 0.0847-0.08466h1.7779c0.0476 0 0.0847 0.03968 0.0847 0.08466v1.7779c0 0.04762-0.037 0.08466-0.0847 0.08466h-1.7779c-0.045 0-0.0847-0.03704-0.0847-0.08466zm0.16932 1.7779-0.0847-0.08466h1.7779l-0.0847 0.08466v-1.7779l0.0847 0.08466h-1.7779l0.0847-0.08466z" fill="#b98902" stroke="#b98902" stroke-linejoin="bevel" stroke-width=".042331px"/>
<text x="306.91934" y="56.888752" fill="#000000" font-family="Arial" font-size="3.5057px" font-weight="400" letter-spacing="0px" stroke-width=".26458" word-spacing="0px" style="line-height:125%" xml:space="preserve"><tspan x="306.91934" y="56.888752" stroke-width=".26458"><tspan dx="0" dy="0" fill="#000000" font-family="Arial" font-size="3.5057px" font-weight="400" stroke-width=".26458">Mittel</tspan></tspan></text>
<path d="m304.35 60.901v1.7779h1.7779v-1.7779z" fill="#34a853" fill-rule="evenodd"/>
<path d="m304.26 60.901c0-0.04498 0.0397-0.08466 0.0847-0.08466h1.7779c0.0476 0 0.0847 0.03968 0.0847 0.08466v1.7779c0 0.04762-0.037 0.08466-0.0847 0.08466h-1.7779c-0.045 0-0.0847-0.03704-0.0847-0.08466zm0.16932 1.7779-0.0847-0.08466h1.7779l-0.0847 0.08466v-1.7779l0.0847 0.08466h-1.7779l0.0847-0.08466z" fill="#237a3b" stroke="#237a3b" stroke-linejoin="bevel" stroke-width=".042331px"/>
<text x="306.91934" y="62.90797" fill="#000000" font-family="Arial" font-size="3.5057px" font-weight="400" letter-spacing="0px" stroke-width=".26458" word-spacing="0px" style="line-height:125%" xml:space="preserve"><tspan x="306.91934" y="62.90797" stroke-width=".26458"><tspan dx="0" dy="0" fill="#000000" font-family="Arial" font-size="3.5057px" font-weight="400" stroke-width=".26458">Am häufigsten</tspan></tspan></text>
</g>
</svg>
