<?xml version="1.0" encoding="UTF-8"?>
<svg width="288.41" height="316.27" version="1.1" viewBox="0 0 76.308 83.679" xmlns="http://www.w3.org/2000/svg" xmlns:cc="http://creativecommons.org/ns#" xmlns:dc="http://purl.org/dc/elements/1.1/" xmlns:rdf="http://www.w3.org/1999/02/22-rdf-syntax-ns#">
<metadata>
<rdf:RDF>
<cc:Work rdf:about="">
<dc:format>image/svg+xml</dc:format>
<dc:type rdf:resource="http://purl.org/dc/dcmitype/StillImage"/>
<dc:title/>
</cc:Work>
</rdf:RDF>
</metadata>
<path d="m38.157 45.528-32.601 16.896c9.3288 18.007 31.489 25.039 49.496 15.71 18.007-9.3288 25.044-31.495 15.71-49.501-6.3074-12.181-18.885-19.827-32.606-19.827z" fill="#4285f4" fill-rule="evenodd"/>
<path d="m38.241 45.528c0 0.03175-0.01588 0.0635-0.04233 0.07937l-32.606 16.89 0.03704-0.11641 0.91013 1.6562 0.98421 1.5874 1.0477 1.5186 1.1165 1.4551 1.18 1.3864 1.2382 1.3176 1.2964 1.2435 1.344 1.18 1.3969 1.1006 1.4499 1.0318 1.4869 0.95775 1.5292 0.87838 1.5716 0.8043 1.6033 0.73022 1.6298 0.65085 1.6668 0.57148 1.6827 0.4921 1.7144 0.40744 1.725 0.33336 1.7462 0.24341 1.7568 0.16403 1.7726 0.07408 1.7726-0.01058 1.7779-0.09525 1.7779-0.17991 1.7779-0.26986 1.7726-0.36511 1.762-0.44977 1.7515-0.54502 1.7303-0.64026 1.7197-0.72493 1.6933-0.82547 1.6562-0.91542 1.5874-0.97892 1.5186-1.0477 1.4551-1.1165 1.3864-1.18 1.3176-1.2382 1.2435-1.2964 1.1747-1.3493 1.1006-1.3917 1.0318-1.4499 0.95775-1.4869 0.88367-1.5345 0.8043-1.5663 0.72493-1.6033 0.65085-1.6298 0.57148-1.6615 0.4921-1.688 0.41273-1.7144 0.32807-1.7303 0.2487-1.7409 0.15874-1.7568 0.07408-1.7726-0.0053-1.7726-0.09525-1.7779-0.17991-1.7779-0.27516-1.7779-0.35982-1.7726-0.45506-1.762-0.53973-1.7515-0.64027-1.7356-0.73022-1.7144-0.82547-1.6986-0.60852-1.1218-0.64026-1.1006-0.6826-1.0689-0.71434-1.0477-0.7408-1.0107-0.78313-0.98421-0.8043-0.95775-0.84134-0.92071-0.8678-0.89425-0.89425-0.8625-0.92071-0.83076-0.95246-0.79372-0.97363-0.76726-1.0001-0.73022-1.0265-0.69318-1.0424-0.66143-1.0689-0.62439-1.0847-0.58735-1.1112-0.55031-1.1271-0.51327-1.143-0.47623-1.1588-0.43919-1.18-0.39685-1.1906-0.35982-1.2064-0.32278-1.2223-0.27516-1.2329-0.23811-1.2435-0.19578-1.2541-0.15345-1.2594-0.11112-1.2752-0.068789-1.2805-0.021166 0.08466-0.084663zm-0.16933-36.723c0-0.021166 0.01058-0.042332 0.02646-0.058206 0.01587-0.015874 0.03704-0.026457 0.0635-0.026457l1.2858 0.021166 1.2752 0.07408 1.2699 0.10583 1.2594 0.15345 1.2488 0.19578 1.2435 0.23812 1.2223 0.28574 1.2117 0.31749 1.2012 0.35982 1.18 0.40215 1.1694 0.43919 1.1482 0.47623 1.1324 0.51856 1.1112 0.5556 1.0953 0.59264 1.0689 0.62439 1.0477 0.66672 1.0318 0.69847 1.0054 0.73022 0.97892 0.76726 0.95246 0.79901 0.926 0.83605 0.89955 0.8625 0.87309 0.89954 0.84134 0.9313 0.81488 0.95775 0.77784 0.9895 0.75138 1.016 0.71434 1.0477 0.6826 1.0795 0.65085 1.1006 0.60852 1.1324 0.83076 1.7038 0.73022 1.725 0.64027 1.7462 0.54502 1.7568 0.45506 1.7726 0.36511 1.7779 0.26986 1.7832 0.1852 1.7885 0.09525 1.7832 0.0053 1.7885-0.07408 1.7726-0.16404 1.7673-0.2487 1.7515-0.32807 1.7409-0.41273 1.7144-0.4921 1.6986-0.57677 1.6668-0.65085 1.6456-0.73551 1.6086-0.80959 1.5716-0.88367 1.5398-0.96304 1.4975-1.0318 1.4499-1.1112 1.4022-1.18 1.3599-1.2541 1.2964-1.3229 1.2435-1.3916 1.1853-1.4604 1.1218-1.5292 1.0583-1.5927 0.97892-1.6615 0.91542-1.6986 0.83076-1.7303 0.73022-1.7409 0.64556-1.7568 0.54502-1.7726 0.45506-1.7779 0.35982-1.7832 0.27515-1.7885 0.17991-1.7832 0.09525-1.7885 0.01058-1.7726-0.07937-1.7673-0.15874-1.7568-0.2487-1.7356-0.32807-1.7197-0.41273-1.6933-0.4974-1.6668-0.57147-1.6456-0.65614-1.6086-0.73022-1.5769-0.80959-1.5345-0.88896-1.4975-0.95775-1.4499-1.0318-1.4075-1.1112-1.3546-1.1853-1.2964-1.2488-1.2435-1.3229-1.1853-1.3916-1.1218-1.4604-1.0583-1.5292-0.98421-1.5927-0.91013-1.6562c-0.01058-0.02117-0.01587-0.04762-0.0053-0.06879 0.0053-0.02117 0.02117-0.03704 0.04233-0.04762l32.601-16.896-0.04762 0.07408z" fill="#2e60b3" stroke="#2e60b3" stroke-linejoin="bevel" stroke-width=".042332px"/>
<path d="m38.157 45.528-14.628-33.683c-18.602 8.08-27.132 29.709-19.052 48.311 0.33072 0.76726 0.69053 1.5239 1.0768 2.2647z" fill="#ea4335" fill-rule="evenodd"/>
<path d="m38.12 45.454-0.03968 0.10847-14.628-33.683 0.11377 0.04233-1.7144 0.79636-1.6509 0.87309-1.5874 0.94452-1.5266 1.0133-1.4657 1.0821-1.3943 1.1456-1.3334 1.2064-1.2647 1.2647-1.1959 1.3202-1.1271 1.3705-1.0556 1.4208-0.98156 1.4657-0.91013 1.5107-0.83605 1.5477-0.76197 1.5848-0.6826 1.6218-0.60852 1.6509-0.52385 1.6774-0.44713 1.7038-0.36511 1.7224-0.28045 1.7435-0.19843 1.7568-0.11377 1.7726-0.02646 1.7806 0.06085 1.7859 0.15081 1.7938 0.24076 1.7885 0.33072 1.7912 0.42596 1.7832 0.51327 1.7753 0.61381 1.7621 0.70641 1.7462 0.51856 1.1403 0.5556 1.1191-0.11377-0.03704zm-32.527 17.044c-0.01852 0.01058-0.04233 0.01323-0.0635 0.0053-0.02381-0.0079-0.03969-0.02381-0.05027-0.04233l-0.56089-1.1244-0.51856-1.1482-0.7117-1.7541-0.61381-1.7726-0.51856-1.7806-0.42596-1.7938-0.33072-1.7964-0.24076-1.7991-0.15345-1.7991-0.06085-1.7964 0.0291-1.7912 0.11377-1.7779 0.19843-1.7673 0.28045-1.7488 0.3704-1.7329 0.44713-1.7091 0.5265-1.688 0.61116-1.6562 0.68789-1.6271 0.76197-1.5954 0.84134-1.553 0.91542-1.516 0.98685-1.4763 1.0609-1.426 1.1324-1.3758 1.2012-1.3255 1.2699-1.2699 1.3387-1.2117 1.4022-1.1509 1.4737-1.0874 1.5319-1.0186 1.598-0.94982 1.6562-0.87573 1.7144-0.79636c0.02117-0.0079 0.04498-0.01058 0.06614 0 0.02117 0.0079 0.03704 0.02381 0.04762 0.04498l14.628 33.683c0.01852 0.03968 0 0.08731-0.03969 0.10848z" fill="#ac2f24" stroke="#ac2f24" stroke-linejoin="bevel" stroke-width=".042332px"/>
<path d="m38.157 45.528v-36.723c-5.0322 0-10.011 1.0345-14.628 3.0399z" fill="#fbbc04" fill-rule="evenodd"/>
<path d="m38.236 45.496-0.16404 0.03175v-36.723l0.08731 0.084663-0.94188 0.013228-0.93923 0.034395-0.93659 0.060852-0.93659 0.084663-0.93129 0.10847-0.926 0.13229-0.92336 0.1561-0.91807 0.17726-0.91806 0.20372-0.90748 0.22489-0.90219 0.2487-0.8969 0.27251-0.89425 0.29367-0.88103 0.32013-0.87573 0.33865-0.8678 0.36511 0.04498-0.11112zm-14.784-33.617c-0.0079-0.02117-0.0079-0.04498 0-0.0635 0.0079-0.02117 0.02381-0.03969 0.04498-0.04762l0.87309-0.36511 0.88103-0.34394 0.88367-0.32013 0.8969-0.29367 0.90219-0.27251 0.90748-0.25399 0.91277-0.22489 0.91807-0.20372 0.92335-0.17726 0.92865-0.1561 0.9313-0.13229 0.93659-0.10847 0.93658-0.084663 0.94188-0.063498 0.94452-0.034394 0.94188-0.013229c0.02381 0 0.04498 0.010583 0.06085 0.026457s0.02381 0.03704 0.02381 0.058206v36.723c0 0.04233-0.02646 0.07673-0.06614 0.08466-0.03969 0.0079-0.07937-0.01323-0.09525-0.05027z" fill="#b98902" stroke="#b98902" stroke-linejoin="bevel" stroke-width=".042332px"/>
<text x="54.374783" y="58.575966" fill="#000000" font-family="Arial" font-size="3.5058px" font-weight="400" letter-spacing="0px" stroke-width=".26459" word-spacing="0px" style="line-height:125%" xml:space="preserve"><tspan x="54.374783" y="58.575966" stroke-width=".26459"><tspan dx="0" dy="0" fill="#000000" font-family="Arial" font-size="3.5058px" font-weight="400" stroke-width=".26459">Männlich:</tspan></tspan></text>
<text x="55.433071" y="62.639793" fill="#000000" font-family="Arial" font-size="3.5058px" font-weight="400" letter-spacing="0px" stroke-width=".26459" word-spacing="0px" style="line-height:125%" xml:space="preserve"><tspan x="55.433071" y="62.639793" stroke-width=".26459"><tspan dx="0" dy="0" fill="#000000" font-family="Arial" font-size="3.5058px" font-weight="400" stroke-width=".26459">31; 67%</tspan></tspan></text>
<text x="4.8451018" y="36.61647" fill="#000000" font-family="Arial" font-size="3.5058px" font-weight="400" letter-spacing="0px" stroke-width=".26459" word-spacing="0px" style="line-height:125%" xml:space="preserve"><tspan x="4.8451018" y="36.61647" stroke-width=".26459"><tspan dx="0" dy="0" fill="#000000" font-family="Arial" font-size="3.5058px" font-weight="400" stroke-width=".26459">Weiblich:</tspan></tspan></text>
<text x="5.5647368" y="40.680302" fill="#000000" font-family="Arial" font-size="3.5058px" font-weight="400" letter-spacing="0px" stroke-width=".26459" word-spacing="0px" style="line-height:125%" xml:space="preserve"><tspan x="5.5647368" y="40.680302" stroke-width=".26459"><tspan dx="0" dy="0" fill="#000000" font-family="Arial" font-size="3.5058px" font-weight="400" stroke-width=".26459">12; 26%</tspan></tspan></text>
<text x="19.02038" y="3.8476844" fill="#000000" font-family="Arial" font-size="3.5058px" font-weight="400" letter-spacing="0px" stroke-width=".26459" word-spacing="0px" style="line-height:125%" xml:space="preserve"><tspan x="19.02038" y="3.8476844" stroke-width=".26459"><tspan dx="0" dy="0" fill="#000000" font-family="Arial" font-size="3.5058px" font-weight="400" stroke-width=".26459">Non</tspan></tspan></text>
<text x="25.454775" y="3.8476844" fill="#000000" font-family="Arial" font-size="3.5058px" font-weight="400" letter-spacing="0px" stroke-width=".26459" word-spacing="0px" style="line-height:125%" xml:space="preserve"><tspan x="25.454775" y="3.8476844" stroke-width=".26459"><tspan dx="0" dy="0" fill="#000000" font-family="Arial" font-size="3.5058px" font-weight="400" stroke-width=".26459">-</tspan></tspan></text>
<text x="26.640059" y="3.8476844" fill="#000000" font-family="Arial" font-size="3.5058px" font-weight="400" letter-spacing="0px" stroke-width=".26459" word-spacing="0px" style="line-height:125%" xml:space="preserve"><tspan x="26.640059" y="3.8476844" stroke-width=".26459"><tspan dx="0" dy="0" fill="#000000" font-family="Arial" font-size="3.5058px" font-weight="400" stroke-width=".26459">Binär:</tspan></tspan></text>
<text x="22.914885" y="7.9115138" fill="#000000" font-family="Arial" font-size="3.5058px" font-weight="400" letter-spacing="0px" stroke-width=".26459" word-spacing="0px" style="line-height:125%" xml:space="preserve"><tspan x="22.914885" y="7.9115138" stroke-width=".26459"><tspan dx="0" dy="0" fill="#000000" font-family="Arial" font-size="3.5058px" font-weight="400" stroke-width=".26459">3; 7%</tspan></tspan></text>
</svg>
