<?xml version="1.0" encoding="UTF-8"?>
<svg width="484.25" height="219.93" version="1.1" viewBox="0 0 128.12 58.19" xmlns="http://www.w3.org/2000/svg" xmlns:cc="http://creativecommons.org/ns#" xmlns:dc="http://purl.org/dc/elements/1.1/" xmlns:rdf="http://www.w3.org/1999/02/22-rdf-syntax-ns#">
<defs>
<clipPath id="a">
<path d="m285.59 0.47998h184.15v190.39h-184.15z"/>
</clipPath>
</defs>
<metadata>
<rdf:RDF>
<cc:Work rdf:about="">
<dc:format>image/svg+xml</dc:format>
<dc:type rdf:resource="http://purl.org/dc/dcmitype/StillImage"/>
<dc:title/>
</cc:Work>
</rdf:RDF>
</metadata>
<g transform="translate(131.69 -14.668)">
<path d="m-55.122 16.097v50.035h48.427v-50.035z" fill="#e7e7e7" fill-rule="evenodd"/>
<path d="m-30.824 16.097v50.035h-0.16932v-50.035zm24.213 0v50.035h-0.16932v-50.035z" fill="#898989" stroke="#898989" stroke-linejoin="bevel" stroke-width=".042331px"/>
<path d="m-55.122 16.097v9.9901h38.733v-9.9901z" fill="#4285f4" fill-rule="evenodd"/>
<path transform="matrix(.26458 0 0 .26458 -130.7 15.949)" d="m285.35 0.55997c0-0.15999 0.15999-0.31998 0.31998-0.31998h146.39c0.17999 0 0.31998 0.15999 0.31998 0.31998v37.758c0 0.17999-0.13999 0.31998-0.31998 0.31998h-146.39c-0.15999 0-0.31998-0.13999-0.31998-0.31998zm0.63997 37.758-0.31999-0.31998h146.39l-0.31998 0.31998v-37.758l0.31998 0.31998h-146.39l0.31999-0.31998z" clip-path="url(#a)" fill="#2e60b3" stroke="#2e60b3" stroke-linejoin="bevel" stroke-width=".15999px"/>
<path d="m-55.122 26.087v10.032h6.0534v-10.032z" fill="#ea4335" fill-rule="evenodd"/>
<path transform="matrix(.26458 0 0 .26458 -130.7 15.949)" d="m285.35 38.318c0-0.15999 0.15999-0.31998 0.31998-0.31998h22.879c0.18 0 0.31999 0.15999 0.31999 0.31998v37.918c0 0.17999-0.13999 0.31998-0.31999 0.31998h-22.879c-0.15999 0-0.31998-0.13999-0.31998-0.31998zm0.63997 37.918-0.31999-0.31998h22.879l-0.31998 0.31998v-37.918l0.31998 0.31998h-22.879l0.31999-0.31998z" clip-path="url(#a)" fill="#ac2f24" stroke="#ac2f24" stroke-linejoin="bevel" stroke-width=".15999px"/>
<path d="m-55.122 36.119v9.9901h12.107v-9.9901z" fill="#fbbc04" fill-rule="evenodd"/>
<path transform="matrix(.26458 0 0 .26458 -130.7 15.949)" d="m285.35 76.236c0-0.15999 0.15999-0.31998 0.31998-0.31998h45.758c0.17999 0 0.31998 0.15999 0.31998 0.31998v37.758c0 0.17999-0.13999 0.31998-0.31998 0.31998h-45.758c-0.15999 0-0.31998-0.13999-0.31998-0.31998zm0.63997 37.758-0.31999-0.31998h45.758l-0.31999 0.31998v-37.758l0.31999 0.31998h-45.758l0.31999-0.31998z" clip-path="url(#a)" fill="#b98902" stroke="#b98902" stroke-linejoin="bevel" stroke-width=".15999px"/>
<path d="m-55.122 46.11v10.032h3.5981v-10.032z" fill="#34a853" fill-rule="evenodd"/>
<path transform="matrix(.26458 0 0 .26458 -130.7 15.949)" d="m285.35 113.99c0-0.15999 0.15999-0.31998 0.31998-0.31998h13.599c0.17999 0 0.31998 0.15999 0.31998 0.31998v37.918c0 0.17999-0.13999 0.31998-0.31998 0.31998h-13.599c-0.15999 0-0.31998-0.13999-0.31998-0.31998zm0.63997 37.918-0.31999-0.31998h13.599l-0.31999 0.31998v-37.918l0.31999 0.31998h-13.599l0.31999-0.31998z" clip-path="url(#a)" fill="#237a3b" stroke="#237a3b" stroke-linejoin="bevel" stroke-width=".15999px"/>
<path d="m-55.122 56.142v9.9901h1.1853v-9.9901z" fill="#ff6d01" fill-rule="evenodd"/>
<path transform="matrix(.26458 0 0 .26458 -130.7 15.949)" d="m285.35 151.91c0-0.15999 0.15999-0.31998 0.31998-0.31998h4.4798c0.17999 0 0.31998 0.15999 0.31998 0.31998v37.758c0 0.17999-0.13999 0.31998-0.31998 0.31998h-4.4798c-0.15999 0-0.31998-0.13999-0.31998-0.31998zm0.63997 37.758-0.31999-0.31998h4.4798l-0.31998 0.31998v-37.758l0.31998 0.31998h-4.4798l0.31999-0.31998z" clip-path="url(#a)" fill="#bc4e00" stroke="#bc4e00" stroke-linejoin="bevel" stroke-width=".15999px"/>
<path d="m-55.122 66.047h48.427v0.16932h-48.427z" fill="#898989" stroke="#898989" stroke-linejoin="bevel" stroke-width=".042331px"/>
<path d="m-55.038 66.132v1.1006h-0.16932v-1.1006zm24.213 0v1.1006h-0.16932v-1.1006zm24.213 0v1.1006h-0.16932v-1.1006z" fill="#898989" stroke="#898989" stroke-linejoin="bevel" stroke-width=".042331px"/>
<path d="m-55.038 16.097v50.035h-0.16932v-50.035z" fill="#898989" stroke="#898989" stroke-linejoin="bevel" stroke-width=".042331px"/>
<path d="m-56.223 16.012h1.1006v0.16932h-1.1006zm0 9.9901h1.1006v0.16932h-1.1006zm0 10.032h1.1006v0.16932h-1.1006zm0 9.9901h1.1006v0.16932h-1.1006zm0 10.032h1.1006v0.16932h-1.1006zm0 9.9901h1.1006v0.16932h-1.1006z" fill="#898989" stroke="#898989" stroke-linejoin="bevel" stroke-width=".042331px"/>
<text x="-22.385891" y="22.395824" fill="#000000" font-family="Arial" font-size="3.5057px" font-weight="400" letter-spacing="0px" stroke-width=".26458" word-spacing="0px" style="line-height:125%" xml:space="preserve"><tspan x="-22.385891" y="22.395824" stroke-width=".26458"><tspan dx="0" dy="0" fill="#000000" font-family="Arial" font-size="3.5057px" font-weight="400" stroke-width=".26458">32</tspan></tspan></text>
<text x="-52.996941" y="32.410416" fill="#000000" font-family="Arial" font-size="3.5057px" font-weight="400" letter-spacing="0px" stroke-width=".26458" word-spacing="0px" style="line-height:125%" xml:space="preserve"><tspan x="-52.996941" y="32.410416" stroke-width=".26458"><tspan dx="0" dy="0" fill="#000000" font-family="Arial" font-size="3.5057px" font-weight="400" stroke-width=".26458">5</tspan></tspan></text>
<text x="-49.03326" y="42.42498" fill="#000000" font-family="Arial" font-size="3.5057px" font-weight="400" letter-spacing="0px" stroke-width=".26458" word-spacing="0px" style="line-height:125%" xml:space="preserve"><tspan x="-49.03326" y="42.42498" stroke-width=".26458"><tspan dx="0" dy="0" fill="#000000" font-family="Arial" font-size="3.5057px" font-weight="400" stroke-width=".26458">10</tspan></tspan></text>
<text x="-53.941879" y="52.439571" fill="#000000" font-family="Arial" font-size="3.5057px" font-weight="400" letter-spacing="0px" stroke-width=".26458" word-spacing="0px" style="line-height:125%" xml:space="preserve"><tspan x="-53.941879" y="52.439571" stroke-width=".26458"><tspan dx="0" dy="0" fill="#000000" font-family="Arial" font-size="3.5057px" font-weight="400" stroke-width=".26458">3</tspan></tspan></text>
<text x="-52.996941" y="62.454136" fill="#000000" font-family="Arial" font-size="3.5057px" font-weight="400" letter-spacing="0px" stroke-width=".26458" word-spacing="0px" style="line-height:125%" xml:space="preserve"><tspan x="-52.996941" y="62.454136" stroke-width=".26458"><tspan dx="0" dy="0" fill="#000000" font-family="Arial" font-size="3.5057px" font-weight="400" stroke-width=".26458">1</tspan></tspan></text>
<text x="-56.090645" y="71.492294" fill="#000000" font-family="Arial" font-size="3.5057px" font-weight="400" letter-spacing="0px" stroke-width=".26458" word-spacing="0px" style="line-height:125%" xml:space="preserve"><tspan x="-56.090645" y="71.492294" stroke-width=".26458"><tspan dx="0" dy="0" fill="#000000" font-family="Arial" font-size="3.5057px" font-weight="400" stroke-width=".26458">0</tspan></tspan></text>
<text x="-32.846432" y="71.492294" fill="#000000" font-family="Arial" font-size="3.5057px" font-weight="400" letter-spacing="0px" stroke-width=".26458" word-spacing="0px" style="line-height:125%" xml:space="preserve"><tspan x="-32.846432" y="71.492294" stroke-width=".26458"><tspan dx="0" dy="0" fill="#000000" font-family="Arial" font-size="3.5057px" font-weight="400" stroke-width=".26458">20</tspan></tspan></text>
<text x="-8.6215849" y="71.492294" fill="#000000" font-family="Arial" font-size="3.5057px" font-weight="400" letter-spacing="0px" stroke-width=".26458" word-spacing="0px" style="line-height:125%" xml:space="preserve"><tspan x="-8.6215849" y="71.492294" stroke-width=".26458"><tspan dx="0" dy="0" fill="#000000" font-family="Arial" font-size="3.5057px" font-weight="400" stroke-width=".26458">40</tspan></tspan></text>
<text x="-122.6584" y="22.223" fill="#000000" font-family="Arial" font-size="3.5057px" font-weight="400" letter-spacing="0px" stroke-width=".26458" word-spacing="0px" style="line-height:125%" xml:space="preserve"><tspan x="-122.6584" y="22.223" stroke-width=".26458"><tspan dx="0" dy="0" fill="#000000" font-family="Arial" font-size="3.5057px" font-weight="400" stroke-width=".26458">Ich finde Informationen sind gut zu finden</tspan></tspan></text>
<text x="-130.69427" y="32.237564" fill="#000000" font-family="Arial" font-size="3.5057px" font-weight="400" letter-spacing="0px" stroke-width=".26458" word-spacing="0px" style="line-height:125%" xml:space="preserve"><tspan x="-130.69427" y="32.237564" stroke-width=".26458"><tspan dx="0" dy="0" fill="#000000" font-family="Arial" font-size="3.5057px" font-weight="400" stroke-width=".26458">Ich finde Informationen sind schlecht zu finden</tspan></tspan></text>
<text x="-125.78738" y="40.223759" fill="#000000" font-family="Arial" font-size="3.5057px" font-weight="400" letter-spacing="0px" stroke-width=".26458" word-spacing="0px" style="line-height:125%" xml:space="preserve"><tspan x="-125.78738" y="40.223759" stroke-width=".26458"><tspan dx="0" dy="0" fill="#000000" font-family="Arial" font-size="3.5057px" font-weight="400" stroke-width=".26458">Ich finde Informationen 端ber zu viele Artikel</tspan></tspan></text>
<text x="-69.012314" y="44.287548" fill="#000000" font-family="Arial" font-size="3.5057px" font-weight="400" letter-spacing="0px" stroke-width=".26458" word-spacing="0px" style="line-height:125%" xml:space="preserve"><tspan x="-69.012314" y="44.287548" stroke-width=".26458"><tspan dx="0" dy="0" fill="#000000" font-family="Arial" font-size="3.5057px" font-weight="400" stroke-width=".26458">verteilt</tspan></tspan></text>
<text x="-118.53465" y="52.26672" fill="#000000" font-family="Arial" font-size="3.5057px" font-weight="400" letter-spacing="0px" stroke-width=".26458" word-spacing="0px" style="line-height:125%" xml:space="preserve"><tspan x="-118.53465" y="52.26672" stroke-width=".26458"><tspan dx="0" dy="0" fill="#000000" font-family="Arial" font-size="3.5057px" font-weight="400" stroke-width=".26458">Ich finde Informationen un端bersichtlich</tspan></tspan></text>
<text x="-127.74167" y="62.281277" fill="#000000" font-family="Arial" font-size="3.5057px" font-weight="400" letter-spacing="0px" stroke-width=".26458" word-spacing="0px" style="line-height:125%" xml:space="preserve"><tspan x="-127.74167" y="62.281277" stroke-width=".26458"><tspan dx="0" dy="0" fill="#000000" font-family="Arial" font-size="3.5057px" font-weight="400" stroke-width=".26458">Ich w端rde mir mehr Informationen w端nschen</tspan></tspan></text>
</g>
</svg>
