<?xml version="1.0" encoding="UTF-8"?>
<svg width="380.64" height="366.48" version="1.1" viewBox="0 0 100.71 96.963" xmlns="http://www.w3.org/2000/svg" xmlns:cc="http://creativecommons.org/ns#" xmlns:dc="http://purl.org/dc/elements/1.1/" xmlns:rdf="http://www.w3.org/1999/02/22-rdf-syntax-ns#">
<metadata>
<rdf:RDF>
<cc:Work rdf:about="">
<dc:format>image/svg+xml</dc:format>
<dc:type rdf:resource="http://purl.org/dc/dcmitype/StillImage"/>
<dc:title/>
</cc:Work>
</rdf:RDF>
</metadata>
<path d="m57.652 53.902 5.9238-41.207c-1.9605-0.28309-3.9422-0.42332-5.9238-0.42332z" fill="#3267c0" fill-rule="evenodd"/>
<path d="m57.736 53.902-0.16668-0.01058 5.9238-41.207 0.07143 0.09525-1.4737-0.1852-1.4737-0.13229-1.4816-0.07937-1.4843-0.02646 0.08467-0.08466zm-0.16933-41.631c0-0.02117 0.01058-0.04233 0.02646-0.05821 0.01587-0.01587 0.03704-0.02646 0.06085-0.02646l1.4896 0.0291 1.4869 0.07937 1.4816 0.13229 1.4737 0.1852c0.02381 0.0026 0.04498 0.01323 0.05821 0.03175s0.01852 0.04233 0.01587 0.0635l-5.9238 41.207c-0.0053 0.04498-0.04498 0.07673-0.08996 0.07144-0.04498-0.0026-0.07937-0.03969-0.07937-0.08466z" fill="#224a8c" stroke="#224a8c" stroke-linejoin="bevel" stroke-width=".042332px"/>
<path d="m57.652 53.902 11.729-39.945c-1.9023-0.55825-3.8416-0.98157-5.8048-1.262z" fill="#b83327" fill-rule="evenodd"/>
<path d="m57.736 53.916-0.16404-0.03704 11.729-39.945 0.0582 0.10583-1.434-0.39422-1.4419-0.33866-1.4552-0.28839-1.4657-0.23812 0.09789-0.07144zm5.7571-41.231c0.0026-0.02381 0.01587-0.04233 0.03439-0.05556 0.01588-0.01323 0.03968-0.01852 0.0635-0.01587l1.471 0.23812 1.4604 0.28838 1.4472 0.34395 1.434 0.39422c0.02117 0.0053 0.03969 0.01852 0.05027 0.03969 0.01323 0.01852 0.01587 0.04233 0.0079 0.0635l-11.729 39.945c-0.01323 0.04498-0.05556 0.06879-0.09789 0.06085-0.04498-0.01058-0.07408-0.05027-0.06614-0.09525z" fill="#86221a" stroke="#86221a" stroke-linejoin="bevel" stroke-width=".042332px"/>
<path d="m57.652 53.902 39.945-11.726c-3.9898-13.594-14.62-24.224-28.214-28.219z" fill="#c59302" fill-rule="evenodd"/>
<path d="m57.736 53.929-0.10583-0.10583 39.945-11.726-0.0582 0.10583-0.39157-1.2647-0.4339-1.2488-0.46565-1.2223-0.50798-1.2117-0.53973-1.1853-0.57677-1.1641-0.61382-1.143-0.64027-1.1271-0.6826-1.1006-0.70905-1.0742-0.7461-1.053-0.77785-1.0318-0.80431-1.0001-0.83605-0.97892-0.8678-0.94718-0.89426-0.92072-0.92072-0.89955-0.95247-0.86251-0.97363-0.83605-1.0054-0.8096-1.0265-0.77256-1.053-0.7461-1.0795-0.70906-1.0953-0.6826-1.1271-0.64556-1.143-0.60852-1.1694-0.57677-1.1853-0.53973-1.2065-0.50798-1.2276-0.47094-1.2435-0.42861-1.2647-0.39157 0.10583-0.05821zm11.567-39.993c0.0053-0.02117 0.02117-0.04233 0.03704-0.05292 0.02116-0.01058 0.04762-0.01058 0.06879-0.0053l1.2647 0.39157 1.2541 0.43919 1.2276 0.46565 1.2117 0.50798 1.1959 0.54502 1.1694 0.57677 1.1482 0.6191 1.1271 0.64556 1.1059 0.6826 1.0795 0.71435 1.0583 0.7461 1.0318 0.77785 1.0054 0.8096 0.98422 0.84134 0.95246 0.8678 0.92601 0.89955 0.89955 0.92601 0.8678 0.95776 0.84135 0.97892 0.8096 1.0054 0.77785 1.0318 0.7461 1.0583 0.71435 1.0795 0.6826 1.1059 0.65085 1.1271 0.61382 1.1482 0.57677 1.1747 0.54502 1.1906 0.50798 1.2117 0.47094 1.2329 0.42861 1.2488 0.39686 1.2647c5e-3 0.02117 5e-3 0.04762-5e-3 0.06879-0.0106 0.01588-0.0317 0.03175-0.0529 0.03704l-39.946 11.731c-0.03175 0.0053-0.0635 0-0.08467-0.02117-0.02116-0.02117-0.03175-0.05291-0.02116-0.08466z" fill="#906b01" stroke="#906b01" stroke-linejoin="bevel" stroke-width=".042332px"/>
<path d="m57.652 53.902 35.024 22.51c6.5297-10.16 8.3235-22.653 4.9211-34.236z" fill="#27833f" fill-rule="evenodd"/>
<path d="m57.678 53.987 0.02116-0.15345 35.024 22.51-0.1217 0.02117 0.59793-0.95776 0.57149-0.96834 0.53973-0.98422 0.51327-0.9948 0.48682-1.0054 0.45506-1.016 0.4339-1.0265 0.40216-1.0371 0.3704-1.0424 0.34395-1.053 0.31748-1.0636 0.28575-1.0689 0.25399-1.0742 0.23282-1.0795 0.20108-1.0848 0.16933-1.0953 0.14286-1.09 0.11642-1.1006 0.0847-1.1006 0.0529-1.1059 0.0265-1.1006-5e-3 -1.1112-0.0318-1.1059-0.0635-1.1112-0.09-1.1059-0.127-1.1059-0.14816-1.1006-0.1852-1.1006-0.21166-1.1006-0.24341-1.0953-0.27515-1.0953-0.30162-1.0848 0.10583 0.05821zm39.898-11.89c0.0212-0.01058 0.0423-0.0053 0.0635 0.0053 0.0212 0.01058 0.037 0.03175 0.0423 0.05291l0.30162 1.09 0.27516 1.0953 0.2434 1.1006 0.21166 1.1006 0.1852 1.1059 0.15346 1.1112 0.1217 1.1112 0.0953 1.1112 0.0635 1.1112 0.0318 1.1112 5e-3 1.1112-0.0265 1.1112-0.0582 1.1112-0.0847 1.1059-0.11112 1.1006-0.14287 1.0953-0.17462 1.1006-0.20108 1.09-0.22753 1.0848-0.26457 1.0795-0.28574 1.0742-0.31749 1.0636-0.34395 1.0583-0.37569 1.0477-0.40216 1.0424-0.42861 1.0318-0.46035 1.016-0.48682 1.0107-0.51857 1.0001-0.53973 0.98422-0.57148 0.97363-0.59793 0.95776c-0.0159 0.02117-0.0318 0.03704-0.0582 0.04233-0.0212 0.0053-0.0423 0-0.0635-0.01587l-35.019-22.505c-0.02646-0.01587-0.04233-0.05291-0.03704-0.08466 0.0053-0.03175 0.02646-0.05821 0.05821-0.06879z" fill="#195f2c" stroke="#195f2c" stroke-linejoin="bevel" stroke-width=".042332px"/>
<path d="m57.652 53.902 22.51 35.024c5.0216-3.2278 9.2865-7.4927 12.514-12.514z" fill="#c85401" fill-rule="evenodd"/>
<path d="m57.609 53.976 0.11641-0.11641 22.505 35.024-0.11641-0.02646 0.93659-0.61381 0.91013-0.64556 0.89426-0.66143 0.8731-0.68789 0.85722-0.70906 0.83606-0.73022 0.81489-0.75139 0.79901-0.77785 0.77256-0.79372 0.75139-0.81489 0.73022-0.83606 0.71435-0.85722 0.6826-0.8731 0.66672-0.89955 0.63498-0.91014 0.6191-0.9313 0.0212 0.11641zm35.114 22.367c0.0159 0.01058 0.0318 0.02646 0.037 0.05291 5e-3 0.02117 0 0.04233-0.0159 0.0635l-0.61381 0.93659-0.64556 0.91542-0.66673 0.89426-0.68789 0.87839-0.70906 0.86251-0.73552 0.83605-0.75668 0.82018-0.77785 0.79902-0.79901 0.77784-0.82018 0.75668-0.83606 0.73551-0.86251 0.71435-0.87839 0.68789-0.89955 0.66672-0.91542 0.64027-0.9313 0.6191c-0.02116 0.01058-0.04233 0.01587-0.0635 0.01058-0.02646-0.0053-0.04233-0.01588-0.05291-0.03704l-22.51-35.024c-0.02117-0.03175-0.01588-0.07937 0.01058-0.10583s0.07408-0.03175 0.10583-0.01058z" fill="#933b00" stroke="#933b00" stroke-linejoin="bevel" stroke-width=".042332px"/>
<path d="m57.652 53.902-5.9265 41.21c9.9162 1.4234 20.012-0.77256 28.436-6.1857z" fill="#35949b" fill-rule="evenodd"/>
<path d="m57.583 53.95 0.15345-0.03175-5.9212 41.205-0.07408-0.09525 0.9313 0.127 0.92601 0.10054 0.9313 0.07937 0.92601 0.05821 0.9313 0.03704 0.92601 0.02116 0.92601-0.0053 0.9313-0.02116 0.92072-0.04762 0.92072-0.05821 0.92072-0.08467 0.92072-0.10583 0.91013-0.127 0.91013-0.14816 0.91013-0.16404 0.90484-0.1852 0.89426-0.20637 0.89955-0.22754 0.88897-0.24341 0.87839-0.26458 0.88368-0.28574 0.8678-0.3069 0.8678-0.32807 0.85722-0.33865 0.85193-0.36511 0.84664-0.38628 0.83606-0.39686 0.83076-0.42332 0.81489-0.4392 0.81489-0.46036 0.8043-0.47623 0.78843-0.4974-0.02116 0.11641zm22.648 34.934c0.01588 0.01588 0.02117 0.04233 0.01588 0.0635-0.0053 0.02116-0.02117 0.04233-0.04233 0.05292l-0.79372 0.4974-0.8043 0.48153-0.81489 0.46036-0.82547 0.44449-0.83076 0.41803-0.84134 0.40744-0.84664 0.38098-0.85722 0.36511-0.86251 0.34394-0.8678 0.32807-0.87838 0.30691-0.87839 0.28574-0.88897 0.26458-0.89426 0.2487-0.89426 0.22754-0.90484 0.20636-0.90484 0.1852-0.91543 0.16933-0.91013 0.14287-0.92072 0.12699-0.92072 0.10583-0.92072 0.08466-0.92601 0.0635-0.9313 0.04762-0.92601 0.02117-0.9313 0.0053-0.93659-0.02117-0.9313-0.03704-0.9313-0.05821-0.9313-0.08466-0.93659-0.10054-0.92601-0.1217c-0.02117-0.0053-0.04233-0.01588-0.05821-0.03175-0.01058-0.02117-0.01588-0.04233-0.01588-0.0635l5.9265-41.21c0.0053-0.03175 0.03175-0.0635 0.0635-0.06879 0.03704-0.01058 0.06879 0.0053 0.08996 0.03704z" fill="#246b71" stroke="#246b71" stroke-linejoin="bevel" stroke-width=".042332px"/>
<path d="m57.652 53.902-27.262 31.463c6.0323 5.228 13.44 8.6092 21.335 9.7469z" fill="#3d7ce4" fill-rule="evenodd"/>
<path d="m57.572 53.892 0.14816 0.06879-27.267 31.463-0.01058-0.1217 1.1483 0.95776 1.1747 0.91543 1.2065 0.8678 1.2329 0.82547 1.2594 0.77256 1.2858 0.73552 1.3123 0.6826 1.3335 0.64027 1.3546 0.58735 1.3758 0.54502 1.397 0.49211 1.4128 0.43919 1.4287 0.39686 1.4499 0.33866 1.4552 0.29103 1.4763 0.23812-0.10054 0.07408zm-5.7571 41.231c-0.0053 0.02116-0.01588 0.04233-0.03704 0.0582-0.01587 0.01058-0.03704 0.01588-0.0635 0.01588l-1.4763-0.23812-1.4657-0.29103-1.4499-0.34924-1.434-0.39157-1.4234-0.44448-1.397-0.4974-1.3811-0.53973-1.3652-0.59264-1.3387-0.64027-1.3123-0.68789-1.2911-0.73552-1.27-0.78314-1.2382-0.82547-1.2065-0.87309-1.18-0.91543-1.1483-0.95776c-0.02116-0.01588-0.03175-0.03704-0.03175-0.05821 0-0.02646 0.0053-0.04762 0.02117-0.0635l27.262-31.463c0.02646-0.02646 0.06879-0.03704 0.10054-0.02117 0.03704 0.01588 0.05291 0.05291 0.04763 0.08995z" fill="#2a59a8" stroke="#2a59a8" stroke-linejoin="bevel" stroke-width=".042332px"/>
<path d="m57.652 53.902-39.945 11.729c2.2489 7.6594 6.6514 14.509 12.681 19.735z" fill="#db3e31" fill-rule="evenodd"/>
<path d="m57.588 53.849 0.08731 0.13493-39.945 11.729 0.05821-0.10583 0.44713 1.4261 0.4974 1.4049 0.54238 1.3811 0.59265 1.3599 0.63762 1.3361 0.68789 1.3123 0.73022 1.2832 0.78049 1.2594 0.82018 1.2276 0.86251 1.1985 0.91013 1.1694 0.94718 1.135 0.98951 1.1033 1.0318 1.0689 1.0715 1.0345 1.1086 0.99744-0.1217 0.0079zm-27.135 31.572c-0.01587 0.01852-0.03704 0.0291-0.06085 0.0291-0.02116 0.0026-0.04498-0.0053-0.06085-0.02116l-1.1139-1.0001-1.0742-1.0371-1.0345-1.0742-0.9948-1.1086-0.95247-1.1403-0.91014-1.1747-0.8678-1.2038-0.82547-1.2329-0.78049-1.2647-0.73552-1.2885-0.68789-1.3176-0.64291-1.3414-0.59265-1.3652-0.54767-1.3864-0.4974-1.4102-0.44713-1.4261c-0.0079-0.02117-0.0053-0.04498 0.0053-0.06614 0.01058-0.01852 0.0291-0.03439 0.05027-0.03969l39.945-11.729c0.03704-0.01058 0.07672 0.0026 0.09525 0.0344 0.02116 0.03175 0.01852 0.07408-0.0053 0.10054z" fill="#a02b21" stroke="#a02b21" stroke-linejoin="bevel" stroke-width=".042332px"/>
<path d="m57.652 53.902-41.207-5.9238c-0.84928 5.9053-0.42067 11.927 1.262 17.652z" fill="#ebb003" fill-rule="evenodd"/>
<path d="m57.628 53.823 0.01323 0.16404-41.207-5.9238 0.09525-0.07143-0.14552 1.1086-0.11377 1.1086-0.08466 1.1086-0.05291 1.1112-0.02646 1.1112 0.0053 1.1086 0.03439 1.1112 0.06614 1.1112 0.0926 1.1059 0.12435 1.1006 0.15345 1.1006 0.18256 1.0953 0.21166 1.0927 0.24341 1.0874 0.26986 1.0821 0.29897 1.0742-0.10583-0.05821zm-39.898 11.89c-0.02117 0.0079-0.04498 0.0053-0.0635-0.0079-0.02117-0.01058-0.03439-0.0291-0.03969-0.05027l-0.30426-1.0795-0.26987-1.0848-0.24341-1.09-0.21166-1.098-0.18256-1.1006-0.15345-1.1059-0.12435-1.1059-0.0926-1.1112-0.06879-1.1139-0.03439-1.1139-0.0053-1.1139 0.0291-1.1165 0.05292-1.1165 0.08466-1.1139 0.11377-1.1139 0.14552-1.1086c0.0026-0.02116 0.01323-0.04233 0.03175-0.05556s0.04233-0.01852 0.0635-0.01587l41.207 5.9238c0.03969 0.0053 0.06879 0.03704 0.07144 0.07673 0.0026 0.03969-0.02117 0.07672-0.06085 0.08731z" fill="#ac8002" stroke="#ac8002" stroke-linejoin="bevel" stroke-width=".042332px"/>
<path d="m57.652 53.902-39.945-11.729c-0.55825 1.9023-0.98157 3.8416-1.262 5.8048z" fill="#309d4d" fill-rule="evenodd"/>
<path d="m57.665 53.82-0.03704 0.16404-39.945-11.729 0.10583-0.05821-0.39422 1.434-0.33866 1.4419-0.28839 1.4552-0.23812 1.4657-0.07143-0.09789zm-41.231-5.7571c-0.02381-0.0026-0.04233-0.01587-0.05556-0.03439s-0.01852-0.03969-0.01587-0.0635l0.23812-1.471 0.28839-1.4604 0.34395-1.4472 0.39422-1.434c0.0053-0.02116 0.01852-0.03969 0.03969-0.05027 0.01852-0.01323 0.04233-0.01587 0.0635-0.0079l39.945 11.729c0.04498 0.01058 0.06879 0.05556 0.06085 0.09789-0.01058 0.04498-0.05027 0.07408-0.09525 0.06614z" fill="#207236" stroke="#207236" stroke-linejoin="bevel" stroke-width=".042332px"/>
<path d="m57.652 53.902-37.871-17.295c-0.82282 1.8044-1.516 3.6644-2.0743 5.5666z" fill="#ef6601" fill-rule="evenodd"/>
<path d="m57.676 53.823-0.05821 0.15874-37.871-17.295 0.11377-0.04498-0.59265 1.3626-0.54238 1.3811-0.49211 1.3996-0.44448 1.4155-0.05821-0.10583zm-39.993-11.567c-0.02117-0.0053-0.03969-0.02116-0.05027-0.03968-0.01058-0.02116-0.01323-0.04498-0.0053-0.06614l0.44448-1.4208 0.4974-1.4049 0.54238-1.3864 0.59264-1.3626c0.01058-0.02117 0.02646-0.03704 0.04762-0.04498 0.02117-0.0079 0.04498-0.0079 0.06614 0l37.871 17.295c0.03969 0.01852 0.05821 0.06614 0.04233 0.10848-0.01323 0.03968-0.05821 0.0635-0.10318 0.05027z" fill="#af4900" stroke="#af4900" stroke-linejoin="bevel" stroke-width=".042332px"/>
<path d="m57.652 53.902-35.024-22.507c-1.0715 1.6668-2.0213 3.4104-2.8468 5.2121z" fill="#41b1b9" fill-rule="evenodd"/>
<path d="m57.689 53.826-0.08202 0.14816-35.024-22.507 0.11906-0.02646-0.78049 1.2647-0.73552 1.2885-0.68525 1.3123-0.64292 1.3387-0.03969-0.11377zm-37.943-17.139c-0.02117-0.01058-0.03704-0.02911-0.04498-0.05027-0.0079-0.02117-0.0053-0.04498 0.0053-0.0635l0.64292-1.344 0.69054-1.3176 0.73552-1.2938 0.78049-1.2647c0.01323-0.02116 0.03175-0.03439 0.05291-0.03968 0.02381-0.0053 0.04762 0 0.06614 0.01323l35.024 22.507c0.03704 0.02381 0.05027 0.07144 0.02911 0.11112-0.02117 0.03969-0.07144 0.05556-0.11112 0.03704z" fill="#2d8187" stroke="#2d8187" stroke-linejoin="bevel" stroke-width=".042332px"/>
<path d="m57.652 53.902-31.463-27.262c-1.2991 1.4975-2.487 3.0876-3.5612 4.7544z" fill="#789ef6" fill-rule="evenodd"/>
<path d="m57.699 53.834-0.10054 0.13493-31.463-27.262 0.11906-0.01058-0.95247 1.1403-0.91013 1.1721-0.8678 1.2012-0.82547 1.2329-0.02381-0.11641zm-35.117-22.367c-0.01852-0.01058-0.03175-0.03175-0.03704-0.05291-0.0053-0.02116 0-0.04498 0.01323-0.0635l0.83076-1.2382 0.8678-1.2065 0.91543-1.1774 0.95247-1.1403c0.01323-0.01852 0.03439-0.0291 0.05821-0.0291 0.02117-0.0026 0.04498 0.0053 0.06085 0.01852l31.463 27.262c0.03439 0.0291 0.03968 0.07937 0.01323 0.11641-0.02646 0.03439-0.07673 0.04233-0.11377 0.01852z" fill="#7087c0" stroke="#7087c0" stroke-linejoin="bevel" stroke-width=".042332px"/>
<path d="m57.652 53.902-22.507-35.022c-3.3416 2.1457-6.3577 4.7597-8.9558 7.76z" fill="#ed7873" fill-rule="evenodd"/>
<path d="m57.707 53.839-0.12435 0.11112-22.507-35.022 0.11641 0.02381-1.2382 0.82547-1.2038 0.8678-1.1694 0.91014-1.1377 0.94982-1.1006 0.98951-1.0662 1.0292-1.0292 1.0715-0.9948 1.1033-0.0079-0.1217zm-31.572-27.132c-0.01852-0.01587-0.0291-0.03704-0.0291-0.06085-0.0026-0.02117 0.0053-0.04498 0.02117-0.06085l0.9948-1.1086 1.0345-1.0742 1.0715-1.0318 1.1059-0.9948 1.143-0.95511 1.1747-0.91014 1.2091-0.87309 1.2382-0.82547c0.01852-0.01323 0.04233-0.01852 0.0635-0.01323 0.02117 0.0053 0.04233 0.01852 0.05291 0.03704l22.507 35.022c0.02381 0.03704 0.01587 0.08202-0.01587 0.11112-0.03175 0.02646-0.07673 0.02646-0.10848 0z" fill="#ba716e" stroke="#ba716e" stroke-linejoin="bevel" stroke-width=".042332px"/>
<path d="m57.652 53.902-17.295-37.868c-1.8018 0.82282-3.5453 1.7753-5.2121 2.8468z" fill="#fcc769" fill-rule="evenodd"/>
<path d="m57.723 53.857-0.14816 0.08202-17.295-37.868 0.11377 0.03969-1.3414 0.64027-1.3123 0.69054-1.2885 0.73287-1.262 0.78049 0.02646-0.11906zm-22.648-34.929c-0.01323-0.01852-0.01852-0.04233-0.01323-0.06614 0.0053-0.02117 0.01852-0.03969 0.03969-0.05292l1.2673-0.78049 1.2938-0.73816 1.3176-0.69054 1.3414-0.64027c0.01852-0.01058 0.04233-0.01323 0.0635-0.0053 0.02117 0.0079 0.03968 0.02381 0.05027 0.04498l17.295 37.868c0.01852 0.03969 0.0026 0.08996-0.03704 0.11112-0.03969 0.02117-0.08731 0.0079-0.11112-0.0291z" fill="#c4a169" stroke="#c4a169" stroke-linejoin="bevel" stroke-width=".042332px"/>
<path d="m57.652 53.902-11.729-39.945c-1.9023 0.55825-3.7622 1.2514-5.5666 2.0769z" fill="#72b880" fill-rule="evenodd"/>
<path d="m57.731 53.868-0.15874 0.05821-11.729-39.945 0.10583 0.05821-1.4181 0.44448-1.3996 0.49475-1.3811 0.53973-1.3599 0.59529 0.04498-0.11377zm-17.451-37.797c-0.0079-0.02117-0.0079-0.04498 0-0.06614 0.0079-0.02117 0.02381-0.03704 0.04498-0.04762l1.3652-0.59529 1.3864-0.54502 1.4049-0.49475 1.4181-0.44448c0.02116-0.0079 0.04498-0.0053 0.06614 0.0053 0.01852 0.01058 0.03439 0.0291 0.03969 0.05027l11.729 39.945c0.01323 0.04498-0.01058 0.08995-0.05027 0.10318-0.04233 0.01588-0.08996-0.0026-0.10848-0.04233z" fill="#6e9775" stroke="#6e9775" stroke-linejoin="bevel" stroke-width=".042332px"/>
<path d="m57.652 53.902-5.9265-41.207c-1.9605 0.28045-3.8998 0.70377-5.8021 1.262z" fill="#ff8e69" fill-rule="evenodd"/>
<path d="m57.734 53.878-0.16404 0.03704-5.9265-41.207 0.09789 0.07144-1.4657 0.23812-1.4552 0.28839-1.4419 0.3413-1.4313 0.39157 0.05821-0.10583zm-11.89-39.898c-0.0079-0.02117-0.0053-0.04498 0.0079-0.0635 0.01058-0.02117 0.0291-0.03439 0.05027-0.03969l1.4366-0.39686 1.4472-0.3413 1.4605-0.28838 1.4657-0.23812c0.02381-0.0026 0.04498 0.0026 0.0635 0.01587 0.01852 0.01323 0.03175 0.03175 0.03439 0.05556l5.9265 41.207c0.0079 0.04498-0.02117 0.08466-0.06614 0.09525-0.04233 0.0079-0.08731-0.01588-0.09789-0.06085z" fill="#c77d69" stroke="#c77d69" stroke-linejoin="bevel" stroke-width=".042332px"/>
<path d="m57.652 53.902v-41.631c-1.9817 0-3.9633 0.14022-5.9265 0.42332z" fill="#79c8cf" fill-rule="evenodd"/>
<path d="m57.736 53.892-0.16933 0.01058v-41.631l0.08731 0.08466-1.4869 0.02646-1.4816 0.07937-1.4763 0.13229-1.4737 0.1852 0.07408-0.09525zm-6.0931-41.184c-0.0026-0.02117 0.0026-0.04498 0.01588-0.0635 0.01323-0.01852 0.03439-0.0291 0.05556-0.03175l1.4816-0.1852 1.4816-0.13229 1.4869-0.08202 1.4869-0.02646c0.02117 0 0.04498 0.01058 0.06085 0.02646 0.01588 0.01588 0.02381 0.03704 0.02381 0.05821v41.631c0 0.04498-0.0344 0.08202-0.07673 0.08466-0.04498 0.0053-0.08466-0.02646-0.08995-0.07144z" fill="#71a1a6" stroke="#71a1a6" stroke-linejoin="bevel" stroke-width=".042332px"/>
<path d="m60.562 12.325 4.6988-7.2387c0.01588-0.02381 0.04233-0.03969 0.06879-0.03969h1.5663v0.16933h-1.5663l0.07144-0.03704-4.6988 7.2387zm-17.533 2.6193-1.2276-2.9632 0.1561-0.06614 1.2276 2.9632zm5.7174-1.688-3.4712-7.0271 0.07408 0.04498h-1.6086v-0.16933h1.6086c0.03439 0 0.0635 0.01852 0.07673 0.04762l3.4712 7.0271zm5.8312-0.88632v-7.4504h0.16932v7.4504z" stroke="#000" stroke-linejoin="bevel" stroke-width=".042332px"/>
<text x="67.36058" y="5.1305976" fill="#000000" font-family="Arial" font-size="3.5058px" font-weight="400" letter-spacing="0px" stroke-width=".26459" word-spacing="0px" style="line-height:125%" xml:space="preserve"><tspan x="67.36058" y="5.1305976" stroke-width=".26459"><tspan dx="0" dy="0" fill="#000000" font-family="Arial" font-size="3.5058px" font-weight="400" stroke-width=".26459">12; 1; 2%</tspan></tspan></text>
<text x="67.482216" y="12.098433" fill="#000000" font-family="Arial" font-size="3.5058px" font-weight="400" letter-spacing="0px" stroke-width=".26459" word-spacing="0px" style="line-height:125%" xml:space="preserve"><tspan x="67.482216" y="12.098433" stroke-width=".26459"><tspan dx="0" dy="0" fill="#000000" font-family="Arial" font-size="3.5058px" font-weight="400" stroke-width=".26459">14; 1; 2%</tspan></tspan></text>
<text x="73.452835" y="34.498306" fill="#000000" font-family="Arial" font-size="3.5058px" font-weight="400" letter-spacing="0px" stroke-width=".26459" word-spacing="0px" style="line-height:125%" xml:space="preserve"><tspan x="73.452835" y="34.498306" stroke-width=".26459"><tspan dx="0" dy="0" fill="#000000" font-family="Arial" font-size="3.5058px" font-weight="400" stroke-width=".26459">15; 7; 16%</tspan></tspan></text>
<text x="80.596329" y="58.574539" fill="#000000" font-family="Arial" font-size="3.5058px" font-weight="400" letter-spacing="0px" stroke-width=".26459" word-spacing="0px" style="line-height:125%" xml:space="preserve"><tspan x="80.596329" y="58.574539" stroke-width=".26459"><tspan dx="0" dy="0" fill="#000000" font-family="Arial" font-size="3.5058px" font-weight="400" stroke-width=".26459">16; 6; 14%</tspan></tspan></text>
<text x="74.239502" y="78.153008" fill="#000000" font-family="Arial" font-size="3.5058px" font-weight="400" letter-spacing="0px" stroke-width=".26459" word-spacing="0px" style="line-height:125%" xml:space="preserve"><tspan x="74.239502" y="78.153008" stroke-width=".26459"><tspan dx="0" dy="0" fill="#000000" font-family="Arial" font-size="3.5058px" font-weight="400" stroke-width=".26459">17; 3; 7%</tspan></tspan></text>
<text x="56.784668" y="89.794273" fill="#000000" font-family="Arial" font-size="3.5058px" font-weight="400" letter-spacing="0px" stroke-width=".26459" word-spacing="0px" style="line-height:125%" xml:space="preserve"><tspan x="56.784668" y="89.794273" stroke-width=".26459"><tspan dx="0" dy="0" fill="#000000" font-family="Arial" font-size="3.5058px" font-weight="400" stroke-width=".26459">18; 5; 11%</tspan></tspan></text>
<text x="35.347126" y="86.619377" fill="#000000" font-family="Arial" font-size="3.5058px" font-weight="400" letter-spacing="0px" stroke-width=".26459" word-spacing="0px" style="line-height:125%" xml:space="preserve"><tspan x="35.347126" y="86.619377" stroke-width=".26459"><tspan dx="0" dy="0" fill="#000000" font-family="Arial" font-size="3.5058px" font-weight="400" stroke-width=".26459">19; 4; 9%</tspan></tspan></text>
<text x="21.80213" y="73.568176" fill="#000000" font-family="Arial" font-size="3.5058px" font-weight="400" letter-spacing="0px" stroke-width=".26459" word-spacing="0px" style="line-height:125%" xml:space="preserve"><tspan x="21.80213" y="73.568176" stroke-width=".26459"><tspan dx="0" dy="0" fill="#000000" font-family="Arial" font-size="3.5058px" font-weight="400" stroke-width=".26459">20; 4; 9%</tspan></tspan></text>
<text x="16.807667" y="58.037334" fill="#000000" font-family="Arial" font-size="3.5058px" font-weight="400" letter-spacing="0px" stroke-width=".26459" word-spacing="0px" style="line-height:125%" xml:space="preserve"><tspan x="16.807667" y="58.037334" stroke-width=".26459"><tspan dx="0" dy="0" fill="#000000" font-family="Arial" font-size="3.5058px" font-weight="400" stroke-width=".26459">21; 3; 7%</tspan></tspan></text>
<text x="1.2170802" y="46.139565" fill="#000000" font-family="Arial" font-size="3.5058px" font-weight="400" letter-spacing="0px" stroke-width=".26459" word-spacing="0px" style="line-height:125%" xml:space="preserve"><tspan x="1.2170802" y="46.139565" stroke-width=".26459"><tspan dx="0" dy="0" fill="#000000" font-family="Arial" font-size="3.5058px" font-weight="400" stroke-width=".26459">22; 1; 2%</tspan></tspan></text>
<text x="2.8045235" y="39.789787" fill="#000000" font-family="Arial" font-size="3.5058px" font-weight="400" letter-spacing="0px" stroke-width=".26459" word-spacing="0px" style="line-height:125%" xml:space="preserve"><tspan x="2.8045235" y="39.789787" stroke-width=".26459"><tspan dx="0" dy="0" fill="#000000" font-family="Arial" font-size="3.5058px" font-weight="400" stroke-width=".26459">23; 1; 2%</tspan></tspan></text>
<text x="4.9211159" y="34.498306" fill="#000000" font-family="Arial" font-size="3.5058px" font-weight="400" letter-spacing="0px" stroke-width=".26459" word-spacing="0px" style="line-height:125%" xml:space="preserve"><tspan x="4.9211159" y="34.498306" stroke-width=".26459"><tspan dx="0" dy="0" fill="#000000" font-family="Arial" font-size="3.5058px" font-weight="400" stroke-width=".26459">25; 1; 2%</tspan></tspan></text>
<text x="8.6251507" y="27.883957" fill="#000000" font-family="Arial" font-size="3.5058px" font-weight="400" letter-spacing="0px" stroke-width=".26459" word-spacing="0px" style="line-height:125%" xml:space="preserve"><tspan x="8.6251507" y="27.883957" stroke-width=".26459"><tspan dx="0" dy="0" fill="#000000" font-family="Arial" font-size="3.5058px" font-weight="400" stroke-width=".26459">27; 1; 2%</tspan></tspan></text>
<text x="14.364643" y="22.616034" fill="#000000" font-family="Arial" font-size="3.5058px" font-weight="400" letter-spacing="0px" stroke-width=".26459" word-spacing="0px" style="line-height:125%" xml:space="preserve"><tspan x="14.364643" y="22.616034" stroke-width=".26459"><tspan dx="0" dy="0" fill="#000000" font-family="Arial" font-size="3.5058px" font-weight="400" stroke-width=".26459">28; 2; 5%</tspan></tspan></text>
<text x="21.50753" y="17.100647" fill="#000000" font-family="Arial" font-size="3.5058px" font-weight="400" letter-spacing="0px" stroke-width=".26459" word-spacing="0px" style="line-height:125%" xml:space="preserve"><tspan x="21.50753" y="17.100647" stroke-width=".26459"><tspan dx="0" dy="0" fill="#000000" font-family="Arial" font-size="3.5058px" font-weight="400" stroke-width=".26459">34; 1; 2%</tspan></tspan></text>
<text x="26.463743" y="11.97016" fill="#000000" font-family="Arial" font-size="3.5058px" font-weight="400" letter-spacing="0px" stroke-width=".26459" word-spacing="0px" style="line-height:125%" xml:space="preserve"><tspan x="26.463743" y="11.97016" stroke-width=".26459"><tspan dx="0" dy="0" fill="#000000" font-family="Arial" font-size="3.5058px" font-weight="400" stroke-width=".26459">36; 1; 2%</tspan></tspan></text>
<text x="28.203627" y="6.1888919" fill="#000000" font-family="Arial" font-size="3.5058px" font-weight="400" letter-spacing="0px" stroke-width=".26459" word-spacing="0px" style="line-height:125%" xml:space="preserve"><tspan x="28.203627" y="6.1888919" stroke-width=".26459"><tspan dx="0" dy="0" fill="#000000" font-family="Arial" font-size="3.5058px" font-weight="400" stroke-width=".26459">38; 1; 2%</tspan></tspan></text>
<text x="44.87532" y="4.3368754" fill="#000000" font-family="Arial" font-size="3.5058px" font-weight="400" letter-spacing="0px" stroke-width=".26459" word-spacing="0px" style="line-height:125%" xml:space="preserve"><tspan x="44.87532" y="4.3368754" stroke-width=".26459"><tspan dx="0" dy="0" fill="#000000" font-family="Arial" font-size="3.5058px" font-weight="400" stroke-width=".26459">Ü30; 1; 2%</tspan></tspan></text>
</svg>
