<?xml version="1.0" encoding="UTF-8"?>
<svg width="556.5" height="392.21" version="1.1" viewBox="0 0 147.24 103.77" xmlns="http://www.w3.org/2000/svg" xmlns:cc="http://creativecommons.org/ns#" xmlns:dc="http://purl.org/dc/elements/1.1/" xmlns:rdf="http://www.w3.org/1999/02/22-rdf-syntax-ns#">
<defs>
<clipPath id="a">
<path d="m307.82 0.47998h234.07v362.54h-234.07z"/>
</clipPath>
</defs>
<metadata>
<rdf:RDF>
<cc:Work rdf:about="">
<dc:format>image/svg+xml</dc:format>
<dc:type rdf:resource="http://purl.org/dc/dcmitype/StillImage"/>
<dc:title/>
</cc:Work>
</rdf:RDF>
</metadata>
<path d="m82.445 1.429v95.668h61.676v-95.668z" fill="#e7e7e7" fill-rule="evenodd"/>
<path d="m103.1 1.429v95.668h-0.16932v-95.668zm20.531 0v95.668h-0.16932v-95.668zm20.573 0v95.668h-0.16932v-95.668z" fill="#898989" stroke="#898989" stroke-linejoin="bevel" stroke-width=".042331px"/>
<path transform="matrix(.26458 0 0 .26458 1.021 1.281)" d="m307.74 0.55997v30.078h186.39v-30.078z" clip-path="url(#a)" fill="#356dca" fill-rule="evenodd"/>
<path transform="matrix(.26458 0 0 .26458 1.021 1.281)" d="m307.42 0.55997c0-0.15999 0.15999-0.31998 0.31999-0.31998h186.39c0.18 0 0.31999 0.15999 0.31999 0.31998v30.078c0 0.17999-0.13999 0.31998-0.31999 0.31998h-186.39c-0.16 0-0.31999-0.13999-0.31999-0.31998zm0.63997 30.078-0.31998-0.31998h186.39l-0.31998 0.31998v-30.078l0.31998 0.31998h-186.39l0.31998-0.31998z" clip-path="url(#a)" fill="#244e94" stroke="#244e94" stroke-linejoin="bevel" stroke-width=".15999px"/>
<path transform="matrix(.26458 0 0 .26458 1.021 1.281)" d="m307.74 30.638v30.078h54.397v-30.078z" clip-path="url(#a)" fill="#c1362a" fill-rule="evenodd"/>
<path transform="matrix(.26458 0 0 .26458 1.021 1.281)" d="m307.42 30.638c0-0.15999 0.15999-0.31998 0.31999-0.31998h54.397c0.17999 0 0.31998 0.15999 0.31998 0.31998v30.078c0 0.17999-0.13999 0.31998-0.31998 0.31998h-54.397c-0.16 0-0.31999-0.13999-0.31999-0.31998zm0.63997 30.078-0.31998-0.31998h54.397l-0.31998 0.31998v-30.078l0.31998 0.31998h-54.397l0.31998-0.31998z" clip-path="url(#a)" fill="#8d251c" stroke="#8d251c" stroke-linejoin="bevel" stroke-width=".15999px"/>
<path transform="matrix(.26458 0 0 .26458 1.021 1.281)" d="m307.74 60.717v30.238h23.359v-30.238z" clip-path="url(#a)" fill="#cf9b03" fill-rule="evenodd"/>
<path transform="matrix(.26458 0 0 .26458 1.021 1.281)" d="m307.42 60.717c0-0.15999 0.15999-0.31998 0.31999-0.31998h23.359c0.17999 0 0.31999 0.15999 0.31999 0.31998v30.238c0 0.17999-0.14 0.31998-0.31999 0.31998h-23.359c-0.16 0-0.31999-0.13999-0.31999-0.31998zm0.63997 30.238-0.31998-0.31998h23.359l-0.31998 0.31998v-30.238l0.31998 0.31998h-23.359l0.31998-0.31998z" clip-path="url(#a)" fill="#987001" stroke="#987001" stroke-linejoin="bevel" stroke-width=".15999px"/>
<path transform="matrix(.26458 0 0 .26458 1.021 1.281)" d="m307.74 90.955v30.078h15.519v-30.078z" clip-path="url(#a)" fill="#298a43" fill-rule="evenodd"/>
<path transform="matrix(.26458 0 0 .26458 1.021 1.281)" d="m307.42 90.955c0-0.15999 0.15999-0.31998 0.31999-0.31998h15.519c0.17999 0 0.31998 0.15999 0.31998 0.31998v30.078c0 0.17999-0.13999 0.31999-0.31998 0.31999h-15.519c-0.16 0-0.31999-0.14-0.31999-0.31999zm0.63997 30.078-0.31998-0.31998h15.519l-0.31998 0.31998v-30.078l0.31998 0.31998h-15.519l0.31998-0.31998z" clip-path="url(#a)" fill="#1b642f" stroke="#1b642f" stroke-linejoin="bevel" stroke-width=".15999px"/>
<path transform="matrix(.26458 0 0 .26458 1.021 1.281)" d="m307.74 121.03v30.078h7.8396v-30.078z" clip-path="url(#a)" fill="#d35901" fill-rule="evenodd"/>
<path transform="matrix(.26458 0 0 .26458 1.021 1.281)" d="m307.42 121.03c0-0.15999 0.15999-0.31998 0.31999-0.31998h7.8396c0.17999 0 0.31998 0.15999 0.31998 0.31998v30.078c0 0.17999-0.13999 0.31998-0.31998 0.31998h-7.8396c-0.16 0-0.31999-0.13999-0.31999-0.31998zm0.63997 30.078-0.31998-0.31998h7.8396l-0.31998 0.31998v-30.078l0.31998 0.31999h-7.8396l0.31998-0.31999z" clip-path="url(#a)" fill="#9a3f00" stroke="#9a3f00" stroke-linejoin="bevel" stroke-width=".15999px"/>
<path transform="matrix(.26458 0 0 .26458 1.021 1.281)" d="m307.74 151.11v30.238h15.519v-30.238z" clip-path="url(#a)" fill="#389ca3" fill-rule="evenodd"/>
<path transform="matrix(.26458 0 0 .26458 1.021 1.281)" d="m307.42 151.11c0-0.15999 0.15999-0.31998 0.31999-0.31998h15.519c0.17999 0 0.31998 0.15999 0.31998 0.31998v30.238c0 0.17999-0.13999 0.31998-0.31998 0.31998h-15.519c-0.16 0-0.31999-0.13999-0.31999-0.31998zm0.63997 30.238-0.31998-0.31998h15.519l-0.31998 0.31998v-30.238l0.31998 0.31998h-15.519l0.31998-0.31998z" clip-path="url(#a)" fill="#277177" stroke="#277177" stroke-linejoin="bevel" stroke-width=".15999px"/>
<path transform="matrix(.26458 0 0 .26458 1.021 1.281)" d="m307.74 181.35v30.078h19.519v-30.078z" clip-path="url(#a)" fill="#4285f4" fill-rule="evenodd"/>
<path transform="matrix(.26458 0 0 .26458 1.021 1.281)" d="m307.42 181.35c0-0.15999 0.15999-0.31998 0.31999-0.31998h19.519c0.17999 0 0.31999 0.15999 0.31999 0.31998v30.078c0 0.17999-0.14 0.31998-0.31999 0.31998h-19.519c-0.16 0-0.31999-0.13999-0.31999-0.31998zm0.63997 30.078-0.31998-0.31998h19.519l-0.31998 0.31998v-30.078l0.31998 0.31998h-19.519l0.31998-0.31998z" clip-path="url(#a)" fill="#2e60b3" stroke="#2e60b3" stroke-linejoin="bevel" stroke-width=".15999px"/>
<path transform="matrix(.26458 0 0 .26458 1.021 1.281)" d="m307.74 211.43v30.238h19.519v-30.238z" clip-path="url(#a)" fill="#ea4335" fill-rule="evenodd"/>
<path transform="matrix(.26458 0 0 .26458 1.021 1.281)" d="m307.42 211.43c0-0.15999 0.15999-0.31998 0.31999-0.31998h19.519c0.17999 0 0.31999 0.15999 0.31999 0.31998v30.238c0 0.17999-0.14 0.31998-0.31999 0.31998h-19.519c-0.16 0-0.31999-0.13999-0.31999-0.31998zm0.63997 30.238-0.31998-0.31999h19.519l-0.31998 0.31999v-30.238l0.31998 0.31998h-19.519l0.31998-0.31998z" clip-path="url(#a)" fill="#ac2f24" stroke="#ac2f24" stroke-linejoin="bevel" stroke-width=".15999px"/>
<path transform="matrix(.26458 0 0 .26458 1.021 1.281)" d="m307.74 241.67v30.078h15.519v-30.078z" clip-path="url(#a)" fill="#fbbc04" fill-rule="evenodd"/>
<path transform="matrix(.26458 0 0 .26458 1.021 1.281)" d="m307.42 241.67c0-0.15999 0.15999-0.31999 0.31999-0.31999h15.519c0.17999 0 0.31998 0.16 0.31998 0.31999v30.078c0 0.17999-0.13999 0.31998-0.31998 0.31998h-15.519c-0.16 0-0.31999-0.13999-0.31999-0.31998zm0.63997 30.078-0.31998-0.31999h15.519l-0.31998 0.31999v-30.078l0.31998 0.31998h-15.519l0.31998-0.31998z" clip-path="url(#a)" fill="#b98902" stroke="#b98902" stroke-linejoin="bevel" stroke-width=".15999px"/>
<path transform="matrix(.26458 0 0 .26458 1.021 1.281)" d="m307.74 271.75v30.078h3.8398v-30.078z" clip-path="url(#a)" fill="#34a853" fill-rule="evenodd"/>
<path transform="matrix(.26458 0 0 .26458 1.021 1.281)" d="m307.42 271.75c0-0.16 0.15999-0.31999 0.31999-0.31999h3.8398c0.17999 0 0.31998 0.15999 0.31998 0.31999v30.078c0 0.17999-0.13999 0.31999-0.31998 0.31999h-3.8398c-0.16 0-0.31999-0.14-0.31999-0.31999zm0.63997 30.078-0.31998-0.31998h3.8398l-0.31999 0.31998v-30.078l0.31999 0.31998h-3.8398l0.31998-0.31998z" clip-path="url(#a)" fill="#237a3b" stroke="#237a3b" stroke-linejoin="bevel" stroke-width=".15999px"/>
<path transform="matrix(.26458 0 0 .26458 1.021 1.281)" d="m307.74 301.82v30.238h3.8398v-30.238z" clip-path="url(#a)" fill="#ff6d01" fill-rule="evenodd"/>
<path transform="matrix(.26458 0 0 .26458 1.021 1.281)" d="m307.42 301.82c0-0.15999 0.15999-0.31998 0.31999-0.31998h3.8398c0.17999 0 0.31998 0.15999 0.31998 0.31998v30.238c0 0.17999-0.13999 0.31999-0.31998 0.31999h-3.8398c-0.16 0-0.31999-0.14-0.31999-0.31999zm0.63997 30.238-0.31998-0.31998h3.8398l-0.31999 0.31998v-30.238l0.31999 0.31999h-3.8398l0.31998-0.31999z" clip-path="url(#a)" fill="#bc4e00" stroke="#bc4e00" stroke-linejoin="bevel" stroke-width=".15999px"/>
<path transform="matrix(.26458 0 0 .26458 1.021 1.281)" d="m307.74 332.06v30.078h23.359v-30.078z" clip-path="url(#a)" fill="#46bdc6" fill-rule="evenodd"/>
<path transform="matrix(.26458 0 0 .26458 1.021 1.281)" d="m307.42 332.06c0-0.15999 0.15999-0.31998 0.31999-0.31998h23.359c0.17999 0 0.31999 0.15999 0.31999 0.31998v30.078c0 0.17999-0.14 0.31998-0.31999 0.31998h-23.359c-0.16 0-0.31999-0.13999-0.31999-0.31998zm0.63997 30.078-0.31998-0.31998h23.359l-0.31998 0.31998v-30.078l0.31998 0.31999h-23.359l0.31998-0.31999z" clip-path="url(#a)" fill="#318a91" stroke="#318a91" stroke-linejoin="bevel" stroke-width=".15999px"/>
<path d="m82.445 97.008h61.676v0.16932h-61.676z" fill="#898989" stroke="#898989" stroke-linejoin="bevel" stroke-width=".042331px"/>
<path d="m82.53 97.098v1.0583h-0.16932v-1.0583zm20.573 0v1.0583h-0.16932v-1.0583zm20.531 0v1.0583h-0.16932v-1.0583zm20.573 0v1.0583h-0.16932v-1.0583z" fill="#898989" stroke="#898989" stroke-linejoin="bevel" stroke-width=".042331px"/>
<path d="m82.53 1.429v95.668h-0.16932v-95.668z" fill="#898989" stroke="#898989" stroke-linejoin="bevel" stroke-width=".042331px"/>
<path d="m81.387 1.344h1.0583v0.16932h-1.0583zm0 7.9583h1.0583v0.16932h-1.0583zm0 7.9583h1.0583v0.16932h-1.0583zm0 8.0006h1.0583v0.16932h-1.0583zm0 7.9583h1.0583v0.16932h-1.0583zm0 7.9583h1.0583v0.16932h-1.0583zm0 8.0006h1.0583v0.16932h-1.0583zm0 7.9583h1.0583v0.16932h-1.0583zm0 8.0006h1.0583v0.16933h-1.0583zm0 7.9583h1.0583v0.16932h-1.0583zm0 7.9582h1.0583v0.16933h-1.0583zm0 8.0006h1.0583v0.16932h-1.0583zm0 7.9582h1.0583v0.16932h-1.0583z" fill="#898989" stroke="#898989" stroke-linejoin="bevel" stroke-width=".042331px"/>
<text x="125.78578" y="6.6784096" fill="#000000" font-family="Arial" font-size="3.5057px" font-weight="400" letter-spacing="0px" stroke-width=".26458" word-spacing="0px" style="line-height:125%" xml:space="preserve"><tspan x="125.78578" y="6.6784096" stroke-width=".26458"><tspan dx="0" dy="0" fill="#000000" font-family="Arial" font-size="3.5057px" font-weight="400" stroke-width=".26458">48</tspan></tspan></text>
<text x="90.850952" y="14.652081" fill="#000000" font-family="Arial" font-size="3.5057px" font-weight="400" letter-spacing="0px" stroke-width=".26458" word-spacing="0px" style="line-height:125%" xml:space="preserve"><tspan x="90.850952" y="14.652081" stroke-width=".26458"><tspan dx="0" dy="0" fill="#000000" font-family="Arial" font-size="3.5057px" font-weight="400" stroke-width=".26458">14</tspan></tspan></text>
<text x="84.614754" y="22.625748" fill="#000000" font-family="Arial" font-size="3.5057px" font-weight="400" letter-spacing="0px" stroke-width=".26458" word-spacing="0px" style="line-height:125%" xml:space="preserve"><tspan x="84.614754" y="22.625748" stroke-width=".26458"><tspan dx="0" dy="0" fill="#000000" font-family="Arial" font-size="3.5057px" font-weight="400" stroke-width=".26458">6</tspan></tspan></text>
<text x="84.614754" y="30.599419" fill="#000000" font-family="Arial" font-size="3.5057px" font-weight="400" letter-spacing="0px" stroke-width=".26458" word-spacing="0px" style="line-height:125%" xml:space="preserve"><tspan x="84.614754" y="30.599419" stroke-width=".26458"><tspan dx="0" dy="0" fill="#000000" font-family="Arial" font-size="3.5057px" font-weight="400" stroke-width=".26458">4</tspan></tspan></text>
<text x="84.992729" y="38.57309" fill="#000000" font-family="Arial" font-size="3.5057px" font-weight="400" letter-spacing="0px" stroke-width=".26458" word-spacing="0px" style="line-height:125%" xml:space="preserve"><tspan x="84.992729" y="38.57309" stroke-width=".26458"><tspan dx="0" dy="0" fill="#000000" font-family="Arial" font-size="3.5057px" font-weight="400" stroke-width=".26458">2</tspan></tspan></text>
<text x="84.614754" y="46.546761" fill="#000000" font-family="Arial" font-size="3.5057px" font-weight="400" letter-spacing="0px" stroke-width=".26458" word-spacing="0px" style="line-height:125%" xml:space="preserve"><tspan x="84.614754" y="46.546761" stroke-width=".26458"><tspan dx="0" dy="0" fill="#000000" font-family="Arial" font-size="3.5057px" font-weight="400" stroke-width=".26458">4</tspan></tspan></text>
<text x="84.614754" y="54.520401" fill="#000000" font-family="Arial" font-size="3.5057px" font-weight="400" letter-spacing="0px" stroke-width=".26458" word-spacing="0px" style="line-height:125%" xml:space="preserve"><tspan x="84.614754" y="54.520401" stroke-width=".26458"><tspan dx="0" dy="0" fill="#000000" font-family="Arial" font-size="3.5057px" font-weight="400" stroke-width=".26458">5</tspan></tspan></text>
<text x="84.614754" y="62.494072" fill="#000000" font-family="Arial" font-size="3.5057px" font-weight="400" letter-spacing="0px" stroke-width=".26458" word-spacing="0px" style="line-height:125%" xml:space="preserve"><tspan x="84.614754" y="62.494072" stroke-width=".26458"><tspan dx="0" dy="0" fill="#000000" font-family="Arial" font-size="3.5057px" font-weight="400" stroke-width=".26458">5</tspan></tspan></text>
<text x="84.614754" y="70.467743" fill="#000000" font-family="Arial" font-size="3.5057px" font-weight="400" letter-spacing="0px" stroke-width=".26458" word-spacing="0px" style="line-height:125%" xml:space="preserve"><tspan x="84.614754" y="70.467743" stroke-width=".26458"><tspan dx="0" dy="0" fill="#000000" font-family="Arial" font-size="3.5057px" font-weight="400" stroke-width=".26458">4</tspan></tspan></text>
<text x="84.614754" y="78.441414" fill="#000000" font-family="Arial" font-size="3.5057px" font-weight="400" letter-spacing="0px" stroke-width=".26458" word-spacing="0px" style="line-height:125%" xml:space="preserve"><tspan x="84.614754" y="78.441414" stroke-width=".26458"><tspan dx="0" dy="0" fill="#000000" font-family="Arial" font-size="3.5057px" font-weight="400" stroke-width=".26458">1</tspan></tspan></text>
<text x="84.614754" y="86.415077" fill="#000000" font-family="Arial" font-size="3.5057px" font-weight="400" letter-spacing="0px" stroke-width=".26458" word-spacing="0px" style="line-height:125%" xml:space="preserve"><tspan x="84.614754" y="86.415077" stroke-width=".26458"><tspan dx="0" dy="0" fill="#000000" font-family="Arial" font-size="3.5057px" font-weight="400" stroke-width=".26458">1</tspan></tspan></text>
<text x="84.614754" y="94.388748" fill="#000000" font-family="Arial" font-size="3.5057px" font-weight="400" letter-spacing="0px" stroke-width=".26458" word-spacing="0px" style="line-height:125%" xml:space="preserve"><tspan x="84.614754" y="94.388748" stroke-width=".26458"><tspan dx="0" dy="0" fill="#000000" font-family="Arial" font-size="3.5057px" font-weight="400" stroke-width=".26458">6</tspan></tspan></text>
<text x="81.515755" y="102.40646" fill="#000000" font-family="Arial" font-size="3.5057px" font-weight="400" letter-spacing="0px" stroke-width=".26458" word-spacing="0px" style="line-height:125%" xml:space="preserve"><tspan x="81.515755" y="102.40646" stroke-width=".26458"><tspan dx="0" dy="0" fill="#000000" font-family="Arial" font-size="3.5057px" font-weight="400" stroke-width=".26458">0</tspan></tspan></text>
<text x="101.08498" y="102.40646" fill="#000000" font-family="Arial" font-size="3.5057px" font-weight="400" letter-spacing="0px" stroke-width=".26458" word-spacing="0px" style="line-height:125%" xml:space="preserve"><tspan x="101.08498" y="102.40646" stroke-width=".26458"><tspan dx="0" dy="0" fill="#000000" font-family="Arial" font-size="3.5057px" font-weight="400" stroke-width=".26458">20</tspan></tspan></text>
<text x="121.6349" y="102.40646" fill="#000000" font-family="Arial" font-size="3.5057px" font-weight="400" letter-spacing="0px" stroke-width=".26458" word-spacing="0px" style="line-height:125%" xml:space="preserve"><tspan x="121.6349" y="102.40646" stroke-width=".26458"><tspan dx="0" dy="0" fill="#000000" font-family="Arial" font-size="3.5057px" font-weight="400" stroke-width=".26458">40</tspan></tspan></text>
<text x="142.18481" y="102.40646" fill="#000000" font-family="Arial" font-size="3.5057px" font-weight="400" letter-spacing="0px" stroke-width=".26458" word-spacing="0px" style="line-height:125%" xml:space="preserve"><tspan x="142.18481" y="102.40646" stroke-width=".26458"><tspan dx="0" dy="0" fill="#000000" font-family="Arial" font-size="3.5057px" font-weight="400" stroke-width=".26458">60</tspan></tspan></text>
<text x="60.249363" y="6.5055466" fill="#000000" font-family="Arial" font-size="3.5057px" font-weight="400" letter-spacing="0px" stroke-width=".26458" word-spacing="0px" style="line-height:125%" xml:space="preserve"><tspan x="60.249363" y="6.5055466" stroke-width=".26458"><tspan dx="0" dy="0" fill="#000000" font-family="Arial" font-size="3.5057px" font-weight="400" stroke-width=".26458">Artikel lesen</tspan></tspan></text>
<text x="54.171314" y="14.479214" fill="#000000" font-family="Arial" font-size="3.5057px" font-weight="400" letter-spacing="0px" stroke-width=".26458" word-spacing="0px" style="line-height:125%" xml:space="preserve"><tspan x="54.171314" y="14.479214" stroke-width=".26458"><tspan dx="0" dy="0" fill="#000000" font-family="Arial" font-size="3.5057px" font-weight="400" stroke-width=".26458">Artikel bewerten</tspan></tspan></text>
<text x="46.333004" y="22.452881" fill="#000000" font-family="Arial" font-size="3.5057px" font-weight="400" letter-spacing="0px" stroke-width=".26458" word-spacing="0px" style="line-height:125%" xml:space="preserve"><tspan x="46.333004" y="22.452881" stroke-width=".26458"><tspan dx="0" dy="0" fill="#000000" font-family="Arial" font-size="3.5057px" font-weight="400" stroke-width=".26458">Artikel kommentieren</tspan></tspan></text>
<text x="53.388191" y="30.426552" fill="#000000" font-family="Arial" font-size="3.5057px" font-weight="400" letter-spacing="0px" stroke-width=".26458" word-spacing="0px" style="line-height:125%" xml:space="preserve"><tspan x="53.388191" y="30.426552" stroke-width=".26458"><tspan dx="0" dy="0" fill="#000000" font-family="Arial" font-size="3.5057px" font-weight="400" stroke-width=".26458">Artikel schreiben</tspan></tspan></text>
<text x="53.183594" y="38.400223" fill="#000000" font-family="Arial" font-size="3.5057px" font-weight="400" letter-spacing="0px" stroke-width=".26458" word-spacing="0px" style="line-height:125%" xml:space="preserve"><tspan x="53.183594" y="38.400223" stroke-width=".26458"><tspan dx="0" dy="0" fill="#000000" font-family="Arial" font-size="3.5057px" font-weight="400" stroke-width=".26458">Feedback geben</tspan></tspan></text>
<text x="28.874937" y="46.373894" fill="#000000" font-family="Arial" font-size="3.5057px" font-weight="400" letter-spacing="0px" stroke-width=".26458" word-spacing="0px" style="line-height:125%" xml:space="preserve"><tspan x="28.874937" y="46.373894" stroke-width=".26458"><tspan dx="0" dy="0" fill="#000000" font-family="Arial" font-size="3.5057px" font-weight="400" stroke-width=".26458">Aus dem Englischen 체bersetzen</tspan></tspan></text>
<text x="29.2665" y="54.347565" fill="#000000" font-family="Arial" font-size="3.5057px" font-weight="400" letter-spacing="0px" stroke-width=".26458" word-spacing="0px" style="line-height:125%" xml:space="preserve"><tspan x="29.2665" y="54.347565" stroke-width=".26458"><tspan dx="0" dy="0" fill="#000000" font-family="Arial" font-size="3.5057px" font-weight="400" stroke-width=".26458">Aus dem Deutschen 체bersetzen</tspan></tspan></text>
<text x="24.948729" y="62.321236" fill="#000000" font-family="Arial" font-size="3.5057px" font-weight="400" letter-spacing="0px" stroke-width=".26458" word-spacing="0px" style="line-height:125%" xml:space="preserve"><tspan x="24.948729" y="62.321236" stroke-width=".26458"><tspan dx="0" dy="0" fill="#000000" font-family="Arial" font-size="3.5057px" font-weight="400" stroke-width=".26458">Aus anderen Sprachen 체bersetzen</tspan></tspan></text>
<g stroke-width=".26458" aria-label="Fanart und andere Kunst mit SCP-Bezug erstellen">
<path d="m1.3227 70.295v-2.5095h1.6929v0.29614h-1.3609v0.77714h1.1777v0.29614h-1.1777v1.14z"/>
<path d="m4.5956 70.071q-0.17118 0.1455-0.33037 0.20541-0.15748 0.05991-0.33893 0.05991-0.29956 0-0.46047-0.1455-0.16091-0.14721-0.16091-0.37488 0-0.13352 0.059912-0.24307 0.061624-0.11126 0.15919-0.17802 0.099283-0.06676 0.22253-0.10099 0.090724-0.02397 0.27388-0.04622 0.37317-0.04451 0.54948-0.10613 0.00171-0.06334 0.00171-0.08045 0-0.1883-0.0873-0.26532-0.11811-0.10442-0.35091-0.10442-0.21739 0-0.32181 0.07703-0.10271 0.07532-0.15235 0.26875l-0.30127-0.04108q0.041082-0.19343 0.13523-0.31154 0.094147-0.11982 0.27217-0.18316 0.17802-0.06505 0.41254-0.06505 0.2328 0 0.3783 0.05478 0.1455 0.05478 0.21397 0.13865 0.068471 0.08216 0.095859 0.20884 0.015406 0.07874 0.015406 0.28415v0.41082q0 0.42965 0.018829 0.54434 0.020541 0.11298 0.078741 0.2174h-0.32181q-0.04793-0.095864-0.061624-0.22425zm-0.025676-0.68813q-0.16775 0.06847-0.50326 0.1164-0.19001 0.02739-0.26875 0.06162-0.078741 0.03423-0.12154 0.10099-0.042794 0.06505-0.042794 0.1455 0 0.12325 0.092435 0.20541 0.094147 0.08217 0.27388 0.08217 0.17802 0 0.31668-0.07703 0.13865-0.07874 0.2037-0.21397 0.049641-0.10442 0.049641-0.30812z"/>
<path d="m5.3608 70.295v-1.8179h0.27731v0.25848q0.20028-0.29956 0.57858-0.29956 0.16433 0 0.30127 0.05991 0.13865 0.0582 0.20712 0.15406 0.068471 0.09586 0.095859 0.22766 0.017118 0.08559 0.017118 0.29956v1.1178h-0.30812v-1.1058q0-0.18829-0.035947-0.28073-0.035947-0.09415-0.12838-0.14892-0.090724-0.05649-0.21397-0.05649-0.19685 0-0.34064 0.12496-0.14208 0.12496-0.14208 0.47416v0.99282z"/>
<path d="m8.4985 70.071q-0.17118 0.1455-0.33037 0.20541-0.15748 0.05991-0.33893 0.05991-0.29956 0-0.46047-0.1455-0.16091-0.14721-0.16091-0.37488 0-0.13352 0.059912-0.24307 0.061624-0.11126 0.15919-0.17802 0.099283-0.06676 0.22253-0.10099 0.090724-0.02397 0.27388-0.04622 0.37317-0.04451 0.54948-0.10613 0.00171-0.06334 0.00171-0.08045 0-0.1883-0.0873-0.26532-0.11811-0.10442-0.35091-0.10442-0.21739 0-0.32181 0.07703-0.10271 0.07532-0.15235 0.26875l-0.30127-0.041084q0.041082-0.19343 0.13523-0.31154 0.094147-0.11982 0.27217-0.18316 0.17802-0.06505 0.41254-0.06505 0.2328 0 0.3783 0.05478 0.1455 0.05478 0.21397 0.13865 0.068471 0.08216 0.095859 0.20884 0.015406 0.07874 0.015406 0.28415v0.41082q0 0.42965 0.018829 0.54434 0.020541 0.11298 0.078741 0.2174h-0.32181q-0.04793-0.09586-0.061624-0.22424zm-0.025677-0.68813q-0.16775 0.06847-0.50326 0.1164-0.19001 0.02739-0.26875 0.06162-0.078741 0.03423-0.12154 0.10099-0.042794 0.06505-0.042794 0.1455 0 0.12325 0.092435 0.20541 0.094147 0.08217 0.27388 0.08217 0.17802 0 0.31668-0.07703 0.13865-0.07874 0.2037-0.21397 0.049641-0.10442 0.049641-0.30812z"/>
<path d="m9.2602 70.295v-1.8179h0.27731v0.27559q0.10613-0.19343 0.19514-0.25505 0.090724-0.06162 0.19857-0.06162 0.15577 0 0.31668 0.09928l-0.10613 0.28586q-0.11298-0.06676-0.22595-0.06676-0.10099 0-0.18145 0.06162-0.080453 0.05991-0.11469 0.16775-0.051353 0.16433-0.051353 0.35947v0.95174z"/>
<path d="m11.107 70.019 0.04451 0.27217q-0.1301 0.02739-0.2328 0.02739-0.16775 0-0.26019-0.05307-0.09244-0.05307-0.1301-0.13865-0.03766-0.0873-0.03766-0.36461v-1.0459h-0.22595v-0.23965h0.22595v-0.4502l0.30641-0.18487v0.63507h0.30983v0.23965h-0.30983v1.063q0 0.13181 0.01541 0.16946 0.01712 0.03766 0.05306 0.05991 0.03766 0.02225 0.10613 0.02225 0.05135 0 0.13523-0.01198z"/>
<path d="m13.57 70.295v-0.26704q-0.21226 0.30812-0.57687 0.30812-0.16091 0-0.30127-0.06162-0.13865-0.06162-0.20712-0.15406-0.06676-0.09415-0.09415-0.22938-0.01883-0.09072-0.01883-0.28758v-1.1263h0.30812v1.0082q0 0.24136 0.01883 0.32524 0.0291 0.12154 0.12325 0.19172 0.09415 0.06847 0.2328 0.06847 0.13865 0 0.26019-0.07018 0.12154-0.07189 0.17118-0.19343 0.05135-0.12325 0.05135-0.35605v-0.974h0.30812v1.8179z"/>
<path d="m14.33 70.295v-1.8179h0.27731v0.25848q0.20028-0.29956 0.57858-0.29956 0.16433 0 0.30127 0.05991 0.13865 0.0582 0.20712 0.15406 0.06847 0.09586 0.09586 0.22766 0.01712 0.08559 0.01712 0.29956v1.1178h-0.30812v-1.1058q0-0.18829-0.03595-0.28073-0.03595-0.09415-0.12838-0.14892-0.09072-0.05649-0.21397-0.05649-0.19685 0-0.34064 0.12496-0.14208 0.12496-0.14208 0.47416v0.99282z"/>
<path d="m17.461 70.295v-0.22938q-0.17289 0.27046-0.5084 0.27046-0.2174 0-0.40055-0.11982-0.18145-0.11982-0.28244-0.3338-0.09928-0.21568-0.09928-0.4947 0-0.27217 0.09072-0.49299 0.09072-0.22253 0.27217-0.34064 0.18145-0.11811 0.40569-0.11811 0.16433 0 0.29271 0.07018 0.12838 0.06847 0.20884 0.17974v-0.90039h0.30641v2.5095zm-0.974-0.90724q0 0.3492 0.14721 0.52209 0.14721 0.17289 0.34749 0.17289 0.20199 0 0.34235-0.16433 0.14208-0.16604 0.14208-0.50497 0-0.37317-0.14379-0.54777-0.14379-0.1746-0.35434-0.1746-0.20541 0-0.34407 0.16775-0.13694 0.16775-0.13694 0.52894z"/>
<path d="m20.392 70.071q-0.17118 0.1455-0.33037 0.20541-0.15748 0.05991-0.33893 0.05991-0.29956 0-0.46047-0.1455-0.16091-0.14721-0.16091-0.37488 0-0.13352 0.05991-0.24307 0.06162-0.11126 0.1592-0.17802 0.09928-0.06676 0.22253-0.10099 0.09072-0.02397 0.27388-0.04622 0.37316-0.04451 0.54948-0.10613 0.0017-0.06334 0.0017-0.08045 0-0.1883-0.0873-0.26532-0.11811-0.10442-0.35091-0.10442-0.2174 0-0.32181 0.07703-0.10271 0.07532-0.15235 0.26875l-0.30127-0.04108q0.04108-0.19343 0.13523-0.31154 0.09415-0.11982 0.27217-0.18316 0.17802-0.06505 0.41254-0.06505 0.2328 0 0.3783 0.05478 0.1455 0.05478 0.21397 0.13865 0.06847 0.08216 0.09586 0.20884 0.01541 0.07874 0.01541 0.28415v0.41082q0 0.42965 0.01883 0.54434 0.02054 0.11298 0.07874 0.2174h-0.32181q-0.04793-0.09586-0.06162-0.22424zm-0.02568-0.68813q-0.16775 0.06847-0.50326 0.1164-0.19001 0.02739-0.26875 0.06162-0.07874 0.03423-0.12154 0.10099-0.04279 0.06505-0.04279 0.1455 0 0.12325 0.09244 0.20541 0.09415 0.08217 0.27388 0.08217 0.17802 0 0.31668-0.07703 0.13865-0.07874 0.2037-0.21397 0.04964-0.10442 0.04964-0.30812z"/>
<path d="m21.157 70.295v-1.8179h0.27731v0.25848q0.20028-0.29956 0.57858-0.29956 0.16433 0 0.30127 0.05991 0.13865 0.0582 0.20712 0.15406 0.06847 0.09586 0.09586 0.22766 0.01712 0.08559 0.01712 0.29956v1.1178h-0.30812v-1.1058q0-0.18829-0.03595-0.28073-0.03595-0.09415-0.12838-0.14892-0.09072-0.05649-0.21397-0.05649-0.19685 0-0.34064 0.12496-0.14208 0.12496-0.14208 0.47416v0.99282z"/>
<path d="m24.288 70.295v-0.22938q-0.17289 0.27046-0.5084 0.27046-0.21739 0-0.40055-0.11982-0.18145-0.11982-0.28244-0.3338-0.09928-0.21568-0.09928-0.4947 0-0.27217 0.09072-0.49299 0.09072-0.22253 0.27217-0.34064 0.18145-0.11811 0.40569-0.11811 0.16433 0 0.29271 0.07018 0.12838 0.06847 0.20884 0.17974v-0.90039h0.30641v2.5095zm-0.974-0.90724q0 0.3492 0.14721 0.52209 0.14721 0.17289 0.34749 0.17289 0.20199 0 0.34235-0.16433 0.14208-0.16604 0.14208-0.50497 0-0.37317-0.14379-0.54777-0.14379-0.1746-0.35434-0.1746-0.20541 0-0.34406 0.16775-0.13694 0.16775-0.13694 0.52894z"/>
<path d="m26.304 69.709 0.31839 0.03937q-0.07532 0.27902-0.27902 0.43308-0.2037 0.15406-0.52038 0.15406-0.39884 0-0.63335-0.24478-0.2328-0.2465-0.2328-0.68984 0-0.45875 0.23622-0.7121t0.61281-0.25334q0.36461 0 0.5957 0.24821 0.23109 0.24821 0.23109 0.6984 0 0.02739-0.0017 0.08217h-1.3557q0.01712 0.29956 0.16946 0.45875 0.15235 0.1592 0.38001 0.1592 0.16946 0 0.28929-0.08901t0.19001-0.28415zm-1.0117-0.49812h1.0151q-0.02054-0.22938-0.1164-0.34406-0.14721-0.17802-0.38172-0.17802-0.21226 0-0.35776 0.14208-0.14379 0.14208-0.15919 0.38001z"/>
<path d="m27.008 70.295v-1.8179h0.27731v0.27559q0.10613-0.19343 0.19514-0.25505 0.09072-0.06162 0.19856-0.06162 0.15577 0 0.31668 0.09928l-0.10613 0.28586q-0.11298-0.06676-0.22595-0.06676-0.10099 0-0.18145 0.06162-0.08045 0.05991-0.11469 0.16775-0.05135 0.16433-0.05135 0.35947v0.95174z"/>
<path d="m29.427 69.709 0.31839 0.03937q-0.07532 0.27902-0.27902 0.43308-0.2037 0.15406-0.52038 0.15406-0.39884 0-0.63335-0.24478-0.2328-0.2465-0.2328-0.68984 0-0.45875 0.23622-0.7121t0.61281-0.25334q0.36461 0 0.5957 0.24821 0.23109 0.24821 0.23109 0.6984 0 0.02739-0.0017 0.08217h-1.3557q0.01712 0.29956 0.16946 0.45875 0.15235 0.1592 0.38001 0.1592 0.16946 0 0.28929-0.08901t0.19001-0.28415zm-1.0117-0.49812h1.0151q-0.02054-0.22938-0.1164-0.34406-0.14721-0.17802-0.38172-0.17802-0.21226 0-0.35776 0.14208-0.14379 0.14208-0.15919 0.38001z"/>
<path d="m31.131 70.295v-2.5095h0.33208v1.2445l1.2462-1.2445h0.4502l-1.0527 1.0168 1.099 1.4927h-0.43821l-0.89354-1.2701-0.41082 0.40055v0.86958z"/>
<path d="m34.639 70.295v-0.26704q-0.21226 0.30812-0.57686 0.30812-0.16091 0-0.30127-0.06162-0.13865-0.06162-0.20712-0.15406-0.06676-0.09415-0.09415-0.22938-0.01883-0.09072-0.01883-0.28758v-1.1263h0.30812v1.0082q0 0.24136 0.01883 0.32524 0.0291 0.12154 0.12325 0.19172 0.09415 0.06847 0.2328 0.06847 0.13865 0 0.26019-0.07018 0.12154-0.07189 0.17118-0.19343 0.05135-0.12325 0.05135-0.35605v-0.974h0.30812v1.8179z"/>
<path d="m35.399 70.295v-1.8179h0.27731v0.25848q0.20028-0.29956 0.57858-0.29956 0.16433 0 0.30127 0.05991 0.13865 0.0582 0.20712 0.15406 0.06847 0.09586 0.09586 0.22766 0.01712 0.08559 0.01712 0.29956v1.1178h-0.30812v-1.1058q0-0.18829-0.03595-0.28073-0.03595-0.09415-0.12838-0.14892-0.09072-0.05649-0.21397-0.05649-0.19685 0-0.34064 0.12496-0.14208 0.12496-0.14208 0.47416v0.99282z"/>
<path d="m37.227 69.752 0.3047-0.04793q0.02568 0.18316 0.14208 0.28073 0.11811 0.09757 0.32866 0.09757 0.21226 0 0.31496-0.08559 0.10271-0.0873 0.10271-0.2037 0-0.10442-0.09072-0.16433-0.06334-0.04108-0.31497-0.10442-0.33893-0.08559-0.47074-0.14721-0.13009-0.06334-0.19856-0.17289-0.06676-0.11126-0.06676-0.24478 0-0.12154 0.05478-0.22424 0.05649-0.10442 0.15235-0.17289 0.07189-0.05307 0.19514-0.08901 0.12496-0.03766 0.26704-0.03766 0.21397 0 0.37488 0.06162 0.16262 0.06162 0.23965 0.16775 0.07703 0.10442 0.10613 0.28073l-0.30127 0.04108q-0.02054-0.14036-0.11982-0.21911-0.09757-0.07874-0.27731-0.07874-0.21226 0-0.30298 0.07018-0.09072 0.07018-0.09072 0.16433 0 0.05991 0.03766 0.10784 0.03766 0.04964 0.11811 0.08216 0.04622 0.01712 0.27217 0.07874 0.32695 0.0873 0.45533 0.14379 0.13009 0.05478 0.2037 0.16091 0.07361 0.10613 0.07361 0.26361 0 0.15406-0.09072 0.291-0.08901 0.13523-0.25848 0.21055-0.16946 0.07361-0.38344 0.07361-0.35434 0-0.54092-0.14721-0.18487-0.14721-0.23622-0.4365z"/>
<path d="m39.776 70.019 0.04451 0.27217q-0.1301 0.02739-0.2328 0.02739-0.16775 0-0.26019-0.05307-0.09244-0.05307-0.1301-0.13865-0.03766-0.0873-0.03766-0.36461v-1.0459h-0.22595v-0.23965h0.22595v-0.4502l0.30641-0.18487v0.63507h0.30983v0.23965h-0.30983v1.063q0 0.13181 0.01541 0.16946 0.01712 0.03766 0.05306 0.05991 0.03766 0.02225 0.10613 0.02225 0.05135 0 0.13523-0.01198z"/>
<path d="m41.048 70.295v-1.8179h0.27559v0.25505q0.08559-0.13352 0.22766-0.21397 0.14208-0.08217 0.32352-0.08217 0.20199 0 0.33037 0.08388 0.13009 0.08388 0.18316 0.23451 0.21568-0.31839 0.56146-0.31839 0.27046 0 0.41596 0.15064 0.1455 0.14892 0.1455 0.46046v1.2479h-0.30641v-1.1452q0-0.18487-0.03081-0.26532-0.0291-0.08216-0.10784-0.13181-0.07874-0.04964-0.18487-0.04964-0.19172 0-0.31839 0.12838-0.12667 0.12667-0.12667 0.4074v1.0562h-0.30812v-1.1811q0-0.20541-0.07532-0.30812t-0.24649-0.10271q-0.1301 0-0.24136 0.06847-0.10955 0.06847-0.15919 0.20028-0.04964 0.13181-0.04964 0.38001v0.94318z"/>
<path d="m43.973 68.14v-0.35434h0.30812v0.35434zm0 2.1551v-1.8179h0.30812v1.8179z"/>
<path d="m45.425 70.019 0.04451 0.27217q-0.13009 0.02739-0.2328 0.02739-0.16775 0-0.26019-0.05307-0.09244-0.05307-0.1301-0.13865-0.03766-0.0873-0.03766-0.36461v-1.0459h-0.22595v-0.23965h0.22595v-0.4502l0.30641-0.18487v0.63507h0.30983v0.23965h-0.30983v1.063q0 0.13181 0.01541 0.16946 0.01712 0.03766 0.05307 0.05991 0.03766 0.02225 0.10613 0.02225 0.05135 0 0.13523-0.01198z"/>
<path d="m46.623 69.489 0.31325-0.02739q0.02225 0.1883 0.10271 0.30983 0.08216 0.11982 0.25334 0.19514 0.17118 0.07361 0.38515 0.07361 0.19001 0 0.33551-0.05649t0.21568-0.15406q0.07189-0.09928 0.07189-0.21568 0-0.11811-0.06847-0.20541-0.06847-0.08901-0.22595-0.14892-0.10099-0.03937-0.44677-0.12154-0.34578-0.08388-0.48443-0.15748-0.17974-0.09415-0.26875-0.2328-0.0873-0.14036-0.0873-0.31325 0-0.19001 0.10784-0.35434 0.10784-0.16604 0.31496-0.25163 0.20712-0.08559 0.46047-0.08559 0.27902 0 0.49128 0.09072 0.21397 0.08901 0.32866 0.26361 0.11469 0.1746 0.12325 0.39542l-0.31839 0.02396q-0.02568-0.23794-0.1746-0.35947-0.14721-0.12154-0.4365-0.12154-0.30127 0-0.43992 0.11126-0.13694 0.10955-0.13694 0.26532 0 0.13523 0.09757 0.22253 0.09586 0.0873 0.49984 0.17974 0.40569 0.09072 0.55632 0.15919 0.21911 0.101 0.32352 0.25677 0.10442 0.15406 0.10442 0.35605 0 0.20028-0.11469 0.3783-0.11469 0.17631-0.33037 0.27559-0.21397 0.09757-0.48272 0.09757-0.34064 0-0.57173-0.09928-0.22938-0.09928-0.36118-0.29785-0.13009-0.20028-0.13694-0.45191z"/>
<path d="m50.868 69.415 0.33208 0.08388q-0.10442 0.40911-0.37659 0.6248-0.27046 0.21397-0.66245 0.21397-0.40569 0-0.66074-0.16433-0.25334-0.16604-0.38686-0.47929-0.13181-0.31325-0.13181-0.67272 0-0.392 0.14892-0.683 0.15064-0.29271 0.42623-0.44335 0.27731-0.15235 0.60939-0.15235 0.37659 0 0.63335 0.19172 0.25677 0.19172 0.35776 0.53921l-0.32695 0.07703q-0.0873-0.27388-0.25334-0.39884-0.16604-0.12496-0.41767-0.12496-0.28929 0-0.48443 0.13865-0.19343 0.13865-0.27217 0.37316-0.07874 0.2328-0.07874 0.48101 0 0.3201 0.09244 0.55975 0.09415 0.23794 0.291 0.35605 0.19685 0.11811 0.42623 0.11811 0.27902 0 0.47245-0.16091 0.19343-0.16091 0.2619-0.47758z"/>
<path d="m51.611 70.295v-2.5095h0.94661q0.24992 0 0.38172 0.02396 0.18487 0.03081 0.30983 0.11811 0.12496 0.08559 0.20028 0.24136 0.07703 0.15577 0.07703 0.34235 0 0.3201-0.2037 0.54263-0.2037 0.22082-0.73606 0.22082h-0.64362v1.0202zm0.33208-1.3163h0.64876q0.32181 0 0.45704-0.11982 0.13523-0.11982 0.13523-0.33722 0-0.15748-0.08045-0.26875-0.07874-0.11298-0.20884-0.14892-0.08388-0.02225-0.30983-0.02225h-0.64191z"/>
<path d="m53.794 69.542v-0.30983h0.94661v0.30983z"/>
<path d="m55.11 70.295v-2.5095h0.94147q0.28758 0 0.46046 0.07703 0.1746 0.07532 0.27217 0.23451 0.09928 0.15748 0.09928 0.33037 0 0.16091-0.0873 0.30298-0.0873 0.14208-0.26361 0.22938 0.22766 0.06676 0.3492 0.22766 0.12325 0.16091 0.12325 0.38001 0 0.17631-0.07532 0.32866-0.07361 0.15064-0.18316 0.2328-0.10955 0.08216-0.27559 0.12496-0.16433 0.04108-0.40398 0.04108zm0.33208-1.455h0.54263q0.22082 0 0.31668-0.0291 0.12667-0.03766 0.19001-0.12496 0.06505-0.0873 0.06505-0.21911 0-0.12496-0.05991-0.21911-0.05991-0.09586-0.17118-0.13009-0.11126-0.03595-0.38172-0.03595h-0.50155zm0 1.1589h0.6248q0.16091 0 0.22595-0.01198 0.11469-0.02054 0.19172-0.06847t0.12667-0.13865q0.04964-0.09244 0.04964-0.21226 0-0.14036-0.07189-0.24307-0.07189-0.10442-0.20028-0.1455-0.12667-0.04279-0.36632-0.04279h-0.58029z"/>
<path d="m58.67 69.709 0.31839 0.03937q-0.07532 0.27902-0.27902 0.43308-0.2037 0.15406-0.52038 0.15406-0.39884 0-0.63335-0.24478-0.2328-0.2465-0.2328-0.68984 0-0.45875 0.23622-0.7121t0.61281-0.25334q0.36461 0 0.5957 0.24821 0.23109 0.24821 0.23109 0.6984 0 0.02739-0.0017 0.08217h-1.3557q0.01712 0.29956 0.16946 0.45875 0.15235 0.1592 0.38001 0.1592 0.16946 0 0.28929-0.08901 0.11982-0.08901 0.19001-0.28415zm-1.0117-0.49812h1.0151q-0.02054-0.22938-0.1164-0.34406-0.14721-0.17802-0.38172-0.17802-0.21226 0-0.35776 0.14208-0.14379 0.14208-0.15919 0.38001z"/>
<path d="m59.215 70.295v-0.24992l1.1572-1.3283q-0.19685 0.01027-0.34749 0.01027h-0.7412v-0.24992h1.4858v0.2037l-0.98427 1.1537-0.19001 0.21055q0.20712-0.01541 0.38857-0.01541h0.84048v0.26532z"/>
<path d="m62.322 70.295v-0.26704q-0.21226 0.30812-0.57686 0.30812-0.16091 0-0.30127-0.06162-0.13865-0.06162-0.20712-0.15406-0.06676-0.09415-0.09415-0.22938-0.01883-0.09072-0.01883-0.28758v-1.1263h0.30812v1.0082q0 0.24136 0.01883 0.32524 0.0291 0.12154 0.12325 0.19172 0.09415 0.06847 0.2328 0.06847 0.13865 0 0.26019-0.07018 0.12154-0.07189 0.17118-0.19343 0.05135-0.12325 0.05135-0.35605v-0.974h0.30812v1.8179z"/>
<path d="m63.025 70.446 0.29956 0.0445q0.01883 0.13865 0.10442 0.20199 0.11469 0.08559 0.31325 0.08559 0.21397 0 0.33037-0.08559 0.1164-0.08559 0.15748-0.23965 0.02397-0.09415 0.02225-0.39542-0.20199 0.23794-0.50326 0.23794-0.37488 0-0.58029-0.27046-0.20541-0.27046-0.20541-0.64876 0-0.26019 0.09415-0.4793 0.09415-0.22082 0.27217-0.34064 0.17974-0.11982 0.4211-0.11982 0.32181 0 0.53065 0.26019v-0.21911h0.28415v1.5714q0 0.42452-0.0873 0.60083-0.08559 0.17802-0.27388 0.28073-0.18658 0.10271-0.46047 0.10271-0.32524 0-0.52551-0.14721-0.20028-0.1455-0.19343-0.43992zm0.25505-1.0921q0 0.35776 0.14208 0.52209t0.35605 0.16433q0.21226 0 0.35605-0.16262 0.14379-0.16433 0.14379-0.51353 0-0.33379-0.14892-0.50326-0.14721-0.16946-0.35605-0.16946-0.20541 0-0.3492 0.16775-0.14379 0.16604-0.14379 0.4947z"/>
<path d="m67.25 69.709 0.31839 0.03937q-0.07532 0.27902-0.27902 0.43308-0.2037 0.15406-0.52038 0.15406-0.39884 0-0.63335-0.24478-0.2328-0.2465-0.2328-0.68984 0-0.45875 0.23622-0.7121 0.23622-0.25334 0.61281-0.25334 0.36461 0 0.5957 0.24821 0.23109 0.24821 0.23109 0.6984 0 0.02739-0.0017 0.08217h-1.3557q0.01712 0.29956 0.16946 0.45875 0.15235 0.1592 0.38001 0.1592 0.16946 0 0.28929-0.08901 0.11982-0.08901 0.19001-0.28415zm-1.0117-0.49812h1.0151q-0.02054-0.22938-0.1164-0.34406-0.14721-0.17802-0.38172-0.17802-0.21226 0-0.35776 0.14208-0.14379 0.14208-0.15919 0.38001z"/>
<path d="m67.953 70.295v-1.8179h0.27731v0.27559q0.10613-0.19343 0.19514-0.25505 0.09072-0.06162 0.19856-0.06162 0.15577 0 0.31668 0.09928l-0.10613 0.28586q-0.11298-0.06676-0.22595-0.06676-0.10099 0-0.18145 0.06162-0.08045 0.05991-0.11469 0.16775-0.05135 0.16433-0.05135 0.35947v0.95174z"/>
<path d="m69.004 69.752 0.3047-0.04793q0.02568 0.18316 0.14208 0.28073 0.11811 0.09757 0.32866 0.09757 0.21226 0 0.31496-0.08559 0.10271-0.0873 0.10271-0.2037 0-0.10442-0.09072-0.16433-0.06334-0.04108-0.31497-0.10442-0.33893-0.08559-0.47074-0.14721-0.13009-0.06334-0.19856-0.17289-0.06676-0.11126-0.06676-0.24478 0-0.12154 0.05478-0.22424 0.05649-0.10442 0.15235-0.17289 0.07189-0.05307 0.19514-0.08901 0.12496-0.03766 0.26704-0.03766 0.21397 0 0.37488 0.06162 0.16262 0.06162 0.23965 0.16775 0.07703 0.10442 0.10613 0.28073l-0.30127 0.04108q-0.02054-0.14036-0.11982-0.21911-0.09757-0.07874-0.27731-0.07874-0.21226 0-0.30298 0.07018-0.09072 0.07018-0.09072 0.16433 0 0.05991 0.03766 0.10784 0.03766 0.04964 0.11811 0.08216 0.04622 0.01712 0.27217 0.07874 0.32695 0.0873 0.45533 0.14379 0.13009 0.05478 0.2037 0.16091 0.07361 0.10613 0.07361 0.26361 0 0.15406-0.09072 0.291-0.08901 0.13523-0.25848 0.21055-0.16946 0.07361-0.38344 0.07361-0.35434 0-0.54092-0.14721-0.18487-0.14721-0.23622-0.4365z"/>
<path d="m71.553 70.019 0.04451 0.27217q-0.1301 0.02739-0.2328 0.02739-0.16775 0-0.26019-0.05307-0.09244-0.05307-0.1301-0.13865-0.03766-0.0873-0.03766-0.36461v-1.0459h-0.22595v-0.23965h0.22595v-0.4502l0.30641-0.18487v0.63507h0.30983v0.23965h-0.30983v1.063q0 0.13181 0.01541 0.16946 0.01712 0.03766 0.05306 0.05991 0.03766 0.02225 0.10613 0.02225 0.05135 0 0.13523-0.01198z"/>
<path d="m73.097 69.709 0.31839 0.03937q-0.07532 0.27902-0.27902 0.43308-0.2037 0.15406-0.52038 0.15406-0.39884 0-0.63335-0.24478-0.2328-0.2465-0.2328-0.68984 0-0.45875 0.23622-0.7121t0.61281-0.25334q0.36461 0 0.5957 0.24821 0.23109 0.24821 0.23109 0.6984 0 0.02739-0.0017 0.08217h-1.3557q0.01712 0.29956 0.16946 0.45875 0.15235 0.1592 0.38001 0.1592 0.16946 0 0.28929-0.08901 0.11982-0.08901 0.19001-0.28415zm-1.0117-0.49812h1.0151q-0.02054-0.22938-0.1164-0.34406-0.14721-0.17802-0.38172-0.17802-0.21226 0-0.35776 0.14208-0.14379 0.14208-0.15919 0.38001z"/>
<path d="m73.797 70.295v-2.5095h0.30812v2.5095z"/>
<path d="m74.578 70.295v-2.5095h0.30812v2.5095z"/>
<path d="m76.61 69.709 0.31839 0.03937q-0.07532 0.27902-0.27902 0.43308-0.2037 0.15406-0.52038 0.15406-0.39884 0-0.63335-0.24478-0.2328-0.2465-0.2328-0.68984 0-0.45875 0.23622-0.7121t0.61281-0.25334q0.36461 0 0.5957 0.24821 0.23109 0.24821 0.23109 0.6984 0 0.02739-0.0017 0.08217h-1.3557q0.01712 0.29956 0.16946 0.45875 0.15235 0.1592 0.38001 0.1592 0.16946 0 0.28929-0.08901 0.11982-0.08901 0.19001-0.28415zm-1.0117-0.49812h1.0151q-0.02054-0.22938-0.1164-0.34406-0.14721-0.17802-0.38172-0.17802-0.21226 0-0.35776 0.14208-0.14379 0.14208-0.1592 0.38001z"/>
<path d="m77.317 70.295v-1.8179h0.27731v0.25848q0.20028-0.29956 0.57858-0.29956 0.16433 0 0.30127 0.05991 0.13865 0.0582 0.20712 0.15406 0.06847 0.09586 0.09586 0.22766 0.01712 0.08559 0.01712 0.29956v1.1178h-0.30812v-1.1058q0-0.18829-0.03595-0.28073-0.03595-0.09415-0.12838-0.14892-0.09072-0.05649-0.21397-0.05649-0.19685 0-0.34064 0.12496-0.14208 0.12496-0.14208 0.47416v0.99282z"/>
</g>
<text x="28.285826" y="78.268562" fill="#000000" font-family="Arial" font-size="3.5057px" font-weight="400" letter-spacing="0px" stroke-width=".26458" word-spacing="0px" style="line-height:125%" xml:space="preserve"><tspan x="28.285826" y="78.268562" stroke-width=".26458"><tspan dx="0" dy="0" fill="#000000" font-family="Arial" font-size="3.5057px" font-weight="400" stroke-width=".26458">Artikel z.B. auf Youtube vorlesen</tspan></tspan></text>
<g stroke-width=".26458" aria-label="Ich bin dort Admin/Moderator oder 채hnliches">
<path d="m10.382 86.242v-2.5095h0.33208v2.5095z"/>
<path d="m12.445 85.576 0.30298 0.03937q-0.04964 0.31325-0.25505 0.49128-0.2037 0.17631-0.50155 0.17631-0.37316 0-0.60083-0.24307-0.22595-0.24478-0.22595-0.70011 0-0.29442 0.09757-0.51524t0.29614-0.33037q0.20028-0.11126 0.43479-0.11126 0.29614 0 0.48443 0.15064 0.18829 0.14892 0.24136 0.42452l-0.29956 0.04622q-0.04279-0.18316-0.15235-0.2756-0.10784-0.09244-0.2619-0.09244-0.2328 0-0.3783 0.16775-0.1455 0.16604-0.1455 0.52722 0 0.36632 0.14036 0.53236 0.14036 0.16604 0.36632 0.16604 0.18145 0 0.30298-0.11126 0.12154-0.11126 0.15406-0.34235z"/>
<path d="m13.011 86.242v-2.5095h0.30812v0.90039q0.21568-0.24992 0.54434-0.24992 0.20199 0 0.35091 0.08045 0.14892 0.07874 0.21226 0.21911 0.06505 0.14036 0.06505 0.4074v1.152h-0.30812v-1.152q0-0.23109-0.10099-0.33551-0.09928-0.10613-0.28244-0.10613-0.13694 0-0.25848 0.07189-0.11982 0.07018-0.17118 0.19172-0.05135 0.12154-0.05135 0.33551v0.99454z"/>
<path d="m16.219 86.242h-0.28586v-2.5095h0.30812v0.89526q0.19514-0.24478 0.49812-0.24478 0.16775 0 0.31668 0.06847 0.15064 0.06676 0.2465 0.19001 0.09757 0.12154 0.15235 0.29442 0.05478 0.17289 0.05478 0.36974 0 0.46731-0.23109 0.72237-0.23109 0.25505-0.55461 0.25505-0.32181 0-0.50497-0.26875zm-0.0034-0.92264q0 0.32695 0.08901 0.47245 0.1455 0.23794 0.39371 0.23794 0.20199 0 0.3492-0.1746 0.14721-0.17631 0.14721-0.5238 0-0.35605-0.14208-0.52551-0.14036-0.16946-0.34064-0.16946-0.20199 0-0.3492 0.17631-0.14721 0.1746-0.14721 0.50668z"/>
<path d="m17.888 84.087v-0.35434h0.30812v0.35434zm0 2.1551v-1.8179h0.30812v1.8179z"/>
<path d="m18.667 86.242v-1.8179h0.27731v0.25848q0.20028-0.29956 0.57858-0.29956 0.16433 0 0.30127 0.05991 0.13865 0.0582 0.20712 0.15406 0.06847 0.09586 0.09586 0.22766 0.01712 0.08559 0.01712 0.29956v1.1178h-0.30812v-1.1058q0-0.1883-0.03595-0.28073-0.03595-0.09415-0.12838-0.14892-0.09072-0.05649-0.21397-0.05649-0.19685 0-0.34064 0.12496-0.14208 0.12496-0.14208 0.47416v0.99283z"/>
<path d="m22.77 86.242v-0.22938q-0.17289 0.27046-0.5084 0.27046-0.21739 0-0.40055-0.11982-0.18145-0.11982-0.28244-0.33379-0.09928-0.21568-0.09928-0.4947 0-0.27217 0.09072-0.49299 0.09072-0.22253 0.27217-0.34064 0.18145-0.11811 0.40569-0.11811 0.16433 0 0.29271 0.07018 0.12838 0.06847 0.20884 0.17974v-0.90039h0.30641v2.5095zm-0.974-0.90724q0 0.3492 0.14721 0.52209 0.14721 0.17289 0.34749 0.17289 0.20199 0 0.34235-0.16433 0.14208-0.16604 0.14208-0.50497 0-0.37316-0.14379-0.54776-0.14379-0.1746-0.35434-0.1746-0.20541 0-0.34406 0.16775-0.13694 0.16775-0.13694 0.52894z"/>
<path d="m23.428 85.333q0-0.50497 0.28073-0.74804 0.23451-0.20199 0.57173-0.20199 0.37488 0 0.61281 0.24649 0.23794 0.24478 0.23794 0.67786 0 0.35091-0.10613 0.5529-0.10442 0.20028-0.30641 0.31154-0.20028 0.11126-0.43821 0.11126-0.38172 0-0.61795-0.24478-0.23451-0.24478-0.23451-0.70525zm0.31668 0q0 0.3492 0.15235 0.5238 0.15235 0.17289 0.38344 0.17289 0.22938 0 0.38172-0.1746 0.15235-0.1746 0.15235-0.53236 0-0.33722-0.15406-0.51011-0.15235-0.1746-0.38001-0.1746-0.23109 0-0.38344 0.17289-0.15235 0.17289-0.15235 0.52209z"/>
<path d="m25.49 86.242v-1.8179h0.27731v0.2756q0.10613-0.19343 0.19514-0.25505 0.09072-0.06162 0.19856-0.06162 0.15577 0 0.31668 0.09928l-0.10613 0.28587q-0.11298-0.06676-0.22595-0.06676-0.10099 0-0.18145 0.06162-0.08045 0.05991-0.11469 0.16775-0.05135 0.16433-0.05135 0.35947v0.95174z"/>
<path d="m27.337 85.967 0.04451 0.27217q-0.13009 0.02739-0.2328 0.02739-0.16775 0-0.26019-0.05306-0.09244-0.05306-0.1301-0.13865-0.03766-0.0873-0.03766-0.36461v-1.0459h-0.22595v-0.23965h0.22595v-0.4502l0.30641-0.18487v0.63506h0.30983v0.23965h-0.30983v1.063q0 0.13181 0.01541 0.16946 0.01712 0.03766 0.05307 0.05991 0.03766 0.02225 0.10613 0.02225 0.05135 0 0.13523-0.01198z"/>
<path d="m28.181 86.242 0.96372-2.5095h0.35776l1.0271 2.5095h-0.3783l-0.29271-0.76002h-1.0493l-0.2756 0.76002zm0.72408-1.0305h0.85075l-0.2619-0.69498q-0.11982-0.31668-0.17802-0.52038-0.04793 0.24136-0.13523 0.4793z"/>
<path d="m31.938 86.242v-0.22938q-0.17289 0.27046-0.5084 0.27046-0.21739 0-0.40055-0.11982-0.18145-0.11982-0.28244-0.33379-0.09928-0.21568-0.09928-0.4947 0-0.27217 0.09072-0.49299 0.09072-0.22253 0.27217-0.34064 0.18145-0.11811 0.40569-0.11811 0.16433 0 0.29271 0.07018 0.12838 0.06847 0.20884 0.17974v-0.90039h0.30641v2.5095zm-0.974-0.90724q0 0.3492 0.14721 0.52209 0.14721 0.17289 0.34749 0.17289 0.20199 0 0.34235-0.16433 0.14208-0.16604 0.14208-0.50497 0-0.37316-0.14379-0.54776-0.14379-0.1746-0.35434-0.1746-0.20541 0-0.34406 0.16775-0.13694 0.16775-0.13694 0.52894z"/>
<path d="m32.71 86.242v-1.8179h0.27559v0.25505q0.08559-0.13352 0.22766-0.21397 0.14208-0.08217 0.32352-0.08217 0.20199 0 0.33037 0.08388 0.1301 0.08388 0.18316 0.23451 0.21568-0.31839 0.56146-0.31839 0.27046 0 0.41596 0.15064 0.1455 0.14892 0.1455 0.46047v1.2479h-0.30641v-1.1452q0-0.18487-0.03081-0.26532-0.0291-0.08216-0.10784-0.13181-0.07874-0.04964-0.18487-0.04964-0.19172 0-0.31839 0.12838-0.12667 0.12667-0.12667 0.4074v1.0562h-0.30812v-1.1811q0-0.20541-0.07532-0.30812t-0.24649-0.10271q-0.1301 0-0.24136 0.06847-0.10955 0.06847-0.15919 0.20028-0.04964 0.13181-0.04964 0.38001v0.94318z"/>
<path d="m35.636 84.087v-0.35434h0.30812v0.35434zm0 2.1551v-1.8179h0.30812v1.8179z"/>
<path d="m36.415 86.242v-1.8179h0.27731v0.25848q0.20028-0.29956 0.57858-0.29956 0.16433 0 0.30127 0.05991 0.13865 0.0582 0.20712 0.15406 0.06847 0.09586 0.09586 0.22766 0.01712 0.08559 0.01712 0.29956v1.1178h-0.30812v-1.1058q0-0.1883-0.03595-0.28073-0.03595-0.09415-0.12838-0.14892-0.09072-0.05649-0.21397-0.05649-0.19685 0-0.34064 0.12496-0.14208 0.12496-0.14208 0.47416v0.99283z"/>
<path d="m38.135 86.285 0.7275-2.595h0.24649l-0.72579 2.595z"/>
<path d="m39.368 86.242v-2.5095h0.49984l0.59398 1.7768q0.08216 0.24821 0.11982 0.37145 0.04279-0.13694 0.13352-0.40227l0.60083-1.746h0.44677v2.5095h-0.3201v-2.1003l-0.72921 2.1003h-0.29956l-0.72579-2.1363v2.1363z"/>
<path d="m42.147 85.333q0-0.50497 0.28073-0.74804 0.23451-0.20199 0.57173-0.20199 0.37488 0 0.61281 0.24649 0.23794 0.24478 0.23794 0.67786 0 0.35091-0.10613 0.5529-0.10442 0.20028-0.30641 0.31154-0.20028 0.11126-0.43821 0.11126-0.38172 0-0.61795-0.24478-0.23451-0.24478-0.23451-0.70525zm0.31668 0q0 0.3492 0.15235 0.5238 0.15235 0.17289 0.38344 0.17289 0.22938 0 0.38172-0.1746t0.15235-0.53236q0-0.33722-0.15406-0.51011-0.15235-0.1746-0.38001-0.1746-0.23109 0-0.38344 0.17289-0.15235 0.17289-0.15235 0.52209z"/>
<path d="m45.393 86.242v-0.22938q-0.17289 0.27046-0.5084 0.27046-0.2174 0-0.40055-0.11982-0.18145-0.11982-0.28244-0.33379-0.09928-0.21568-0.09928-0.4947 0-0.27217 0.09072-0.49299 0.09072-0.22253 0.27217-0.34064 0.18145-0.11811 0.40569-0.11811 0.16433 0 0.29271 0.07018 0.12838 0.06847 0.20884 0.17974v-0.90039h0.30641v2.5095zm-0.974-0.90724q0 0.3492 0.14721 0.52209 0.14721 0.17289 0.34749 0.17289 0.20199 0 0.34235-0.16433 0.14208-0.16604 0.14208-0.50497 0-0.37316-0.14379-0.54776-0.14379-0.1746-0.35434-0.1746-0.20541 0-0.34406 0.16775-0.13694 0.16775-0.13694 0.52894z"/>
<path d="m47.409 85.657 0.31839 0.03937q-0.07532 0.27902-0.27902 0.43308-0.2037 0.15406-0.52038 0.15406-0.39884 0-0.63335-0.24478-0.2328-0.24649-0.2328-0.68984 0-0.45875 0.23622-0.7121 0.23622-0.25334 0.61281-0.25334 0.36461 0 0.5957 0.24821 0.23109 0.24821 0.23109 0.6984 0 0.02739-0.0017 0.08217h-1.3557q0.01712 0.29956 0.16946 0.45875 0.15235 0.15919 0.38001 0.15919 0.16946 0 0.28929-0.08901t0.19001-0.28415zm-1.0117-0.49812h1.0151q-0.02054-0.22938-0.1164-0.34407-0.14721-0.17802-0.38172-0.17802-0.21226 0-0.35776 0.14208-0.14379 0.14208-0.1592 0.38001z"/>
<path d="m48.113 86.242v-1.8179h0.27731v0.2756q0.10613-0.19343 0.19514-0.25505 0.09072-0.06162 0.19856-0.06162 0.15577 0 0.31668 0.09928l-0.10613 0.28587q-0.11298-0.06676-0.22595-0.06676-0.101 0-0.18145 0.06162-0.08045 0.05991-0.11469 0.16775-0.05135 0.16433-0.05135 0.35947v0.95174z"/>
<path d="m50.473 86.018q-0.17118 0.1455-0.33037 0.20541-0.15748 0.05991-0.33893 0.05991-0.29956 0-0.46047-0.1455-0.16091-0.14721-0.16091-0.37488 0-0.13352 0.05991-0.24307 0.06162-0.11126 0.15919-0.17802 0.09928-0.06676 0.22253-0.101 0.09072-0.02396 0.27388-0.04622 0.37316-0.04451 0.54948-0.10613 0.0017-0.06333 0.0017-0.08045 0-0.18829-0.0873-0.26532-0.11811-0.10442-0.35091-0.10442-0.2174 0-0.32181 0.07703-0.10271 0.07532-0.15235 0.26875l-0.30127-0.04108q0.04108-0.19343 0.13523-0.31154 0.09415-0.11982 0.27217-0.18316 0.17802-0.06505 0.41254-0.06505 0.2328 0 0.3783 0.05478 0.1455 0.05478 0.21397 0.13865 0.06847 0.08216 0.09586 0.20884 0.01541 0.07874 0.01541 0.28415v0.41082q0 0.42965 0.01883 0.54434 0.02054 0.11298 0.07874 0.2174h-0.32181q-0.04793-0.09586-0.06162-0.22424zm-0.02568-0.68813q-0.16775 0.06847-0.50326 0.1164-0.19001 0.02739-0.26875 0.06162-0.07874 0.03424-0.12154 0.101-0.04279 0.06505-0.04279 0.1455 0 0.12325 0.09244 0.20541 0.09415 0.08217 0.27388 0.08217 0.17802 0 0.31668-0.07703 0.13865-0.07874 0.2037-0.21397 0.04964-0.10442 0.04964-0.30812z"/>
<path d="m51.911 85.967 0.04451 0.27217q-0.1301 0.02739-0.2328 0.02739-0.16775 0-0.26019-0.05306-0.09244-0.05306-0.1301-0.13865-0.03766-0.0873-0.03766-0.36461v-1.0459h-0.22596v-0.23965h0.22595v-0.4502l0.30641-0.18487v0.63506h0.30983v0.23965h-0.30983v1.063q0 0.13181 0.01541 0.16946 0.01712 0.03766 0.05306 0.05991 0.03766 0.02225 0.10613 0.02225 0.05135 0 0.13523-0.01198z"/>
<path d="m52.096 85.333q0-0.50497 0.28073-0.74804 0.23451-0.20199 0.57173-0.20199 0.37488 0 0.61281 0.24649 0.23794 0.24478 0.23794 0.67786 0 0.35091-0.10613 0.5529-0.10442 0.20028-0.30641 0.31154-0.20028 0.11126-0.43821 0.11126-0.38172 0-0.61795-0.24478-0.23451-0.24478-0.23451-0.70525zm0.31668 0q0 0.3492 0.15235 0.5238 0.15235 0.17289 0.38344 0.17289 0.22938 0 0.38172-0.1746 0.15235-0.1746 0.15235-0.53236 0-0.33722-0.15406-0.51011-0.15235-0.1746-0.38001-0.1746-0.23109 0-0.38344 0.17289-0.15235 0.17289-0.15235 0.52209z"/>
<path d="m54.159 86.242v-1.8179h0.27731v0.2756q0.10613-0.19343 0.19514-0.25505 0.09072-0.06162 0.19856-0.06162 0.15577 0 0.31668 0.09928l-0.10613 0.28587q-0.11298-0.06676-0.22595-0.06676-0.10099 0-0.18145 0.06162-0.08045 0.05991-0.11469 0.16775-0.05135 0.16433-0.05135 0.35947v0.95174z"/>
<path d="m56.191 85.333q0-0.50497 0.28073-0.74804 0.23451-0.20199 0.57173-0.20199 0.37488 0 0.61281 0.24649 0.23794 0.24478 0.23794 0.67786 0 0.35091-0.10613 0.5529-0.10442 0.20028-0.30641 0.31154-0.20028 0.11126-0.43821 0.11126-0.38172 0-0.61795-0.24478-0.23451-0.24478-0.23451-0.70525zm0.31668 0q0 0.3492 0.15235 0.5238 0.15235 0.17289 0.38344 0.17289 0.22938 0 0.38172-0.1746 0.15235-0.1746 0.15235-0.53236 0-0.33722-0.15406-0.51011-0.15235-0.1746-0.38001-0.1746-0.23109 0-0.38344 0.17289-0.15235 0.17289-0.15235 0.52209z"/>
<path d="m59.436 86.242v-0.22938q-0.17289 0.27046-0.5084 0.27046-0.21739 0-0.40055-0.11982-0.18145-0.11982-0.28244-0.33379-0.09928-0.21568-0.09928-0.4947 0-0.27217 0.09072-0.49299 0.09072-0.22253 0.27217-0.34064 0.18145-0.11811 0.40569-0.11811 0.16433 0 0.29271 0.07018 0.12838 0.06847 0.20884 0.17974v-0.90039h0.30641v2.5095zm-0.974-0.90724q0 0.3492 0.14721 0.52209 0.14721 0.17289 0.34749 0.17289 0.20199 0 0.34235-0.16433 0.14208-0.16604 0.14208-0.50497 0-0.37316-0.14379-0.54776-0.14379-0.1746-0.35434-0.1746-0.20541 0-0.34406 0.16775-0.13694 0.16775-0.13694 0.52894z"/>
<path d="m61.453 85.657 0.31839 0.03937q-0.07532 0.27902-0.27902 0.43308-0.2037 0.15406-0.52038 0.15406-0.39884 0-0.63335-0.24478-0.2328-0.24649-0.2328-0.68984 0-0.45875 0.23622-0.7121 0.23622-0.25334 0.61281-0.25334 0.36461 0 0.5957 0.24821 0.23109 0.24821 0.23109 0.6984 0 0.02739-0.0017 0.08217h-1.3557q0.01712 0.29956 0.16946 0.45875 0.15235 0.15919 0.38001 0.15919 0.16946 0 0.28929-0.08901 0.11982-0.08901 0.19001-0.28415zm-1.0117-0.49812h1.0151q-0.02054-0.22938-0.1164-0.34407-0.14721-0.17802-0.38172-0.17802-0.21226 0-0.35776 0.14208-0.14379 0.14208-0.1592 0.38001z"/>
<path d="m62.156 86.242v-1.8179h0.27731v0.2756q0.10613-0.19343 0.19514-0.25505 0.09072-0.06162 0.19856-0.06162 0.15577 0 0.31668 0.09928l-0.10613 0.28587q-0.11298-0.06676-0.22595-0.06676-0.10099 0-0.18145 0.06162-0.08045 0.05991-0.11469 0.16775-0.05135 0.16433-0.05135 0.35947v0.95174z"/>
<path d="m65.489 86.018q-0.17118 0.1455-0.33037 0.20541-0.15748 0.05991-0.33893 0.05991-0.29956 0-0.46047-0.1455-0.16091-0.14721-0.16091-0.37488 0-0.13352 0.05991-0.24307 0.06162-0.11126 0.15919-0.17802 0.09928-0.06676 0.22253-0.101 0.09072-0.02396 0.27388-0.04622 0.37316-0.04451 0.54948-0.10613 0.0017-0.06333 0.0017-0.08045 0-0.18829-0.0873-0.26532-0.11811-0.10442-0.35091-0.10442-0.2174 0-0.32181 0.07703-0.10271 0.07532-0.15235 0.26875l-0.30127-0.04108q0.04108-0.19343 0.13523-0.31154 0.09415-0.11982 0.27217-0.18316 0.17802-0.06505 0.41254-0.06505 0.2328 0 0.3783 0.05478t0.21397 0.13865q0.06847 0.08216 0.09586 0.20884 0.01541 0.07874 0.01541 0.28415v0.41082q0 0.42965 0.01883 0.54434 0.02054 0.11298 0.07874 0.2174h-0.32181q-0.04793-0.09586-0.06162-0.22424zm-0.02568-0.68813q-0.16775 0.06847-0.50326 0.1164-0.19001 0.02739-0.26875 0.06162-0.07874 0.03424-0.12154 0.101-0.04279 0.06505-0.04279 0.1455 0 0.12325 0.09244 0.20541 0.09415 0.08217 0.27388 0.08217 0.17802 0 0.31668-0.07703 0.13865-0.07874 0.2037-0.21397 0.04964-0.10442 0.04964-0.30812zm-0.90724-1.2616v-0.35091h0.32181v0.35091zm0.63849 0v-0.35091h0.32181v0.35091z"/>
<path d="m66.254 86.242v-2.5095h0.30812v0.90039q0.21568-0.24992 0.54434-0.24992 0.20199 0 0.35091 0.08045 0.14892 0.07874 0.21226 0.21911 0.06505 0.14036 0.06505 0.4074v1.152h-0.30812v-1.152q0-0.23109-0.10099-0.33551-0.09928-0.10613-0.28244-0.10613-0.13694 0-0.25848 0.07189-0.11982 0.07018-0.17118 0.19172-0.05135 0.12154-0.05135 0.33551v0.99454z"/>
<path d="m68.206 86.242v-1.8179h0.27731v0.25848q0.20028-0.29956 0.57858-0.29956 0.16433 0 0.30127 0.05991 0.13865 0.0582 0.20712 0.15406 0.06847 0.09586 0.09586 0.22766 0.01712 0.08559 0.01712 0.29956v1.1178h-0.30812v-1.1058q0-0.1883-0.03595-0.28073-0.03595-0.09415-0.12838-0.14892-0.09072-0.05649-0.21397-0.05649-0.19685 0-0.34064 0.12496-0.14208 0.12496-0.14208 0.47416v0.99283z"/>
<path d="m70.15 86.242v-2.5095h0.30812v2.5095z"/>
<path d="m70.939 84.087v-0.35434h0.30812v0.35434zm0 2.1551v-1.8179h0.30812v1.8179z"/>
<path d="m72.904 85.576 0.30298 0.03937q-0.04964 0.31325-0.25505 0.49128-0.2037 0.17631-0.50155 0.17631-0.37316 0-0.60083-0.24307-0.22595-0.24478-0.22595-0.70011 0-0.29442 0.09757-0.51524t0.29614-0.33037q0.20028-0.11126 0.43479-0.11126 0.29614 0 0.48443 0.15064 0.1883 0.14892 0.24136 0.42452l-0.29956 0.04622q-0.04279-0.18316-0.15235-0.2756-0.10784-0.09244-0.2619-0.09244-0.2328 0-0.3783 0.16775-0.1455 0.16604-0.1455 0.52722 0 0.36632 0.14036 0.53236 0.14036 0.16604 0.36632 0.16604 0.18145 0 0.30298-0.11126 0.12154-0.11126 0.15406-0.34235z"/>
<path d="m73.471 86.242v-2.5095h0.30812v0.90039q0.21568-0.24992 0.54434-0.24992 0.20199 0 0.35091 0.08045 0.14892 0.07874 0.21226 0.21911 0.06505 0.14036 0.06505 0.4074v1.152h-0.30812v-1.152q0-0.23109-0.10099-0.33551-0.09928-0.10613-0.28244-0.10613-0.13694 0-0.25848 0.07189-0.11982 0.07018-0.17118 0.19172-0.05135 0.12154-0.05135 0.33551v0.99454z"/>
<path d="m76.667 85.657 0.31839 0.03937q-0.07532 0.27902-0.27902 0.43308-0.2037 0.15406-0.52038 0.15406-0.39884 0-0.63335-0.24478-0.2328-0.24649-0.2328-0.68984 0-0.45875 0.23622-0.7121 0.23622-0.25334 0.61281-0.25334 0.36461 0 0.5957 0.24821 0.23109 0.24821 0.23109 0.6984 0 0.02739-0.0017 0.08217h-1.3557q0.01712 0.29956 0.16946 0.45875 0.15235 0.15919 0.38001 0.15919 0.16946 0 0.28929-0.08901t0.19001-0.28415zm-1.0117-0.49812h1.0151q-0.02054-0.22938-0.1164-0.34407-0.14721-0.17802-0.38172-0.17802-0.21226 0-0.35776 0.14208-0.14379 0.14208-0.1592 0.38001z"/>
<path d="m77.251 85.7 0.3047-0.04793q0.02568 0.18316 0.14208 0.28073 0.11811 0.09757 0.32866 0.09757 0.21226 0 0.31496-0.08559 0.10271-0.0873 0.10271-0.2037 0-0.10442-0.09072-0.16433-0.06333-0.04108-0.31496-0.10442-0.33893-0.08559-0.47074-0.14721-0.13009-0.06334-0.19856-0.17289-0.06676-0.11126-0.06676-0.24478 0-0.12154 0.05478-0.22424 0.05649-0.10442 0.15235-0.17289 0.07189-0.05307 0.19514-0.08901 0.12496-0.03766 0.26704-0.03766 0.21397 0 0.37488 0.06162 0.16262 0.06162 0.23965 0.16775 0.07703 0.10442 0.10613 0.28073l-0.30127 0.04108q-0.02054-0.14036-0.11982-0.21911-0.09757-0.07874-0.27731-0.07874-0.21226 0-0.30298 0.07018-0.09072 0.07018-0.09072 0.16433 0 0.05991 0.03766 0.10784 0.03766 0.04964 0.11811 0.08216 0.04622 0.01712 0.27217 0.07874 0.32695 0.0873 0.45533 0.14379 0.13009 0.05478 0.2037 0.16091 0.07361 0.10613 0.07361 0.26361 0 0.15406-0.09072 0.291-0.08901 0.13523-0.25848 0.21055-0.16946 0.07361-0.38344 0.07361-0.35434 0-0.54092-0.14721-0.18487-0.14721-0.23622-0.4365z"/>
</g>
<text x="53.977303" y="94.215897" fill="#000000" font-family="Arial" font-size="3.5057px" font-weight="400" letter-spacing="0px" stroke-width=".26458" word-spacing="0px" style="line-height:125%" xml:space="preserve"><tspan x="53.977303" y="94.215897" stroke-width=".26458"><tspan dx="0" dy="0" fill="#000000" font-family="Arial" font-size="3.5057px" font-weight="400" stroke-width=".26458">SCP Rollenspiel</tspan></tspan></text>
</svg>
