<?xml version="1.0" encoding="UTF-8"?>
<svg width="382.6" height="217.31" version="1.1" viewBox="0 0 101.23 57.497" xmlns="http://www.w3.org/2000/svg" xmlns:cc="http://creativecommons.org/ns#" xmlns:dc="http://purl.org/dc/elements/1.1/" xmlns:rdf="http://www.w3.org/1999/02/22-rdf-syntax-ns#">
<defs>
<clipPath id="a">
<path d="m152.95 0.47998h214.87v187.67h-214.87z"/>
</clipPath>
</defs>
<metadata>
<rdf:RDF>
<cc:Work rdf:about="">
<dc:format>image/svg+xml</dc:format>
<dc:type rdf:resource="http://purl.org/dc/dcmitype/StillImage"/>
<dc:title/>
</cc:Work>
</rdf:RDF>
</metadata>
<path d="m41.531 1.4288v49.401h56.597v-49.401z" fill="#e7e7e7" fill-rule="evenodd"/>
<path d="m69.894 1.4288v49.401h-0.16932v-49.401zm28.32 0v49.401h-0.16933v-49.401z" fill="#898989" stroke="#898989" stroke-linejoin="bevel" stroke-width=".042332px"/>
<path d="m41.531 1.4288v5.4608h25.441v-5.4608z" fill="#3975d8" fill-rule="evenodd"/>
<path transform="matrix(.26459 0 0 .26459 1.0412 1.2806)" d="m152.71 0.55997c0-0.16999 0.14999-0.31998 0.31998-0.31998h96.155c0.17999 0 0.31998 0.14999 0.31998 0.31998v20.639c0 0.17999-0.13999 0.31998-0.31998 0.31998h-96.155c-0.16999 0-0.31998-0.13999-0.31998-0.31998zm0.63996 20.639-0.31998-0.31998h96.155l-0.31999 0.31998v-20.639l0.31999 0.31998h-96.155l0.31998-0.31998z" clip-path="url(#a)" fill="#27549e" stroke="#27549e" stroke-linejoin="bevel" stroke-width=".15999px"/>
<path d="m41.531 6.8895v5.5031h48.089v-5.5031z" fill="#cf3a2e" fill-rule="evenodd"/>
<path transform="matrix(.26459 0 0 .26459 1.0412 1.2806)" d="m152.71 21.199c0-0.15999 0.15999-0.31998 0.31998-0.31998h181.75c0.17999 0 0.31998 0.15999 0.31998 0.31998v20.799c0 0.17999-0.13999 0.31998-0.31998 0.31998h-181.75c-0.15999 0-0.31998-0.13999-0.31998-0.31998zm0.63996 20.799-0.31998-0.31998h181.75l-0.31998 0.31998v-20.799l0.31998 0.31998h-181.75l0.31998-0.31998z" clip-path="url(#a)" fill="#98281f" stroke="#98281f" stroke-linejoin="bevel" stroke-width=".15999px"/>
<path d="m41.531 12.393v5.5031h35.389v-5.5031z" fill="#dea603" fill-rule="evenodd"/>
<path transform="matrix(.26459 0 0 .26459 1.0412 1.2806)" d="m152.71 41.998c0-0.16999 0.14999-0.31998 0.31998-0.31998h133.75c0.18 0 0.31999 0.14999 0.31999 0.31998v20.799c0 0.17999-0.13999 0.31998-0.31999 0.31998h-133.75c-0.16999 0-0.31998-0.13999-0.31998-0.31998zm0.63996 20.799-0.31998-0.31998h133.75l-0.31998 0.31998v-20.799l0.31998 0.31998h-133.75l0.31998-0.31998z" clip-path="url(#a)" fill="#a37902" stroke="#a37902" stroke-linejoin="bevel" stroke-width=".15999px"/>
<path d="m41.531 17.896v5.4608h5.6301v-5.4608z" fill="#2d9449" fill-rule="evenodd"/>
<path transform="matrix(.26459 0 0 .26459 1.0412 1.2806)" d="m152.71 62.797c0-0.16999 0.14999-0.31998 0.31998-0.31998h21.279c0.17999 0 0.31998 0.14999 0.31998 0.31998v20.639c0 0.17999-0.13999 0.31998-0.31998 0.31998h-21.279c-0.16999 0-0.31998-0.13999-0.31998-0.31998zm0.63996 20.639-0.31998-0.31998h21.279l-0.31999 0.31998v-20.639l0.31999 0.31998h-21.279l0.31998-0.31998z" clip-path="url(#a)" fill="#1e6c33" stroke="#1e6c33" stroke-linejoin="bevel" stroke-width=".15999px"/>
<path d="m41.531 23.357v5.5031h19.811v-5.5031z" fill="#e26001" fill-rule="evenodd"/>
<path transform="matrix(.26459 0 0 .26459 1.0412 1.2806)" d="m152.71 83.436c0-0.16999 0.14999-0.31998 0.31998-0.31998h74.876c0.17999 0 0.31999 0.14999 0.31999 0.31998v20.799c0 0.17999-0.14 0.31998-0.31999 0.31998h-74.876c-0.16999 0-0.31998-0.13999-0.31998-0.31998zm0.63996 20.799-0.31998-0.31999h74.876l-0.31998 0.31999v-20.799l0.31998 0.31998h-74.876l0.31998-0.31998z" clip-path="url(#a)" fill="#a64400" stroke="#a64400" stroke-linejoin="bevel" stroke-width=".15999px"/>
<path d="m41.531 28.86v5.5031h2.8362v-5.5031z" fill="#3da7af" fill-rule="evenodd"/>
<path transform="matrix(.26459 0 0 .26459 1.0412 1.2806)" d="m152.71 104.23c0-0.17 0.14999-0.31999 0.31998-0.31999h10.719c0.18 0 0.31999 0.14999 0.31999 0.31999v20.799c0 0.17999-0.13999 0.31998-0.31999 0.31998h-10.719c-0.16999 0-0.31998-0.13999-0.31998-0.31998zm0.63996 20.799-0.31998-0.31999h10.719l-0.31998 0.31999v-20.799l0.31998 0.31998h-10.719l0.31998-0.31998z" clip-path="url(#a)" fill="#2a7a80" stroke="#2a7a80" stroke-linejoin="bevel" stroke-width=".15999px"/>
<path d="m41.531 34.363v5.4608h1.3969v-5.4608z" fill="#8eacf7" fill-rule="evenodd"/>
<path transform="matrix(.26459 0 0 .26459 1.0412 1.2806)" d="m152.71 125.03c0-0.17 0.14999-0.31999 0.31998-0.31999h5.2797c0.17999 0 0.31998 0.14999 0.31998 0.31999v20.639c0 0.17999-0.13999 0.31999-0.31998 0.31999h-5.2797c-0.16999 0-0.31998-0.14-0.31998-0.31999zm0.63996 20.639-0.31998-0.31998h5.2797l-0.31999 0.31998v-20.639l0.31999 0.31998h-5.2797l0.31998-0.31998z" clip-path="url(#a)" fill="#8999c8" stroke="#8999c8" stroke-linejoin="bevel" stroke-width=".15999px"/>
<path d="m41.531 39.824v5.5031h1.3969v-5.5031z" fill="#ef8f8b" fill-rule="evenodd"/>
<path transform="matrix(.26459 0 0 .26459 1.0412 1.2806)" d="m152.71 145.67c0-0.16999 0.14999-0.31998 0.31998-0.31998h5.2797c0.17999 0 0.31998 0.14999 0.31998 0.31998v20.799c0 0.17999-0.13999 0.31999-0.31998 0.31999h-5.2797c-0.16999 0-0.31998-0.14-0.31998-0.31999zm0.63996 20.799-0.31998-0.31998h5.2797l-0.31999 0.31998v-20.799l0.31999 0.31999h-5.2797l0.31998-0.31999z" clip-path="url(#a)" fill="#c38987" stroke="#c38987" stroke-linejoin="bevel" stroke-width=".15999px"/>
<path d="m41.531 45.327v5.5031h1.3969v-5.5031z" fill="#fcce84" fill-rule="evenodd"/>
<path transform="matrix(.26459 0 0 .26459 1.0412 1.2806)" d="m152.71 166.47c0-0.16999 0.14999-0.31998 0.31998-0.31998h5.2797c0.17999 0 0.31998 0.14999 0.31998 0.31998v20.799c0 0.17999-0.13999 0.31999-0.31998 0.31999h-5.2797c-0.16999 0-0.31998-0.14-0.31998-0.31999zm0.63996 20.799-0.31998-0.31998h5.2797l-0.31999 0.31998v-20.799l0.31999 0.31999h-5.2797l0.31998-0.31999z" clip-path="url(#a)" fill="#ccae84" stroke="#ccae84" stroke-linejoin="bevel" stroke-width=".15999px"/>
<path d="m41.531 50.745h56.597v0.16933h-56.597z" fill="#898989" stroke="#898989" stroke-linejoin="bevel" stroke-width=".042332px"/>
<path d="m41.616 50.83v1.0583h-0.16932v-1.0583zm28.278 0v1.0583h-0.16932v-1.0583zm28.32 0v1.0583h-0.16933v-1.0583z" fill="#898989" stroke="#898989" stroke-linejoin="bevel" stroke-width=".042332px"/>
<path d="m41.616 1.4288v49.401h-0.16932v-49.401z" fill="#898989" stroke="#898989" stroke-linejoin="bevel" stroke-width=".042332px"/>
<path d="m40.473 1.3441h1.0583v0.16933h-1.0583zm0 5.4608h1.0583v0.16933h-1.0583zm0 5.5031h1.0583v0.16933h-1.0583zm0 5.5031h1.0583v0.16933h-1.0583zm0 5.4608h1.0583v0.16933h-1.0583zm0 5.5031h1.0583v0.16933h-1.0583zm0 5.5031h1.0583v0.16933h-1.0583zm0 5.4608h1.0583v0.16933h-1.0583zm0 5.5031h1.0583v0.16933h-1.0583zm0 5.5031h1.0583v0.16933h-1.0583z" fill="#898989" stroke="#898989" stroke-linejoin="bevel" stroke-width=".042332px"/>
<text x="60.97546" y="5.4451265" fill="#000000" font-family="Arial" font-size="3.5058px" font-weight="400" letter-spacing="0px" stroke-width=".26459" word-spacing="0px" style="line-height:125%" xml:space="preserve"><tspan x="60.97546" y="5.4451265" stroke-width=".26459"><tspan dx="0" dy="0" fill="#000000" font-family="Arial" font-size="3.5058px" font-weight="400" stroke-width=".26459">18</tspan></tspan></text>
<text x="83.619087" y="10.933989" fill="#000000" font-family="Arial" font-size="3.5058px" font-weight="400" letter-spacing="0px" stroke-width=".26459" word-spacing="0px" style="line-height:125%" xml:space="preserve"><tspan x="83.619087" y="10.933989" stroke-width=".26459"><tspan dx="0" dy="0" fill="#000000" font-family="Arial" font-size="3.5058px" font-weight="400" stroke-width=".26459">34</tspan></tspan></text>
<text x="70.882042" y="16.422878" fill="#000000" font-family="Arial" font-size="3.5058px" font-weight="400" letter-spacing="0px" stroke-width=".26459" word-spacing="0px" style="line-height:125%" xml:space="preserve"><tspan x="70.882042" y="16.422878" stroke-width=".26459"><tspan dx="0" dy="0" fill="#000000" font-family="Arial" font-size="3.5058px" font-weight="400" stroke-width=".26459">25</tspan></tspan></text>
<text x="43.650215" y="21.911739" fill="#000000" font-family="Arial" font-size="3.5058px" font-weight="400" letter-spacing="0px" stroke-width=".26459" word-spacing="0px" style="line-height:125%" xml:space="preserve"><tspan x="43.650215" y="21.911739" stroke-width=".26459"><tspan dx="0" dy="0" fill="#000000" font-family="Arial" font-size="3.5058px" font-weight="400" stroke-width=".26459">4</tspan></tspan></text>
<text x="55.314552" y="27.400627" fill="#000000" font-family="Arial" font-size="3.5058px" font-weight="400" letter-spacing="0px" stroke-width=".26459" word-spacing="0px" style="line-height:125%" xml:space="preserve"><tspan x="55.314552" y="27.400627" stroke-width=".26459"><tspan dx="0" dy="0" fill="#000000" font-family="Arial" font-size="3.5058px" font-weight="400" stroke-width=".26459">14</tspan></tspan></text>
<text x="44.85289" y="32.889462" fill="#000000" font-family="Arial" font-size="3.5058px" font-weight="400" letter-spacing="0px" stroke-width=".26459" word-spacing="0px" style="line-height:125%" xml:space="preserve"><tspan x="44.85289" y="32.889462" stroke-width=".26459"><tspan dx="0" dy="0" fill="#000000" font-family="Arial" font-size="3.5058px" font-weight="400" stroke-width=".26459">2</tspan></tspan></text>
<text x="43.650215" y="38.37838" fill="#000000" font-family="Arial" font-size="3.5058px" font-weight="400" letter-spacing="0px" stroke-width=".26459" word-spacing="0px" style="line-height:125%" xml:space="preserve"><tspan x="43.650215" y="38.37838" stroke-width=".26459"><tspan dx="0" dy="0" fill="#000000" font-family="Arial" font-size="3.5058px" font-weight="400" stroke-width=".26459">1</tspan></tspan></text>
<text x="43.650215" y="43.867241" fill="#000000" font-family="Arial" font-size="3.5058px" font-weight="400" letter-spacing="0px" stroke-width=".26459" word-spacing="0px" style="line-height:125%" xml:space="preserve"><tspan x="43.650215" y="43.867241" stroke-width=".26459"><tspan dx="0" dy="0" fill="#000000" font-family="Arial" font-size="3.5058px" font-weight="400" stroke-width=".26459">1</tspan></tspan></text>
<text x="43.650215" y="49.356129" fill="#000000" font-family="Arial" font-size="3.5058px" font-weight="400" letter-spacing="0px" stroke-width=".26459" word-spacing="0px" style="line-height:125%" xml:space="preserve"><tspan x="43.650215" y="49.356129" stroke-width=".26459"><tspan dx="0" dy="0" fill="#000000" font-family="Arial" font-size="3.5058px" font-weight="400" stroke-width=".26459">1</tspan></tspan></text>
<text x="40.545887" y="56.131493" fill="#000000" font-family="Arial" font-size="3.5058px" font-weight="400" letter-spacing="0px" stroke-width=".26459" word-spacing="0px" style="line-height:125%" xml:space="preserve"><tspan x="40.545887" y="56.131493" stroke-width=".26459"><tspan dx="0" dy="0" fill="#000000" font-family="Arial" font-size="3.5058px" font-weight="400" stroke-width=".26459">0</tspan></tspan></text>
<text x="67.869728" y="56.131493" fill="#000000" font-family="Arial" font-size="3.5058px" font-weight="400" letter-spacing="0px" stroke-width=".26459" word-spacing="0px" style="line-height:125%" xml:space="preserve"><tspan x="67.869728" y="56.131493" stroke-width=".26459"><tspan dx="0" dy="0" fill="#000000" font-family="Arial" font-size="3.5058px" font-weight="400" stroke-width=".26459">20</tspan></tspan></text>
<text x="96.174263" y="56.131493" fill="#000000" font-family="Arial" font-size="3.5058px" font-weight="400" letter-spacing="0px" stroke-width=".26459" word-spacing="0px" style="line-height:125%" xml:space="preserve"><tspan x="96.174263" y="56.131493" stroke-width=".26459"><tspan dx="0" dy="0" fill="#000000" font-family="Arial" font-size="3.5058px" font-weight="400" stroke-width=".26459">40</tspan></tspan></text>
<text x="1.0519542" y="5.2722731" fill="#000000" font-family="Arial" font-size="3.5058px" font-weight="400" letter-spacing="0px" stroke-width=".26459" word-spacing="0px" style="line-height:125%" xml:space="preserve"><tspan x="1.0519542" y="5.2722731" stroke-width=".26459"><tspan dx="0" dy="0" fill="#000000" font-family="Arial" font-size="3.5058px" font-weight="400" stroke-width=".26459">Das Wiki (kein Account)</tspan></tspan></text>
<text x="2.819299" y="10.761135" fill="#000000" font-family="Arial" font-size="3.5058px" font-weight="400" letter-spacing="0px" stroke-width=".26459" word-spacing="0px" style="line-height:125%" xml:space="preserve"><tspan x="2.819299" y="10.761135" stroke-width=".26459"><tspan dx="0" dy="0" fill="#000000" font-family="Arial" font-size="3.5058px" font-weight="400" stroke-width=".26459">Das Wiki (mit Account)</tspan></tspan></text>
<text x="26.535591" y="16.250023" fill="#000000" font-family="Arial" font-size="3.5058px" font-weight="400" letter-spacing="0px" stroke-width=".26459" word-spacing="0px" style="line-height:125%" xml:space="preserve"><tspan x="26.535591" y="16.250023" stroke-width=".26459"><tspan dx="0" dy="0" fill="#000000" font-family="Arial" font-size="3.5058px" font-weight="400" stroke-width=".26459">Discord</tspan></tspan></text>
<text x="27.907843" y="21.738884" fill="#000000" font-family="Arial" font-size="3.5058px" font-weight="400" letter-spacing="0px" stroke-width=".26459" word-spacing="0px" style="line-height:125%" xml:space="preserve"><tspan x="27.907843" y="21.738884" stroke-width=".26459"><tspan dx="0" dy="0" fill="#000000" font-family="Arial" font-size="3.5058px" font-weight="400" stroke-width=".26459">Twitter</tspan></tspan></text>
<text x="24.175604" y="27.227774" fill="#000000" font-family="Arial" font-size="3.5058px" font-weight="400" letter-spacing="0px" stroke-width=".26459" word-spacing="0px" style="line-height:125%" xml:space="preserve"><tspan x="24.175604" y="27.227774" stroke-width=".26459"><tspan dx="0" dy="0" fill="#000000" font-family="Arial" font-size="3.5058px" font-weight="400" stroke-width=".26459">YouTube</tspan></tspan></text>
<text x="23.000902" y="32.716663" fill="#000000" font-family="Arial" font-size="3.5058px" font-weight="400" letter-spacing="0px" stroke-width=".26459" word-spacing="0px" style="line-height:125%" xml:space="preserve"><tspan x="23.000902" y="32.716663" stroke-width=".26459"><tspan dx="0" dy="0" fill="#000000" font-family="Arial" font-size="3.5058px" font-weight="400" stroke-width=".26459">Facebook</tspan></tspan></text>
<text x="19.39213" y="38.205528" fill="#000000" font-family="Arial" font-size="3.5058px" font-weight="400" letter-spacing="0px" stroke-width=".26459" word-spacing="0px" style="line-height:125%" xml:space="preserve"><tspan x="19.39213" y="38.205528" stroke-width=".26459"><tspan dx="0" dy="0" fill="#000000" font-family="Arial" font-size="3.5058px" font-weight="400" stroke-width=".26459">Garry's Mod</tspan></tspan></text>
<text x="13.980737" y="43.694416" fill="#000000" font-family="Arial" font-size="3.5058px" font-weight="400" letter-spacing="0px" stroke-width=".26459" word-spacing="0px" style="line-height:125%" xml:space="preserve"><tspan x="13.980737" y="43.694416" stroke-width=".26459"><tspan dx="0" dy="0" fill="#000000" font-family="Arial" font-size="3.5058px" font-weight="400" stroke-width=".26459">Spotify Podcast</tspan></tspan></text>
<text x="27.907843" y="49.183273" fill="#000000" font-family="Arial" font-size="3.5058px" font-weight="400" letter-spacing="0px" stroke-width=".26459" word-spacing="0px" style="line-height:125%" xml:space="preserve"><tspan x="27.907843" y="49.183273" stroke-width=".26459"><tspan dx="0" dy="0" fill="#000000" font-family="Arial" font-size="3.5058px" font-weight="400" stroke-width=".26459">TikTok</tspan></tspan></text>
</svg>
