<?xml version="1.0" encoding="UTF-8"?>
<svg width="576.3" height="345.66" version="1.1" viewBox="0 0 152.48 91.455" xmlns="http://www.w3.org/2000/svg" xmlns:cc="http://creativecommons.org/ns#" xmlns:dc="http://purl.org/dc/elements/1.1/" xmlns:rdf="http://www.w3.org/1999/02/22-rdf-syntax-ns#">
<metadata>
<rdf:RDF>
<cc:Work rdf:about="">
<dc:format>image/svg+xml</dc:format>
<dc:type rdf:resource="http://purl.org/dc/dcmitype/StillImage"/>
<dc:title/>
</cc:Work>
</rdf:RDF>
</metadata>
<g transform="translate(-14.416 -28.367)">
<path d="m57.115 76.949 38.516-14.832c-6.138-15.927-21.446-26.436-38.516-26.436z" fill="#3975d8" fill-rule="evenodd"/>
<path d="m57.2 76.949-0.11112-0.07408 38.511-14.832-0.0476 0.10583-0.59793-1.4763-0.65613-1.4393-0.70376-1.4075-0.75667-1.3758-0.799-1.3387-0.84662-1.3017-0.89425-1.2646-0.94186-1.2276-0.97891-1.1853-1.0212-1.1482-1.0636-1.1059-1.1006-1.0636-1.1376-1.0212-1.1747-0.97891-1.2117-0.93128-1.2435-0.88895-1.2699-0.84133-1.307-0.78842-1.3334-0.74609-1.3652-0.69846-1.3863-0.64555-1.4181-0.59264-1.4393-0.53972-1.4604-0.48681-1.4816-0.43918-1.4975-0.38098-1.5186-0.32277-1.5398-0.26457-1.5557-0.21166-1.5663-0.14816-1.5768-0.09524-1.5927-0.02646 0.08466-0.08466zm-0.16933-41.268c0-0.02117 0.01058-0.04233 0.02646-0.0582 0.01587-0.01588 0.03704-0.02646 0.0635-0.02646l1.598 0.02646 1.5821 0.09524 1.5768 0.15345 1.561 0.20636 1.5398 0.26986 1.5239 0.32278 1.508 0.38627 1.4922 0.43389 1.4657 0.4921 1.4446 0.54501 1.4181 0.59264 1.3969 0.65084 1.3652 0.69846 1.3387 0.74609 1.3123 0.799 1.2805 0.84133 1.2488 0.89425 1.2117 0.93658 1.18 0.97891 1.1429 1.0265 1.1059 1.0689 1.0689 1.1112 1.0265 1.1535 0.9842 1.1906 0.94187 1.2329 0.89425 1.2699 0.8572 1.307 0.799 1.344 0.76196 1.3758 0.70376 1.4181 0.65613 1.4446 0.60322 1.4763c5e-3 0.02116 5e-3 0.04762 0 0.06879-0.0106 0.02117-0.0265 0.03704-0.0476 0.04233l-38.516 14.832c-0.02646 0.01058-0.05291 0.01058-0.07937-0.0053-0.02117-0.01587-0.03704-0.04233-0.03704-0.07408z" fill="#27549e" stroke="#27549e" stroke-linejoin="bevel" stroke-width=".042331px"/>
<path d="m57.115 76.949 40.146-9.5668c-0.42331-1.7885-0.96833-3.5452-1.6298-5.2649z" fill="#cf3a2e" fill-rule="evenodd"/>
<path d="m57.147 77.028-0.04762-0.15874 40.146-9.5668-0.0635 0.10054-0.34394-1.3334-0.38099-1.3228-0.43389-1.307-0.47093-1.2911 0.11112 0.04762zm38.453-14.985c0.0212-0.01058 0.0476-0.01058 0.0688 0 0.0159 0.01058 0.037 0.02646 0.0423 0.04762l0.47623 1.2964 0.4286 1.3123 0.38627 1.3281 0.34394 1.3387c5e-3 0.02116 0 0.04233-0.0106 0.0635-0.0106 0.01587-0.0317 0.03175-0.0529 0.03704l-40.146 9.5668c-0.04233 0.01058-0.08466-0.01588-0.10054-0.05821-0.01058-0.04233 0.01058-0.08466 0.05291-0.10054z" fill="#98281f" stroke="#98281f" stroke-linejoin="bevel" stroke-width=".042331px"/>
<path d="m57.115 76.949 34.786 22.208c6.0216-9.4293 7.953-20.896 5.3602-31.775z" fill="#dea603" fill-rule="evenodd"/>
<path d="m57.136 77.034 0.02646-0.15345 34.786 22.208-0.11641 0.0265 0.5503-0.88896 0.52914-0.89954 0.50268-0.91012 0.47623-0.9207 0.46035-0.93129 0.4286-0.94187 0.40744-0.94716 0.38098-0.95774 0.35453-0.96832 0.33335-0.97362 0.3069-0.97891 0.28574-0.98949 0.25399-0.99478 0.23282-1.0001 0.21165-1.0001 0.1852-1.0107 0.15345-1.0107 0.13758-1.0212 0.10582-1.0212 0.0794-1.0212 0.0582-1.0265 0.0265-1.0265 5e-3 -1.0318-0.0159-1.0265-0.0476-1.0318-0.0688-1.0265-0.10054-1.0318-0.127-1.0318-0.14815-1.0212-0.17991-1.0265-0.20107-1.0212-0.22753-1.0212 0.10053 0.0635zm40.109-9.7309c0.0212-0.0053 0.0423 0 0.0635 0.01058s0.0317 0.03175 0.037 0.05291l0.23282 1.0212 0.20107 1.0265 0.17462 1.0318 0.15345 1.0318 0.12699 1.0318 0.0953 1.0318 0.0741 1.0371 0.0476 1.0318 0.0159 1.0371-5e-3 1.0318-0.0265 1.0318-0.0582 1.0265-0.0847 1.0318-0.10583 1.0212-0.13228 1.0212-0.15875 1.0212-0.18519 1.0107-0.20637 1.0107-0.23811 1.0054-0.25928 0.99478-0.28044 0.98949-0.3122 0.9842-0.33335 0.97891-0.35982 0.96832-0.38098 0.96303-0.40744 0.95774-0.43389 0.94187-0.45506 0.93128-0.48152 0.92599-0.50797 0.91541-0.52385 0.90483-0.55559 0.88896c-0.0106 0.0212-0.0318 0.0317-0.0529 0.037-0.0212 5e-3 -0.0476 0-0.0635-0.0106l-34.786-22.208c-0.03175-0.02116-0.04233-0.05291-0.03704-0.08466 0.0053-0.03704 0.03175-0.0635 0.0635-0.06879z" fill="#a37902" stroke="#a37902" stroke-linejoin="bevel" stroke-width=".042331px"/>
<path d="m57.115 76.949-37.437 17.372c9.5933 20.679 34.135 29.664 54.808 20.065 7.1381-3.3124 13.181-8.5932 17.414-15.229z" fill="#2d9449" fill-rule="evenodd"/>
<path d="m57.073 77.023 0.07937 0.0053-37.437 17.372 0.04233-0.11641 0.94187 1.9049 1.0212 1.8308 1.1112 1.7567 1.18 1.688 1.2541 1.6192 1.3281 1.5398 1.3916 1.4604 1.4551 1.3863 1.5186 1.307 1.5715 1.2276 1.6245 1.1482 1.6774 1.0636 1.7197 0.9842 1.7673 0.89425 1.8044 0.80958 1.8361 0.72492 1.8732 0.63497 1.8996 0.54501 1.9261 0.45506 1.9472 0.35981 1.9684 0.26986 1.979 0.17462 1.9949 0.0741 2.0001-0.0212 2.0107-0.11642 2.0054-0.21694 2.0054-0.31749 2.0054-0.42331 1.9896-0.52914 1.979-0.62967 1.9631-0.73551 1.9472-0.84133 1.3228-0.64026 1.2964-0.69317 1.2646-0.73021 1.2435-0.77784 1.2117-0.81487 1.1747-0.85721 1.1482-0.90482 1.1165-0.93658 1.0794-0.97891 1.0424-1.0212 1.0106-1.053 0.97362-1.09 0.93128-1.1218 0.89425-1.1588 0.85191-1.1958 0.81488-1.2223 0.0265 0.1164zm34.876 22.065c0.0212 0.0106 0.0318 0.0318 0.037 0.0529 5e-3 0.0212 0 0.0476-0.0106 0.0635l-0.82017 1.2329-0.85721 1.1959-0.89424 1.1641-0.94187 1.1324-0.97361 1.0953-1.0107 1.053-1.053 1.0212-1.0847 0.9842-1.1165 0.94716-1.1535 0.89954-1.1853 0.8625-1.2117 0.82545-1.2488 0.77784-1.2699 0.7355-1.3017 0.68788-1.3281 0.64555-1.9525 0.84663-1.9737 0.74079-1.9896 0.62968-2.0001 0.52913-2.0107 0.42332-2.0107 0.32277-2.0213 0.21695-2.0107 0.11641-2.0107 0.0212-2.0001-0.0794-1.9949-0.16932-1.9737-0.26986-1.9578-0.36511-1.9314-0.45506-1.9102-0.5503-1.8784-0.63497-1.8467-0.72492-1.8097-0.81487-1.7726-0.90483-1.725-0.9842-1.6827-1.0689-1.635-1.1535-1.5768-1.2329-1.5239-1.3123-1.4604-1.3916-1.3969-1.471-1.3334-1.5451-1.2594-1.6192-1.1906-1.6985-1.1059-1.762-1.0318-1.8361-0.94187-1.9049c-0.01058-0.02117-0.01058-0.04762-0.0053-0.06879 0.01058-0.02116 0.02646-0.03704 0.04762-0.04762l37.437-17.372c0.02646-0.01058 0.05291-0.01058 0.07937 0.0053z" fill="#1e6c33" stroke="#1e6c33" stroke-linejoin="bevel" stroke-width=".042331px"/>
<path d="m57.115 76.949-41.064-4.1299c-0.7408 7.363 0.51062 14.789 3.6272 21.502z" fill="#e26001" fill-rule="evenodd"/>
<path d="m57.081 76.872 0.02646 0.16139-41.064-4.1299 0.0926-0.07672-0.11641 1.3811-0.06879 1.3784-0.02117 1.3784 0.02117 1.3758 0.07143 1.3731 0.11376 1.3678 0.16139 1.3652 0.20636 1.3572 0.25134 1.3493 0.29632 1.3387 0.33865 1.3308 0.38363 1.3202 0.43125 1.3043 0.47358 1.299 0.51591 1.2752 0.56353 1.2646-0.11376-0.04233zm-37.365 17.525c-0.02117 0.01058-0.04498 0.01058-0.06614 0.0026-0.02116-0.0079-0.03704-0.02381-0.04762-0.04498l-0.56354-1.2699-0.5212-1.2832-0.47358-1.3017-0.43125-1.3123-0.38627-1.3255-0.3413-1.3361-0.29632-1.344-0.25134-1.3546-0.20636-1.3625-0.16139-1.3705-0.11376-1.3731-0.07408-1.3784-0.02117-1.3811 0.02381-1.3837 0.06879-1.3837 0.11641-1.3811c0-0.02381 0.01058-0.04498 0.0291-0.05821 0.01852-0.01587 0.03968-0.02116 0.0635-0.01852l41.064 4.1299c0.03704 0.0026 0.06879 0.03175 0.07408 0.06879 0.0053 0.03704-0.01323 0.07408-0.04762 0.08995z" fill="#a64400" stroke="#a64400" stroke-linejoin="bevel" stroke-width=".042331px"/>
<path d="m57.115 76.949-21.033-35.508c-11.284 6.683-18.718 18.329-20.031 31.378z" fill="#3da7af" fill-rule="evenodd"/>
<path d="m57.126 76.867-0.08202 0.127-21.033-35.508 0.11641 0.0291-1.0477 0.64026-1.0186 0.66672-0.99743 0.69846-0.97362 0.72228-0.95245 0.74873-0.92599 0.77519-0.89954 0.799-0.87837 0.82546-0.84662 0.84927-0.82281 0.87044-0.799 0.89424-0.76725 0.91541-0.7408 0.93658-0.71434 0.96039-0.68524 0.97626-0.65878 0.99743-0.62703 1.0133-0.59793 1.0345-0.56618 1.053-0.53972 1.0662-0.50797 1.0821-0.47358 1.1006-0.44712 1.1112-0.41008 1.1271-0.37834 1.1456-0.34923 1.1535-0.31219 1.1641-0.2778 1.1773-0.24605 1.1879-0.21166 1.1985-0.17726 1.2064-0.14022 1.217-0.07408-0.0926zm-41.082-3.9633c-0.02117-0.0026-0.04233-0.01323-0.05556-0.0291-0.01587-0.01852-0.02117-0.04233-0.01852-0.0635l0.14022-1.2223 0.17726-1.2117 0.21166-1.2038 0.24605-1.1932 0.28309-1.1826 0.31219-1.1694 0.34923-1.1588 0.37833-1.1482 0.41537-1.1297 0.44712-1.1165 0.47622-1.1059 0.51062-1.0874 0.53972-1.0715 0.57147-1.0556 0.59793-1.0371 0.63232-1.0186 0.65878-1.0027 0.69053-0.98155 0.71434-0.96039 0.74609-0.94187 0.77254-0.9207 0.799-0.89689 0.8281-0.87308 0.85191-0.85456 0.87837-0.82546 0.90483-0.80429 0.93128-0.78048 0.95245-0.74873 0.97891-0.72757 1.0027-0.69846 1.0239-0.67201 1.0477-0.64026c0.01852-0.01058 0.04233-0.01587 0.0635-0.01058 0.02381 0.0053 0.04233 0.02117 0.05291 0.03969l21.033 35.508c0.01588 0.0291 0.01588 0.0635-0.0026 0.08995-0.01587 0.02646-0.04762 0.04233-0.07937 0.03704z" fill="#2a7a80" stroke="#2a7a80" stroke-linejoin="bevel" stroke-width=".042331px"/>
<path d="m57.115 76.949-10.903-39.804c-3.5532 0.97362-6.9608 2.4182-10.13 4.2966z" fill="#8eacf7" fill-rule="evenodd"/>
<path d="m57.189 76.907-0.15345 0.06614-10.903-39.804 0.10318 0.05821-1.3255 0.38627-1.307 0.43125-1.2937 0.47358-1.2726 0.51591-1.2594 0.55824-1.2382 0.59793-1.2197 0.6429-1.1959 0.68259 0.03175-0.11641zm-21.179-35.421c-0.01058-0.02117-0.01587-0.04233-0.0079-0.06614 0.0053-0.02116 0.01852-0.03968 0.03968-0.05027l1.2011-0.68788 1.225-0.6429 1.2435-0.60322 1.2594-0.55824 1.2805-0.5212 1.299-0.47358 1.3149-0.43125 1.3255-0.38627c0.02117-0.0079 0.04498-0.0053 0.0635 0.0079 0.02116 0.01058 0.03439 0.0291 0.03969 0.05027l10.903 39.804c0.01323 0.03969-0.0079 0.08466-0.04762 0.10054-0.03969 0.01587-0.08466 0.0026-0.10583-0.03439z" fill="#8999c8" stroke="#8999c8" stroke-linejoin="bevel" stroke-width=".042331px"/>
<path d="m57.115 76.949-5.5004-40.902c-1.8255 0.24605-3.6299 0.61116-5.4025 1.098z" fill="#ef8f8b" fill-rule="evenodd"/>
<path d="m57.197 76.928-0.16403 0.0344-5.5004-40.902 0.09525 0.07143-1.3652 0.20636-1.3519 0.25134-1.344 0.29896-1.3334 0.33865 0.06085-0.10318zm-11.064-39.76c-0.0079-0.02117-0.0053-0.04498 0.0079-0.06614 0.01058-0.01852 0.0291-0.03175 0.05291-0.03969l1.3387-0.34129 1.3493-0.29896 1.3572-0.25134 1.3652-0.20636c0.02116-0.0026 0.04498 0.0026 0.0635 0.01588 0.01852 0.01323 0.0291 0.03439 0.03175 0.05556l5.5004 40.902c0.0053 0.04498-0.02381 0.08466-0.06614 0.09525-0.04498 0.0079-0.08731-0.01852-0.09789-0.06085z" fill="#c38987" stroke="#c38987" stroke-linejoin="bevel" stroke-width=".042331px"/>
<path d="m57.115 76.949v-41.27c-1.8414 0-3.6775 0.1217-5.5004 0.36775z" fill="#fcce84" fill-rule="evenodd"/>
<path d="m57.2 76.938-0.16933 0.01058v-41.27l0.08731 0.08466-1.3811 0.02381-1.3731 0.06879-1.3705 0.11376-1.3678 0.16139 0.07408-0.09525zm-5.6671-40.879c-0.0026-0.02381 0.0026-0.04498 0.01588-0.0635 0.01323-0.01852 0.03439-0.0291 0.05821-0.03175l1.3731-0.16139 1.3758-0.11376 1.3784-0.07143 1.3811-0.02381c0.02116 0 0.04498 0.01058 0.06085 0.02646 0.01587 0.01587 0.02381 0.03704 0.02381 0.05821v41.27c0 0.04498-0.03439 0.08201-0.07673 0.08466-0.04498 0.0053-0.08466-0.0291-0.08995-0.07143z" fill="#ccae84" stroke="#ccae84" stroke-linejoin="bevel" stroke-width=".042331px"/>
<path d="m48.808 36.515-1.1006-4.1908 0.07937 0.06085h-1.5663v-0.16932h1.5663c0.03969 0 0.07408 0.02646 0.08202 0.0635l1.1006 4.1908z" stroke="#000" stroke-linejoin="bevel" stroke-width=".042331px"/>
<text x="71.976761" y="50.232723" fill="#000000" font-family="Arial" font-size="3.5057px" font-weight="400" letter-spacing="0px" stroke-width=".26458" word-spacing="0px" style="line-height:125%" xml:space="preserve"><tspan x="71.976761" y="50.232723" stroke-width=".26458"><tspan dx="0" dy="0" fill="#000000" font-family="Arial" font-size="3.5057px" font-weight="400" stroke-width=".26458">9; 19%</tspan></tspan></text>
<text x="97.103813" y="65.842323" fill="#000000" font-family="Arial" font-size="3.5057px" font-weight="400" letter-spacing="0px" stroke-width=".26458" word-spacing="0px" style="line-height:125%" xml:space="preserve"><tspan x="97.103813" y="65.842323" stroke-width=".26458"><tspan dx="0" dy="0" fill="#000000" font-family="Arial" font-size="3.5057px" font-weight="400" stroke-width=".26458">1; 2%</tspan></tspan></text>
<text x="85.46981" y="83.039345" fill="#000000" font-family="Arial" font-size="3.5057px" font-weight="400" letter-spacing="0px" stroke-width=".26458" word-spacing="0px" style="line-height:125%" xml:space="preserve"><tspan x="85.46981" y="83.039345" stroke-width=".26458"><tspan dx="0" dy="0" fill="#000000" font-family="Arial" font-size="3.5057px" font-weight="400" stroke-width=".26458">6; 13%</tspan></tspan></text>
<text x="47.643417" y="112.93571" fill="#000000" font-family="Arial" font-size="3.5057px" font-weight="400" letter-spacing="0px" stroke-width=".26458" word-spacing="0px" style="line-height:125%" xml:space="preserve"><tspan x="47.643417" y="112.93571" stroke-width=".26458"><tspan dx="0" dy="0" fill="#000000" font-family="Arial" font-size="3.5057px" font-weight="400" stroke-width=".26458">16; 34%</tspan></tspan></text>
<text x="17.732939" y="83.303917" fill="#000000" font-family="Arial" font-size="3.5057px" font-weight="400" letter-spacing="0px" stroke-width=".26458" word-spacing="0px" style="line-height:125%" xml:space="preserve"><tspan x="17.732939" y="83.303917" stroke-width=".26458"><tspan dx="0" dy="0" fill="#000000" font-family="Arial" font-size="3.5057px" font-weight="400" stroke-width=".26458">4; 9%</tspan></tspan></text>
<text x="21.973108" y="61.344646" fill="#000000" font-family="Arial" font-size="3.5057px" font-weight="400" letter-spacing="0px" stroke-width=".26458" word-spacing="0px" style="line-height:125%" xml:space="preserve"><tspan x="21.973108" y="61.344646" stroke-width=".26458"><tspan dx="0" dy="0" fill="#000000" font-family="Arial" font-size="3.5057px" font-weight="400" stroke-width=".26458">7; 15%</tspan></tspan></text>
<text x="31.306707" y="37.445194" fill="#000000" font-family="Arial" font-size="3.5057px" font-weight="400" letter-spacing="0px" stroke-width=".26458" word-spacing="0px" style="line-height:125%" xml:space="preserve"><tspan x="31.306707" y="37.445194" stroke-width=".26458"><tspan dx="0" dy="0" fill="#000000" font-family="Arial" font-size="3.5057px" font-weight="400" stroke-width=".26458">2; 4%</tspan></tspan></text>
<text x="36.51738" y="32.241989" fill="#000000" font-family="Arial" font-size="3.5057px" font-weight="400" letter-spacing="0px" stroke-width=".26458" word-spacing="0px" style="line-height:125%" xml:space="preserve"><tspan x="36.51738" y="32.241989" stroke-width=".26458"><tspan dx="0" dy="0" fill="#000000" font-family="Arial" font-size="3.5057px" font-weight="400" stroke-width=".26458">1; 2%</tspan></tspan></text>
<text x="49.745865" y="34.093979" fill="#000000" font-family="Arial" font-size="3.5057px" font-weight="400" letter-spacing="0px" stroke-width=".26458" word-spacing="0px" style="line-height:125%" xml:space="preserve"><tspan x="49.745865" y="34.093979" stroke-width=".26458"><tspan dx="0" dy="0" fill="#000000" font-family="Arial" font-size="3.5057px" font-weight="400" stroke-width=".26458">1; 2%</tspan></tspan></text>
<path d="m109.25 37.253v1.7779h1.7779v-1.7779z" fill="#3975d8" fill-rule="evenodd"/>
<path d="m109.17 37.253c0-0.04233 0.0423-0.08466 0.0847-0.08466h1.7779c0.0476 0 0.0847 0.04233 0.0847 0.08466v1.7779c0 0.04762-0.037 0.08466-0.0847 0.08466h-1.7779c-0.0423 0-0.0847-0.03704-0.0847-0.08466zm0.16932 1.7779-0.0847-0.08466h1.7779l-0.0847 0.08466v-1.7779l0.0847 0.08466h-1.7779l0.0847-0.08466z" fill="#27549e" stroke="#27549e" stroke-linejoin="bevel" stroke-width=".042331px"/>
<text x="111.7989" y="39.268013" fill="#000000" font-family="Arial" font-size="3.5057px" font-weight="400" letter-spacing="0px" stroke-width=".26458" word-spacing="0px" style="line-height:125%" xml:space="preserve"><tspan x="111.7989" y="39.268013" stroke-width=".26458"><tspan dx="0" dy="0" fill="#000000" font-family="Arial" font-size="3.5057px" font-weight="400" stroke-width=".26458">Ich bin aktiver Autor</tspan></tspan></text>
<path d="m109.25 46.65v1.7779h1.7779v-1.7779z" fill="#cf3a2e" fill-rule="evenodd"/>
<path d="m109.17 46.65c0-0.04233 0.0423-0.08466 0.0847-0.08466h1.7779c0.0476 0 0.0847 0.04233 0.0847 0.08466v1.7779c0 0.04762-0.037 0.08466-0.0847 0.08466h-1.7779c-0.0423 0-0.0847-0.03704-0.0847-0.08466zm0.16932 1.7779-0.0847-0.08466h1.7779l-0.0847 0.08466v-1.7779l0.0847 0.08466h-1.7779l0.0847-0.08466z" fill="#98281f" stroke="#98281f" stroke-linejoin="bevel" stroke-width=".042331px"/>
<text x="111.7989" y="48.650024" fill="#000000" font-family="Arial" font-size="3.5057px" font-weight="400" letter-spacing="0px" stroke-width=".26458" word-spacing="0px" style="line-height:125%" xml:space="preserve"><tspan x="111.7989" y="48.650024" stroke-width=".26458"><tspan dx="0" dy="0" fill="#000000" font-family="Arial" font-size="3.5057px" font-weight="400" stroke-width=".26458">Nein, aber ich bin Übersetzer</tspan></tspan></text>
<path d="m109.25 56.006v1.7779h1.7779v-1.7779z" fill="#dea603" fill-rule="evenodd"/>
<path d="m109.17 56.006c0-0.04233 0.0423-0.08466 0.0847-0.08466h1.7779c0.0476 0 0.0847 0.04233 0.0847 0.08466v1.7779c0 0.04762-0.037 0.08466-0.0847 0.08466h-1.7779c-0.0423 0-0.0847-0.03704-0.0847-0.08466zm0.16932 1.7779-0.0847-0.08466h1.7779l-0.0847 0.08466v-1.7779l0.0847 0.08466h-1.7779l0.0847-0.08466z" fill="#a37902" stroke="#a37902" stroke-linejoin="bevel" stroke-width=".042331px"/>
<text x="111.7989" y="58.03204" fill="#000000" font-family="Arial" font-size="3.5057px" font-weight="400" letter-spacing="0px" stroke-width=".26458" word-spacing="0px" style="line-height:125%" xml:space="preserve"><tspan x="111.7989" y="58.03204" stroke-width=".26458"><tspan dx="0" dy="0" fill="#000000" font-family="Arial" font-size="3.5057px" font-weight="400" stroke-width=".26458">Ich bin Autor und Übersetzer</tspan></tspan></text>
<path d="m109.25 65.403v1.7779h1.7779v-1.7779z" fill="#2d9449" fill-rule="evenodd"/>
<path d="m109.17 65.403c0-0.04233 0.0423-0.08466 0.0847-0.08466h1.7779c0.0476 0 0.0847 0.04233 0.0847 0.08466v1.7779c0 0.04762-0.037 0.08466-0.0847 0.08466h-1.7779c-0.0423 0-0.0847-0.03704-0.0847-0.08466zm0.16932 1.7779-0.0847-0.08466h1.7779l-0.0847 0.08466v-1.7779l0.0847 0.08466h-1.7779l0.0847-0.08466z" fill="#1e6c33" stroke="#1e6c33" stroke-linejoin="bevel" stroke-width=".042331px"/>
<text x="111.7989" y="67.414047" fill="#000000" font-family="Arial" font-size="3.5057px" font-weight="400" letter-spacing="0px" stroke-width=".26458" word-spacing="0px" style="line-height:125%" xml:space="preserve"><tspan x="111.7989" y="67.414047" stroke-width=".26458"><tspan dx="0" dy="0" fill="#000000" font-family="Arial" font-size="3.5057px" font-weight="400" stroke-width=".26458">Ich bin nur Leser</tspan></tspan></text>
<path d="m109.25 74.801v1.7356h1.7779v-1.7356z" fill="#e26001" fill-rule="evenodd"/>
<path d="m109.17 74.801c0-0.04233 0.0423-0.08466 0.0847-0.08466h1.7779c0.0476 0 0.0847 0.04233 0.0847 0.08466v1.7356c0 0.04762-0.037 0.08466-0.0847 0.08466h-1.7779c-0.0423 0-0.0847-0.03704-0.0847-0.08466zm0.16932 1.7356-0.0847-0.08466h1.7779l-0.0847 0.08466v-1.7356l0.0847 0.08466h-1.7779l0.0847-0.08466z" fill="#a64400" stroke="#a64400" stroke-linejoin="bevel" stroke-width=".042331px"/>
<text x="111.7989" y="76.796059" fill="#000000" font-family="Arial" font-size="3.5057px" font-weight="400" letter-spacing="0px" stroke-width=".26458" word-spacing="0px" style="line-height:125%" xml:space="preserve"><tspan x="111.7989" y="76.796059" stroke-width=".26458"><tspan dx="0" dy="0" fill="#000000" font-family="Arial" font-size="3.5057px" font-weight="400" stroke-width=".26458">Ich schreibe gerade meinen ersten</tspan></tspan></text>
<text x="111.7989" y="80.859848" fill="#000000" font-family="Arial" font-size="3.5057px" font-weight="400" letter-spacing="0px" stroke-width=".26458" word-spacing="0px" style="line-height:125%" xml:space="preserve"><tspan x="111.7989" y="80.859848" stroke-width=".26458"><tspan dx="0" dy="0" fill="#000000" font-family="Arial" font-size="3.5057px" font-weight="400" stroke-width=".26458">Artikel</tspan></tspan></text>
<path d="m109.25 84.156v1.7779h1.7779v-1.7779z" fill="#3da7af" fill-rule="evenodd"/>
<path d="m109.17 84.156c0-0.04233 0.0423-0.08466 0.0847-0.08466h1.7779c0.0476 0 0.0847 0.04233 0.0847 0.08466v1.7779c0 0.04762-0.037 0.08466-0.0847 0.08466h-1.7779c-0.0423 0-0.0847-0.03704-0.0847-0.08466zm0.16932 1.7779-0.0847-0.08466h1.7779l-0.0847 0.08466v-1.7779l0.0847 0.08466h-1.7779l0.0847-0.08466z" fill="#2a7a80" stroke="#2a7a80" stroke-linejoin="bevel" stroke-width=".042331px"/>
<text x="111.7989" y="86.17807" fill="#000000" font-family="Arial" font-size="3.5057px" font-weight="400" letter-spacing="0px" stroke-width=".26458" word-spacing="0px" style="line-height:125%" xml:space="preserve"><tspan x="111.7989" y="86.17807" stroke-width=".26458"><tspan dx="0" dy="0" fill="#000000" font-family="Arial" font-size="3.5057px" font-weight="400" stroke-width=".26458">Ich will Autor werden</tspan></tspan></text>
<path d="m109.25 93.553v1.7779h1.7779v-1.7779z" fill="#8eacf7" fill-rule="evenodd"/>
<path d="m109.17 93.553c0-0.04233 0.0423-0.08466 0.0847-0.08466h1.7779c0.0476 0 0.0847 0.04233 0.0847 0.08466v1.7779c0 0.04762-0.037 0.08466-0.0847 0.08466h-1.7779c-0.0423 0-0.0847-0.03704-0.0847-0.08466zm0.16932 1.7779-0.0847-0.08466h1.7779l-0.0847 0.08466v-1.7779l0.0847 0.08466h-1.7779l0.0847-0.08466z" fill="#8999c8" stroke="#8999c8" stroke-linejoin="bevel" stroke-width=".042331px"/>
<text x="111.7989" y="95.560089" fill="#000000" font-family="Arial" font-size="3.5057px" font-weight="400" letter-spacing="0px" stroke-width=".26458" word-spacing="0px" style="line-height:125%" xml:space="preserve"><tspan x="111.7989" y="95.560089" stroke-width=".26458"><tspan dx="0" dy="0" fill="#000000" font-family="Arial" font-size="3.5057px" font-weight="400" stroke-width=".26458">Ich war mal aktiver Autor, schreibe</tspan></tspan></text>
<text x="111.7989" y="99.623878" fill="#000000" font-family="Arial" font-size="3.5057px" font-weight="400" letter-spacing="0px" stroke-width=".26458" word-spacing="0px" style="line-height:125%" xml:space="preserve"><tspan x="111.7989" y="99.623878" stroke-width=".26458"><tspan dx="0" dy="0" fill="#000000" font-family="Arial" font-size="3.5057px" font-weight="400" stroke-width=".26458">in letzter Zeit aber nicht mehr</tspan></tspan></text>
<path d="m109.25 102.91v1.7779h1.7779v-1.7779z" fill="#ef8f8b" fill-rule="evenodd"/>
<path d="m109.17 102.91c0-0.0423 0.0423-0.0847 0.0847-0.0847h1.7779c0.0476 0 0.0847 0.0423 0.0847 0.0847v1.7779c0 0.0476-0.037 0.0847-0.0847 0.0847h-1.7779c-0.0423 0-0.0847-0.037-0.0847-0.0847zm0.16932 1.7779-0.0847-0.0847h1.7779l-0.0847 0.0847v-1.7779l0.0847 0.0847h-1.7779l0.0847-0.0847z" fill="#c38987" stroke="#c38987" stroke-linejoin="bevel" stroke-width=".042331px"/>
<text x="111.79891" y="105.01179" fill="#000000" font-family="Arial" font-size="3.5057px" font-weight="400" letter-spacing="0px" stroke-width=".26458" word-spacing="0px" style="line-height:125%" xml:space="preserve"><tspan x="111.79891" y="105.01179" stroke-width=".26458"><tspan dx="0" dy="0" fill="#000000" font-family="Arial" font-size="3.5057px" font-weight="400" stroke-width=".26458">„Ich war mal Autor nun bin ich </tspan></tspan></text>
<text x="111.79891" y="109.07558" fill="#000000" font-family="Arial" font-size="3.5057px" font-weight="400" letter-spacing="0px" stroke-width=".26458" word-spacing="0px" style="line-height:125%" xml:space="preserve"><tspan x="111.79891" y="109.07558" stroke-width=".26458"><tspan dx="0" dy="0" fill="#000000" font-family="Arial" font-size="3.5057px" font-weight="400" stroke-width=".26458">Übersetzer“</tspan></tspan></text>
<path d="m109.25 112.31v1.7779h1.7779v-1.7779z" fill="#fcce84" fill-rule="evenodd"/>
<path d="m109.17 112.31c0-0.0423 0.0423-0.0847 0.0847-0.0847h1.7779c0.0476 0 0.0847 0.0423 0.0847 0.0847v1.7779c0 0.0476-0.037 0.0847-0.0847 0.0847h-1.7779c-0.0423 0-0.0847-0.037-0.0847-0.0847zm0.16932 1.7779-0.0847-0.0847h1.7779l-0.0847 0.0847v-1.7779l0.0847 0.0847h-1.7779l0.0847-0.0847z" fill="#ccae84" stroke="#ccae84" stroke-linejoin="bevel" stroke-width=".042331px"/>
<text x="111.79891" y="114.39381" fill="#000000" font-family="Arial" font-size="3.5057px" font-weight="400" letter-spacing="0px" stroke-width=".26458" word-spacing="0px" style="line-height:125%" xml:space="preserve"><tspan x="111.79891" y="114.39381" stroke-width=".26458"><tspan dx="0" dy="0" fill="#000000" font-family="Arial" font-size="3.5057px" font-weight="400" stroke-width=".26458">„Ich will Autor und Übersetzer </tspan></tspan></text>
<text x="111.79891" y="118.4576" fill="#000000" font-family="Arial" font-size="3.5057px" font-weight="400" letter-spacing="0px" stroke-width=".26458" word-spacing="0px" style="line-height:125%" xml:space="preserve"><tspan x="111.79891" y="118.4576" stroke-width=".26458"><tspan dx="0" dy="0" fill="#000000" font-family="Arial" font-size="3.5057px" font-weight="400" stroke-width=".26458">werden“</tspan></tspan></text>
</g>
</svg>
