<?xml version="1.0" encoding="UTF-8"?>
<svg width="128.23mm" height="71.243mm" version="1.1" viewBox="0 0 128.23 71.243" xmlns="http://www.w3.org/2000/svg" xmlns:cc="http://creativecommons.org/ns#" xmlns:dc="http://purl.org/dc/elements/1.1/" xmlns:rdf="http://www.w3.org/1999/02/22-rdf-syntax-ns#">
<metadata>
<rdf:RDF>
<cc:Work rdf:about="">
<dc:format>image/svg+xml</dc:format>
<dc:type rdf:resource="http://purl.org/dc/dcmitype/StillImage"/>
<dc:title/>
</cc:Work>
</rdf:RDF>
</metadata>
<g transform="translate(-274.58 -1.7256)">
<path d="m310.21 37.344-3.9844 30.254c16.708 2.2012 32.037-9.5615 34.235-26.269 2.2012-16.708-9.5615-32.037-26.269-34.235-1.3202-0.17462-2.651-0.26192-3.9818-0.26192z" fill="#4285f4" fill-rule="evenodd"/>
<path d="m310.29 37.344-3.9844 30.267-0.0741-0.09524 0.78313 0.0926 0.77783 0.07408 0.77519 0.05291 0.77254 0.0291 0.76726 0.01323 0.76725-0.0053 0.76196-0.02646 0.75931-0.04233 0.75403-0.0635 0.74873-0.08202 0.74344-0.09789 0.74079-0.11905 0.73551-0.13758 0.73021-0.15345 0.72227-0.17197 0.71699-0.1852 0.71433-0.20636 0.70376-0.22488 0.69582-0.23811 0.69052-0.25663 0.68524-0.26986 0.67465-0.29103 0.66672-0.30426 0.66142-0.31748 1.2938-0.68788 1.2567-0.74344 1.2197-0.80429 1.18-0.85985 1.135-0.91806 1.0927-0.96832 1.0477-1.0239 0.99478-1.0715 0.94716-1.1218 0.8916-1.1694 0.83869-1.2117 0.77783-1.2567 0.71963-1.299 0.33865-0.66407 0.32277-0.67465 0.30426-0.68524 0.29103-0.69317 0.2725-0.70376 0.25399-0.71169 0.24076-0.72228 0.22223-0.73021 0.20372-0.73815 0.1852-0.74344 0.16668-0.75402 0.15081-0.76461 0.13228-0.7699 0.11112-0.77783 0.0952-0.77784 0.0741-0.77784 0.0529-0.77519 0.0291-0.77254 0.0132-0.76725-5e-3 -0.76725-0.0265-0.76196-0.0423-0.75932-0.0635-0.75402-0.082-0.74873-0.0979-0.74344-0.11906-0.7408-0.13758-0.73815-0.15345-0.72757-0.17197-0.72228-0.18519-0.71698-0.20637-0.71434-0.22488-0.70376-0.23812-0.69582-0.25663-0.69053-0.26986-0.68524-0.29103-0.67465-0.30425-0.66936-0.31749-0.66142-0.68787-1.2937-0.74345-1.2567-0.80429-1.2197-0.85985-1.18-0.91806-1.135-0.96832-1.0927-1.0239-1.0477-1.0715-0.99743-1.1218-0.94451-1.1694-0.89424-1.2117-0.83868-1.2567-0.78048-1.299-0.72228-0.66406-0.336-0.67466-0.32278-0.68523-0.30426-0.69318-0.29103-0.70375-0.27251-0.71169-0.25663-0.72228-0.23811-0.73021-0.22488-0.73815-0.20372-0.74344-0.1852-0.75667-0.16932-0.76196-0.1508-0.76989-0.13228-0.77784-0.11376-0.98685-0.10054-0.99213-0.08202-0.99478-0.05027-0.99478-0.01587 0.0847-0.08466zm-0.16933-30.513c0-0.02117 0.0106-0.04233 0.0265-0.05821 0.0159-0.01587 0.037-0.02646 0.0609-0.02646l1.0001 0.01852 1.0001 0.05027 0.99742 0.08202 0.99214 0.10054 0.78313 0.11376 0.77519 0.13228 0.7646 0.1508 0.75932 0.16932 0.74873 0.19049 0.74344 0.20372 0.73286 0.22488 0.72492 0.23811 0.71698 0.26192 0.70905 0.27251 0.69846 0.29103 0.68524 0.30955 0.67994 0.32278 0.66936 0.33865 1.3043 0.72492 1.2673 0.78577 1.217 0.84398 1.1747 0.89954 1.1271 0.9498 1.0768 1.0027 1.0292 1.053 0.97361 1.098 0.92335 1.1456 0.86514 1.1853 0.80959 1.225 0.74873 1.2646 0.68788 1.3017 0.32278 0.66142 0.30425 0.67465 0.29103 0.67994 0.2725 0.68524 0.25928 0.69582 0.23811 0.70111 0.22489 0.70905 0.20636 0.71434 0.19049 0.72228 0.17197 0.72757 0.15345 0.73286 0.13758 0.73815 0.11905 0.74609 0.0979 0.74873 0.082 0.75402 0.0635 0.75932 0.045 0.75931 0.0265 0.76725 5e-3 0.77254-0.0132 0.77254-0.0317 0.77784-0.0529 0.78048-0.0741 0.77783-0.0952 0.78313-0.11112 0.78313-0.13229 0.77519-0.1508 0.76461-0.16668 0.75931-0.19049 0.74873-0.20372 0.74344-0.22224 0.7355-0.24075 0.72228-0.25928 0.71698-0.27251 0.70905-0.29103 0.69846-0.30954 0.68524-0.32278 0.67994-0.34129 0.66936-0.72228 1.3043-0.78312 1.2673-0.84398 1.217-0.89689 1.1747-0.95245 1.1271-1.0001 1.0768-1.053 1.0292-1.098 0.97362-1.1456 0.92335-1.1853 0.86514-1.225 0.80958-1.2646 0.74873-1.3017 0.68788-0.66143 0.32277-0.67201 0.30426-0.67994 0.29102-0.68523 0.2725-0.69582 0.25928-0.70111 0.23811-0.70905 0.22488-0.71434 0.20636-0.72227 0.19049-0.72757 0.17197-0.7355 0.15345-0.7355 0.13758-0.74609 0.11906-0.74873 0.09789-0.75403 0.08202-0.75931 0.06349-0.75931 0.04498-0.76726 0.02646-0.77254 0.0053-0.77254-0.01323-0.77784-0.03175-0.78048-0.05291-0.77783-0.07408-0.78313-0.0926c-0.0238-0.0026-0.045-0.01323-0.0582-0.03175s-0.0185-0.03969-0.0159-0.0635l3.9818-30.243z" fill="#2e60b3" stroke="#2e60b3" stroke-linejoin="bevel" stroke-width=".042331px"/>
<path d="m310.21 37.344-29.476-7.8974c-4.3601 16.279 5.2993 33.01 21.578 37.373 1.2858 0.34394 2.5928 0.60322 3.913 0.77784z" fill="#ea4335" fill-rule="evenodd"/>
<path d="m310.13 37.334 0.0608 0.0926-29.476-7.8974 0.10318-0.06085-0.19313 0.76461-0.17197 0.76196-0.15345 0.76196-0.13493 0.76196-0.11377 0.75931-0.0926 0.75932-0.0741 0.76196-0.0556 0.75667-0.037 0.75402-0.0159 0.75402 3e-3 0.75138 0.0185 0.75138 0.0397 0.74609 0.0582 0.74344 0.0741 0.73815 0.0952 0.7355 0.11112 0.7355 0.12964 0.72492 0.14551 0.72228 0.16404 0.71963 0.17726 0.71434 0.19842 0.7064 0.21431 0.70111 0.23282 0.69582 0.24869 0.69053 0.25928 0.68259 0.28044 0.67465 0.29632 0.66936 0.63761 1.3123 0.70111 1.2832 0.75932 1.2461 0.82016 1.2117 0.87573 1.1668 0.93128 1.1297 0.98685 1.0821 1.0424 1.0398 1.0927 0.98684 1.1456 0.93922 1.1906 0.88102 1.2435 0.8281 1.2885 0.7699 1.3334 0.70905 0.67994 0.33071 0.69846 0.31219 0.70376 0.30161 0.71434 0.28309 0.72492 0.26192 0.73815 0.2487 0.74608 0.23018 0.75403 0.2143 0.97361 0.24605 0.97362 0.20901 0.97891 0.17991 0.9842 0.14551-0.0952 0.07144zm-3.8177 30.277c-3e-3 0.02117-0.0132 0.04233-0.0317 0.05556s-0.0423 0.01852-0.0635 0.01588l-0.98948-0.14551-0.9842-0.17991-0.97891-0.21165-0.97891-0.2487-0.75931-0.2143-0.75138-0.23018-0.73815-0.2487-0.73021-0.26722-0.71963-0.28309-0.70905-0.30161-0.69846-0.31748-0.69053-0.33071-1.3387-0.71434-1.2938-0.77519-1.2514-0.8334-1.1985-0.88631-1.1509-0.94451-1.098-0.99214-1.0477-1.045-0.99213-1.0874-0.93658-1.135-0.88102-1.1773-0.82545-1.217-0.76461-1.2514-0.70111-1.2911-0.6429-1.3202-0.29632-0.66936-0.28045-0.67994-0.26457-0.68788-0.24869-0.69052-0.23282-0.70111-0.2143-0.7064-0.20108-0.71169-0.1799-0.71434-0.16404-0.72492-0.14551-0.72757-0.12964-0.73021-0.11112-0.7355-0.0952-0.7408-0.0741-0.74344-0.0582-0.74873-0.0423-0.75138-0.0185-0.75138-3e-3 -0.75667 0.0185-0.75932 0.037-0.75931 0.0556-0.76196 0.0741-0.76196 0.0926-0.76461 0.11377-0.76461 0.13493-0.76725 0.15345-0.76725 0.17461-0.76196 0.19314-0.76461c8e-3 -0.02381 0.0212-0.04233 0.0397-0.05291 0.0212-0.01058 0.0423-0.01588 0.0661-0.0079l29.476 7.8974c0.0397 0.01058 0.0661 0.05027 0.0609 0.0926z" fill="#ac2f24" stroke="#ac2f24" stroke-linejoin="bevel" stroke-width=".042331px"/>
<path d="m310.21 37.344-15.258-26.425c-7.0084 4.0479-12.123 10.712-14.218 18.528z" fill="#fbbc04" fill-rule="evenodd"/>
<path d="m310.23 37.265-0.0952 0.1217-15.258-26.425 0.11641 0.03175-1.2911 0.78842-1.2435 0.84662-1.1932 0.90218-1.1456 0.95774-1.0953 1.0107-1.0424 1.0609-0.98684 1.1112-0.93129 1.1535-0.87573 1.1985-0.81487 1.2408-0.75402 1.2832-0.35188 0.65349-0.3413 0.66407-0.32277 0.67201-0.30426 0.68259-0.29102 0.68788-0.27251 0.69846-0.25663 0.70376-0.23811 0.71434-0.22224 0.71963-0.20637 0.72757-0.0582-0.10318zm-29.521-7.736c-0.0212-0.0053-0.0397-0.01852-0.0503-0.03969-0.0132-0.01852-0.0159-0.04233-8e-3 -0.0635l0.20636-0.73286 0.22224-0.72492 0.23811-0.71698 0.26193-0.7064 0.2725-0.70376 0.29103-0.69317 0.30955-0.68259 0.32277-0.6773 0.34129-0.66936 0.35717-0.65878 0.75932-1.2885 0.82016-1.2461 0.88102-1.2091 0.93658-1.1588 0.99213-1.1165 1.0477-1.0662 1.1006-1.0159 1.1509-0.96303 1.2011-0.90747 1.2514-0.85192 1.2911-0.78842c0.0185-0.01058 0.0423-0.01587 0.0635-0.01058 0.0238 0.0079 0.0423 0.02117 0.0529 0.03969l15.258 26.425c0.0185 0.03175 0.0159 0.06879-5e-3 0.09525-0.0212 0.02646-0.0556 0.03969-0.09 0.0291z" fill="#b98902" stroke="#b98902" stroke-linejoin="bevel" stroke-width=".042331px"/>
<path d="m310.21 37.344v-30.513c-5.3575 0-10.62 1.4102-15.258 4.0876z" fill="#34a853" fill-rule="evenodd"/>
<path d="m310.28 37.302-0.15874 0.04233v-30.513l0.0873 0.08466-1.0027 0.01587-0.99742 0.05027-0.99479 0.08202-0.98949 0.11376-0.9842 0.14816-0.97626 0.17726-0.97097 0.21166-0.96303 0.24076-0.9551 0.26986-0.94716 0.30426-0.93657 0.336-0.92335 0.36511-0.91277 0.39685-0.90218 0.42331-0.88895 0.4577-0.87308 0.48416 0.0317-0.11641zm-15.403-26.341c-0.0132-0.01852-0.0159-0.04233-8e-3 -0.0635 5e-3 -0.02116 0.0185-0.03969 0.0397-0.05291l0.87837-0.48681 0.89425-0.45771 0.90747-0.4286 0.91806-0.39685 0.92864-0.3704 0.94187-0.336 0.95245-0.30426 0.96038-0.27515 0.96833-0.24076 0.97626-0.21166 0.98155-0.17726 0.98949-0.14816 0.99479-0.11376 1.0001-0.08202 1.0027-0.05291 1.0027-0.01587c0.0238 0 0.045 0.01058 0.0608 0.02646 0.0159 0.01587 0.0238 0.03704 0.0238 0.05821v30.513c0 0.03969-0.0238 0.07408-0.0609 0.08202-0.037 0.01058-0.0767-0.0053-0.0952-0.03969z" fill="#237a3b" stroke="#237a3b" stroke-linejoin="bevel" stroke-width=".042331px"/>
<text x="325.61664" y="41.709595" fill="#000000" font-family="Arial" font-size="3.5057px" font-weight="400" letter-spacing="0px" stroke-width=".26458" word-spacing="0px" style="line-height:125%" xml:space="preserve"><tspan x="325.61664" y="41.709595" stroke-width=".26458"><tspan dx="0" dy="0" fill="#000000" font-family="Arial" font-size="3.5057px" font-weight="400" stroke-width=".26458">25; 52%</tspan></tspan></text>
<text x="284.07919" y="49.117542" fill="#000000" font-family="Arial" font-size="3.5057px" font-weight="400" letter-spacing="0px" stroke-width=".26458" word-spacing="0px" style="line-height:125%" xml:space="preserve"><tspan x="284.07919" y="49.117542" stroke-width=".26458"><tspan dx="0" dy="0" fill="#000000" font-family="Arial" font-size="3.5057px" font-weight="400" stroke-width=".26458">13; 27%</tspan></tspan></text>
<text x="285.39499" y="25.570848" fill="#000000" font-family="Arial" font-size="3.5057px" font-weight="400" letter-spacing="0px" stroke-width=".26458" word-spacing="0px" style="line-height:125%" xml:space="preserve"><tspan x="285.39499" y="25.570848" stroke-width=".26458"><tspan dx="0" dy="0" fill="#000000" font-family="Arial" font-size="3.5057px" font-weight="400" stroke-width=".26458">6; 13%</tspan></tspan></text>
<text x="299.14557" y="13.929785" fill="#000000" font-family="Arial" font-size="3.5057px" font-weight="400" letter-spacing="0px" stroke-width=".26458" word-spacing="0px" style="line-height:125%" xml:space="preserve"><tspan x="299.14557" y="13.929785" stroke-width=".26458"><tspan dx="0" dy="0" fill="#000000" font-family="Arial" font-size="3.5057px" font-weight="400" stroke-width=".26458">4; 8%</tspan></tspan></text>
<path d="m346.17 14.38v1.7356h1.7779v-1.7356z" fill="#4285f4" fill-rule="evenodd"/>
<path d="m346.09 14.38c0-0.04498 0.0397-0.08466 0.0847-0.08466h1.7779c0.0476 0 0.0847 0.03969 0.0847 0.08466v1.7356c0 0.04762-0.037 0.08466-0.0847 0.08466h-1.7779c-0.045 0-0.0847-0.03704-0.0847-0.08466zm0.16932 1.7356-0.0847-0.08466h1.7779l-0.0847 0.08466v-1.7356l0.0847 0.08466h-1.7779l0.0847-0.08466z" fill="#2e60b3" stroke="#2e60b3" stroke-linejoin="bevel" stroke-width=".042331px"/>
<text x="348.7294" y="16.351938" fill="#000000" font-family="Arial" font-size="3.5057px" font-weight="400" letter-spacing="0px" stroke-width=".26458" word-spacing="0px" style="line-height:125%" xml:space="preserve"><tspan x="348.7294" y="16.351938" stroke-width=".26458"><tspan dx="0" dy="0" fill="#000000" font-family="Arial" font-size="3.5057px" font-weight="400" stroke-width=".26458">Ich finde der ist gut verständlich</tspan></tspan></text>
<path d="m346.17 28.984v1.7356h1.7779v-1.7356z" fill="#ea4335" fill-rule="evenodd"/>
<path d="m346.09 28.984c0-0.04498 0.0397-0.08466 0.0847-0.08466h1.7779c0.0476 0 0.0847 0.03969 0.0847 0.08466v1.7356c0 0.04762-0.037 0.08466-0.0847 0.08466h-1.7779c-0.045 0-0.0847-0.03704-0.0847-0.08466zm0.16932 1.7356-0.0847-0.08466h1.7779l-0.0847 0.08466v-1.7356l0.0847 0.08466h-1.7779l0.0847-0.08466z" fill="#ac2f24" stroke="#ac2f24" stroke-linejoin="bevel" stroke-width=".042331px"/>
<text x="348.7294" y="30.959013" fill="#000000" font-family="Arial" font-size="3.5057px" font-weight="400" letter-spacing="0px" stroke-width=".26458" word-spacing="0px" style="line-height:125%" xml:space="preserve"><tspan x="348.7294" y="30.959013" stroke-width=".26458"><tspan dx="0" dy="0" fill="#000000" font-family="Arial" font-size="3.5057px" font-weight="400" stroke-width=".26458">Verbesserungswürdig, aber</tspan></tspan></text>
<text x="348.7294" y="35.0228" fill="#000000" font-family="Arial" font-size="3.5057px" font-weight="400" letter-spacing="0px" stroke-width=".26458" word-spacing="0px" style="line-height:125%" xml:space="preserve"><tspan x="348.7294" y="35.0228" stroke-width=".26458"><tspan dx="0" dy="0" fill="#000000" font-family="Arial" font-size="3.5057px" font-weight="400" stroke-width=".26458">okay</tspan></tspan></text>
<path d="m346.17 43.588v1.7779h1.7779v-1.7779z" fill="#fbbc04" fill-rule="evenodd"/>
<path d="m346.09 43.588c0-0.04498 0.0397-0.08466 0.0847-0.08466h1.7779c0.0476 0 0.0847 0.03969 0.0847 0.08466v1.7779c0 0.04762-0.037 0.08466-0.0847 0.08466h-1.7779c-0.045 0-0.0847-0.03704-0.0847-0.08466zm0.16932 1.7779-0.0847-0.08466h1.7779l-0.0847 0.08466v-1.7779l0.0847 0.08466h-1.7779l0.0847-0.08466z" fill="#b98902" stroke="#b98902" stroke-linejoin="bevel" stroke-width=".042331px"/>
<text x="348.7294" y="45.566086" fill="#000000" font-family="Arial" font-size="3.5057px" font-weight="400" letter-spacing="0px" stroke-width=".26458" word-spacing="0px" style="line-height:125%" xml:space="preserve"><tspan x="348.7294" y="45.566086" stroke-width=".26458"><tspan dx="0" dy="0" fill="#000000" font-family="Arial" font-size="3.5057px" font-weight="400" stroke-width=".26458">Schwer reinzukommen, muss</tspan></tspan></text>
<text x="348.7294" y="49.629875" fill="#000000" font-family="Arial" font-size="3.5057px" font-weight="400" letter-spacing="0px" stroke-width=".26458" word-spacing="0px" style="line-height:125%" xml:space="preserve"><tspan x="348.7294" y="49.629875" stroke-width=".26458"><tspan dx="0" dy="0" fill="#000000" font-family="Arial" font-size="3.5057px" font-weight="400" stroke-width=".26458">besser erklärt werden.</tspan></tspan></text>
<path d="m346.17 58.192v1.7779h1.7779v-1.7779z" fill="#34a853" fill-rule="evenodd"/>
<path d="m346.09 58.192c0-0.04498 0.0397-0.08466 0.0847-0.08466h1.7779c0.0476 0 0.0847 0.03968 0.0847 0.08466v1.7779c0 0.04762-0.037 0.08466-0.0847 0.08466h-1.7779c-0.045 0-0.0847-0.03704-0.0847-0.08466zm0.16932 1.7779-0.0847-0.08466h1.7779l-0.0847 0.08466v-1.7779l0.0847 0.08466h-1.7779l0.0847-0.08466z" fill="#237a3b" stroke="#237a3b" stroke-linejoin="bevel" stroke-width=".042331px"/>
<text x="348.7294" y="60.173164" fill="#000000" font-family="Arial" font-size="3.5057px" font-weight="400" letter-spacing="0px" stroke-width=".26458" word-spacing="0px" style="line-height:125%" xml:space="preserve"><tspan x="348.7294" y="60.173164" stroke-width=".26458"><tspan dx="0" dy="0" fill="#000000" font-family="Arial" font-size="3.5057px" font-weight="400" stroke-width=".26458">Der interessiert mich nicht, ich</tspan></tspan></text>
<text x="348.7294" y="64.236954" fill="#000000" font-family="Arial" font-size="3.5057px" font-weight="400" letter-spacing="0px" stroke-width=".26458" word-spacing="0px" style="line-height:125%" xml:space="preserve"><tspan x="348.7294" y="64.236954" stroke-width=".26458"><tspan dx="0" dy="0" fill="#000000" font-family="Arial" font-size="3.5057px" font-weight="400" stroke-width=".26458">lese nur Übersetzungen</tspan></tspan></text>
</g>
</svg>
