<?xml version="1.0" encoding="UTF-8"?>
<svg width="413.59" height="245.81" version="1.1" viewBox="0 0 109.43 65.035" xmlns="http://www.w3.org/2000/svg" xmlns:cc="http://creativecommons.org/ns#" xmlns:dc="http://purl.org/dc/elements/1.1/" xmlns:rdf="http://www.w3.org/1999/02/22-rdf-syntax-ns#">
<defs>
<clipPath id="a">
<path d="m198.07 0.63997h200.63v215.99h-200.63z"/>
</clipPath>
</defs>
<metadata>
<rdf:RDF>
<cc:Work rdf:about="">
<dc:format>image/svg+xml</dc:format>
<dc:type rdf:resource="http://purl.org/dc/dcmitype/StillImage"/>
<dc:title/>
</cc:Work>
</rdf:RDF>
</metadata>
<path d="m53.467 1.4276v56.894h52.83v-56.894z" fill="#e7e7e7" fill-rule="evenodd"/>
<path d="m79.966 1.4276v56.894h-0.16933v-56.894zm26.415 0v56.894h-0.16933v-56.894z" fill="#898989" stroke="#898989" stroke-linejoin="bevel" stroke-width=".042332px"/>
<path transform="matrix(.26459 0 0 .26459 1.0812 1.2794)" d="m197.99 0.55997v26.879h39.998v-26.879z" clip-path="url(#a)" fill="#3975d8" fill-rule="evenodd"/>
<path transform="matrix(.26459 0 0 .26459 1.0812 1.2794)" d="m197.67 0.55997c0-0.15999 0.15999-0.31998 0.31999-0.31998h39.998c0.17999 0 0.31998 0.15999 0.31998 0.31998v26.879c0 0.17999-0.13999 0.31998-0.31998 0.31998h-39.998c-0.16 0-0.31999-0.13999-0.31999-0.31998zm0.63997 26.879-0.31998-0.31998h39.998l-0.31998 0.31998v-26.879l0.31998 0.31998h-39.998l0.31998-0.31998z" clip-path="url(#a)" fill="#27549e" stroke="#27549e" stroke-linejoin="bevel" stroke-width=".15999px"/>
<path transform="matrix(.26459 0 0 .26459 1.0812 1.2794)" d="m197.99 27.439v26.879h119.83v-26.879z" clip-path="url(#a)" fill="#cf3a2e" fill-rule="evenodd"/>
<path transform="matrix(.26459 0 0 .26459 1.0812 1.2794)" d="m197.67 27.439c0-0.15999 0.15999-0.31998 0.31999-0.31998h119.83c0.17999 0 0.31999 0.15999 0.31999 0.31998v26.879c0 0.17999-0.14 0.31998-0.31999 0.31998h-119.83c-0.16 0-0.31999-0.13999-0.31999-0.31998zm0.63997 26.879-0.31998-0.31998h119.83l-0.31998 0.31998v-26.879l0.31998 0.31998h-119.83l0.31998-0.31998z" clip-path="url(#a)" fill="#98281f" stroke="#98281f" stroke-linejoin="bevel" stroke-width=".15999px"/>
<path transform="matrix(.26459 0 0 .26459 1.0812 1.2794)" d="m197.99 54.317v26.879h179.83v-26.879z" clip-path="url(#a)" fill="#dea603" fill-rule="evenodd"/>
<path transform="matrix(.26459 0 0 .26459 1.0812 1.2794)" d="m197.67 54.317c0-0.15999 0.15999-0.31998 0.31999-0.31998h179.83c0.17999 0 0.31998 0.15999 0.31998 0.31998v26.879c0 0.17999-0.13999 0.31998-0.31998 0.31998h-179.83c-0.16 0-0.31999-0.13999-0.31999-0.31998zm0.63997 26.879-0.31998-0.31998h179.83l-0.31999 0.31998v-26.879l0.31999 0.31998h-179.83l0.31998-0.31998z" clip-path="url(#a)" fill="#a37902" stroke="#a37902" stroke-linejoin="bevel" stroke-width=".15999px"/>
<path transform="matrix(.26459 0 0 .26459 1.0812 1.2794)" d="m197.99 81.196v26.879h89.915v-26.879z" clip-path="url(#a)" fill="#2d9449" fill-rule="evenodd"/>
<path transform="matrix(.26459 0 0 .26459 1.0812 1.2794)" d="m197.67 81.196c0-0.15999 0.15999-0.31998 0.31999-0.31998h89.915c0.17999 0 0.31998 0.15999 0.31998 0.31998v26.879c0 0.17999-0.13999 0.31998-0.31998 0.31998h-89.915c-0.16 0-0.31999-0.13999-0.31999-0.31998zm0.63997 26.879-0.31998-0.31999h89.915l-0.31999 0.31999v-26.879l0.31999 0.31998h-89.915l0.31998-0.31998z" clip-path="url(#a)" fill="#1e6c33" stroke="#1e6c33" stroke-linejoin="bevel" stroke-width=".15999px"/>
<path transform="matrix(.26459 0 0 .26459 1.0812 1.2794)" d="m197.99 108.07v26.879h59.997v-26.879z" clip-path="url(#a)" fill="#e26001" fill-rule="evenodd"/>
<path transform="matrix(.26459 0 0 .26459 1.0812 1.2794)" d="m197.67 108.07c0-0.16 0.15999-0.31999 0.31999-0.31999h59.997c0.17999 0 0.31998 0.15999 0.31998 0.31999v26.879c0 0.17999-0.13999 0.31998-0.31998 0.31998h-59.997c-0.16 0-0.31999-0.13999-0.31999-0.31998zm0.63997 26.879-0.31998-0.31998h59.997l-0.31998 0.31998v-26.879l0.31998 0.31998h-59.997l0.31998-0.31998z" clip-path="url(#a)" fill="#a64400" stroke="#a64400" stroke-linejoin="bevel" stroke-width=".15999px"/>
<path transform="matrix(.26459 0 0 .26459 1.0812 1.2794)" d="m197.99 134.95v26.879h79.996v-26.879z" clip-path="url(#a)" fill="#3da7af" fill-rule="evenodd"/>
<path transform="matrix(.26459 0 0 .26459 1.0812 1.2794)" d="m197.67 134.95c0-0.15999 0.15999-0.31998 0.31999-0.31998h79.996c0.17999 0 0.31998 0.15999 0.31998 0.31998v26.879c0 0.18-0.13999 0.31999-0.31998 0.31999h-79.996c-0.16 0-0.31999-0.13999-0.31999-0.31999zm0.63997 26.879-0.31998-0.31998h79.996l-0.31998 0.31998v-26.879l0.31998 0.31998h-79.996l0.31998-0.31998z" clip-path="url(#a)" fill="#2a7a80" stroke="#2a7a80" stroke-linejoin="bevel" stroke-width=".15999px"/>
<path transform="matrix(.26459 0 0 .26459 1.0812 1.2794)" d="m197.99 161.83v26.879h19.999v-26.879z" clip-path="url(#a)" fill="#8eacf7" fill-rule="evenodd"/>
<path transform="matrix(.26459 0 0 .26459 1.0812 1.2794)" d="m197.67 161.83c0-0.16999 0.15-0.31998 0.31999-0.31998h19.999c0.17999 0 0.31998 0.14999 0.31998 0.31998v26.879c0 0.17999-0.13999 0.31998-0.31998 0.31998h-19.999c-0.16999 0-0.31999-0.13999-0.31999-0.31998zm0.63997 26.879-0.31998-0.31998h19.999l-0.31999 0.31998v-26.879l0.31999 0.31999h-19.999l0.31998-0.31999z" clip-path="url(#a)" fill="#8999c8" stroke="#8999c8" stroke-linejoin="bevel" stroke-width=".15999px"/>
<path transform="matrix(.26459 0 0 .26459 1.0812 1.2794)" d="m197.99 188.71v26.879h10.079v-26.879z" clip-path="url(#a)" fill="#ef8f8b" fill-rule="evenodd"/>
<path transform="matrix(.26459 0 0 .26459 1.0812 1.2794)" d="m197.67 188.71c0-0.16999 0.15-0.31998 0.31999-0.31998h10.079c0.17999 0 0.31999 0.14999 0.31999 0.31998v26.879c0 0.17999-0.14 0.31999-0.31999 0.31999h-10.079c-0.16999 0-0.31999-0.14-0.31999-0.31999zm0.63997 26.879-0.31998-0.31998h10.079l-0.31998 0.31998v-26.879l0.31998 0.31998h-10.079l0.31998-0.31998z" clip-path="url(#a)" fill="#c38987" stroke="#c38987" stroke-linejoin="bevel" stroke-width=".15999px"/>
<path d="m53.467 58.237h52.83v0.16933h-52.83z" fill="#898989" stroke="#898989" stroke-linejoin="bevel" stroke-width=".042332px"/>
<path d="m53.551 58.321v1.0583h-0.16933v-1.0583zm26.415 0v1.0583h-0.16933v-1.0583zm26.415 0v1.0583h-0.16933v-1.0583z" fill="#898989" stroke="#898989" stroke-linejoin="bevel" stroke-width=".042332px"/>
<path d="m53.551 1.4276v56.894h-0.16933v-56.894z" fill="#898989" stroke="#898989" stroke-linejoin="bevel" stroke-width=".042332px"/>
<path d="m52.408 1.3429h1.0583v0.16933h-1.0583zm0 7.1117h1.0583v0.16933h-1.0583zm0 7.1117h1.0583v0.16933h-1.0583zm0 7.1117h1.0583v0.16933h-1.0583zm0 7.1117h1.0583v0.16933h-1.0583zm0 7.1117h1.0583v0.16932h-1.0583zm0 7.1117h1.0583v0.16933h-1.0583zm0 7.1117h1.0583v0.16932h-1.0583zm0 7.1117h1.0583v0.16933h-1.0583z" fill="#898989" stroke="#898989" stroke-linejoin="bevel" stroke-width=".042332px"/>
<text x="59.989517" y="6.2988391" fill="#000000" font-family="Arial" font-size="3.5058px" font-weight="400" letter-spacing="0px" stroke-width=".26459" word-spacing="0px" style="line-height:125%" xml:space="preserve"><tspan x="59.989517" y="6.2988391" stroke-width=".26459"><tspan dx="0" dy="0" fill="#000000" font-family="Arial" font-size="3.5058px" font-weight="400" stroke-width=".26459">4</tspan></tspan></text>
<text x="79.170654" y="13.410915" fill="#000000" font-family="Arial" font-size="3.5058px" font-weight="400" letter-spacing="0px" stroke-width=".26459" word-spacing="0px" style="line-height:125%" xml:space="preserve"><tspan x="79.170654" y="13.410915" stroke-width=".26459"><tspan dx="0" dy="0" fill="#000000" font-family="Arial" font-size="3.5058px" font-weight="400" stroke-width=".26459">12</tspan></tspan></text>
<text x="95.022263" y="20.522984" fill="#000000" font-family="Arial" font-size="3.5058px" font-weight="400" letter-spacing="0px" stroke-width=".26459" word-spacing="0px" style="line-height:125%" xml:space="preserve"><tspan x="95.022263" y="20.522984" stroke-width=".26459"><tspan dx="0" dy="0" fill="#000000" font-family="Arial" font-size="3.5058px" font-weight="400" stroke-width=".26459">18</tspan></tspan></text>
<text x="73.199188" y="27.635044" fill="#000000" font-family="Arial" font-size="3.5058px" font-weight="400" letter-spacing="0px" stroke-width=".26459" word-spacing="0px" style="line-height:125%" xml:space="preserve"><tspan x="73.199188" y="27.635044" stroke-width=".26459"><tspan dx="0" dy="0" fill="#000000" font-family="Arial" font-size="3.5058px" font-weight="400" stroke-width=".26459">9</tspan></tspan></text>
<text x="65.273407" y="34.74712" fill="#000000" font-family="Arial" font-size="3.5058px" font-weight="400" letter-spacing="0px" stroke-width=".26459" word-spacing="0px" style="line-height:125%" xml:space="preserve"><tspan x="65.273407" y="34.74712" stroke-width=".26459"><tspan dx="0" dy="0" fill="#000000" font-family="Arial" font-size="3.5058px" font-weight="400" stroke-width=".26459">6</tspan></tspan></text>
<text x="70.557251" y="41.85918" fill="#000000" font-family="Arial" font-size="3.5058px" font-weight="400" letter-spacing="0px" stroke-width=".26459" word-spacing="0px" style="line-height:125%" xml:space="preserve"><tspan x="70.557251" y="41.85918" stroke-width=".26459"><tspan dx="0" dy="0" fill="#000000" font-family="Arial" font-size="3.5058px" font-weight="400" stroke-width=".26459">8</tspan></tspan></text>
<text x="55.616348" y="48.971256" fill="#000000" font-family="Arial" font-size="3.5058px" font-weight="400" letter-spacing="0px" stroke-width=".26459" word-spacing="0px" style="line-height:125%" xml:space="preserve"><tspan x="55.616348" y="48.971256" stroke-width=".26459"><tspan dx="0" dy="0" fill="#000000" font-family="Arial" font-size="3.5058px" font-weight="400" stroke-width=".26459">2</tspan></tspan></text>
<text x="57.380173" y="56.083302" fill="#000000" font-family="Arial" font-size="3.5058px" font-weight="400" letter-spacing="0px" stroke-width=".26459" word-spacing="0px" style="line-height:125%" xml:space="preserve"><tspan x="57.380173" y="56.083302" stroke-width=".26459"><tspan dx="0" dy="0" fill="#000000" font-family="Arial" font-size="3.5058px" font-weight="400" stroke-width=".26459">1</tspan></tspan></text>
<text x="52.515533" y="63.670292" fill="#000000" font-family="Arial" font-size="3.5058px" font-weight="400" letter-spacing="0px" stroke-width=".26459" word-spacing="0px" style="line-height:125%" xml:space="preserve"><tspan x="52.515533" y="63.670292" stroke-width=".26459"><tspan dx="0" dy="0" fill="#000000" font-family="Arial" font-size="3.5058px" font-weight="400" stroke-width=".26459">0</tspan></tspan></text>
<text x="77.954163" y="63.670292" fill="#000000" font-family="Arial" font-size="3.5058px" font-weight="400" letter-spacing="0px" stroke-width=".26459" word-spacing="0px" style="line-height:125%" xml:space="preserve"><tspan x="77.954163" y="63.670292" stroke-width=".26459"><tspan dx="0" dy="0" fill="#000000" font-family="Arial" font-size="3.5058px" font-weight="400" stroke-width=".26459">10</tspan></tspan></text>
<text x="104.37347" y="63.670292" fill="#000000" font-family="Arial" font-size="3.5058px" font-weight="400" letter-spacing="0px" stroke-width=".26459" word-spacing="0px" style="line-height:125%" xml:space="preserve"><tspan x="104.37347" y="63.670292" stroke-width=".26459"><tspan dx="0" dy="0" fill="#000000" font-family="Arial" font-size="3.5058px" font-weight="400" stroke-width=".26459">20</tspan></tspan></text>
<text x="16.344511" y="6.1259875" fill="#000000" font-family="Arial" font-size="3.5058px" font-weight="400" letter-spacing="0px" stroke-width=".26459" word-spacing="0px" style="line-height:125%" xml:space="preserve"><tspan x="16.344511" y="6.1259875" stroke-width=".26459"><tspan dx="0" dy="0" fill="#000000" font-family="Arial" font-size="3.5058px" font-weight="400" stroke-width=".26459">Bin noch nicht so weit</tspan></tspan></text>
<text x="22.814207" y="13.238056" fill="#000000" font-family="Arial" font-size="3.5058px" font-weight="400" letter-spacing="0px" stroke-width=".26459" word-spacing="0px" style="line-height:125%" xml:space="preserve"><tspan x="22.814207" y="13.238056" stroke-width=".26459"><tspan dx="0" dy="0" fill="#000000" font-family="Arial" font-size="3.5058px" font-weight="400" stroke-width=".26459">Sek. I - 9. Klasse</tspan></tspan></text>
<text x="21.833525" y="20.350124" fill="#000000" font-family="Arial" font-size="3.5058px" font-weight="400" letter-spacing="0px" stroke-width=".26459" word-spacing="0px" style="line-height:125%" xml:space="preserve"><tspan x="21.833525" y="20.350124" stroke-width=".26459"><tspan dx="0" dy="0" fill="#000000" font-family="Arial" font-size="3.5058px" font-weight="400" stroke-width=".26459">Sek. I - 10. Klasse</tspan></tspan></text>
<text x="28.303236" y="27.462193" fill="#000000" font-family="Arial" font-size="3.5058px" font-weight="400" letter-spacing="0px" stroke-width=".26459" word-spacing="0px" style="line-height:125%" xml:space="preserve"><tspan x="28.303236" y="27.462193" stroke-width=".26459"><tspan dx="0" dy="0" fill="#000000" font-family="Arial" font-size="3.5058px" font-weight="400" stroke-width=".26459">Sek. II - Lehre</tspan></tspan></text>
<text x="24.775587" y="34.574268" fill="#000000" font-family="Arial" font-size="3.5058px" font-weight="400" letter-spacing="0px" stroke-width=".26459" word-spacing="0px" style="line-height:125%" xml:space="preserve"><tspan x="24.775587" y="34.574268" stroke-width=".26459"><tspan dx="0" dy="0" fill="#000000" font-family="Arial" font-size="3.5058px" font-weight="400" stroke-width=".26459">Sek. II - Fachabi</tspan></tspan></text>
<text x="14.189116" y="41.686344" fill="#000000" font-family="Arial" font-size="3.5058px" font-weight="400" letter-spacing="0px" stroke-width=".26459" word-spacing="0px" style="line-height:125%" xml:space="preserve"><tspan x="14.189116" y="41.686344" stroke-width=".26459"><tspan dx="0" dy="0" fill="#000000" font-family="Arial" font-size="3.5058px" font-weight="400" stroke-width=".26459">Sek. II - Abitur / Matura</tspan></tspan></text>
<text x="1.0627416" y="48.798405" fill="#000000" font-family="Arial" font-size="3.5058px" font-weight="400" letter-spacing="0px" stroke-width=".26459" word-spacing="0px" style="line-height:125%" xml:space="preserve"><tspan x="1.0627416" y="48.798405" stroke-width=".26459"><tspan dx="0" dy="0" fill="#000000" font-family="Arial" font-size="3.5058px" font-weight="400" stroke-width=".26459">Meister, Techniker, Betriebswirt</tspan></tspan></text>
<text x="10.657941" y="55.91048" fill="#000000" font-family="Arial" font-size="3.5058px" font-weight="400" letter-spacing="0px" stroke-width=".26459" word-spacing="0px" style="line-height:125%" xml:space="preserve"><tspan x="10.657941" y="55.91048" stroke-width=".26459"><tspan dx="0" dy="0" fill="#000000" font-family="Arial" font-size="3.5058px" font-weight="400" stroke-width=".26459">Bachelor, Ingenieur, usw.</tspan></tspan></text>
</svg>
