<?xml version="1.0" encoding="UTF-8"?>
<svg width="479.33" height="311.89" version="1.1" viewBox="0 0 126.82 82.52" xmlns="http://www.w3.org/2000/svg" xmlns:cc="http://creativecommons.org/ns#" xmlns:dc="http://purl.org/dc/elements/1.1/" xmlns:rdf="http://www.w3.org/1999/02/22-rdf-syntax-ns#" xmlns:xlink="http://www.w3.org/1999/xlink">
<metadata>
<rdf:RDF>
<cc:Work rdf:about="">
<dc:format>image/svg+xml</dc:format>
<dc:type rdf:resource="http://purl.org/dc/dcmitype/StillImage"/>
<dc:title/>
</cc:Work>
</rdf:RDF>
</metadata>
<g transform="translate(-329.9 204.09)">
<path d="m338.12-201.39v64.978h72.513v-64.978z" fill="#e7e7e7" fill-rule="evenodd"/>
<path d="m338.12-138.65h72.513v0.16932h-72.513zm0-2.1589h72.513v0.16932h-72.513zm0-2.2012h72.513v0.16932h-72.513zm0-2.1589h72.513v0.16933h-72.513zm0-4.3178h72.513v0.16932h-72.513zm0-2.1589h72.513v0.16932h-72.513zm0-2.1589h72.513v0.16932h-72.513zm0-2.2012h72.513v0.16932h-72.513zm0-4.3178h72.513v0.16933h-72.513zm0-2.1589h72.513v0.16932h-72.513zm0-2.1589h72.513v0.16932h-72.513zm0-2.1589h72.513v0.16932h-72.513zm0-4.3601h72.513v0.16933h-72.513zm0-2.1589h72.513v0.16932h-72.513zm0-2.1589h72.513v0.16932h-72.513zm0-2.1589h72.513v0.16932h-72.513zm0-4.3178h72.513v0.16933h-72.513zm0-2.1589h72.513v0.16932h-72.513zm0-2.2012h72.513v0.16932h-72.513zm0-2.1589h72.513v0.16932h-72.513zm0-4.3178h72.513v0.16933h-72.513zm0-2.1589h72.513v0.16932h-72.513zm0-2.1589h72.513v0.16932h-72.513zm0-2.1589h72.513v0.16933h-72.513z" fill="#bcbcbc" stroke="#bcbcbc" stroke-linejoin="bevel" stroke-width=".042331px"/>
<path d="m338.12-147.33h72.513v0.16933h-72.513zm0-10.837h72.513v0.16933h-72.513zm0-10.794h72.513v0.16933h-72.513zm0-10.837h72.513v0.16933h-72.513zm0-10.837h72.513v0.16933h-72.513zm0-10.837h72.513v0.16933h-72.513z" fill="#898989" stroke="#898989" stroke-linejoin="bevel" stroke-width=".042331px"/>
<path d="m342.19-139.67v3.2595h9.9902v-3.2595z" fill="#3975d8" fill-rule="evenodd"/>
<path d="m342.1-139.67c0-0.045 0.0397-0.0847 0.0847-0.0847h9.9902c0.0476 0 0.0847 0.0397 0.0847 0.0847v3.2595c0 0.0476-0.037 0.0847-0.0847 0.0847h-9.9902c-0.045 0-0.0847-0.037-0.0847-0.0847zm0.16932 3.2595-0.0847-0.0847h9.9902l-0.0847 0.0847v-3.2595l0.0847 0.0847h-9.9902l0.0847-0.0847z" fill="#27549e" stroke="#27549e" stroke-linejoin="bevel" stroke-width=".042331px"/>
<path d="m360.3-140.73v4.3178h10.032v-4.3178z" fill="#3975d8" fill-rule="evenodd"/>
<path d="m360.22-140.73c0-0.045 0.0397-0.0847 0.0847-0.0847h10.032c0.0476 0 0.0847 0.0397 0.0847 0.0847v4.3178c0 0.0476-0.037 0.0847-0.0847 0.0847h-10.032c-0.045 0-0.0847-0.037-0.0847-0.0847zm0.16933 4.3178-0.0847-0.0847h10.032l-0.0847 0.0847v-4.3178l0.0847 0.0847h-10.032l0.0847-0.0847z" fill="#27549e" stroke="#27549e" stroke-linejoin="bevel" stroke-width=".042331px"/>
<path d="m342.19-146.14v6.4767h9.9902v-6.4767z" fill="#cf3a2e" fill-rule="evenodd"/>
<path d="m342.1-146.14c0-0.045 0.0397-0.0847 0.0847-0.0847h9.9902c0.0476 0 0.0847 0.0397 0.0847 0.0847v6.4767c0 0.0476-0.037 0.0847-0.0847 0.0847h-9.9902c-0.045 0-0.0847-0.037-0.0847-0.0847zm0.16932 6.4767-0.0847-0.0847h9.9902l-0.0847 0.0847v-6.4767l0.0847 0.0847h-9.9902l0.0847-0.0847z" fill="#98281f" stroke="#98281f" stroke-linejoin="bevel" stroke-width=".042331px"/>
<path d="m360.3-148.3v7.5773h10.032v-7.5773z" fill="#cf3a2e" fill-rule="evenodd"/>
<path d="m360.22-148.3c0-0.045 0.0397-0.0847 0.0847-0.0847h10.032c0.0476 0 0.0847 0.0397 0.0847 0.0847v7.5773c0 0.0476-0.037 0.0847-0.0847 0.0847h-10.032c-0.045 0-0.0847-0.037-0.0847-0.0847zm0.16933 7.5773-0.0847-0.0847h10.032l-0.0847 0.0847v-7.5773l0.0847 0.0847h-10.032l0.0847-0.0847z" fill="#98281f" stroke="#98281f" stroke-linejoin="bevel" stroke-width=".042331px"/>
<path d="m378.42-139.67v3.2595h10.032v-3.2595z" fill="#cf3a2e" fill-rule="evenodd"/>
<path d="m378.34-139.67c0-0.045 0.0397-0.0847 0.0847-0.0847h10.032c0.0476 0 0.0847 0.0397 0.0847 0.0847v3.2595c0 0.0476-0.037 0.0847-0.0847 0.0847h-10.032c-0.045 0-0.0847-0.037-0.0847-0.0847zm0.16932 3.2595-0.0847-0.0847h10.032l-0.0847 0.0847v-3.2595l0.0847 0.0847h-10.032l0.0847-0.0847z" fill="#98281f" stroke="#98281f" stroke-linejoin="bevel" stroke-width=".042331px"/>
<path d="m396.58-139.67v3.2595h9.9902v-3.2595z" fill="#cf3a2e" fill-rule="evenodd"/>
<path d="m396.5-139.67c0-0.045 0.0397-0.0847 0.0847-0.0847h9.9902c0.0476 0 0.0847 0.0397 0.0847 0.0847v3.2595c0 0.0476-0.037 0.0847-0.0847 0.0847h-9.9902c-0.045 0-0.0847-0.037-0.0847-0.0847zm0.16933 3.2595-0.0847-0.0847h9.9902l-0.0847 0.0847v-3.2595l0.0847 0.0847h-9.9902l0.0847-0.0847z" fill="#98281f" stroke="#98281f" stroke-linejoin="bevel" stroke-width=".042331px"/>
<path d="m342.19-158.08v11.937h9.9902v-11.937z" fill="#dea603" fill-rule="evenodd"/>
<path d="m342.1-158.08c0-0.045 0.0397-0.0847 0.0847-0.0847h9.9902c0.0476 0 0.0847 0.0397 0.0847 0.0847v11.937c0 0.0476-0.037 0.0847-0.0847 0.0847h-9.9902c-0.045 0-0.0847-0.037-0.0847-0.0847zm0.16932 11.937-0.0847-0.0847h9.9902l-0.0847 0.0847v-11.937l0.0847 0.0847h-9.9902l0.0847-0.0847z" fill="#a37902" stroke="#a37902" stroke-linejoin="bevel" stroke-width=".042331px"/>
<path d="m360.3-154.82v6.519h10.032v-6.519z" fill="#dea603" fill-rule="evenodd"/>
<path d="m360.22-154.82c0-0.045 0.0397-0.0847 0.0847-0.0847h10.032c0.0476 0 0.0847 0.0397 0.0847 0.0847v6.519c0 0.0476-0.037 0.0847-0.0847 0.0847h-10.032c-0.045 0-0.0847-0.037-0.0847-0.0847zm0.16933 6.519-0.0847-0.0847h10.032l-0.0847 0.0847v-6.519l0.0847 0.0847h-10.032l0.0847-0.0847z" fill="#a37902" stroke="#a37902" stroke-linejoin="bevel" stroke-width=".042331px"/>
<path d="m378.42-142.93v3.2595h10.032v-3.2595z" fill="#dea603" fill-rule="evenodd"/>
<path d="m378.34-142.93c0-0.045 0.0397-0.0847 0.0847-0.0847h10.032c0.0476 0 0.0847 0.0397 0.0847 0.0847v3.2595c0 0.0476-0.037 0.0847-0.0847 0.0847h-10.032c-0.045 0-0.0847-0.037-0.0847-0.0847zm0.16932 3.2595-0.0847-0.0847h10.032l-0.0847 0.0847v-3.2595l0.0847 0.0847h-10.032l0.0847-0.0847z" fill="#a37902" stroke="#a37902" stroke-linejoin="bevel" stroke-width=".042331px"/>
<path d="m396.58-143.99v4.3178h9.9902v-4.3178z" fill="#dea603" fill-rule="evenodd"/>
<path d="m396.5-143.99c0-0.045 0.0397-0.0847 0.0847-0.0847h9.9902c0.0476 0 0.0847 0.0397 0.0847 0.0847v4.3178c0 0.0476-0.037 0.0847-0.0847 0.0847h-9.9902c-0.045 0-0.0847-0.037-0.0847-0.0847zm0.16933 4.3178-0.0847-0.0847h9.9902l-0.0847 0.0847v-4.3178l0.0847 0.0847h-9.9902l0.0847-0.0847z" fill="#a37902" stroke="#a37902" stroke-linejoin="bevel" stroke-width=".042331px"/>
<path d="m342.19-163.5v5.4184h9.9902v-5.4184z" fill="#2d9449" fill-rule="evenodd"/>
<path d="m342.1-163.5c0-0.045 0.0397-0.0847 0.0847-0.0847h9.9902c0.0476 0 0.0847 0.0397 0.0847 0.0847v5.4184c0 0.0476-0.037 0.0847-0.0847 0.0847h-9.9902c-0.045 0-0.0847-0.037-0.0847-0.0847zm0.16932 5.4184-0.0847-0.0847h9.9902l-0.0847 0.0847v-5.4184l0.0847 0.0847h-9.9902l0.0847-0.0847z" fill="#1e6c33" stroke="#1e6c33" stroke-linejoin="bevel" stroke-width=".042331px"/>
<path d="m378.42-147.24v4.3178h10.032v-4.3178z" fill="#2d9449" fill-rule="evenodd"/>
<path d="m378.34-147.24c0-0.045 0.0397-0.0847 0.0847-0.0847h10.032c0.0476 0 0.0847 0.0397 0.0847 0.0847v4.3178c0 0.0476-0.037 0.0847-0.0847 0.0847h-10.032c-0.045 0-0.0847-0.037-0.0847-0.0847zm0.16932 4.3178-0.0847-0.0847h10.032l-0.0847 0.0847v-4.3178l0.0847 0.0847h-10.032l0.0847-0.0847z" fill="#1e6c33" stroke="#1e6c33" stroke-linejoin="bevel" stroke-width=".042331px"/>
<path d="m396.58-152.66v8.6779h9.9902v-8.6779z" fill="#2d9449" fill-rule="evenodd"/>
<path d="m396.5-152.66c0-0.045 0.0397-0.0847 0.0847-0.0847h9.9902c0.0476 0 0.0847 0.0397 0.0847 0.0847v8.6779c0 0.0476-0.037 0.0847-0.0847 0.0847h-9.9902c-0.045 0-0.0847-0.037-0.0847-0.0847zm0.16933 8.6779-0.0847-0.0847h9.9902l-0.0847 0.0847v-8.6779l0.0847 0.0847h-9.9902l0.0847-0.0847z" fill="#1e6c33" stroke="#1e6c33" stroke-linejoin="bevel" stroke-width=".042331px"/>
<path d="m342.19-175.39v11.895h9.9902v-11.895z" fill="#e26001" fill-rule="evenodd"/>
<path d="m342.1-175.39c0-0.045 0.0397-0.0847 0.0847-0.0847h9.9902c0.0476 0 0.0847 0.0397 0.0847 0.0847v11.895c0 0.0476-0.037 0.0847-0.0847 0.0847h-9.9902c-0.045 0-0.0847-0.037-0.0847-0.0847zm0.16932 11.895-0.0847-0.0847h9.9902l-0.0847 0.0847v-11.895l0.0847 0.0847h-9.9902l0.0847-0.0847z" fill="#a64400" stroke="#a64400" stroke-linejoin="bevel" stroke-width=".042331px"/>
<path d="m360.3-160.24v5.4184h10.032v-5.4184z" fill="#e26001" fill-rule="evenodd"/>
<path d="m360.22-160.24c0-0.045 0.0397-0.0847 0.0847-0.0847h10.032c0.0476 0 0.0847 0.0397 0.0847 0.0847v5.4184c0 0.0476-0.037 0.0847-0.0847 0.0847h-10.032c-0.045 0-0.0847-0.037-0.0847-0.0847zm0.16933 5.4184-0.0847-0.0847h10.032l-0.0847 0.0847v-5.4184l0.0847 0.0847h-10.032l0.0847-0.0847z" fill="#a64400" stroke="#a64400" stroke-linejoin="bevel" stroke-width=".042331px"/>
<path d="m378.42-154.82v7.5773h10.032v-7.5773z" fill="#e26001" fill-rule="evenodd"/>
<path d="m378.34-154.82c0-0.045 0.0397-0.0847 0.0847-0.0847h10.032c0.0476 0 0.0847 0.0397 0.0847 0.0847v7.5773c0 0.0476-0.037 0.0847-0.0847 0.0847h-10.032c-0.045 0-0.0847-0.037-0.0847-0.0847zm0.16932 7.5773-0.0847-0.0847h10.032l-0.0847 0.0847v-7.5773l0.0847 0.0847h-10.032l0.0847-0.0847z" fill="#a64400" stroke="#a64400" stroke-linejoin="bevel" stroke-width=".042331px"/>
<path d="m396.58-163.5v10.837h9.9902v-10.837z" fill="#e26001" fill-rule="evenodd"/>
<path d="m396.5-163.5c0-0.045 0.0397-0.0847 0.0847-0.0847h9.9902c0.0476 0 0.0847 0.0397 0.0847 0.0847v10.837c0 0.0476-0.037 0.0847-0.0847 0.0847h-9.9902c-0.045 0-0.0847-0.037-0.0847-0.0847zm0.16933 10.837-0.0847-0.0847h9.9902l-0.0847 0.0847v-10.837l0.0847 0.0847h-9.9902l0.0847-0.0847z" fill="#a64400" stroke="#a64400" stroke-linejoin="bevel" stroke-width=".042331px"/>
<path d="m342.19-188.39v12.996h9.9902v-12.996z" fill="#3da7af" fill-rule="evenodd"/>
<path d="m342.1-188.39c0-0.045 0.0397-0.0847 0.0847-0.0847h9.9902c0.0476 0 0.0847 0.0397 0.0847 0.0847v12.996c0 0.0476-0.037 0.0847-0.0847 0.0847h-9.9902c-0.045 0-0.0847-0.037-0.0847-0.0847zm0.16932 12.996-0.0847-0.0847h9.9902l-0.0847 0.0847v-12.996l0.0847 0.0847h-9.9902l0.0847-0.0847z" fill="#2a7a80" stroke="#2a7a80" stroke-linejoin="bevel" stroke-width=".042331px"/>
<path d="m360.3-163.5v3.2595h10.032v-3.2595z" fill="#3da7af" fill-rule="evenodd"/>
<path d="m360.22-163.5c0-0.045 0.0397-0.0847 0.0847-0.0847h10.032c0.0476 0 0.0847 0.0397 0.0847 0.0847v3.2595c0 0.0476-0.037 0.0847-0.0847 0.0847h-10.032c-0.045 0-0.0847-0.037-0.0847-0.0847zm0.16933 3.2595-0.0847-0.0847h10.032l-0.0847 0.0847v-3.2595l0.0847 0.0847h-10.032l0.0847-0.0847z" fill="#2a7a80" stroke="#2a7a80" stroke-linejoin="bevel" stroke-width=".042331px"/>
<path d="m378.42-161.3v6.4767h10.032v-6.4767z" fill="#3da7af" fill-rule="evenodd"/>
<path d="m378.34-161.3c0-0.045 0.0397-0.0847 0.0847-0.0847h10.032c0.0476 0 0.0847 0.0397 0.0847 0.0847v6.4767c0 0.0476-0.037 0.0847-0.0847 0.0847h-10.032c-0.045 0-0.0847-0.037-0.0847-0.0847zm0.16932 6.4767-0.0847-0.0847h10.032l-0.0847 0.0847v-6.4767l0.0847 0.0847h-10.032l0.0847-0.0847z" fill="#2a7a80" stroke="#2a7a80" stroke-linejoin="bevel" stroke-width=".042331px"/>
<path d="m396.58-169.98v6.4767h9.9902v-6.4767z" fill="#3da7af" fill-rule="evenodd"/>
<path d="m396.5-169.98c0-0.045 0.0397-0.0847 0.0847-0.0847h9.9902c0.0476 0 0.0847 0.0397 0.0847 0.0847v6.4767c0 0.0476-0.037 0.0847-0.0847 0.0847h-9.9902c-0.045 0-0.0847-0.037-0.0847-0.0847zm0.16933 6.4767-0.0847-0.0847h9.9902l-0.0847 0.0847v-6.4767l0.0847 0.0847h-9.9902l0.0847-0.0847z" fill="#2a7a80" stroke="#2a7a80" stroke-linejoin="bevel" stroke-width=".042331px"/>
<path d="m342.19-190.55v2.1589h9.9902v-2.1589z" fill="#8eacf7" fill-rule="evenodd"/>
<path d="m342.1-190.55c0-0.045 0.0397-0.0847 0.0847-0.0847h9.9902c0.0476 0 0.0847 0.0397 0.0847 0.0847v2.1589c0 0.0476-0.037 0.0847-0.0847 0.0847h-9.9902c-0.045 0-0.0847-0.037-0.0847-0.0847zm0.16932 2.1589-0.0847-0.0847h9.9902l-0.0847 0.0847v-2.1589l0.0847 0.0847h-9.9902l0.0847-0.0847z" fill="#8999c8" stroke="#8999c8" stroke-linejoin="bevel" stroke-width=".042331px"/>
<path d="m360.3-190.55v27.05h10.032v-27.05z" fill="#8eacf7" fill-rule="evenodd"/>
<path d="m360.22-190.55c0-0.045 0.0397-0.0847 0.0847-0.0847h10.032c0.0476 0 0.0847 0.0397 0.0847 0.0847v27.05c0 0.0476-0.037 0.0847-0.0847 0.0847h-10.032c-0.045 0-0.0847-0.037-0.0847-0.0847zm0.16933 27.05-0.0847-0.0847h10.032l-0.0847 0.0847v-27.05l0.0847 0.0847h-10.032l0.0847-0.0847z" fill="#8999c8" stroke="#8999c8" stroke-linejoin="bevel" stroke-width=".042331px"/>
<path d="m378.42-189.45v28.15h10.032v-28.15z" fill="#8eacf7" fill-rule="evenodd"/>
<path d="m378.34-189.45c0-0.045 0.0397-0.0847 0.0847-0.0847h10.032c0.0476 0 0.0847 0.0397 0.0847 0.0847v28.15c0 0.0476-0.037 0.0847-0.0847 0.0847h-10.032c-0.045 0-0.0847-0.037-0.0847-0.0847zm0.16932 28.15-0.0847-0.0847h10.032l-0.0847 0.0847v-28.15l0.0847 0.0847h-10.032l0.0847-0.0847z" fill="#8999c8" stroke="#8999c8" stroke-linejoin="bevel" stroke-width=".042331px"/>
<path d="m396.58-188.39v18.414h9.9902v-18.414z" fill="#8eacf7" fill-rule="evenodd"/>
<path d="m396.5-188.39c0-0.045 0.0397-0.0847 0.0847-0.0847h9.9902c0.0476 0 0.0847 0.0397 0.0847 0.0847v18.414c0 0.0476-0.037 0.0847-0.0847 0.0847h-9.9902c-0.045 0-0.0847-0.037-0.0847-0.0847zm0.16933 18.414-0.0847-0.0847h9.9902l-0.0847 0.0847v-18.414l0.0847 0.0847h-9.9902l0.0847-0.0847z" fill="#8999c8" stroke="#8999c8" stroke-linejoin="bevel" stroke-width=".042331px"/>
<path d="m338.04-136.41v-64.978h0.16932v64.978z" fill="#898989" stroke="#898989" stroke-linejoin="bevel" stroke-width=".042331px"/>
<path d="m337.06-136.49h1.0583v0.16933h-1.0583zm0-10.837h1.0583v0.16933h-1.0583zm0-10.837h1.0583v0.16933h-1.0583zm0-10.794h1.0583v0.16933h-1.0583zm0-10.837h1.0583v0.16933h-1.0583zm0-10.837h1.0583v0.16933h-1.0583zm0-10.837h1.0583v0.16933h-1.0583z" fill="#898989" stroke="#898989" stroke-linejoin="bevel" stroke-width=".042331px"/>
<path d="m338.12-136.49h72.513v0.16933h-72.513z" fill="#898989" stroke="#898989" stroke-linejoin="bevel" stroke-width=".042331px"/>
<path d="m338.21-136.41v1.0583h-0.16932v-1.0583zm18.118 0v1.0583h-0.16933v-1.0583zm18.16 0v1.0583h-0.16932v-1.0583zm18.118 0v1.0583h-0.16932v-1.0583zm18.118 0v1.0583h-0.16933v-1.0583z" fill="#898989" stroke="#898989" stroke-linejoin="bevel" stroke-width=".042331px"/>
<text x="333.13907" y="-135.2878" fill="#000000" font-family="Arial" font-size="3.5057px" font-weight="400" letter-spacing="0px" stroke-width=".26458" word-spacing="0px" style="line-height:125%" xml:space="preserve"><tspan x="333.13907" y="-135.2878" stroke-width=".26458"><tspan dx="0" dy="0" fill="#000000" font-family="Arial" font-size="3.5057px" font-weight="400" stroke-width=".26458">0</tspan></tspan></text>
<text x="331.1777" y="-146.11391" fill="#000000" font-family="Arial" font-size="3.5057px" font-weight="400" letter-spacing="0px" stroke-width=".26458" word-spacing="0px" style="line-height:125%" xml:space="preserve"><tspan x="331.1777" y="-146.11391" stroke-width=".26458"><tspan dx="0" dy="0" fill="#000000" font-family="Arial" font-size="3.5057px" font-weight="400" stroke-width=".26458">10</tspan></tspan></text>
<text x="331.1777" y="-156.94003" fill="#000000" font-family="Arial" font-size="3.5057px" font-weight="400" letter-spacing="0px" stroke-width=".26458" word-spacing="0px" style="line-height:125%" xml:space="preserve"><tspan x="331.1777" y="-156.94003" stroke-width=".26458"><tspan dx="0" dy="0" fill="#000000" font-family="Arial" font-size="3.5057px" font-weight="400" stroke-width=".26458">20</tspan></tspan></text>
<text x="331.1777" y="-167.76614" fill="#000000" font-family="Arial" font-size="3.5057px" font-weight="400" letter-spacing="0px" stroke-width=".26458" word-spacing="0px" style="line-height:125%" xml:space="preserve"><tspan x="331.1777" y="-167.76614" stroke-width=".26458"><tspan dx="0" dy="0" fill="#000000" font-family="Arial" font-size="3.5057px" font-weight="400" stroke-width=".26458">30</tspan></tspan></text>
<text x="331.1777" y="-178.59224" fill="#000000" font-family="Arial" font-size="3.5057px" font-weight="400" letter-spacing="0px" stroke-width=".26458" word-spacing="0px" style="line-height:125%" xml:space="preserve"><tspan x="331.1777" y="-178.59224" stroke-width=".26458"><tspan dx="0" dy="0" fill="#000000" font-family="Arial" font-size="3.5057px" font-weight="400" stroke-width=".26458">40</tspan></tspan></text>
<text x="331.1777" y="-189.41838" fill="#000000" font-family="Arial" font-size="3.5057px" font-weight="400" letter-spacing="0px" stroke-width=".26458" word-spacing="0px" style="line-height:125%" xml:space="preserve"><tspan x="331.1777" y="-189.41838" stroke-width=".26458"><tspan dx="0" dy="0" fill="#000000" font-family="Arial" font-size="3.5057px" font-weight="400" stroke-width=".26458">50</tspan></tspan></text>
<text x="331.1777" y="-200.24448" fill="#000000" font-family="Arial" font-size="3.5057px" font-weight="400" letter-spacing="0px" stroke-width=".26458" word-spacing="0px" style="line-height:125%" xml:space="preserve"><tspan x="331.1777" y="-200.24448" stroke-width=".26458"><tspan dx="0" dy="0" fill="#000000" font-family="Arial" font-size="3.5057px" font-weight="400" stroke-width=".26458">60</tspan></tspan></text>
<path d="m341.6-131.09v-2.5144l0.333 1e-5 1e-5 2.5143zm0.8774 2e-3v-1.8222h0.27688v0.25444c0.0561-0.0898 0.13093-0.16092 0.22641-0.2151 0.0954-0.0543 0.20391-0.0805 0.32551-0.0823 0.13464 0 0.24508 0.0281 0.33113 0.0842 0.0861 0.0561 0.14784 0.13652 0.18337 0.23569 0.14407-0.21138 0.33117-0.31986 0.56311-0.3199 0.17959-1e-5 0.3199 0.0505 0.41719 0.15153 0.0952 0.0994 0.14594 0.25441 0.14404 0.46209v1.2497h-0.3068l2e-3 -1.1468c0-0.12346-0.0112-0.21327-0.0318-0.26752-0.0206-0.0542-0.0561-0.0973-0.10849-0.13098-0.0524-0.0337-0.11413-0.0505-0.18517-0.0505-0.12721 7e-5 -0.23385 0.043-0.31991 0.12908-0.0842 0.0842-0.12724 0.22072-0.12534 0.40971v1.0589l-0.30868-2e-3 -1e-5 -1.1823c0-0.13845-0.0262-0.23946-0.0767-0.30868-0.0506-0.0692-0.13285-0.10287-0.24695-0.10476-0.0861 0-0.16649 0.0243-0.24133 0.0692-0.073 0.0468-0.12722 0.11223-0.15902 0.20017-0.0337 0.0898-0.0505 0.21514-0.0486 0.38164l-2e-3 0.94475zm4.4151 0-0.66786-2.5162h0.34048l0.38351 1.6482c0.043 0.17398 0.0786 0.34423 0.10664 0.51447 0.0655-0.26753 0.10102-0.4228 0.11411-0.46583l0.47706-1.6968 0.40409-1e-5 0.35919 1.2721c0.0917 0.31617 0.15527 0.61175 0.19456 0.8905 0.0318-0.15905 0.0748-0.34049 0.12721-0.54627l0.39287-1.6164 0.33675-1e-5 -0.69221 2.5144-0.3199 2e-3 -0.52943-1.9176c-0.0449-0.16087-0.0711-0.25816-0.0786-0.29558-0.0262 0.11599-0.0524 0.21328-0.0748 0.29559l-0.53317 1.9176zm2.8249-2.1626 2e-3 -0.35359 0.30681 1e-5v0.35545zm0 2.1626v-1.8222l0.30868-2e-3v1.8222zm0.80444 0 2e-3 -2.5162 0.30681-1e-5v1.433l0.73168-0.73876 0.39849-2e-3 -0.69592 0.67725 0.76702 1.1449h-0.38164l-0.60052-0.92978-0.21893 0.20762v0.72212zm1.7791-2.1608v-0.35545l0.30681 1e-5v0.35545zm0 2.1589v-1.8221l0.30681-1e-5v1.8222z"/>
<path d="m358.15-132.33c0-0.41158 0.11225-0.74084 0.33675-0.9803 0.2247-0.23177 0.50885-0.3517 0.86805-0.3517 0.23197 0 0.43776 0.0561 0.62858 0.16463 0.18707 0.11225 0.3255 0.26568 0.42651 0.46398 0.0973 0.20207 0.14592 0.4228 0.14592 0.67723 0 0.25442-0.0524 0.4864-0.1534 0.6847-0.10476 0.20206-0.25067 0.35547-0.4415 0.45649-0.18707 0.10477-0.38913 0.15714-0.60988 0.1534-0.23571 4e-3 -0.44524-0.0561-0.63233-0.16837-0.19081-0.116-0.32923-0.26941-0.4265-0.47148-0.0935-0.19831-0.14218-0.40409-0.14218-0.62858zm0.34424 7e-3c-4e-3 0.30307 0.0786 0.54253 0.24319 0.71464 0.16088 0.17587 0.36669 0.2619 0.61362 0.26192 0.25069 4e-3 0.45274-0.0861 0.61736-0.26566 0.16484-0.17191 0.24321-0.42279 0.24321-0.74457 0-0.20953-0.0337-0.38539-0.10477-0.53879-0.0673-0.14966-0.1721-0.2694-0.30309-0.35542-0.13467-0.0823-0.28063-0.12347-0.44899-0.12721-0.23572 4e-3 -0.43777 0.0861-0.60614 0.24694-0.17213 0.15713-0.25816 0.43028-0.25442 0.80818zm2.5443 1.2198-4e-3 -1.5827h-0.2694v-0.23946h0.2694v-0.19457c0-0.11978 0.0112-0.21327 0.0337-0.27312 0.0337-0.0786 0.0823-0.14217 0.15712-0.1946 0.0786-0.0487 0.17961-0.0748 0.31429-0.0748 0.0898 0 0.18333 0.0112 0.2881 0.0337l-0.0449 0.2694c-0.0636-0.0112-0.12348-0.0187-0.18333-0.0187-0.0898 0-0.16089 0.0187-0.19835 0.0636-0.0374 0.0374-0.0599 0.11222-0.0561 0.22075l-4e-3 0.16837h0.3592v0.23947h-0.3592l4e-3 1.5827zm0.97281 0v-1.579l-0.27314-4e-3v-0.23946h0.2694l4e-3 -0.19083c7e-5 -0.1272 7e-3 -0.21701 0.0299-0.27686 0.0337-0.0786 0.0823-0.14217 0.15712-0.1946 0.0786-0.0487 0.17961-0.0748 0.31429-0.0748 0.0898 0 0.18334 0.0112 0.28811 0.0337l-0.0449 0.26939c-0.0636-0.0112-0.12349-0.0187-0.18333-0.0187-0.0898 0-0.15719 0.0224-0.19461 0.0598-0.0412 0.0412-0.0636 0.11596-0.0599 0.22449l-4e-3 0.16838 0.35918-1e-5v0.23947l-0.35545 4e-3v1.5789zm0.90171-2.1589-4e-3 -0.35545h0.31429l-4e-3 0.35545zm-4e-3 2.1589 4e-3 -1.8221 0.30681-1e-5 4e-3 1.8222zm0.64355 0-4e-3 -0.25068 1.1599-1.332c-0.12721 7e-3 -0.24321 0.0112-0.34798 0.0112l-0.74082 1e-5v-0.24695h1.4892l-1e-5 0.20204-0.98403 1.1562-0.19455 0.20953c0.1384-0.0112 0.2694-0.015 0.38913-0.015h0.8456l-4e-3 0.26565zm1.897-2.1589 4e-3 -0.35545h0.30681l-1e-5 0.3517zm4e-3 2.1589-4e-3 -1.8222 0.31055 4e-3v1.8184zm2.0466-0.58743 0.31804 0.0412c-0.0487 0.18331-0.14218 0.32925-0.27688 0.43402-0.13846 0.10099-0.31055 0.1534-0.52008 0.1534-0.26939 0-0.47893-0.0823-0.63607-0.24695-0.15735-0.16442-0.23571-0.39286-0.23198-0.68844 1e-5 -0.30681 0.0748-0.54628 0.23572-0.71465 0.15714-0.17212 0.35921-0.25441 0.61362-0.25442 0.24321 4e-3 0.44151 0.0823 0.59491 0.25069 0.15736 0.16442 0.23198 0.3966 0.23573 0.69967-4e-3 0.0187 7e-5 0.0449-4e-3 0.0786l-1.3582 4e-3c0.0112 0.19831 0.0673 0.35171 0.16837 0.46022 0.10476 0.10476 0.23196 0.15715 0.38164 0.15715 0.11229 0 0.20953-0.0299 0.29185-0.0898 0.0786-0.0561 0.13842-0.15341 0.18706-0.28436zm-1.014-0.49763h1.0177c-0.0112-0.1534-0.0524-0.26939-0.116-0.34797-0.10101-0.116-0.2282-0.17588-0.38538-0.17585-0.14218 0-0.25817 0.0486-0.3517 0.14218-0.10082 0.0937-0.15342 0.22074-0.16463 0.38164zm1.7062 1.0851v-2.5143h0.3143v2.5143zm0.80819 0v-2.5143h0.30681l-1e-5 2.5143zm2.0167-0.58743 0.31803 0.0412c-0.0523 0.18711-0.14592 0.333-0.28061 0.43028-0.13473 0.10474-0.31056 0.16089-0.52383 0.15714-0.26191 0-0.47891-0.0823-0.63232-0.2432-0.15735-0.16442-0.23198-0.39661-0.23573-0.69219 1e-5 -0.30681 0.0823-0.54627 0.23573-0.71464 0.16109-0.16816 0.36669-0.2544 0.61735-0.25069 0.24321-4e-3 0.44151 0.0823 0.59866 0.24694 0.14965 0.16465 0.23198 0.39661 0.22823 0.69968 0 0.015-7e-5 0.0449 0 0.0823l-1.3582-4e-3c0.0112 0.20578 0.0674 0.35918 0.16837 0.4602 0.10123 0.1083 0.22823 0.16091 0.38164 0.16463 0.11229 0 0.20953-0.0299 0.28811-0.0935 0.0823-0.0598 0.14612-0.15319 0.19456-0.28436zm-1.014-0.49763h1.0177c-0.0187-0.15337-0.0524-0.26939-0.11973-0.34422-0.0973-0.11975-0.22453-0.17956-0.38165-0.1796-0.14217-1e-5 -0.2619 0.0449-0.35919 0.14218-0.0973 0.0973-0.14967 0.22448-0.15714 0.38164zm1.751 1.0851-4e-3 -1.8222 0.28062 4e-3 4e-3 0.27313c0.0674-0.12719 0.13095-0.21327 0.19458-0.2544 0.0599-0.0449 0.12345-0.0636 0.19827-0.0636 0.10479 0 0.20578 0.0337 0.31804 0.10102l-0.10851 0.2881c-0.0749-0.0449-0.14966-0.0674-0.22824-0.0711-0.0673 0-0.12723 0.0224-0.17962 0.0598-0.0522 0.0451-0.0937 0.10082-0.11602 0.16834-0.0337 0.11598-0.0524 0.23198-0.0486 0.36293l-4e-3 0.95411z"/>
<path d="m377.31-132.23c0-0.41906 0.11599-0.74457 0.33674-0.98029 0.22449-0.23948 0.5126-0.35545 0.87179-0.35546 0.23199 0 0.43777 0.0561 0.62485 0.16837 0.18333 0.10852 0.32924 0.26193 0.42651 0.46399 0.0973 0.19457 0.14592 0.4228 0.14966 0.67349 0 0.25443-0.0561 0.48266-0.15714 0.68096-0.10101 0.2058-0.25068 0.35547-0.43775 0.46024-0.18707 0.10476-0.39286 0.15341-0.60987 0.15341-0.23947 0-0.449-0.0524-0.63608-0.17211-0.18707-0.11226-0.32923-0.26942-0.42276-0.46774-0.0973-0.19457-0.14218-0.40409-0.14592-0.62484zm0.34796 4e-3c-4e-3 0.30307 0.0786 0.54253 0.23946 0.71839 0.16484 0.1719 0.37044 0.25815 0.61363 0.2619 0.25069-4e-3 0.45647-0.0898 0.61736-0.26564 0.16462-0.17962 0.24695-0.42655 0.2432-0.75207 1e-5 -0.20204-0.0299-0.38164-0.10102-0.53504-0.0711-0.1534-0.17211-0.26941-0.3031-0.35543-0.13467-0.0823-0.28435-0.12721-0.44898-0.12721-0.23573 4e-3 -0.44151 0.0823-0.60988 0.24321-0.16817 0.16109-0.25444 0.43402-0.2507 0.81192zm2.5405 1.2235v-1.5864l-0.27313 4e-3v-0.23947l0.27314-4e-3 -1e-5 -0.19456c0-0.11979 0.0112-0.21327 0.0337-0.27314 0.0262-0.0786 0.0823-0.14216 0.15712-0.1946 0.0711-0.0486 0.17961-0.0748 0.31429-0.0748 0.0861 4e-3 0.18334 0.0112 0.28811 0.0337l-0.0449 0.26939c-0.0673-0.015-0.12348-0.0187-0.18333-0.0187-0.0973 0-0.16089 0.0187-0.20205 0.0599-0.0339 0.0409-0.0561 0.11597-0.0561 0.22824v0.16463l0.35545 4e-3 -1e-5 0.23947-0.35544-4e-3 -1e-5 1.5864zm0.97656-4e-3 -4e-3 -1.5827-0.27313 4e-3 4e-3 -0.2432 0.26938-1e-5v-0.19455c0-0.11979 0.0112-0.21328 0.0337-0.27314 0.0262-0.0786 0.0823-0.14216 0.15719-0.19453 0.0711-0.0487 0.17961-0.0748 0.31429-0.0748 0.0861 4e-3 0.18334 0.0112 0.28811 0.0337l-0.0449 0.26939c-0.0636-0.0112-0.12348-0.0187-0.18333-0.0187-0.0935 4e-3 -0.16089 0.0187-0.20205 0.0599-0.0339 0.0409-0.0561 0.11596-0.0524 0.22449l-4e-3 0.16837h0.3592l-4e-3 0.2432-0.35545-4e-3 4e-3 1.5827zm0.89798-2.1626-1e-5 -0.35171h0.30681l4e-3 0.35545zm0 2.1626 4e-3 -1.8222 0.3068 1e-5 -4e-3 1.8222zm0.64355 0-4e-3 -0.25068 1.1599-1.332c-0.13099 0.0112-0.25069 0.0112-0.34797 0.0112h-0.74084l-4e-3 -0.25069h1.4892l4e-3 0.20579-0.98777 1.1524-0.19081 0.21329c0.1384-0.0113 0.26939-0.015 0.38912-0.015h0.8456l-4e-3 0.26566zm1.897-2.1589 1e-5 -0.35919 0.31056 4e-3 -4e-3 0.35545zm-4e-3 2.1589 4e-3 -1.8222h0.30682l4e-3 1.8222zm2.0541-0.58742 0.31803 0.0412c-0.0486 0.18338-0.14218 0.32927-0.27687 0.43403-0.13847 0.10098-0.31056 0.1534-0.52382 0.15715-0.26565-4e-3 -0.47518-0.0861-0.63233-0.25069-0.15735-0.16442-0.23572-0.39287-0.23571-0.69219-1e-5 -0.30681 0.0786-0.54253 0.23945-0.7109 0.15339-0.16838 0.35921-0.25442 0.61363-0.25443 0.23945 0 0.44149 0.0823 0.5949 0.25068 0.15735 0.16442 0.23198 0.39661 0.23198 0.69594 0 0.0225-4e-3 0.0486-4e-3 0.0861l-1.3582-4e-3c0.015 0.20205 0.0711 0.35545 0.17211 0.46396 0.0975 0.10455 0.22448 0.15716 0.38164 0.15715 0.11229 0 0.20953-0.0299 0.2881-0.0861 0.0786-0.0636 0.14217-0.15716 0.19081-0.28811zm-1.014-0.49763h1.0177c-0.015-0.15715-0.0524-0.2694-0.11974-0.34422-0.0973-0.11975-0.22446-0.17964-0.38164-0.17961-0.14218 1e-5 -0.25816 0.0486-0.3592 0.14219-0.0935 0.0935-0.14592 0.22073-0.15713 0.38164zm1.7062 1.085 1e-5 -2.5143h0.3068v2.5143zm0.80445 4e-3v-2.5218l0.31055 4e-3v2.5143zm2.0167-0.58743 0.31804 0.0337c-0.0486 0.19082-0.14218 0.33674-0.28062 0.43777-0.13472 0.10474-0.31054 0.1534-0.52007 0.1534-0.2694 0-0.47894-0.0823-0.63608-0.24695-0.15361-0.16068-0.23198-0.39659-0.23198-0.68844 0-0.30682 0.0786-0.54254 0.23573-0.71465 0.16109-0.16816 0.36669-0.2544 0.61362-0.25442 0.24694-1e-5 0.4415 0.0823 0.59865 0.24695 0.15339 0.16838 0.23197 0.40408 0.23198 0.70341 0 0.015-7e-5 0.0449 0 0.0823h-1.3619c0.0112 0.1983 0.0673 0.3517 0.17212 0.45647 0.10123 0.1083 0.22821 0.1609 0.3779 0.16089 0.11228 0 0.20952-0.0299 0.29183-0.0898 0.0786-0.0561 0.14613-0.1532 0.19082-0.28062zm-1.014-0.50511 1.014 4e-3c-0.0112-0.1534-0.0524-0.2694-0.11225-0.34423-0.0973-0.11975-0.22453-0.17956-0.38164-0.17959-0.14219 0-0.26566 0.0486-0.35919 0.14218-0.0973 0.0973-0.15342 0.22073-0.16089 0.3779z"/>
<path d="m395.98-131.14 0.96534-2.5143h0.35918l1.0327 2.5143h-0.38164l-0.29185-0.76328-1.0514 4e-3 -0.27689 0.76329zm0.72588-1.0327h0.85307l-0.2619-0.69593c-0.0786-0.21324-0.13845-0.38538-0.1796-0.52382-0.03 0.1646-0.0748 0.32177-0.13096 0.48266zm1.8858 1.0327-4e-3 -1.8222h0.27688l4e-3 0.25817c0.13097-0.19829 0.32928-0.29931 0.5762-0.29933 0.11229 0 0.21328 0.0187 0.30681 0.0599 0.0897 0.0374 0.15713 0.0898 0.20576 0.15343 0.0449 0.0674 0.0748 0.14217 0.0935 0.22828 0.015 0.0598 0.0187 0.16089 0.0187 0.30306l4e-3 1.1187-0.31429 1e-5v-1.1075c7e-5 -0.12721-0.0112-0.22076-0.0337-0.28062-0.0262-0.0636-0.0674-0.11221-0.12719-0.14968-0.0636-0.0412-0.13469-0.0599-0.21702-0.0599-0.13095 4e-3 -0.24694 0.0449-0.33674 0.12721-0.0973 0.0823-0.14591 0.24321-0.14592 0.47518v0.99526zm3.128 0v-0.23198c-0.11601 0.18333-0.28811 0.27312-0.5126 0.27314-0.14217 0-0.27688-0.0374-0.3966-0.11973-0.12351-0.0785-0.21704-0.19455-0.2844-0.33672-0.0673-0.14217-0.10102-0.31055-0.0973-0.49389-4e-3 -0.18333 0.0262-0.34797 0.0898-0.49388 0.0599-0.14966 0.14964-0.26193 0.2694-0.34422 0.12351-0.0785 0.25817-0.11598 0.40784-0.11598 0.11229 0 0.20952 0.0225 0.29184 0.0674 0.086 0.0486 0.15344 0.10846 0.21329 0.18331l-4e-3 -0.90172h0.30682l-1e-5 2.5143zm-0.97653-0.90922c0 0.23197 0.0486 0.40782 0.14966 0.52381 0.0935 0.11601 0.2095 0.17216 0.34423 0.17212 0.1347 7e-5 0.25068-0.0561 0.34422-0.16463 0.0973-0.11226 0.14222-0.27684 0.14218-0.50885 0-0.24695-0.0486-0.43028-0.14218-0.54628-0.10101-0.116-0.21704-0.17207-0.35545-0.17585-0.1384 4e-3 -0.25443 0.0599-0.34422 0.17211-0.0935 0.10852-0.13844 0.28811-0.13844 0.52757zm2.9858 0.32178 0.32177 0.0374c-0.0524 0.18704-0.14592 0.333-0.28062 0.43776-0.13471 0.10474-0.31055 0.15341-0.52008 0.15341-0.26939 0-0.47892-0.0823-0.63606-0.24694-0.15736-0.16443-0.23572-0.39287-0.23198-0.68846 0-0.3068 0.0748-0.54627 0.23572-0.71464 0.15713-0.17212 0.35921-0.25441 0.61362-0.25443 0.24694 0 0.4415 0.0823 0.59865 0.24695 0.15339 0.16838 0.22824 0.40035 0.23198 0.70342 0 0.015-7e-5 0.0449-4e-3 0.0786l-1.3582 4e-3c0.0112 0.1983 0.0674 0.3517 0.16838 0.46021 0.10477 0.10476 0.23197 0.15715 0.38164 0.15715 0.11229 0 0.20953-0.0299 0.29184-0.0898 0.0786-0.0561 0.14613-0.1532 0.18707-0.28437zm-1.014-0.49763 1.0177-1e-5c-0.0112-0.1534-0.0524-0.26939-0.11598-0.34797-0.0973-0.11974-0.22453-0.17956-0.38164-0.17959-0.13841 4e-3 -0.26191 0.0524-0.35545 0.14592-0.10082 0.0937-0.15342 0.22073-0.16463 0.38165zm1.7585 1.085-4e-3 -1.8222h0.27688v0.27688c0.0711-0.13093 0.13845-0.21326 0.19832-0.25814 0.0599-0.0374 0.12721-0.0599 0.19454-0.0599 0.10479 0 0.21327 0.0337 0.31803 0.10102l-0.10476 0.28436c-0.0749-0.0449-0.14966-0.0674-0.2245-0.0674-0.0673 0-0.12723 0.0224-0.18336 0.0636-0.0524 0.0374-0.09 0.0971-0.11602 0.16835-0.0337 0.10849-0.0486 0.22824-0.0524 0.35919l4e-3 0.9541zm2.3909-0.58742 0.31804 0.0412c-0.0487 0.1833-0.14218 0.32925-0.27689 0.43401-0.13846 0.10099-0.31054 0.15342-0.52756 0.15341-0.2619 0-0.47144-0.0823-0.62858-0.24695-0.15735-0.16443-0.23571-0.39286-0.23572-0.69219 0-0.30681 0.0786-0.54253 0.23946-0.7109 0.1534-0.16839 0.35921-0.25441 0.61362-0.25443 0.23946 0 0.4415 0.0823 0.59491 0.25069 0.15736 0.16443 0.23198 0.39661 0.23198 0.69593 0 0.0225-4e-3 0.0486-4e-3 0.0861l-1.3582-4e-3c0.015 0.20204 0.0711 0.35545 0.17211 0.46396 0.0975 0.10456 0.22447 0.15716 0.38164 0.15714 0.11228 0 0.20953-0.0299 0.28811-0.0861 0.0786-0.0636 0.14216-0.15715 0.1908-0.2881zm-1.014-0.49764h1.0177c-0.015-0.15715-0.0524-0.26939-0.11974-0.34422-0.0973-0.11975-0.22445-0.17963-0.38164-0.1796-0.14218 0-0.25817 0.0486-0.35919 0.14218-0.0935 0.0936-0.14593 0.22075-0.15714 0.38164z"/>
<path d="m414.87-192.41v1.7779h1.7779v-1.7779z" fill="#8eacf7" fill-rule="evenodd"/>
<path d="m414.78-192.41c0-0.0423 0.0423-0.0847 0.0847-0.0847h1.7779c0.0476 0 0.0847 0.0423 0.0847 0.0847v1.7779c0 0.0476-0.037 0.0847-0.0847 0.0847h-1.7779c-0.0423 0-0.0847-0.037-0.0847-0.0847zm0.16933 1.7779-0.0847-0.0847h1.7779l-0.0847 0.0847v-1.7779l0.0847 0.0847h-1.7779l0.0847-0.0847z" fill="#8999c8" stroke="#8999c8" stroke-linejoin="bevel" stroke-width=".042331px"/>
<text x="417.41153" y="-190.40791" fill="#000000" font-family="Arial" font-size="3.5057px" font-weight="400" letter-spacing="0px" stroke-width=".26458" word-spacing="0px" style="line-height:125%" xml:space="preserve"><tspan x="417.41153" y="-190.40791" stroke-width=".26458"><tspan dx="0" dy="0" fill="#000000" font-family="Arial" font-size="3.5057px" font-weight="400" stroke-width=".26458">Gar nicht</tspan></tspan></text>
<path d="m414.87-184.96v1.7779h1.7779v-1.7779z" fill="#3da7af" fill-rule="evenodd"/>
<path d="m414.78-184.96c0-0.0423 0.0423-0.0847 0.0847-0.0847h1.7779c0.0476 0 0.0847 0.0423 0.0847 0.0847v1.7779c0 0.0476-0.037 0.0847-0.0847 0.0847h-1.7779c-0.0423 0-0.0847-0.037-0.0847-0.0847zm0.16933 1.7779-0.0847-0.0847h1.7779l-0.0847 0.0847v-1.7779l0.0847 0.0847h-1.7779l0.0847-0.0847z" fill="#2a7a80" stroke="#2a7a80" stroke-linejoin="bevel" stroke-width=".042331px"/>
<text x="417.41153" y="-182.96144" fill="#000000" font-family="Arial" font-size="3.5057px" font-weight="400" letter-spacing="0px" stroke-width=".26458" word-spacing="0px" style="line-height:125%" xml:space="preserve"><tspan x="417.41153" y="-182.96144" stroke-width=".26458"><tspan dx="0" dy="0" fill="#000000" font-family="Arial" font-size="3.5057px" font-weight="400" stroke-width=".26458">Monatlich</tspan></tspan></text>
<path d="m414.87-177.51v1.7356h1.7779v-1.7356z" fill="#e26001" fill-rule="evenodd"/>
<path d="m414.78-177.51c0-0.0423 0.0423-0.0847 0.0847-0.0847h1.7779c0.0476 0 0.0847 0.0423 0.0847 0.0847v1.7356c0 0.0476-0.037 0.0847-0.0847 0.0847h-1.7779c-0.0423 0-0.0847-0.037-0.0847-0.0847zm0.16933 1.7356-0.0847-0.0847h1.7779l-0.0847 0.0847v-1.7356l0.0847 0.0847h-1.7779l0.0847-0.0847z" fill="#a64400" stroke="#a64400" stroke-linejoin="bevel" stroke-width=".042331px"/>
<text x="417.41153" y="-175.51497" fill="#000000" font-family="Arial" font-size="3.5057px" font-weight="400" letter-spacing="0px" stroke-width=".26458" word-spacing="0px" style="line-height:125%" xml:space="preserve"><tspan x="417.41153" y="-175.51497" stroke-width=".26458"><tspan dx="0" dy="0" fill="#000000" font-family="Arial" font-size="3.5057px" font-weight="400" stroke-width=".26458">Wöchentlich</tspan></tspan></text>
<path d="m414.87-170.06v1.7356h1.7779v-1.7356z" fill="#2d9449" fill-rule="evenodd"/>
<path d="m414.78-170.06c0-0.0423 0.0423-0.0847 0.0847-0.0847h1.7779c0.0476 0 0.0847 0.0423 0.0847 0.0847v1.7356c0 0.0476-0.037 0.0847-0.0847 0.0847h-1.7779c-0.0423 0-0.0847-0.037-0.0847-0.0847zm0.16933 1.7356-0.0847-0.0847h1.7779l-0.0847 0.0847v-1.7356l0.0847 0.0847h-1.7779l0.0847-0.0847z" fill="#1e6c33" stroke="#1e6c33" stroke-linejoin="bevel" stroke-width=".042331px"/>
<text x="417.41153" y="-168.06848" fill="#000000" font-family="Arial" font-size="3.5057px" font-weight="400" letter-spacing="0px" stroke-width=".26458" word-spacing="0px" style="line-height:125%" xml:space="preserve"><tspan x="417.41153" y="-168.06848" stroke-width=".26458"><tspan dx="0" dy="0" fill="#000000" font-family="Arial" font-size="3.5057px" font-weight="400" stroke-width=".26458">Am Wochenende</tspan></tspan></text>
<path d="m414.87-162.65v1.7779h1.7779v-1.7779z" fill="#dea603" fill-rule="evenodd"/>
<path d="m414.78-162.65c0-0.0423 0.0423-0.0847 0.0847-0.0847h1.7779c0.0476 0 0.0847 0.0423 0.0847 0.0847v1.7779c0 0.0476-0.037 0.0847-0.0847 0.0847h-1.7779c-0.0423 0-0.0847-0.037-0.0847-0.0847zm0.16933 1.7779-0.0847-0.0847h1.7779l-0.0847 0.0847v-1.7779l0.0847 0.0847h-1.7779l0.0847-0.0847z" fill="#a37902" stroke="#a37902" stroke-linejoin="bevel" stroke-width=".042331px"/>
<text x="417.41153" y="-160.62201" fill="#000000" font-family="Arial" font-size="3.5057px" font-weight="400" letter-spacing="0px" stroke-width=".26458" word-spacing="0px" style="line-height:125%" xml:space="preserve"><tspan x="417.41153" y="-160.62201" stroke-width=".26458"><tspan dx="0" dy="0" fill="#000000" font-family="Arial" font-size="3.5057px" font-weight="400" stroke-width=".26458">1x pro Tag</tspan></tspan></text>
<path d="m414.87-155.2v1.7779h1.7779v-1.7779z" fill="#cf3a2e" fill-rule="evenodd"/>
<path d="m414.78-155.2c0-0.0423 0.0423-0.0847 0.0847-0.0847h1.7779c0.0476 0 0.0847 0.0423 0.0847 0.0847v1.7779c0 0.0476-0.037 0.0847-0.0847 0.0847h-1.7779c-0.0423 0-0.0847-0.037-0.0847-0.0847zm0.16933 1.7779-0.0847-0.0847h1.7779l-0.0847 0.0847v-1.7779l0.0847 0.0847h-1.7779l0.0847-0.0847z" fill="#98281f" stroke="#98281f" stroke-linejoin="bevel" stroke-width=".042331px"/>
<text x="417.41153" y="-153.17554" fill="#000000" font-family="Arial" font-size="3.5057px" font-weight="400" letter-spacing="0px" stroke-width=".26458" word-spacing="0px" style="line-height:125%" xml:space="preserve"><tspan x="417.41153" y="-153.17554" stroke-width=".26458"><tspan dx="0" dy="0" fill="#000000" font-family="Arial" font-size="3.5057px" font-weight="400" stroke-width=".26458">Mehrere Stunden täglich</tspan></tspan></text>
<path d="m414.87-147.75v1.7779h1.7779v-1.7779z" fill="#3975d8" fill-rule="evenodd"/>
<path d="m414.78-147.75c0-0.0423 0.0423-0.0847 0.0847-0.0847h1.7779c0.0476 0 0.0847 0.0423 0.0847 0.0847v1.7779c0 0.0476-0.037 0.0847-0.0847 0.0847h-1.7779c-0.0423 0-0.0847-0.037-0.0847-0.0847zm0.16933 1.7779-0.0847-0.0847h1.7779l-0.0847 0.0847v-1.7779l0.0847 0.0847h-1.7779l0.0847-0.0847z" fill="#27549e" stroke="#27549e" stroke-linejoin="bevel" stroke-width=".042331px"/>
<text x="417.41153" y="-145.72906" fill="#000000" font-family="Arial" font-size="3.5057px" font-weight="400" letter-spacing="0px" stroke-width=".26458" word-spacing="0px" style="line-height:125%" xml:space="preserve"><tspan x="417.41153" y="-145.72906" stroke-width=".26458"><tspan dx="0" dy="0" fill="#000000" font-family="Arial" font-size="3.5057px" font-weight="400" stroke-width=".26458">Fast immer</tspan></tspan></text>
<path d="m359.34-127.21-1e-5 -2.5218 0.86431 4e-3c0.19456 0 0.34797 0.0112 0.449 0.0374 0.14594 0.0336 0.26938 0.0898 0.37041 0.17585 0.13097 0.11597 0.22822 0.25819 0.29555 0.43031 0.0673 0.17962 0.10102 0.3779 0.10102 0.6024 0 0.18708-0.0224 0.35918-0.0711 0.50511-0.0411 0.14593-0.0973 0.26939-0.16837 0.36294-0.0711 0.10104-0.14589 0.17587-0.23197 0.23197-0.0786 0.0561-0.1796 0.0973-0.29933 0.12722-0.11599 0.0262-0.25068 0.0412-0.40035 0.0412zm0.33303-0.30304 0.53504 4e-3c0.16837-4e-3 0.29932-0.015 0.39286-0.0487 0.0935-0.0262 0.16838-0.0711 0.2245-0.1272 0.0786-0.0786 0.14222-0.18705 0.18337-0.318 0.0449-0.13471 0.0674-0.29934 0.0674-0.48641 0-0.26192-0.0449-0.46397-0.12721-0.60614-0.0898-0.14215-0.19086-0.23569-0.31432-0.28434-0.0935-0.0337-0.23571-0.0486-0.43402-0.0524l-0.52757 4e-3zm2.2113-1.8596 1e-5 -0.35919 0.31055 4e-3 -4e-3 0.35546zm1e-5 2.1626v-1.8259l0.3068-1e-5 4e-3 1.8222zm0.63607-0.54627 0.30307-0.0486c0.0187 0.12349 0.0674 0.21701 0.14589 0.28066 0.0786 0.0636 0.18707 0.0973 0.32925 0.0973s0.24695-0.0299 0.31804-0.0861c0.0634-0.0564 0.101-0.12349 0.10101-0.2058 0-0.0673-0.0299-0.11973-0.0936-0.16088-0.0412-0.0262-0.14591-0.0636-0.31429-0.10475-0.2245-0.0599-0.38538-0.10851-0.47144-0.14967-0.0861-0.0411-0.15338-0.10105-0.19832-0.17584-0.0449-0.0674-0.0673-0.14965-0.0673-0.23946 0-0.0823 0.0187-0.16089 0.0561-0.22824 0.0374-0.0674 0.0898-0.12717 0.14964-0.17213 0.0486-0.0337 0.11596-0.0636 0.19458-0.0898 0.0861-0.0262 0.17585-0.0337 0.26939-0.0374 0.14218 0 0.2694 0.0224 0.3779 0.0636 0.10849 0.0412 0.18709 0.0973 0.23945 0.16465 0.0487 0.0711 0.0861 0.16837 0.10477 0.28435l-0.30307 0.0412c-0.0113-0.0936-0.0486-0.16839-0.11598-0.22076-0.0674-0.0524-0.16089-0.0786-0.28061-0.0786-0.14218 0-0.2432 0.0262-0.30307 0.0711-0.0599 0.0449-0.0937 0.10082-0.0898 0.16462 0 0.0375 0.0112 0.0786 0.0374 0.10475 0.0224 0.0374 0.0636 0.0636 0.11601 0.086 0.0337 0.0112 0.12348 0.0337 0.27314 0.0786 0.22075 0.0561 0.37415 0.10477 0.45647 0.14218 0.0898 0.0375 0.15713 0.0898 0.20582 0.16085 0.0487 0.0711 0.0711 0.1609 0.0711 0.26566 4e-3 0.10105-0.0262 0.1983-0.0898 0.29184-0.0598 0.0898-0.14591 0.1609-0.25813 0.21332-0.11224 0.0449-0.24321 0.0711-0.38538 0.0711-0.23198 0-0.41532-0.0486-0.53879-0.14966-0.12724-0.0973-0.20576-0.24325-0.23946-0.43404zm3.0905-0.12721 0.30308 0.0412c-0.0299 0.20953-0.11974 0.37416-0.25443 0.49389-0.13846 0.11597-0.30304 0.17589-0.50512 0.17585-0.24694 0-0.44899-0.0823-0.59865-0.24695-0.1536-0.16067-0.22823-0.39286-0.22824-0.69967 0-0.19456 0.0337-0.37041 0.0973-0.51634 0.0636-0.14592 0.16463-0.25442 0.2993-0.32928 0.13468-0.0748 0.27688-0.11225 0.43403-0.11225 0.19829 4e-3 0.35918 0.0524 0.4864 0.14966 0.12349 0.10101 0.20576 0.24324 0.23946 0.42655l-0.29933 0.0449c-0.0299-0.11973-0.0786-0.21323-0.15337-0.27316-0.0709-0.0638-0.16088-0.0936-0.25817-0.0935-0.15715 0-0.28436 0.0524-0.38164 0.16463-0.0973 0.11226-0.14592 0.2881-0.14592 0.53505 0 0.23945 0.0449 0.41907 0.14218 0.53131 0.0935 0.10851 0.21698 0.16466 0.36667 0.16463 0.11978 0 0.22076-0.0337 0.30307-0.10851 0.0821-0.075 0.13098-0.1908 0.1534-0.34798zm0.43403-0.23946c-4e-3 -0.34048 0.0935-0.58742 0.28061-0.75205 0.15717-0.13469 0.34423-0.20205 0.57247-0.19831 0.25069-4e-3 0.45273 0.0786 0.61362 0.23946 0.16109 0.16816 0.23946 0.39661 0.23946 0.68097 0 0.23946-0.0337 0.4228-0.10851 0.55749-0.0674 0.13468-0.17213 0.23944-0.30327 0.31034-0.13468 0.0749-0.28436 0.11225-0.44151 0.11225-0.25443 0-0.46397-0.0823-0.61736-0.2432-0.15736-0.16443-0.23572-0.40035-0.23573-0.70716zm0.31429 0c0 0.23198 0.0524 0.40409 0.1534 0.52008 0.10476 0.11975 0.22821 0.17589 0.38539 0.17586 0.1534 4e-3 0.28062-0.0561 0.38164-0.17212 0.10476-0.11974 0.1534-0.29558 0.1534-0.53504 0-0.2245-0.0524-0.39661-0.1534-0.5126-0.10101-0.116-0.22821-0.17588-0.38164-0.17211-0.15341-4e-3 -0.28062 0.0561-0.38538 0.16837-0.10101 0.116-0.14966 0.29184-0.15341 0.52756zm1.7847 0.90921v-1.8184l0.28062-4e-3v0.27689c0.0674-0.1272 0.13471-0.21701 0.19459-0.25442 0.0599-0.0449 0.12345-0.0636 0.19827-0.0636 0.1048 0 0.20579 0.0337 0.31804 0.10103l-0.10851 0.28809c-0.0749-0.0449-0.14966-0.0674-0.2245-0.0674-0.0673 0-0.13097 0.0187-0.1833 0.0562-0.0522 0.0451-0.0937 0.10081-0.11227 0.17208-0.0374 0.11224-0.0561 0.22825-0.0524 0.3592l-4e-3 0.95411zm2.3722-1e-5v-0.23197c-0.11601 0.18332-0.28811 0.27312-0.51261 0.27313-0.14217 0-0.27687-0.0374-0.3966-0.11971-0.12351-0.0785-0.22078-0.19081-0.28439-0.33673-0.0674-0.14217-0.10102-0.31056-0.10102-0.49015 0-0.18708 0.0299-0.3517 0.0935-0.49762 0.0599-0.14967 0.14964-0.26194 0.26941-0.34422 0.11969-0.0749 0.25817-0.11599 0.40784-0.11599 0.11228 0 0.20952 0.0224 0.29183 0.0673 0.086 0.0486 0.15711 0.11228 0.2133 0.18331l-4e-3 -0.90172h0.3068v2.5144zm-0.97654-0.90922c0 0.23198 0.0486 0.40783 0.14967 0.52383 0.0935 0.116 0.20956 0.17208 0.34422 0.1721 0.13464 0 0.25069-0.0561 0.34422-0.16462 0.0935-0.10853 0.14222-0.27684 0.14593-0.50512-4e-3 -0.25069-0.0524-0.43402-0.14592-0.55001-0.10101-0.116-0.21697-0.17215-0.35545-0.17585-0.13848 4e-3 -0.25444 0.0599-0.34422 0.17211-0.0935 0.10852-0.13844 0.2881-0.13845 0.52756z"/>
<path d="m378.44-127.54 0.30682-0.0524c0.0187 0.12349 0.0636 0.22075 0.14217 0.28436 0.0786 0.0636 0.18708 0.0973 0.32926 0.0973 0.14219 0 0.24695-0.0299 0.31804-0.0861 0.0672-0.0601 0.101-0.12349 0.10101-0.20581 0-0.0673-0.0299-0.11972-0.0898-0.16461-0.0412-0.0262-0.14966-0.0599-0.31803-0.10103-0.2245-0.0599-0.38164-0.10476-0.47144-0.14966-0.0861-0.0411-0.15337-0.10105-0.19459-0.1721-0.0449-0.0749-0.0711-0.1534-0.0711-0.2432 0-0.0823 0.0187-0.16088 0.0561-0.22823 0.0374-0.0674 0.0898-0.12725 0.14964-0.17213 0.0487-0.0337 0.11597-0.0636 0.20207-0.0898 0.0786-0.0262 0.17215-0.0374 0.26191-0.0374 0.14218 0 0.2694 0.0225 0.37789 0.0636 0.1085 0.0412 0.18709 0.0973 0.23946 0.16464 0.0487 0.0711 0.0898 0.16462 0.10476 0.28435l-0.29932 0.0374c-0.015-0.0898-0.0524-0.16465-0.11972-0.21702-0.0674-0.0524-0.16088-0.0786-0.28062-0.0786-0.14217 1e-5 -0.23946 0.0225-0.30306 0.0711-0.0599 0.0449-0.09 0.0971-0.0898 0.16462 0 0.0375 0.015 0.0748 0.0374 0.10475 0.0264 0.0334 0.0636 0.0636 0.11977 0.0823 0.0299 0.0149 0.12347 0.0412 0.26939 0.0823 0.22075 0.0561 0.37416 0.10476 0.45648 0.14218 0.0897 0.0374 0.15713 0.0898 0.20582 0.16085 0.0487 0.0711 0.0711 0.1609 0.0711 0.26566 4e-3 0.10105-0.0262 0.19831-0.0861 0.2881-0.0636 0.0936-0.14965 0.16465-0.25814 0.21331-0.11597 0.0487-0.24695 0.0748-0.38912 0.0748-0.23198 1e-5 -0.41532-0.0486-0.53879-0.14967-0.12349-0.0935-0.20575-0.24323-0.23946-0.43401zm1.7473-0.37041c0-0.33674 0.0935-0.58743 0.27687-0.74832 0.15716-0.13468 0.35171-0.20204 0.5762-0.20204 0.24695 0 0.45647 0.0823 0.61362 0.24694 0.15735 0.16442 0.23946 0.38913 0.23946 0.68097 0 0.23198-0.0374 0.41906-0.10476 0.55376-0.0711 0.13093-0.17587 0.23569-0.31055 0.31056-0.13467 0.0748-0.27687 0.11224-0.44151 0.11225-0.25442-1e-5 -0.45646-0.0823-0.61361-0.24696-0.1609-0.1609-0.23946-0.3966-0.23572-0.70716zm0.31428 0c4e-3 0.23572 0.0524 0.41157 0.1534 0.52756 0.10101 0.116 0.23196 0.17214 0.38539 0.17586 0.15341-4e-3 0.28062-0.0636 0.38165-0.1796 0.10101-0.116 0.1534-0.29558 0.1534-0.53504 0-0.2245-0.0486-0.39287-0.15341-0.5126-0.10497-0.11204-0.22821-0.16839-0.38164-0.17211-0.1534 4e-3 -0.28435 0.0599-0.38538 0.17585-0.10101 0.116-0.15343 0.28807-0.15341 0.52008zm1.6238 0.91294 4e-3 -0.25068 1.1599-1.332c-0.13466 8e-3 -0.25068 0.0112-0.34796 0.0112h-0.74832l4e-3 -0.25069h1.4892v0.20205l-0.98778 1.1599-0.18706 0.20955c0.13466-8e-3 0.26565-0.0187 0.38912-0.015h0.83812l4e-3 0.26566zm1.9045-2.1589-4e-3 -0.35545 0.31055-4e-3v0.35919zm-4e-3 2.1589 4e-3 -1.8222h0.30682l-4e-3 1.8222zm1.9905-0.22448c-0.11226 0.0973-0.22447 0.16465-0.32554 0.20575-0.1085 0.0412-0.2245 0.0599-0.34422 0.0599-0.20205 0-0.35546-0.0486-0.46022-0.14591-0.1083-0.10124-0.16091-0.22074-0.16089-0.37792 0-0.0898 0.0187-0.16836 0.0599-0.23946 0.0412-0.0786 0.0973-0.13473 0.15712-0.17961 0.0674-0.0449 0.14591-0.0786 0.2282-0.10106 0.0562-0.0187 0.14969-0.0299 0.27314-0.0487 0.24694-0.0299 0.43028-0.0636 0.54626-0.10476 4e-3 -0.0412 4e-3 -0.0711 4e-3 -0.0786 7e-5 -0.12721-0.0299-0.21701-0.0861-0.26565-0.0784-0.0713-0.19831-0.1085-0.35172-0.10476-0.14592-4e-3 -0.25442 0.0225-0.32177 0.0748-0.0711 0.0487-0.11972 0.1422-0.15713 0.26942l-0.29558-0.0411c0.0224-0.12723 0.0673-0.23198 0.13469-0.31429 0.0636-0.0786 0.15342-0.13843 0.2694-0.1796 0.11972-0.0449 0.25443-0.0674 0.41157-0.0674 0.15715 0 0.28811 0.0187 0.38164 0.0524 0.0972 0.0374 0.16837 0.0861 0.21701 0.14219 0.0451 0.0522 0.0748 0.12718 0.0935 0.20581 0.0112 0.0561 0.015 0.14963 0.0187 0.2881l1e-5 0.41157c-4e-3 0.2881 4e-3 0.46771 0.015 0.54628 0.015 0.0748 0.0412 0.14593 0.0823 0.21697h-0.32177c-0.0337-0.0636-0.0561-0.13843-0.0674-0.2245zm-0.0225-0.68846c-0.11223 0.0449-0.28062 0.0861-0.50511 0.11599-0.12723 0.0149-0.21702 0.0374-0.26939 0.0599-0.0524 0.0224-0.0936 0.0561-0.12349 0.10102-0.0299 0.0449-0.0411 0.0935-0.0411 0.14593 0 0.0823 0.0299 0.14969 0.0935 0.20581 0.0634 0.0564 0.15338 0.0861 0.27314 0.0861 0.11978 0 0.22448-0.0299 0.31802-0.0786 0.0936-0.0561 0.16092-0.12344 0.20204-0.21704 0.0374-0.0674 0.0523-0.17213 0.0524-0.3068zm0.77828 0.91291v-2.5143h0.3068l1e-5 2.5143zm2.0541-0.58742 0.32178 0.0374c-0.0487 0.19082-0.14593 0.33301-0.28063 0.43777-0.13472 0.10474-0.31055 0.15342-0.52007 0.15341-0.2694 0-0.47893-0.0823-0.63608-0.24695-0.15361-0.16068-0.23571-0.39286-0.23197-0.68844 0-0.30683 0.0786-0.54254 0.23572-0.71466 0.15714-0.17212 0.36295-0.25066 0.61362-0.25442 0.24694 0 0.4415 0.0823 0.59865 0.24695 0.15339 0.16838 0.22824 0.40034 0.23198 0.70342 0 0.015 0 0.0448-4e-3 0.0785l-1.3582 4e-3c0.0112 0.1983 0.0673 0.35171 0.16838 0.46022 0.10476 0.10476 0.23196 0.15715 0.38164 0.15714 0.11229 0 0.20953-0.0299 0.29184-0.0898 0.0786-0.0561 0.14613-0.1532 0.18707-0.28437zm-1.014-0.49763 1.0177-1e-5c-0.0112-0.15339-0.0524-0.26939-0.11599-0.34796-0.0973-0.11975-0.22453-0.17955-0.3779-0.17585-0.14218 0-0.26565 0.0486-0.35919 0.14218-0.0973 0.0973-0.15342 0.22074-0.16462 0.38164z"/>
<path d="m378.27-122.99 1e-5 -2.5143h0.50137l0.59865 1.781c0.0524 0.16466 0.0935 0.2881 0.11973 0.37415 0.0262-0.0935 0.0711-0.22824 0.13469-0.40409l0.59866-1.751h0.44899v2.5143h-0.32177v-2.1028l-0.72588 2.1028-0.3068 1e-5 -0.72587-2.1402v2.1402zm4.1831-0.58368 0.32178 0.0374c-0.0524 0.18704-0.14593 0.33299-0.28436 0.43401-0.13098 0.101-0.31055 0.15341-0.52008 0.15341-0.26191 0-0.47892-0.0823-0.63232-0.2432-0.15736-0.16443-0.23198-0.39662-0.23573-0.69219 0-0.30682 0.0823-0.54628 0.23573-0.71465 0.16109-0.16816 0.36669-0.2544 0.61361-0.25443 0.24695 0 0.44525 0.0861 0.59866 0.24694 0.15339 0.16839 0.23571 0.40036 0.23197 0.70342 0 0.015-7e-5 0.0449 0 0.0823h-1.3619c0.0112 0.1983 0.0673 0.35171 0.17211 0.45646 0.10123 0.1083 0.22823 0.16092 0.38164 0.16463 0.11229 0 0.20953-0.0299 0.2881-0.0935 0.0823-0.0598 0.14613-0.15319 0.19082-0.28062zm-1.0102-0.50137 1.014-4e-3c-0.015-0.14963-0.0524-0.26191-0.11599-0.34049-0.0973-0.11975-0.22453-0.17956-0.38164-0.17959-0.14218-1e-5 -0.26191 0.0449-0.35919 0.14218-0.0973 0.0973-0.14967 0.22448-0.15715 0.38164zm2.896 1.085-4e-3 -0.22823c-0.11226 0.17959-0.28437 0.26939-0.50887 0.2694-0.14217 0-0.2806-0.0412-0.40034-0.12346-0.12344-0.0786-0.21704-0.18706-0.28065-0.33299-0.0674-0.14216-0.10476-0.30681-0.10476-0.49389 4e-3 -0.18333 0.0337-0.34797 0.0935-0.49763 0.0599-0.14217 0.15338-0.25818 0.2694-0.33672 0.12344-0.0786 0.26192-0.11973 0.41158-0.11973 0.1048 0 0.20579 0.0262 0.29185 0.0674 0.0861 0.0486 0.15343 0.10846 0.2058 0.18332l4e-3 -0.90173h0.30681v2.5144zm-0.97654-0.90922c-4e-3 0.23574 0.0486 0.40785 0.14218 0.52385 0.10101 0.116 0.21705 0.17207 0.35171 0.1721 0.13463 0 0.25068-0.0561 0.34422-0.16463 0.0935-0.10852 0.14222-0.27685 0.13844-0.50511 4e-3 -0.2507-0.0449-0.43403-0.14218-0.54628-0.0973-0.11975-0.2133-0.17582-0.35545-0.17585-0.1384-4e-3 -0.25068 0.0561-0.34422 0.16463-0.0898 0.11226-0.13845 0.28809-0.1347 0.53129zm1.7398-1.2534 1e-5 -0.35171h0.3068l4e-3 0.35545zm0 2.1626 4e-3 -1.8221 0.30682-1e-5 -4e-3 1.8222zm2.0504-0.58367 0.32177 0.0374c-0.0523 0.18712-0.14592 0.33302-0.28436 0.43403-0.13472 0.10475-0.31055 0.15341-0.52008 0.15341-0.26565 4e-3 -0.47892-0.0823-0.63232-0.2432-0.15736-0.16444-0.23198-0.39662-0.23572-0.6922 0-0.30681 0.0823-0.54627 0.23572-0.71464 0.16109-0.16817 0.3667-0.25441 0.61361-0.25443 0.24695 0 0.44525 0.0861 0.59866 0.24694 0.15339 0.16838 0.23198 0.40409 0.23198 0.70342 0 0.015-7e-5 0.0449 0 0.0823l-1.3619 1e-5c0.0112 0.1983 0.0673 0.35171 0.17212 0.45648 0.10123 0.10829 0.22822 0.1609 0.3779 0.16089 0.11603 4e-3 0.20953-0.0299 0.29183-0.0898 0.0823-0.0598 0.14614-0.15319 0.19082-0.28061zm-1.014-0.50513h1.0177c-0.015-0.14963-0.0524-0.2619-0.11599-0.34048-0.0973-0.11974-0.22447-0.17963-0.38164-0.1796-0.14218 1e-5 -0.26191 0.0449-0.3592 0.14218-0.0973 0.0973-0.14967 0.22449-0.16088 0.3779zm1.7174 1.0888-4e-3 -1.8222h0.27687l4e-3 0.25817c0.13098-0.1983 0.3218-0.29931 0.57621-0.29933 0.11229 0 0.21326 0.0187 0.30681 0.0599 0.0898 0.0375 0.15712 0.0898 0.20575 0.15342 0.0449 0.0674 0.0748 0.14217 0.0936 0.22821 0.0112 0.0561 0.0187 0.16089 0.0187 0.30306l-4e-3 1.1188-0.3068-1e-5v-1.1075c0-0.12728-0.0112-0.22076-0.0337-0.28062-0.0262-0.0636-0.0674-0.11221-0.12719-0.14968-0.0636-0.0412-0.13469-0.0599-0.21701-0.0599-0.13096 4e-3 -0.24695 0.0449-0.34049 0.13096-0.0935 0.0786-0.14217 0.23947-0.14218 0.47144v0.99526z"/>
<path d="m393.56-123.81 0.333 0.0786c-0.0673 0.27688-0.19456 0.4864-0.37416 0.6286-0.18337 0.14589-0.40409 0.21701-0.666 0.21701-0.27314-4e-3 -0.49389-0.0599-0.66226-0.16838-0.16835-0.10853-0.29935-0.26937-0.38912-0.47893-0.0898-0.20956-0.1347-0.43402-0.1347-0.67347 0-0.26192 0.0524-0.4939 0.1534-0.68472 0.0973-0.19457 0.23945-0.34424 0.42653-0.44901 0.18708-0.0973 0.38912-0.14965 0.60987-0.14591 0.25069-4e-3 0.46396 0.0599 0.63233 0.19081 0.17208 0.12725 0.29183 0.30682 0.3592 0.53879l-0.32552 0.0786c-0.0561-0.18336-0.14592-0.31803-0.25443-0.40409-0.10853-0.0785-0.25072-0.12344-0.41906-0.11972-0.19082-4e-3 -0.35171 0.0449-0.48266 0.13843-0.13099 0.0935-0.22429 0.21723-0.27312 0.37043-0.0524 0.15716-0.0786 0.31803-0.0823 0.4864 0 0.20953 0.0337 0.40036 0.0935 0.5575 0.0636 0.16089 0.16086 0.28065 0.29186 0.35918 0.13093 0.0786 0.27314 0.11599 0.42654 0.11972 0.18708 2e-5 0.34797-0.0561 0.47518-0.16089 0.12723-0.11223 0.21704-0.26936 0.26192-0.47892zm0.59117-0.0299c-1e-5 -0.33675 0.0935-0.58744 0.28061-0.75206 0.15717-0.13468 0.35171-0.20204 0.57621-0.20205 0.24694 0 0.44899 0.0823 0.61362 0.24694 0.15735 0.16443 0.23572 0.39286 0.23572 0.67723 0 0.23946-0.0337 0.4228-0.10477 0.55375-0.0711 0.13843-0.17213 0.23945-0.30701 0.3141-0.13468 0.0749-0.28436 0.11224-0.44151 0.11224-0.25443 0-0.46021-0.0786-0.61736-0.2432-0.15735-0.16443-0.23572-0.40035-0.23572-0.70716zm0.31803-4e-3c-4e-3 0.23572 0.0486 0.40784 0.1534 0.52756 0.10101 0.116 0.22822 0.17589 0.38164 0.17211 0.15715 0 0.28063-0.0561 0.38538-0.17585 0.10101-0.116 0.14968-0.29184 0.14967-0.5313 0-0.22449-0.0524-0.3966-0.1534-0.5126-0.10101-0.116-0.22821-0.17589-0.38165-0.17212-0.1534-4e-3 -0.28062 0.0561-0.38164 0.17212-0.10497 0.11205-0.15343 0.28808-0.1534 0.52008zm1.7436 0.91295 4e-3 -1.8222h0.26939l4e-3 0.25817c0.0561-0.0936 0.13466-0.16465 0.22802-0.22096 0.0935-0.0487 0.20575-0.0786 0.32553-0.0786 0.13463 0 0.2432 0.0262 0.32925 0.0823 0.0861 0.0561 0.14968 0.1347 0.18337 0.2357 0.14593-0.21326 0.33301-0.31803 0.56498-0.31804 0.17959 0 0.31803 0.0486 0.41531 0.15341 0.0973 0.0973 0.14591 0.2507 0.14592 0.46022v1.2497l-0.30681-1e-5v-1.1449c0-0.12728-0.0112-0.21327-0.0299-0.26939-0.0187-0.0562-0.0598-0.0973-0.10849-0.13097-0.0561-0.0337-0.11597-0.0487-0.18705-0.0524-0.12721 7e-5 -0.23197 0.0449-0.31803 0.13096-0.0861 0.0861-0.13095 0.22076-0.12721 0.41157v1.0551l-0.30681-1e-5v-1.1823c-4e-3 -0.13841-0.0262-0.2432-0.0786-0.31054-0.0487-0.0711-0.13099-0.10101-0.24695-0.10477-0.0861 4e-3 -0.16837 0.0262-0.24321 0.0711-0.0711 0.0486-0.12722 0.11223-0.15717 0.20201-0.0337 0.0861-0.0486 0.21327-0.0486 0.3779l-4e-3 0.94662zm2.9633-1e-5 -1e-5 -1.8184 0.27314-4e-3 4e-3 0.25818c0.0561-0.0936 0.13466-0.16465 0.22802-0.22096 0.0935-0.0487 0.20582-0.0785 0.32553-0.0786 0.13463 0 0.2432 0.0262 0.32925 0.0823 0.0861 0.0561 0.14968 0.13469 0.18336 0.23569 0.14594-0.21325 0.33302-0.31802 0.56499-0.31803 0.17959 0 0.31803 0.0486 0.41531 0.1534 0.0973 0.0973 0.14592 0.2507 0.14593 0.46022v1.2497h-0.30681v-1.1449c0-0.12728-0.0112-0.21327-0.0299-0.2694-0.0224-0.0524-0.0599-0.0972-0.10847-0.13097-0.0562-0.0337-0.11598-0.0487-0.18713-0.0524-0.1272 7e-5 -0.23197 0.0449-0.31802 0.13096-0.0861 0.0861-0.13097 0.22076-0.12722 0.41157v1.0551h-0.3068v-1.1824c-4e-3 -0.13841-0.0262-0.24321-0.0786-0.31055-0.0524-0.0674-0.13099-0.101-0.24696-0.10477-0.0861 4e-3 -0.16836 0.0262-0.24319 0.0711-0.0711 0.0487-0.12723 0.11224-0.15719 0.20201-0.0337 0.0861-0.0486 0.21327-0.0486 0.37791l-4e-3 0.94663zm4.1157 1e-5 -1e-5 -0.2694c-0.14219 0.20951-0.33302 0.31053-0.57995 0.31056-0.10479 0-0.20578-0.0187-0.29932-0.0599-0.0935-0.0412-0.16087-0.0936-0.2095-0.15717-0.0449-0.0599-0.0786-0.13842-0.0936-0.22821-0.015-0.0598-0.0225-0.15711-0.0187-0.2881v-1.13l0.30682 1e-5v1.0102c4e-3 0.16089 7e-3 0.26939 0.0187 0.32552 0.0225 0.0823 0.0636 0.14592 0.12349 0.1908 0.0636 0.0487 0.14217 0.0674 0.23572 0.0711 0.0898 0 0.17959-0.0224 0.25816-0.0711 0.0824-0.0449 0.14221-0.11222 0.1721-0.19458 0.0375-0.0823 0.0524-0.20204 0.0561-0.35545l-4e-3 -0.97655h0.30682l4e-3 1.8222zm0.79321-1e-5 4e-3 -1.8222 0.27689 1e-5 -2e-5 0.2619c0.13471-0.20202 0.32555-0.30305 0.57996-0.30305 0.10854 4e-3 0.20952 0.0224 0.29932 0.0598 0.0935 0.0412 0.16462 0.0898 0.2095 0.15718 0.0449 0.0599 0.0786 0.13842 0.0972 0.22452 7e-3 0.0599 0.015 0.15715 0.015 0.29934v1.1225l-0.30682-1e-5v-1.1075c0-0.12728-0.0112-0.22076-0.0374-0.28437-0.0224-0.0599-0.0673-0.11228-0.12719-0.14968-0.0636-0.0337-0.1347-0.0524-0.21702-0.0524-0.13095-4e-3 -0.2432 0.0412-0.34048 0.12346-0.0933 0.0863-0.14217 0.23948-0.14217 0.47893l-4e-3 0.99152zm1.9494-2.1589 4e-3 -0.35546 0.30681-1e-5v0.35171zm4e-3 2.1589-4e-3 -1.8222 0.30681-1e-5 4e-3 1.8222zm1.4293-0.27688 0.0486 0.27313c-0.0861 0.0187-0.16467 0.0299-0.23571 0.0262-0.11229 0-0.19832-0.0187-0.26192-0.0524-0.0599-0.0374-0.10478-0.0823-0.13117-0.13823-0.0224-0.0599-0.0374-0.1796-0.0337-0.36293l-4e-3 -1.0514h-0.22449v-0.23946h0.22449l4e-3 -0.45274 0.30311-0.18331-2e-5 0.63606h0.3143v0.23947h-0.3143l4e-3 1.0663c0 0.0898 4e-3 0.14594 0.015 0.17211 0.0112 0.0262 0.0299 0.0449 0.0526 0.0597 0.0262 0.0112 0.0599 0.0224 0.10854 0.0187 0.0337 4e-3 0.0786-4e-3 0.13098-0.0112zm0.34797-1.882-4e-3 -0.35546 0.31056-4e-3 -1e-5 0.35919zm-4e-3 2.1589 4e-3 -1.8222 0.3068-1e-5 4e-3 1.8222zm2.0092-0.58743 0.31804 0.0412c-0.0487 0.18331-0.14219 0.32925-0.27688 0.43403-0.13847 0.10098-0.31055 0.1534-0.52008 0.1534-0.26939 0-0.47893-0.0823-0.63607-0.24695-0.15735-0.16443-0.23572-0.39287-0.23572-0.69219 0-0.30681 0.0786-0.54253 0.23946-0.71091 0.15339-0.16838 0.3592-0.25441 0.61362-0.25442 0.23945 0 0.44151 0.0823 0.59491 0.25069 0.15735 0.16442 0.23197 0.3966 0.23198 0.69593 0 0.0225 0 0.0448-4e-3 0.0861h-1.3544c0.0112 0.1983 0.0673 0.3517 0.16837 0.46022 0.10476 0.10476 0.2282 0.1609 0.38164 0.15714 0.11229 0 0.20953-0.0299 0.28811-0.0861 0.0786-0.0636 0.14215-0.15715 0.1908-0.2881zm-1.014-0.49764h1.0177c-0.0112-0.1534-0.0524-0.26939-0.11599-0.34797-0.10101-0.116-0.2282-0.17588-0.38538-0.17585-0.14218-1e-5 -0.25817 0.0486-0.35919 0.14218-0.0935 0.0935-0.14593 0.22074-0.15715 0.38164zm1.5902 0.54253 0.30307-0.0487c0.0187 0.1235 0.0673 0.21703 0.14588 0.28066 0.0786 0.0636 0.18708 0.0973 0.32927 0.0973 0.14217 1e-5 0.24694-0.0299 0.31803-0.0861 0.0634-0.0563 0.101-0.12348 0.10101-0.2058 0-0.0673-0.0337-0.12346-0.0935-0.16087-0.0412-0.0262-0.14592-0.0636-0.3143-0.10476-0.22449-0.0599-0.38538-0.10851-0.47144-0.14967-0.086-0.0412-0.15337-0.10103-0.19832-0.17583-0.0487-0.0711-0.0674-0.14966-0.0674-0.23946 0-0.0823 0.0187-0.16089 0.0561-0.22823 0.0374-0.0674 0.0898-0.12724 0.14965-0.17213 0.0487-0.0337 0.11596-0.0636 0.19458-0.0898 0.0861-0.0262 0.17215-0.0374 0.26939-0.0374 0.14218 0 0.2694 0.0225 0.3779 0.0636 0.10849 0.0412 0.18708 0.0973 0.23945 0.16463 0.0487 0.0711 0.0861 0.16837 0.10476 0.28437l-0.30307 0.0412c-0.0112-0.0936-0.0486-0.1684-0.11597-0.22077-0.0674-0.0524-0.16088-0.0786-0.28062-0.0786-0.14218 0-0.2432 0.0262-0.30307 0.0711-0.0599 0.0449-0.0937 0.10082-0.0898 0.16462 7e-5 0.0374 0.0112 0.0786 0.0374 0.10475 0.0224 0.0374 0.0636 0.0636 0.11601 0.086 0.0337 0.0112 0.12348 0.0337 0.27314 0.0786 0.22075 0.0561 0.37416 0.10477 0.45647 0.14218 0.0898 0.0375 0.15713 0.0898 0.20582 0.16085 0.0487 0.0711 0.0711 0.16089 0.0711 0.26566 4e-3 0.10105-0.0262 0.1983-0.0898 0.29184-0.0598 0.0898-0.14592 0.1609-0.25813 0.21331-0.11224 0.0449-0.24321 0.0711-0.38539 0.0711-0.23572 4e-3 -0.41532-0.0486-0.53879-0.14966-0.12723-0.0973-0.20575-0.24323-0.23946-0.43403z"/>
<path d="m397.55-127.43 0.31055-0.0262c0.0187 0.12347 0.0487 0.22823 0.10476 0.3068 0.0524 0.0824 0.13865 0.14572 0.25441 0.19458 0.11223 0.0524 0.24321 0.0786 0.38538 0.0786 0.12728 0 0.23947-0.0225 0.33675-0.0599 0.0972-0.0374 0.16836-0.0861 0.21699-0.14967 0.0486-0.0711 0.0711-0.13842 0.0711-0.22076 0-0.0748-0.0262-0.14596-0.0711-0.20575-0.0411-0.0561-0.11975-0.10477-0.22448-0.14969-0.0674-0.0224-0.21702-0.0674-0.449-0.11973-0.22823-0.0561-0.39286-0.10851-0.4864-0.15715-0.11596-0.0636-0.20951-0.14219-0.26567-0.23569-0.0598-0.0898-0.0898-0.19457-0.0898-0.3143 4e-3 -0.12353 0.0374-0.24694 0.10852-0.35544 0.0711-0.10854 0.17958-0.19458 0.31802-0.25071 0.13843-0.0561 0.29184-0.0823 0.46021-0.0861 0.18707 0 0.35171 0.0299 0.49389 0.0898 0.14217 0.0599 0.25443 0.14964 0.32549 0.26567 0.0786 0.11595 0.11977 0.24691 0.12721 0.39661l-0.32177 0.0225c-0.015-0.15715-0.0748-0.27688-0.17211-0.3592-0.10104-0.0786-0.24698-0.1197-0.44151-0.11972-0.1983-4e-3 -0.34423 0.0374-0.43777 0.1085-0.0898 0.0748-0.13841 0.1609-0.1384 0.26568 0 0.0898 0.0337 0.16834 0.0973 0.22453 0.0672 0.0601 0.23199 0.1197 0.50138 0.17959 0.27313 0.0636 0.46021 0.11599 0.55749 0.16089 0.14966 0.0674 0.25818 0.15339 0.3255 0.25818 0.0711 0.10106 0.101 0.22078 0.10102 0.35545 0 0.13463-0.0374 0.26192-0.11225 0.38164-0.0785 0.11603-0.18706 0.20954-0.33297 0.27317-0.14217 0.0674-0.30308 0.10101-0.48267 0.10101-0.22823-4e-3 -0.41531-0.0337-0.57246-0.10101-0.14966-0.0674-0.27315-0.16836-0.35917-0.29935-0.0898-0.13474-0.13469-0.28437-0.13844-0.45274zm4.2355-0.0748 0.33301 0.0861c-0.0711 0.27313-0.19457 0.47892-0.37791 0.62485-0.17962 0.14214-0.40409 0.21702-0.66599 0.21701-0.2694 0-0.49015-0.0561-0.66227-0.16839-0.16834-0.10851-0.29934-0.26936-0.38163-0.47893-0.0898-0.20955-0.13469-0.43402-0.1347-0.67348 0-0.26191 0.0487-0.49015 0.14593-0.68471 0.10101-0.19831 0.24694-0.34424 0.43027-0.44526 0.18333-0.10103 0.38538-0.15341 0.60988-0.1534 0.25068 4e-3 0.46395 0.0673 0.63607 0.19455 0.17207 0.12724 0.29183 0.30682 0.35919 0.53879l-0.33301 0.0786c-0.0561-0.18337-0.13844-0.31804-0.25068-0.40035-0.11228-0.0823-0.25072-0.12344-0.41905-0.12722-0.19457 0-0.35546 0.0487-0.48642 0.14218-0.12724 0.0898-0.21701 0.21701-0.27312 0.37043-0.0524 0.15716-0.0786 0.31802-0.0786 0.48266 0 0.21701 0.0337 0.40035 0.0973 0.56124 0.0599 0.15715 0.15712 0.2769 0.28811 0.35543 0.13093 0.0786 0.27314 0.12347 0.42654 0.11975 0.18708-1e-5 0.34423-0.0524 0.47518-0.16089 0.12724-0.10476 0.2133-0.26564 0.26191-0.47893zm0.78573 0.88303v-2.5144h0.95036c0.16463 0 0.29184 7e-3 0.38163 0.0225 0.12349 0.0187 0.22824 0.0636 0.31056 0.11598 0.0823 0.0598 0.14946 0.14239 0.20208 0.24691 0.0487 0.101 0.0748 0.21702 0.0786 0.34049-4e-3 0.21327-0.0674 0.3966-0.20578 0.54253-0.13469 0.14969-0.38164 0.22449-0.74083 0.22449h-0.64355l4e-3 1.0215zm0.33299-1.3208h0.65104c0.21701 0 0.36668-0.0374 0.45648-0.11973 0.0935-0.0786 0.13846-0.19079 0.13469-0.33674 0-0.1048-0.0224-0.19457-0.0748-0.26939-0.0561-0.0786-0.12722-0.12722-0.20951-0.14969-0.0599-0.0149-0.16463-0.0224-0.31429-0.0224h-0.64355zm1.8371 0.56498v-0.30682l0.94662-4e-3 4e-3 0.31055z"/>
</g>
</svg>
