<?xml version="1.0" encoding="UTF-8"?>
<svg width="79.32mm" height="84.416mm" version="1.1" viewBox="0 0 79.32 84.416" xmlns="http://www.w3.org/2000/svg" xmlns:cc="http://creativecommons.org/ns#" xmlns:dc="http://purl.org/dc/elements/1.1/" xmlns:rdf="http://www.w3.org/1999/02/22-rdf-syntax-ns#">
<metadata>
<rdf:RDF>
<cc:Work rdf:about="">
<dc:format>image/svg+xml</dc:format>
<dc:type rdf:resource="http://purl.org/dc/dcmitype/StillImage"/>
<dc:title/>
</cc:Work>
</rdf:RDF>
</metadata>
<g transform="translate(-312.08 -43.365)">
<path d="m351.74 88.128 34.256 4.5083c2.487-18.917-10.826-36.272-29.748-38.759-1.4922-0.20107-3.0002-0.29632-4.5083-0.29632z" fill="#4285f4" fill-rule="evenodd"/>
<path d="m351.83 88.128-0.0688-0.07937 34.251 4.5083-0.0952 0.07408 0.10583-0.88895 0.0847-0.87837 0.0582-0.87837 0.0317-0.87308 0.0159-0.87308-5e-3 -0.86779-0.0317-0.8625-0.0476-0.8625-0.0688-0.85191-0.0952-0.84662-0.11112-0.84662-0.13228-0.84133-0.15874-0.83075-0.17462-0.82546-0.19049-0.81487-0.21695-0.81487-0.22752-0.80958-0.25399-0.79371-0.27515-0.79371-0.28574-0.78312-0.3069-0.77254-0.32807-0.76196-0.34394-0.75667-0.35981-0.75138-0.38098-0.7355-0.39686-0.72492-0.41273-0.71963-0.43389-0.70905-0.44448-0.69317-0.46564-0.68788-0.48152-0.67201-0.49209-0.66142-1.0371-1.2911-1.1006-1.2329-1.1588-1.1853-1.2117-1.1324-1.2699-1.0689-1.3228-1.0159-0.68259-0.48152-0.69318-0.46564-0.70375-0.44977-0.71963-0.43389-0.73021-0.41802-0.7408-0.39685-0.75137-0.38627-0.76196-0.36511-0.77784-0.34394-0.78842-0.32807-0.7937-0.31219-0.8043-0.28574-0.82016-0.27515-0.82546-0.2487-0.83604-0.23282-0.84662-0.21166-0.85721-0.19049-0.86249-0.16932-0.86779-0.15345-0.88367-0.12699-1.1165-0.11641-1.1271-0.08995-1.1271-0.05821-1.1271-0.01587 0.0847-0.08466zm-0.16932-34.547c0-0.02116 0.0106-0.04233 0.0265-0.05821 0.0159-0.01587 0.037-0.02646 0.0635-0.02646l1.1324 0.01587 1.1324 0.0582 1.1271 0.09525 1.1271 0.11641 0.88366 0.12699 0.87838 0.14816 0.86249 0.17462 0.8625 0.19049 0.84662 0.21166 0.84133 0.23282 0.83075 0.25399 0.82017 0.26986 0.80958 0.29632 0.80429 0.3069 0.78842 0.33336 0.77783 0.34923 0.76726 0.36511 0.75666 0.38098 0.74609 0.40744 0.7355 0.41802 0.71963 0.43389 0.70905 0.45506 0.69846 0.46564 0.68259 0.48681 1.3281 1.0159 1.2752 1.0794 1.2223 1.1324 1.1641 1.1906 1.1006 1.2435 1.0424 1.2911 0.50268 0.66672 0.47623 0.6773 0.46564 0.68788 0.45506 0.70376 0.4286 0.70905 0.41802 0.71963 0.39686 0.7355 0.38098 0.7355 0.3651 0.75138 0.34394 0.76196 0.32807 0.77254 0.31219 0.77254 0.29103 0.78842 0.26986 0.79371 0.25398 0.80429 0.23283 0.80958 0.21695 0.81487 0.19578 0.82546 0.17461 0.83075 0.15345 0.83075 0.13229 0.84662 0.11641 0.84662 0.0899 0.8572 0.0741 0.8572 0.0476 0.8625 0.0318 0.86779 5e-3 0.86779-0.0159 0.87837-0.037 0.87837-0.0582 0.88366-0.0794 0.88366-0.10583 0.88366c-5e-3 0.02646-0.0159 0.04233-0.0317 0.05821-0.0212 0.01587-0.0423 0.02116-0.0635 0.01587l-34.256-4.5083c-0.0423-0.0053-0.0741-0.04233-0.0741-0.08466z" fill="#2e60b3" stroke="#2e60b3" stroke-linejoin="bevel" stroke-width=".042331px"/>
<path d="m351.74 88.128-29.918 17.276c9.5404 16.525 30.669 22.187 47.194 12.646 9.3023-5.3708 15.578-14.763 16.98-25.415z" fill="#ea4335" fill-rule="evenodd"/>
<path d="m351.73 88.212 0.0529-0.01058-29.918 17.276 0.0317-0.11641 0.926 1.5133 0.98949 1.4498 1.053 1.3863 1.1112 1.3176 1.1694 1.2541 1.217 1.18 1.2699 1.1165 1.3176 1.0477 1.3599 0.97362 1.4022 0.91012 1.4393 0.83603 1.4763 0.76197 1.508 0.68788 1.5345 0.61909 1.5662 0.53972 1.5874 0.46564 1.6086 0.38627 1.6245 0.31749 1.6403 0.23282 1.6456 0.15874 1.6615 0.0741 1.6615-5e-3 1.6721-0.0847 1.6668-0.15874 1.6615-0.2487 1.6562-0.33335 1.6509-0.41802 1.635-0.4974 1.6245-0.58734 1.6033-0.67201 1.5821-0.76196 1.5557-0.84662 0.8625-0.51326 0.84133-0.53973 0.82546-0.55559 0.80958-0.58205 0.78313-0.60322 0.76725-0.62439 0.75138-0.64555 0.72492-0.66142 0.70905-0.68788 0.68788-0.70376 0.66142-0.71963 0.64555-0.74079 0.62439-0.75667 0.59792-0.77255 0.57676-0.78841 0.5556-0.80429 0.53443-0.82546 0.50797-0.83604 0.48681-0.84662 0.45506-0.86779 0.43919-0.87837 0.41273-0.88895 0.38627-0.90483 0.35981-0.91542 0.33336-0.92599 0.31219-0.93658 0.28044-0.94716 0.25928-0.95774 0.22753-0.96832 0.20108-0.97362 0.17461-0.9842 0.14287-0.99478 0.0741 0.09524zm34.278 4.3442c0.0212 0 0.0423 0.01058 0.0582 0.03175 0.0106 0.01588 0.0159 0.04233 0.0159 0.0635l-0.14815 0.99478-0.17462 0.98949-0.20107 0.97891-0.23282 0.97361-0.25399 0.96304-0.28574 0.95245-0.3069 0.94187-0.33865 0.93129-0.3651 0.9207-0.38627 0.90483-0.41273 0.89954-0.43919 0.87837-0.46564 0.86779-0.48681 0.8572-0.51326 0.84133-0.52914 0.82546-0.56089 0.80958-0.58205 0.79371-0.60322 0.77784-0.62439 0.75667-0.64555 0.74608-0.672 0.72492-0.68788 0.70376-0.70905 0.68788-0.7355 0.67201-0.75138 0.64555-0.76725 0.62438-0.79371 0.60851-0.80958 0.58205-0.82546 0.56089-0.85191 0.53972-0.8625 0.51856-1.5663 0.85191-1.5927 0.76196-1.6139 0.6773-1.6245 0.58735-1.6456 0.50268-1.6562 0.41802-1.6668 0.33336-1.6721 0.24869-1.6774 0.16403-1.6774 0.0847-1.6668 5e-3 -1.6721-0.0794-1.6562-0.15345-1.6509-0.23811-1.6298-0.31219-1.6139-0.39156-1.5927-0.47094-1.5716-0.54501-1.5451-0.61909-1.5133-0.69318-1.4869-0.76725-1.4446-0.83604-1.4075-0.91541-1.3705-0.97891-1.3228-1.053-1.2752-1.1218-1.2276-1.1906-1.1694-1.2541-1.1165-1.3281-1.0583-1.3916-0.99478-1.4551-0.93129-1.5186c-0.0106-0.0159-0.0159-0.0423-0.0106-0.0635 0.0106-0.0212 0.0212-0.0423 0.0423-0.0529l29.918-17.271c0.0212-0.01058 0.037-0.01588 0.0582-0.01058z" fill="#ac2f24" stroke="#ac2f24" stroke-linejoin="bevel" stroke-width=".042331px"/>
<path d="m351.74 88.128v-34.55c-19.081 0-34.55 15.469-34.55 34.55 0 6.0639 1.598 12.022 4.63 17.274z" fill="#fbbc04" fill-rule="evenodd"/>
<path d="m351.7 88.056-0.0423 0.07143v-34.55l0.0873 0.08466-0.8916 0.01058-0.88367 0.03439-0.88101 0.05556-0.87043 0.07672-0.86515 0.10054-0.85985 0.11906-0.85191 0.14287-0.84663 0.16139-0.83604 0.18255-0.83074 0.20372-0.82017 0.21959-0.81223 0.2434-0.80694 0.26192-0.79635 0.28044-0.78577 0.29896-0.77784 0.31748-0.76989 0.33865-0.75932 0.35188-0.74608 0.37304-0.7408 0.38892-0.72492 0.40479-0.71698 0.42596-0.7064 0.43918-0.69053 0.45506-0.68259 0.47358-0.66936 0.48681-1.3043 1.0265-1.2514 1.0821-1.1932 1.1429-1.1429 1.1959-1.0821 1.2488-1.0239 1.3017-0.48945 0.66936-0.47094 0.68259-0.4577 0.69317-0.43919 0.70376-0.42331 0.71698-0.40743 0.72492-0.38892 0.73815-0.37305 0.74873-0.35452 0.75932-0.336 0.76725-0.31749 0.77784-0.3016 0.78577-0.2778 0.79636-0.26193 0.80429-0.2434 0.81487-0.22224 0.82017-0.20107 0.83075-0.18256 0.83604-0.16138 0.84398-0.14287 0.85456-0.1217 0.8572-0.0979 0.86514-0.0794 0.87044-0.0556 0.87837-0.0344 0.88631-0.0106 0.88896 0.0238 1.1403 0.0556 1.1297 0.0926 1.1271 0.12964 1.1191 0.16668 1.1138 0.20372 1.1085 0.23811 1.098 0.27251 1.0927 0.3069 1.0794 0.34658 1.0715 0.37834 1.0609 0.41273 1.0477 0.44976 1.0345 0.48152 1.0212 0.51591 1.0054 0.55031 0.98949-0.11641-0.0318zm-29.836 17.419c-0.0185 0.0106-0.0423 0.0159-0.0635 8e-3 -0.0212-5e-3 -0.0397-0.0185-0.0503-0.0397l-0.55559-0.99478-0.51591-1.0107-0.48681-1.0265-0.44977-1.0398-0.41802-1.053-0.37833-1.0662-0.34659-1.0768-0.31219-1.0847-0.27251-1.098-0.23811-1.1033-0.20372-1.1138-0.16668-1.1191-0.12964-1.1244-0.0926-1.1324-0.0582-1.135-0.0238-1.1456 0.0106-0.89425 0.037-0.88895 0.0556-0.88102 0.0794-0.87572 0.0979-0.87044 0.1217-0.8625 0.14287-0.8572 0.16139-0.84662 0.18255-0.84133 0.20636-0.83604 0.22224-0.82546 0.24341-0.81487 0.26192-0.80958 0.28309-0.80165 0.30161-0.79106 0.31748-0.77784 0.33865-0.77254 0.35717-0.76461 0.37304-0.74873 0.39421-0.74344 0.40744-0.73021 0.42331-0.71963 0.44448-0.7064 0.4577-0.69846 0.47623-0.68259 0.48945-0.67465 1.0292-1.307 1.0874-1.2594 1.1482-1.2011 1.2038-1.1482 1.2567-1.0874 1.3096-1.0265 0.66936-0.4921 0.68788-0.47358 0.69582-0.46035 0.7064-0.43918 0.72227-0.42596 0.73021-0.41008 0.7408-0.38892 0.75138-0.37569 0.7646-0.35452 0.7699-0.33865 0.78313-0.31748 0.79106-0.30426 0.80165-0.28044 0.80693-0.26192 0.81752-0.2434 0.82546-0.22488 0.83604-0.20372 0.83868-0.18255 0.84927-0.16139 0.85721-0.14287 0.86514-0.11906 0.87044-0.10054 0.87308-0.07672 0.88366-0.05821 0.88895-0.03439 0.8916-0.01058c0.0238 0 0.045 0.01058 0.0608 0.02646 0.0159 0.01587 0.0238 0.03704 0.0238 0.05821v34.55c0 0.03175-0.0159 0.0582-0.0423 0.07408z" fill="#b98902" stroke="#b98902" stroke-linejoin="bevel" stroke-width=".042331px"/>
<path d="m351.74 88.128v-34.55z" fill="#34a853" fill-rule="evenodd"/>
<path d="m351.83 88.128h-0.16932v-34.55l0.0847 0.08466 0.0847-0.08466zm-0.16932-34.55c0-0.04762 0.037-0.08466 0.0847-0.08466 0.0476 0 0.0847 0.03704 0.0847 0.08466v34.55c0 0.04498-0.037 0.08202-0.082 0.08466-0.0476 0-0.0873-0.03704-0.0873-0.08466z" fill="#237a3b" stroke="#237a3b" stroke-linejoin="bevel" stroke-width=".042331px"/>
<path d="m351.74 88.128v-34.55z" fill="#ff6d01" fill-rule="evenodd"/>
<path d="m351.83 88.128h-0.16932v-34.55l0.0847 0.08466 0.0847-0.08466zm-0.16932-34.55c0-0.04762 0.037-0.08466 0.0847-0.08466 0.0476 0 0.0847 0.03704 0.0847 0.08466v34.55c0 0.04498-0.037 0.08202-0.082 0.08466-0.0476 0-0.0873-0.03704-0.0873-0.08466z" fill="#bc4e00" stroke="#bc4e00" stroke-linejoin="bevel" stroke-width=".042331px"/>
<path d="m351.69 53.623-1.5239-2.7092 0.0714 0.04233h-1.6086v-0.16932h1.6086c0.0317 0 0.0609 0.01852 0.0741 0.04498l1.5239 2.7092zm0-0.08466 1.5239-2.4975c0.0159-0.02646 0.0423-0.04233 0.0714-0.04233h1.5662v0.16932h-1.5662l0.0741-0.03968-1.5239 2.4975z" stroke="#000" stroke-linejoin="bevel" stroke-width=".042331px"/>
<text x="367.21671" y="70.549736" fill="#000000" font-family="Arial" font-size="3.5057px" font-weight="400" letter-spacing="0px" stroke-width=".26458" word-spacing="0px" style="line-height:125%" xml:space="preserve"><tspan x="367.21671" y="70.549736" stroke-width=".26458"><tspan dx="0" dy="0" fill="#000000" font-family="Arial" font-size="3.5057px" font-weight="400" stroke-width=".26458">Super:</tspan></tspan></text>
<text x="365.90442" y="74.613525" fill="#000000" font-family="Arial" font-size="3.5057px" font-weight="400" letter-spacing="0px" stroke-width=".26458" word-spacing="0px" style="line-height:125%" xml:space="preserve"><tspan x="365.90442" y="74.613525" stroke-width=".26458"><tspan dx="0" dy="0" fill="#000000" font-family="Arial" font-size="3.5057px" font-weight="400" stroke-width=".26458">18; 33%</tspan></tspan></text>
<text x="354.4856" y="112.6163" fill="#000000" font-family="Arial" font-size="3.5057px" font-weight="400" letter-spacing="0px" stroke-width=".26458" word-spacing="0px" style="line-height:125%" xml:space="preserve"><tspan x="354.4856" y="112.6163" stroke-width=".26458"><tspan dx="0" dy="0" fill="#000000" font-family="Arial" font-size="3.5057px" font-weight="400" stroke-width=".26458">Gut:</tspan></tspan></text>
<text x="351.35309" y="116.68009" fill="#000000" font-family="Arial" font-size="3.5057px" font-weight="400" letter-spacing="0px" stroke-width=".26458" word-spacing="0px" style="line-height:125%" xml:space="preserve"><tspan x="351.35309" y="116.68009" stroke-width=".26458"><tspan dx="0" dy="0" fill="#000000" font-family="Arial" font-size="3.5057px" font-weight="400" stroke-width=".26458">19; 35%</tspan></tspan></text>
<text x="320.36688" y="83.397232" fill="#000000" font-family="Arial" font-size="3.5057px" font-weight="400" letter-spacing="0px" stroke-width=".26458" word-spacing="0px" style="line-height:125%" xml:space="preserve"><tspan x="320.36688" y="83.397232" stroke-width=".26458"><tspan dx="0" dy="0" fill="#000000" font-family="Arial" font-size="3.5057px" font-weight="400" stroke-width=".26458">Unentschieden:</tspan></tspan></text>
<text x="326.12393" y="87.461021" fill="#000000" font-family="Arial" font-size="3.5057px" font-weight="400" letter-spacing="0px" stroke-width=".26458" word-spacing="0px" style="line-height:125%" xml:space="preserve"><tspan x="326.12393" y="87.461021" stroke-width=".26458"><tspan dx="0" dy="0" fill="#000000" font-family="Arial" font-size="3.5057px" font-weight="400" stroke-width=".26458">16; 30%</tspan></tspan></text>
<text x="330.28909" y="50.884701" fill="#000000" font-family="Arial" font-size="3.5057px" font-weight="400" letter-spacing="0px" stroke-width=".26458" word-spacing="0px" style="line-height:125%" xml:space="preserve"><tspan x="330.28909" y="50.884701" stroke-width=".26458"><tspan dx="0" dy="0" fill="#000000" font-family="Arial" font-size="3.5057px" font-weight="400" stroke-width=".26458">Nicht gut: 0</tspan></tspan></text>
<text x="355.39139" y="51.073639" fill="#000000" font-family="Arial" font-size="3.5057px" font-weight="400" letter-spacing="0px" stroke-width=".26458" word-spacing="0px" style="line-height:125%" xml:space="preserve"><tspan x="355.39139" y="51.073639" stroke-width=".26458"><tspan dx="0" dy="0" fill="#000000" font-family="Arial" font-size="3.5057px" font-weight="400" stroke-width=".26458">Doof: 0</tspan></tspan></text>
</g>
</svg>
