<?xml version="1.0" encoding="UTF-8"?>
<svg width="487.02" height="272.41" version="1.1" viewBox="0 0 128.86 72.075" xmlns="http://www.w3.org/2000/svg" xmlns:cc="http://creativecommons.org/ns#" xmlns:dc="http://purl.org/dc/elements/1.1/" xmlns:rdf="http://www.w3.org/1999/02/22-rdf-syntax-ns#">
<defs>
<clipPath id="a">
<path d="m247.83 0.63997h224.79v242.71h-224.79z"/>
</clipPath>
</defs>
<metadata>
<rdf:RDF>
<cc:Work rdf:about="">
<dc:format>image/svg+xml</dc:format>
<dc:type rdf:resource="http://purl.org/dc/dcmitype/StillImage"/>
<dc:title/>
</cc:Work>
</rdf:RDF>
</metadata>
<path d="m66.53 1.429v63.92h59.221v-63.92z" fill="#e7e7e7" fill-rule="evenodd"/>
<path d="m81.43 1.429v63.92h-0.16932v-63.92zm14.774 0v63.92h-0.16933v-63.92zm14.816 0v63.92h-0.16932v-63.92zm14.816 0v63.92h-0.16933v-63.92z" fill="#898989" stroke="#898989" stroke-linejoin="bevel" stroke-width=".042331px"/>
<path transform="matrix(.26458 0 0 .26458 .98 1.281)" d="m247.75 0.55997v24.159h50.397v-24.159z" clip-path="url(#a)" fill="#3975d8" fill-rule="evenodd"/>
<path transform="matrix(.26458 0 0 .26458 .98 1.281)" d="m247.43 0.55997c0-0.16999 0.14999-0.31998 0.31998-0.31998h50.397c0.18 0 0.31999 0.14999 0.31999 0.31998v24.159c0 0.17999-0.13999 0.31998-0.31999 0.31998h-50.397c-0.16999 0-0.31998-0.13999-0.31998-0.31998zm0.63997 24.159-0.31999-0.31998h50.397l-0.31998 0.31998v-24.159l0.31998 0.31998h-50.397l0.31999-0.31998z" clip-path="url(#a)" fill="#27549e" stroke="#27549e" stroke-linejoin="bevel" stroke-width=".15999px"/>
<path transform="matrix(.26458 0 0 .26458 .98 1.281)" d="m247.75 24.719v24.159h162.23v-24.159z" clip-path="url(#a)" fill="#cf3a2e" fill-rule="evenodd"/>
<path transform="matrix(.26458 0 0 .26458 .98 1.281)" d="m247.43 24.719c0-0.15999 0.15999-0.31998 0.31998-0.31998h162.23c0.17999 0 0.31998 0.15999 0.31998 0.31998v24.159c0 0.17999-0.13999 0.31998-0.31998 0.31998h-162.23c-0.15999 0-0.31998-0.13999-0.31998-0.31998zm0.63997 24.159-0.31999-0.31998h162.23l-0.31999 0.31998v-24.159l0.31999 0.31998h-162.23l0.31999-0.31998z" clip-path="url(#a)" fill="#98281f" stroke="#98281f" stroke-linejoin="bevel" stroke-width=".15999px"/>
<path transform="matrix(.26458 0 0 .26458 .98 1.281)" d="m247.75 48.877v24.159h179.03v-24.159z" clip-path="url(#a)" fill="#dea603" fill-rule="evenodd"/>
<path transform="matrix(.26458 0 0 .26458 .98 1.281)" d="m247.43 48.877c0-0.15999 0.15999-0.31998 0.31998-0.31998h179.03c0.17999 0 0.31999 0.15999 0.31999 0.31998v24.159c0 0.17999-0.14 0.31998-0.31999 0.31998h-179.03c-0.15999 0-0.31998-0.13999-0.31998-0.31998zm0.63997 24.159-0.31999-0.31998h179.03l-0.31998 0.31998v-24.159l0.31998 0.31998h-179.03l0.31999-0.31998z" clip-path="url(#a)" fill="#a37902" stroke="#a37902" stroke-linejoin="bevel" stroke-width=".15999px"/>
<path transform="matrix(.26458 0 0 .26458 .98 1.281)" d="m247.75 73.036v24.159h16.799v-24.159z" clip-path="url(#a)" fill="#2d9449" fill-rule="evenodd"/>
<path transform="matrix(.26458 0 0 .26458 .98 1.281)" d="m247.43 73.036c0-0.16999 0.14999-0.31998 0.31998-0.31998h16.799c0.17999 0 0.31998 0.14999 0.31998 0.31998v24.159c0 0.17999-0.13999 0.31998-0.31998 0.31998h-16.799c-0.16999 0-0.31998-0.13999-0.31998-0.31998zm0.63997 24.159-0.31999-0.31998h16.799l-0.31998 0.31998v-24.159l0.31998 0.31998h-16.799l0.31999-0.31998z" clip-path="url(#a)" fill="#1e6c33" stroke="#1e6c33" stroke-linejoin="bevel" stroke-width=".15999px"/>
<path transform="matrix(.26458 0 0 .26458 .98 1.281)" d="m247.75 97.195v24.159h5.5997v-24.159z" clip-path="url(#a)" fill="#e26001" fill-rule="evenodd"/>
<path transform="matrix(.26458 0 0 .26458 .98 1.281)" d="m247.43 97.195c0-0.16999 0.14999-0.31998 0.31998-0.31998h5.5997c0.17999 0 0.31998 0.14999 0.31998 0.31998v24.159c0 0.17999-0.13999 0.31998-0.31998 0.31998h-5.5997c-0.16999 0-0.31998-0.13999-0.31998-0.31998zm0.63997 24.159-0.31999-0.31999h5.5997l-0.31998 0.31999v-24.159l0.31998 0.31998h-5.5997l0.31999-0.31998z" clip-path="url(#a)" fill="#a64400" stroke="#a64400" stroke-linejoin="bevel" stroke-width=".15999px"/>
<path transform="matrix(.26458 0 0 .26458 .98 1.281)" d="m247.75 121.35v24.159h11.199v-24.159z" clip-path="url(#a)" fill="#3da7af" fill-rule="evenodd"/>
<path transform="matrix(.26458 0 0 .26458 .98 1.281)" d="m247.43 121.35c0-0.16999 0.14999-0.31999 0.31998-0.31999h11.199c0.17999 0 0.31998 0.15 0.31998 0.31999v24.159c0 0.17999-0.13999 0.31999-0.31998 0.31999h-11.199c-0.16999 0-0.31998-0.14-0.31998-0.31999zm0.63997 24.159-0.31999-0.31998h11.199l-0.31998 0.31998v-24.159l0.31998 0.31998h-11.199l0.31999-0.31998z" clip-path="url(#a)" fill="#2a7a80" stroke="#2a7a80" stroke-linejoin="bevel" stroke-width=".15999px"/>
<path transform="matrix(.26458 0 0 .26458 .98 1.281)" d="m247.75 145.51v24.159h27.999v-24.159z" clip-path="url(#a)" fill="#8eacf7" fill-rule="evenodd"/>
<path transform="matrix(.26458 0 0 .26458 .98 1.281)" d="m247.43 145.51c0-0.16999 0.14999-0.31998 0.31998-0.31998h27.999c0.17999 0 0.31998 0.14999 0.31998 0.31998v24.159c0 0.17999-0.13999 0.31998-0.31998 0.31998h-27.999c-0.16999 0-0.31998-0.13999-0.31998-0.31998zm0.63997 24.159-0.31999-0.31999h27.999l-0.31999 0.31999v-24.159l0.31999 0.31999h-27.999l0.31999-0.31999z" clip-path="url(#a)" fill="#8999c8" stroke="#8999c8" stroke-linejoin="bevel" stroke-width=".15999px"/>
<path transform="matrix(.26458 0 0 .26458 .98 1.281)" d="m247.75 169.67v24.159h5.5997v-24.159z" clip-path="url(#a)" fill="#ef8f8b" fill-rule="evenodd"/>
<path transform="matrix(.26458 0 0 .26458 .98 1.281)" d="m247.43 169.67c0-0.16999 0.14999-0.31999 0.31998-0.31999h5.5997c0.17999 0 0.31998 0.15 0.31998 0.31999v24.159c0 0.17999-0.13999 0.31999-0.31998 0.31999h-5.5997c-0.16999 0-0.31998-0.14-0.31998-0.31999zm0.63997 24.159-0.31999-0.31998h5.5997l-0.31998 0.31998v-24.159l0.31998 0.31998h-5.5997l0.31999-0.31998z" clip-path="url(#a)" fill="#c38987" stroke="#c38987" stroke-linejoin="bevel" stroke-width=".15999px"/>
<path transform="matrix(.26458 0 0 .26458 .98 1.281)" d="m247.75 193.83v24.159h5.5997v-24.159z" clip-path="url(#a)" fill="#fcce84" fill-rule="evenodd"/>
<path transform="matrix(.26458 0 0 .26458 .98 1.281)" d="m247.43 193.83c0-0.16999 0.14999-0.31998 0.31998-0.31998h5.5997c0.17999 0 0.31998 0.14999 0.31998 0.31998v24.159c0 0.17999-0.13999 0.31998-0.31998 0.31998h-5.5997c-0.16999 0-0.31998-0.13999-0.31998-0.31998zm0.63997 24.159-0.31999-0.31999h5.5997l-0.31998 0.31999v-24.159l0.31998 0.31999h-5.5997l0.31999-0.31999z" clip-path="url(#a)" fill="#ccae84" stroke="#ccae84" stroke-linejoin="bevel" stroke-width=".15999px"/>
<path transform="matrix(.26458 0 0 .26458 .98 1.281)" d="m247.75 217.99v24.159h22.399v-24.159z" clip-path="url(#a)" fill="#8bc194" fill-rule="evenodd"/>
<path transform="matrix(.26458 0 0 .26458 .98 1.281)" d="m247.43 217.99c0-0.16999 0.14999-0.31999 0.31998-0.31999h22.399c0.17999 0 0.31998 0.15 0.31998 0.31999v24.159c0 0.17999-0.13999 0.31999-0.31998 0.31999h-22.399c-0.16999 0-0.31998-0.14-0.31998-0.31999zm0.63997 24.159-0.31999-0.31998h22.399l-0.31998 0.31998v-24.159l0.31998 0.31998h-22.399l0.31999-0.31998z" clip-path="url(#a)" fill="#87a68c" stroke="#87a68c" stroke-linejoin="bevel" stroke-width=".15999px"/>
<path d="m66.53 65.264h59.221v0.16933h-59.221z" fill="#898989" stroke="#898989" stroke-linejoin="bevel" stroke-width=".042331px"/>
<path d="m66.614 65.349v1.1006h-0.16932v-1.1006zm14.816 0v1.1006h-0.16932v-1.1006zm14.774 0v1.1006h-0.16933v-1.1006zm14.816 0v1.1006h-0.16932v-1.1006zm14.816 0v1.1006h-0.16933v-1.1006z" fill="#898989" stroke="#898989" stroke-linejoin="bevel" stroke-width=".042331px"/>
<path d="m66.614 1.429v63.92h-0.16932v-63.92z" fill="#898989" stroke="#898989" stroke-linejoin="bevel" stroke-width=".042331px"/>
<path d="m65.471 1.344h1.0583v0.16932h-1.0583zm0 6.392h1.0583v0.16932h-1.0583zm0 6.392h1.0583v0.16932h-1.0583zm0 6.392h1.0583v0.16932h-1.0583zm0 6.392h1.0583v0.16932h-1.0583zm0 6.392h1.0583v0.16933h-1.0583zm0 6.392h1.0583v0.16932h-1.0583zm0 6.392h1.0583v0.16932h-1.0583zm0 6.392h1.0583v0.16932h-1.0583zm0 6.392h1.0583v0.16932h-1.0583zm0 6.392h1.0583v0.16933h-1.0583z" fill="#898989" stroke="#898989" stroke-linejoin="bevel" stroke-width=".042331px"/>
<text x="75.81308" y="5.922997" fill="#000000" font-family="Arial" font-size="3.5057px" font-weight="400" letter-spacing="0px" stroke-width=".26458" word-spacing="0px" style="line-height:125%" xml:space="preserve"><tspan x="75.81308" y="5.922997" stroke-width=".26458"><tspan dx="0" dy="0" fill="#000000" font-family="Arial" font-size="3.5057px" font-weight="400" stroke-width=".26458">9</tspan></tspan></text>
<text x="103.45607" y="12.318111" fill="#000000" font-family="Arial" font-size="3.5057px" font-weight="400" letter-spacing="0px" stroke-width=".26458" word-spacing="0px" style="line-height:125%" xml:space="preserve"><tspan x="103.45607" y="12.318111" stroke-width=".26458"><tspan dx="0" dy="0" fill="#000000" font-family="Arial" font-size="3.5057px" font-weight="400" stroke-width=".26458">29</tspan></tspan></text>
<text x="107.89564" y="18.713223" fill="#000000" font-family="Arial" font-size="3.5057px" font-weight="400" letter-spacing="0px" stroke-width=".26458" word-spacing="0px" style="line-height:125%" xml:space="preserve"><tspan x="107.89564" y="18.713223" stroke-width=".26458"><tspan dx="0" dy="0" fill="#000000" font-family="Arial" font-size="3.5057px" font-weight="400" stroke-width=".26458">32</tspan></tspan></text>
<text x="68.688782" y="25.108334" fill="#000000" font-family="Arial" font-size="3.5057px" font-weight="400" letter-spacing="0px" stroke-width=".26458" word-spacing="0px" style="line-height:125%" xml:space="preserve"><tspan x="68.688782" y="25.108334" stroke-width=".26458"><tspan dx="0" dy="0" fill="#000000" font-family="Arial" font-size="3.5057px" font-weight="400" stroke-width=".26458">3</tspan></tspan></text>
<text x="68.688782" y="31.503445" fill="#000000" font-family="Arial" font-size="3.5057px" font-weight="400" letter-spacing="0px" stroke-width=".26458" word-spacing="0px" style="line-height:125%" xml:space="preserve"><tspan x="68.688782" y="31.503445" stroke-width=".26458"><tspan dx="0" dy="0" fill="#000000" font-family="Arial" font-size="3.5057px" font-weight="400" stroke-width=".26458">1</tspan></tspan></text>
<text x="70.452583" y="37.898529" fill="#000000" font-family="Arial" font-size="3.5057px" font-weight="400" letter-spacing="0px" stroke-width=".26458" word-spacing="0px" style="line-height:125%" xml:space="preserve"><tspan x="70.452583" y="37.898529" stroke-width=".26458"><tspan dx="0" dy="0" fill="#000000" font-family="Arial" font-size="3.5057px" font-weight="400" stroke-width=".26458">2</tspan></tspan></text>
<text x="69.893646" y="44.293701" fill="#000000" font-family="Arial" font-size="3.5057px" font-weight="400" letter-spacing="0px" stroke-width=".26458" word-spacing="0px" style="line-height:125%" xml:space="preserve"><tspan x="69.893646" y="44.293701" stroke-width=".26458"><tspan dx="0" dy="0" fill="#000000" font-family="Arial" font-size="3.5057px" font-weight="400" stroke-width=".26458">5</tspan></tspan></text>
<text x="68.688782" y="50.688812" fill="#000000" font-family="Arial" font-size="3.5057px" font-weight="400" letter-spacing="0px" stroke-width=".26458" word-spacing="0px" style="line-height:125%" xml:space="preserve"><tspan x="68.688782" y="50.688812" stroke-width=".26458"><tspan dx="0" dy="0" fill="#000000" font-family="Arial" font-size="3.5057px" font-weight="400" stroke-width=".26458">1</tspan></tspan></text>
<text x="68.688782" y="57.083923" fill="#000000" font-family="Arial" font-size="3.5057px" font-weight="400" letter-spacing="0px" stroke-width=".26458" word-spacing="0px" style="line-height:125%" xml:space="preserve"><tspan x="68.688782" y="57.083923" stroke-width=".26458"><tspan dx="0" dy="0" fill="#000000" font-family="Arial" font-size="3.5057px" font-weight="400" stroke-width=".26458">1</tspan></tspan></text>
<text x="68.688782" y="63.479034" fill="#000000" font-family="Arial" font-size="3.5057px" font-weight="400" letter-spacing="0px" stroke-width=".26458" word-spacing="0px" style="line-height:125%" xml:space="preserve"><tspan x="68.688782" y="63.479034" stroke-width=".26458"><tspan dx="0" dy="0" fill="#000000" font-family="Arial" font-size="3.5057px" font-weight="400" stroke-width=".26458">4</tspan></tspan></text>
<text x="65.589798" y="70.707466" fill="#000000" font-family="Arial" font-size="3.5057px" font-weight="400" letter-spacing="0px" stroke-width=".26458" word-spacing="0px" style="line-height:125%" xml:space="preserve"><tspan x="65.589798" y="70.707466" stroke-width=".26458"><tspan dx="0" dy="0" fill="#000000" font-family="Arial" font-size="3.5057px" font-weight="400" stroke-width=".26458">0</tspan></tspan></text>
<text x="79.407745" y="70.707466" fill="#000000" font-family="Arial" font-size="3.5057px" font-weight="400" letter-spacing="0px" stroke-width=".26458" word-spacing="0px" style="line-height:125%" xml:space="preserve"><tspan x="79.407745" y="70.707466" stroke-width=".26458"><tspan dx="0" dy="0" fill="#000000" font-family="Arial" font-size="3.5057px" font-weight="400" stroke-width=".26458">10</tspan></tspan></text>
<text x="94.206398" y="70.707466" fill="#000000" font-family="Arial" font-size="3.5057px" font-weight="400" letter-spacing="0px" stroke-width=".26458" word-spacing="0px" style="line-height:125%" xml:space="preserve"><tspan x="94.206398" y="70.707466" stroke-width=".26458"><tspan dx="0" dy="0" fill="#000000" font-family="Arial" font-size="3.5057px" font-weight="400" stroke-width=".26458">20</tspan></tspan></text>
<text x="109.00501" y="70.707466" fill="#000000" font-family="Arial" font-size="3.5057px" font-weight="400" letter-spacing="0px" stroke-width=".26458" word-spacing="0px" style="line-height:125%" xml:space="preserve"><tspan x="109.00501" y="70.707466" stroke-width=".26458"><tspan dx="0" dy="0" fill="#000000" font-family="Arial" font-size="3.5057px" font-weight="400" stroke-width=".26458">30</tspan></tspan></text>
<text x="123.80363" y="70.707466" fill="#000000" font-family="Arial" font-size="3.5057px" font-weight="400" letter-spacing="0px" stroke-width=".26458" word-spacing="0px" style="line-height:125%" xml:space="preserve"><tspan x="123.80363" y="70.707466" stroke-width=".26458"><tspan dx="0" dy="0" fill="#000000" font-family="Arial" font-size="3.5057px" font-weight="400" stroke-width=".26458">40</tspan></tspan></text>
<text x="42.365585" y="5.7501454" fill="#000000" font-family="Arial" font-size="3.5057px" font-weight="400" letter-spacing="0px" stroke-width=".26458" word-spacing="0px" style="line-height:125%" xml:space="preserve"><tspan x="42.365585" y="5.7501454" stroke-width=".26458"><tspan dx="0" dy="0" fill="#000000" font-family="Arial" font-size="3.5057px" font-weight="400" stroke-width=".26458">Deutsch (DE)</tspan></tspan></text>
<g stroke-width=".26458" aria-label="Internationales Übersetzungarchiv (INT)">
<path d="m1.3244 12.145v-2.5095h0.33208v2.5095z"/>
<path d="m2.2009 12.145v-1.8179h0.27731v0.25848q0.20028-0.29956 0.57858-0.29956 0.16433 0 0.30127 0.05991 0.13865 0.0582 0.20712 0.15406 0.068471 0.09586 0.095859 0.22766 0.017118 0.08559 0.017118 0.29956v1.1178h-0.30812v-1.1058q0-0.18829-0.035947-0.28073-0.035947-0.09415-0.12838-0.14892-0.090724-0.05649-0.21397-0.05649-0.19685 0-0.34064 0.12496-0.14208 0.12496-0.14208 0.47416v0.99282z"/>
<path d="m4.825 11.87 0.044506 0.27217q-0.13009 0.02739-0.2328 0.02739-0.16775 0-0.26019-0.05307-0.092435-0.05307-0.13009-0.13865-0.037659-0.0873-0.037659-0.36461v-1.0459h-0.22595v-0.23964h0.22595v-0.4502l0.30641-0.18487v0.63507h0.30983v0.23965h-0.30983v1.063q0 0.13181 0.015406 0.16946 0.017118 0.03766 0.053065 0.05991 0.037659 0.02225 0.10613 0.02225 0.051353 0 0.13523-0.01198z"/>
<path d="m6.369 11.56 0.31839 0.03937q-0.075318 0.27902-0.27902 0.43308-0.2037 0.15406-0.52038 0.15406-0.39884 0-0.63335-0.24478-0.2328-0.2465-0.2328-0.68984 0-0.45875 0.23622-0.7121 0.23622-0.25334 0.61281-0.25334 0.36461 0 0.5957 0.24821 0.23109 0.24821 0.23109 0.6984 0 0.02739-0.00171 0.08216h-1.3557q0.017118 0.29956 0.16946 0.45875 0.15235 0.1592 0.38001 0.1592 0.16946 0 0.28929-0.08901t0.19001-0.28415zm-1.0117-0.49812h1.0151q-0.020541-0.22938-0.1164-0.34406-0.14721-0.17802-0.38172-0.17802-0.21226 0-0.35776 0.14208-0.14379 0.14208-0.15919 0.38001z"/>
<path d="m7.0725 12.145v-1.8179h0.27731v0.27559q0.10613-0.19343 0.19514-0.25505 0.090724-0.06162 0.19857-0.06162 0.15577 0 0.31668 0.09928l-0.10613 0.28586q-0.11298-0.06676-0.22595-0.06676-0.10099 0-0.18145 0.06162-0.080453 0.05991-0.11469 0.16775-0.051353 0.16433-0.051353 0.35947v0.95174z"/>
<path d="m8.2468 12.145v-1.8179h0.27731v0.25848q0.20028-0.29956 0.57858-0.29956 0.16433 0 0.30127 0.05991 0.13865 0.0582 0.20712 0.15406 0.068471 0.09586 0.095859 0.22766 0.017118 0.08559 0.017118 0.29956v1.1178h-0.30812v-1.1058q0-0.18829-0.035947-0.28073-0.035947-0.09415-0.12838-0.14892-0.090724-0.05649-0.21397-0.05649-0.19685 0-0.34064 0.12496-0.14208 0.12496-0.14208 0.47416v0.99282z"/>
<path d="m11.384 11.921q-0.17118 0.1455-0.33037 0.20541-0.15748 0.05991-0.33893 0.05991-0.29956 0-0.46046-0.1455-0.16091-0.14721-0.16091-0.37488 0-0.13352 0.05991-0.24307 0.06162-0.11126 0.15919-0.17802 0.09928-0.06676 0.22253-0.10099 0.09072-0.02397 0.27388-0.04622 0.37316-0.04451 0.54948-0.10613 0.0017-0.06334 0.0017-0.08045 0-0.1883-0.0873-0.26532-0.11811-0.10442-0.35091-0.10442-0.21739 0-0.32181 0.07703-0.10271 0.07532-0.15235 0.26875l-0.30127-0.04108q0.04108-0.19343 0.13523-0.31154 0.09415-0.11982 0.27217-0.18316 0.17802-0.06505 0.41254-0.06505 0.2328 0 0.3783 0.05478t0.21397 0.13865q0.06847 0.08216 0.09586 0.20884 0.01541 0.07874 0.01541 0.28415v0.41082q0 0.42965 0.01883 0.54434 0.02054 0.11298 0.07874 0.21739h-0.32181q-0.04793-0.09586-0.06162-0.22424zm-0.02568-0.68813q-0.16775 0.06847-0.50326 0.1164-0.19001 0.02739-0.26875 0.06162-0.07874 0.03424-0.12154 0.10099-0.04279 0.06505-0.04279 0.1455 0 0.12325 0.09244 0.20541 0.09415 0.08216 0.27388 0.08216 0.17802 0 0.31668-0.07703 0.13865-0.07874 0.2037-0.21397 0.04964-0.10442 0.04964-0.30812z"/>
<path d="m12.822 11.87 0.04451 0.27217q-0.13009 0.02739-0.2328 0.02739-0.16775 0-0.26019-0.05307-0.09244-0.05307-0.13009-0.13865-0.03766-0.0873-0.03766-0.36461v-1.0459h-0.22595v-0.23965h0.22595v-0.45019l0.3064-0.18487v0.63507h0.30983v0.23965h-0.30983v1.063q0 0.13181 0.01541 0.16946 0.01712 0.03766 0.05307 0.05991 0.03766 0.02225 0.10613 0.02225 0.05135 0 0.13523-0.01198z"/>
<path d="m13.124 9.9901v-0.35434h0.30812v0.35434zm0 2.1551v-1.8179h0.30812v1.8179z"/>
<path d="m13.788 11.236q0-0.50497 0.28073-0.74804 0.23451-0.20199 0.57173-0.20199 0.37488 0 0.61281 0.2465 0.23794 0.24478 0.23794 0.67786 0 0.35091-0.10613 0.5529-0.10442 0.20028-0.30641 0.31154-0.20028 0.11126-0.43821 0.11126-0.38172 0-0.61795-0.24478-0.23451-0.24478-0.23451-0.70525zm0.31668 0q0 0.3492 0.15235 0.5238 0.15235 0.17289 0.38344 0.17289 0.22938 0 0.38172-0.1746 0.15235-0.1746 0.15235-0.53236 0-0.33722-0.15406-0.51011-0.15235-0.1746-0.38001-0.1746-0.23109 0-0.38344 0.17289-0.15235 0.17289-0.15235 0.52209z"/>
<path d="m15.854 12.145v-1.8179h0.27731v0.25848q0.20028-0.29956 0.57858-0.29956 0.16433 0 0.30127 0.05991 0.13865 0.0582 0.20712 0.15406 0.06847 0.09586 0.09586 0.22766 0.01712 0.08559 0.01712 0.29956v1.1178h-0.30812v-1.1058q0-0.18829-0.03595-0.28073-0.03595-0.09415-0.12838-0.14892-0.09072-0.05649-0.21397-0.05649-0.19685 0-0.34064 0.12496-0.14208 0.12496-0.14208 0.47416v0.99282z"/>
<path d="m18.992 11.921q-0.17118 0.1455-0.33037 0.20541-0.15748 0.05991-0.33893 0.05991-0.29956 0-0.46046-0.1455-0.16091-0.14721-0.16091-0.37488 0-0.13352 0.05991-0.24307 0.06162-0.11126 0.1592-0.17802 0.09928-0.06676 0.22253-0.10099 0.09072-0.02397 0.27388-0.04622 0.37317-0.04451 0.54948-0.10613 0.0017-0.06334 0.0017-0.08045 0-0.1883-0.0873-0.26532-0.11811-0.10442-0.35091-0.10442-0.21739 0-0.32181 0.07703-0.10271 0.07532-0.15235 0.26875l-0.30127-0.04108q0.04108-0.19343 0.13523-0.31154 0.09415-0.11982 0.27217-0.18316 0.17802-0.06505 0.41254-0.06505 0.2328 0 0.3783 0.05478 0.1455 0.05478 0.21397 0.13865 0.06847 0.08216 0.09586 0.20884 0.01541 0.07874 0.01541 0.28415v0.41082q0 0.42965 0.01883 0.54434 0.02054 0.11298 0.07874 0.21739h-0.32181q-0.04793-0.09586-0.06162-0.22424zm-0.02568-0.68813q-0.16775 0.06847-0.50326 0.1164-0.19001 0.02739-0.26875 0.06162-0.07874 0.03424-0.12154 0.10099-0.04279 0.06505-0.04279 0.1455 0 0.12325 0.09244 0.20541 0.09415 0.08216 0.27388 0.08216 0.17802 0 0.31668-0.07703 0.13865-0.07874 0.2037-0.21397 0.04964-0.10442 0.04964-0.30812z"/>
<path d="m19.75 12.145v-2.5095h0.30812v2.5095z"/>
<path d="m21.782 11.56 0.31839 0.03937q-0.07532 0.27902-0.27902 0.43308-0.2037 0.15406-0.52038 0.15406-0.39884 0-0.63335-0.24478-0.2328-0.2465-0.2328-0.68984 0-0.45875 0.23622-0.7121 0.23622-0.25334 0.61281-0.25334 0.36461 0 0.5957 0.24821 0.23109 0.24821 0.23109 0.6984 0 0.02739-0.0017 0.08216h-1.3557q0.01712 0.29956 0.16946 0.45875 0.15235 0.1592 0.38001 0.1592 0.16946 0 0.28929-0.08901 0.11982-0.08901 0.19001-0.28415zm-1.0117-0.49812h1.0151q-0.02054-0.22938-0.1164-0.34406-0.14721-0.17802-0.38172-0.17802-0.21226 0-0.35776 0.14208-0.14379 0.14208-0.15919 0.38001z"/>
<path d="m22.365 11.603 0.3047-0.04793q0.02568 0.18316 0.14208 0.28073 0.11811 0.09757 0.32866 0.09757 0.21226 0 0.31496-0.08559 0.10271-0.0873 0.10271-0.2037 0-0.10442-0.09072-0.16433-0.06334-0.04108-0.31496-0.10442-0.33893-0.08559-0.47074-0.14721-0.13009-0.06334-0.19856-0.17289-0.06676-0.11126-0.06676-0.24478 0-0.12154 0.05478-0.22424 0.05649-0.10442 0.15235-0.17289 0.0719-0.05307 0.19514-0.08901 0.12496-0.03766 0.26704-0.03766 0.21397 0 0.37488 0.06162 0.16262 0.06162 0.23965 0.16775 0.07703 0.10442 0.10613 0.28073l-0.30127 0.04108q-0.02054-0.14036-0.11982-0.21911-0.09757-0.07874-0.27731-0.07874-0.21226 0-0.30298 0.07018-0.09072 0.07018-0.09072 0.16433 0 0.05991 0.03766 0.10784 0.03766 0.04964 0.11811 0.08216 0.04622 0.01712 0.27217 0.07874 0.32695 0.0873 0.45533 0.14379 0.1301 0.05478 0.2037 0.16091 0.07361 0.10613 0.07361 0.26361 0 0.15406-0.09072 0.291-0.08901 0.13523-0.25848 0.21055-0.16946 0.07361-0.38344 0.07361-0.35434 0-0.54092-0.14721-0.18487-0.14721-0.23622-0.4365z"/>
<path d="m26.9 9.6358h0.33208v1.4499q0 0.3783-0.08559 0.60083-0.08559 0.22253-0.30983 0.3629-0.22253 0.13865-0.58542 0.13865-0.35262 0-0.57687-0.12154-0.22424-0.12154-0.3201-0.35091-0.09586-0.23109-0.09586-0.62993v-1.4499h0.33208v1.4482q0 0.32695 0.05991 0.48272 0.06162 0.15406 0.20884 0.23794 0.14892 0.08388 0.3629 0.08388 0.36632 0 0.52209-0.16604 0.15577-0.16604 0.15577-0.63849zm-1.14-0.15406v-0.35091h0.32181v0.35091zm0.63849 0v-0.35091h0.32181v0.35091z"/>
<path d="m28.031 12.145h-0.28586v-2.5095h0.30812v0.89525q0.19514-0.24478 0.49812-0.24478 0.16775 0 0.31668 0.06847 0.15064 0.06676 0.2465 0.19001 0.09757 0.12154 0.15235 0.29442 0.05478 0.17289 0.05478 0.36974 0 0.46731-0.23109 0.72237t-0.55461 0.25505q-0.32181 0-0.50497-0.26875zm-0.0034-0.92264q0 0.32695 0.08901 0.47245 0.1455 0.23794 0.39371 0.23794 0.20199 0 0.3492-0.1746 0.14721-0.17631 0.14721-0.5238 0-0.35605-0.14208-0.52551-0.14036-0.16946-0.34064-0.16946-0.20199 0-0.3492 0.17631-0.14721 0.1746-0.14721 0.50668z"/>
<path d="m30.943 11.56 0.31839 0.03937q-0.07532 0.27902-0.27902 0.43308-0.2037 0.15406-0.52038 0.15406-0.39884 0-0.63335-0.24478-0.2328-0.2465-0.2328-0.68984 0-0.45875 0.23622-0.7121t0.61281-0.25334q0.36461 0 0.5957 0.24821 0.23109 0.24821 0.23109 0.6984 0 0.02739-0.0017 0.08216h-1.3557q0.01712 0.29956 0.16946 0.45875 0.15235 0.1592 0.38001 0.1592 0.16946 0 0.28929-0.08901 0.11982-0.08901 0.19001-0.28415zm-1.0117-0.49812h1.0151q-0.02054-0.22938-0.1164-0.34406-0.14721-0.17802-0.38172-0.17802-0.21226 0-0.35776 0.14208-0.14379 0.14208-0.15919 0.38001z"/>
<path d="m31.647 12.145v-1.8179h0.27731v0.27559q0.10613-0.19343 0.19514-0.25505 0.09072-0.06162 0.19856-0.06162 0.15577 0 0.31668 0.09928l-0.10613 0.28586q-0.11298-0.06676-0.22595-0.06676-0.10099 0-0.18145 0.06162-0.08045 0.05991-0.11469 0.16775-0.05135 0.16433-0.05135 0.35947v0.95174z"/>
<path d="m32.698 11.603 0.3047-0.04793q0.02568 0.18316 0.14208 0.28073 0.11811 0.09757 0.32866 0.09757 0.21226 0 0.31496-0.08559 0.10271-0.0873 0.10271-0.2037 0-0.10442-0.09072-0.16433-0.06333-0.04108-0.31496-0.10442-0.33893-0.08559-0.47074-0.14721-0.13009-0.06334-0.19856-0.17289-0.06676-0.11126-0.06676-0.24478 0-0.12154 0.05478-0.22424 0.05649-0.10442 0.15235-0.17289 0.07189-0.05307 0.19514-0.08901 0.12496-0.03766 0.26704-0.03766 0.21397 0 0.37488 0.06162 0.16262 0.06162 0.23965 0.16775 0.07703 0.10442 0.10613 0.28073l-0.30127 0.04108q-0.02054-0.14036-0.11982-0.21911-0.09757-0.07874-0.27731-0.07874-0.21226 0-0.30298 0.07018-0.09072 0.07018-0.09072 0.16433 0 0.05991 0.03766 0.10784 0.03766 0.04964 0.11811 0.08216 0.04622 0.01712 0.27217 0.07874 0.32695 0.0873 0.45533 0.14379 0.13009 0.05478 0.2037 0.16091 0.07361 0.10613 0.07361 0.26361 0 0.15406-0.09072 0.291-0.08901 0.13523-0.25848 0.21055-0.16946 0.07361-0.38344 0.07361-0.35434 0-0.54092-0.14721-0.18487-0.14721-0.23622-0.4365z"/>
<path d="m35.818 11.56 0.31839 0.03937q-0.07532 0.27902-0.27902 0.43308-0.2037 0.15406-0.52038 0.15406-0.39884 0-0.63335-0.24478-0.2328-0.2465-0.2328-0.68984 0-0.45875 0.23622-0.7121t0.61281-0.25334q0.36461 0 0.5957 0.24821 0.23109 0.24821 0.23109 0.6984 0 0.02739-0.0017 0.08216h-1.3557q0.01712 0.29956 0.16946 0.45875 0.15235 0.1592 0.38001 0.1592 0.16946 0 0.28929-0.08901 0.11982-0.08901 0.19001-0.28415zm-1.0117-0.49812h1.0151q-0.02054-0.22938-0.1164-0.34406-0.14721-0.17802-0.38172-0.17802-0.21226 0-0.35776 0.14208-0.14379 0.14208-0.1592 0.38001z"/>
<path d="m37.198 11.87 0.04451 0.27217q-0.1301 0.02739-0.2328 0.02739-0.16775 0-0.26019-0.05307-0.09244-0.05307-0.13009-0.13865-0.03766-0.0873-0.03766-0.36461v-1.0459h-0.22595v-0.23965h0.22595v-0.45019l0.3064-0.18487v0.63507h0.30983v0.23965h-0.30983v1.063q0 0.13181 0.01541 0.16946 0.01712 0.03766 0.05306 0.05991 0.03766 0.02225 0.10613 0.02225 0.05135 0 0.13523-0.01198z"/>
<path d="m37.335 12.145v-0.24992l1.1572-1.3283q-0.19685 0.01027-0.34749 0.01027h-0.7412v-0.24992h1.4858v0.2037l-0.98427 1.1537-0.19001 0.21055q0.20712-0.01541 0.38857-0.01541h0.84048v0.26532z"/>
<path d="m40.442 12.145v-0.26704q-0.21226 0.30812-0.57687 0.30812-0.16091 0-0.30127-0.06162-0.13865-0.06162-0.20712-0.15406-0.06676-0.09415-0.09415-0.22938-0.01883-0.09072-0.01883-0.28758v-1.1263h0.30812v1.0082q0 0.24136 0.01883 0.32524 0.0291 0.12154 0.12325 0.19172 0.09415 0.06847 0.2328 0.06847 0.13865 0 0.26019-0.07018 0.12154-0.07189 0.17118-0.19343 0.05135-0.12325 0.05135-0.35605v-0.974h0.30812v1.8179z"/>
<path d="m41.202 12.145v-1.8179h0.27731v0.25848q0.20028-0.29956 0.57858-0.29956 0.16433 0 0.30127 0.05991 0.13865 0.0582 0.20712 0.15406 0.06847 0.09586 0.09586 0.22766 0.01712 0.08559 0.01712 0.29956v1.1178h-0.30812v-1.1058q0-0.18829-0.03595-0.28073-0.03595-0.09415-0.12838-0.14892-0.09072-0.05649-0.21397-0.05649-0.19685 0-0.34064 0.12496-0.14208 0.12496-0.14208 0.47416v0.99282z"/>
<path d="m43.097 12.296 0.29956 0.04451q0.01883 0.13865 0.10442 0.20199 0.11469 0.08559 0.31325 0.08559 0.21397 0 0.33037-0.08559 0.1164-0.08559 0.15748-0.23965 0.02397-0.09415 0.02225-0.39542-0.20199 0.23794-0.50326 0.23794-0.37488 0-0.58029-0.27046-0.20541-0.27046-0.20541-0.64876 0-0.26019 0.09415-0.4793 0.09415-0.22082 0.27217-0.34064 0.17974-0.11982 0.4211-0.11982 0.32181 0 0.53065 0.26019v-0.21911h0.28415v1.5714q0 0.42452-0.0873 0.60083-0.08559 0.17802-0.27388 0.28073-0.18658 0.10271-0.46046 0.10271-0.32524 0-0.52551-0.14721-0.20028-0.1455-0.19343-0.43992zm0.25505-1.0921q0 0.35776 0.14208 0.52209 0.14208 0.16433 0.35605 0.16433 0.21226 0 0.35605-0.16262 0.14379-0.16433 0.14379-0.51353 0-0.33379-0.14892-0.50326-0.14721-0.16946-0.35605-0.16946-0.20541 0-0.3492 0.16775-0.14379 0.16604-0.14379 0.4947z"/>
<path d="m46.291 11.921q-0.17118 0.1455-0.33037 0.20541-0.15748 0.05991-0.33893 0.05991-0.29956 0-0.46047-0.1455-0.16091-0.14721-0.16091-0.37488 0-0.13352 0.05991-0.24307 0.06162-0.11126 0.1592-0.17802 0.09928-0.06676 0.22253-0.10099 0.09072-0.02397 0.27388-0.04622 0.37316-0.04451 0.54948-0.10613 0.0017-0.06334 0.0017-0.08045 0-0.1883-0.0873-0.26532-0.11811-0.10442-0.35091-0.10442-0.2174 0-0.32181 0.07703-0.10271 0.07532-0.15235 0.26875l-0.30127-0.04108q0.04108-0.19343 0.13523-0.31154 0.09415-0.11982 0.27217-0.18316 0.17802-0.06505 0.41254-0.06505 0.2328 0 0.3783 0.05478 0.1455 0.05478 0.21397 0.13865 0.06847 0.08216 0.09586 0.20884 0.01541 0.07874 0.01541 0.28415v0.41082q0 0.42965 0.01883 0.54434 0.02054 0.11298 0.07874 0.21739h-0.32181q-0.04793-0.09586-0.06162-0.22424zm-0.02568-0.68813q-0.16775 0.06847-0.50326 0.1164-0.19001 0.02739-0.26875 0.06162-0.07874 0.03424-0.12154 0.10099-0.04279 0.06505-0.04279 0.1455 0 0.12325 0.09243 0.20541 0.09415 0.08216 0.27388 0.08216 0.17802 0 0.31668-0.07703 0.13865-0.07874 0.2037-0.21397 0.04964-0.10442 0.04964-0.30812z"/>
<path d="m47.053 12.145v-1.8179h0.27731v0.27559q0.10613-0.19343 0.19514-0.25505 0.09072-0.06162 0.19856-0.06162 0.15577 0 0.31668 0.09928l-0.10613 0.28586q-0.11298-0.06676-0.22595-0.06676-0.101 0-0.18145 0.06162-0.08045 0.05991-0.11469 0.16775-0.05135 0.16433-0.05135 0.35947v0.95174z"/>
<path d="m49.413 11.479 0.30298 0.03937q-0.04964 0.31325-0.25505 0.49128-0.2037 0.17631-0.50155 0.17631-0.37316 0-0.60083-0.24307-0.22595-0.24478-0.22595-0.70011 0-0.29442 0.09757-0.51524t0.29614-0.33037q0.20028-0.11126 0.43479-0.11126 0.29614 0 0.48443 0.15064 0.18829 0.14892 0.24136 0.42452l-0.29956 0.04622q-0.04279-0.18316-0.15235-0.2756-0.10784-0.09244-0.2619-0.09244-0.2328 0-0.3783 0.16775-0.1455 0.16604-0.1455 0.52722 0 0.36632 0.14036 0.53236 0.14036 0.16604 0.36632 0.16604 0.18145 0 0.30298-0.11126 0.12154-0.11126 0.15406-0.34235z"/>
<path d="m49.98 12.145v-2.5095h0.30812v0.90039q0.21568-0.24992 0.54434-0.24992 0.20199 0 0.35091 0.08045 0.14892 0.07874 0.21226 0.21911 0.06505 0.14036 0.06505 0.4074v1.152h-0.30812v-1.152q0-0.23109-0.10099-0.33551-0.09928-0.10613-0.28244-0.10613-0.13694 0-0.25848 0.07189-0.11982 0.07018-0.17118 0.19172-0.05135 0.12154-0.05135 0.33551v0.99454z"/>
<path d="m51.933 9.9901v-0.35434h0.30812v0.35434zm0 2.1551v-1.8179h0.30812v1.8179z"/>
<path d="m53.217 12.145-0.69155-1.8179h0.32524l0.39028 1.0887q0.06334 0.17631 0.1164 0.36632 0.04108-0.14379 0.11469-0.34578l0.40398-1.1092h0.31668l-0.68813 1.8179z"/>
<path d="m56.026 12.883q-0.25505-0.32181-0.43137-0.75318-0.17631-0.43136-0.17631-0.89354 0-0.4074 0.13181-0.78057 0.15406-0.43308 0.47587-0.86273h0.22082q-0.20712 0.35605-0.27388 0.50839-0.10442 0.23622-0.16433 0.49299-0.07361 0.3201-0.07361 0.64362 0 0.82336 0.51182 1.645z"/>
<path d="m56.704 12.145v-2.5095h0.33208v2.5095z"/>
<path d="m57.616 12.145v-2.5095h0.34064l1.3181 1.9702v-1.9702h0.31839v2.5095h-0.34064l-1.3181-1.972v1.972z"/>
<path d="m60.791 12.145v-2.2133h-0.82678v-0.29614h1.9891v0.29614h-0.83021v2.2133z"/>
<path d="m62.458 12.883h-0.22082q0.51182-0.82165 0.51182-1.645 0-0.32181-0.07361-0.63849-0.0582-0.25676-0.16262-0.49299-0.06676-0.15406-0.2756-0.51353h0.22082q0.32181 0.42965 0.47587 0.86273 0.13181 0.37317 0.13181 0.78057 0 0.46218-0.17802 0.89354-0.17631 0.43137-0.42965 0.75318z"/>
</g>
<text x="41.974022" y="18.540367" fill="#000000" font-family="Arial" font-size="3.5057px" font-weight="400" letter-spacing="0px" stroke-width=".26458" word-spacing="0px" style="line-height:125%" xml:space="preserve"><tspan x="41.974022" y="18.540367" stroke-width=".26458"><tspan dx="0" dy="0" fill="#000000" font-family="Arial" font-size="3.5057px" font-weight="400" stroke-width=".26458">Englisch (EN)</tspan></tspan></text>
<text x="36.488609" y="24.935482" fill="#000000" font-family="Arial" font-size="3.5057px" font-weight="400" letter-spacing="0px" stroke-width=".26458" word-spacing="0px" style="line-height:125%" xml:space="preserve"><tspan x="36.488609" y="24.935482" stroke-width=".26458"><tspan dx="0" dy="0" fill="#000000" font-family="Arial" font-size="3.5057px" font-weight="400" stroke-width=".26458">Französisch (FR)</tspan></tspan></text>
<text x="42.559601" y="31.330593" fill="#000000" font-family="Arial" font-size="3.5057px" font-weight="400" letter-spacing="0px" stroke-width=".26458" word-spacing="0px" style="line-height:125%" xml:space="preserve"><tspan x="42.559601" y="31.330593" stroke-width=".26458"><tspan dx="0" dy="0" fill="#000000" font-family="Arial" font-size="3.5057px" font-weight="400" stroke-width=".26458">Polnisch (PL)</tspan></tspan></text>
<text x="40.206696" y="37.725731" fill="#000000" font-family="Arial" font-size="3.5057px" font-weight="400" letter-spacing="0px" stroke-width=".26458" word-spacing="0px" style="line-height:125%" xml:space="preserve"><tspan x="40.206696" y="37.725731" stroke-width=".26458"><tspan dx="0" dy="0" fill="#000000" font-family="Arial" font-size="3.5057px" font-weight="400" stroke-width=".26458">Japanisch (JP)</tspan></tspan></text>
<text x="41.384911" y="44.12085" fill="#000000" font-family="Arial" font-size="3.5057px" font-weight="400" letter-spacing="0px" stroke-width=".26458" word-spacing="0px" style="line-height:125%" xml:space="preserve"><tspan x="41.384911" y="44.12085" stroke-width=".26458"><tspan dx="0" dy="0" fill="#000000" font-family="Arial" font-size="3.5057px" font-weight="400" stroke-width=".26458">Italianisch (IT)</tspan></tspan></text>
<text x="28.449226" y="50.515961" fill="#000000" font-family="Arial" font-size="3.5057px" font-weight="400" letter-spacing="0px" stroke-width=".26458" word-spacing="0px" style="line-height:125%" xml:space="preserve"><tspan x="28.449226" y="50.515961" stroke-width=".26458"><tspan dx="0" dy="0" fill="#000000" font-family="Arial" font-size="3.5057px" font-weight="400" stroke-width=".26458">Portugiesisch (PT-BR)</tspan></tspan></text>
<text x="35.701958" y="56.911072" fill="#000000" font-family="Arial" font-size="3.5057px" font-weight="400" letter-spacing="0px" stroke-width=".26458" word-spacing="0px" style="line-height:125%" xml:space="preserve"><tspan x="35.701958" y="56.911072" stroke-width=".26458"><tspan dx="0" dy="0" fill="#000000" font-family="Arial" font-size="3.5057px" font-weight="400" stroke-width=".26458">Tschechisch (CS)</tspan></tspan></text>
<text x="35.888924" y="63.306183" fill="#000000" font-family="Arial" font-size="3.5057px" font-weight="400" letter-spacing="0px" stroke-width=".26458" word-spacing="0px" style="line-height:125%" xml:space="preserve"><tspan x="35.888924" y="63.306183" stroke-width=".26458"><tspan dx="0" dy="0" fill="#000000" font-family="Arial" font-size="3.5057px" font-weight="400" stroke-width=".26458">Einen Inoffiziellen</tspan></tspan></text>
</svg>
