<?xml version="1.0" encoding="UTF-8"?>
<svg width="467.01" height="282.69" version="1.1" viewBox="0 0 123.56 74.796" xmlns="http://www.w3.org/2000/svg" xmlns:cc="http://creativecommons.org/ns#" xmlns:dc="http://purl.org/dc/elements/1.1/" xmlns:rdf="http://www.w3.org/1999/02/22-rdf-syntax-ns#">
<metadata>
<rdf:RDF>
<cc:Work rdf:about="">
<dc:format>image/svg+xml</dc:format>
<dc:type rdf:resource="http://purl.org/dc/dcmitype/StillImage"/>
<dc:title/>
</cc:Work>
</rdf:RDF>
</metadata>
<path d="m34.016 40.777-5.7623 32.071c17.71 3.1854 34.648-8.5932 37.833-26.304 3.1801-17.716-8.5932-34.653-26.309-37.833-1.8996-0.34394-3.831-0.51327-5.7623-0.51327z" fill="#3975d8" fill-rule="evenodd"/>
<path d="m34.1 40.777v0.01587l-5.7623 32.071-0.06879-0.09525 0.83075 0.13758 0.82546 0.11641 0.82017 0.09525 0.82546 0.07408 0.81487 0.05291 0.82017 0.02646 0.81487 0.01058 0.80958-0.0053 0.80958-0.03175 0.80429-0.04762 0.799-0.06879 0.799-0.08995 0.78842-0.10583 0.78313-0.13229 0.78313-0.14287 0.77783-0.16932 0.76725-0.17991 0.76196-0.20107 0.75667-0.22224 0.75138-0.23811 0.74079-0.25928 0.7355-0.26986 0.73021-0.29103 0.71963-0.3069 0.70905-0.32807 0.69847-0.33865 0.69846-0.35982 0.68259-0.37569 0.6773-0.38627 0.66672-0.40744 1.3017-0.8625 1.2594-0.9207 1.2117-0.97891 1.1694-1.0371 1.1165-1.0953 1.0636-1.1482 1.0107-1.2011 0.95245-1.2541 0.89424-1.3017 0.42331-0.66671 0.41273-0.68259 0.39156-0.69317 0.37569-0.70376 0.35982-0.71434 0.34923-0.72492 0.32278-0.7355 0.3069-0.75138 0.29632-0.75667 0.26986-0.76196 0.25399-0.78313 0.23812-0.78313 0.21695-0.799 0.19578-0.80429 0.17991-0.81487 0.15874-0.82546 0.13758-0.82546 0.11641-0.82546 0.09524-0.82016 0.07408-0.82546 0.05291-0.82017 0.03175-0.81487 0.01058-0.81488-0.01058-0.80958-0.02645-0.80958-0.05291-0.80429-0.0635-0.799-0.08995-0.799-0.11112-0.78842-0.12699-0.78311-0.14816-0.78313-0.16403-0.77784-0.1852-0.76725-0.20107-0.76196-0.21695-0.75667-0.2434-0.75138-0.25399-0.7408-0.27515-0.7355-0.28573-0.73021-0.31219-0.71963-0.32277-0.70905-0.34394-0.70376-0.35452-0.69317-0.37569-0.68259-0.39156-0.68259-0.40744-0.66142-0.8572-1.3017-0.9207-1.2594-0.97891-1.2117-1.0424-1.1694-1.09-1.1165-1.1482-1.0689-1.2064-1.0107-1.2488-0.95245-1.307-0.89954-0.66672-0.42331-0.6773-0.40744-0.69317-0.39686-0.70376-0.37569-0.71434-0.35981-0.72492-0.34394-0.7408-0.32807-0.74608-0.3069-0.75667-0.29103-0.76725-0.27515-0.77784-0.25399-0.78842-0.23811-0.79371-0.21695-0.80958-0.19578-0.81487-0.17991-0.82546-0.16403-0.70376-0.10583-0.71434-0.10583-0.71963-0.084662-0.71963-0.074079-0.71963-0.058205-0.71963-0.03704-0.71963-0.026457-0.72492-0.00529 0.08466-0.084663zm-0.16932-32.579c0-0.021166 0.01058-0.042331 0.02646-0.058205s0.03704-0.026457 0.0635-0.026457l0.72492 0.00529 0.72492 0.026457 0.72492 0.042331 0.72492 0.058205 0.71963 0.068788 0.71963 0.089954 0.71963 0.10583 0.71434 0.10583 0.82546 0.15874 0.82017 0.17991 0.80958 0.20107 0.80429 0.21695 0.78842 0.23811 0.78313 0.25928 0.76725 0.27515 0.76196 0.29103 0.75138 0.31219 0.74079 0.32807 0.73021 0.34394 0.71963 0.36511 0.70376 0.38098 0.69846 0.39156 0.68788 0.41273 0.67201 0.4286 1.307 0.89954 1.2594 0.96303 1.2064 1.0159 1.1535 1.0689 1.1006 1.1218 1.0424 1.1747 0.9842 1.2223 0.92599 1.2646 0.86779 1.307 0.40744 0.66672 0.39156 0.68259 0.37569 0.68788 0.35982 0.69846 0.34394 0.70905 0.32807 0.71434 0.3069 0.72492 0.29102 0.73021 0.27515 0.7355 0.25928 0.75138 0.23811 0.75138 0.22224 0.76196 0.20636 0.76725 0.17991 0.77254 0.16932 0.77784 0.14287 0.78312 0.13228 0.79371 0.10583 0.79371 0.08996 0.799 0.06879 0.80429 0.05291 0.80958 0.02646 0.80958 0.01058 0.81487-0.01058 0.82017-0.03175 0.82017-0.05291 0.82546-0.07408 0.82546-0.09524 0.83075-0.11641 0.83075-0.14287 0.82546-0.15874 0.82546-0.17991 0.82017-0.20107 0.81488-0.21694 0.799-0.23282 0.78842-0.25928 0.78313-0.27515 0.77254-0.29103 0.76196-0.31219 0.75138-0.32807 0.74079-0.34394 0.73021-0.35981 0.71963-0.38098 0.70375-0.39685 0.69846-0.41273 0.68259-0.42331 0.67201-0.89954 1.3123-0.95774 1.2541-1.0212 1.2117-1.0689 1.1535-1.1218 1.0953-1.1747 1.0477-1.2223 0.9842-1.2646 0.92599-1.307 0.8625-0.66672 0.40744-0.6773 0.39686-0.69317 0.37569-0.69847 0.35452-0.70376 0.34923-0.71434 0.32278-0.72492 0.31219-0.73021 0.29103-0.7408 0.27515-0.74609 0.25399-0.75138 0.2434-0.76196 0.21695-0.76725 0.20636-0.77254 0.1852-0.77784 0.16403-0.78313 0.14816-0.79371 0.12699-0.79371 0.11112-0.799 0.08995-0.80429 0.06879-0.80958 0.04762-0.80958 0.03175-0.81488 0.0053-0.82017-0.01058-0.82546-0.03175-0.82017-0.05291-0.82546-0.07408-0.83075-0.09524-0.83075-0.11641-0.83075-0.13758c-0.02116 0-0.04233-0.01587-0.05291-0.03175-0.01587-0.02116-0.02116-0.04233-0.01587-0.0635l5.7676-32.071-0.0053 0.01058z" fill="#27549e" stroke="#27549e" stroke-linejoin="bevel" stroke-width=".042331px"/>
<path d="m34.016 40.777-18.205-27.023c-14.924 10.054-18.874 30.301-8.8207 45.228 4.921 7.3048 12.591 12.308 21.261 13.866z" fill="#cf3a2e" fill-rule="evenodd"/>
<path d="m33.934 40.764 0.01323 0.06085-18.205-27.023 0.11906 0.02381-1.3678 0.97097-1.299 1.0265-1.2302 1.0821-1.1694 1.1271-1.1006 1.18-1.0345 1.225-0.96568 1.2673-0.89954 1.3096-0.83075 1.3414-0.76196 1.3784-0.69053 1.4102-0.62174 1.4366-0.5503 1.4657-0.47887 1.4842-0.40744 1.508-0.33336 1.5213-0.26457 1.5372-0.18784 1.5477-0.11376 1.5583-0.03968 1.5636 0.03439 1.5663 0.11112 1.5636 0.18784 1.5663 0.26722 1.5557 0.34129 1.5504 0.41802 1.5371 0.50004 1.5239 0.57676 1.5054 0.65878 1.4895 0.7355 1.4631 0.81752 1.4393 0.89954 1.4102 0.46829 0.67465 0.48416 0.66407 1.0159 1.2858 1.0715 1.2223 1.1271 1.1694 1.1853 1.1059 0.61116 0.52914 0.62438 0.51591 0.63497 0.49739 0.6482 0.48416 0.65878 0.46564 0.67201 0.44977 0.68259 0.43125 0.69053 0.41538 0.70376 0.3995 0.71434 0.38098 0.71963 0.3651 0.73286 0.34659 0.73815 0.32542 0.75138 0.30955 0.75667 0.29103 0.76725 0.26986 0.77254 0.25399 0.78312 0.23547 0.78842 0.2143 0.79371 0.19314 0.80165 0.17726 0.80958 0.1561-0.10054 0.06879zm-5.5983 32.1c-0.0053 0.02381-0.01587 0.04233-0.03439 0.05556s-0.04233 0.01852-0.06614 0.01323l-0.80959-0.1561-0.80694-0.17726-0.799-0.19843-0.79371-0.2143-0.78312-0.23547-0.77784-0.25399-0.77254-0.27515-0.76196-0.29103-0.75138-0.30955-0.74344-0.33071-0.73815-0.34659-0.72492-0.3651-0.71434-0.38627-0.70905-0.3995-0.69582-0.41802-0.68259-0.43389-0.6773-0.44977-0.66407-0.47094-0.6482-0.48416-0.64026-0.50268-0.62438-0.51591-0.61645-0.53443-1.1932-1.1112-1.135-1.1747-1.0768-1.2329-1.0159-1.2911-0.48945-0.66407-0.47093-0.67994-0.90218-1.4207-0.82281-1.4445-0.7408-1.4737-0.65878-1.4948-0.58205-1.516-0.50004-1.5292-0.42331-1.5477-0.3413-1.5557-0.26722-1.5663-0.18784-1.5715-0.11376-1.5742-0.03439-1.5715 0.04233-1.5742 0.11376-1.5636 0.18784-1.5583 0.26457-1.5424 0.33865-1.5319 0.40744-1.5133 0.48416-1.4948 0.5503-1.471 0.62703-1.4472 0.69317-1.4154 0.76461-1.3837 0.83604-1.352 0.90483-1.3149 0.97097-1.2726 1.0398-1.2302 1.1059-1.1879 1.1747-1.135 1.2408-1.0874 1.3043-1.0318 1.3678-0.97097c0.01852-0.01323 0.04233-0.01852 0.0635-0.01323 0.02381 0.0053 0.04233 0.01587 0.05556 0.03704l18.205 27.023c0.01323 0.01587 0.01587 0.03969 0.01323 0.06085z" fill="#98281f" stroke="#98281f" stroke-linejoin="bevel" stroke-width=".042331px"/>
<path d="m34.016 40.777-18.205-27.023z" fill="#dea603" fill-rule="evenodd"/>
<path d="m34.085 40.732-0.14022 0.0926-18.202-27.023 0.11641 0.02117 0.02381-0.11641zm-18.343-26.931c-0.01323-0.01852-0.01852-0.04233-0.01323-0.06614 0.0053-0.02116 0.01852-0.03969 0.03704-0.05291 0.03704-0.02646 0.08995-0.01587 0.11641 0.02381l18.202 27.026c0.02646 0.03704 0.01587 0.08731-0.02117 0.11376-0.03704 0.0291-0.0926 0.01852-0.11906-0.02117z" fill="#a37902" stroke="#a37902" stroke-linejoin="bevel" stroke-width=".042331px"/>
<path d="m34.016 40.777-7.654-31.672c-3.7648 0.91012-7.3365 2.4843-10.551 4.6485z" fill="#2d9449" fill-rule="evenodd"/>
<path d="m34.087 40.732-0.15345 0.06614-7.654-31.672 0.10583 0.060851-1.4022 0.37304-1.3811 0.43389-1.3572 0.4921-1.3308 0.55295-1.307 0.60851-1.2805 0.67201-1.2488 0.72492-1.2197 0.78048 0.02381-0.11641zm-18.345-26.931c-0.01323-0.01852-0.01852-0.04233-0.01323-0.0635 0.0053-0.02117 0.01852-0.04233 0.03704-0.05291l1.225-0.78577 1.2594-0.73021 1.2858-0.67465 1.3123-0.61116 1.3414-0.55824 1.3625-0.4921 1.3863-0.43389 1.4022-0.37304c0.02381-0.00794 0.04498-0.00265 0.06614 0.00794 0.01852 0.010583 0.0344 0.031748 0.03969 0.052914l7.654 31.672c0.0079 0.03968-0.01058 0.08202-0.05027 0.09789-0.03704 0.01588-0.07937 0.0026-0.10318-0.03175z" fill="#1e6c33" stroke="#1e6c33" stroke-linejoin="bevel" stroke-width=".042331px"/>
<path d="m34.016 40.777-3.8548-32.354c-1.2805 0.15345-2.5478 0.38098-3.7992 0.68259z" fill="#e26001" fill-rule="evenodd"/>
<path d="m34.1 40.759-0.16668 0.0291-3.8548-32.354 0.09525 0.07408-0.95774 0.12964-0.9498 0.1561-0.94452 0.1852-0.94187 0.21166 0.06614-0.10318zm-7.8207-31.632c-0.0053-0.021166 0-0.044977 0.01058-0.063497 0.01323-0.021166 0.03175-0.034394 0.05291-0.039686l0.94451-0.21166 0.9498-0.1852 0.9551-0.1561 0.95774-0.12964c0.02381-0.00265 0.04498 0.00265 0.0635 0.015874 0.01852 0.013229 0.0291 0.034394 0.03175 0.058205l3.8548 32.354c0.0053 0.04498-0.02381 0.08466-0.06879 0.0926-0.04498 0.0079-0.08731-0.02116-0.09789-0.0635z" fill="#a64400" stroke="#a64400" stroke-linejoin="bevel" stroke-width=".042331px"/>
<path d="m34.016 40.777v-32.582c-1.2885 0-2.5769 0.076725-3.8548 0.22753z" fill="#3da7af" fill-rule="evenodd"/>
<path d="m34.1 40.769-0.16932 0.0079v-32.582l0.08731 0.084662-0.96568 0.013229-0.96303 0.044977-0.96039 0.071434-0.95774 0.097891 0.07408-0.092599zm-4.0215-32.336c-0.0026-0.021166 0.0026-0.044977 0.01588-0.063497 0.01588-0.015874 0.03704-0.026457 0.05821-0.029103l0.96303-0.097891 0.96568-0.071434 0.96832-0.047623 0.96568-0.013229c0.02381 0 0.04498 0.010583 0.06085 0.026457s0.02381 0.03704 0.02381 0.058205v32.582c0 0.04498-0.03439 0.08202-0.07937 0.08466-0.04498 0.0026-0.08202-0.0291-0.08731-0.07408z" fill="#2a7a80" stroke="#2a7a80" stroke-linejoin="bevel" stroke-width=".042331px"/>
<path d="m28.166 8.73-0.76196-3.5981 0.08202 0.066142h-1.5663v-0.16932h1.5663c0.04233 0 0.07673 0.029102 0.08466 0.068788l0.76196 3.5981zm3.8495-0.48416 0.04233-4.4871c0.0026-0.044977 0.03969-0.084662 0.08466-0.084662h1.5663v0.16932h-1.5663l0.08466-0.082017-0.04233 4.4871z" stroke="#000" stroke-linejoin="bevel" stroke-width=".042331px"/>
<text x="51.556736" y="45.677177" fill="#000000" font-family="Arial" font-size="3.5057px" font-weight="400" letter-spacing="0px" stroke-width=".26458" word-spacing="0px" style="line-height:125%" xml:space="preserve"><tspan x="51.556736" y="45.677177" stroke-width=".26458"><tspan dx="0" dy="0" fill="#000000" font-family="Arial" font-size="3.5057px" font-weight="400" stroke-width=".26458">28; 53%</tspan></tspan></text>
<text x="3.4050691" y="47.000027" fill="#000000" font-family="Arial" font-size="3.5057px" font-weight="400" letter-spacing="0px" stroke-width=".26458" word-spacing="0px" style="line-height:125%" xml:space="preserve"><tspan x="3.4050691" y="47.000027" stroke-width=".26458"><tspan dx="0" dy="0" fill="#000000" font-family="Arial" font-size="3.5057px" font-weight="400" stroke-width=".26458">20; 38%</tspan></tspan></text>
<text x="18.206858" y="17.103662" fill="#000000" font-family="Arial" font-size="3.5057px" font-weight="400" letter-spacing="0px" stroke-width=".26458" word-spacing="0px" style="line-height:125%" xml:space="preserve"><tspan x="18.206858" y="17.103662" stroke-width=".26458"><tspan dx="0" dy="0" fill="#000000" font-family="Arial" font-size="3.5057px" font-weight="400" stroke-width=".26458">3; 5%</tspan></tspan></text>
<text x="16.0903" y="5.4626012" fill="#000000" font-family="Arial" font-size="3.5057px" font-weight="400" letter-spacing="0px" stroke-width=".26458" word-spacing="0px" style="line-height:125%" xml:space="preserve"><tspan x="16.0903" y="5.4626012" stroke-width=".26458"><tspan dx="0" dy="0" fill="#000000" font-family="Arial" font-size="3.5057px" font-weight="400" stroke-width=".26458">1; 2%</tspan></tspan></text>
<text x="34.081032" y="3.8751838" fill="#000000" font-family="Arial" font-size="3.5057px" font-weight="400" letter-spacing="0px" stroke-width=".26458" word-spacing="0px" style="line-height:125%" xml:space="preserve"><tspan x="34.081032" y="3.8751838" stroke-width=".26458"><tspan dx="0" dy="0" fill="#000000" font-family="Arial" font-size="3.5057px" font-weight="400" stroke-width=".26458">1; 2%</tspan></tspan></text>
<path d="m70.622 10.024v1.7779h1.7779v-1.7779z" fill="#3975d8" fill-rule="evenodd"/>
<path d="m70.537 10.024c0-0.04233 0.04233-0.08466 0.08466-0.08466h1.7779c0.04762 0 0.08466 0.04233 0.08466 0.08466v1.7779c0 0.04762-0.03704 0.08466-0.08466 0.08466h-1.7779c-0.04233 0-0.08466-0.03704-0.08466-0.08466zm0.16932 1.7779-0.08466-0.08466h1.7779l-0.08466 0.08466v-1.7779l0.08466 0.08466h-1.7779l0.08466-0.08466z" fill="#27549e" stroke="#27549e" stroke-linejoin="bevel" stroke-width=".042331px"/>
<text x="73.142151" y="12.026301" fill="#000000" font-family="Arial" font-size="3.5057px" font-weight="400" letter-spacing="0px" stroke-width=".26458" word-spacing="0px" style="line-height:125%" xml:space="preserve"><tspan x="73.142151" y="12.026301" stroke-width=".26458"><tspan dx="0" dy="0" fill="#000000" font-family="Arial" font-size="3.5057px" font-weight="400" stroke-width=".26458">Super!</tspan></tspan></text>
<path d="m70.622 21.665v1.7779h1.7779v-1.7779z" fill="#cf3a2e" fill-rule="evenodd"/>
<path d="m70.537 21.665c0-0.04233 0.04233-0.08466 0.08466-0.08466h1.7779c0.04762 0 0.08466 0.04233 0.08466 0.08466v1.7779c0 0.04762-0.03704 0.08466-0.08466 0.08466h-1.7779c-0.04233 0-0.08466-0.03704-0.08466-0.08466zm0.16932 1.7779-0.08466-0.08466h1.7779l-0.08466 0.08466v-1.7779l0.08466 0.08466h-1.7779l0.08466-0.08466z" fill="#98281f" stroke="#98281f" stroke-linejoin="bevel" stroke-width=".042331px"/>
<text x="73.142151" y="23.689861" fill="#000000" font-family="Arial" font-size="3.5057px" font-weight="400" letter-spacing="0px" stroke-width=".26458" word-spacing="0px" style="line-height:125%" xml:space="preserve"><tspan x="73.142151" y="23.689861" stroke-width=".26458"><tspan dx="0" dy="0" fill="#000000" font-family="Arial" font-size="3.5057px" font-weight="400" stroke-width=".26458">Unentschlossen</tspan></tspan></text>
<path d="m70.622 33.348v1.7779h1.7779v-1.7779z" fill="#dea603" fill-rule="evenodd"/>
<path d="m70.537 33.348c0-0.04233 0.04233-0.08466 0.08466-0.08466h1.7779c0.04762 0 0.08466 0.04233 0.08466 0.08466v1.7779c0 0.04762-0.03704 0.08466-0.08466 0.08466h-1.7779c-0.04233 0-0.08466-0.03704-0.08466-0.08466zm0.16932 1.7779-0.08466-0.08466h1.7779l-0.08466 0.08466v-1.7779l0.08466 0.08466h-1.7779l0.08466-0.08466z" fill="#a37902" stroke="#a37902" stroke-linejoin="bevel" stroke-width=".042331px"/>
<text x="73.142151" y="35.353424" fill="#000000" font-family="Arial" font-size="3.5057px" font-weight="400" letter-spacing="0px" stroke-width=".26458" word-spacing="0px" style="line-height:125%" xml:space="preserve"><tspan x="73.142151" y="35.353424" stroke-width=".26458"><tspan dx="0" dy="0" fill="#000000" font-family="Arial" font-size="3.5057px" font-weight="400" stroke-width=".26458">Blöd</tspan></tspan></text>
<path d="m70.622 44.989v1.7779h1.7779v-1.7779z" fill="#2d9449" fill-rule="evenodd"/>
<path d="m70.537 44.989c0-0.04233 0.04233-0.08466 0.08466-0.08466h1.7779c0.04762 0 0.08466 0.04233 0.08466 0.08466v1.7779c0 0.04762-0.03704 0.08466-0.08466 0.08466h-1.7779c-0.04233 0-0.08466-0.03704-0.08466-0.08466zm0.16932 1.7779-0.08466-0.08466h1.7779l-0.08466 0.08466v-1.7779l0.08466 0.08466h-1.7779l0.08466-0.08466z" fill="#1e6c33" stroke="#1e6c33" stroke-linejoin="bevel" stroke-width=".042331px"/>
<text x="73.142151" y="47.016987" fill="#000000" font-family="Arial" font-size="3.5057px" font-weight="400" letter-spacing="0px" stroke-width=".26458" word-spacing="0px" style="line-height:125%" xml:space="preserve"><tspan x="73.142151" y="47.016987" stroke-width=".26458"><tspan dx="0" dy="0" fill="#000000" font-family="Arial" font-size="3.5057px" font-weight="400" stroke-width=".26458">Zu strikt mit den neuen Kanon-</tspan></tspan></text>
<text x="73.142151" y="51.080776" fill="#000000" font-family="Arial" font-size="3.5057px" font-weight="400" letter-spacing="0px" stroke-width=".26458" word-spacing="0px" style="line-height:125%" xml:space="preserve"><tspan x="73.142151" y="51.080776" stroke-width=".26458"><tspan dx="0" dy="0" fill="#000000" font-family="Arial" font-size="3.5057px" font-weight="400" stroke-width=".26458">Regeln</tspan></tspan></text>
<path d="m70.622 56.673v1.7779h1.7779v-1.7779z" fill="#e26001" fill-rule="evenodd"/>
<path d="m70.537 56.673c0-0.04233 0.04233-0.08466 0.08466-0.08466h1.7779c0.04762 0 0.08466 0.04233 0.08466 0.08466v1.7779c0 0.04762-0.03704 0.08466-0.08466 0.08466h-1.7779c-0.04233 0-0.08466-0.03704-0.08466-0.08466zm0.16932 1.7779-0.08466-0.08466h1.7779l-0.08466 0.08466v-1.7779l0.08466 0.08466h-1.7779l0.08466-0.08466z" fill="#a64400" stroke="#a64400" stroke-linejoin="bevel" stroke-width=".042331px"/>
<text x="73.142151" y="58.680546" fill="#000000" font-family="Arial" font-size="3.5057px" font-weight="400" letter-spacing="0px" stroke-width=".26458" word-spacing="0px" style="line-height:125%" xml:space="preserve"><tspan x="73.142151" y="58.680546" stroke-width=".26458"><tspan dx="0" dy="0" fill="#000000" font-family="Arial" font-size="3.5057px" font-weight="400" stroke-width=".26458">Zu lasch, es sollten keine nicht-</tspan></tspan></text>
<text x="73.142151" y="62.744335" fill="#000000" font-family="Arial" font-size="3.5057px" font-weight="400" letter-spacing="0px" stroke-width=".26458" word-spacing="0px" style="line-height:125%" xml:space="preserve"><tspan x="73.142151" y="62.744335" stroke-width=".26458"><tspan dx="0" dy="0" fill="#000000" font-family="Arial" font-size="3.5057px" font-weight="400" stroke-width=".26458">kanonischen Artikel erlaubt sein</tspan></tspan></text>
<path d="m70.622 68.356v1.7356h1.7779v-1.7356z" fill="#3da7af" fill-rule="evenodd"/>
<path d="m70.537 68.356c0-0.04233 0.04233-0.08466 0.08466-0.08466h1.7779c0.04762 0 0.08466 0.04233 0.08466 0.08466v1.7356c0 0.04762-0.03704 0.08466-0.08466 0.08466h-1.7779c-0.04233 0-0.08466-0.03704-0.08466-0.08466zm0.16932 1.7356-0.08466-0.08466h1.7779l-0.08466 0.08466v-1.7356l0.08466 0.08466h-1.7779l0.08466-0.08466z" fill="#2a7a80" stroke="#2a7a80" stroke-linejoin="bevel" stroke-width=".042331px"/>
<text x="73.142151" y="70.344109" fill="#000000" font-family="Arial" font-size="3.5057px" font-weight="400" letter-spacing="0px" stroke-width=".26458" word-spacing="0px" style="line-height:125%" xml:space="preserve"><tspan x="73.142151" y="70.344109" stroke-width=".26458"><tspan dx="0" dy="0" fill="#000000" font-family="Arial" font-size="3.5057px" font-weight="400" stroke-width=".26458">Mir gefallen die Inhalte nicht</tspan></tspan></text>
</svg>
