<?xml version="1.0" encoding="UTF-8"?>
<svg width="139.56mm" height="69.518mm" version="1.1" viewBox="0 0 139.56 69.518" xmlns="http://www.w3.org/2000/svg" xmlns:cc="http://creativecommons.org/ns#" xmlns:dc="http://purl.org/dc/elements/1.1/" xmlns:rdf="http://www.w3.org/1999/02/22-rdf-syntax-ns#">
<defs>
<clipPath id="a">
<path d="m2.0799-45.918h537.09v287.99h-537.09z"/>
</clipPath>
</defs>
<metadata>
<rdf:RDF>
<cc:Work rdf:about="">
<dc:format>image/svg+xml</dc:format>
<dc:type rdf:resource="http://purl.org/dc/dcmitype/StillImage"/>
<dc:title/>
</cc:Work>
</rdf:RDF>
</metadata>
<g transform="translate(-234.22 -37.698)">
<path d="m268.98 72.457 5.6697 29.105c16.073-3.1299 26.568-18.7 23.436-34.772-2.7118-13.93-14.914-23.986-29.105-23.986z" fill="#4285f4" fill-rule="evenodd"/>
<path d="m269.07 72.457v-0.01587l5.6697 29.105-0.10054-0.0661 0.74873-0.1561 0.73815-0.17461 0.73021-0.19049 0.72492-0.20637 0.71169-0.22488 0.70376-0.24341 0.69317-0.25927 0.68524-0.27251 0.67465-0.29103 0.66672-0.30955 1.3017-0.65878 1.2594-0.71698 1.2144-0.77783 1.1747-0.8334 1.1271-0.88366 1.0768-0.93658 1.0292-0.9842 0.98156-1.0292 0.92864-1.0742 0.87572-1.1165 0.82017-1.1588 0.76725-1.1959 0.7064-1.2302 0.64555-1.2646 0.58734-1.2964 0.26986-0.65613 0.25664-0.66672 0.23811-0.67201 0.22224-0.6773 0.20636-0.68788 0.19049-0.69053 0.17197-0.69582 0.15874-0.70376 0.14023-0.7064 0.1217-0.71169 0.10583-0.71434 0.0899-0.72228 0.0688-0.72492 0.0529-0.72757 0.0344-0.73286 0.0132-0.7355-3e-3 -0.7355-0.0212-0.74344-0.037-0.74344-0.0609-0.74344-0.0767-0.74609-0.0979-0.74873-0.11641-0.75138-0.13758-0.75138-0.2778-1.2911-0.33336-1.2646-0.38891-1.2435-0.43919-1.217-0.48681-1.1879-0.53972-1.1615-0.5847-1.1324-0.62967-1.1006-0.6773-1.0662-0.71699-1.0371-0.75931-1.0027-0.80164-0.96568-0.83869-0.93128-0.87837-0.89424-0.91277-0.85456-0.94716-0.81487-0.9842-0.77519-1.0133-0.7355-1.045-0.69053-1.0742-0.64555-1.1033-0.60057-1.1297-0.5556-1.1535-0.50533-1.1773-0.46035-1.2038-0.40744-1.2223-0.35982-1.2408-0.30426-1.2594-0.25399-1.2779-0.19843-1.2938-0.14287-1.3096-0.08731-1.3176-0.0291 0.0847-0.08466zm-0.16932-29.653c0-0.02117 0.0106-0.04233 0.0265-0.05821 0.0159-0.01587 0.0397-0.02646 0.0609-0.02646l1.3281 0.03175 1.3149 0.08731 1.299 0.14287 1.2884 0.19843 1.2646 0.25399 1.2488 0.30955 1.2302 0.35981 1.2091 0.41273 1.1826 0.46035 1.1641 0.51062 1.135 0.5556 1.1086 0.60586 1.0794 0.65084 1.0503 0.69582 1.0186 0.7355 0.98949 0.78048 0.95245 0.82017 0.91805 0.85985 0.88367 0.89954 0.84397 0.93658 0.80694 0.97097 0.76461 1.008 0.72227 1.0424 0.6773 1.0768 0.63497 1.1059 0.58999 1.1376 0.53972 1.1668 0.4921 1.1985 0.43918 1.2223 0.38892 1.2488 0.33865 1.2752 0.2778 1.2964 0.13757 0.75667 0.11641 0.75138 0.0979 0.75402 0.0767 0.75138 0.0608 0.74873 0.0397 0.74873 0.0212 0.74344 3e-3 0.74079-0.0159 0.7408-0.0344 0.73815-0.0529 0.73021-0.0688 0.72757-0.09 0.72756-0.10582 0.71963-0.1217 0.71698-0.14023 0.71169-0.15874 0.70375-0.17726 0.70111-0.19049 0.69582-0.20636 0.68788-0.22224 0.68259-0.24341 0.6773-0.25663 0.672-0.26986 0.66143-0.59264 1.3017-0.65084 1.2699-0.71169 1.2408-0.76725 1.2011-0.82546 1.1641-0.88102 1.1218-0.93393 1.0847-0.98684 1.0345-1.0371 0.98949-1.0847 0.94187-1.1324 0.88895-1.18 0.83604-1.225 0.78048-1.2646 0.72227-1.307 0.66407-0.67201 0.30955-0.67994 0.29103-0.68524 0.27514-0.69846 0.26193-0.70905 0.24341-0.71698 0.22488-0.72492 0.20901-0.7355 0.19314-0.74344 0.17461-0.74874 0.1561c-0.0212 5e-3 -0.045 0-0.0635-0.0132s-0.0317-0.0318-0.037-0.0529l-5.6697-29.105c0-0.0053-3e-3 -0.01058-3e-3 -0.01852z" fill="#2e60b3" stroke="#2e60b3" stroke-linejoin="bevel" stroke-width=".042331px"/>
<path transform="matrix(.26458 0 0 .26458 234.95 42.626)" d="m128.62 112.74-54.997-97.655c-53.927 30.378-73.026 98.725-42.648 152.65 23.689 42.078 71.676 64.237 119.07 55.007z" clip-path="url(#a)" fill="#ea4335" fill-rule="evenodd"/>
<path transform="matrix(.26458 0 0 .26458 234.95 42.626)" d="m128.31 112.81 0.04 0.09-54.997-97.655 0.43998 0.11999-4.9497 2.9598-4.7398 3.1598-4.5198 3.3598-4.3098 3.5598-4.0998 3.7398-3.8898 3.9198-3.6598 4.0798-3.4398 4.2398-3.2098 4.3698-2.9898 4.5198-2.7499 4.6398-2.5199 4.7498-2.2999 4.8697-1.0499 2.4699-0.99995 2.4899-0.92995 2.5199-0.86996 2.5299-0.81996 2.5599-0.74996 2.5699-0.68996 2.5999-0.62997 2.5999-0.55997 2.6199-0.50997 2.6399-0.43998 2.6499-0.37998 2.6499-0.31998 2.6699-0.24999 2.6799-0.17999 2.6899-0.12999 2.6899-0.05 2.6899 0.01 2.6999 0.07 2.7099 0.13999 2.7099 0.20999 2.6999 0.26999 2.6999 0.33998 2.7099 0.40998 2.6999 0.47998 2.6999 0.53997 2.6799 0.60997 2.6899 0.66997 2.6799 0.74996 2.6599 0.81996 2.6599 0.88995 2.6399 0.95995 2.6399 1.0199 2.6099 1.0999 2.5999 1.1699 2.5899 1.2399 2.5599 1.3099 2.5599 1.3899 2.5299 2.2899 3.8898 2.4199 3.7498 2.5599 3.6398 2.6799 3.5098 2.8099 3.3898 2.9198 3.2598 3.0398 3.1398 3.1598 2.9998 3.2598 2.8598 3.3598 2.7399 3.4498 2.5999 3.5498 2.4499 3.6298 2.3099 3.7198 2.1799 3.7998 2.0199 3.8598 1.8899 3.9398 1.7199 3.9998 1.5799 4.0698 1.4199 4.1198 1.2699 4.1698 1.11 4.2098 0.93995 4.2598 0.77996 4.2998 0.61996 4.3298 0.45998 4.3598 0.27999 4.3698 0.10999 4.3998-0.06 4.4198-0.21999 4.4198-0.41997 4.4298-0.58997 4.4398-0.76996-0.25999 0.37998zm22.059 109.87c0.02 0.09 0 0.17999-0.05 0.24999s-0.12999 0.11999-0.20999 0.12999l-4.4598 0.76996-4.4598 0.58997-4.4498 0.41998-4.4398 0.22999-4.4198 0.06-4.4098-0.12-4.3798-0.27998-4.3498-0.45998-4.3198-0.61997-4.2898-0.77996-4.2398-0.95995-4.1898-1.1099-4.1398-1.2699-4.0898-1.4399-4.0198-1.5799-3.9698-1.7399-3.8898-1.8899-3.8198-2.0399-3.7398-2.1899-3.6498-2.3199-3.5698-2.4699-3.4698-2.6199-3.3798-2.7399-3.2798-2.8798-3.1698-3.0198-3.0498-3.1598-2.9398-3.2798-2.8299-3.4098-2.6999-3.5298-2.5599-3.6598-2.4399-3.7698-2.3099-3.9098-1.3899-2.5499-1.3099-2.5699-1.2599-2.5699-1.1699-2.6099-1.0999-2.6199-1.0399-2.6299-0.95995-2.6399-0.88995-2.6599-0.81996-2.6799-0.75996-2.6799-0.67996-2.6799-0.60997-2.7099-0.53997-2.6999-0.47998-2.7199-0.40998-2.7099-0.33998-2.7199-0.26999-2.7198-0.20999-2.7199-0.14999-2.7299-0.07-2.7099-0.01-2.7199 0.06-2.7099 0.12999-2.7099 0.17999-2.6899 0.24999-2.6999 0.31998-2.6899 0.37998-2.6699 0.43998-2.6699 0.50997-2.6399 0.55997-2.6399 0.64997-2.6199 0.68996-2.5999 0.74996-2.5899 0.81996-2.5799 0.87996-2.5499 0.93995-2.5199 0.99995-2.5099 1.0699-2.4899 2.2999-4.8997 2.5399-4.7798 2.7699-4.6598 3.0098-4.5398 3.2298-4.4098 3.4598-4.2598 3.6798-4.0998 3.9098-3.9398 4.1198-3.7598 4.3298-3.5798 4.5598-3.3798 4.7598-3.1798 4.9497-2.9598c0.07-0.04 0.15999-0.06 0.24999-0.03 0.08 0.02 0.14999 0.07 0.18999 0.14999l54.997 97.655c0.02 0.03 0.03 0.06 0.04 0.09z" clip-path="url(#a)" fill="#ac2f24" stroke="#ac2f24" stroke-linejoin="bevel" stroke-width=".15999px"/>
<path d="m268.98 72.457v-29.653c-5.0983 0-10.109 1.3149-14.551 3.8151z" fill="#fbbc04" fill-rule="evenodd"/>
<path d="m269.06 72.417-0.15873 0.03968v-29.653l0.0873 0.08466-0.95509 0.01587-0.94981 0.04498-0.94451 0.07673-0.94187 0.10583-0.93658 0.13758-0.93128 0.16668-0.926 0.19578-0.91805 0.22753-0.91012 0.25134-0.90218 0.28309-0.89425 0.31484-0.88102 0.33865-0.87307 0.3704-0.8625 0.3995-0.84927 0.42331-0.83604 0.45506 0.0317-0.11641zm-14.697-25.756c-0.0132-0.01852-0.0159-0.04233-8e-3 -0.0635 5e-3 -0.02381 0.0212-0.04233 0.0397-0.05291l0.84134-0.45506 0.85455-0.4286 0.86779-0.3995 0.87837-0.3704 0.88631-0.34394 0.89954-0.31484 0.90747-0.28309 0.91541-0.25663 0.92335-0.22753 0.93129-0.19578 0.93657-0.16668 0.94187-0.13758 0.94716-0.10583 0.9498-0.07673 0.9551-0.04762 0.9551-0.01588c0.0238 0 0.045 0.01058 0.0608 0.02646 0.0159 0.01587 0.0238 0.03704 0.0238 0.05821v29.653c0 0.03969-0.0238 0.07408-0.0609 0.08202-0.037 0.01058-0.0767-0.0053-0.0953-0.03969z" fill="#b98902" stroke="#b98902" stroke-linejoin="bevel" stroke-width=".042331px"/>
<path d="m268.98 72.457v-29.653z" fill="#34a853" fill-rule="evenodd"/>
<path d="m269.07 72.457h-0.16932v-29.653l0.0847 0.08466 0.0847-0.08466zm-0.16932-29.653c0-0.04762 0.037-0.08466 0.0847-0.08466 0.0476 0 0.0847 0.03704 0.0847 0.08466v29.653c0 0.04498-0.037 0.08202-0.082 0.08466-0.0476 0.0026-0.0873-0.03704-0.0873-0.08466z" fill="#237a3b" stroke="#237a3b" stroke-linejoin="bevel" stroke-width=".042331px"/>
<text x="283.70724" y="70.55954" fill="#000000" font-family="Arial" font-size="3.5057px" font-weight="400" letter-spacing="0px" stroke-width=".26458" word-spacing="0px" style="line-height:125%" xml:space="preserve"><tspan x="283.70724" y="70.55954" stroke-width=".26458"><tspan dx="0" dy="0" fill="#000000" font-family="Arial" font-size="3.5057px" font-weight="400" stroke-width=".26458">23; 47%</tspan></tspan></text>
<text x="242.16983" y="81.142319" fill="#000000" font-family="Arial" font-size="3.5057px" font-weight="400" letter-spacing="0px" stroke-width=".26458" word-spacing="0px" style="line-height:125%" xml:space="preserve"><tspan x="242.16983" y="81.142319" stroke-width=".26458"><tspan dx="0" dy="0" fill="#000000" font-family="Arial" font-size="3.5057px" font-weight="400" stroke-width=".26458">22; 45%</tspan></tspan></text>
<text x="258.29446" y="49.658543" fill="#000000" font-family="Arial" font-size="3.5057px" font-weight="400" letter-spacing="0px" stroke-width=".26458" word-spacing="0px" style="line-height:125%" xml:space="preserve"><tspan x="258.29446" y="49.658543" stroke-width=".26458"><tspan dx="0" dy="0" fill="#000000" font-family="Arial" font-size="3.5057px" font-weight="400" stroke-width=".26458">4; 8%</tspan></tspan></text>
<path d="m306.05 50.648v1.7779h1.7779v-1.7779z" fill="#4285f4" fill-rule="evenodd"/>
<path d="m305.96 50.648c0-0.04498 0.0397-0.08466 0.0847-0.08466h1.7779c0.0476 0 0.0847 0.03968 0.0847 0.08466v1.7779c0 0.04762-0.037 0.08466-0.0847 0.08466h-1.7779c-0.045 0-0.0847-0.03704-0.0847-0.08466zm0.16932 1.7779-0.0847-0.08466h1.7779l-0.0847 0.08466v-1.7779l0.0847 0.08466h-1.7779l0.0847-0.08466z" fill="#2e60b3" stroke="#2e60b3" stroke-linejoin="bevel" stroke-width=".042331px"/>
<text x="308.58575" y="52.664551" fill="#000000" font-family="Arial" font-size="3.5057px" font-weight="400" letter-spacing="0px" stroke-width=".26458" word-spacing="0px" style="line-height:125%" xml:space="preserve"><tspan x="308.58575" y="52.664551" stroke-width=".26458"><tspan dx="0" dy="0" fill="#000000" font-family="Arial" font-size="3.5057px" font-weight="400" stroke-width=".26458">Ich bin sehr daran interessiert</tspan></tspan></text>
<path d="m306.05 63.855v1.7779h1.7779v-1.7779z" fill="#ea4335" fill-rule="evenodd"/>
<path d="m305.96 63.855c0-0.04498 0.0397-0.08466 0.0847-0.08466h1.7779c0.0476 0 0.0847 0.03968 0.0847 0.08466v1.7779c0 0.04762-0.037 0.08466-0.0847 0.08466h-1.7779c-0.045 0-0.0847-0.03704-0.0847-0.08466zm0.16932 1.7779-0.0847-0.08466h1.7779l-0.0847 0.08466v-1.7779l0.0847 0.08466h-1.7779l0.0847-0.08466z" fill="#ac2f24" stroke="#ac2f24" stroke-linejoin="bevel" stroke-width=".042331px"/>
<text x="308.58575" y="65.882858" fill="#000000" font-family="Arial" font-size="3.5057px" font-weight="400" letter-spacing="0px" stroke-width=".26458" word-spacing="0px" style="line-height:125%" xml:space="preserve"><tspan x="308.58575" y="65.882858" stroke-width=".26458"><tspan dx="0" dy="0" fill="#000000" font-family="Arial" font-size="3.5057px" font-weight="400" stroke-width=".26458">Interessiert mich nur bedingt, gut wenn</tspan></tspan></text>
<text x="308.58575" y="69.946648" fill="#000000" font-family="Arial" font-size="3.5057px" font-weight="400" letter-spacing="0px" stroke-width=".26458" word-spacing="0px" style="line-height:125%" xml:space="preserve"><tspan x="308.58575" y="69.946648" stroke-width=".26458"><tspan dx="0" dy="0" fill="#000000" font-family="Arial" font-size="3.5057px" font-weight="400" stroke-width=".26458">es das gibt, wenn nicht, auch gut.</tspan></tspan></text>
<path d="m306.05 77.105v1.7356h1.7779v-1.7356z" fill="#fbbc04" fill-rule="evenodd"/>
<path d="m305.96 77.105c0-0.04498 0.0397-0.08466 0.0847-0.08466h1.7779c0.0476 0 0.0847 0.03969 0.0847 0.08466v1.7356c0 0.04762-0.037 0.08466-0.0847 0.08466h-1.7779c-0.045 0-0.0847-0.03704-0.0847-0.08466zm0.16932 1.7356-0.0847-0.08466h1.7779l-0.0847 0.08466v-1.7356l0.0847 0.08466h-1.7779l0.0847-0.08466z" fill="#b98902" stroke="#b98902" stroke-linejoin="bevel" stroke-width=".042331px"/>
<text x="308.58575" y="79.101173" fill="#000000" font-family="Arial" font-size="3.5057px" font-weight="400" letter-spacing="0px" stroke-width=".26458" word-spacing="0px" style="line-height:125%" xml:space="preserve"><tspan x="308.58575" y="79.101173" stroke-width=".26458"><tspan dx="0" dy="0" fill="#000000" font-family="Arial" font-size="3.5057px" font-weight="400" stroke-width=".26458">Nein das interessiert mich nicht</tspan></tspan></text>
<path d="m306.05 90.312v1.7779h1.7779v-1.7779z" fill="#34a853" fill-rule="evenodd"/>
<path d="m305.96 90.312c0-0.04498 0.0397-0.08466 0.0847-0.08466h1.7779c0.0476 0 0.0847 0.03969 0.0847 0.08466v1.7779c0 0.04762-0.037 0.08466-0.0847 0.08466h-1.7779c-0.045 0-0.0847-0.03704-0.0847-0.08466zm0.16932 1.7779-0.0847-0.08466h1.7779l-0.0847 0.08466v-1.7779l0.0847 0.08466h-1.7779l0.0847-0.08466z" fill="#237a3b" stroke="#237a3b" stroke-linejoin="bevel" stroke-width=".042331px"/>
<text x="308.58575" y="92.319489" fill="#000000" font-family="Arial" font-size="3.5057px" font-weight="400" letter-spacing="0px" stroke-width=".26458" word-spacing="0px" style="line-height:125%" xml:space="preserve"><tspan x="308.58575" y="92.319489" stroke-width=".26458"><tspan dx="0" dy="0" fill="#000000" font-family="Arial" font-size="3.5057px" font-weight="400" stroke-width=".26458">Ich bin dagegen sowas zu machen</tspan></tspan></text>
</g>
</svg>
